<svg width="24" height="25" viewBox="0 0 24 25" fill="none" xmlns="http://www.w3.org/2000/svg">
<path fill-rule="evenodd" clip-rule="evenodd" d="M2 2.83997C1.58579 2.83997 1.25 3.17575 1.25 3.58997L1.25 21.59C1.25 22.0042 1.58579 22.34 2 22.34L22 22.34C22.4142 22.34 22.75 22.0042 22.75 21.59L22.75 3.58997C22.75 3.17575 22.4142 2.83997 22 2.83997L2 2.83997ZM2.75 20.84L2.75 4.33997L21.25 4.33997L21.25 20.84L2.75 20.84ZM14.624 9.17394C14.4849 8.96529 14.2508 8.83997 14 8.83997C13.7492 8.83997 13.5151 8.96529 13.376 9.17394L10 14.2379L8.62404 12.1739C8.48494 11.9653 8.25076 11.84 8 11.84L6 11.84C5.58579 11.84 5.25 12.1758 5.25 12.59C5.25 13.0042 5.58579 13.34 6 13.34L7.59861 13.34L9.37596 16.006C9.51506 16.2146 9.74923 16.34 10 16.34C10.2508 16.34 10.4849 16.2146 10.624 16.006L14 10.9421L15.376 13.006C15.5151 13.2146 15.7492 13.34 16 13.34L18 13.34C18.4142 13.34 18.75 13.0042 18.75 12.59C18.75 12.1758 18.4142 11.84 18 11.84L16.4014 11.84L14.624 9.17394Z" fill="white"/>
</svg>
