<svg width="24" height="25" viewBox="0 0 24 25" fill="none" xmlns="http://www.w3.org/2000/svg">
<path fill-rule="evenodd" clip-rule="evenodd" d="M15 4.83997C15.3 4.83997 15.5712 5.01877 15.6894 5.29453L18.4945 11.84L22 11.84C22.4142 11.84 22.75 12.1758 22.75 12.59C22.75 13.0042 22.4142 13.34 22 13.34L18 13.34C17.7 13.34 17.4288 13.1612 17.3106 12.8854L15 7.49391L9.68936 19.8854C9.57117 20.1612 9.30002 20.34 9 20.34C8.69998 20.34 8.42882 20.1612 8.31064 19.8854L5.50545 13.34L2 13.34C1.58579 13.34 1.25 13.0042 1.25 12.59C1.25 12.1758 1.58579 11.84 2 11.84L6 11.84C6.30002 11.84 6.57117 12.0188 6.68936 12.2945L9 17.686L14.3106 5.29453C14.4288 5.01877 14.7 4.83997 15 4.83997Z" fill="white"/>
</svg>
