<svg width="24" height="25" viewBox="0 0 24 25" fill="none" xmlns="http://www.w3.org/2000/svg">
<path fill-rule="evenodd" clip-rule="evenodd" d="M8 2.37012C7.80109 2.37012 7.61032 2.44913 7.46967 2.58979L2.46967 7.58979C2.32902 7.73044 2.25 7.92121 2.25 8.12012V16.1201C2.25 16.319 2.32902 16.5098 2.46967 16.6504L7.46967 21.6504C7.61032 21.7911 7.80109 21.8701 8 21.8701H16C16.1989 21.8701 16.3897 21.7911 16.5303 21.6504L21.5303 16.6504C21.671 16.5098 21.75 16.319 21.75 16.1201V8.12012C21.75 7.92121 21.671 7.73044 21.5303 7.58979L16.5303 2.58979C16.3897 2.44913 16.1989 2.37012 16 2.37012H8ZM3.75 8.43078L8.31066 3.87012H15.6893L20.25 8.43078V15.8095L15.6893 20.3701H8.31066L3.75 15.8095V8.43078ZM7.99997 11.3701C7.58576 11.3701 7.24997 11.7059 7.24997 12.1201C7.24997 12.5343 7.58576 12.8701 7.99997 12.8701H16C16.4142 12.8701 16.75 12.5343 16.75 12.1201C16.75 11.7059 16.4142 11.3701 16 11.3701H7.99997Z" fill="white"/>
</svg>
