<svg width="24" height="25" viewBox="0 0 24 25" fill="none" xmlns="http://www.w3.org/2000/svg">
<path fill-rule="evenodd" clip-rule="evenodd" d="M6.05815 8.70168C6.40317 5.94146 8.74956 3.87012 11.5313 3.87012H12C12.4142 3.87012 12.75 3.53433 12.75 3.12012C12.75 2.7059 12.4142 2.37012 12 2.37012H11.5313C7.99307 2.37012 5.00859 5.00477 4.56973 8.51563L3.2558 19.0271C3.22911 19.2406 3.29538 19.4552 3.43775 19.6165C3.58011 19.7777 3.78488 19.8701 4 19.8701H7.51257L7.56491 19.9879C8.34388 21.7406 10.082 22.8701 12 22.8701C13.918 22.8701 15.6561 21.7406 16.435 19.9879L16.4874 19.8701H20C20.2151 19.8701 20.4199 19.7777 20.5623 19.6165C20.7046 19.4552 20.7709 19.2406 20.7442 19.0271L19.7442 11.0271C19.6928 10.6161 19.318 10.3245 18.907 10.3759C18.496 10.4273 18.2044 10.8021 18.2558 11.2131L19.1504 18.3701H16.0171C16.0059 18.3699 15.9948 18.3699 15.9837 18.3701H8.01627C8.00515 18.3699 7.99401 18.3699 7.98286 18.3701H4.84959L6.05815 8.70168ZM9.20518 19.8701C9.81937 20.7967 10.864 21.3701 12 21.3701C13.1359 21.3701 14.1806 20.7967 14.7948 19.8701H9.20518Z" fill="white"/>
<circle cx="17.0625" cy="5.80762" r="3" fill="white" stroke="white" stroke-width="1.5" stroke-linecap="round" stroke-linejoin="round"/>
</svg>
