<svg width="24" height="25" viewBox="0 0 24 25" fill="none" xmlns="http://www.w3.org/2000/svg">
<path fill-rule="evenodd" clip-rule="evenodd" d="M3.75 12.1201C3.75 7.56377 7.44365 3.87012 12 3.87012C16.5563 3.87012 20.25 7.56377 20.25 12.1201C20.25 16.6765 16.5563 20.3701 12 20.3701C7.44365 20.3701 3.75 16.6765 3.75 12.1201ZM12 2.37012C6.61522 2.37012 2.25 6.73534 2.25 12.1201C2.25 17.5049 6.61522 21.8701 12 21.8701C17.3848 21.8701 21.75 17.5049 21.75 12.1201C21.75 6.73534 17.3848 2.37012 12 2.37012ZM16.5303 9.65045C16.8232 9.35755 16.8232 8.88268 16.5303 8.58979C16.2374 8.29689 15.7626 8.29689 15.4697 8.58979L11 13.0595L9.53033 11.5898C9.23744 11.2969 8.76256 11.2969 8.46967 11.5898C8.17678 11.8827 8.17678 12.3576 8.46967 12.6504L10.4697 14.6504C10.6103 14.7911 10.8011 14.8701 11 14.8701C11.1989 14.8701 11.3897 14.7911 11.5303 14.6504L16.5303 9.65045Z" fill="white"/>
</svg>
