<svg width="24" height="25" viewBox="0 0 24 25" fill="none" xmlns="http://www.w3.org/2000/svg">
<path fill-rule="evenodd" clip-rule="evenodd" d="M8.11341 3.44739C9.25357 2.76157 10.5864 2.37012 12 2.37012C15.806 2.37012 19.0164 5.20418 19.4884 8.98076L20.2442 15.0269C20.2956 15.4379 20.004 15.8127 19.593 15.8641C19.182 15.9155 18.8072 15.6239 18.7558 15.2129L18 9.16681C17.6218 6.14087 15.0495 3.87012 12 3.87012C10.8661 3.87012 9.7996 4.18358 8.88658 4.73277C8.53164 4.94628 8.07081 4.83161 7.85731 4.47666C7.6438 4.12172 7.75847 3.66089 8.11341 3.44739ZM6.00003 9.16681C6.10153 8.35478 6.36064 7.59808 6.7442 6.92498L18.1893 18.3701H16.0171C16.006 18.3699 15.9948 18.3699 15.9837 18.3701H8.01629C8.00518 18.3699 7.99404 18.3699 7.98288 18.3701H6.15163C5.46027 18.3701 4.92536 17.7642 5.01111 17.0782L6.00003 9.16681ZM7.5126 19.8701H6.15163C4.55802 19.8701 3.32503 18.4734 3.52269 16.8921L4.51161 8.98076C4.65592 7.82625 5.05666 6.75859 5.65256 5.83334L3.46967 3.65045C3.17678 3.35755 3.17678 2.88268 3.46967 2.58979C3.76256 2.29689 4.23744 2.29689 4.53033 2.58979L22.5303 20.5898C22.8232 20.8827 22.8232 21.3576 22.5303 21.6504C22.2374 21.9433 21.7626 21.9433 21.4697 21.6504L19.6893 19.8701H16.4874L16.4351 19.9879C15.6561 21.7406 13.918 22.8701 12 22.8701C10.082 22.8701 8.34391 21.7406 7.56494 19.9879L7.5126 19.8701ZM9.2052 19.8701C9.81939 20.7967 10.864 21.3701 12 21.3701C13.136 21.3701 14.1806 20.7967 14.7948 19.8701H9.2052Z" fill="white"/>
</svg>
