<svg width="24" height="25" viewBox="0 0 24 25" fill="none" xmlns="http://www.w3.org/2000/svg">
<path fill-rule="evenodd" clip-rule="evenodd" d="M8 2.37012C7.80109 2.37012 7.61032 2.44913 7.46967 2.58979L2.46967 7.58979C2.32902 7.73044 2.25 7.92121 2.25 8.12012V16.1201C2.25 16.319 2.32902 16.5098 2.46967 16.6504L7.46967 21.6504C7.61032 21.7911 7.80109 21.8701 8 21.8701H16C16.1989 21.8701 16.3897 21.7911 16.5303 21.6504L21.5303 16.6504C21.671 16.5098 21.75 16.319 21.75 16.1201V8.12012C21.75 7.92121 21.671 7.73044 21.5303 7.58979L16.5303 2.58979C16.3897 2.44913 16.1989 2.37012 16 2.37012H8ZM3.75 8.43078L8.31066 3.87012H15.6893L20.25 8.43078V15.8095L15.6893 20.3701H8.31066L3.75 15.8095V8.43078ZM9.53033 8.58979C9.23744 8.29689 8.76256 8.29689 8.46967 8.58979C8.17678 8.88268 8.17678 9.35755 8.46967 9.65045L10.9393 12.1201L8.46967 14.5898C8.17678 14.8827 8.17678 15.3576 8.46967 15.6504C8.76256 15.9433 9.23744 15.9433 9.53033 15.6504L12 13.1808L14.4697 15.6504C14.7626 15.9433 15.2374 15.9433 15.5303 15.6504C15.8232 15.3576 15.8232 14.8827 15.5303 14.5898L13.0607 12.1201L15.5303 9.65045C15.8232 9.35755 15.8232 8.88268 15.5303 8.58979C15.2374 8.29689 14.7626 8.29689 14.4697 8.58979L12 11.0595L9.53033 8.58979Z" fill="white"/>
</svg>
