<svg width="24" height="25" viewBox="0 0 24 25" fill="none" xmlns="http://www.w3.org/2000/svg">
<path fill-rule="evenodd" clip-rule="evenodd" d="M12 0.370117C12.2676 0.370117 12.515 0.512727 12.6491 0.74434L23.6491 19.7443C23.7834 19.9764 23.7837 20.2625 23.6497 20.4947C23.5158 20.727 23.2681 20.8701 23 20.8701H1C0.73189 20.8701 0.484172 20.727 0.350257 20.4947C0.216341 20.2625 0.216598 19.9764 0.35093 19.7443L11.3509 0.74434C11.485 0.512727 11.7324 0.370117 12 0.370117ZM21.6992 19.3701L12 2.61701L2.30084 19.3701H21.6992ZM12 8.37011C12.4142 8.37011 12.75 8.7059 12.75 9.12011V13.1201C12.75 13.5343 12.4142 13.8701 12 13.8701C11.5858 13.8701 11.25 13.5343 11.25 13.1201V9.12011C11.25 8.7059 11.5858 8.37011 12 8.37011ZM12 17.1201C12.5523 17.1201 13 16.6724 13 16.1201C13 15.5678 12.5523 15.1201 12 15.1201C11.4477 15.1201 11 15.5678 11 16.1201C11 16.6724 11.4477 17.1201 12 17.1201Z" fill="white"/>
</svg>
