<svg width="24" height="25" viewBox="0 0 24 25" fill="none" xmlns="http://www.w3.org/2000/svg">
<path fill-rule="evenodd" clip-rule="evenodd" d="M19.9689 9.9848C18.7896 5.5837 14.2659 2.9719 9.86476 4.15117C8.62833 4.48247 7.53312 5.07773 6.62352 5.86009L18.6778 16.965C20.086 15.0217 20.6384 12.4835 19.9689 9.9848ZM19.229 18.6643C18.0125 20.0106 16.4066 21.0333 14.5235 21.5378C9.32221 22.9315 3.97593 19.8448 2.58224 14.6435C1.18856 9.44225 4.27524 4.09596 9.47653 2.70228C14.6778 1.3086 20.0241 4.39527 21.4178 9.59657C22.2801 12.8147 21.4272 16.0884 19.4196 18.447C19.3926 18.4934 19.3602 18.5375 19.3224 18.5786C19.2932 18.6103 19.2619 18.6389 19.229 18.6643ZM17.6908 18.0952L5.57981 6.93808C3.98338 8.91927 3.32218 11.6095 4.03113 14.2553C5.2104 18.6564 9.73418 21.2682 14.1353 20.0889C15.5177 19.7185 16.7235 19.0182 17.6908 18.0952Z" fill="white"/>
</svg>
