<svg width="24" height="25" viewBox="0 0 24 25" fill="none" xmlns="http://www.w3.org/2000/svg">
<path fill-rule="evenodd" clip-rule="evenodd" d="M12 3.87012C7.44365 3.87012 3.75 7.56377 3.75 12.1201C3.75 16.6765 7.44365 20.3701 12 20.3701C16.5563 20.3701 20.25 16.6765 20.25 12.1201C20.25 7.56377 16.5563 3.87012 12 3.87012ZM2.25 12.1201C2.25 6.73534 6.61522 2.37012 12 2.37012C17.3848 2.37012 21.75 6.73534 21.75 12.1201C21.75 17.5049 17.3848 21.8701 12 21.8701C6.61522 21.8701 2.25 17.5049 2.25 12.1201ZM12 7.37012C12.4142 7.37012 12.75 7.7059 12.75 8.12012V13.1201C12.75 13.5343 12.4142 13.8701 12 13.8701C11.5858 13.8701 11.25 13.5343 11.25 13.1201V8.12012C11.25 7.7059 11.5858 7.37012 12 7.37012ZM12 17.1201C12.5523 17.1201 13 16.6724 13 16.1201C13 15.5678 12.5523 15.1201 12 15.1201C11.4477 15.1201 11 15.5678 11 16.1201C11 16.6724 11.4477 17.1201 12 17.1201Z" fill="white"/>
</svg>
