<svg width="24" height="25" viewBox="0 0 24 25" fill="none" xmlns="http://www.w3.org/2000/svg">
<path fill-rule="evenodd" clip-rule="evenodd" d="M3.75 12.1201C3.75 7.56377 7.44365 3.87012 12 3.87012C16.5563 3.87012 20.25 7.56377 20.25 12.1201C20.25 16.6765 16.5563 20.3701 12 20.3701C7.44365 20.3701 3.75 16.6765 3.75 12.1201ZM12 2.37012C6.61522 2.37012 2.25 6.73534 2.25 12.1201C2.25 17.5049 6.61522 21.8701 12 21.8701C17.3848 21.8701 21.75 17.5049 21.75 12.1201C21.75 6.73534 17.3848 2.37012 12 2.37012ZM9.53033 8.58979C9.23744 8.29689 8.76256 8.29689 8.46967 8.58979C8.17678 8.88268 8.17678 9.35755 8.46967 9.65045L10.9393 12.1201L8.46967 14.5898C8.17678 14.8827 8.17678 15.3576 8.46967 15.6504C8.76256 15.9433 9.23744 15.9433 9.53033 15.6504L12 13.1808L14.4697 15.6504C14.7626 15.9433 15.2374 15.9433 15.5303 15.6504C15.8232 15.3576 15.8232 14.8827 15.5303 14.5898L13.0607 12.1201L15.5303 9.65045C15.8232 9.35755 15.8232 8.88268 15.5303 8.58979C15.2374 8.29689 14.7626 8.29689 14.4697 8.58979L12 11.0595L9.53033 8.58979Z" fill="white"/>
</svg>
