<svg width="24" height="25" viewBox="0 0 24 25" fill="none" xmlns="http://www.w3.org/2000/svg">
<path fill-rule="evenodd" clip-rule="evenodd" d="M8 2.37012C7.80109 2.37012 7.61032 2.44913 7.46967 2.58979L2.46967 7.58979C2.32902 7.73044 2.25 7.92121 2.25 8.12012V16.1201C2.25 16.319 2.32902 16.5098 2.46967 16.6504L7.46967 21.6504C7.61032 21.7911 7.80109 21.8701 8 21.8701H16C16.1989 21.8701 16.3897 21.7911 16.5303 21.6504L21.5303 16.6504C21.671 16.5098 21.75 16.319 21.75 16.1201V8.12012C21.75 7.92121 21.671 7.73044 21.5303 7.58979L16.5303 2.58979C16.3897 2.44913 16.1989 2.37012 16 2.37012H8ZM3.75 8.43078L8.31066 3.87012H15.6893L20.25 8.43078V15.8095L15.6893 20.3701H8.31066L3.75 15.8095V8.43078ZM12 7.37012C12.4142 7.37012 12.75 7.7059 12.75 8.12012V13.1201C12.75 13.5343 12.4142 13.8701 12 13.8701C11.5858 13.8701 11.25 13.5343 11.25 13.1201V8.12012C11.25 7.7059 11.5858 7.37012 12 7.37012ZM13 16.1201C13 16.6724 12.5523 17.1201 12 17.1201C11.4477 17.1201 11 16.6724 11 16.1201C11 15.5678 11.4477 15.1201 12 15.1201C12.5523 15.1201 13 15.5678 13 16.1201Z" fill="white"/>
</svg>
