<svg width="24" height="25" viewBox="0 0 24 25" fill="none" xmlns="http://www.w3.org/2000/svg">
<path fill-rule="evenodd" clip-rule="evenodd" d="M4.51159 8.98076C4.98366 5.20418 8.19403 2.37012 12 2.37012C15.806 2.37012 19.0163 5.20418 19.4884 8.98076L20.7442 19.0271C20.7709 19.2406 20.7046 19.4552 20.5623 19.6165C20.4199 19.7777 20.2151 19.8701 20 19.8701H16.4874L16.435 19.9879C15.6561 21.7406 13.918 22.8701 12 22.8701C10.082 22.8701 8.34388 21.7406 7.56491 19.9879L7.51257 19.8701H4C3.78488 19.8701 3.58011 19.7777 3.43775 19.6165C3.29538 19.4552 3.22911 19.2406 3.2558 19.0271L4.51159 8.98076ZM8.01627 18.3701C8.00515 18.3699 7.99401 18.3699 7.98286 18.3701H4.84959L6 9.16681C6.37825 6.14087 8.95052 3.87012 12 3.87012C15.0495 3.87012 17.6218 6.14087 18 9.16681L19.1504 18.3701H16.0171C16.0059 18.3699 15.9948 18.3699 15.9837 18.3701H8.01627ZM9.20518 19.8701C9.81937 20.7967 10.864 21.3701 12 21.3701C13.1359 21.3701 14.1806 20.7967 14.7948 19.8701H9.20518ZM8.24999 12.1201C8.24999 11.7059 8.58577 11.3701 8.99999 11.3701H15C15.4142 11.3701 15.75 11.7059 15.75 12.1201C15.75 12.5343 15.4142 12.8701 15 12.8701H8.99999C8.58577 12.8701 8.24999 12.5343 8.24999 12.1201Z" fill="white"/>
</svg>
