<svg width="24" height="25" viewBox="0 0 24 25" fill="none" xmlns="http://www.w3.org/2000/svg">
<path fill-rule="evenodd" clip-rule="evenodd" d="M3 2.37012C2.58579 2.37012 2.25 2.7059 2.25 3.12012V21.1201C2.25 21.5343 2.58579 21.8701 3 21.8701H21C21.4142 21.8701 21.75 21.5343 21.75 21.1201V12.1201C21.75 11.7059 21.4142 11.3701 21 11.3701C20.5858 11.3701 20.25 11.7059 20.25 12.1201V20.3701H3.75V3.87012H12C12.4142 3.87012 12.75 3.53433 12.75 3.12012C12.75 2.7059 12.4142 2.37012 12 2.37012H3ZM15.75 6.12012C15.75 4.87748 16.7574 3.87012 18 3.87012C19.2426 3.87012 20.25 4.87748 20.25 6.12012C20.25 7.36276 19.2426 8.37012 18 8.37012C16.7574 8.37012 15.75 7.36276 15.75 6.12012ZM18 2.37012C15.9289 2.37012 14.25 4.04905 14.25 6.12012C14.25 8.19118 15.9289 9.87012 18 9.87012C20.0711 9.87012 21.75 8.19118 21.75 6.12012C21.75 4.04905 20.0711 2.37012 18 2.37012Z" fill="white"/>
</svg>
