<svg width="24" height="25" viewBox="0 0 24 25" fill="none" xmlns="http://www.w3.org/2000/svg">
<path fill-rule="evenodd" clip-rule="evenodd" d="M12 2.37012C8.19403 2.37012 4.98366 5.20418 4.51159 8.98076L3.2558 19.0271C3.22911 19.2406 3.29538 19.4552 3.43775 19.6165C3.58011 19.7777 3.78488 19.8701 4 19.8701H7.51257L7.56491 19.9879C8.34388 21.7406 10.082 22.8701 12 22.8701C13.918 22.8701 15.6561 21.7406 16.435 19.9879L16.4874 19.8701H20C20.2151 19.8701 20.4199 19.7777 20.5623 19.6165C20.7046 19.4552 20.7709 19.2406 20.7442 19.0271L19.4884 8.98076C19.0163 5.20418 15.806 2.37012 12 2.37012ZM16.0171 18.3701C16.0059 18.3699 15.9948 18.3699 15.9837 18.3701H8.01627C8.00515 18.3699 7.99401 18.3699 7.98286 18.3701H4.84959L6 9.16681C6.37825 6.14087 8.95052 3.87012 12 3.87012C15.0495 3.87012 17.6218 6.14087 18 9.16681L19.1504 18.3701H16.0171ZM9.20518 19.8701H14.7948C14.1806 20.7967 13.1359 21.3701 12 21.3701C10.864 21.3701 9.81937 20.7967 9.20518 19.8701Z" fill="white"/>
</svg>
