<svg width="24" height="25" viewBox="0 0 24 25" fill="none" xmlns="http://www.w3.org/2000/svg">
<path fill-rule="evenodd" clip-rule="evenodd" d="M3.75 3.12012C3.75 2.7059 3.41421 2.37012 3 2.37012C2.58579 2.37012 2.25 2.7059 2.25 3.12012V21.1201C2.25 21.5343 2.58579 21.8701 3 21.8701C3.41421 21.8701 3.75 21.5343 3.75 21.1201L3.75 3.12012ZM7 7.37012C6.58579 7.37012 6.25 7.7059 6.25 8.12012V16.1201C6.25 16.5343 6.58579 16.8701 7 16.8701H21C21.4142 16.8701 21.75 16.5343 21.75 16.1201V8.12012C21.75 7.7059 21.4142 7.37012 21 7.37012H7ZM7.75 15.3701V8.87012H20.25V15.3701H7.75Z" fill="white"/>
</svg>
