<svg width="24" height="25" viewBox="0 0 24 25" fill="none" xmlns="http://www.w3.org/2000/svg">
<path fill-rule="evenodd" clip-rule="evenodd" d="M21.75 3.12012C21.75 2.7059 21.4142 2.37012 21 2.37012C20.5858 2.37012 20.25 2.7059 20.25 3.12012V21.1201C20.25 21.5343 20.5858 21.8701 21 21.8701C21.4142 21.8701 21.75 21.5343 21.75 21.1201V3.12012ZM3 7.37012C2.58579 7.37012 2.25 7.7059 2.25 8.12012V16.1201C2.25 16.5343 2.58579 16.8701 3 16.8701H17C17.4142 16.8701 17.75 16.5343 17.75 16.1201V8.12012C17.75 7.7059 17.4142 7.37012 17 7.37012H3ZM3.75 15.3701V8.87012H16.25V15.3701H3.75Z" fill="white"/>
</svg>
