<svg width="24" height="25" viewBox="0 0 24 25" fill="none" xmlns="http://www.w3.org/2000/svg">
<path fill-rule="evenodd" clip-rule="evenodd" d="M4 2.37012C3.58579 2.37012 3.25 2.7059 3.25 3.12012C3.25 3.53433 3.58579 3.87012 4 3.87012H20C20.4142 3.87012 20.75 3.53433 20.75 3.12012C20.75 2.7059 20.4142 2.37012 20 2.37012H4ZM12.5303 7.58979C12.2374 7.29689 11.7626 7.29689 11.4697 7.58979L7.46967 11.5898C7.17678 11.8827 7.17678 12.3576 7.46967 12.6504C7.76256 12.9433 8.23744 12.9433 8.53033 12.6504L11.25 9.93078V21.1201C11.25 21.5343 11.5858 21.8701 12 21.8701C12.4142 21.8701 12.75 21.5343 12.75 21.1201V9.93078L15.4697 12.6504C15.7626 12.9433 16.2374 12.9433 16.5303 12.6504C16.8232 12.3576 16.8232 11.8827 16.5303 11.5898L12.5303 7.58979Z" fill="white"/>
</svg>
