<svg width="24" height="25" viewBox="0 0 24 25" fill="none" xmlns="http://www.w3.org/2000/svg">
<path fill-rule="evenodd" clip-rule="evenodd" d="M4 3.84009C3.58579 3.84009 3.25 4.17588 3.25 4.59009C3.25 5.0043 3.58579 5.34009 4 5.34009L20 5.34009C20.4142 5.34009 20.75 5.0043 20.75 4.59009C20.75 4.17588 20.4142 3.84009 20 3.84009L4 3.84009ZM5.25 9.59009C5.25 9.17588 5.58579 8.84009 6 8.84009L18 8.84009C18.4142 8.84009 18.75 9.17588 18.75 9.59009C18.75 10.0043 18.4142 10.3401 18 10.3401L6 10.3401C5.58579 10.3401 5.25 10.0043 5.25 9.59009ZM4 13.8401C3.58579 13.8401 3.25 14.1759 3.25 14.5901C3.25 15.0043 3.58579 15.3401 4 15.3401L20 15.3401C20.4142 15.3401 20.75 15.0043 20.75 14.5901C20.75 14.1759 20.4142 13.8401 20 13.8401L4 13.8401ZM8 18.8401C7.58579 18.8401 7.25 19.1759 7.25 19.5901C7.25 20.0043 7.58579 20.3401 8 20.3401L16 20.3401C16.4142 20.3401 16.75 20.0043 16.75 19.5901C16.75 19.1759 16.4142 18.8401 16 18.8401L8 18.8401Z" fill="white"/>
</svg>
