<svg width="24" height="25" viewBox="0 0 24 25" fill="none" xmlns="http://www.w3.org/2000/svg">
<path fill-rule="evenodd" clip-rule="evenodd" d="M4 3.84009C3.58579 3.84009 3.25 4.17588 3.25 4.59009C3.25 5.0043 3.58579 5.34009 4 5.34009L20 5.34009C20.4142 5.34009 20.75 5.0043 20.75 4.59009C20.75 4.17588 20.4142 3.84009 20 3.84009L4 3.84009ZM7.25 9.59009C7.25 9.17588 7.58579 8.84009 8 8.84009L20 8.84009C20.4142 8.84009 20.75 9.17588 20.75 9.59009C20.75 10.0043 20.4142 10.3401 20 10.3401L8 10.3401C7.58579 10.3401 7.25 10.0043 7.25 9.59009ZM6 13.8401C5.58579 13.8401 5.25 14.1759 5.25 14.5901C5.25 15.0043 5.58579 15.3401 6 15.3401L20 15.3401C20.4142 15.3401 20.75 15.0043 20.75 14.5901C20.75 14.1759 20.4142 13.8401 20 13.8401L6 13.8401ZM12 18.8401C11.5858 18.8401 11.25 19.1759 11.25 19.5901C11.25 20.0043 11.5858 20.3401 12 20.3401L20 20.3401C20.4142 20.3401 20.75 20.0043 20.75 19.5901C20.75 19.1759 20.4142 18.8401 20 18.8401L12 18.8401Z" fill="white"/>
</svg>
