<svg width="24" height="25" viewBox="0 0 24 25" fill="none" xmlns="http://www.w3.org/2000/svg">
<path fill-rule="evenodd" clip-rule="evenodd" d="M12.5303 9.65045L15.5303 6.65045C15.8232 6.35755 15.8232 5.88268 15.5303 5.58979C15.2374 5.29689 14.7626 5.29689 14.4697 5.58979L12.75 7.30946V2.12012C12.75 1.7059 12.4142 1.37012 12 1.37012C11.5858 1.37012 11.25 1.7059 11.25 2.12012V7.30946L9.53033 5.58979C9.23744 5.29689 8.76256 5.29689 8.46967 5.58979C8.17678 5.88268 8.17678 6.35755 8.46967 6.65045L11.4697 9.65045C11.7626 9.94334 12.2374 9.94334 12.5303 9.65045ZM12 22.8701C12.4142 22.8701 12.75 22.5343 12.75 22.1201V16.9308L14.4697 18.6504C14.7626 18.9433 15.2374 18.9433 15.5303 18.6504C15.8232 18.3576 15.8232 17.8827 15.5303 17.5898L12.5303 14.5898C12.2374 14.2969 11.7626 14.2969 11.4697 14.5898L8.46967 17.5898C8.17678 17.8827 8.17678 18.3576 8.46967 18.6504C8.76256 18.9433 9.23744 18.9433 9.53033 18.6504L11.25 16.9308V22.1201C11.25 22.5343 11.5858 22.8701 12 22.8701ZM4 11.3701C3.58579 11.3701 3.25 11.7059 3.25 12.1201C3.25 12.5343 3.58579 12.8701 4 12.8701H20C20.4142 12.8701 20.75 12.5343 20.75 12.1201C20.75 11.7059 20.4142 11.3701 20 11.3701H4Z" fill="white"/>
</svg>
