<svg width="24" height="25" viewBox="0 0 24 25" fill="none" xmlns="http://www.w3.org/2000/svg">
<path fill-rule="evenodd" clip-rule="evenodd" d="M12.75 3.12012C12.75 2.7059 12.4142 2.37012 12 2.37012C11.5858 2.37012 11.25 2.7059 11.25 3.12012V7.37012H4C3.58579 7.37012 3.25 7.7059 3.25 8.12012V16.1201C3.25 16.5343 3.58579 16.8701 4 16.8701H11.25V21.1201C11.25 21.5343 11.5858 21.8701 12 21.8701C12.4142 21.8701 12.75 21.5343 12.75 21.1201V16.8701H20C20.4142 16.8701 20.75 16.5343 20.75 16.1201V8.12012C20.75 7.7059 20.4142 7.37012 20 7.37012H12.75V3.12012ZM12 15.3701H19.25V8.87012H12H4.75V15.3701H12Z" fill="white"/>
</svg>
