<svg width="24" height="25" viewBox="0 0 24 25" fill="none" xmlns="http://www.w3.org/2000/svg">
<path fill-rule="evenodd" clip-rule="evenodd" d="M12.75 3.12012C12.75 2.7059 12.4142 2.37012 12 2.37012C11.5858 2.37012 11.25 2.7059 11.25 3.12012V14.3095L8.53033 11.5898C8.23744 11.2969 7.76256 11.2969 7.46967 11.5898C7.17678 11.8827 7.17678 12.3576 7.46967 12.6504L11.4697 16.6504C11.7626 16.9433 12.2374 16.9433 12.5303 16.6504L16.5303 12.6504C16.8232 12.3576 16.8232 11.8827 16.5303 11.5898C16.2374 11.2969 15.7626 11.2969 15.4697 11.5898L12.75 14.3095V3.12012ZM4 20.3701C3.58579 20.3701 3.25 20.7059 3.25 21.1201C3.25 21.5343 3.58579 21.8701 4 21.8701H20C20.4142 21.8701 20.75 21.5343 20.75 21.1201C20.75 20.7059 20.4142 20.3701 20 20.3701H4Z" fill="white"/>
</svg>
