<svg width="24" height="25" viewBox="0 0 24 25" fill="none" xmlns="http://www.w3.org/2000/svg">
<path fill-rule="evenodd" clip-rule="evenodd" d="M3 2.37012C2.58579 2.37012 2.25 2.7059 2.25 3.12012C2.25 3.53433 2.58579 3.87012 3 3.87012H21C21.4142 3.87012 21.75 3.53433 21.75 3.12012C21.75 2.7059 21.4142 2.37012 21 2.37012H3ZM8 6.37012C7.58579 6.37012 7.25 6.7059 7.25 7.12012V21.1201C7.25 21.5343 7.58579 21.8701 8 21.8701H16C16.4142 21.8701 16.75 21.5343 16.75 21.1201V7.12012C16.75 6.7059 16.4142 6.37012 16 6.37012H8ZM8.75 20.3701V7.87012H15.25V20.3701H8.75Z" fill="white"/>
</svg>
