<svg width="24" height="25" viewBox="0 0 24 25" fill="none" xmlns="http://www.w3.org/2000/svg">
<path fill-rule="evenodd" clip-rule="evenodd" d="M4 4.84009C3.58579 4.84009 3.25 5.17588 3.25 5.59009C3.25 6.0043 3.58579 6.34009 4 6.34009L20 6.34009C20.4142 6.34009 20.75 6.0043 20.75 5.59009C20.75 5.17588 20.4142 4.84009 20 4.84009L4 4.84009ZM3.25 12.5901C3.25 12.1759 3.58579 11.8401 4 11.8401L14 11.8401C14.4142 11.8401 14.75 12.1759 14.75 12.5901C14.75 13.0043 14.4142 13.3401 14 13.3401L4 13.3401C3.58579 13.3401 3.25 13.0043 3.25 12.5901ZM3.25 19.5901C3.25 19.1759 3.58579 18.8401 4 18.8401L20 18.8401C20.4142 18.8401 20.75 19.1759 20.75 19.5901C20.75 20.0043 20.4142 20.3401 20 20.3401L4 20.3401C3.58579 20.3401 3.25 20.0043 3.25 19.5901Z" fill="white"/>
</svg>
