<svg width="24" height="25" viewBox="0 0 24 25" fill="none" xmlns="http://www.w3.org/2000/svg">
<path fill-rule="evenodd" clip-rule="evenodd" d="M22 4.12012C22 3.7059 21.6642 3.37012 21.25 3.37012C20.8358 3.37012 20.5 3.7059 20.5 4.12012L20.5 20.1201C20.5 20.5343 20.8358 20.8701 21.25 20.8701C21.6642 20.8701 22 20.5343 22 20.1201L22 4.12012ZM16.7803 12.6504C17.0732 12.3576 17.0732 11.8827 16.7803 11.5898L12.7803 7.58979C12.4874 7.29689 12.0126 7.29689 11.7197 7.58979C11.4268 7.88268 11.4268 8.35755 11.7197 8.65045L14.4393 11.3701L3.25 11.3701C2.83579 11.3701 2.5 11.7059 2.5 12.1201C2.5 12.5343 2.83579 12.8701 3.25 12.8701L14.4393 12.8701L11.7197 15.5898C11.4268 15.8827 11.4268 16.3576 11.7197 16.6504C12.0126 16.9433 12.4874 16.9433 12.7803 16.6504L16.7803 12.6504Z" fill="white"/>
</svg>
