<svg width="24" height="25" viewBox="0 0 24 25" fill="none" xmlns="http://www.w3.org/2000/svg">
<path fill-rule="evenodd" clip-rule="evenodd" d="M8 2.37012C7.58579 2.37012 7.25 2.7059 7.25 3.12012V17.1201C7.25 17.5343 7.58579 17.8701 8 17.8701H16C16.4142 17.8701 16.75 17.5343 16.75 17.1201V3.12012C16.75 2.7059 16.4142 2.37012 16 2.37012H8ZM8.75 16.3701V3.87012H15.25V16.3701H8.75ZM3 20.3701C2.58579 20.3701 2.25 20.7059 2.25 21.1201C2.25 21.5343 2.58579 21.8701 3 21.8701H21C21.4142 21.8701 21.75 21.5343 21.75 21.1201C21.75 20.7059 21.4142 20.3701 21 20.3701H3Z" fill="white"/>
</svg>
