<svg width="24" height="25" viewBox="0 0 24 25" fill="none" xmlns="http://www.w3.org/2000/svg">
<path fill-rule="evenodd" clip-rule="evenodd" d="M21.25 12.8701C21.6642 12.8701 22 12.5343 22 12.1201C22 11.7059 21.6642 11.3701 21.25 11.3701L10.0607 11.3701L12.7803 8.65045C13.0732 8.35755 13.0732 7.88268 12.7803 7.58979C12.4874 7.29689 12.0126 7.29689 11.7197 7.58979L7.71967 11.5898C7.42678 11.8827 7.42678 12.3576 7.71967 12.6504L11.7197 16.6504C12.0126 16.9433 12.4874 16.9433 12.7803 16.6504C13.0732 16.3576 13.0732 15.8827 12.7803 15.5898L10.0607 12.8701L21.25 12.8701ZM4 4.12012C4 3.7059 3.66421 3.37012 3.25 3.37012C2.83579 3.37012 2.5 3.7059 2.5 4.12012L2.5 20.1201C2.5 20.5343 2.83579 20.8701 3.25 20.8701C3.66421 20.8701 4 20.5343 4 20.1201L4 4.12012Z" fill="white"/>
</svg>
