<svg width="24" height="25" viewBox="0 0 24 25" fill="none" xmlns="http://www.w3.org/2000/svg">
<path fill-rule="evenodd" clip-rule="evenodd" d="M14.7197 12.2803L17.7197 15.2803C18.0126 15.5732 18.4874 15.5732 18.7803 15.2803C19.0732 14.9874 19.0732 14.5126 18.7803 14.2197L17.0607 12.5L22.25 12.5C22.6642 12.5 23 12.1642 23 11.75C23 11.3358 22.6642 11 22.25 11L17.0607 11L18.7803 9.28033C19.0732 8.98744 19.0732 8.51256 18.7803 8.21967C18.4874 7.92678 18.0126 7.92678 17.7197 8.21967L14.7197 11.2197C14.4268 11.5126 14.4268 11.9874 14.7197 12.2803ZM1.5 11.75C1.5 12.1642 1.83579 12.5 2.25 12.5L7.43934 12.5L5.71967 14.2197C5.42678 14.5126 5.42678 14.9874 5.71967 15.2803C6.01256 15.5732 6.48744 15.5732 6.78033 15.2803L9.78033 12.2803C10.0732 11.9874 10.0732 11.5126 9.78033 11.2197L6.78033 8.21967C6.48744 7.92678 6.01256 7.92678 5.71967 8.21967C5.42678 8.51256 5.42678 8.98744 5.71967 9.28033L7.43934 11L2.25 11C1.83579 11 1.5 11.3358 1.5 11.75ZM13 3.75C13 3.33579 12.6642 3 12.25 3C11.8358 3 11.5 3.33579 11.5 3.75L11.5 19.75C11.5 20.1642 11.8358 20.5 12.25 20.5C12.6642 20.5 13 20.1642 13 19.75L13 3.75Z" fill="white"/>
</svg>
