<svg width="24" height="25" viewBox="0 0 24 25" fill="none" xmlns="http://www.w3.org/2000/svg">
<path fill-rule="evenodd" clip-rule="evenodd" d="M8 3.37012C7.58579 3.37012 7.25 3.7059 7.25 4.12012V11.3701H3C2.58579 11.3701 2.25 11.7059 2.25 12.1201C2.25 12.5343 2.58579 12.8701 3 12.8701H7.25V20.1201C7.25 20.5343 7.58579 20.8701 8 20.8701H16C16.4142 20.8701 16.75 20.5343 16.75 20.1201V12.8701H21C21.4142 12.8701 21.75 12.5343 21.75 12.1201C21.75 11.7059 21.4142 11.3701 21 11.3701H16.75V4.12012C16.75 3.7059 16.4142 3.37012 16 3.37012H8ZM15.25 12.1201V4.87012H8.75V12.1201V19.3701H15.25V12.1201Z" fill="white"/>
</svg>
