<svg width="24" height="25" viewBox="0 0 24 25" fill="none" xmlns="http://www.w3.org/2000/svg">
<path fill-rule="evenodd" clip-rule="evenodd" d="M4.15114 10.0415C3.89073 10.8441 3.75 11.7006 3.75 12.59C3.75 13.744 3.98694 14.8426 4.41482 15.84L8.5 15.84L6.4103 13.0537C6.40314 13.0446 6.3962 13.0354 6.3895 13.026L4.15114 10.0415ZM10.375 15.84L7.92747 12.5766L10.2121 9.33997L13.625 9.33997L16.0862 12.6216L14.0037 15.84L14 15.84L10.375 15.84ZM14.0075 7.83997C14.0021 7.83991 13.9967 7.83991 13.9913 7.83997L11.271 7.83997L13.6127 4.52248C13.6179 4.51521 13.6228 4.50788 13.6277 4.5005C15.7343 4.92204 17.5512 6.14593 18.7462 7.83997L14.0075 7.83997ZM15.5 9.33997L17.5895 12.126C17.5967 12.1351 17.6037 12.1444 17.6104 12.1538L19.8489 15.1384C20.1093 14.3359 20.25 13.4793 20.25 12.59C20.25 11.436 20.0131 10.3373 19.5852 9.33997L15.5 9.33997ZM4.84937 8.47246C6.26 6.02799 8.88808 4.3745 11.9051 4.3405L6.98162 11.3155L4.84937 8.47246ZM17.0454 13.9004L12.5675 20.8208C15.385 20.6293 17.8142 19.0234 19.1506 16.7075L17.0454 13.9004ZM10.8277 20.7573C10.8403 20.7319 10.8545 20.7069 10.8703 20.6825L13.0332 17.34L10.0088 17.34L9.99232 17.34L5.25379 17.34C6.53404 19.1549 8.52819 20.4302 10.8277 20.7573ZM2.25 12.59C2.25 7.20519 6.61522 2.83997 12 2.83997C17.3848 2.83997 21.75 7.20519 21.75 12.59C21.75 17.9747 17.3848 22.34 12 22.34C6.61522 22.34 2.25 17.9747 2.25 12.59Z" fill="white"/>
</svg>
