<svg width="24" height="25" viewBox="0 0 24 25" fill="none" xmlns="http://www.w3.org/2000/svg">
<path fill-rule="evenodd" clip-rule="evenodd" d="M2.25 12.3003C2.25 6.91712 6.58419 2.55029 12 2.55029C15.2226 2.55029 17.6366 3.89619 19.2301 5.22413C19.6171 5.54656 19.9569 5.86893 20.25 6.17246V3.80029C20.25 3.38608 20.5858 3.05029 21 3.05029C21.4142 3.05029 21.75 3.38608 21.75 3.80029V8.30029C21.75 8.71451 21.4142 9.05029 21 9.05029H17C16.5858 9.05029 16.25 8.71451 16.25 8.30029C16.25 7.88608 16.5858 7.55029 17 7.55029H19.4824C19.1637 7.19229 18.7593 6.7843 18.2699 6.37646C16.8634 5.20439 14.7774 4.05029 12 4.05029C7.41581 4.05029 3.75 7.74234 3.75 12.3003C3.75 16.8566 7.44365 20.5503 12 20.5503C16.5563 20.5503 20.25 16.8566 20.25 12.3003C20.25 11.8861 20.5858 11.5503 21 11.5503C21.4142 11.5503 21.75 11.8861 21.75 12.3003C21.75 17.6851 17.3848 22.0503 12 22.0503C6.61522 22.0503 2.25 17.6851 2.25 12.3003Z" fill="white"/>
</svg>
