<svg width="24" height="25" viewBox="0 0 24 25" fill="none" xmlns="http://www.w3.org/2000/svg">
<path fill-rule="evenodd" clip-rule="evenodd" d="M21.75 12.65C21.75 7.26685 17.4158 2.90002 12 2.90002C8.77743 2.90002 6.36338 4.24593 4.76986 5.57386C4.38294 5.89629 4.04305 6.21866 3.75 6.52219V4.15002C3.75 3.73581 3.41421 3.40002 3 3.40002C2.58579 3.40002 2.25 3.73581 2.25 4.15002V8.65002C2.25 9.06424 2.58579 9.40002 3 9.40002H6C6.41421 9.40002 6.75 9.06424 6.75 8.65002C6.75 8.23581 6.41421 7.90002 6 7.90002H4.51757C4.83634 7.54202 5.24073 7.13403 5.73014 6.72619C7.13662 5.55412 9.22257 4.40002 12 4.40002C16.5842 4.40002 20.25 8.09208 20.25 12.65C20.25 13.0642 20.5858 13.4 21 13.4C21.4142 13.4 21.75 13.0642 21.75 12.65ZM3 11.9C2.58579 11.9 2.25 12.2358 2.25 12.65C2.25 18.0348 6.61522 22.4 12 22.4C14.7455 22.4 16.918 21.0201 18.3677 19.7057C18.6959 19.4081 18.9904 19.1109 19.25 18.829V21.15C19.25 21.5642 19.5858 21.9 20 21.9C20.4142 21.9 20.75 21.5642 20.75 21.15V16.65C20.75 16.2358 20.4142 15.9 20 15.9H16.9355C16.5213 15.9 16.1855 16.2358 16.1855 16.65C16.1855 17.0642 16.5213 17.4 16.9355 17.4H18.5105C18.2031 17.7642 17.8176 18.1797 17.3602 18.5944C16.0526 19.78 14.2251 20.9 12 20.9C7.44365 20.9 3.75 17.2064 3.75 12.65C3.75 12.2358 3.41421 11.9 3 11.9ZM12 18.4C11.5858 18.4 11.25 18.0642 11.25 17.65V16.9H9.5C9.08579 16.9 8.75 16.5642 8.75 16.15C8.75 15.7358 9.08579 15.4 9.5 15.4H11.25V13.4H9.5C9.08579 13.4 8.75 13.0642 8.75 12.65V9.15002C8.75 8.73581 9.08579 8.40002 9.5 8.40002H11.25V7.65002C11.25 7.23581 11.5858 6.90002 12 6.90002C12.4142 6.90002 12.75 7.23581 12.75 7.65002V8.40002H14.5C14.9142 8.40002 15.25 8.73581 15.25 9.15002C15.25 9.56424 14.9142 9.90002 14.5 9.90002H12.75V11.9H14.5C14.9142 11.9 15.25 12.2358 15.25 12.65V16.15C15.25 16.5642 14.9142 16.9 14.5 16.9H12.75V17.65C12.75 18.0642 12.4142 18.4 12 18.4ZM12.75 15.4H13.75V13.4H12.75V15.4ZM11.25 9.90002H10.25V11.9H11.25V9.90002Z" fill="white"/>
</svg>
