<svg width="24" height="25" viewBox="0 0 24 25" fill="none" xmlns="http://www.w3.org/2000/svg">
<path fill-rule="evenodd" clip-rule="evenodd" d="M3 2.55029C2.58579 2.55029 2.25 2.88608 2.25 3.30029V21.3003C2.25 21.7145 2.58579 22.0503 3 22.0503H21C21.4142 22.0503 21.75 21.7145 21.75 21.3003V14.3003C21.75 13.8861 21.4142 13.5503 21 13.5503C20.5858 13.5503 20.25 13.8861 20.25 14.3003V20.5503H3.75V4.05029H10C10.4142 4.05029 10.75 3.71451 10.75 3.30029C10.75 2.88608 10.4142 2.55029 10 2.55029H3ZM14.25 3.30029C14.25 3.71451 14.5858 4.05029 15 4.05029H19.1893L11.4697 11.77C11.1768 12.0629 11.1768 12.5377 11.4697 12.8306C11.7626 13.1235 12.2374 13.1235 12.5303 12.8306L20.25 5.11095V9.30029C20.25 9.71451 20.5858 10.0503 21 10.0503C21.4142 10.0503 21.75 9.71451 21.75 9.30029V3.30029C21.75 2.88608 21.4142 2.55029 21 2.55029H15C14.5858 2.55029 14.25 2.88608 14.25 3.30029Z" fill="white"/>
</svg>
