<svg width="24" height="25" viewBox="0 0 24 25" fill="none" xmlns="http://www.w3.org/2000/svg">
<path fill-rule="evenodd" clip-rule="evenodd" d="M12.75 4.30033C12.75 3.88612 12.4142 3.55033 12 3.55033C11.5858 3.55033 11.25 3.88612 11.25 4.30033V12.4897L8.53031 9.77C8.23742 9.47711 7.76255 9.47711 7.46965 9.77C7.17676 10.0629 7.17676 10.5378 7.46965 10.8307L11.4697 14.8307C11.6103 14.9713 11.8011 15.0503 12 15.0503C12.1989 15.0503 12.3897 14.9713 12.5303 14.8307L16.5303 10.8307C16.8232 10.5378 16.8232 10.0629 16.5303 9.77C16.2374 9.47711 15.7625 9.47711 15.4697 9.77L12.75 12.4897V4.30033ZM3.75 15.3004C3.75 14.8861 3.41421 14.5504 3 14.5504C2.58579 14.5504 2.25 14.8861 2.25 15.3004V15.8003V21.3004C2.25 21.7146 2.58579 22.0504 3 22.0504L21 22.0504C21.1989 22.0504 21.3897 21.9713 21.5303 21.8307C21.671 21.69 21.75 21.4993 21.75 21.3004V15.8003V15.3004C21.75 14.8861 21.4142 14.5504 21 14.5504C20.5858 14.5504 20.25 14.8861 20.25 15.3004V15.8003V20.5504L3.75 20.5504V15.8003L3.75 15.3004Z" fill="white"/>
</svg>
