<svg width="24" height="25" viewBox="0 0 24 25" fill="none" xmlns="http://www.w3.org/2000/svg">
<path fill-rule="evenodd" clip-rule="evenodd" d="M2.75 12.3003C2.75 7.19166 6.89137 3.05029 12 3.05029C17.1086 3.05029 21.25 7.19166 21.25 12.3003C21.25 17.4089 17.1086 21.5503 12 21.5503C6.89137 21.5503 2.75 17.4089 2.75 12.3003ZM12 1.55029C6.06294 1.55029 1.25 6.36323 1.25 12.3003C1.25 18.2374 6.06294 23.0503 12 23.0503C17.9371 23.0503 22.75 18.2374 22.75 12.3003C22.75 6.36323 17.9371 1.55029 12 1.55029ZM9 8.55031C8.58579 8.55031 8.25 8.88609 8.25 9.30031V13.8003C8.25 14.2145 8.58579 14.5503 9 14.5503C9.41421 14.5503 9.75 14.2145 9.75 13.8003V11.111L14.4697 15.8306C14.7626 16.1235 15.2374 16.1235 15.5303 15.8306C15.8232 15.5377 15.8232 15.0629 15.5303 14.77L10.8107 10.0503H13.5C13.9142 10.0503 14.25 9.71452 14.25 9.30031C14.25 8.88609 13.9142 8.55031 13.5 8.55031H9Z" fill="white"/>
</svg>
