<svg width="24" height="25" viewBox="0 0 24 25" fill="none" xmlns="http://www.w3.org/2000/svg">
<path fill-rule="evenodd" clip-rule="evenodd" d="M15 3.55029C14.5858 3.55029 14.25 3.88608 14.25 4.30029C14.25 4.71451 14.5858 5.05029 15 5.05029H18.1893L12 11.2396L5.81066 5.05029H9C9.41421 5.05029 9.75 4.71451 9.75 4.30029C9.75 3.88608 9.41421 3.55029 9 3.55029H4C3.58579 3.55029 3.25 3.88608 3.25 4.30029V9.30029C3.25 9.71451 3.58579 10.0503 4 10.0503C4.41421 10.0503 4.75 9.71451 4.75 9.30029V6.11095L10.9393 12.3003L4.75 18.4896V15.3003C4.75 14.8861 4.41421 14.5503 4 14.5503C3.58579 14.5503 3.25 14.8861 3.25 15.3003V20.3003C3.25 20.7145 3.58579 21.0503 4 21.0503H9C9.41421 21.0503 9.75 20.7145 9.75 20.3003C9.75 19.8861 9.41421 19.5503 9 19.5503H5.81066L12 13.361L18.1893 19.5503H15C14.5858 19.5503 14.25 19.8861 14.25 20.3003C14.25 20.7145 14.5858 21.0503 15 21.0503H20C20.4142 21.0503 20.75 20.7145 20.75 20.3003V15.3003C20.75 14.8861 20.4142 14.5503 20 14.5503C19.5858 14.5503 19.25 14.8861 19.25 15.3003V18.4896L13.0607 12.3003L19.25 6.11095V9.30029C19.25 9.71451 19.5858 10.0503 20 10.0503C20.4142 10.0503 20.75 9.71451 20.75 9.30029V4.30029C20.75 3.88608 20.4142 3.55029 20 3.55029H15Z" fill="white"/>
</svg>
