<svg width="24" height="25" viewBox="0 0 24 25" fill="none" xmlns="http://www.w3.org/2000/svg">
<path fill-rule="evenodd" clip-rule="evenodd" d="M16 3.55029C15.5858 3.55029 15.25 3.88608 15.25 4.30029C15.25 4.71451 15.5858 5.05029 16 5.05029H18.1893L15.4697 7.76996L13.4697 9.76996C13.1768 10.0629 13.1768 10.5377 13.4697 10.8306C13.7626 11.1235 14.2374 11.1235 14.5303 10.8306L16.5303 8.83062L19.25 6.11095V8.30029C19.25 8.71451 19.5858 9.05029 20 9.05029C20.4142 9.05029 20.75 8.71451 20.75 8.30029V4.30029C20.75 3.88608 20.4142 3.55029 20 3.55029H16ZM10.5303 14.8306C10.8232 14.5377 10.8232 14.0629 10.5303 13.77C10.2374 13.4771 9.76256 13.4771 9.46967 13.77L7.46967 15.77L4.75 18.4896V16.3003C4.75 15.8861 4.41421 15.5503 4 15.5503C3.58579 15.5503 3.25 15.8861 3.25 16.3003V20.3003C3.25 20.7145 3.58579 21.0503 4 21.0503H8C8.41421 21.0503 8.75 20.7145 8.75 20.3003C8.75 19.8861 8.41421 19.5503 8 19.5503H5.81066L8.53033 16.8306L10.5303 14.8306ZM4 3.55029C3.58579 3.55029 3.25 3.88608 3.25 4.30029V8.30029C3.25 8.71451 3.58579 9.05029 4 9.05029C4.41421 9.05029 4.75 8.71451 4.75 8.30029V6.11095L7.46967 8.83062L9.46967 10.8306C9.76256 11.1235 10.2374 11.1235 10.5303 10.8306C10.8232 10.5377 10.8232 10.0629 10.5303 9.76996L8.53033 7.76996L5.81066 5.05029H8C8.41421 5.05029 8.75 4.71451 8.75 4.30029C8.75 3.88608 8.41421 3.55029 8 3.55029H4ZM14.5303 13.77C14.2374 13.4771 13.7626 13.4771 13.4697 13.77C13.1768 14.0629 13.1768 14.5377 13.4697 14.8306L15.4697 16.8306L18.1893 19.5503H16C15.5858 19.5503 15.25 19.8861 15.25 20.3003C15.25 20.7145 15.5858 21.0503 16 21.0503H20C20.4142 21.0503 20.75 20.7145 20.75 20.3003V16.3003C20.75 15.8861 20.4142 15.5503 20 15.5503C19.5858 15.5503 19.25 15.8861 19.25 16.3003V18.4896L16.5303 15.77L14.5303 13.77Z" fill="white"/>
</svg>
