<svg width="24" height="25" viewBox="0 0 24 25" fill="none" xmlns="http://www.w3.org/2000/svg">
<path fill-rule="evenodd" clip-rule="evenodd" d="M13.5302 7.77004C13.2374 7.47715 12.7625 7.47715 12.4696 7.77004C12.1767 8.06294 12.1767 8.53781 12.4696 8.8307L15.1893 11.5504L2.99991 11.5504C2.5857 11.5504 2.24991 11.8862 2.24991 12.3004C2.24991 12.7146 2.5857 13.0504 2.99991 13.0504L15.1893 13.0504L12.4696 15.77C12.1767 16.0629 12.1767 16.5378 12.4696 16.8307C12.7625 17.1236 13.2374 17.1236 13.5302 16.8307L17.5302 12.8307C17.8231 12.5378 17.8231 12.0629 17.5302 11.77L13.5302 7.77004ZM21 1.55029L7 1.55029C6.80109 1.55029 6.61032 1.62931 6.46967 1.76996C6.32902 1.91062 6.25 2.10138 6.25 2.30029L6.25 7.80032L6.25 8.30029C6.25 8.71451 6.58579 9.05029 7 9.05029C7.41421 9.05029 7.75 8.71451 7.75 8.30029L7.75 7.80032L7.75 3.05029L20.25 3.05029L20.25 21.5503L7.75 21.5503L7.75 16.8003L7.75 16.3003C7.75 15.8861 7.41422 15.5503 7 15.5503C6.58579 15.5503 6.25 15.8861 6.25 16.3003L6.25 16.8003L6.25 22.3003C6.25 22.7145 6.58579 23.0503 7 23.0503L21 23.0503C21.4142 23.0503 21.75 22.7145 21.75 22.3003L21.75 2.30029C21.75 2.10138 21.671 1.91062 21.5303 1.76996C21.3897 1.62931 21.1989 1.55029 21 1.55029Z" fill="white"/>
</svg>
