<svg width="24" height="25" viewBox="0 0 24 25" fill="none" xmlns="http://www.w3.org/2000/svg">
<path fill-rule="evenodd" clip-rule="evenodd" d="M2.75 12.3003C2.75 7.19166 6.89137 3.05029 12 3.05029C17.1086 3.05029 21.25 7.19166 21.25 12.3003C21.25 17.4089 17.1086 21.5503 12 21.5503C6.89137 21.5503 2.75 17.4089 2.75 12.3003ZM12 1.55029C6.06294 1.55029 1.25 6.36323 1.25 12.3003C1.25 18.2374 6.06294 23.0503 12 23.0503C17.9371 23.0503 22.75 18.2374 22.75 12.3003C22.75 6.36323 17.9371 1.55029 12 1.55029ZM10.5304 8.83062C10.8232 8.53773 10.8232 8.06286 10.5304 7.76996C10.2375 7.47707 9.76258 7.47707 9.46969 7.76996L7.46969 9.76996C7.25519 9.98446 7.19103 10.307 7.30711 10.5873C7.4232 10.8676 7.69668 11.0503 8.00002 11.0503H13C14.2427 11.0503 15.25 12.0577 15.25 13.3003C15.25 14.5429 14.2427 15.5503 13 15.5503H11C10.5858 15.5503 10.25 15.8861 10.25 16.3003C10.25 16.7145 10.5858 17.0503 11 17.0503H13C15.0711 17.0503 16.75 15.3714 16.75 13.3003C16.75 11.2292 15.0711 9.55029 13 9.55029H9.81068L10.5304 8.83062Z" fill="white"/>
</svg>
