<svg width="24" height="25" viewBox="0 0 24 25" fill="none" xmlns="http://www.w3.org/2000/svg">
<path fill-rule="evenodd" clip-rule="evenodd" d="M2.75 12.3003C2.75 7.19166 6.89137 3.05029 12 3.05029C17.1086 3.05029 21.25 7.19166 21.25 12.3003C21.25 17.4089 17.1086 21.5503 12 21.5503C6.89137 21.5503 2.75 17.4089 2.75 12.3003ZM12 1.55029C6.06294 1.55029 1.25 6.36323 1.25 12.3003C1.25 18.2374 6.06294 23.0503 12 23.0503C17.9371 23.0503 22.75 18.2374 22.75 12.3003C22.75 6.36323 17.9371 1.55029 12 1.55029ZM9.53033 8.76998C9.23744 8.47709 8.76256 8.47709 8.46967 8.76998C8.17678 9.06287 8.17678 9.53774 8.46967 9.83064L13.1893 14.5503H10.5C10.0858 14.5503 9.75 14.8861 9.75 15.3003C9.75 15.7145 10.0858 16.0503 10.5 16.0503H15C15.4142 16.0503 15.75 15.7145 15.75 15.3003V10.8003C15.75 10.3861 15.4142 10.0503 15 10.0503C14.5858 10.0503 14.25 10.3861 14.25 10.8003V13.4896L9.53033 8.76998Z" fill="white"/>
</svg>
