<svg width="24" height="25" viewBox="0 0 24 25" fill="none" xmlns="http://www.w3.org/2000/svg">
<path fill-rule="evenodd" clip-rule="evenodd" d="M8.46967 6.83062C8.17678 6.53773 8.17678 6.06286 8.46967 5.76996L11.4697 2.76996C11.7626 2.47707 12.2374 2.47707 12.5303 2.76996L15.5303 5.76996C15.8232 6.06286 15.8232 6.53773 15.5303 6.83062C15.2374 7.12352 14.7626 7.12352 14.4697 6.83062L12.75 5.11095V9.30029C12.75 9.71451 12.4142 10.0503 12 10.0503C11.5858 10.0503 11.25 9.71451 11.25 9.30029V5.11095L9.53033 6.83062C9.23744 7.12352 8.76256 7.12352 8.46967 6.83062ZM18.5303 8.76996C18.2374 8.47707 17.7626 8.47707 17.4697 8.76996C17.1768 9.06286 17.1768 9.53773 17.4697 9.83062L19.1893 11.5503H15C14.5858 11.5503 14.25 11.8861 14.25 12.3003C14.25 12.7145 14.5858 13.0503 15 13.0503H19.1893L17.4697 14.77C17.1768 15.0629 17.1768 15.5377 17.4697 15.8306C17.7626 16.1235 18.2374 16.1235 18.5303 15.8306L21.5303 12.8306C21.8232 12.5377 21.8232 12.0629 21.5303 11.77L18.5303 8.76996ZM5.46967 8.76996C5.76256 8.47707 6.23744 8.47707 6.53033 8.76996C6.82322 9.06286 6.82322 9.53773 6.53033 9.83062L4.81066 11.5503H9C9.41421 11.5503 9.75 11.8861 9.75 12.3003C9.75 12.7145 9.41421 13.0503 9 13.0503H4.81066L6.53033 14.77C6.82322 15.0629 6.82322 15.5377 6.53033 15.8306C6.23744 16.1235 5.76256 16.1235 5.46967 15.8306L2.46967 12.8306C2.17678 12.5377 2.17678 12.0629 2.46967 11.77L5.46967 8.76996ZM8.46967 18.8306C8.17678 18.5377 8.17678 18.0629 8.46967 17.77C8.76256 17.4771 9.23744 17.4771 9.53033 17.77L11.25 19.4896V15.3003C11.25 14.8861 11.5858 14.5503 12 14.5503C12.4142 14.5503 12.75 14.8861 12.75 15.3003V19.4896L14.4697 17.77C14.7626 17.4771 15.2374 17.4771 15.5303 17.77C15.8232 18.0629 15.8232 18.5377 15.5303 18.8306L12.5303 21.8306C12.2374 22.1235 11.7626 22.1235 11.4697 21.8306L8.46967 18.8306Z" fill="white"/>
</svg>
