<svg width="24" height="25" viewBox="0 0 24 25" fill="none" xmlns="http://www.w3.org/2000/svg">
<path fill-rule="evenodd" clip-rule="evenodd" d="M7.53033 3.83062C7.82322 3.53773 7.82322 3.06286 7.53033 2.76996C7.23744 2.47707 6.76256 2.47707 6.46967 2.76996L2.46967 6.76996C2.17678 7.06286 2.17678 7.53773 2.46967 7.83062L6.46967 11.8306C6.76256 12.1235 7.23744 12.1235 7.53033 11.8306C7.82322 11.5377 7.82322 11.0629 7.53033 10.77L4.81066 8.05029H17C17.4142 8.05029 17.75 7.71451 17.75 7.30029C17.75 6.88608 17.4142 6.55029 17 6.55029H4.81066L7.53033 3.83062ZM16.4697 13.8306C16.1768 13.5377 16.1768 13.0629 16.4697 12.77C16.7626 12.4771 17.2374 12.4771 17.5303 12.77L21.5303 16.77C21.8232 17.0629 21.8232 17.5377 21.5303 17.8306L17.5303 21.8306C17.2374 22.1235 16.7626 22.1235 16.4697 21.8306C16.1768 21.5377 16.1768 21.0629 16.4697 20.77L19.1893 18.0503H7C6.58579 18.0503 6.25 17.7145 6.25 17.3003C6.25 16.8861 6.58579 16.5503 7 16.5503H19.1893L16.4697 13.8306Z" fill="white"/>
</svg>
