<svg width="24" height="25" viewBox="0 0 24 25" fill="none" xmlns="http://www.w3.org/2000/svg">
<path fill-rule="evenodd" clip-rule="evenodd" d="M12.25 5.30029C12.25 4.88608 12.5858 4.55029 13 4.55029H19C19.4142 4.55029 19.75 4.88608 19.75 5.30029V11.3003C19.75 11.7145 19.4142 12.0503 19 12.0503C18.5858 12.0503 18.25 11.7145 18.25 11.3003V7.11095L16.0303 9.33062L14.5303 10.8306C14.2374 11.1235 13.7626 11.1235 13.4697 10.8306C13.1768 10.5377 13.1768 10.0629 13.4697 9.76996L14.9697 8.26996L17.1893 6.05029H13C12.5858 6.05029 12.25 5.71451 12.25 5.30029ZM5 12.5503C5.41421 12.5503 5.75 12.8861 5.75 13.3003V17.4896L7.96967 15.27L9.46967 13.77C9.76256 13.4771 10.2374 13.4771 10.5303 13.77C10.8232 14.0629 10.8232 14.5377 10.5303 14.8306L9.03033 16.3306L6.81066 18.5503H11C11.4142 18.5503 11.75 18.8861 11.75 19.3003C11.75 19.7145 11.4142 20.0503 11 20.0503H5C4.58579 20.0503 4.25 19.7145 4.25 19.3003V13.3003C4.25 12.8861 4.58579 12.5503 5 12.5503Z" fill="white"/>
</svg>
