<svg width="24" height="25" viewBox="0 0 24 25" fill="none" xmlns="http://www.w3.org/2000/svg">
<path fill-rule="evenodd" clip-rule="evenodd" d="M20 2.55029C19.5858 2.55029 19.25 2.88608 19.25 3.30029V3.32777V3.35528V3.38284V3.41042V3.43804V3.4657V3.4934V3.52112V3.54889V3.57668V3.60451V3.63238V3.66027V3.6882V3.71616V3.74416V3.77218V3.80024V3.82833V3.85644V3.88459V3.91277V3.94098V3.96921V3.99748V4.02577V4.05409V4.08244V4.11082V4.13922V4.16765V4.19611V4.22459V4.25309V4.28163V4.31018V4.33877V4.36737V4.396V4.42465V4.45333V4.48203V4.51075V4.53949V4.56826V4.59704V4.62585V4.65468V4.68353V4.71239V4.74128V4.77019V4.79911V4.82806V4.85702V4.886V4.91499V4.94401V4.97304V5.00209V5.03115V5.06023V5.08932V5.11843V5.14755V5.17669V5.20584V5.235V5.26418V5.29337V5.32257V5.35179V5.38101V5.41025V5.4395V5.46876V5.49803V5.52731V5.5566V5.58589V5.6152V5.64452V5.67384V5.70317V5.73251V5.76186V5.79121V5.82057V5.84993V5.8793V5.90868V5.93806V5.96745V5.99684V6.02623V6.05563V6.08503V6.11443V6.14384V6.17324V6.20265V6.23206V6.26148V6.29089V6.3203V6.34971V6.37913V6.40854V6.43795V6.46736V6.49677V6.52617V6.55557V6.58497V6.61437V6.64376V6.67315V6.70254V6.73192V6.76129V6.79066V6.82003V6.84939V6.87874V6.90808V6.93742V6.96675V6.99607V7.02539V7.05469V7.08399V7.11328V7.14255V7.17182V7.20108V7.23033V7.25956V7.28879V7.318V7.3472V7.37639V7.40557V7.43473V7.46388V7.49301V7.52213V7.55124V7.58033V7.60941V7.63847V7.66751V7.69654V7.72555V7.75454V7.78352V7.81248V7.84142V7.87034V7.89925V7.92813V7.95699V7.98584V8.01466V8.04347V8.07225V8.10101V8.12975V8.15847V8.18717V8.21584V8.24449V8.27311V8.30172V8.3303V8.35885V8.38738V8.41588V8.44436V8.47281V8.50124V8.52964V8.55801V8.58635V8.61467V8.64296V8.67122V8.69945V8.72765V8.75583V8.78397V8.81208V8.84017V8.86822V8.89624V8.92423V8.95219V8.98011V9.008V9.03586V9.06369V9.09148V9.11923V9.14696V9.17465V9.2023V9.22992V9.2575V9.28504V9.31255V9.34002V9.36746V9.39486V9.42221V9.44953V9.47682V9.50406V9.53126V9.55843V9.58555V9.61263V9.63967V9.66668V9.69363V9.72055V9.74743V9.77426V9.80105V9.8278V9.8545V9.88116V9.90777V9.93434V9.96086V9.98734V10.0138V10.0402V10.0665V10.0928V10.119V10.1452V10.1714V10.1975V10.2235V10.2496V10.2755V10.3014V10.3273V10.3531V10.3788V10.4045V10.4302V10.4558V10.4813V10.5068V10.5323V10.5577V10.583V10.6083V10.6335V10.6587V10.6838V10.7088V10.7339V10.7588V10.7837V10.8085V10.8333V10.858V10.8827V10.9073V10.9318V10.9563V10.9808V11.0051V11.0294V11.0537V11.0779V11.102V11.1261V11.1501V11.174V11.1979V11.2217V11.2455V11.2692V11.2928V11.3163V11.3398V11.3633V11.3866V11.4099V11.4332V11.4563V11.4794V11.5025V11.5254V11.5483V11.5712V11.5939V11.6166V11.6392V11.6618V11.6843V11.7067V11.729V11.7513V11.7735V11.7956V11.8177V11.8397V11.8616V11.8834V11.9052V11.9269V11.9485V11.9701V11.9915V12.0129V12.0342V12.0555V12.0766V12.0977V12.1187V12.1397V12.1605V12.1813V12.202V12.2226V12.2432V12.2636V12.284V12.3043V12.3245V12.3447V12.3647V12.3847V12.4046V12.4244V12.4441V12.4638V12.4833V12.5028V12.5222V12.5415V12.5607V12.5799V12.5989V12.6179V12.6368V12.6556V12.6743V12.6929V12.7115V12.7299V12.7483V12.7665V12.7847V12.8028V12.8208V12.8387V12.8565V12.8742V12.8919V12.9094V12.9269V12.9442V12.9615V12.9787V12.9958V13.0128V13.0297V13.0465V13.0632V13.0798V13.0963V13.1127V13.129V13.1452V13.1614V13.1774V13.1933V13.2092V13.2249V13.2406V13.2561V13.2715V13.2869V13.3021V13.3173V13.3323V13.3472V13.3621V13.3768V13.3914V13.406V13.4204V13.4347V13.4489V13.463V13.4771V13.491V13.5048V13.5185V13.532V13.5455V13.5503H5.81066L9.53033 9.83062C9.82322 9.53773 9.82322 9.06286 9.53033 8.76996C9.23744 8.47707 8.76256 8.47707 8.46967 8.76996L3.46967 13.77C3.17678 14.0629 3.17678 14.5377 3.46967 14.8306L8.46967 19.8306C8.76256 20.1235 9.23744 20.1235 9.53033 19.8306C9.82322 19.5377 9.82322 19.0629 9.53033 18.77L5.81066 15.0503H20C20.4142 15.0503 20.75 14.7145 20.75 14.3003H20L20.75 14.3002V14.3V14.2996V14.2991V14.2985V14.2977V14.2968V14.2957V14.2945V14.2931V14.2916V14.29V14.2882V14.2863V14.2842V14.282V14.2797V14.2772V14.2746V14.2719V14.269V14.266V14.2628V14.2595V14.2561V14.2525V14.2488V14.2449V14.241V14.2369V14.2326V14.2282V14.2237V14.2191V14.2143V14.2094V14.2044V14.1992V14.1939V14.1885V14.1829V14.1772V14.1714V14.1654V14.1594V14.1532V14.1468V14.1404V14.1338V14.1271V14.1202V14.1132V14.1061V14.0989V14.0916V14.0841V14.0765V14.0688V14.0609V14.053V14.0449V14.0366V14.0283V14.0198V14.0113V14.0026V13.9937V13.9848V13.9757V13.9665V13.9572V13.9478V13.9383V13.9286V13.9188V13.9089V13.8989V13.8888V13.8785V13.8682V13.8577V13.8471V13.8364V13.8255V13.8146V13.8035V13.7924V13.7811V13.7697V13.7582V13.7465V13.7348V13.723V13.711V13.6989V13.6867V13.6744V13.662V13.6495V13.6369V13.6242V13.6113V13.5984V13.5853V13.5722V13.5589V13.5455V13.532V13.5185V13.5048V13.491V13.4771V13.463V13.4489V13.4347V13.4204V13.406V13.3914V13.3768V13.3621V13.3472V13.3323V13.3173V13.3021V13.2869V13.2715V13.2561V13.2406V13.2249V13.2092V13.1933V13.1774V13.1614V13.1452V13.129V13.1127V13.0963V13.0798V13.0632V13.0465V13.0297V13.0128V12.9958V12.9787V12.9615V12.9442V12.9269V12.9094V12.8919V12.8742V12.8565V12.8387V12.8208V12.8028V12.7847V12.7665V12.7483V12.7299V12.7115V12.6929V12.6743V12.6556V12.6368V12.6179V12.5989V12.5799V12.5607V12.5415V12.5222V12.5028V12.4833V12.4638V12.4441V12.4244V12.4046V12.3847V12.3647V12.3447V12.3245V12.3043V12.284V12.2636V12.2432V12.2226V12.202V12.1813V12.1605V12.1397V12.1187V12.0977V12.0766V12.0555V12.0342V12.0129V11.9915V11.9701V11.9485V11.9269V11.9052V11.8834V11.8616V11.8397V11.8177V11.7956V11.7735V11.7513V11.729V11.7067V11.6843V11.6618V11.6392V11.6166V11.5939V11.5712V11.5483V11.5254V11.5025V11.4794V11.4563V11.4332V11.4099V11.3866V11.3633V11.3398V11.3163V11.2928V11.2692V11.2455V11.2217V11.1979V11.174V11.1501V11.1261V11.102V11.0779V11.0537V11.0294V11.0051V10.9808V10.9563V10.9318V10.9073V10.8827V10.858V10.8333V10.8085V10.7837V10.7588V10.7339V10.7088V10.6838V10.6587V10.6335V10.6083V10.583V10.5577V10.5323V10.5068V10.4813V10.4558V10.4302V10.4045V10.3788V10.3531V10.3273V10.3014V10.2755V10.2496V10.2235V10.1975V10.1714V10.1452V10.119V10.0928V10.0665V10.0402V10.0138V9.98734V9.96086V9.93434V9.90777V9.88116V9.8545V9.8278V9.80105V9.77426V9.74743V9.72055V9.69363V9.66668V9.63967V9.61263V9.58555V9.55843V9.53126V9.50406V9.47682V9.44953V9.42221V9.39486V9.36746V9.34002V9.31255V9.28504V9.2575V9.22992V9.2023V9.17465V9.14696V9.11923V9.09148V9.06369V9.03586V9.008V8.98011V8.95219V8.92423V8.89624V8.86822V8.84017V8.81208V8.78397V8.75583V8.72765V8.69945V8.67122V8.64296V8.61467V8.58635V8.55801V8.52964V8.50124V8.47281V8.44436V8.41588V8.38738V8.35885V8.3303V8.30172V8.27311V8.24449V8.21584V8.18717V8.15847V8.12975V8.10101V8.07225V8.04347V8.01466V7.98584V7.95699V7.92813V7.89925V7.87034V7.84142V7.81248V7.78352V7.75454V7.72555V7.69654V7.66751V7.63847V7.60941V7.58033V7.55124V7.52213V7.49301V7.46388V7.43473V7.40557V7.37639V7.3472V7.318V7.28879V7.25956V7.23033V7.20108V7.17182V7.14255V7.11328V7.08399V7.05469V7.02539V6.99607V6.96675V6.93742V6.90808V6.87874V6.84939V6.82003V6.79066V6.76129V6.73192V6.70254V6.67315V6.64376V6.61437V6.58497V6.55557V6.52617V6.49677V6.46736V6.43795V6.40854V6.37913V6.34971V6.3203V6.29089V6.26148V6.23206V6.20265V6.17324V6.14384V6.11443V6.08503V6.05563V6.02623V5.99684V5.96745V5.93806V5.90868V5.8793V5.84993V5.82057V5.79121V5.76186V5.73251V5.70317V5.67384V5.64452V5.6152V5.58589V5.5566V5.52731V5.49803V5.46876V5.4395V5.41025V5.38101V5.35179V5.32257V5.29337V5.26418V5.235V5.20584V5.17669V5.14755V5.11843V5.08932V5.06023V5.03115V5.00209V4.97304V4.94401V4.91499V4.886V4.85702V4.82806V4.79911V4.77019V4.74128V4.71239V4.68353V4.65468V4.62585V4.59704V4.56826V4.53949V4.51075V4.48203V4.45333V4.42465V4.396V4.36737V4.33877V4.31018V4.28163V4.25309V4.22459V4.19611V4.16765V4.13922V4.11082V4.08244V4.05409V4.02577V3.99748V3.96921V3.94098V3.91277V3.88459V3.85644V3.82833V3.80024V3.77218V3.74416V3.71616V3.6882V3.66027V3.63238V3.60451V3.57668V3.54889V3.52112V3.4934V3.4657V3.43804V3.41042V3.38284V3.35528V3.32777V3.30029C20.75 2.88608 20.4142 2.55029 20 2.55029Z" fill="white"/>
</svg>
