<svg width="24" height="25" viewBox="0 0 24 25" fill="none" xmlns="http://www.w3.org/2000/svg">
<path fill-rule="evenodd" clip-rule="evenodd" d="M9.53033 17.77C9.23744 17.4771 8.76256 17.4771 8.46967 17.77C8.17678 18.0629 8.17678 18.5377 8.46967 18.8306L11.4697 21.8306C11.7626 22.1235 12.2374 22.1235 12.5303 21.8306L15.5303 18.8306C15.8232 18.5377 15.8232 18.0629 15.5303 17.77C15.2374 17.4771 14.7626 17.4771 14.4697 17.77L12.75 19.4896V13.0503H19.1893L17.4697 14.77C17.1768 15.0629 17.1768 15.5377 17.4697 15.8306C17.7626 16.1235 18.2374 16.1235 18.5303 15.8306L21.5303 12.8306C21.8232 12.5377 21.8232 12.0629 21.5303 11.77L18.5303 8.76996C18.2374 8.47707 17.7626 8.47707 17.4697 8.76996C17.1768 9.06286 17.1768 9.53773 17.4697 9.83062L19.1893 11.5503H12.75V5.11095L14.4697 6.83062C14.7626 7.12352 15.2374 7.12352 15.5303 6.83062C15.8232 6.53773 15.8232 6.06286 15.5303 5.76996L12.5303 2.76996C12.2374 2.47707 11.7626 2.47707 11.4697 2.76996L8.46967 5.76996C8.17678 6.06286 8.17678 6.53773 8.46967 6.83062C8.76256 7.12352 9.23744 7.12352 9.53033 6.83062L11.25 5.11095V11.5503H4.81066L6.53033 9.83062C6.82322 9.53773 6.82322 9.06286 6.53033 8.76996C6.23744 8.47707 5.76256 8.47707 5.46967 8.76996L2.46967 11.77C2.17678 12.0629 2.17678 12.5377 2.46967 12.8306L5.46967 15.8306C5.76256 16.1235 6.23744 16.1235 6.53033 15.8306C6.82322 15.5377 6.82322 15.0629 6.53033 14.77L4.81066 13.0503H11.25V19.4896L9.53033 17.77Z" fill="white"/>
</svg>
