<svg width="24" height="25" viewBox="0 0 24 25" fill="none" xmlns="http://www.w3.org/2000/svg">
<path fill-rule="evenodd" clip-rule="evenodd" d="M20.4697 7.83062C20.7626 8.12352 21.2374 8.12352 21.5303 7.83062C21.8232 7.53773 21.8232 7.06286 21.5303 6.76996L17.5303 2.76996C17.2374 2.47707 16.7626 2.47707 16.4697 2.76996L12.4697 6.76996C12.1768 7.06286 12.1768 7.53773 12.4697 7.83062C12.7626 8.12352 13.2374 8.12352 13.5303 7.83062L16.25 5.11095L16.25 17.3003C16.25 17.7145 16.5858 18.0503 17 18.0503C17.4142 18.0503 17.75 17.7145 17.75 17.3003L17.75 5.11095L20.4697 7.83062ZM10.4697 16.77C10.7626 16.4771 11.2374 16.4771 11.5303 16.77C11.8232 17.0629 11.8232 17.5377 11.5303 17.8306L7.53033 21.8306C7.23744 22.1235 6.76256 22.1235 6.46967 21.8306L2.46967 17.8306C2.17678 17.5377 2.17678 17.0629 2.46967 16.77C2.76256 16.4771 3.23744 16.4771 3.53033 16.77L6.25 19.4896L6.25 7.30029C6.25 6.88608 6.58579 6.55029 7 6.55029C7.41421 6.55029 7.75 6.88608 7.75 7.30029L7.75 19.4896L10.4697 16.77Z" fill="white"/>
</svg>
