<svg width="24" height="25" viewBox="0 0 24 25" fill="none" xmlns="http://www.w3.org/2000/svg">
<path fill-rule="evenodd" clip-rule="evenodd" d="M13 6.05029C12.5858 6.05029 12.25 5.71451 12.25 5.30029C12.25 4.88608 12.5858 4.55029 13 4.55029H19C19.4142 4.55029 19.75 4.88608 19.75 5.30029V11.3003C19.75 11.7145 19.4142 12.0503 19 12.0503C18.5858 12.0503 18.25 11.7145 18.25 11.3003V7.11095L6.81066 18.5503H11C11.4142 18.5503 11.75 18.8861 11.75 19.3003C11.75 19.7145 11.4142 20.0503 11 20.0503H5C4.58579 20.0503 4.25 19.7145 4.25 19.3003V13.3003C4.25 12.8861 4.58579 12.5503 5 12.5503C5.41421 12.5503 5.75 12.8861 5.75 13.3003V17.4896L17.1893 6.05029H13Z" fill="white"/>
</svg>
