<svg width="24" height="25" viewBox="0 0 24 25" fill="none" xmlns="http://www.w3.org/2000/svg">
<path fill-rule="evenodd" clip-rule="evenodd" d="M5 2.55029C4.58579 2.55029 4.25 2.88608 4.25 3.30029V21.3003C4.25 21.7145 4.58579 22.0503 5 22.0503H10.5H11C11.4142 22.0503 11.75 21.7145 11.75 21.3003C11.75 20.8861 11.4142 20.5503 11 20.5503H10.5H5.75V4.05029H10.5H11C11.4142 4.05029 11.75 3.71451 11.75 3.30029C11.75 2.88608 11.4142 2.55029 11 2.55029H10.5H5ZM16.5303 7.76996C16.2374 7.47707 15.7626 7.47707 15.4697 7.76996C15.1768 8.06286 15.1768 8.53773 15.4697 8.83062L18.1893 11.5503H11C10.5858 11.5503 10.25 11.8861 10.25 12.3003C10.25 12.7145 10.5858 13.0503 11 13.0503H18.1893L15.4697 15.77C15.1768 16.0629 15.1768 16.5377 15.4697 16.8306C15.7626 17.1235 16.2374 17.1235 16.5303 16.8306L20.5303 12.8306C20.8232 12.5377 20.8232 12.0629 20.5303 11.77L16.5303 7.76996Z" fill="white"/>
</svg>
