<svg width="24" height="25" viewBox="0 0 24 25" fill="none" xmlns="http://www.w3.org/2000/svg">
<path fill-rule="evenodd" clip-rule="evenodd" d="M4.76986 5.22413C6.36338 3.89619 8.77743 2.55029 12 2.55029C17.4158 2.55029 21.75 6.91712 21.75 12.3003C21.75 12.7145 21.4142 13.0503 21 13.0503C20.5858 13.0503 20.25 12.7145 20.25 12.3003C20.25 7.74234 16.5842 4.05029 12 4.05029C9.22257 4.05029 7.13662 5.20439 5.73014 6.37646C5.24073 6.7843 4.83635 7.19229 4.51757 7.55029H7C7.41421 7.55029 7.75 7.88608 7.75 8.30029C7.75 8.71451 7.41421 9.05029 7 9.05029H3C2.58579 9.05029 2.25 8.71451 2.25 8.30029V3.80029C2.25 3.38608 2.58579 3.05029 3 3.05029C3.41421 3.05029 3.75 3.38608 3.75 3.80029V6.17246C4.04305 5.86893 4.38294 5.54656 4.76986 5.22413ZM3 11.5503C3.41421 11.5503 3.75 11.8861 3.75 12.3003C3.75 16.8566 7.44365 20.5503 12 20.5503C14.2251 20.5503 16.0526 19.4302 17.3602 18.2447C17.8176 17.83 18.2031 17.4144 18.5105 17.0503H15.9355C15.5213 17.0503 15.1855 16.7145 15.1855 16.3003C15.1855 15.8861 15.5213 15.5503 15.9355 15.5503H20C20.4142 15.5503 20.75 15.8861 20.75 16.3003V20.8003C20.75 21.2145 20.4142 21.5503 20 21.5503C19.5858 21.5503 19.25 21.2145 19.25 20.8003V18.4792C18.9904 18.7612 18.6959 19.0584 18.3677 19.3559C16.918 20.6703 14.7455 22.0503 12 22.0503C6.61522 22.0503 2.25 17.6851 2.25 12.3003C2.25 11.8861 2.58579 11.5503 3 11.5503Z" fill="white"/>
</svg>
