<svg width="24" height="25" viewBox="0 0 24 25" fill="none" xmlns="http://www.w3.org/2000/svg">
<path fill-rule="evenodd" clip-rule="evenodd" d="M2.75 12.3003C2.75 7.19166 6.89137 3.05029 12 3.05029C17.1086 3.05029 21.25 7.19166 21.25 12.3003C21.25 17.4089 17.1086 21.5503 12 21.5503C6.89137 21.5503 2.75 17.4089 2.75 12.3003ZM12 1.55029C6.06294 1.55029 1.25 6.36323 1.25 12.3003C1.25 18.2374 6.06294 23.0503 12 23.0503C17.9371 23.0503 22.75 18.2374 22.75 12.3003C22.75 6.36323 17.9371 1.55029 12 1.55029ZM11.5303 9.83066C11.8232 9.53777 11.8232 9.0629 11.5303 8.77C11.2374 8.47711 10.7626 8.4771 10.4697 8.76999L7.46967 11.77C7.32902 11.9106 7.25 12.1014 7.25 12.3003C7.25 12.4992 7.32902 12.69 7.46967 12.8306L10.4697 15.8306C10.7626 16.1235 11.2374 16.1235 11.5303 15.8306C11.8232 15.5377 11.8232 15.0629 11.5303 14.77L9.81066 13.0503H16C16.4142 13.0503 16.75 12.7145 16.75 12.3003C16.75 11.8861 16.4142 11.5503 16 11.5503H9.81067L11.5303 9.83066Z" fill="white"/>
</svg>
