<svg width="24" height="25" viewBox="0 0 24 25" fill="none" xmlns="http://www.w3.org/2000/svg">
<path fill-rule="evenodd" clip-rule="evenodd" d="M12 4.55027C12.4142 4.55027 12.75 4.88606 12.75 5.30027L12.75 17.4896L17.4697 12.7699C17.7626 12.477 18.2374 12.477 18.5303 12.7699C18.8232 13.0628 18.8232 13.5377 18.5303 13.8306L12.5303 19.8306C12.3897 19.9713 12.1989 20.0503 12 20.0503C11.8011 20.0503 11.6103 19.9713 11.4697 19.8306L5.46968 13.8306C5.17679 13.5377 5.17679 13.0628 5.46968 12.7699C5.76257 12.477 6.23745 12.477 6.53034 12.7699L11.25 17.4896L11.25 5.30027C11.25 4.88606 11.5858 4.55027 12 4.55027Z" fill="white"/>
</svg>
