<svg width="24" height="25" viewBox="0 0 24 25" fill="none" xmlns="http://www.w3.org/2000/svg">
<path fill-rule="evenodd" clip-rule="evenodd" d="M2.75 12.3003C2.75 7.19166 6.89137 3.05029 12 3.05029C17.1086 3.05029 21.25 7.19166 21.25 12.3003C21.25 17.4089 17.1086 21.5503 12 21.5503C6.89137 21.5503 2.75 17.4089 2.75 12.3003ZM12 1.55029C6.06294 1.55029 1.25 6.36323 1.25 12.3003C1.25 18.2374 6.06294 23.0503 12 23.0503C17.9371 23.0503 22.75 18.2374 22.75 12.3003C22.75 6.36323 17.9371 1.55029 12 1.55029ZM10.5 8.55029C10.0858 8.55029 9.75 8.88608 9.75 9.30029C9.75 9.71451 10.0858 10.0503 10.5 10.0503H13.1893L8.46967 14.77C8.17678 15.0629 8.17678 15.5377 8.46967 15.8306C8.76256 16.1235 9.23744 16.1235 9.53033 15.8306L14.25 11.111V13.8003C14.25 14.2145 14.5858 14.5503 15 14.5503C15.4142 14.5503 15.75 14.2145 15.75 13.8003V9.30029C15.75 8.88608 15.4142 8.55029 15 8.55029H10.5Z" fill="white"/>
</svg>
