<svg width="24" height="25" viewBox="0 0 24 25" fill="none" xmlns="http://www.w3.org/2000/svg">
<path fill-rule="evenodd" clip-rule="evenodd" d="M2.25 12.65C2.25 7.26685 6.58419 2.90002 12 2.90002C15.2226 2.90002 17.6366 4.24593 19.2301 5.57386C19.6171 5.89629 19.9569 6.21866 20.25 6.52219V4.15002C20.25 3.73581 20.5858 3.40002 21 3.40002C21.4142 3.40002 21.75 3.73581 21.75 4.15002V8.65002C21.75 9.06424 21.4142 9.40002 21 9.40002H18C17.5858 9.40002 17.25 9.06424 17.25 8.65002C17.25 8.23581 17.5858 7.90002 18 7.90002H19.4824C19.1637 7.54202 18.7593 7.13403 18.2699 6.72619C16.8634 5.55412 14.7774 4.40002 12 4.40002C7.41581 4.40002 3.75 8.09208 3.75 12.65C3.75 13.0642 3.41421 13.4 3 13.4C2.58579 13.4 2.25 13.0642 2.25 12.65ZM21 11.9C21.4142 11.9 21.75 12.2358 21.75 12.65C21.75 18.0348 17.3848 22.4 12 22.4C9.25451 22.4 7.082 21.0201 5.63227 19.7057C5.30412 19.4081 5.00955 19.1109 4.75 18.829V21.15C4.75 21.5642 4.41421 21.9 4 21.9C3.58579 21.9 3.25 21.5642 3.25 21.15V16.65C3.25 16.2358 3.58579 15.9 4 15.9H7.06448C7.47869 15.9 7.81448 16.2358 7.81448 16.65C7.81448 17.0642 7.47869 17.4 7.06448 17.4H5.48953C5.79687 17.7642 6.18242 18.1797 6.63981 18.5944C7.94744 19.78 9.77493 20.9 12 20.9C16.5563 20.9 20.25 17.2064 20.25 12.65C20.25 12.2358 20.5858 11.9 21 11.9ZM12 18.4C11.5858 18.4 11.25 18.0642 11.25 17.65V16.9H9.5C9.08579 16.9 8.75 16.5642 8.75 16.15C8.75 15.7358 9.08579 15.4 9.5 15.4H11.25V13.4H9.5C9.08579 13.4 8.75 13.0642 8.75 12.65V9.15002C8.75 8.73581 9.08579 8.40002 9.5 8.40002H11.25V7.65002C11.25 7.23581 11.5858 6.90002 12 6.90002C12.4142 6.90002 12.75 7.23581 12.75 7.65002V8.40002H14.5C14.9142 8.40002 15.25 8.73581 15.25 9.15002C15.25 9.56424 14.9142 9.90002 14.5 9.90002H12.75V11.9H14.5C14.9142 11.9 15.25 12.2358 15.25 12.65V16.15C15.25 16.5642 14.9142 16.9 14.5 16.9H12.75V17.65C12.75 18.0642 12.4142 18.4 12 18.4ZM12.75 15.4H13.75V13.4H12.75V15.4ZM11.25 9.90002H10.25V11.9H11.25V9.90002Z" fill="white"/>
</svg>
