<svg width="24" height="25" viewBox="0 0 24 25" fill="none" xmlns="http://www.w3.org/2000/svg">
<path fill-rule="evenodd" clip-rule="evenodd" d="M3.75 12.3003C3.75 7.74394 7.44365 4.05029 12 4.05029C12.4142 4.05029 12.75 3.71451 12.75 3.30029C12.75 2.88608 12.4142 2.55029 12 2.55029C6.61522 2.55029 2.25 6.91552 2.25 12.3003C2.25 17.6851 6.61522 22.0503 12 22.0503C17.3848 22.0503 21.75 17.6851 21.75 12.3003C21.75 11.8861 21.4142 11.5503 21 11.5503C20.5858 11.5503 20.25 11.8861 20.25 12.3003C20.25 16.8566 16.5563 20.5503 12 20.5503C7.44365 20.5503 3.75 16.8566 3.75 12.3003ZM15.25 3.30029C15.25 3.71451 15.5858 4.05029 16 4.05029H19.1893L11.4697 11.77C11.1768 12.0629 11.1768 12.5377 11.4697 12.8306C11.7626 13.1235 12.2374 13.1235 12.5303 12.8306L20.25 5.11095V8.30029C20.25 8.71451 20.5858 9.05029 21 9.05029C21.4142 9.05029 21.75 8.71451 21.75 8.30029V3.30029C21.75 2.88608 21.4142 2.55029 21 2.55029H16C15.5858 2.55029 15.25 2.88608 15.25 3.30029Z" fill="white"/>
</svg>
