<svg width="24" height="25" viewBox="0 0 24 25" fill="none" xmlns="http://www.w3.org/2000/svg">
<path fill-rule="evenodd" clip-rule="evenodd" d="M8.46961 2.76996C8.7625 2.47707 9.23738 2.47707 9.53027 2.76996L14.5302 7.7699C14.8231 8.0628 14.8231 8.53767 14.5302 8.83056C14.2373 9.12346 13.7624 9.12346 13.4695 8.83056L9.74994 5.11095V18.5503H19.9999C20.4142 18.5503 20.7499 18.8861 20.7499 19.3003C20.7499 19.7145 20.4142 20.0503 19.9999 20.0503H8.99994C8.58573 20.0503 8.24994 19.7145 8.24994 19.3003V5.11095L4.53033 8.83056C4.23744 9.12346 3.76256 9.12346 3.46967 8.83056C3.17678 8.53767 3.17678 8.0628 3.46967 7.7699L8.46961 2.76996Z" fill="white"/>
</svg>
