<svg width="24" height="25" viewBox="0 0 24 25" fill="none" xmlns="http://www.w3.org/2000/svg">
<path fill-rule="evenodd" clip-rule="evenodd" d="M12.75 3.30029C12.75 2.88608 12.4142 2.55029 12 2.55029C11.5858 2.55029 11.25 2.88608 11.25 3.30029V15.4896L8.53033 12.77C8.23744 12.4771 7.76256 12.4771 7.46967 12.77C7.17678 13.0629 7.17678 13.5377 7.46967 13.8306L11.4697 17.8306C11.6103 17.9713 11.8011 18.0503 12 18.0503C12.1989 18.0503 12.3897 17.9713 12.5303 17.8306L16.5303 13.8306C16.8232 13.5377 16.8232 13.0629 16.5303 12.77C16.2374 12.4771 15.7626 12.4771 15.4697 12.77L12.75 15.4896V3.30029ZM7.5 8.55022L2 8.55023C1.58579 8.55023 1.25 8.88602 1.25 9.30023V21.3002C1.25 21.7144 1.58579 22.0502 2 22.0502L22 22.0502C22.1989 22.0502 22.3897 21.9712 22.5303 21.8306C22.671 21.6899 22.75 21.4991 22.75 21.3002V9.30023C22.75 8.88602 22.4142 8.55023 22 8.55023L16.5 8.55022H16.5L16 8.55023C15.5858 8.55024 15.25 8.88604 15.25 9.30025C15.25 9.71447 15.5858 10.0502 16 10.0502L16.5 10.0502H16.5L21.25 10.0502V20.5502L2.75 20.5502L2.75 10.0502L7.49998 10.0502H7.5L7.99998 10.0502C8.41419 10.0502 8.74999 9.71447 8.75 9.30025C8.75001 8.88604 8.41424 8.55024 8.00002 8.55023L7.50002 8.55022H7.5Z" fill="white"/>
</svg>
