<svg width="24" height="25" viewBox="0 0 24 25" fill="none" xmlns="http://www.w3.org/2000/svg">
<path fill-rule="evenodd" clip-rule="evenodd" d="M3.25 3.30029C3.25 2.88608 3.58579 2.55029 4 2.55029H15C15.4142 2.55029 15.75 2.88608 15.75 3.30029V17.4896L19.4697 13.77C19.7626 13.4771 20.2374 13.4771 20.5303 13.77C20.8232 14.0629 20.8232 14.5377 20.5303 14.8306L15.5303 19.8306C15.2374 20.1235 14.7626 20.1235 14.4697 19.8306L9.46967 14.8306C9.17678 14.5377 9.17678 14.0629 9.46967 13.77C9.76256 13.4771 10.2374 13.4771 10.5303 13.77L14.25 17.4896V4.05029H4C3.58579 4.05029 3.25 3.71451 3.25 3.30029Z" fill="white"/>
</svg>
