<svg width="24" height="25" viewBox="0 0 24 25" fill="none" xmlns="http://www.w3.org/2000/svg">
<path fill-rule="evenodd" clip-rule="evenodd" d="M2.75 12.3003C2.75 7.19166 6.89137 3.05029 12 3.05029C17.1086 3.05029 21.25 7.19166 21.25 12.3003C21.25 17.4089 17.1086 21.5503 12 21.5503C6.89137 21.5503 2.75 17.4089 2.75 12.3003ZM12 1.55029C6.06294 1.55029 1.25 6.36323 1.25 12.3003C1.25 18.2374 6.06294 23.0503 12 23.0503C17.9371 23.0503 22.75 18.2374 22.75 12.3003C22.75 6.36323 17.9371 1.55029 12 1.55029ZM13.5303 8.76996C13.2374 8.47707 12.7626 8.47707 12.4697 8.76996C12.1768 9.06286 12.1768 9.53773 12.4697 9.83062L14.1893 11.5503H8C7.58579 11.5503 7.25 11.8861 7.25 12.3003C7.25 12.7145 7.58579 13.0503 8 13.0503H14.1893L12.4697 14.77C12.1768 15.0629 12.1768 15.5377 12.4697 15.8306C12.7626 16.1235 13.2374 16.1235 13.5303 15.8306L16.5303 12.8306C16.8232 12.5377 16.8232 12.0629 16.5303 11.77L13.5303 8.76996Z" fill="white"/>
</svg>
