<svg width="24" height="25" viewBox="0 0 24 25" fill="none" xmlns="http://www.w3.org/2000/svg">
<path fill-rule="evenodd" clip-rule="evenodd" d="M3.75 12.3003C3.75 7.74394 7.44365 4.05029 12 4.05029C12.4142 4.05029 12.75 3.71451 12.75 3.30029C12.75 2.88608 12.4142 2.55029 12 2.55029C6.61522 2.55029 2.25 6.91552 2.25 12.3003C2.25 17.6851 6.61522 22.0503 12 22.0503C17.3848 22.0503 21.75 17.6851 21.75 12.3003C21.75 11.8861 21.4142 11.5503 21 11.5503C20.5858 11.5503 20.25 11.8861 20.25 12.3003C20.25 16.8566 16.5563 20.5503 12 20.5503C7.44365 20.5503 3.75 16.8566 3.75 12.3003ZM19.5303 5.83062C19.8232 5.53773 19.8232 5.06286 19.5303 4.76996C19.2374 4.47707 18.7626 4.47707 18.4697 4.76996L10.75 12.4896V9.30029C10.75 8.88608 10.4142 8.55029 10 8.55029C9.58579 8.55029 9.25 8.88608 9.25 9.30029V14.3003C9.25 14.7145 9.58579 15.0503 10 15.0503H15C15.4142 15.0503 15.75 14.7145 15.75 14.3003C15.75 13.8861 15.4142 13.5503 15 13.5503H11.8107L19.5303 5.83062Z" fill="white"/>
</svg>
