<svg width="24" height="25" viewBox="0 0 24 25" fill="none" xmlns="http://www.w3.org/2000/svg">
<path fill-rule="evenodd" clip-rule="evenodd" d="M2.75 12.3003C2.75 7.19166 6.89137 3.05029 12 3.05029C17.1086 3.05029 21.25 7.19166 21.25 12.3003C21.25 17.4089 17.1086 21.5503 12 21.5503C6.89137 21.5503 2.75 17.4089 2.75 12.3003ZM12 1.55029C6.06294 1.55029 1.25 6.36323 1.25 12.3003C1.25 18.2374 6.06294 23.0503 12 23.0503C17.9371 23.0503 22.75 18.2374 22.75 12.3003C22.75 6.36323 17.9371 1.55029 12 1.55029ZM14.5303 7.76996C14.2374 7.47707 13.7626 7.47707 13.4697 7.76996C13.1768 8.06286 13.1768 8.53773 13.4697 8.83062L14.1893 9.55029H11C8.92893 9.55029 7.25 11.2292 7.25 13.3003C7.25 15.3714 8.92893 17.0503 11 17.0503H13C13.4142 17.0503 13.75 16.7145 13.75 16.3003C13.75 15.8861 13.4142 15.5503 13 15.5503H11C9.75736 15.5503 8.75 14.5429 8.75 13.3003C8.75 12.0577 9.75736 11.0503 11 11.0503H16C16.3033 11.0503 16.5768 10.8676 16.6929 10.5873C16.809 10.307 16.7448 9.98446 16.5303 9.76996L14.5303 7.76996Z" fill="white"/>
</svg>
