<svg width="24" height="25" viewBox="0 0 24 25" fill="none" xmlns="http://www.w3.org/2000/svg">
<path fill-rule="evenodd" clip-rule="evenodd" d="M4.25 5.30029C4.25 4.88608 4.58579 4.55029 5 4.55029H11C11.4142 4.55029 11.75 4.88608 11.75 5.30029C11.75 5.71451 11.4142 6.05029 11 6.05029H6.81066L18.25 17.4896V13.3003C18.25 12.8861 18.5858 12.5503 19 12.5503C19.4142 12.5503 19.75 12.8861 19.75 13.3003V19.3003C19.75 19.7145 19.4142 20.0503 19 20.0503H13C12.5858 20.0503 12.25 19.7145 12.25 19.3003C12.25 18.8861 12.5858 18.5503 13 18.5503H17.1893L5.75 7.11095V11.3003C5.75 11.7145 5.41421 12.0503 5 12.0503C4.58579 12.0503 4.25 11.7145 4.25 11.3003V5.30029Z" fill="white"/>
</svg>
