<svg width="24" height="25" viewBox="0 0 24 25" fill="none" xmlns="http://www.w3.org/2000/svg">
<path fill-rule="evenodd" clip-rule="evenodd" d="M14.4697 2.76996C14.7626 2.47707 15.2374 2.47707 15.5303 2.76996L20.5303 7.76996C20.8232 8.06286 20.8232 8.53773 20.5303 8.83062C20.2374 9.12352 19.7626 9.12352 19.4697 8.83062L15.75 5.11095V13.3003V17.5503V18.8315V19.1792V19.2695V19.2925V19.2983V19.2998V19.3002C15.75 19.3003 15.75 19.3003 15 19.3003H15.75C15.75 19.7145 15.4142 20.0503 15 20.0503H4C3.58579 20.0503 3.25 19.7145 3.25 19.3003C3.25 18.8861 3.58579 18.5503 4 18.5503H14.25V17.5503V13.3003V5.11095L10.5303 8.83062C10.2374 9.12352 9.76256 9.12352 9.46967 8.83062C9.17678 8.53773 9.17678 8.06286 9.46967 7.76996L14.4697 2.76996Z" fill="white"/>
</svg>
