<svg width="24" height="25" viewBox="0 0 24 25" fill="none" xmlns="http://www.w3.org/2000/svg">
<path fill-rule="evenodd" clip-rule="evenodd" d="M9.53033 2.76996C9.82322 3.06286 9.82322 3.53773 9.53033 3.83062L5.81066 7.55029L16.8086 7.5503L19.3032 7.5503L19.8384 7.5503H19.9612H19.9905H19.9977H19.9994H19.9999H20L20 8.3003C20.75 8.3003 20.75 8.30033 20.75 8.3004V8.30071V8.30123V8.30195V8.30287V8.304V8.30533V8.30686V8.3086V8.31053V8.31267V8.315V8.31753V8.32026V8.32319V8.32631V8.32963V8.33315V8.33686V8.34076V8.34485V8.34914V8.35361V8.35828V8.36314V8.36819V8.37342V8.37884V8.38445V8.39025V8.39623V8.4024V8.40875V8.41528V8.42199V8.42889V8.43597V8.44323V8.45067V8.45829V8.46608V8.47406V8.48221V8.49053V8.49903V8.50771V8.51656V8.52558V8.53478V8.54415V8.55369V8.56339V8.57327V8.58332V8.59354V8.60392V8.61447V8.62518V8.63606V8.64711V8.65832V8.66969V8.68123V8.69292V8.70478V8.7168V8.72897V8.74131V8.7538V8.76645V8.77926V8.79222V8.80534V8.81861V8.83204V8.84562V8.85935V8.87324V8.88727V8.90145V8.91579V8.93027V8.9449V8.95968V8.9746V8.98967V9.00489V9.02024V9.03575V9.05139V9.06718V9.08311V9.09918V9.11539V9.13174V9.14822V9.16485V9.18161V9.19851V9.21554V9.23271V9.25002V9.26745V9.28502V9.30273V9.32056V9.33852V9.35662V9.37484V9.39319V9.41167V9.43028V9.44901V9.46786V9.48685V9.50595V9.52518V9.54454V9.56401V9.58361V9.60332V9.62316V9.64312V9.66319V9.68338V9.70369V9.72411V9.74465V9.76531V9.78607V9.80696V9.82795V9.84906V9.87027V9.8916V9.91304V9.93458V9.95624V9.978V9.99987V10.0218V10.0439V10.0661V10.0884V10.1108V10.1333V10.1559V10.1786V10.2014V10.2243V10.2473V10.2704V10.2935V10.3168V10.3402V10.3637V10.3873V10.4109V10.4347V10.4586V10.4825V10.5065V10.5307V10.5549V10.5792V10.6036V10.628V10.6526V10.6773V10.702V10.7268V10.7517V10.7767V10.8018V10.8269V10.8522V10.8775V10.9029V10.9283V10.9539V10.9795V11.0052V11.031V11.0568V11.0828V11.1088V11.1348V11.161V11.1872V11.2135V11.2398V11.2663V11.2928V11.3193V11.346V11.3727V11.3994V11.4262V11.4531V11.4801V11.5071V11.5342V11.5613V11.5885V11.6158V11.6431V11.6705V11.6979V11.7254V11.753V11.7806V11.8082V11.8359V11.8637V11.8915V11.9194V11.9473V11.9753V12.0033V12.0314V12.0595V12.0877V12.1159V12.1442V12.1725V12.2008V12.2292V12.2577V12.2861V12.3147V12.3432V12.3718V12.4005V12.4292V12.4579V12.4866V12.5154V12.5443V12.5731V12.602V12.631V12.6599V12.6889V12.718V12.747V12.7761V12.8053V12.8344V12.8636V12.8928V12.922V12.9513V12.9806V13.0099V13.0392V13.0686V13.098V13.1274V13.1568V13.1862V13.2157V13.2452V13.2747V13.3042V13.3337V13.3633V13.3928V13.4224V13.452V13.4816V13.5112V13.5408V13.5705V13.6001V13.6298V13.6594V13.6891V13.7188V13.7485V13.7782V13.8079V13.8376V13.8673V13.897V13.9267V13.9564V13.9861V14.0158V14.0456V14.0753V14.105V14.1347V14.1644V14.1941V14.2238V14.2535V14.2831V14.3128V14.3425V14.3721V14.4018V14.4314V14.4611V14.4907V14.5203V14.5499V14.5794V14.609V14.6385V14.6681V14.6976V14.7271V14.7566V14.786V14.8155V14.8449V14.8743V14.9037V14.933V14.9623V14.9916V15.0209V15.0502V15.0794V15.1086V15.1378V15.1669V15.1961V15.2252V15.2542V15.2832V15.3122V15.3412V15.3701V15.399V15.4279V15.4567V15.4855V15.5143V15.543V15.5717V15.6003V15.6289V15.6575V15.686V15.7145V15.7429V15.7713V15.7996V15.8279V15.8562V15.8844V15.9126V15.9407V15.9687V15.9968V16.0247V16.0526V16.0805V16.1083V16.1361V16.1638V16.1914V16.219V16.2466V16.2741V16.3015V16.3289V16.3562V16.3834V16.4106V16.4378V16.4648V16.4918V16.5188V16.5457V16.5725V16.5992V16.6259V16.6525V16.6791V16.7056V16.732V16.7584V16.7846V16.8108V16.837V16.863V16.889V16.915V16.9408V16.9666V16.9923V17.0179V17.0434V17.0689V17.0942V17.1196V17.1448V17.1699V17.195V17.22V17.2448V17.2697V17.2944V17.319V17.3436V17.368V17.3924V17.4167V17.4409V17.465V17.4891V17.513V17.5368V17.5606V17.5842V17.6078V17.6313V17.6546V17.6779V17.7011V17.7242V17.7472V17.77V17.7928V17.8155V17.8381V17.8606V17.883V17.9052V17.9274V17.9495V17.9714V17.9933V18.015V18.0367V18.0582V18.0796V18.1009V18.1221V18.1432V18.1642V18.1851V18.2058V18.2265V18.247V18.2674V18.2877V18.3079V18.3279V18.3479V18.3677V18.3874V18.407V18.4264V18.4458V18.465V18.4841V18.5031V18.5219V18.5406V18.5592V18.5777V18.596V18.6142V18.6323V18.6502V18.668V18.6857V18.7033V18.7207V18.738V18.7551V18.7722V18.789V18.8058V18.8224V18.8389V18.8552V18.8714V18.8874V18.9034V18.9191V18.9348V18.9502V18.9656V18.9808V18.9958V19.0107V19.0255V19.0401V19.0546V19.0689V19.083V19.0971V19.1109V19.1246V19.1382V19.1516V19.1649V19.178V19.1909V19.2037V19.2163V19.2288V19.2411V19.2533V19.2653V19.2771V19.2888V19.3003C20.75 19.7145 20.4142 20.0503 20 20.0503C19.5858 20.0503 19.25 19.7145 19.25 19.3003V19.2888V19.2771V19.2653V19.2533V19.2411V19.2288V19.2163V19.2037V19.1909V19.178V19.1649V19.1516V19.1382V19.1246V19.1109V19.0971V19.083V19.0689V19.0546V19.0401V19.0255V19.0107V18.9958V18.9808V18.9656V18.9502V18.9348V18.9191V18.9034V18.8874V18.8714V18.8552V18.8389V18.8224V18.8058V18.789V18.7722V18.7551V18.738V18.7207V18.7033V18.6857V18.668V18.6502V18.6323V18.6142V18.596V18.5777V18.5592V18.5406V18.5219V18.5031V18.4841V18.465V18.4458V18.4264V18.407V18.3874V18.3677V18.3479V18.3279V18.3079V18.2877V18.2674V18.247V18.2265V18.2058V18.1851V18.1642V18.1432V18.1221V18.1009V18.0796V18.0582V18.0367V18.015V17.9933V17.9714V17.9495V17.9274V17.9052V17.883V17.8606V17.8381V17.8155V17.7928V17.77V17.7472V17.7242V17.7011V17.6779V17.6546V17.6313V17.6078V17.5842V17.5606V17.5368V17.513V17.4891V17.465V17.4409V17.4167V17.3924V17.368V17.3436V17.319V17.2944V17.2697V17.2448V17.22V17.195V17.1699V17.1448V17.1196V17.0942V17.0689V17.0434V17.0179V16.9923V16.9666V16.9408V16.915V16.889V16.863V16.837V16.8108V16.7846V16.7584V16.732V16.7056V16.6791V16.6525V16.6259V16.5992V16.5725V16.5457V16.5188V16.4918V16.4648V16.4378V16.4106V16.3834V16.3562V16.3289V16.3015V16.2741V16.2466V16.219V16.1914V16.1638V16.1361V16.1083V16.0805V16.0526V16.0247V15.9968V15.9687V15.9407V15.9126V15.8844V15.8562V15.8279V15.7996V15.7713V15.7429V15.7145V15.686V15.6575V15.6289V15.6003V15.5717V15.543V15.5143V15.4855V15.4567V15.4279V15.399V15.3701V15.3412V15.3122V15.2832V15.2542V15.2252V15.1961V15.1669V15.1378V15.1086V15.0794V15.0502V15.0209V14.9916V14.9623V14.933V14.9037V14.8743V14.8449V14.8155V14.786V14.7566V14.7271V14.6976V14.6681V14.6385V14.609V14.5794V14.5499V14.5203V14.4907V14.4611V14.4314V14.4018V14.3721V14.3425V14.3128V14.2831V14.2535V14.2238V14.1941V14.1644V14.1347V14.105V14.0753V14.0456V14.0158V13.9861V13.9564V13.9267V13.897V13.8673V13.8376V13.8079V13.7782V13.7485V13.7188V13.6891V13.6594V13.6298V13.6001V13.5705V13.5408V13.5112V13.4816V13.452V13.4224V13.3928V13.3633V13.3337V13.3042V13.2747V13.2452V13.2157V13.1862V13.1568V13.1274V13.098V13.0686V13.0392V13.0099V12.9806V12.9513V12.922V12.8928V12.8636V12.8344V12.8053V12.7761V12.747V12.718V12.6889V12.6599V12.631V12.602V12.5731V12.5443V12.5154V12.4866V12.4579V12.4292V12.4005V12.3718V12.3432V12.3147V12.2861V12.2577V12.2292V12.2008V12.1725V12.1442V12.1159V12.0877V12.0595V12.0314V12.0033V11.9753V11.9473V11.9194V11.8915V11.8637V11.8359V11.8082V11.7806V11.753V11.7254V11.6979V11.6705V11.6431V11.6158V11.5885V11.5613V11.5342V11.5071V11.4801V11.4531V11.4262V11.3994V11.3727V11.346V11.3193V11.2928V11.2663V11.2398V11.2135V11.1872V11.161V11.1348V11.1088V11.0828V11.0568V11.031V11.0052V10.9795V10.9539V10.9283V10.9029V10.8775V10.8522V10.8269V10.8018V10.7767V10.7517V10.7268V10.702V10.6773V10.6526V10.628V10.6036V10.5792V10.5549V10.5307V10.5065V10.4825V10.4586V10.4347V10.4109V10.3873V10.3637V10.3402V10.3168V10.2935V10.2704V10.2473V10.2243V10.2014V10.1786V10.1559V10.1333V10.1108V10.0884V10.0661V10.0439V10.0218V9.99987V9.978V9.95624V9.93458V9.91304V9.8916V9.87027V9.84906V9.82795V9.80696V9.78607V9.76531V9.74465V9.72411V9.70369V9.68338V9.66319V9.64312V9.62316V9.60332V9.58361V9.56401V9.54454V9.52518V9.50595V9.48685V9.46786V9.44901V9.43028V9.41167V9.39319V9.37484V9.35662V9.33852V9.32056V9.30273V9.28502V9.26745V9.25002V9.23271V9.21554V9.19851V9.18161V9.16485V9.14822V9.13174V9.11539V9.09918V9.08311V9.06718V9.05139V9.0503L16.8086 9.0503L5.81066 9.05029L9.53033 12.77C9.82322 13.0629 9.82322 13.5377 9.53033 13.8306C9.23744 14.1235 8.76256 14.1235 8.46967 13.8306L3.46967 8.83062C3.17678 8.53773 3.17678 8.06286 3.46967 7.76996L8.46967 2.76996C8.76256 2.47707 9.23744 2.47707 9.53033 2.76996ZM20 8.3003H20.75C20.75 7.88608 20.4142 7.5503 20 7.5503V8.3003Z" fill="white"/>
</svg>
