<svg width="24" height="25" viewBox="0 0 24 25" fill="none" xmlns="http://www.w3.org/2000/svg">
<path fill-rule="evenodd" clip-rule="evenodd" d="M14.4697 19.8306C14.7626 20.1235 15.2374 20.1235 15.5303 19.8306L20.5303 14.8306C20.8232 14.5377 20.8232 14.0629 20.5303 13.77L15.5303 8.76996C15.2374 8.47707 14.7626 8.47707 14.4697 8.76996C14.1768 9.06286 14.1768 9.53773 14.4697 9.83062L18.1893 13.5503H18.1875H18.1562H18.125H18.0938H18.0625H18.0312H18H17.9688H17.9375H17.9062H17.875H17.8438H17.8125H17.7812H17.75H17.7188H17.6875H17.6562H17.625H17.5938H17.5625H17.5312H17.5H17.4688H17.4375H17.4062H17.375H17.3438H17.3125H17.2812H17.25H17.2188H17.1875H17.1562H17.125H17.0938H17.0625H17.0312H17H16.9688H16.9375H16.9062H16.875H16.8438H16.8125H16.7812H16.75H16.7188H16.6875H16.6562H16.625H16.5938H16.5625H16.5312H16.5H16.4688H16.4375H16.4062H16.375H16.3438H16.3125H16.2812H16.25H16.2188H16.1875H16.1562H16.125H16.0938H16.0625H16.0312H16H15.9688H15.9375H15.9062H15.875H15.8438H15.8125H15.7812H15.75H15.7188H15.6875H15.6562H15.625H15.5938H15.5625H15.5312H15.5H15.4688H15.4375H15.4062H15.375H15.3438H15.3125H15.2812H15.25H15.2188H15.1875H15.1562H15.125H15.0938H15.0625H15.0312H15H14.9688H14.9375H14.9062H14.875H14.8438H14.8125H14.7812H14.75H14.7188H14.6875H14.6562H14.625H14.5938H14.5625H14.5312H14.5H14.4688H14.4375H14.4062H14.375H14.3438H14.3125H14.2812H14.25H14.2188H14.1875H14.1562H14.125H14.0938H14.0625H14.0312H14H13.9688H13.9375H13.9062H13.875H13.8438H13.8125H13.7812H13.75H13.7188H13.6875H13.6562H13.625H13.5938H13.5625H13.5312H13.5H13.4688H13.4375H13.4062H13.375H13.3438H13.3125H13.2812H13.25H13.2188H13.1875H13.1562H13.125H13.0938H13.0625H13.0312H13H12.9688H12.9375H12.9062H12.875H12.8438H12.8125H12.7812H12.75H12.7188H12.6875H12.6562H12.625H12.5938H12.5625H12.5312H12.5H12.4688H12.4375H12.4062H12.375H12.3438H12.3125H12.2812H12.25H12.2188H12.1875H12.1562H12.125H12.0938H12.0625H12.0312H12H11.9688H11.9375H11.9062H11.875H11.8438H11.8125H11.7812H11.75H11.7188H11.6875H11.6562H11.625H11.5938H11.5625H11.5312H11.5H11.4688H11.4375H11.4062H11.375H11.3438H11.3125H11.2812H11.25H11.2188H11.1875H11.1562H11.125H11.0938H11.0625H11.0312H11H10.9688H10.9375H10.9062H10.875H10.8438H10.8125H10.7812H10.75H10.7188H10.6875H10.6562H10.625H10.5938H10.5625H10.5312H10.5H10.4688H10.4375H10.4062H10.375H10.3438H10.3125H10.2812H10.25H10.2188H10.1875H10.1562H10.125H10.0938H10.0625H10.0312H10H9.96875H9.9375H9.90625H9.875H9.84375H9.8125H9.78125H9.75H9.71875H9.6875H9.65625H9.625H9.59375H9.5625H9.53125H9.5H9.46875H9.4375H9.40625H9.375H9.34375H9.3125H9.28125H9.25H9.21875H9.1875H9.15625H9.125H9.09375H9.0625H9.03125H9H8.96875H8.9375H8.90625H8.875H8.84375H8.8125H8.78125H8.75H8.71875H8.6875H8.65625H8.625H8.59375H8.5625H8.53125H8.5H8.46875H8.4375H8.40625H8.375H8.34375H8.3125H8.28125H8.25H8.21875H8.1875H8.15625H8.125H8.09375H8.0625H8.03125H8H7.96875H7.9375H7.90625H7.875H7.84375H7.8125H7.78125H7.75H7.71875H7.6875H7.65625H7.625H7.59375H7.5625H7.53125H7.5H7.46875H7.4375H7.40625H7.375H7.34375H7.3125H7.28125H7.25H7.21875H7.1875H7.15625H7.125H7.09375H7.0625H7.03125H7H6.96875H6.9375H6.90625H6.875H6.84375H6.8125H6.78125H6.75H6.71875H6.6875H6.65625H6.625H6.59375H6.5625H6.53125H6.5H6.46875H6.4375H6.40625H6.375H6.34375H6.3125H6.28125H6.25H6.21875H6.1875H6.15625H6.125H6.09375H6.0625H6.03125H6H5.96875H5.9375H5.90625H5.875H5.84375H5.8125H5.78125H5.75H5.71875H5.6875H5.65625H5.625H5.59375H5.5625H5.53125H5.5H5.46875H5.4375H5.40625H5.375H5.34375H5.3125H5.28125H5.25H5.21875H5.1875H5.15625H5.125H5.09375H5.0625H5.03125H5H4.96875H4.9375H4.90625H4.875H4.84375H4.8125H4.78125H4.75V3.30029C4.75 2.88608 4.41421 2.55029 4 2.55029C3.58579 2.55029 3.25 2.88608 3.25 3.30029V14.3003C3.25 14.7145 3.58579 15.0503 4 15.0503H4.03125H4.0625H4.09375H4.125H4.15625H4.1875H4.21875H4.25H4.28125H4.3125H4.34375H4.375H4.40625H4.4375H4.46875H4.5H4.53125H4.5625H4.59375H4.625H4.65625H4.6875H4.71875H4.75H4.78125H4.8125H4.84375H4.875H4.90625H4.9375H4.96875H5H5.03125H5.0625H5.09375H5.125H5.15625H5.1875H5.21875H5.25H5.28125H5.3125H5.34375H5.375H5.40625H5.4375H5.46875H5.5H5.53125H5.5625H5.59375H5.625H5.65625H5.6875H5.71875H5.75H5.78125H5.8125H5.84375H5.875H5.90625H5.9375H5.96875H6H6.03125H6.0625H6.09375H6.125H6.15625H6.1875H6.21875H6.25H6.28125H6.3125H6.34375H6.375H6.40625H6.4375H6.46875H6.5H6.53125H6.5625H6.59375H6.625H6.65625H6.6875H6.71875H6.75H6.78125H6.8125H6.84375H6.875H6.90625H6.9375H6.96875H7H7.03125H7.0625H7.09375H7.125H7.15625H7.1875H7.21875H7.25H7.28125H7.3125H7.34375H7.375H7.40625H7.4375H7.46875H7.5H7.53125H7.5625H7.59375H7.625H7.65625H7.6875H7.71875H7.75H7.78125H7.8125H7.84375H7.875H7.90625H7.9375H7.96875H8H8.03125H8.0625H8.09375H8.125H8.15625H8.1875H8.21875H8.25H8.28125H8.3125H8.34375H8.375H8.40625H8.4375H8.46875H8.5H8.53125H8.5625H8.59375H8.625H8.65625H8.6875H8.71875H8.75H8.78125H8.8125H8.84375H8.875H8.90625H8.9375H8.96875H9H9.03125H9.0625H9.09375H9.125H9.15625H9.1875H9.21875H9.25H9.28125H9.3125H9.34375H9.375H9.40625H9.4375H9.46875H9.5H9.53125H9.5625H9.59375H9.625H9.65625H9.6875H9.71875H9.75H9.78125H9.8125H9.84375H9.875H9.90625H9.9375H9.96875H10H10.0312H10.0625H10.0938H10.125H10.1562H10.1875H10.2188H10.25H10.2812H10.3125H10.3438H10.375H10.4062H10.4375H10.4688H10.5H10.5312H10.5625H10.5938H10.625H10.6562H10.6875H10.7188H10.75H10.7812H10.8125H10.8438H10.875H10.9062H10.9375H10.9688H11H11.0312H11.0625H11.0938H11.125H11.1562H11.1875H11.2188H11.25H11.2812H11.3125H11.3438H11.375H11.4062H11.4375H11.4688H11.5H11.5312H11.5625H11.5938H11.625H11.6562H11.6875H11.7188H11.75H11.7812H11.8125H11.8438H11.875H11.9062H11.9375H11.9688H12H12.0312H12.0625H12.0938H12.125H12.1562H12.1875H12.2188H12.25H12.2812H12.3125H12.3438H12.375H12.4062H12.4375H12.4688H12.5H12.5312H12.5625H12.5938H12.625H12.6562H12.6875H12.7188H12.75H12.7812H12.8125H12.8438H12.875H12.9062H12.9375H12.9688H13H13.0312H13.0625H13.0938H13.125H13.1562H13.1875H13.2188H13.25H13.2812H13.3125H13.3438H13.375H13.4062H13.4375H13.4688H13.5H13.5312H13.5625H13.5938H13.625H13.6562H13.6875H13.7188H13.75H13.7812H13.8125H13.8438H13.875H13.9062H13.9375H13.9688H14H14.0312H14.0625H14.0938H14.125H14.1562H14.1875H14.2188H14.25H14.2812H14.3125H14.3438H14.375H14.4062H14.4375H14.4688H14.5H14.5312H14.5625H14.5938H14.625H14.6562H14.6875H14.7188H14.75H14.7812H14.8125H14.8438H14.875H14.9062H14.9375H14.9688H15H15.0312H15.0625H15.0938H15.125H15.1562H15.1875H15.2188H15.25H15.2812H15.3125H15.3438H15.375H15.4062H15.4375H15.4688H15.5H15.5312H15.5625H15.5938H15.625H15.6562H15.6875H15.7188H15.75H15.7812H15.8125H15.8438H15.875H15.9062H15.9375H15.9688H16H16.0312H16.0625H16.0938H16.125H16.1562H16.1875H16.2188H16.25H16.2812H16.3125H16.3438H16.375H16.4062H16.4375H16.4688H16.5H16.5312H16.5625H16.5938H16.625H16.6562H16.6875H16.7188H16.75H16.7812H16.8125H16.8438H16.875H16.9062H16.9375H16.9688H17H17.0312H17.0625H17.0938H17.125H17.1562H17.1875H17.2188H17.25H17.2812H17.3125H17.3438H17.375H17.4062H17.4375H17.4688H17.5H17.5312H17.5625H17.5938H17.625H17.6562H17.6875H17.7188H17.75H17.7812H17.8125H17.8438H17.875H17.9062H17.9375H17.9688H18H18.0312H18.0625H18.0938H18.125H18.1562H18.1875H18.1893L14.4697 18.77C14.1768 19.0629 14.1768 19.5377 14.4697 19.8306Z" fill="white"/>
</svg>
