<svg width="24" height="25" viewBox="0 0 24 25" fill="none" xmlns="http://www.w3.org/2000/svg">
<path fill-rule="evenodd" clip-rule="evenodd" d="M3 1.55078C2.58579 1.55078 2.25 1.88657 2.25 2.30078L2.25 22.3008C2.25 22.4997 2.32902 22.6905 2.46967 22.8311C2.61032 22.9718 2.80109 23.0508 3 23.0508H13C13.4142 23.0508 13.75 22.715 13.75 22.3008L13.75 16.3008C13.75 15.8866 13.4142 15.5508 13 15.5508C12.5858 15.5508 12.25 15.8866 12.25 16.3008L12.25 21.5508H3.75L3.75 3.05078L12.25 3.05078L12.25 8.30078C12.25 8.715 12.5858 9.05078 13 9.05078C13.4142 9.05078 13.75 8.715 13.75 8.30078L13.75 2.30078C13.75 1.88657 13.4142 1.55078 13 1.55078L3 1.55078ZM17.5303 7.76996C17.2374 7.47707 16.7626 7.47707 16.4697 7.76996C16.1768 8.06286 16.1768 8.53773 16.4697 8.83062L19.1893 11.5503L8 11.5503C7.58579 11.5503 7.25 11.8861 7.25 12.3003C7.25 12.7145 7.58579 13.0503 8 13.0503L19.1893 13.0503L16.4697 15.77C16.1768 16.0629 16.1768 16.5377 16.4697 16.8306C16.7626 17.1235 17.2374 17.1235 17.5303 16.8306L21.5303 12.8306C21.8232 12.5377 21.8232 12.0629 21.5303 11.77L17.5303 7.76996Z" fill="white"/>
</svg>
