<svg width="24" height="25" viewBox="0 0 24 25" fill="none" xmlns="http://www.w3.org/2000/svg">
<path fill-rule="evenodd" clip-rule="evenodd" d="M14 2.55029C13.5858 2.55029 13.25 2.88608 13.25 3.30029C13.25 3.71451 13.5858 4.05029 14 4.05029H14.5H19.25V20.5503H14.5H14C13.5858 20.5503 13.25 20.8861 13.25 21.3003C13.25 21.7145 13.5858 22.0503 14 22.0503H14.5H20C20.4142 22.0503 20.75 21.7145 20.75 21.3003V3.30029C20.75 2.88608 20.4142 2.55029 20 2.55029H14.5H14ZM9.53033 7.76996C9.23744 7.47707 8.76256 7.47707 8.46967 7.76996C8.17678 8.06286 8.17678 8.53773 8.46967 8.83062L11.1893 11.5503H4C3.58579 11.5503 3.25 11.8861 3.25 12.3003C3.25 12.7145 3.58579 13.0503 4 13.0503H11.1893L8.46967 15.77C8.17678 16.0629 8.17678 16.5377 8.46967 16.8306C8.76256 17.1235 9.23744 17.1235 9.53033 16.8306L13.5303 12.8306C13.8232 12.5377 13.8232 12.0629 13.5303 11.77L9.53033 7.76996Z" fill="white"/>
</svg>
