<svg width="24" height="25" viewBox="0 0 24 25" fill="none" xmlns="http://www.w3.org/2000/svg">
<path fill-rule="evenodd" clip-rule="evenodd" d="M2 10.5503C1.58579 10.5503 1.25 10.8861 1.25 11.3003L1.25 21.3003C1.25 21.7145 1.58579 22.0503 2 22.0503L22 22.0503C22.1989 22.0503 22.3897 21.9713 22.5303 21.8306C22.671 21.69 22.75 21.4992 22.75 21.3003L22.75 11.3003C22.75 10.8861 22.4142 10.5503 22 10.5503L16 10.5503C15.5858 10.5503 15.25 10.8861 15.25 11.3003C15.25 11.7145 15.5858 12.0503 16 12.0503L21.25 12.0503L21.25 20.5503L2.75 20.5503L2.75 12.0503L8 12.0503C8.41421 12.0503 8.75 11.7145 8.75 11.3003C8.75 10.8861 8.41421 10.5503 8 10.5503L2 10.5503ZM16.5303 6.76996L12.5303 2.76996C12.2374 2.47707 11.7626 2.47707 11.4697 2.76996L7.46967 6.76996C7.17678 7.06286 7.17678 7.53773 7.46967 7.83062C7.76256 8.12352 8.23744 8.12352 8.53033 7.83062L11.25 5.11095L11.25 16.3003C11.25 16.7145 11.5858 17.0503 12 17.0503C12.4142 17.0503 12.75 16.7145 12.75 16.3003L12.75 5.11095L15.4697 7.83062C15.7626 8.12352 16.2374 8.12352 16.5303 7.83062C16.8232 7.53773 16.8232 7.06286 16.5303 6.76996Z" fill="white"/>
</svg>
