<svg width="24" height="25" viewBox="0 0 24 25" fill="none" xmlns="http://www.w3.org/2000/svg">
<path fill-rule="evenodd" clip-rule="evenodd" d="M2.75 12.3003C2.75 7.19166 6.89137 3.05029 12 3.05029C17.1086 3.05029 21.25 7.19166 21.25 12.3003C21.25 17.4089 17.1086 21.5503 12 21.5503C6.89137 21.5503 2.75 17.4089 2.75 12.3003ZM12 1.55029C6.06294 1.55029 1.25 6.36323 1.25 12.3003C1.25 18.2374 6.06294 23.0503 12 23.0503C17.9371 23.0503 22.75 18.2374 22.75 12.3003C22.75 6.36323 17.9371 1.55029 12 1.55029ZM14.4697 8.76996C14.7626 8.47707 15.2374 8.47707 15.5303 8.76996C15.8232 9.06286 15.8232 9.53773 15.5303 9.83062L10.8107 14.5503H13.5C13.9142 14.5503 14.25 14.8861 14.25 15.3003C14.25 15.7145 13.9142 16.0503 13.5 16.0503H9C8.58579 16.0503 8.25 15.7145 8.25 15.3003V10.8003C8.25 10.3861 8.58579 10.0503 9 10.0503C9.41421 10.0503 9.75 10.3861 9.75 10.8003V13.4896L14.4697 8.76996Z" fill="white"/>
</svg>
