<svg width="24" height="25" viewBox="0 0 24 25" fill="none" xmlns="http://www.w3.org/2000/svg">
<path fill-rule="evenodd" clip-rule="evenodd" d="M21.75 14.3003C21.75 13.8861 21.4142 13.5503 21 13.5503C20.5858 13.5503 20.25 13.8861 20.25 14.3003L20.25 14.8003L20.25 19.5503L3.75 19.5503L3.75 14.8003L3.75 14.3003C3.75 13.8861 3.41421 13.5503 3 13.5503C2.58579 13.5503 2.25 13.8861 2.25 14.3003L2.25 14.8003L2.25 20.3003C2.25 20.4992 2.32902 20.69 2.46967 20.8306C2.61032 20.9713 2.80109 21.0503 3 21.0503L21 21.0503C21.4142 21.0503 21.75 20.7145 21.75 20.3003L21.75 14.8003L21.75 14.3003ZM12.5303 3.76994C12.2375 3.47705 11.7626 3.47705 11.4697 3.76994L7.46969 7.76994C7.17679 8.06283 7.17679 8.53771 7.46969 8.8306C7.76258 9.12349 8.23745 9.12349 8.53035 8.8306L11.25 6.11093L11.25 14.3003C11.25 14.7145 11.5858 15.0503 12 15.0503C12.4142 15.0503 12.75 14.7145 12.75 14.3003L12.75 6.11093L15.4697 8.8306C15.7626 9.12349 16.2375 9.12349 16.5303 8.8306C16.8232 8.53771 16.8232 8.06283 16.5303 7.76994L12.5303 3.76994Z" fill="white"/>
</svg>
