<svg width="24" height="25" viewBox="0 0 24 25" fill="none" xmlns="http://www.w3.org/2000/svg">
<path fill-rule="evenodd" clip-rule="evenodd" d="M8.25003 3.30029C8.25003 2.88608 8.58581 2.55029 9.00003 2.55029L20 2.55029C20.4142 2.55029 20.75 2.88608 20.75 3.30029C20.75 3.71451 20.4142 4.05029 20 4.05029L9.75003 4.05029L9.75 17.4896L13.4697 13.77C13.7626 13.4771 14.2374 13.4771 14.5303 13.77C14.8232 14.0629 14.8232 14.5377 14.5303 14.8306L9.53033 19.8306C9.23744 20.1235 8.76256 20.1235 8.46967 19.8306L3.46967 14.8306C3.17678 14.5377 3.17678 14.0629 3.46967 13.77C3.76256 13.4771 4.23744 13.4771 4.53033 13.77L8.25 17.4896L8.25003 3.30029Z" fill="white"/>
</svg>
