<svg width="24" height="25" viewBox="0 0 24 25" fill="none" xmlns="http://www.w3.org/2000/svg">
<path fill-rule="evenodd" clip-rule="evenodd" d="M2.75 12.3003C2.75 7.19166 6.89137 3.05029 12 3.05029C17.1086 3.05029 21.25 7.19166 21.25 12.3003C21.25 17.4089 17.1086 21.5503 12 21.5503C6.89137 21.5503 2.75 17.4089 2.75 12.3003ZM12 1.55029C6.06294 1.55029 1.25 6.36323 1.25 12.3003C1.25 18.2374 6.06294 23.0503 12 23.0503C17.9371 23.0503 22.75 18.2374 22.75 12.3003C22.75 6.36323 17.9371 1.55029 12 1.55029ZM12.5303 7.76993C12.3897 7.62928 12.1989 7.55026 12 7.55026C11.8011 7.55026 11.6103 7.62928 11.4697 7.76993L8.46968 10.7699C8.17679 11.0628 8.17679 11.5377 8.46968 11.8306C8.76257 12.1235 9.23745 12.1235 9.53034 11.8306L11.25 10.1109V16.3003C11.25 16.7145 11.5858 17.0503 12 17.0503C12.4142 17.0503 12.75 16.7145 12.75 16.3003V10.1109L14.4697 11.8306C14.7626 12.1235 15.2374 12.1235 15.5303 11.8306C15.8232 11.5377 15.8232 11.0628 15.5303 10.7699L12.5303 7.76993Z" fill="white"/>
</svg>
