<svg width="24" height="25" viewBox="0 0 24 25" fill="none" xmlns="http://www.w3.org/2000/svg">
<path fill-rule="evenodd" clip-rule="evenodd" d="M2.25 12.3003C2.25 6.91712 6.58419 2.55029 12 2.55029C15.2226 2.55029 17.6366 3.89619 19.2301 5.22413C19.6171 5.54656 19.9569 5.86893 20.25 6.17246V3.80029C20.25 3.38608 20.5858 3.05029 21 3.05029C21.4142 3.05029 21.75 3.38608 21.75 3.80029V8.30029C21.75 8.71451 21.4142 9.05029 21 9.05029H17C16.5858 9.05029 16.25 8.71451 16.25 8.30029C16.25 7.88608 16.5858 7.55029 17 7.55029H19.4824C19.1637 7.19229 18.7593 6.7843 18.2699 6.37646C16.8634 5.20439 14.7774 4.05029 12 4.05029C7.41581 4.05029 3.75 7.74234 3.75 12.3003C3.75 12.7145 3.41421 13.0503 3 13.0503C2.58579 13.0503 2.25 12.7145 2.25 12.3003ZM21 11.5503C21.4142 11.5503 21.75 11.8861 21.75 12.3003C21.75 17.6851 17.3848 22.0503 12 22.0503C9.25451 22.0503 7.082 20.6703 5.63227 19.3559C5.30412 19.0584 5.00955 18.7612 4.75 18.4792V20.8003C4.75 21.2145 4.41421 21.5503 4 21.5503C3.58579 21.5503 3.25 21.2145 3.25 20.8003V16.3003C3.25 15.8861 3.58579 15.5503 4 15.5503H8.06448C8.47869 15.5503 8.81448 15.8861 8.81448 16.3003C8.81448 16.7145 8.47869 17.0503 8.06448 17.0503H5.48953C5.79687 17.4144 6.18242 17.83 6.63981 18.2447C7.94744 19.4302 9.77493 20.5503 12 20.5503C16.5563 20.5503 20.25 16.8566 20.25 12.3003C20.25 11.8861 20.5858 11.5503 21 11.5503Z" fill="white"/>
</svg>
