<svg width="24" height="25" viewBox="0 0 24 25" fill="none" xmlns="http://www.w3.org/2000/svg">
<path fill-rule="evenodd" clip-rule="evenodd" d="M2.75 12.3003C2.75 7.19166 6.89137 3.05029 12 3.05029C17.1086 3.05029 21.25 7.19166 21.25 12.3003C21.25 17.4089 17.1086 21.5503 12 21.5503C6.89137 21.5503 2.75 17.4089 2.75 12.3003ZM12 1.55029C6.06294 1.55029 1.25 6.36323 1.25 12.3003C1.25 18.2374 6.06294 23.0503 12 23.0503C17.9371 23.0503 22.75 18.2374 22.75 12.3003C22.75 6.36323 17.9371 1.55029 12 1.55029ZM12.75 8.30026C12.75 7.88605 12.4142 7.55026 12 7.55026C11.5858 7.55026 11.25 7.88605 11.25 8.30026V14.4896L9.53034 12.7699C9.23745 12.477 8.76257 12.477 8.46968 12.7699C8.17679 13.0628 8.17679 13.5377 8.46968 13.8306L11.4697 16.8306C11.7626 17.1235 12.2374 17.1235 12.5303 16.8306L15.5303 13.8306C15.8232 13.5377 15.8232 13.0628 15.5303 12.7699C15.2374 12.477 14.7626 12.477 14.4697 12.7699L12.75 14.4896V8.30026Z" fill="white"/>
</svg>
