<svg width="24" height="25" viewBox="0 0 24 25" fill="none" xmlns="http://www.w3.org/2000/svg">
<circle cx="12" cy="7.56" r="1.5" fill="white"/>
<circle cx="8" cy="9.56" r="1.5" fill="white"/>
<circle cx="16" cy="9.56" r="1.5" fill="white"/>
<path d="M20.25 12.06C20.25 16.5946 16.5916 20.2747 12.0652 20.3097C11.5841 20.2164 11.3924 20.0062 11.2809 19.7693C11.1334 19.456 11.0887 19.0041 11.1059 18.4082C11.1127 18.1737 11.1277 17.9397 11.1433 17.6972C11.1469 17.6402 11.1506 17.5827 11.1542 17.5245C11.1726 17.2299 11.1893 16.9181 11.1817 16.6266C11.1687 16.1272 11.0845 15.2996 10.3608 14.9025C9.92201 14.6617 9.51889 14.5237 9.11797 14.4711C8.71907 14.4187 8.36411 14.4567 8.04033 14.5149C7.86476 14.5464 7.70132 14.582 7.53942 14.6172C7.08991 14.7149 6.65231 14.81 6 14.81C5.27262 14.81 4.73385 14.4732 4.35337 13.9579C3.9588 13.4234 3.75 12.7088 3.75 12.06C3.75 7.50365 7.44365 3.81 12 3.81C16.5563 3.81 20.25 7.50365 20.25 12.06Z" stroke="white" stroke-width="1.5"/>
</svg>
