<svg width="24" height="25" viewBox="0 0 24 25" fill="none" xmlns="http://www.w3.org/2000/svg">
<path fill-rule="evenodd" clip-rule="evenodd" d="M3.75 12.8892C3.75 8.33281 7.44365 4.63916 12 4.63916C16.5563 4.63916 20.25 8.33281 20.25 12.8892C20.25 13.8446 20.124 14.6792 19.7892 15.2551C19.4957 15.7597 19.0029 16.1392 18 16.1392C17.5942 16.1392 17.3045 15.9835 17.1043 15.7464C16.8936 15.4969 16.75 15.1151 16.75 14.6394L16.75 12.8892V8.88916C16.75 8.47495 16.4142 8.13916 16 8.13916C15.5858 8.13916 15.25 8.47495 15.25 8.88916V9.42504C14.4003 8.62759 13.2572 8.13916 12 8.13916C9.37665 8.13916 7.25 10.2658 7.25 12.8892C7.25 15.5125 9.37665 17.6392 12 17.6392C13.4081 17.6392 14.6731 17.0264 15.543 16.0531C15.6509 16.2913 15.7892 16.5139 15.9582 16.7141C16.4456 17.2913 17.1558 17.6392 18 17.6392C19.4971 17.6392 20.5043 17.0092 21.0858 16.0091C21.626 15.0803 21.75 13.9148 21.75 12.8892C21.75 7.50438 17.3848 3.13916 12 3.13916C6.61522 3.13916 2.25 7.50438 2.25 12.8892C2.25 18.2739 6.61522 22.6392 12 22.6392C13.5552 22.6392 15.0274 22.2745 16.3338 21.6253C16.7047 21.4409 16.856 20.9908 16.6716 20.6199C16.4873 20.2489 16.0372 20.0977 15.6662 20.282C14.5627 20.8304 13.3185 21.1392 12 21.1392C7.44365 21.1392 3.75 17.4455 3.75 12.8892ZM15.25 12.8892C15.25 11.0942 13.7949 9.63916 12 9.63916C10.2051 9.63916 8.75 11.0942 8.75 12.8892C8.75 14.6841 10.2051 16.1392 12 16.1392C13.7949 16.1392 15.25 14.6841 15.25 12.8892Z" fill="white"/>
</svg>
