<svg width="24" height="25" viewBox="0 0 24 25" fill="none" xmlns="http://www.w3.org/2000/svg">
<path fill-rule="evenodd" clip-rule="evenodd" d="M4.70257 8.79661C4.92932 9.40128 5.23079 10.0381 5.6024 10.6921C6.27843 9.77782 7.06035 8.86851 7.93475 7.99411C8.80904 7.11982 9.71825 6.33797 10.6324 5.662C9.97848 5.29041 9.34163 4.98895 8.73698 4.7622C6.7414 4.01386 5.39294 4.17165 4.75248 4.81211C4.11201 5.45257 3.95423 6.80103 4.70257 8.79661ZM3.29808 9.3233C3.6282 10.2036 4.0908 11.1267 4.67144 12.0602C4.09093 12.9936 3.62844 13.9164 3.29836 14.7966C2.51117 16.8958 2.37995 19.0563 3.69211 20.3685C5.00426 21.6806 7.16478 21.5494 9.26395 20.7622C10.1442 20.4321 11.0671 19.9696 12.0005 19.3891C12.9339 19.9696 13.8568 20.4321 14.737 20.7622C16.8362 21.5494 18.9967 21.6806 20.3088 20.3685C21.621 19.0563 21.4898 16.8958 20.7026 14.7966C20.3725 13.9164 19.91 12.9936 19.3295 12.0602C19.9101 11.1267 20.3727 10.2036 20.7029 9.32332C21.4901 7.22415 21.6213 5.06363 20.3091 3.75147C18.997 2.43932 16.8364 2.57054 14.7373 3.35773C13.857 3.68784 12.934 4.15041 12.0005 4.73103C11.067 4.1504 10.144 3.68782 9.26366 3.35771C7.16449 2.57052 5.00398 2.43929 3.69182 3.75145C2.37966 5.06361 2.51089 7.22412 3.29808 9.3233ZM8.73727 19.3577C9.34182 19.131 9.97855 18.8296 10.6323 18.4581C9.71812 17.7821 8.80883 17.0002 7.93446 16.1258C7.0602 15.2516 6.27839 14.3424 5.60244 13.4283C5.23095 14.0821 4.92956 14.7188 4.70286 15.3233C3.95452 17.3189 4.1123 18.6674 4.75277 19.3078C5.39323 19.9483 6.74169 20.1061 8.73727 19.3577ZM8.99512 15.0652C9.97791 16.048 10.9967 16.8959 12.0005 17.5937C13.0043 16.8959 14.023 16.048 15.0058 15.0652C15.9885 14.0825 16.8364 13.0639 17.5341 12.0602C16.8363 11.0563 15.9883 10.0376 15.0055 9.05475C14.0228 8.07206 13.0042 7.22416 12.0005 6.52647C10.9968 7.22417 9.97811 8.07208 8.99541 9.05477C8.01261 10.0376 7.16462 11.0563 6.46688 12.0602C7.16456 13.0639 8.01245 14.0825 8.99512 15.0652ZM15.2637 19.3577C14.6591 19.131 14.0224 18.8296 13.3686 18.4581C14.2828 17.7821 15.1921 17.0002 16.0665 16.1258C16.9407 15.2516 17.7226 14.3424 18.3985 13.4283C18.77 14.0821 19.0714 14.7188 19.2981 15.3233C20.0464 17.3189 19.8886 18.6673 19.2482 19.3078C18.6077 19.9483 17.2592 20.1061 15.2637 19.3577ZM19.2984 8.79664C19.0716 9.40129 18.7701 10.0381 18.3985 10.6921C17.7225 9.77781 16.9406 8.86849 16.0662 7.99409C15.1919 7.11981 14.2827 6.33797 13.3686 5.66201C14.0225 5.29042 14.6593 4.98896 15.264 4.76223C17.2595 4.01388 18.608 4.17167 19.2485 4.81213C19.8889 5.4526 20.0467 6.80105 19.2984 8.79664ZM12.0001 13.06C12.5524 13.06 13.0001 12.6123 13.0001 12.06C13.0001 11.5077 12.5524 11.06 12.0001 11.06C11.4478 11.06 11.0001 11.5077 11.0001 12.06C11.0001 12.6123 11.4478 13.06 12.0001 13.06Z" fill="white"/>
</svg>
