<svg width="24" height="25" viewBox="0 0 24 25" fill="none" xmlns="http://www.w3.org/2000/svg">
<path fill-rule="evenodd" clip-rule="evenodd" d="M10 2.81C9.17525 2.81 8.42385 3.11623 7.85048 3.6223C7.53992 3.8964 7.06597 3.86685 6.79187 3.5563C6.51777 3.24575 6.54732 2.77179 6.85788 2.49769C7.69477 1.75904 8.79586 1.31 10 1.31C12.6234 1.31 14.75 3.43665 14.75 6.06V10.06C14.75 10.4742 14.4142 10.81 14 10.81C13.5858 10.81 13.25 10.4742 13.25 10.06V6.06C13.25 4.26507 11.7949 2.81 10 2.81ZM2.46967 2.52967C2.76256 2.23677 3.23744 2.23677 3.53033 2.52967L6.53033 5.52967L10.5303 9.52967L14.5303 13.5297L18.2733 17.2726L21.5303 20.5297C21.8232 20.8226 21.8232 21.2974 21.5303 21.5903C21.2374 21.8832 20.7626 21.8832 20.4697 21.5903L18.0116 19.1323C16.8939 21.3152 14.6222 22.81 12 22.81C8.27208 22.81 5.25 19.7879 5.25 16.06V6.37066L2.46967 3.59033C2.17678 3.29743 2.17678 2.82256 2.46967 2.52967ZM6.75 7.87066V16.06C6.75 18.9595 9.10051 21.31 12 21.31C14.2131 21.31 16.108 19.9401 16.8799 18.0006L14.75 15.8707V16.06C14.75 17.5788 13.5188 18.81 12 18.81C10.4812 18.81 9.25 17.5788 9.25 16.06V10.3707L6.75 7.87066ZM10.75 11.8707V16.06C10.75 16.7504 11.3096 17.31 12 17.31C12.6904 17.31 13.25 16.7504 13.25 16.06V14.3707L10.75 11.8707ZM18 4.31C18.4142 4.31 18.75 4.64578 18.75 5.06V14.06C18.75 14.4742 18.4142 14.81 18 14.81C17.5858 14.81 17.25 14.4742 17.25 14.06V5.06C17.25 4.64578 17.5858 4.31 18 4.31ZM9.25 6.06C9.25 5.64578 9.58579 5.31 10 5.31C10.4142 5.31 10.75 5.64578 10.75 6.06V6.56C10.75 6.97421 10.4142 7.31 10 7.31C9.58579 7.31 9.25 6.97421 9.25 6.56V6.06Z" fill="white"/>
</svg>
