<svg width="24" height="25" viewBox="0 0 24 25" fill="none" xmlns="http://www.w3.org/2000/svg">
<path fill-rule="evenodd" clip-rule="evenodd" d="M10 2.81C8.20507 2.81 6.75 4.26507 6.75 6.06V16.06C6.75 18.9595 9.10051 21.31 12 21.31C14.8995 21.31 17.25 18.9595 17.25 16.06V5.06C17.25 4.64578 17.5858 4.31 18 4.31C18.4142 4.31 18.75 4.64578 18.75 5.06V16.06C18.75 19.7879 15.7279 22.81 12 22.81C8.27208 22.81 5.25 19.7879 5.25 16.06V6.06C5.25 3.43664 7.37665 1.31 10 1.31C12.6234 1.31 14.75 3.43665 14.75 6.06V16.06C14.75 17.5788 13.5188 18.81 12 18.81C10.4812 18.81 9.25 17.5788 9.25 16.06V6.06C9.25 5.64578 9.58579 5.31 10 5.31C10.4142 5.31 10.75 5.64578 10.75 6.06V16.06C10.75 16.7504 11.3096 17.31 12 17.31C12.6904 17.31 13.25 16.7504 13.25 16.06V6.06C13.25 4.26507 11.7949 2.81 10 2.81Z" fill="white"/>
</svg>
