<svg width="24" height="25" viewBox="0 0 24 25" fill="none" xmlns="http://www.w3.org/2000/svg">
<path fill-rule="evenodd" clip-rule="evenodd" d="M17.1268 4.10504C15.8576 2.83584 13.7998 2.83584 12.5306 4.10504L5.45956 11.1761C3.40931 13.2264 3.40931 16.5505 5.45956 18.6007C7.50982 20.651 10.8339 20.651 12.8842 18.6007L20.6624 10.8226C20.9553 10.5297 21.4301 10.5297 21.723 10.8226C22.0159 11.1154 22.0159 11.5903 21.723 11.8832L13.9448 19.6614C11.3088 22.2974 7.03494 22.2974 4.3989 19.6614C1.76287 17.0254 1.76286 12.7515 4.3989 10.1154L11.47 3.04438C13.325 1.18939 16.3325 1.18939 18.1875 3.04438C20.0425 4.89937 20.0425 7.9069 18.1875 9.76189L11.1164 16.833C10.0425 17.9069 8.30127 17.9069 7.22733 16.833C6.15339 15.759 6.15339 14.0178 7.22733 12.9439L14.2984 5.87281C14.5913 5.57991 15.0662 5.57991 15.3591 5.87281C15.652 6.1657 15.652 6.64057 15.3591 6.93347L8.28799 14.0045C7.79984 14.4927 7.79984 15.2841 8.28799 15.7723C8.77615 16.2605 9.5676 16.2605 10.0558 15.7723L17.1268 8.70123C18.396 7.43203 18.396 5.37424 17.1268 4.10504Z" fill="white"/>
</svg>
