<svg width="24" height="25" viewBox="0 0 24 25" fill="none" xmlns="http://www.w3.org/2000/svg">
<path fill-rule="evenodd" clip-rule="evenodd" d="M0.999908 1.49023L1.49991 1.49017H1.50002L4.00002 1.49023C4.37325 1.49024 4.68968 1.76469 4.74246 2.13417L5.65047 8.49017H11.5754L14.3569 3.85436C14.4924 3.62846 14.7366 3.49023 15 3.49023H22C22.4142 3.49023 22.75 3.82602 22.75 4.24023V9.22603C22.7504 9.25119 22.7496 9.27657 22.7475 9.30209C22.7454 9.32758 22.742 9.3527 22.7375 9.3774L21.7398 15.3635C21.6795 15.7252 21.3666 15.9902 21 15.9902H6C5.63337 15.9902 5.32048 15.7252 5.2602 15.3635L4.2602 9.36347L4.25754 9.34624L3.34953 2.99022L1.50009 2.99017H1.49998L1.00009 2.99023C0.585878 2.99028 0.250051 2.65454 0.25 2.24033C0.249949 1.82611 0.585695 1.49028 0.999908 1.49023ZM21.1147 9.99017H13H12H5.88534L6.63535 14.4902H20.3647L21.1147 9.99017ZM7.75 20.2402C7.75 19.5498 8.30964 18.9902 9 18.9902C9.69036 18.9902 10.25 19.5498 10.25 20.2402C10.25 20.9305 9.69036 21.4902 9 21.4902C8.30964 21.4902 7.75 20.9305 7.75 20.2402ZM9 17.4902C7.48122 17.4902 6.25 18.7214 6.25 20.2402C6.25 21.759 7.48122 22.9902 9 22.9902C10.5188 22.9902 11.75 21.759 11.75 20.2402C11.75 18.7214 10.5188 17.4902 9 17.4902ZM17.75 20.2402C17.75 19.5498 18.3096 18.9902 19 18.9902C19.6904 18.9902 20.25 19.5498 20.25 20.2402C20.25 20.9305 19.6904 21.4902 19 21.4902C18.3096 21.4902 17.75 20.9305 17.75 20.2402ZM19 17.4902C17.4812 17.4902 16.25 18.7214 16.25 20.2402C16.25 21.759 17.4812 22.9902 19 22.9902C20.5188 22.9902 21.75 21.759 21.75 20.2402C21.75 18.7214 20.5188 17.4902 19 17.4902ZM13.3247 8.49017L15.4246 4.99023H21.25V8.49017H13.3247Z" fill="white"/>
</svg>
