<svg width="24" height="25" viewBox="0 0 24 25" fill="none" xmlns="http://www.w3.org/2000/svg">
<path fill-rule="evenodd" clip-rule="evenodd" d="M2 2.60938C1.58579 2.60938 1.25 2.94516 1.25 3.35938L1.25 21.3594C1.25 21.7736 1.58579 22.1094 2 22.1094L22 22.1094C22.4142 22.1094 22.75 21.7736 22.75 21.3594L22.75 3.35938C22.75 2.94516 22.4142 2.60938 22 2.60938L2 2.60938ZM2.75 20.6094L2.75 4.10938L21.25 4.10938L21.25 20.6094L2.75 20.6094ZM7.75 8.35938C7.75 7.94516 7.41421 7.60938 7 7.60938C6.58579 7.60938 6.25 7.94516 6.25 8.35938L6.25 16.3594C6.25 16.7736 6.58579 17.1094 7 17.1094C7.41421 17.1094 7.75 16.7736 7.75 16.3594L7.75 8.35938ZM12 10.6094C12.4142 10.6094 12.75 10.9452 12.75 11.3594L12.75 16.3594C12.75 16.7736 12.4142 17.1094 12 17.1094C11.5858 17.1094 11.25 16.7736 11.25 16.3594L11.25 11.3594C11.25 10.9452 11.5858 10.6094 12 10.6094ZM17.75 9.35938C17.75 8.94516 17.4142 8.60938 17 8.60938C16.5858 8.60938 16.25 8.94516 16.25 9.35938L16.25 16.3594C16.25 16.7736 16.5858 17.1094 17 17.1094C17.4142 17.1094 17.75 16.7736 17.75 16.3594L17.75 9.35938Z" fill="white"/>
</svg>
