<svg width="24" height="25" viewBox="0 0 24 25" fill="none" xmlns="http://www.w3.org/2000/svg">
<path fill-rule="evenodd" clip-rule="evenodd" d="M2 5.55005C1.58579 5.55005 1.25 5.88584 1.25 6.30005L1.25 18.3001C1.25 18.7143 1.58579 19.0501 2 19.0501L20 19.0501C20.4142 19.0501 20.75 18.7143 20.75 18.3001L20.75 16.05L22.5 16.05C22.9142 16.05 23.25 15.7143 23.25 15.3L23.25 9.30005C23.25 8.88584 22.9142 8.55005 22.5 8.55005L20.75 8.55005L20.75 6.30005C20.75 5.88584 20.4142 5.55005 20 5.55005L2 5.55005ZM19.25 9.30084C19.25 9.30058 19.25 9.30031 19.25 9.30005C19.25 9.29978 19.25 9.29952 19.25 9.29926L19.25 7.05005L2.75 7.05005L2.75 17.5501L19.25 17.5501L19.25 15.3L19.25 9.30084ZM20.75 14.55L20.75 10.05L21.75 10.05L21.75 14.55L20.75 14.55ZM6.75 10.3C6.75 9.88584 6.41421 9.55005 6 9.55005C5.58579 9.55005 5.25 9.88584 5.25 10.3L5.25 14.3C5.25 14.7143 5.58579 15.05 6 15.05C6.41421 15.05 6.75 14.7143 6.75 14.3L6.75 10.3ZM11 9.55005C11.4142 9.55005 11.75 9.88584 11.75 10.3L11.75 14.3C11.75 14.7143 11.4142 15.05 11 15.05C10.5858 15.05 10.25 14.7143 10.25 14.3L10.25 10.3C10.25 9.88584 10.5858 9.55005 11 9.55005Z" fill="white"/>
</svg>
