<svg width="24" height="25" viewBox="0 0 24 25" fill="none" xmlns="http://www.w3.org/2000/svg">
<path fill-rule="evenodd" clip-rule="evenodd" d="M3.53033 2.76972C3.23744 2.47683 2.76256 2.47683 2.46967 2.76972C2.17678 3.06261 2.17678 3.53749 2.46967 3.83038L4.18934 5.55005L2 5.55005C1.58579 5.55005 1.25 5.88584 1.25 6.30005L1.25 18.3C1.25 18.7143 1.58579 19.05 2 19.05L17.6893 19.05L20.4697 21.8304C20.7626 22.1233 21.2374 22.1233 21.5303 21.8304C21.8232 21.5375 21.8232 21.0626 21.5303 20.7697L18.5303 17.7697L6.53033 5.76972L3.53033 2.76972ZM2.75 7.05005L5.68934 7.05005L16.1893 17.55L2.75 17.55L2.75 7.05005ZM10 5.55005C9.58579 5.55005 9.25 5.88584 9.25 6.30005C9.25 6.71426 9.58579 7.05005 10 7.05005L19.25 7.05005L19.25 9.30005L19.25 15.3C19.25 15.3006 19.25 15.3012 19.25 15.3018L19.25 16.8C19.25 17.2143 19.5858 17.55 20 17.55C20.4142 17.55 20.75 17.2143 20.75 16.8L20.75 16.05L22.5 16.05C22.9142 16.05 23.25 15.7143 23.25 15.3L23.25 9.30005C23.25 8.88583 22.9142 8.55005 22.5 8.55005L20.75 8.55005L20.75 6.30005C20.75 5.88584 20.4142 5.55005 20 5.55005L10 5.55005ZM20.75 10.05L20.75 14.55L21.75 14.55L21.75 10.05L20.75 10.05Z" fill="white"/>
</svg>
