<svg width="24" height="25" viewBox="0 0 24 25" fill="none" xmlns="http://www.w3.org/2000/svg">
<path fill-rule="evenodd" clip-rule="evenodd" d="M11.7115 6.53718C11.8425 6.14422 11.6301 5.71948 11.2372 5.5885C10.8442 5.45751 10.4195 5.66988 10.2885 6.06284L8.28849 12.0628C8.21225 12.2916 8.2506 12.543 8.39157 12.7385C8.53253 12.9341 8.75892 13.05 9 13.05L11.9594 13.05L10.2885 18.0628C10.1575 18.4558 10.3699 18.8805 10.7628 19.0115C11.1558 19.1425 11.5805 18.9301 11.7115 18.5372L13.7115 12.5372C13.7877 12.3085 13.7494 12.0571 13.6084 11.8615C13.4675 11.6659 13.2411 11.55 13 11.55L10.0406 11.55L11.7115 6.53718ZM1.25 6.30001C1.25 5.8858 1.58579 5.55001 2 5.55001L6.5 5.55001L7 5.55001C7.41421 5.55001 7.75 5.8858 7.75 6.30001C7.75 6.71423 7.41421 7.05001 7 7.05001L6.5 7.05001L2.75 7.05001L2.75 17.55L6.5 17.55L7 17.55C7.41421 17.55 7.75 17.8858 7.75 18.3C7.75 18.7142 7.41421 19.05 7 19.05L6.5 19.05L2 19.05C1.58579 19.05 1.25 18.7142 1.25 18.3L1.25 6.30001ZM14.25 6.30001C14.25 5.8858 14.5858 5.55001 15 5.55001L15.5 5.55001L20 5.55001C20.4142 5.55001 20.75 5.8858 20.75 6.30001L20.75 8.55001L22.5 8.55001C22.9142 8.55001 23.25 8.8858 23.25 9.30001L23.25 15.3C23.25 15.7142 22.9142 16.05 22.5 16.05L20.75 16.05L20.75 18.3C20.75 18.7142 20.4142 19.05 20 19.05L15.5 19.05L15 19.05C14.5858 19.05 14.25 18.7142 14.25 18.3C14.25 17.8858 14.5858 17.55 15 17.55L15.5 17.55L19.25 17.55L19.25 15.3L19.25 9.30001L19.25 7.05001L15.5 7.05001L15 7.05001C14.5858 7.05001 14.25 6.71423 14.25 6.30001ZM20.75 14.55L20.75 10.05L21.75 10.05L21.75 14.55L20.75 14.55Z" fill="white"/>
</svg>
