<svg width="24" height="25" viewBox="0 0 24 25" fill="none" xmlns="http://www.w3.org/2000/svg">
<path fill-rule="evenodd" clip-rule="evenodd" d="M11.8088 21.06H11.7772H11.7772C10.4856 21.06 9.47525 21.06 8.70078 21.0052C7.93548 20.951 7.27557 20.8384 6.75941 20.5305C5.4056 19.7228 4.70143 18.1548 4.99722 16.6064C5.11 16.016 5.46426 15.448 5.9322 14.84C6.40574 14.2247 7.07692 13.4696 7.93499 12.5043L7.93501 12.5043L7.93504 12.5043L7.93505 12.5043L7.93507 12.5042L7.95606 12.4806C8.43937 11.9369 8.6211 11.7287 8.75966 11.506C8.98146 11.1494 9.13207 10.7533 9.20317 10.3394C9.24758 10.0809 9.25008 9.80483 9.25008 9.078V9.0717V9.06539V9.05908V9.05276V9.04643V9.04009V9.03375V9.02741V9.02105V9.0147V9.00833V9.00196V8.99558V8.9892V8.98281V8.97642V8.97002V8.96361V8.9572V8.95078V8.94435V8.93792V8.93149V8.92504V8.9186V8.91214V8.90568V8.89921V8.89274V8.88626V8.87978V8.87329V8.8668V8.8603V8.85379V8.84728V8.84076V8.83423V8.8277V8.82117V8.81462V8.80808V8.80153V8.79497V8.7884V8.78183V8.77526V8.76868V8.76209V8.7555V8.7489V8.74229V8.73569V8.72907V8.72245V8.71582V8.70919V8.70256V8.69591V8.68927V8.68261V8.67595V8.66929V8.66262V8.65594V8.64926V8.64258V8.63589V8.62919V8.62249V8.61578V8.60907V8.60235V8.59563V8.5889V8.58216V8.57542V8.56868V8.56193V8.55517V8.54841V8.54165V8.53488V8.5281V8.52132V8.51453V8.50774V8.50094V8.49414V8.48734V8.48052V8.47371V8.46688V8.46006V8.45322V8.44639V8.43954V8.4327V8.42584V8.41899V8.41212V8.40526V8.39838V8.39151V8.38462V8.37774V8.37084V8.36395V8.35704V8.35014V8.34322V8.33631V8.32939V8.32246V8.31553V8.30859V8.30165V8.29471V8.28776V8.2808V8.27384V8.26688V8.25991V8.25293V8.24595V8.23897V8.23198V8.22499V8.21799V8.21099V8.20398V8.19697V8.18995V8.18293V8.17591V8.16888V8.16184V8.15481V8.14776V8.14071V8.13366V8.1266V8.11954V8.11248V8.10541V8.09833V8.09125V8.08417V8.07708V8.06999V8.06289V8.05579V8.04868V8.04157V8.03446V8.02734V8.02022V8.01309V8.00596V7.99882V7.99168V7.98454V7.97739V7.97024V7.96308V7.95592V7.94875V7.94158V7.93441V7.92723V7.92005V7.91286V7.90567V7.89848V7.89128V7.88408V7.87687V7.86966V7.86244V7.85523V7.848V7.84078V7.83355V7.82631V7.81907V7.81183V7.80458V7.79733V7.79008V7.78282V7.77556V7.76829V7.76102V7.75374V7.74647V7.73918V7.7319V7.72461V7.71732V7.71002V7.70272V7.69541V7.6881V7.68079V7.67348V7.66616V7.65883V7.65151V7.64418V7.63684V7.6295V7.62216V7.61482V7.60747V7.60011V7.59276V7.5854V7.57804V7.57067V7.5633V7.55592V7.54855V7.54117V7.53378V7.52639V7.519V7.51161V7.50421V7.49681V7.4894V7.48199V7.47458V7.46716V7.45975V7.45232V7.4449V7.43747V7.43004V7.4226V7.41516V7.40772V7.40027V7.39283V7.38537V7.37792V7.37046V7.363V7.35553V7.34806V7.34059V7.33312V7.32564V7.31816V7.31068V7.30319V7.2957V7.28821V7.28071V7.27321V7.26571V7.2582V7.25069V7.24318V7.23567V7.22815V7.22063V7.2131V7.20558V7.19805V7.19051V7.18298V7.17544V7.1679V7.16036V7.15281V7.14526V7.1377V7.13015V7.12259V7.11503V7.10747V7.0999V7.09233V7.08476V7.07718V7.0696V7.06202V7.05444V7.04685V7.03926V7.03167V7.02408V7.01648V7.00888V7.00128V6.99367V6.98607V6.97846V6.97084V6.96323V6.95561V6.94799V6.94037V6.93274V6.92511V6.91748V6.90985V6.90221V6.89458V6.88693V6.87929V6.87165V6.864V6.85635V6.8487V6.84104V6.83338V6.82572V6.81806V6.8104V6.80273V6.79506V6.78739V6.77972V6.77204V6.76436V6.75668V6.749V6.74131V6.73363V6.72594V6.71825V6.71055V6.70286V6.69516V6.68746V6.67976V6.67205V6.66434V6.65664V6.64892V6.64121V6.6335V6.62578V6.61806V6.61034V6.60262V6.59489V6.58716V6.57944V6.5717V6.56397V6.55624V6.5485V6.54076V6.53302V6.52528V6.51753V6.50979V6.50204V6.49429V6.48654V6.47878V6.47103V6.46327V6.45551V6.44775V6.43999V6.43223V6.42446V6.41669V6.40892V6.40115V6.39338V6.3856V6.37783V6.37005V6.36227V6.35449V6.34671V6.33892V6.33114V6.32335V6.31556V6.30777V6.29998V6.29218V6.28439V6.27659V6.26879V6.26099V6.25319V6.24539V6.23759V6.22978V6.22198V6.21417V6.20636V6.19855V6.19073V6.18292V6.17511V6.16729V6.15947V6.15165V6.14383V6.13601V6.12819V6.12036V6.11254V6.10471V6.09688V6.08905V6.08122V6.07339V6.06556V6.05773V6.04989V6.04206V6.03422V6.02638V6.01854V6.0107V6.00286V5.99502V5.98717V5.97933V5.97148V5.96363V5.95579V5.94794V5.94009V5.93224V5.92439V5.91653V5.90868V5.90082V5.89297V5.88511V5.87726V5.8694V5.86154V5.85368V5.84582V5.83796V5.8301V5.82223V5.81437V5.8065V5.79864V5.79077V5.7829V5.77504V5.76717V5.7593V5.75143V5.74356V5.73569V5.72782V5.71994V5.71207V5.7042V5.69632V5.68845V5.68057V5.6727V5.66482V5.65694V5.64907V5.64119V5.63331V5.62543V5.61755V5.60967V5.60179V5.59391V5.58603V5.57815V5.57026V5.56238V5.5545V5.54661V5.53873V5.53085V5.52296V5.51508V5.50719V5.49931V5.49142V5.48354V5.47565V5.46776V5.45988V5.45199V5.4441V5.43621V5.42833V5.42044V5.41255V5.40466V5.39677V5.38889V5.381V5.37311V5.36522V5.35733V5.34944V5.34155V5.33366V5.32578V5.31789V5.31C9.25008 5.30472 9.24277 5.21691 9.08758 5.01C8.93831 4.81097 8.72956 4.60013 8.46975 4.34033C8.17686 4.04743 8.17686 3.57256 8.46975 3.27967C8.61621 3.13321 8.80817 3.05999 9.00012 3.06H15.0001C15.192 3.06 15.384 3.13322 15.5304 3.27967C15.8233 3.57256 15.8233 4.04743 15.5304 4.34033C15.3106 4.56012 15.2319 4.64109 15.1637 4.73231C15.0985 4.8197 15.0305 4.93413 14.8806 5.2283C14.8252 5.33695 14.7955 5.39566 14.7749 5.44127C14.7659 5.46128 14.7615 5.47265 14.7593 5.47866C14.7575 5.48388 14.7571 5.48567 14.757 5.48597L14.7568 5.48709L14.7559 5.49296C14.7551 5.49971 14.7538 5.51253 14.7527 5.53554C14.7503 5.58754 14.7501 5.65609 14.7501 5.7811V5.78679V5.79248V5.79818V5.80389V5.8096V5.81532V5.82104V5.82677V5.83251V5.83825V5.844V5.84976V5.85552V5.86129V5.86706V5.87285V5.87863V5.88443V5.89023V5.89603V5.90185V5.90766V5.91349V5.91932V5.92516V5.931V5.93685V5.9427V5.94856V5.95443V5.9603V5.96618V5.97206V5.97796V5.98385V5.98975V5.99566V6.00157V6.00749V6.01342V6.01935V6.02529V6.03123V6.03718V6.04313V6.04909V6.05505V6.06102V6.067V6.07298V6.07897V6.08496V6.09096V6.09696V6.10297V6.10898V6.115V6.12102V6.12705V6.13309V6.13913V6.14518V6.15123V6.15728V6.16334V6.16941V6.17548V6.18156V6.18764V6.19373V6.19982V6.20592V6.21202V6.21813V6.22424V6.23036V6.23648V6.24261V6.24874V6.25488V6.26102V6.26717V6.27332V6.27947V6.28563V6.2918V6.29797V6.30415V6.31033V6.31651V6.3227V6.3289V6.33509V6.3413V6.34751V6.35372V6.35993V6.36616V6.37238V6.37861V6.38485V6.39109V6.39733V6.40358V6.40983V6.41609V6.42235V6.42861V6.43488V6.44116V6.44744V6.45372V6.46V6.4663V6.47259V6.47889V6.48519V6.4915V6.49781V6.50413V6.51045V6.51677V6.5231V6.52943V6.53576V6.5421V6.54844V6.55479V6.56114V6.5675V6.57386V6.58022V6.58658V6.59295V6.59933V6.6057V6.61208V6.61847V6.62486V6.63125V6.63764V6.64404V6.65044V6.65685V6.66326V6.66967V6.67609V6.68251V6.68893V6.69536V6.70179V6.70822V6.71466V6.7211V6.72754V6.73399V6.74044V6.74689V6.75335V6.75981V6.76627V6.77274V6.77921V6.78568V6.79216V6.79864V6.80512V6.8116V6.81809V6.82458V6.83107V6.83757V6.84407V6.85057V6.85708V6.86358V6.8701V6.87661V6.88313V6.88964V6.89617V6.90269V6.90922V6.91575V6.92228V6.92882V6.93536V6.9419V6.94844V6.95499V6.96153V6.96808V6.97464V6.98119V6.98775V6.99431V7.00088V7.00744V7.01401V7.02058V7.02715V7.03373V7.04031V7.04688V7.05347V7.06005V7.06664V7.07323V7.07981V7.08641V7.093V7.0996V7.1062V7.1128V7.1194V7.12601V7.13262V7.13922V7.14583V7.15245V7.15906V7.16568V7.1723V7.17892V7.18554V7.19216V7.19879V7.20542V7.21205V7.21868V7.22531V7.23195V7.23858V7.24522V7.25186V7.2585V7.26514V7.27179V7.27843V7.28508V7.29173V7.29838V7.30503V7.31168V7.31834V7.32499V7.33165V7.33831V7.34497V7.35163V7.35829V7.36495V7.37162V7.37828V7.38495V7.39162V7.39829V7.40496V7.41163V7.4183V7.42498V7.43165V7.43833V7.44501V7.45168V7.45836V7.46504V7.47172V7.4784V7.48509V7.49177V7.49845V7.50514V7.51182V7.51851V7.5252V7.53189V7.53858V7.54526V7.55195V7.55864V7.56534V7.57203V7.57872V7.58541V7.59211V7.5988V7.6055V7.61219V7.61889V7.62558V7.63228V7.63897V7.64567V7.65237V7.65907V7.66576V7.67246V7.67916V7.68586V7.69256V7.69926V7.70596V7.71266V7.71936V7.72606V7.73276V7.73946V7.74616V7.75286V7.75956V7.76626V7.77296V7.77966V7.78636V7.79305V7.79975V7.80645V7.81315V7.81985V7.82655V7.83325V7.83995V7.84665V7.85334V7.86004V7.86674V7.87344V7.88013V7.88683V7.89352V7.90022V7.90691V7.91361V7.9203V7.927V7.93369V7.94038V7.94707V7.95376V7.96045V7.96714V7.97383V7.98052V7.98721V7.99389V8.00058V8.00727V8.01395V8.02063V8.02732V8.034V8.04068V8.04736V8.05404V8.06072V8.06739V8.07407V8.08075V8.08742V8.09409V8.10077V8.10744V8.11411V8.12078V8.12744V8.13411V8.14077V8.14744V8.1541V8.16076V8.16742V8.17408V8.18074V8.1874V8.19405V8.20071V8.20736V8.21401V8.22066V8.22731V8.23395V8.2406V8.24724V8.25388V8.26052V8.26716V8.2738V8.28043V8.28707V8.2937V8.30033V8.30696V8.31358V8.32021V8.32683V8.33345V8.34007V8.34669V8.3533V8.35992V8.36653V8.37314V8.37975V8.38635V8.39296V8.39956V8.40616V8.41276V8.41935V8.42595V8.43254V8.43913V8.44572V8.4523V8.45888V8.46546V8.47204V8.47862V8.48519V8.49176V8.49833V8.5049V8.51146V8.51803V8.52458V8.53114V8.5377V8.54425V8.5508V8.55735V8.56389V8.57043V8.57697V8.58351V8.59004V8.59657V8.6031V8.60963V8.61615V8.62267V8.62919V8.6357V8.64222V8.64873V8.65523V8.66174V8.66824V8.67474V8.68123V8.68772V8.69421V8.7007V8.70718V8.71366V8.72014V8.72661V8.73308V8.73955V8.74601V8.75247V8.75893V8.76539V8.77184V8.77829V8.78473V8.79117V8.79761V8.80405V8.81048V8.81691V8.82333V8.82975V8.83617V8.84259V8.849V8.85541V8.86181V8.86821V8.87461V8.881V8.88739V8.89378V8.90016V8.90654V8.91291V8.91928V8.92565V8.93202V8.93838V8.94473V8.95109V8.95743V8.96378V8.97012V8.97646V8.98279V8.98912V8.99545V9.00177V9.00808V9.0144V9.02071V9.02701V9.03331V9.03961V9.0459V9.05219V9.05847V9.06475V9.07103V9.0773C14.7501 9.80462 14.7526 10.0809 14.797 10.3394C14.8681 10.7533 15.0187 11.1494 15.2405 11.506C15.3791 11.7287 15.5608 11.9369 16.0441 12.4806L16.0651 12.5043L16.0653 12.5044C16.9233 13.4697 17.5944 14.2247 18.068 14.84C18.5359 15.448 18.8902 16.016 19.0029 16.6064C19.2987 18.1548 18.5946 19.7228 17.2408 20.5305C16.7246 20.8384 16.0647 20.951 15.2994 21.0052C14.5249 21.06 13.5146 21.06 12.223 21.06H12.223H12.1914H11.8088ZM13.5376 4.56H10.567C10.6733 4.77954 10.7501 5.03171 10.7501 5.31V5.31789V5.32578V5.33366V5.34155V5.34944V5.35733V5.36522V5.37311V5.381V5.38889V5.39677V5.40466V5.41255V5.42044V5.42833V5.43621V5.4441V5.45199V5.45988V5.46776V5.47565V5.48354V5.49142V5.49931V5.50719V5.51508V5.52296V5.53085V5.53873V5.54661V5.5545V5.56238V5.57026V5.57815V5.58603V5.59391V5.60179V5.60967V5.61755V5.62543V5.63331V5.64119V5.64907V5.65694V5.66482V5.6727V5.68057V5.68845V5.69632V5.7042V5.71207V5.71994V5.72782V5.73569V5.74356V5.75143V5.7593V5.76717V5.77504V5.7829V5.79077V5.79864V5.8065V5.81437V5.82223V5.8301V5.83796V5.84582V5.85368V5.86154V5.8694V5.87726V5.88511V5.89297V5.90082V5.90868V5.91653V5.92439V5.93224V5.94009V5.94794V5.95579V5.96363V5.97148V5.97933V5.98717V5.99502V6.00286V6.0107V6.01854V6.02638V6.03422V6.04206V6.04989V6.05773V6.06556V6.07339V6.08122V6.08905V6.09688V6.10471V6.11254V6.12036V6.12819V6.13601V6.14383V6.15165V6.15947V6.16729V6.17511V6.18292V6.19073V6.19855V6.20636V6.21417V6.22198V6.22978V6.23759V6.24539V6.25319V6.26099V6.26879V6.27659V6.28439V6.29218V6.29998V6.30777V6.31556V6.32335V6.33114V6.33892V6.34671V6.35449V6.36227V6.37005V6.37783V6.3856V6.39338V6.40115V6.40892V6.41669V6.42446V6.43223V6.43999V6.44775V6.45551V6.46327V6.47103V6.47878V6.48654V6.49429V6.50204V6.50979V6.51753V6.52528V6.53302V6.54076V6.5485V6.55624V6.56397V6.5717V6.57944V6.58716V6.59489V6.60262V6.61034V6.61806V6.62578V6.6335V6.64121V6.64892V6.65664V6.66434V6.67205V6.67976V6.68746V6.69516V6.70286V6.71055V6.71825V6.72594V6.73363V6.74131V6.749V6.75668V6.76436V6.77204V6.77972V6.78739V6.79506V6.80273V6.8104V6.81806V6.82572V6.83338V6.84104V6.8487V6.85635V6.864V6.87165V6.87929V6.88693V6.89458V6.90221V6.90985V6.91748V6.92511V6.93274V6.94037V6.94799V6.95561V6.96323V6.97084V6.97846V6.98607V6.99367V7.00128V7.00888V7.01648V7.02408V7.03167V7.03926V7.04685V7.05444V7.06202V7.0696V7.07718V7.08476V7.09233V7.0999V7.10747V7.11503V7.12259V7.13015V7.1377V7.14526V7.15281V7.16036V7.1679V7.17544V7.18298V7.19051V7.19805V7.20558V7.2131V7.22063V7.22815V7.23567V7.24318V7.25069V7.2582V7.26571V7.27321V7.28071V7.28821V7.2957V7.30319V7.31068V7.31816V7.32564V7.33312V7.34059V7.34806V7.35553V7.363V7.37046V7.37792V7.38537V7.39283V7.40027V7.40772V7.41516V7.4226V7.43004V7.43747V7.4449V7.45232V7.45975V7.46716V7.47458V7.48199V7.4894V7.49681V7.50421V7.51161V7.519V7.52639V7.53378V7.54117V7.54855V7.55592V7.5633V7.57067V7.57804V7.5854V7.59276V7.60011V7.60747V7.61482V7.62216V7.6295V7.63684V7.64418V7.65151V7.65883V7.66616V7.67348V7.68079V7.6881V7.69541V7.70272V7.71002V7.71732V7.72461V7.7319V7.73918V7.74647V7.75374V7.76102V7.76829V7.77556V7.78282V7.79008V7.79733V7.80458V7.81H13.2501V7.80645V7.79975V7.79305V7.78636V7.77966V7.77296V7.76626V7.75956V7.75286V7.74616V7.73946V7.73276V7.72606V7.71936V7.71266V7.70596V7.69926V7.69256V7.68586V7.67916V7.67246V7.66576V7.65907V7.65237V7.64567V7.63897V7.63228V7.62558V7.61889V7.61219V7.6055V7.5988V7.59211V7.58541V7.57872V7.57203V7.56534V7.55864V7.55195V7.54526V7.53858V7.53189V7.5252V7.51851V7.51182V7.50514V7.49845V7.49177V7.48509V7.4784V7.47172V7.46504V7.45836V7.45168V7.44501V7.43833V7.43165V7.42498V7.4183V7.41163V7.40496V7.39829V7.39162V7.38495V7.37828V7.37162V7.36495V7.35829V7.35163V7.34497V7.33831V7.33165V7.32499V7.31834V7.31168V7.30503V7.29838V7.29173V7.28508V7.27843V7.27179V7.26514V7.2585V7.25186V7.24522V7.23858V7.23195V7.22531V7.21868V7.21205V7.20542V7.19879V7.19216V7.18554V7.17892V7.1723V7.16568V7.15906V7.15245V7.14583V7.13922V7.13262V7.12601V7.1194V7.1128V7.1062V7.0996V7.093V7.08641V7.07981V7.07323V7.06664V7.06005V7.05347V7.04688V7.04031V7.03373V7.02715V7.02058V7.01401V7.00744V7.00088V6.99431V6.98775V6.98119V6.97464V6.96808V6.96153V6.95499V6.94844V6.9419V6.93536V6.92882V6.92228V6.91575V6.90922V6.90269V6.89617V6.88964V6.88313V6.87661V6.8701V6.86358V6.85708V6.85057V6.84407V6.83757V6.83107V6.82458V6.81809V6.8116V6.80512V6.79864V6.79216V6.78568V6.77921V6.77274V6.76627V6.75981V6.75335V6.74689V6.74044V6.73399V6.72754V6.7211V6.71466V6.70822V6.70179V6.69536V6.68893V6.68251V6.67609V6.66967V6.66326V6.65685V6.65044V6.64404V6.63764V6.63125V6.62486V6.61847V6.61208V6.6057V6.59933V6.59295V6.58658V6.58022V6.57386V6.5675V6.56114V6.55479V6.54844V6.5421V6.53576V6.52943V6.5231V6.51677V6.51045V6.50413V6.49781V6.4915V6.48519V6.47889V6.47259V6.4663V6.46V6.45372V6.44744V6.44116V6.43488V6.42861V6.42235V6.41609V6.40983V6.40358V6.39733V6.39109V6.38485V6.37861V6.37238V6.36616V6.35993V6.35372V6.34751V6.3413V6.33509V6.3289V6.3227V6.31651V6.31033V6.30415V6.29797V6.2918V6.28563V6.27947V6.27332V6.26717V6.26102V6.25488V6.24874V6.24261V6.23648V6.23036V6.22424V6.21813V6.21202V6.20592V6.19982V6.19373V6.18764V6.18156V6.17548V6.16941V6.16334V6.15728V6.15123V6.14518V6.13913V6.13309V6.12705V6.12102V6.115V6.10898V6.10297V6.09696V6.09096V6.08496V6.07897V6.07298V6.067V6.06102V6.05505V6.04909V6.04313V6.03718V6.03123V6.02529V6.01935V6.01342V6.00749V6.00157V5.99566V5.98975V5.98385V5.97796V5.97206V5.96618V5.9603V5.95443V5.94856V5.9427V5.93685V5.931V5.92516V5.91932V5.91349V5.90766V5.90185V5.89603V5.89023V5.88443V5.87863V5.87285V5.86706V5.86129V5.85552V5.84976V5.844V5.83825V5.83251V5.82677V5.82104V5.81532V5.8096V5.80389V5.79818V5.79248V5.78679V5.7811L13.25 5.7352C13.2497 5.54494 13.2493 5.34022 13.2985 5.13569C13.3476 4.93127 13.4392 4.75218 13.5241 4.58641L13.5376 4.56ZM13.2501 9.31C13.2505 9.85572 13.2561 10.2292 13.3187 10.5934C13.4226 11.1982 13.6427 11.7772 13.9669 12.2983C14.1812 12.6429 14.4544 12.9502 14.8785 13.4271L14.923 13.4772C15.8065 14.4712 16.442 15.1868 16.8793 15.7549C17.326 16.3353 17.4872 16.666 17.5296 16.8878C17.7071 17.8169 17.2846 18.7577 16.4723 19.2423C16.2783 19.358 15.924 19.4572 15.1935 19.5089C14.4784 19.5595 13.5213 19.56 12.1914 19.56H11.8088C10.4788 19.56 9.5218 19.5595 8.80671 19.5089C8.07615 19.4572 7.72183 19.358 7.52789 19.2423C6.71561 18.7577 6.2931 17.8169 6.47058 16.8878C6.51295 16.666 6.67419 16.3353 7.12089 15.7549C7.55813 15.1868 8.19362 14.4712 9.07718 13.4772L9.12164 13.4272L9.12165 13.4271L9.12166 13.4271L9.12167 13.4271L9.12168 13.4271L9.12169 13.4271C9.54576 12.9501 9.81894 12.6429 10.0333 12.2983C10.3575 11.7772 10.5776 11.1982 10.6815 10.5934C10.7441 10.2291 10.7496 9.85567 10.7501 9.31H13.2501ZM9.00012 18.31C9.55241 18.31 10.0001 17.8623 10.0001 17.31C10.0001 16.7577 9.55241 16.31 9.00012 16.31C8.44784 16.31 8.00012 16.7577 8.00012 17.31C8.00012 17.8623 8.44784 18.31 9.00012 18.31ZM16.0001 17.31C16.0001 17.8623 15.5524 18.31 15.0001 18.31C14.4478 18.31 14.0001 17.8623 14.0001 17.31C14.0001 16.7577 14.4478 16.31 15.0001 16.31C15.5524 16.31 16.0001 16.7577 16.0001 17.31ZM12.0001 15.31C12.5524 15.31 13.0001 14.8623 13.0001 14.31C13.0001 13.7577 12.5524 13.31 12.0001 13.31C11.4478 13.31 11.0001 13.7577 11.0001 14.31C11.0001 14.8623 11.4478 15.31 12.0001 15.31Z" fill="white"/>
</svg>
