<svg width="24" height="25" viewBox="0 0 24 25" fill="none" xmlns="http://www.w3.org/2000/svg">
<path fill-rule="evenodd" clip-rule="evenodd" d="M2 4.95996C2.41421 4.95996 2.75 5.29575 2.75 5.70996V12.96H11.25V7.70996C11.25 7.29575 11.5858 6.95996 12 6.95996H22C22.4142 6.95996 22.75 7.29575 22.75 7.70996V13.71V19.71C22.75 20.1242 22.4142 20.46 22 20.46C21.5858 20.46 21.25 20.1242 21.25 19.71V14.46H12H2.75V19.71C2.75 20.1242 2.41421 20.46 2 20.46C1.58579 20.46 1.25 20.1242 1.25 19.71V13.71V5.70996C1.25 5.29575 1.58579 4.95996 2 4.95996ZM21.25 12.96H12.75V8.45996H21.25V12.96ZM5.75 8.70996C5.75 8.01961 6.30964 7.45996 7 7.45996C7.69036 7.45996 8.25 8.01961 8.25 8.70996C8.25 9.40032 7.69036 9.95996 7 9.95996C6.30964 9.95996 5.75 9.40032 5.75 8.70996ZM7 5.95996C5.48122 5.95996 4.25 7.19118 4.25 8.70996C4.25 10.2287 5.48122 11.46 7 11.46C8.51878 11.46 9.75 10.2287 9.75 8.70996C9.75 7.19118 8.51878 5.95996 7 5.95996Z" fill="white"/>
</svg>
