<svg width="24" height="25" viewBox="0 0 24 25" fill="none" xmlns="http://www.w3.org/2000/svg">
<path fill-rule="evenodd" clip-rule="evenodd" d="M4 3.95996C3.58579 3.95996 3.25 4.29575 3.25 4.70996V11.96H2C1.58579 11.96 1.25 12.2957 1.25 12.71V15.71V17.71V21.71C1.25 22.1242 1.58579 22.46 2 22.46C2.41421 22.46 2.75 22.1242 2.75 21.71V18.46H21.25V21.71C21.25 22.1242 21.5858 22.46 22 22.46C22.4142 22.46 22.75 22.1242 22.75 21.71V17.71V15.71V12.71C22.75 12.2957 22.4142 11.96 22 11.96H20.75V4.70996C20.75 4.29575 20.4142 3.95996 20 3.95996H4ZM19.25 11.96V5.45996H4.75V11.96H6.25V8.70996C6.25 8.29575 6.58579 7.95996 7 7.95996L11.25 7.95996H12.75L17 7.95996C17.4142 7.95996 17.75 8.29575 17.75 8.70996V11.96H19.25ZM16.25 11.96V9.45996H12.75V11.96H14.4H16H16.25ZM11.25 11.96V9.45996H7.75V11.96H8H9.6H11.25ZM21.25 16.96V15.71V13.46H20H17H16H14.4L12.75 13.46H11.25L9.6 13.46H8H7H4H2.75V15.71V16.96H21.25Z" fill="white"/>
</svg>
