<svg width="24" height="25" viewBox="0 0 24 25" fill="none" xmlns="http://www.w3.org/2000/svg">
<path fill-rule="evenodd" clip-rule="evenodd" d="M2 3.95996C1.58579 3.95996 1.25 4.29575 1.25 4.70996V20.71C1.25 21.1242 1.58579 21.46 2 21.46H7C7.28408 21.46 7.54378 21.2995 7.67082 21.0454L9.46353 17.46H14.5365L16.3292 21.0454C16.4562 21.2995 16.7159 21.46 17 21.46H22C22.4142 21.46 22.75 21.1242 22.75 20.71V4.70996C22.75 4.29575 22.4142 3.95996 22 3.95996H2ZM2.75 11.96V5.45996H21.25V11.96H18.75V8.70996C18.75 8.29575 18.4142 7.95996 18 7.95996H12H6C5.58579 7.95996 5.25 8.29575 5.25 8.70996V11.96H2.75ZM12.75 9.45996V11.96H17.25V9.45996H12.75ZM11.25 9.45996H6.75V11.96H11.25V9.45996ZM12 13.46H6H2.75V19.96H6.53647L8.32918 16.3746C8.45622 16.1205 8.71592 15.96 9 15.96H15C15.2841 15.96 15.5438 16.1205 15.6708 16.3746L17.4635 19.96H21.25V13.46H18H12Z" fill="white"/>
</svg>
