<svg width="24" height="25" viewBox="0 0 24 25" fill="none" xmlns="http://www.w3.org/2000/svg">
<path fill-rule="evenodd" clip-rule="evenodd" d="M11.6949 2.43488C11.9654 2.31439 12.2816 2.3644 12.5017 2.56254L17.5017 7.06254C17.6598 7.20477 17.75 7.40739 17.75 7.62001C17.75 7.83262 17.6598 8.03525 17.5017 8.17748L13.1211 12.12L17.5017 16.0625C17.6598 16.2048 17.75 16.4074 17.75 16.62C17.75 16.8326 17.6598 17.0352 17.5017 17.1775L12.5017 21.6775C12.2816 21.8756 11.9654 21.9256 11.6949 21.8051C11.4243 21.6846 11.25 21.4162 11.25 21.12V13.9307L7.53033 17.6503C7.23744 17.9432 6.76256 17.9432 6.46967 17.6503C6.17678 17.3574 6.17678 16.8826 6.46967 16.5897L10.9393 12.12L6.46967 7.65034C6.17678 7.35745 6.17678 6.88257 6.46967 6.58968C6.76256 6.29679 7.23744 6.29679 7.53033 6.58968L11.25 10.3093V3.12001C11.25 2.82383 11.4243 2.55538 11.6949 2.43488ZM12.75 13.804V19.436L15.8789 16.62L12.75 13.804ZM12.75 10.436V4.80403L15.8789 7.62001L12.75 10.436Z" fill="white"/>
</svg>
