<svg width="24" height="25" viewBox="0 0 24 25" fill="none" xmlns="http://www.w3.org/2000/svg">
<path fill-rule="evenodd" clip-rule="evenodd" d="M2 2.84009C1.58579 2.84009 1.25 3.17587 1.25 3.59009V21.5901C1.25 22.0043 1.58579 22.3401 2 22.3401H16C16.4142 22.3401 16.75 22.0043 16.75 21.5901V3.59009C16.75 3.17587 16.4142 2.84009 16 2.84009H2ZM2.75 20.8401V4.34009H15.25V20.8401H2.75ZM6 6.84009C5.58579 6.84009 5.25 7.17587 5.25 7.59009C5.25 8.0043 5.58579 8.34009 6 8.34009H12C12.4142 8.34009 12.75 8.0043 12.75 7.59009C12.75 7.17587 12.4142 6.84009 12 6.84009H6ZM5.25 11.5901C5.25 11.1759 5.58579 10.8401 6 10.8401H10C10.4142 10.8401 10.75 11.1759 10.75 11.5901C10.75 12.0043 10.4142 12.3401 10 12.3401H6C5.58579 12.3401 5.25 12.0043 5.25 11.5901ZM6 14.8401C5.58579 14.8401 5.25 15.1759 5.25 15.5901C5.25 16.0043 5.58579 16.3401 6 16.3401H8C8.41421 16.3401 8.75 16.0043 8.75 15.5901C8.75 15.1759 8.41421 14.8401 8 14.8401H6ZM19 5.84009C19.4142 5.84009 19.75 6.17587 19.75 6.59009V18.5901C19.75 19.0043 19.4142 19.3401 19 19.3401C18.5858 19.3401 18.25 19.0043 18.25 18.5901V6.59009C18.25 6.17587 18.5858 5.84009 19 5.84009ZM22.75 8.59009C22.75 8.17587 22.4142 7.84009 22 7.84009C21.5858 7.84009 21.25 8.17587 21.25 8.59009V16.5901C21.25 17.0043 21.5858 17.3401 22 17.3401C22.4142 17.3401 22.75 17.0043 22.75 16.5901V8.59009Z" fill="white"/>
</svg>
