<svg width="24" height="25" viewBox="0 0 24 25" fill="none" xmlns="http://www.w3.org/2000/svg">
<path fill-rule="evenodd" clip-rule="evenodd" d="M4.25 3.59009C4.25 3.17587 4.58579 2.84009 5 2.84009H19C19.4142 2.84009 19.75 3.17587 19.75 3.59009V16.5901V17.0901V21.5901C19.75 22.0043 19.4142 22.3401 19 22.3401H5C4.58579 22.3401 4.25 22.0043 4.25 21.5901V19.0901V16.5901V3.59009ZM5.75 17.3401V19.0901V20.8401H18.25V17.3401H5.75ZM5.75 15.8401V4.34009H18.25V15.8401H5.75ZM8.25 7.59009C8.25 7.17587 8.58579 6.84009 9 6.84009H15C15.4142 6.84009 15.75 7.17587 15.75 7.59009C15.75 8.0043 15.4142 8.34009 15 8.34009H9C8.58579 8.34009 8.25 8.0043 8.25 7.59009Z" fill="white"/>
</svg>
