<svg width="24" height="25" viewBox="0 0 24 25" fill="none" xmlns="http://www.w3.org/2000/svg">
<path fill-rule="evenodd" clip-rule="evenodd" d="M1.46967 1.52967C1.76256 1.23677 2.23744 1.23677 2.53033 1.52967L4.25 3.24934V3.06C4.25 2.64578 4.58579 2.31 5 2.31H19C19.4142 2.31 19.75 2.64578 19.75 3.06V18.7493L22.5303 21.5297C22.8232 21.8226 22.8232 22.2974 22.5303 22.5903C22.2374 22.8832 21.7626 22.8832 21.4697 22.5903L18.4697 19.5903L4.46967 5.59033L1.46967 2.59033C1.17678 2.29743 1.17678 1.82256 1.46967 1.52967ZM18.25 17.2493V3.81H5.75V4.74934L18.25 17.2493ZM5.75 19.7676V9.06C5.75 8.64578 5.41421 8.31 5 8.31C4.58579 8.31 4.25 8.64578 4.25 9.06V21.06C4.25 21.3274 4.39232 21.5745 4.62355 21.7087C4.85479 21.8429 5.13998 21.8438 5.3721 21.7112L12.3721 17.7112C12.7317 17.5057 12.8567 17.0475 12.6512 16.6879C12.4457 16.3283 11.9875 16.2033 11.6279 16.4088L5.75 19.7676Z" fill="white"/>
</svg>
