<svg width="24" height="25" viewBox="0 0 24 25" fill="none" xmlns="http://www.w3.org/2000/svg">
<path fill-rule="evenodd" clip-rule="evenodd" d="M7 0.309998C6.58579 0.309998 6.25 0.645784 6.25 1.06V3.31H4C3.58579 3.31 3.25 3.64578 3.25 4.06V22.06C3.25 22.3274 3.39232 22.5745 3.62356 22.7087C3.85479 22.8429 4.13998 22.8438 4.3721 22.7112L11 18.9238L17.6279 22.7112C17.86 22.8438 18.1452 22.8429 18.3764 22.7087C18.6077 22.5745 18.75 22.3274 18.75 22.06V4.06C18.75 3.64578 18.4142 3.31 18 3.31H7.75V1.81H20.25V19.06C20.25 19.4742 20.5858 19.81 21 19.81C21.4142 19.81 21.75 19.4742 21.75 19.06V1.06C21.75 0.645784 21.4142 0.309998 21 0.309998H7ZM7 4.81H4.75V20.7676L10.6279 17.4088C10.8585 17.2771 11.1415 17.2771 11.3721 17.4088L17.25 20.7676V4.81H7Z" fill="white"/>
</svg>
