<svg width="24" height="25" viewBox="0 0 24 25" fill="none" xmlns="http://www.w3.org/2000/svg">
<path fill-rule="evenodd" clip-rule="evenodd" d="M5 2.31C4.58579 2.31 4.25 2.64578 4.25 3.06V21.06C4.25 21.3274 4.39232 21.5745 4.62356 21.7087C4.85479 21.8429 5.13998 21.8438 5.3721 21.7112L12 17.9238L18.6279 21.7112C18.86 21.8438 19.1452 21.8429 19.3764 21.7087C19.6077 21.5745 19.75 21.3274 19.75 21.06V3.06C19.75 2.64578 19.4142 2.31 19 2.31H5ZM5.75 19.7676V3.81H18.25V19.7676L12.3721 16.4088C12.1415 16.2771 11.8585 16.2771 11.6279 16.4088L5.75 19.7676ZM16.0303 8.59033C16.3232 8.29743 16.3232 7.82256 16.0303 7.52967C15.7374 7.23677 15.2626 7.23677 14.9697 7.52967L11 11.4993L9.53033 10.0297C9.23744 9.73677 8.76256 9.73677 8.46967 10.0297C8.17678 10.3226 8.17678 10.7974 8.46967 11.0903L10.4697 13.0903C10.7626 13.3832 11.2374 13.3832 11.5303 13.0903L16.0303 8.59033Z" fill="white"/>
</svg>
