<svg width="24" height="25" viewBox="0 0 24 25" fill="none" xmlns="http://www.w3.org/2000/svg">
<path fill-rule="evenodd" clip-rule="evenodd" d="M5 2.84009C4.58579 2.84009 4.25 3.17587 4.25 3.59009V5.84009H2C1.58579 5.84009 1.25 6.17587 1.25 6.59009V18.5901C1.25 19.0043 1.58579 19.3401 2 19.3401H4.25V21.5901C4.25 22.0043 4.58579 22.3401 5 22.3401H19C19.4142 22.3401 19.75 22.0043 19.75 21.5901V19.3401H22C22.4142 19.3401 22.75 19.0043 22.75 18.5901V6.59009C22.75 6.17587 22.4142 5.84009 22 5.84009H19.75V3.59009C19.75 3.17587 19.4142 2.84009 19 2.84009H5ZM18.25 6.59009V4.34009H5.75V6.59009V18.5901V20.8401H18.25V18.5901V6.59009ZM19.75 17.8401V7.34009H21.25V17.8401H19.75ZM2.75 7.34009H4.25V17.8401H2.75V7.34009ZM9 6.84009C8.58579 6.84009 8.25 7.17587 8.25 7.59009C8.25 8.0043 8.58579 8.34009 9 8.34009H15C15.4142 8.34009 15.75 8.0043 15.75 7.59009C15.75 7.17587 15.4142 6.84009 15 6.84009H9ZM8.25 11.5901C8.25 11.1759 8.58579 10.8401 9 10.8401H13C13.4142 10.8401 13.75 11.1759 13.75 11.5901C13.75 12.0043 13.4142 12.3401 13 12.3401H9C8.58579 12.3401 8.25 12.0043 8.25 11.5901ZM9 14.8401C8.58579 14.8401 8.25 15.1759 8.25 15.5901C8.25 16.0043 8.58579 16.3401 9 16.3401H11C11.4142 16.3401 11.75 16.0043 11.75 15.5901C11.75 15.1759 11.4142 14.8401 11 14.8401H9Z" fill="white"/>
</svg>
