<svg width="24" height="25" viewBox="0 0 24 25" fill="none" xmlns="http://www.w3.org/2000/svg">
<path fill-rule="evenodd" clip-rule="evenodd" d="M21 2.84009H20.945C18.991 2.84007 17.4326 2.84005 15.9908 3.10219C14.6356 3.34859 13.3992 3.82172 12 4.69713C10.6008 3.82172 9.36438 3.34859 8.00916 3.10219C6.56741 2.84005 5.00897 2.84007 3.05503 2.84009H3.05502H3C2.80109 2.84009 2.61032 2.91911 2.46967 3.05976C2.32902 3.20041 2.25 3.39118 2.25 3.59009V15.5901C2.25 16.0043 2.58579 16.3401 3 16.3401C5.02025 16.3401 6.4461 16.3426 7.74084 16.578C9.0029 16.8075 10.1582 17.2636 11.584 18.2141C11.8359 18.3821 12.1641 18.3821 12.416 18.2141C13.8418 17.2636 14.9971 16.8075 16.2592 16.578C17.5539 16.3426 18.9798 16.3401 21 16.3401C21.4142 16.3401 21.75 16.0043 21.75 15.5901V3.59009C21.75 3.17588 21.4142 2.84009 21 2.84009ZM7.74084 4.57799C8.90291 4.78928 9.97448 5.19276 11.25 5.99738V16.2578C10.1465 15.6569 9.11756 15.3037 8.00916 15.1022C6.74252 14.8719 5.38582 14.8439 3.75 14.8405V4.3407C5.38435 4.34457 6.6124 4.37282 7.74084 4.57799ZM15.9908 15.1022C14.8824 15.3037 13.8535 15.6569 12.75 16.2578V5.99738C14.0255 5.19276 15.0971 4.78928 16.2592 4.57799C17.3876 4.37282 18.6156 4.34457 20.25 4.3407V14.8405C18.6142 14.8439 17.2575 14.8719 15.9908 15.1022ZM3 18.3401C2.58579 18.3401 2.25 18.6759 2.25 19.0901C2.25 19.5043 2.58579 19.8401 3 19.8401C4.97377 19.8401 6.39687 19.9644 7.67766 20.3137C8.95056 20.6608 10.1262 21.2423 11.584 22.2141C11.8359 22.3821 12.1641 22.3821 12.416 22.2141C13.8738 21.2423 15.0494 20.6608 16.3223 20.3137C17.6031 19.9644 19.0262 19.8401 21 19.8401C21.4142 19.8401 21.75 19.5043 21.75 19.0901C21.75 18.6759 21.4142 18.3401 21 18.3401C18.9738 18.3401 17.3969 18.4658 15.9277 18.8665C14.585 19.2327 13.3686 19.8184 12 20.6941C10.6314 19.8184 9.41499 19.2327 8.07234 18.8665C6.60313 18.4658 5.02623 18.3401 3 18.3401Z" fill="white"/>
</svg>
