<svg width="24" height="25" viewBox="0 0 24 25" fill="none" xmlns="http://www.w3.org/2000/svg">
<path fill-rule="evenodd" clip-rule="evenodd" d="M4.25 3.06C4.25 2.64578 4.58579 2.31 5 2.31H19C19.4142 2.31 19.75 2.64578 19.75 3.06V21.06C19.75 21.3274 19.6077 21.5745 19.3764 21.7087C19.1452 21.8429 18.86 21.8438 18.6279 21.7112L12 17.9238L5.3721 21.7112C5.13998 21.8438 4.85479 21.8429 4.62356 21.7087C4.39232 21.5745 4.25 21.3274 4.25 21.06V3.06ZM5.75 3.81V19.7676L11.6279 16.4088C11.8585 16.2771 12.1415 16.2771 12.3721 16.4088L18.25 19.7676V3.81H5.75Z" fill="white"/>
</svg>
