<svg width="24" height="25" viewBox="0 0 24 25" fill="none" xmlns="http://www.w3.org/2000/svg">
<path fill-rule="evenodd" clip-rule="evenodd" d="M18 0.840088C18.4142 0.840088 18.75 1.17587 18.75 1.59009V3.84009H21C21.4142 3.84009 21.75 4.17587 21.75 4.59009C21.75 5.0043 21.4142 5.34009 21 5.34009H18.75V7.59009C18.75 8.0043 18.4142 8.34009 18 8.34009C17.5858 8.34009 17.25 8.0043 17.25 7.59009V5.34009H15C14.5858 5.34009 14.25 5.0043 14.25 4.59009C14.25 4.17587 14.5858 3.84009 15 3.84009H17.25V1.59009C17.25 1.17587 17.5858 0.840088 18 0.840088ZM3.25 4.59009C3.25 4.17587 3.58579 3.84009 4 3.84009H11.5C11.9142 3.84009 12.25 4.17587 12.25 4.59009C12.25 5.0043 11.9142 5.34009 11.5 5.34009H4.75V21.8401H17.25V11.0901C17.25 10.6759 17.5858 10.3401 18 10.3401C18.4142 10.3401 18.75 10.6759 18.75 11.0901V22.5901C18.75 23.0043 18.4142 23.3401 18 23.3401H4C3.58579 23.3401 3.25 23.0043 3.25 22.5901V4.59009ZM8 7.84009C7.58579 7.84009 7.25 8.17587 7.25 8.59009C7.25 9.0043 7.58579 9.34009 8 9.34009H14C14.4142 9.34009 14.75 9.0043 14.75 8.59009C14.75 8.17587 14.4142 7.84009 14 7.84009H8ZM7.25 12.5901C7.25 12.1759 7.58579 11.8401 8 11.8401H12C12.4142 11.8401 12.75 12.1759 12.75 12.5901C12.75 13.0043 12.4142 13.3401 12 13.3401H8C7.58579 13.3401 7.25 13.0043 7.25 12.5901ZM8 15.8401C7.58579 15.8401 7.25 16.1759 7.25 16.5901C7.25 17.0043 7.58579 17.3401 8 17.3401H10C10.4142 17.3401 10.75 17.0043 10.75 16.5901C10.75 16.1759 10.4142 15.8401 10 15.8401H8Z" fill="white"/>
</svg>
