<svg width="24" height="25" viewBox="0 0 24 25" fill="none" xmlns="http://www.w3.org/2000/svg">
<path fill-rule="evenodd" clip-rule="evenodd" d="M4 3.37012C3.58579 3.37012 3.25 3.7059 3.25 4.12012V12.1201V20.1201C3.25 20.5343 3.58579 20.8701 4 20.8701H12H20C20.4142 20.8701 20.75 20.5343 20.75 20.1201V12.1201V4.12012C20.75 3.7059 20.4142 3.37012 20 3.37012H12H4ZM4.75 12.1201V4.87012H12H19.25V12.1201V19.3701H12H4.75V12.1201ZM13 8.12012C13 8.6724 12.5523 9.12012 12 9.12012C11.4477 9.12012 11 8.6724 11 8.12012C11 7.56783 11.4477 7.12012 12 7.12012C12.5523 7.12012 13 7.56783 13 8.12012ZM8 13.1201C8.55228 13.1201 9 12.6724 9 12.1201C9 11.5678 8.55228 11.1201 8 11.1201C7.44772 11.1201 7 11.5678 7 12.1201C7 12.6724 7.44772 13.1201 8 13.1201ZM16 13.1201C16.5523 13.1201 17 12.6724 17 12.1201C17 11.5678 16.5523 11.1201 16 11.1201C15.4477 11.1201 15 11.5678 15 12.1201C15 12.6724 15.4477 13.1201 16 13.1201ZM12 17.1201C12.5523 17.1201 13 16.6724 13 16.1201C13 15.5678 12.5523 15.1201 12 15.1201C11.4477 15.1201 11 15.5678 11 16.1201C11 16.6724 11.4477 17.1201 12 17.1201ZM13 12.1201C13 12.6724 12.5523 13.1201 12 13.1201C11.4477 13.1201 11 12.6724 11 12.1201C11 11.5678 11.4477 11.1201 12 11.1201C12.5523 11.1201 13 11.5678 13 12.1201Z" fill="white"/>
</svg>
