<svg width="24" height="25" viewBox="0 0 24 25" fill="none" xmlns="http://www.w3.org/2000/svg">
<path fill-rule="evenodd" clip-rule="evenodd" d="M12.75 3.12012C12.75 2.7059 12.4142 2.37012 12 2.37012C11.5858 2.37012 11.25 2.7059 11.25 3.12012L11.25 21.1201C11.25 21.5343 11.5858 21.8701 12 21.8701C12.4142 21.8701 12.75 21.5343 12.75 21.1201L12.75 3.12012ZM20 5.12012C20.5523 5.12012 21 4.6724 21 4.12012C21 3.56783 20.5523 3.12012 20 3.12012C19.4477 3.12012 19 3.56783 19 4.12012C19 4.6724 19.4477 5.12012 20 5.12012ZM20 9.12012C20.5523 9.12012 21 8.6724 21 8.12012C21 7.56783 20.5523 7.12012 20 7.12012C19.4477 7.12012 19 7.56783 19 8.12012C19 8.6724 19.4477 9.12012 20 9.12012ZM20 13.1201C20.5523 13.1201 21 12.6724 21 12.1201C21 11.5678 20.5523 11.1201 20 11.1201C19.4477 11.1201 19 11.5678 19 12.1201C19 12.6724 19.4477 13.1201 20 13.1201ZM20 17.1201C20.5523 17.1201 21 16.6724 21 16.1201C21 15.5678 20.5523 15.1201 20 15.1201C19.4477 15.1201 19 15.5678 19 16.1201C19 16.6724 19.4477 17.1201 20 17.1201ZM5 20.1201C5 20.6724 4.55228 21.1201 4 21.1201C3.44772 21.1201 3 20.6724 3 20.1201C3 19.5678 3.44772 19.1201 4 19.1201C4.55228 19.1201 5 19.5678 5 20.1201ZM8 21.1201C8.55228 21.1201 9 20.6724 9 20.1201C9 19.5678 8.55228 19.1201 8 19.1201C7.44772 19.1201 7 19.5678 7 20.1201C7 20.6724 7.44772 21.1201 8 21.1201ZM17 20.1201C17 20.6724 16.5523 21.1201 16 21.1201C15.4477 21.1201 15 20.6724 15 20.1201C15 19.5678 15.4477 19.1201 16 19.1201C16.5523 19.1201 17 19.5678 17 20.1201ZM21 20.1201C21 20.6724 20.5523 21.1201 20 21.1201C19.4477 21.1201 19 20.6724 19 20.1201C19 19.5678 19.4477 19.1201 20 19.1201C20.5523 19.1201 21 19.5678 21 20.1201ZM5 16.1201C5 16.6724 4.55228 17.1201 4 17.1201C3.44772 17.1201 3 16.6724 3 16.1201C3 15.5678 3.44772 15.1201 4 15.1201C4.55228 15.1201 5 15.5678 5 16.1201ZM17 12.1201C17 12.6724 16.5523 13.1201 16 13.1201C15.4477 13.1201 15 12.6724 15 12.1201C15 11.5678 15.4477 11.1201 16 11.1201C16.5523 11.1201 17 11.5678 17 12.1201ZM8 13.1201C8.55228 13.1201 9 12.6724 9 12.1201C9 11.5678 8.55228 11.1201 8 11.1201C7.44772 11.1201 7 11.5678 7 12.1201C7 12.6724 7.44772 13.1201 8 13.1201ZM5 12.1201C5 12.6724 4.55228 13.1201 4 13.1201C3.44772 13.1201 3 12.6724 3 12.1201C3 11.5678 3.44772 11.1201 4 11.1201C4.55228 11.1201 5 11.5678 5 12.1201ZM5 8.12012C5 8.6724 4.55228 9.12012 4 9.12012C3.44772 9.12012 3 8.6724 3 8.12012C3 7.56783 3.44772 7.12012 4 7.12012C4.55228 7.12012 5 7.56783 5 8.12012ZM17 4.12012C17 4.6724 16.5523 5.12012 16 5.12012C15.4477 5.12012 15 4.6724 15 4.12012C15 3.56783 15.4477 3.12012 16 3.12012C16.5523 3.12012 17 3.56783 17 4.12012ZM8 5.12012C8.55228 5.12012 9 4.6724 9 4.12012C9 3.56783 8.55228 3.12012 8 3.12012C7.44772 3.12012 7 3.56783 7 4.12012C7 4.6724 7.44772 5.12012 8 5.12012ZM5 4.12012C5 4.6724 4.55228 5.12012 4 5.12012C3.44772 5.12012 3 4.6724 3 4.12012C3 3.56783 3.44772 3.12012 4 3.12012C4.55228 3.12012 5 3.56783 5 4.12012Z" fill="white"/>
</svg>
