<svg width="24" height="25" viewBox="0 0 24 25" fill="none" xmlns="http://www.w3.org/2000/svg">
<path fill-rule="evenodd" clip-rule="evenodd" d="M12 2.37012C12.4142 2.37012 12.75 2.7059 12.75 3.12012V11.3701H21C21.4142 11.3701 21.75 11.7059 21.75 12.1201C21.75 12.5343 21.4142 12.8701 21 12.8701H12.75V21.1201C12.75 21.5343 12.4142 21.8701 12 21.8701C11.5858 21.8701 11.25 21.5343 11.25 21.1201V12.8701H3C2.58579 12.8701 2.25 12.5343 2.25 12.1201C2.25 11.7059 2.58579 11.3701 3 11.3701H11.25V3.12012C11.25 2.7059 11.5858 2.37012 12 2.37012ZM21 4.12012C21 4.6724 20.5523 5.12012 20 5.12012C19.4477 5.12012 19 4.6724 19 4.12012C19 3.56783 19.4477 3.12012 20 3.12012C20.5523 3.12012 21 3.56783 21 4.12012ZM21 8.12012C21 8.6724 20.5523 9.12012 20 9.12012C19.4477 9.12012 19 8.6724 19 8.12012C19 7.56783 19.4477 7.12012 20 7.12012C20.5523 7.12012 21 7.56783 21 8.12012ZM21 16.1201C21 16.6724 20.5523 17.1201 20 17.1201C19.4477 17.1201 19 16.6724 19 16.1201C19 15.5678 19.4477 15.1201 20 15.1201C20.5523 15.1201 21 15.5678 21 16.1201ZM4 21.1201C4.55228 21.1201 5 20.6724 5 20.1201C5 19.5678 4.55228 19.1201 4 19.1201C3.44772 19.1201 3 19.5678 3 20.1201C3 20.6724 3.44772 21.1201 4 21.1201ZM9 20.1201C9 20.6724 8.55228 21.1201 8 21.1201C7.44772 21.1201 7 20.6724 7 20.1201C7 19.5678 7.44772 19.1201 8 19.1201C8.55228 19.1201 9 19.5678 9 20.1201ZM16 21.1201C16.5523 21.1201 17 20.6724 17 20.1201C17 19.5678 16.5523 19.1201 16 19.1201C15.4477 19.1201 15 19.5678 15 20.1201C15 20.6724 15.4477 21.1201 16 21.1201ZM20 21.1201C20.5523 21.1201 21 20.6724 21 20.1201C21 19.5678 20.5523 19.1201 20 19.1201C19.4477 19.1201 19 19.5678 19 20.1201C19 20.6724 19.4477 21.1201 20 21.1201ZM4 17.1201C4.55228 17.1201 5 16.6724 5 16.1201C5 15.5678 4.55228 15.1201 4 15.1201C3.44772 15.1201 3 15.5678 3 16.1201C3 16.6724 3.44772 17.1201 4 17.1201ZM4 9.12012C4.55228 9.12012 5 8.6724 5 8.12012C5 7.56783 4.55228 7.12012 4 7.12012C3.44772 7.12012 3 7.56783 3 8.12012C3 8.6724 3.44772 9.12012 4 9.12012ZM16 5.12012C16.5523 5.12012 17 4.6724 17 4.12012C17 3.56783 16.5523 3.12012 16 3.12012C15.4477 3.12012 15 3.56783 15 4.12012C15 4.6724 15.4477 5.12012 16 5.12012ZM9 4.12012C9 4.6724 8.55228 5.12012 8 5.12012C7.44772 5.12012 7 4.6724 7 4.12012C7 3.56783 7.44772 3.12012 8 3.12012C8.55228 3.12012 9 3.56783 9 4.12012ZM4 5.12012C4.55228 5.12012 5 4.6724 5 4.12012C5 3.56783 4.55228 3.12012 4 3.12012C3.44772 3.12012 3 3.56783 3 4.12012C3 4.6724 3.44772 5.12012 4 5.12012Z" fill="white"/>
</svg>
