<svg width="24" height="25" viewBox="0 0 24 25" fill="none" xmlns="http://www.w3.org/2000/svg">
<path fill-rule="evenodd" clip-rule="evenodd" d="M20 5.12012C20.5523 5.12012 21 4.6724 21 4.12012C21 3.56783 20.5523 3.12012 20 3.12012C19.4477 3.12012 19 3.56783 19 4.12012C19 4.6724 19.4477 5.12012 20 5.12012ZM21 8.12012C21 8.6724 20.5523 9.12012 20 9.12012C19.4477 9.12012 19 8.6724 19 8.12012C19 7.56783 19.4477 7.12012 20 7.12012C20.5523 7.12012 21 7.56783 21 8.12012ZM20 13.1201C20.5523 13.1201 21 12.6724 21 12.1201C21 11.5678 20.5523 11.1201 20 11.1201C19.4477 11.1201 19 11.5678 19 12.1201C19 12.6724 19.4477 13.1201 20 13.1201ZM21 16.1201C21 16.6724 20.5523 17.1201 20 17.1201C19.4477 17.1201 19 16.6724 19 16.1201C19 15.5678 19.4477 15.1201 20 15.1201C20.5523 15.1201 21 15.5678 21 16.1201ZM4 21.1201C4.55228 21.1201 5 20.6724 5 20.1201C5 19.5678 4.55228 19.1201 4 19.1201C3.44772 19.1201 3 19.5678 3 20.1201C3 20.6724 3.44772 21.1201 4 21.1201ZM9 20.1201C9 20.6724 8.55228 21.1201 8 21.1201C7.44772 21.1201 7 20.6724 7 20.1201C7 19.5678 7.44772 19.1201 8 19.1201C8.55228 19.1201 9 19.5678 9 20.1201ZM12 21.1201C12.5523 21.1201 13 20.6724 13 20.1201C13 19.5678 12.5523 19.1201 12 19.1201C11.4477 19.1201 11 19.5678 11 20.1201C11 20.6724 11.4477 21.1201 12 21.1201ZM17 20.1201C17 20.6724 16.5523 21.1201 16 21.1201C15.4477 21.1201 15 20.6724 15 20.1201C15 19.5678 15.4477 19.1201 16 19.1201C16.5523 19.1201 17 19.5678 17 20.1201ZM21 20.1201C21 20.6724 20.5523 21.1201 20 21.1201C19.4477 21.1201 19 20.6724 19 20.1201C19 19.5678 19.4477 19.1201 20 19.1201C20.5523 19.1201 21 19.5678 21 20.1201ZM12 17.1201C12.5523 17.1201 13 16.6724 13 16.1201C13 15.5678 12.5523 15.1201 12 15.1201C11.4477 15.1201 11 15.5678 11 16.1201C11 16.6724 11.4477 17.1201 12 17.1201ZM5 16.1201C5 16.6724 4.55228 17.1201 4 17.1201C3.44772 17.1201 3 16.6724 3 16.1201C3 15.5678 3.44772 15.1201 4 15.1201C4.55228 15.1201 5 15.5678 5 16.1201ZM17 12.1201C17 12.6724 16.5523 13.1201 16 13.1201C15.4477 13.1201 15 12.6724 15 12.1201C15 11.5678 15.4477 11.1201 16 11.1201C16.5523 11.1201 17 11.5678 17 12.1201ZM12 13.1201C12.5523 13.1201 13 12.6724 13 12.1201C13 11.5678 12.5523 11.1201 12 11.1201C11.4477 11.1201 11 11.5678 11 12.1201C11 12.6724 11.4477 13.1201 12 13.1201ZM9 12.1201C9 12.6724 8.55228 13.1201 8 13.1201C7.44772 13.1201 7 12.6724 7 12.1201C7 11.5678 7.44772 11.1201 8 11.1201C8.55228 11.1201 9 11.5678 9 12.1201ZM4 13.1201C4.55228 13.1201 5 12.6724 5 12.1201C5 11.5678 4.55228 11.1201 4 11.1201C3.44772 11.1201 3 11.5678 3 12.1201C3 12.6724 3.44772 13.1201 4 13.1201ZM12 9.12012C12.5523 9.12012 13 8.6724 13 8.12012C13 7.56783 12.5523 7.12012 12 7.12012C11.4477 7.12012 11 7.56783 11 8.12012C11 8.6724 11.4477 9.12012 12 9.12012ZM5 8.12012C5 8.6724 4.55228 9.12012 4 9.12012C3.44772 9.12012 3 8.6724 3 8.12012C3 7.56783 3.44772 7.12012 4 7.12012C4.55228 7.12012 5 7.56783 5 8.12012ZM17 4.12012C17 4.6724 16.5523 5.12012 16 5.12012C15.4477 5.12012 15 4.6724 15 4.12012C15 3.56783 15.4477 3.12012 16 3.12012C16.5523 3.12012 17 3.56783 17 4.12012ZM12 5.12012C12.5523 5.12012 13 4.6724 13 4.12012C13 3.56783 12.5523 3.12012 12 3.12012C11.4477 3.12012 11 3.56783 11 4.12012C11 4.6724 11.4477 5.12012 12 5.12012ZM9 4.12012C9 4.6724 8.55228 5.12012 8 5.12012C7.44772 5.12012 7 4.6724 7 4.12012C7 3.56783 7.44772 3.12012 8 3.12012C8.55228 3.12012 9 3.56783 9 4.12012ZM4 5.12012C4.55228 5.12012 5 4.6724 5 4.12012C5 3.56783 4.55228 3.12012 4 3.12012C3.44772 3.12012 3 3.56783 3 4.12012C3 4.6724 3.44772 5.12012 4 5.12012Z" fill="white"/>
</svg>
