<svg width="24" height="25" viewBox="0 0 24 25" fill="none" xmlns="http://www.w3.org/2000/svg">
<path fill-rule="evenodd" clip-rule="evenodd" d="M3.25 4.12012C3.25 3.7059 3.58579 3.37012 4 3.37012H12H20C20.4142 3.37012 20.75 3.7059 20.75 4.12012V12.1201V20.1201C20.75 20.5343 20.4142 20.8701 20 20.8701H12H4C3.58579 20.8701 3.25 20.5343 3.25 20.1201V12.1201V4.12012ZM4.75 4.87012V11.3701H11.25V4.87012H4.75ZM12.75 4.87012V11.3701H19.25V4.87012H12.75ZM19.25 12.8701H12.75V19.3701H19.25V12.8701ZM11.25 19.3701V12.8701H4.75V19.3701H11.25Z" fill="white"/>
</svg>
