<svg width="24" height="25" viewBox="0 0 24 25" fill="none" xmlns="http://www.w3.org/2000/svg">
<path fill-rule="evenodd" clip-rule="evenodd" d="M11.6358 2.1144C11.8623 1.98856 12.1377 1.98856 12.3642 2.1144L16.8583 4.61108C16.8626 4.61345 16.867 4.61587 16.8713 4.61833L21.3642 7.1144C21.6023 7.24668 21.75 7.49764 21.75 7.77002V17.77C21.75 18.0424 21.6023 18.2934 21.3642 18.4256L12.3642 23.4256C12.1377 23.5515 11.8623 23.5515 11.6358 23.4256L2.63577 18.4256C2.39767 18.2934 2.25 18.0424 2.25 17.77V7.77002C2.25 7.49764 2.39767 7.24668 2.63577 7.1144L11.6358 2.1144ZM14.9556 5.27L12 3.62799L4.35607 7.87461L7.38291 9.47706L14.9556 5.27ZM8.96447 10.3144L16.5 6.12797L19.6439 7.87461L12 11.9214L8.96447 10.3144ZM3.75 17.3287V9.25099L11.25 13.2216V21.4954L3.75 17.3287ZM20.25 17.3287L12.75 21.4954V13.2216L20.25 9.25099V17.3287Z" fill="white"/>
</svg>
