<svg width="24" height="25" viewBox="0 0 24 25" fill="none" xmlns="http://www.w3.org/2000/svg">
<path d="M7.5 20.71L12 11.8M7.92251 15.5801C7.05 14.8601 6.6 14.0282 6.6 13.0601V12.1601C6.6 9.7245 9.25491 7.66006 12 7.66006C14.7451 7.66006 17.4 9.72448 17.4 12.1601V13.0601C17.4 15.1477 15.4376 16.6601 13.35 16.6601C12.0417 16.6601 10.9153 15.7366 10.6587 14.4538L10.65 14.4101M12 22.0601C7.02944 22.0601 3 18.0306 3 13.0601C3 8.0895 7.02944 4.06006 12 4.06006C16.9706 4.06006 21 8.0895 21 13.0601C21 18.0306 16.9706 22.0601 12 22.0601Z" stroke="white" stroke-width="1.5" stroke-linecap="round" stroke-linejoin="round"/>
</svg>
