<svg width="24" height="25" viewBox="0 0 24 25" fill="none" xmlns="http://www.w3.org/2000/svg">
<path d="M12.0909 10.65C8.02589 10.65 4.81818 13.3561 4.81818 15.9228C4.81818 18.4894 8.02589 20.65 12.0909 20.65C16.1558 20.65 19.3636 18.4894 19.3636 15.9228C19.3636 13.3561 16.1558 10.65 12.0909 10.65ZM12.0909 10.65L12.0909 6.10457L17.0909 7.01366M15.2727 17.2864C14.3276 17.6846 13.442 17.9228 12.0909 17.9228C10.7398 17.9228 9.85425 17.6846 8.90909 17.2864M17.0909 7.01366C17.0909 7.76678 17.7014 8.3773 18.4545 8.3773C19.2077 8.3773 19.8182 7.76678 19.8182 7.01366C19.8182 6.26055 19.2077 5.65002 18.4545 5.65002C17.7014 5.65002 17.0909 6.26055 17.0909 7.01366ZM8.90909 14.2864H9.81818M14.3636 14.2864H15.2727M19.3636 15.1955C20.3678 15.1955 21.1818 14.3815 21.1818 13.3773C21.1818 12.3731 20.3678 11.5591 19.3636 11.5591C18.6165 11.5591 17.9745 12.0098 17.6949 12.6542M4.81818 15.1955C3.81403 15.1955 3 14.3815 3 13.3773C3 12.3731 3.81403 11.5591 4.81818 11.5591C5.56537 11.5591 6.20729 12.0098 6.4869 12.6542" stroke="white" stroke-width="1.5" stroke-linecap="round" stroke-linejoin="round"/>
</svg>
