<svg width="24" height="25" viewBox="0 0 24 25" fill="none" xmlns="http://www.w3.org/2000/svg">
<path d="M20.4875 10.9681C20.5925 11.5721 20.6448 12.1842 20.6439 12.7973C20.6439 15.5354 19.6652 17.8506 17.962 19.4177H17.9643C16.4748 20.7935 14.4274 21.59 11.9997 21.59C9.61283 21.59 7.32372 20.6418 5.63595 18.954C3.94818 17.2662 3 14.9771 3 12.5903C3 10.2034 3.94818 7.91428 5.63595 6.22651C7.32372 4.53874 9.61283 3.59056 11.9997 3.59056C14.2338 3.56439 16.3914 4.40372 18.0205 5.93273L15.4511 8.50215C14.5223 7.61677 13.2827 7.13193 11.9997 7.15219C9.65191 7.15219 7.65735 8.73614 6.94637 10.8691C6.5694 11.9867 6.5694 13.1972 6.94637 14.3148H6.94974C7.6641 16.4444 9.65528 18.0283 12.0031 18.0283C13.2158 18.0283 14.2575 17.7178 15.0652 17.1689H15.0619C15.5309 16.8582 15.932 16.4556 16.2412 15.9856C16.5504 15.5156 16.7611 14.9878 16.8607 14.4341H11.9997V10.9692H20.4875V10.9681Z" stroke="white" stroke-width="1.5" stroke-linecap="round" stroke-linejoin="round"/>
</svg>
