<svg width="24" height="25" viewBox="0 0 24 25" fill="none" xmlns="http://www.w3.org/2000/svg">
<path d="M3 13.0028H6.14634C7.88402 13.0028 9.29269 11.5941 9.29269 9.85643C9.29269 8.11875 7.88402 6.71008 6.14634 6.71008H3V13.0028ZM3 13.0028H7.94426C9.68193 13.0028 11.0906 14.4114 11.0906 16.1491C11.0906 17.8868 9.68193 19.2955 7.94426 19.2955H3V13.0028ZM13.7875 15.6996H20.9791C20.9791 13.7137 19.3692 12.1038 17.3833 12.1038C15.3974 12.1038 13.7875 13.7137 13.7875 15.6996ZM13.7875 15.6996C13.7875 17.6856 15.3974 19.2955 17.3833 19.2955C18.1464 19.2955 18.854 19.0577 19.4361 18.6523M13.338 8.50799H21.4286" stroke="white" stroke-width="1.5" stroke-linecap="round" stroke-linejoin="round"/>
</svg>
