<svg width="24" height="25" viewBox="0 0 24 25" fill="none" xmlns="http://www.w3.org/2000/svg">
<path d="M12 3.23999C9.15751 3.23999 6.62326 4.55774 4.97401 6.61574L7.93876 11.7517C8.05799 10.7584 8.5371 9.84327 9.28547 9.17935C10.0338 8.51542 10.9996 8.14876 12 8.14874H20.0183C19.2641 6.67097 18.116 5.43043 16.701 4.56417C15.286 3.6979 13.6591 3.23964 12 3.23999ZM4.44826 7.34249C3.50048 8.79986 2.99727 10.5015 3.00001 12.24C3.00001 16.749 6.31501 20.4832 10.6418 21.138L13.6065 16.0027C12.6868 16.396 11.6548 16.4384 10.7059 16.1219C9.75705 15.8054 8.95717 15.1519 8.45776 14.2852L4.44826 7.34249ZM14.4548 8.96699C15.2558 9.56634 15.809 10.4388 16.0095 11.419C16.2099 12.3991 16.0437 13.4188 15.5423 14.2845L15.5438 14.2852H15.5423L11.5343 21.228C11.6888 21.2355 11.844 21.24 12 21.24C16.9703 21.24 21 17.2102 21 12.24C21 11.085 20.7825 9.98174 20.3865 8.96699H14.4548ZM12 15.513C11.132 15.513 10.2995 15.1682 9.68565 14.5543C9.07184 13.9405 8.72701 13.108 8.72701 12.24C8.72701 11.3719 9.07184 10.5394 9.68565 9.92563C10.2995 9.31182 11.132 8.96699 12 8.96699C12.8681 8.96699 13.7006 9.31182 14.3144 9.92563C14.9282 10.5394 15.273 11.3719 15.273 12.24C15.273 13.108 14.9282 13.9405 14.3144 14.5543C13.7006 15.1682 12.8681 15.513 12 15.513Z" fill="white"/>
</svg>
