<svg width="26" height="25" viewBox="0 0 26 25" fill="none" xmlns="http://www.w3.org/2000/svg">
<path d="M17.1485 19.6482C17.7356 20.3918 19.5305 21.9377 19.5305 21.9377C23.8553 21.8008 24.4284 18.2588 24.4284 18.2588C24.4284 11.9574 21.6103 4.40079 21.6103 4.40079C18.7923 2.28714 16.1113 2.346 16.1113 2.346L15.8374 4.47905M20.6906 17.3194C19.8882 17.8478 19.125 18.2197 18.4401 18.4739C17.4617 18.885 16.5223 19.1588 15.6026 19.3155C13.7239 19.6677 12.0018 19.5699 10.5341 19.2959C9.41856 19.0806 8.45965 18.7675 7.6574 18.4545C7.20725 18.2783 6.71803 18.0631 6.22868 17.7891C6.17009 17.7499 6.11136 17.7304 6.05263 17.6912C6.01357 17.6716 5.99391 17.6521 5.97438 17.6326C5.62214 17.4369 5.42643 17.2999 5.42643 17.2999M8.85108 19.609C8.26408 20.3528 6.46925 21.9377 6.46925 21.9377C2.14429 21.8008 1.57129 18.2588 1.57129 18.2588C1.57129 11.9574 4.38927 4.40066 4.38927 4.40066C7.20725 2.28714 9.88824 2.34587 9.88824 2.34587L10.084 4.40079M6.46925 6.4275C11.3148 3.78489 14.6941 3.77676 19.5305 6.4275M9.3403 11.0944C8.22488 11.0944 7.34437 12.0728 7.34437 13.2665C7.34437 14.4603 8.24441 15.4388 9.3403 15.4388C10.4559 15.4388 11.3364 14.4603 11.3364 13.2665C11.356 12.0728 10.4557 11.0944 9.3403 11.0944ZM16.4832 11.0944C15.3677 11.0944 14.487 12.0728 14.487 13.2665C14.487 14.4603 15.3874 15.4388 16.4832 15.4388C17.5987 15.4388 18.4792 14.4603 18.4792 13.2665C18.4792 12.0728 17.5987 11.0944 16.4832 11.0944Z" stroke="white" stroke-width="1.5" stroke-linecap="round" stroke-linejoin="round"/>
</svg>
