<svg width="24" height="25" viewBox="0 0 24 25" fill="none" xmlns="http://www.w3.org/2000/svg">
<path d="M14.425 3.23999L15.997 5.02499C15.997 5.02499 17.377 4.64099 18.0287 5.29349C18.6797 5.94599 19.2167 6.52199 19.2167 6.52199L18.7952 7.55774L19.3315 9.09299C19.3315 9.09299 17.7535 15.078 17.569 15.8092C17.2045 17.2485 16.9555 17.8042 15.9205 18.534C14.8855 19.263 13.0075 20.529 12.7008 20.721C12.394 20.913 12.0108 21.24 11.6658 21.24C11.3208 21.24 10.9383 20.913 10.6308 20.721C9.54737 20.007 8.47402 19.2779 7.411 18.534C6.376 17.8042 6.127 17.2485 5.76325 15.8092C5.578 15.078 4 9.09299 4 9.09299L4.53625 7.55774L4.11475 6.52199C4.11475 6.52199 4.65175 5.94599 5.3035 5.29349C5.9545 4.64099 7.3345 5.02499 7.3345 5.02499L8.90575 3.23999H14.4257H14.425ZM11.6658 14.442C11.5608 14.442 10.8873 14.6797 10.3472 14.9595C9.80725 15.2392 9.41575 15.4372 9.2905 15.516C9.16525 15.594 9.24175 15.7417 9.35575 15.8227C9.46975 15.903 11.0013 17.0902 11.1505 17.2222C11.299 17.3535 11.5173 17.5702 11.6658 17.5702C11.8143 17.5702 12.0332 17.3527 12.1818 17.2222C12.3303 17.091 13.8618 15.903 13.9757 15.8227C14.0898 15.7417 14.1663 15.594 14.041 15.5152C13.9158 15.4372 13.5243 15.2392 12.9835 14.9595C12.4435 14.6797 11.7708 14.442 11.6658 14.442ZM11.6658 5.98349C11.6658 5.98349 11.359 5.98424 10.8993 6.13799C10.4395 6.29174 9.94075 6.48299 9.71125 6.48299C9.481 6.48299 7.7755 6.15749 7.7755 6.15749C7.7755 6.15749 5.75425 8.60399 5.75425 9.12674C5.75425 9.64949 6.0085 9.78749 6.26425 10.059L7.77925 11.6707C7.92325 11.823 8.22175 12.054 8.04625 12.4702C7.87 12.8865 7.61125 13.4152 7.89925 13.953C8.18725 14.49 8.68075 14.8485 8.99725 14.7892C9.313 14.7292 10.0563 14.3407 10.3293 14.1637C10.6023 13.986 11.4678 13.2712 11.4678 12.9982C11.4678 12.7245 10.573 12.2332 10.408 12.1222C10.243 12.0097 9.4885 11.5785 9.47275 11.4097C9.45775 11.2395 9.46375 11.19 9.68575 10.7715C9.9085 10.3522 10.309 9.79349 10.2422 9.42149C10.1755 9.05024 9.52975 8.85674 9.0685 8.68199C8.60725 8.50799 7.71925 8.17874 7.60825 8.12699C7.49725 8.07599 7.52575 8.02724 7.8625 7.99574C8.1985 7.96349 9.15175 7.83674 9.5815 7.95674C10.0113 8.07674 10.7455 8.25899 10.8055 8.35574C10.8648 8.45324 10.9172 8.45624 10.8558 8.78999C10.795 9.12374 10.4808 10.7257 10.45 11.01C10.42 11.295 10.36 11.4825 10.666 11.553C10.9728 11.6235 11.4888 11.745 11.6658 11.745C11.8428 11.745 12.3588 11.6235 12.6655 11.553C12.9715 11.4832 12.9122 11.295 12.8815 11.0107C12.8515 10.7257 12.5365 9.12374 12.4757 8.78999C12.4143 8.45624 12.4668 8.45249 12.526 8.35574C12.586 8.25899 13.3202 8.07674 13.75 7.95674C14.1798 7.83674 15.1338 7.96349 15.469 7.99574C15.8058 8.02724 15.8342 8.07599 15.7232 8.12699C15.6122 8.17874 14.7242 8.50799 14.263 8.68199C13.8018 8.85674 13.156 9.04949 13.0893 9.42149C13.0218 9.79349 13.423 10.3522 13.6458 10.7715C13.8685 11.19 13.8738 11.2395 13.8588 11.409C13.8438 11.5785 13.0893 12.0105 12.9235 12.1215C12.7585 12.234 11.8638 12.7245 11.8638 12.9982C11.8638 13.2712 12.7292 13.986 13.0023 14.1637C13.2753 14.3407 14.0185 14.73 14.3343 14.7892C14.6508 14.8485 15.1443 14.4892 15.4323 13.953C15.7203 13.416 15.4615 12.8865 15.286 12.4702C15.1097 12.054 15.4083 11.823 15.5523 11.6707L17.0672 10.059C17.323 9.78749 17.5772 9.64949 17.5772 9.12674C17.5772 8.60399 15.556 6.15674 15.556 6.15674C15.556 6.15674 13.8505 6.48374 13.621 6.48374C13.3907 6.48374 12.892 6.29174 12.4323 6.13799C11.9725 5.98424 11.6658 5.98349 11.6658 5.98349Z" fill="white"/>
</svg>
