<svg width="24" height="25" viewBox="0 0 24 25" fill="none" xmlns="http://www.w3.org/2000/svg">
<path d="M12.0098 1.89429L12.0001 15.6086M12.0001 15.6086V19.0371C12.0001 20.9307 10.465 22.4657 8.57149 22.4657C6.67794 22.4657 5.14292 20.9307 5.14292 19.0371C5.14292 17.1436 6.67794 15.6086 8.57149 15.6086H12.0001ZM12.0001 15.6086L8.59053 15.6086C6.68647 15.6086 5.14292 14.065 5.14292 12.161C5.14292 10.2718 6.66322 8.73455 8.55223 8.71357L12.0001 8.67526M15.4286 15.6086C13.5351 15.6086 12.0001 14.0545 12.0001 12.161C12.0001 10.2823 13.512 8.73465 15.3905 8.71378C17.2989 8.69257 18.8572 10.2527 18.8572 12.1612C18.8572 14.0547 17.3222 15.6086 15.4286 15.6086ZM8.48676 1.89429H15.5328C17.3808 1.89429 18.8904 3.37037 18.9319 5.2179C18.9746 7.11777 17.4518 8.6838 15.5515 8.69424L8.50555 8.73295C6.63941 8.74321 5.1097 7.25532 5.06824 5.38961C5.02563 3.47189 6.56856 1.89429 8.48676 1.89429Z" stroke="white" stroke-width="1.5" stroke-linecap="round" stroke-linejoin="round"/>
</svg>
