<svg width="24" height="25" viewBox="0 0 24 25" fill="none" xmlns="http://www.w3.org/2000/svg">
<path d="M16.4535 8.23856H17.2892M6.84285 4.06H16.8714C18.7176 4.06 20.2142 5.55664 20.2142 7.40284V17.4314C20.2142 19.2776 18.7176 20.7742 16.8714 20.7742H6.84285C4.99664 20.7742 3.5 19.2776 3.5 17.4314V7.40284C3.5 5.55664 4.99664 4.06 6.84285 4.06ZM11.8571 15.76C10.0109 15.76 8.51427 14.2633 8.51427 12.4171C8.51427 10.5709 10.0109 9.07427 11.8571 9.07427C13.7033 9.07427 15.2 10.5709 15.2 12.4171C15.2 14.2633 13.7033 15.76 11.8571 15.76Z" stroke="white" stroke-width="1.5" stroke-linecap="round" stroke-linejoin="round"/>
</svg>
