<svg width="24" height="25" viewBox="0 0 24 25" fill="none" xmlns="http://www.w3.org/2000/svg">
<path d="M12.2132 3.075C13.1957 3.06 14.1707 3.0675 15.1457 3.06C15.2057 4.2075 15.6182 5.3775 16.4582 6.1875C17.2982 7.02 18.4832 7.4025 19.6382 7.53V10.5525C18.5582 10.515 17.4707 10.29 16.4882 9.825C16.0607 9.63 15.6632 9.3825 15.2732 9.1275C15.2657 11.3175 15.2807 13.5075 15.2582 15.69C15.1982 16.74 14.8532 17.7825 14.2457 18.645C13.2632 20.085 11.5607 21.0225 9.81318 21.0525C8.74068 21.1125 7.66818 20.82 6.75318 20.28C5.23818 19.3875 4.17318 17.7525 4.01568 15.9975C4.00068 15.6225 3.99318 15.2475 4.00818 14.88C4.14318 13.455 4.84818 12.09 5.94318 11.16C7.18818 10.08 8.32126 9.825 9.98147 9.78729C9.99647 10.8973 9.95147 12.0073 9.95147 13.1173C9.15386 13.1173 8.91318 13.0275 8.26068 13.4775C7.78818 13.785 7.42818 14.2575 7.24068 14.79C7.08318 15.1725 7.12818 15.5925 7.13568 15.9975C7.31568 17.2275 8.50068 18.2625 9.76068 18.15C10.6007 18.1425 11.4032 17.655 11.8382 16.9425C11.9807 16.695 12.1382 16.44 12.1457 16.1475C12.2207 14.805 12.1907 13.47 12.1982 12.1275C12.2057 9.105 12.1907 6.09 12.2132 3.075Z" stroke="white" stroke-width="1.5" stroke-linecap="round" stroke-linejoin="round"/>
</svg>
