<svg width="24" height="25" viewBox="0 0 24 25" fill="none" xmlns="http://www.w3.org/2000/svg">
<path fill-rule="evenodd" clip-rule="evenodd" d="M16.416 1.96595C16.7607 2.19571 16.8538 2.66136 16.624 3.00601L15.7166 4.36722C15.9927 4.56451 16.2614 4.79353 16.5276 5.05691C17.1082 5.6315 17.5296 6.50416 17.7937 7.15255C17.9315 7.49085 18.0379 7.79731 18.1099 8.01938C18.1461 8.13073 18.1738 8.22168 18.1928 8.28578C18.2023 8.31786 18.2097 8.34327 18.2148 8.36122L18.2208 8.38248L18.2225 8.38873L18.223 8.39074L18.2232 8.39146L18.2233 8.39174C18.2234 8.39187 18.2234 8.39198 17.5 8.58999L18.2234 8.39198C18.2851 8.61756 18.2381 8.85903 18.0962 9.04496C17.9544 9.23089 17.7339 9.33999 17.5 9.33999H6.5C6.26612 9.33999 6.04563 9.23089 5.90376 9.04496C5.76188 8.85903 5.71486 8.61756 5.77661 8.39198L6.5 8.58999C5.77661 8.39198 5.77664 8.39187 5.77668 8.39174L5.77676 8.39146L5.77695 8.39074L5.7775 8.38873L5.77924 8.38248L5.78523 8.36122C5.79034 8.34327 5.79767 8.31786 5.80718 8.28578C5.82617 8.22168 5.85393 8.13073 5.89005 8.01938C5.96209 7.79731 6.06847 7.49085 6.20629 7.15255C6.47044 6.50416 6.89183 5.6315 7.47244 5.05691C7.73857 4.79353 8.00731 4.56451 8.28343 4.36722L7.37596 3.00601C7.1462 2.66136 7.23933 2.19571 7.58397 1.96595C7.92862 1.73618 8.39427 1.82931 8.62404 2.17396L9.62387 3.67371C10.3618 3.42124 11.1419 3.33998 12 3.33998C12.8581 3.33998 13.6382 3.42124 14.3761 3.67371L15.376 2.17396C15.6057 1.82931 16.0714 1.73618 16.416 1.96595ZM16.4046 7.71847C16.4213 7.75951 16.4375 7.80006 16.4532 7.83999H7.54683C7.56251 7.80006 7.57872 7.75951 7.59544 7.71847C7.84854 7.0972 8.17715 6.46986 8.52756 6.12308C9.05486 5.60124 9.54623 5.2926 10.0699 5.10672C10.6021 4.91783 11.2114 4.83998 12 4.83998C12.7886 4.83998 13.3979 4.91783 13.9301 5.10672C14.4538 5.2926 14.9451 5.60124 15.4724 6.12308C15.8229 6.46986 16.1515 7.0972 16.4046 7.71847ZM6.5 9.92995C6.08579 9.92995 5.75 10.2657 5.75 10.68V18.59C5.75 19.0042 6.08579 19.34 6.5 19.34H7.75V19.3462V19.3527V19.3593V19.3659V19.3725V19.3791V19.3857V19.3924V19.399V19.4057V19.4124V19.4191V19.4258V19.4326V19.4394V19.4462V19.453V19.4598V19.4666V19.4735V19.4803V19.4872V19.4941V19.501V19.5079V19.5149V19.5218V19.5288V19.5358V19.5428V19.5498V19.5569V19.5639V19.571V19.578V19.5851V19.5922V19.5994V19.6065V19.6136V19.6208V19.628V19.6351V19.6423V19.6495V19.6568V19.664V19.6712V19.6785V19.6858V19.6931V19.7004V19.7077V19.715V19.7223V19.7297V19.737V19.7444V19.7517V19.7591V19.7665V19.7739V19.7813V19.7888V19.7962V19.8037V19.8111V19.8186V19.8261V19.8335V19.841V19.8485V19.8561V19.8636V19.8711V19.8786V19.8862V19.8938V19.9013V19.9089V19.9165V19.9241V19.9317V19.9393V19.9469V19.9545V19.9621V19.9697V19.9774V19.985V19.9927V20.0003V20.008V20.0157V20.0234V20.031V20.0387V20.0464V20.0541V20.0618V20.0695V20.0773V20.085V20.0927V20.1004V20.1082V20.1159V20.1237V20.1314V20.1392V20.1469V20.1547V20.1624V20.1702V20.178V20.1858V20.1935V20.2013V20.2091V20.2169V20.2247V20.2325V20.2403V20.2481V20.2558V20.2636V20.2715V20.2793V20.2871V20.2949V20.3027V20.3105V20.3183V20.3261V20.3339V20.3417V20.3495V20.3573V20.3652V20.373V20.3808V20.3886V20.3964V20.4042V20.412V20.4198V20.4276V20.4355V20.4433V20.4511V20.4589V20.4667V20.4745V20.4823V20.4901V20.4979V20.5057V20.5135V20.5212V20.529V20.5368V20.5446V20.5524V20.5601V20.5679V20.5757V20.5834V20.5912V20.5989V20.6067V20.6144V20.6222V20.6299V20.6377V20.6454V20.6531V20.6608V20.6686V20.6763V20.684V20.6917V20.6994V20.707V20.7147V20.7224V20.7301V20.7377V20.7454V20.753V20.7607V20.7683V20.776V20.7836V20.7912V20.7988V20.8064V20.814V20.8216V20.8292V20.8367V20.8443V20.8518V20.8594V20.8669V20.8745V20.882V20.8895V20.897V20.9045V20.912V20.9194V20.9269V20.9343V20.9418V20.9492V20.9566V20.9641V20.9715V20.9789V20.9862V20.9936V21.001V21.0083V21.0157V21.023V21.0303V21.0376V21.0449V21.0522V21.0594V21.0667V21.0739V21.0812V21.0884V21.0956V21.1028V21.11V21.1171V21.1243V21.1314V21.1385V21.1457V21.1528V21.1598V21.1669V21.174V21.181V21.188V21.1951V21.2021V21.209V21.216V21.223V21.2299V21.2368V21.2437V21.2506V21.2575V21.2644V21.2712V21.278V21.2848V21.2916V21.2984V21.3052V21.3119V21.3186V21.3254V21.3321V21.3387V21.3454V21.352V21.3587V21.3653V21.3718V21.3784V21.385V21.3915V21.398V21.4045V21.411V21.4174V21.4239V21.4303V21.4367V21.4431V21.4494V21.4558V21.4621V21.4684V21.4747V21.4809V21.4872V21.4934V21.4996V21.5058V21.5119V21.5181V21.5242V21.5303V21.5363V21.5424V21.5484V21.5544V21.5604V21.5664V21.5723V21.5782V21.5841V21.59C7.75 21.9712 7.84746 22.307 8.03221 22.5841C8.21383 22.8566 8.45062 23.0288 8.66459 23.1358C8.87563 23.2413 9.07758 23.2903 9.22045 23.3142C9.29366 23.3264 9.35631 23.3327 9.4036 23.3361C9.42736 23.3378 9.44761 23.3388 9.46378 23.3393L9.48504 23.3399L9.49332 23.34L9.49687 23.34L9.49848 23.34L9.49925 23.34C9.49963 23.34 9.5 23.34 9.5 22.59C9.5 23.34 9.50037 23.34 9.50075 23.34L9.50152 23.34L9.50313 23.34L9.50668 23.34L9.51496 23.3399L9.53622 23.3393C9.55239 23.3388 9.57264 23.3378 9.5964 23.3361C9.64369 23.3327 9.70634 23.3264 9.77955 23.3142C9.92242 23.2903 10.1244 23.2413 10.3354 23.1358C10.5494 23.0288 10.7862 22.8566 10.9678 22.5841C11.1525 22.307 11.25 21.9712 11.25 21.59V21.5841V21.5782V21.5723V21.5664V21.5604V21.5544V21.5484V21.5424V21.5363V21.5303V21.5242V21.5181V21.5119V21.5058V21.4996V21.4934V21.4872V21.4809V21.4747V21.4684V21.4621V21.4558V21.4494V21.4431V21.4367V21.4303V21.4239V21.4174V21.411V21.4045V21.398V21.3915V21.385V21.3784V21.3718V21.3653V21.3587V21.352V21.3454V21.3387V21.3321V21.3254V21.3186V21.3119V21.3052V21.2984V21.2916V21.2848V21.278V21.2712V21.2644V21.2575V21.2506V21.2437V21.2368V21.2299V21.223V21.216V21.209V21.2021V21.1951V21.188V21.181V21.174V21.1669V21.1598V21.1528V21.1457V21.1385V21.1314V21.1243V21.1171V21.11V21.1028V21.0956V21.0884V21.0812V21.0739V21.0667V21.0594V21.0522V21.0449V21.0376V21.0303V21.023V21.0157V21.0083V21.001V20.9936V20.9862V20.9789V20.9715V20.9641V20.9566V20.9492V20.9418V20.9343V20.9269V20.9194V20.912V20.9045V20.897V20.8895V20.882V20.8745V20.8669V20.8594V20.8518V20.8443V20.8367V20.8292V20.8216V20.814V20.8064V20.7988V20.7912V20.7836V20.776V20.7683V20.7607V20.753V20.7454V20.7377V20.7301V20.7224V20.7147V20.707V20.6994V20.6917V20.684V20.6763V20.6686V20.6608V20.6531V20.6454V20.6377V20.6299V20.6222V20.6144V20.6067V20.5989V20.5912V20.5834V20.5757V20.5679V20.5601V20.5524V20.5446V20.5368V20.529V20.5212V20.5135V20.5057V20.4979V20.4901V20.4823V20.4745V20.4667V20.4589V20.4511V20.4433V20.4355V20.4276V20.4198V20.412V20.4042V20.3964V20.3886V20.3808V20.373V20.3652V20.3573V20.3495V20.3417V20.3339V20.3261V20.3183V20.3105V20.3027V20.2949V20.2871V20.2793V20.2715V20.2636V20.2558V20.2481V20.2403V20.2325V20.2247V20.2169V20.2091V20.2013V20.1935V20.1858V20.178V20.1702V20.1624V20.1547V20.1469V20.1392V20.1314V20.1237V20.1159V20.1082V20.1004V20.0927V20.085V20.0773V20.0695V20.0618V20.0541V20.0464V20.0387V20.031V20.0234V20.0157V20.008V20.0003V19.9927V19.985V19.9774V19.9697V19.9621V19.9545V19.9469V19.9393V19.9317V19.9241V19.9165V19.9089V19.9013V19.8938V19.8862V19.8786V19.8711V19.8636V19.8561V19.8485V19.841V19.8335V19.8261V19.8186V19.8111V19.8037V19.7962V19.7888V19.7813V19.7739V19.7665V19.7591V19.7517V19.7444V19.737V19.7297V19.7223V19.715V19.7077V19.7004V19.6931V19.6858V19.6785V19.6712V19.664V19.6568V19.6495V19.6423V19.6351V19.628V19.6208V19.6136V19.6065V19.5994V19.5922V19.5851V19.578V19.571V19.5639V19.5569V19.5498V19.5428V19.5358V19.5288V19.5218V19.5149V19.5079V19.501V19.4941V19.4872V19.4803V19.4735V19.4666V19.4598V19.453V19.4462V19.4394V19.4326V19.4258V19.4191V19.4124V19.4057V19.399V19.3924V19.3857V19.3791V19.3725V19.3659V19.3593V19.3527V19.3462V19.34H12.75V19.3462V19.3527V19.3593V19.3659V19.3725V19.3791V19.3857V19.3924V19.399V19.4057V19.4124V19.4191V19.4258V19.4326V19.4394V19.4462V19.453V19.4598V19.4666V19.4735V19.4803V19.4872V19.4941V19.501V19.5079V19.5149V19.5218V19.5288V19.5358V19.5428V19.5498V19.5569V19.5639V19.571V19.578V19.5851V19.5922V19.5994V19.6065V19.6136V19.6208V19.628V19.6351V19.6423V19.6495V19.6568V19.664V19.6712V19.6785V19.6858V19.6931V19.7004V19.7077V19.715V19.7223V19.7297V19.737V19.7444V19.7517V19.7591V19.7665V19.7739V19.7813V19.7888V19.7962V19.8037V19.8111V19.8186V19.8261V19.8335V19.841V19.8485V19.8561V19.8636V19.8711V19.8786V19.8862V19.8938V19.9013V19.9089V19.9165V19.9241V19.9317V19.9393V19.9469V19.9545V19.9621V19.9697V19.9774V19.985V19.9927V20.0003V20.008V20.0157V20.0234V20.031V20.0387V20.0464V20.0541V20.0618V20.0695V20.0773V20.085V20.0927V20.1004V20.1082V20.1159V20.1237V20.1314V20.1392V20.1469V20.1547V20.1624V20.1702V20.178V20.1858V20.1935V20.2013V20.2091V20.2169V20.2247V20.2325V20.2403V20.2481V20.2558V20.2636V20.2715V20.2793V20.2871V20.2949V20.3027V20.3105V20.3183V20.3261V20.3339V20.3417V20.3495V20.3573V20.3652V20.373V20.3808V20.3886V20.3964V20.4042V20.412V20.4198V20.4276V20.4355V20.4433V20.4511V20.4589V20.4667V20.4745V20.4823V20.4901V20.4979V20.5057V20.5135V20.5212V20.529V20.5368V20.5446V20.5524V20.5601V20.5679V20.5757V20.5834V20.5912V20.5989V20.6067V20.6144V20.6222V20.6299V20.6377V20.6454V20.6531V20.6608V20.6686V20.6763V20.684V20.6917V20.6994V20.707V20.7147V20.7224V20.7301V20.7377V20.7454V20.753V20.7607V20.7683V20.776V20.7836V20.7912V20.7988V20.8064V20.814V20.8216V20.8292V20.8367V20.8443V20.8518V20.8594V20.8669V20.8745V20.882V20.8895V20.897V20.9045V20.912V20.9194V20.9269V20.9343V20.9418V20.9492V20.9566V20.9641V20.9715V20.9789V20.9862V20.9936V21.001V21.0083V21.0157V21.023V21.0303V21.0376V21.0449V21.0522V21.0594V21.0667V21.0739V21.0812V21.0884V21.0956V21.1028V21.11V21.1171V21.1243V21.1314V21.1385V21.1457V21.1528V21.1598V21.1669V21.174V21.181V21.188V21.1951V21.2021V21.209V21.216V21.223V21.2299V21.2368V21.2437V21.2506V21.2575V21.2644V21.2712V21.278V21.2848V21.2916V21.2984V21.3052V21.3119V21.3186V21.3254V21.3321V21.3387V21.3454V21.352V21.3587V21.3653V21.3718V21.3784V21.385V21.3915V21.398V21.4045V21.411V21.4174V21.4239V21.4303V21.4367V21.4431V21.4494V21.4558V21.4621V21.4684V21.4747V21.4809V21.4872V21.4934V21.4996V21.5058V21.5119V21.5181V21.5242V21.5303V21.5363V21.5424V21.5484V21.5544V21.5604V21.5664V21.5723V21.5782V21.5841V21.59C12.75 21.9712 12.8475 22.307 13.0322 22.5841C13.2138 22.8566 13.4506 23.0288 13.6646 23.1358C13.8756 23.2413 14.0776 23.2903 14.2205 23.3142C14.2937 23.3264 14.3563 23.3327 14.4036 23.3361C14.4274 23.3378 14.4476 23.3388 14.4638 23.3393L14.485 23.3399L14.4933 23.34L14.4969 23.34L14.4985 23.34L14.4993 23.34C14.4996 23.34 14.5 23.34 14.5 22.59C14.5 23.34 14.5004 23.34 14.5007 23.34L14.5015 23.34L14.5031 23.34L14.5067 23.34L14.515 23.3399L14.5362 23.3393C14.5524 23.3388 14.5726 23.3378 14.5964 23.3361C14.6437 23.3327 14.7063 23.3264 14.7795 23.3142C14.9224 23.2903 15.1244 23.2413 15.3354 23.1358C15.5494 23.0288 15.7862 22.8566 15.9678 22.5841C16.1525 22.307 16.25 21.9712 16.25 21.59V21.5841V21.5782V21.5723V21.5664V21.5604V21.5544V21.5484V21.5424V21.5363V21.5303V21.5242V21.5181V21.5119V21.5058V21.4996V21.4934V21.4872V21.4809V21.4747V21.4684V21.4621V21.4558V21.4494V21.4431V21.4367V21.4303V21.4239V21.4174V21.411V21.4045V21.398V21.3915V21.385V21.3784V21.3718V21.3653V21.3587V21.352V21.3454V21.3387V21.3321V21.3254V21.3186V21.3119V21.3052V21.2984V21.2916V21.2848V21.278V21.2712V21.2644V21.2575V21.2506V21.2437V21.2368V21.2299V21.223V21.216V21.209V21.2021V21.1951V21.188V21.181V21.174V21.1669V21.1598V21.1528V21.1457V21.1385V21.1314V21.1243V21.1171V21.11V21.1028V21.0956V21.0884V21.0812V21.0739V21.0667V21.0594V21.0522V21.0449V21.0376V21.0303V21.023V21.0157V21.0083V21.001V20.9936V20.9862V20.9789V20.9715V20.9641V20.9566V20.9492V20.9418V20.9343V20.9269V20.9194V20.912V20.9045V20.897V20.8895V20.882V20.8745V20.8669V20.8594V20.8518V20.8443V20.8367V20.8292V20.8216V20.814V20.8064V20.7988V20.7912V20.7836V20.776V20.7683V20.7607V20.753V20.7454V20.7377V20.7301V20.7224V20.7147V20.707V20.6994V20.6917V20.684V20.6763V20.6686V20.6608V20.6531V20.6454V20.6377V20.6299V20.6222V20.6144V20.6067V20.5989V20.5912V20.5834V20.5757V20.5679V20.5601V20.5524V20.5446V20.5368V20.529V20.5212V20.5135V20.5057V20.4979V20.4901V20.4823V20.4745V20.4667V20.4589V20.4511V20.4433V20.4355V20.4276V20.4198V20.412V20.4042V20.3964V20.3886V20.3808V20.373V20.3652V20.3573V20.3495V20.3417V20.3339V20.3261V20.3183V20.3105V20.3027V20.2949V20.2871V20.2793V20.2715V20.2636V20.2558V20.2481V20.2403V20.2325V20.2247V20.2169V20.2091V20.2013V20.1935V20.1858V20.178V20.1702V20.1624V20.1547V20.1469V20.1392V20.1314V20.1237V20.1159V20.1082V20.1004V20.0927V20.085V20.0773V20.0695V20.0618V20.0541V20.0464V20.0387V20.031V20.0234V20.0157V20.008V20.0003V19.9927V19.985V19.9774V19.9697V19.9621V19.9545V19.9469V19.9393V19.9317V19.9241V19.9165V19.9089V19.9013V19.8938V19.8862V19.8786V19.8711V19.8636V19.8561V19.8485V19.841V19.8335V19.8261V19.8186V19.8111V19.8037V19.7962V19.7888V19.7813V19.7739V19.7665V19.7591V19.7517V19.7444V19.737V19.7297V19.7223V19.715V19.7077V19.7004V19.6931V19.6858V19.6785V19.6712V19.664V19.6568V19.6495V19.6423V19.6351V19.628V19.6208V19.6136V19.6065V19.5994V19.5922V19.5851V19.578V19.571V19.5639V19.5569V19.5498V19.5428V19.5358V19.5288V19.5218V19.5149V19.5079V19.501V19.4941V19.4872V19.4803V19.4735V19.4666V19.4598V19.453V19.4462V19.4394V19.4326V19.4258V19.4191V19.4124V19.4057V19.399V19.3924V19.3857V19.3791V19.3725V19.3659V19.3593V19.3527V19.3462V19.34H17.5C17.9142 19.34 18.25 19.0042 18.25 18.59V10.68C18.25 10.2657 17.9142 9.92995 17.5 9.92995H6.5ZM9.25 18.5901V18.59C9.25 18.1758 8.91421 17.84 8.5 17.84H7.25V11.43H16.75V17.84H15.5C15.0858 17.84 14.75 18.1758 14.75 18.59V18.5901V18.5902V18.5903V18.5906V18.5908V18.5911V18.5914V18.5918V18.5923V18.5927V18.5932V18.5938V18.5944V18.5951V18.5958V18.5965V18.5973V18.5981V18.599V18.5999V18.6008V18.6018V18.6029V18.6039V18.6051V18.6062V18.6074V18.6087V18.61V18.6113V18.6127V18.6141V18.6156V18.6171V18.6186V18.6202V18.6218V18.6235V18.6252V18.6269V18.6287V18.6305V18.6324V18.6343V18.6362V18.6382V18.6402V18.6423V18.6444V18.6466V18.6487V18.6509V18.6532V18.6555V18.6578V18.6602V18.6626V18.6651V18.6676V18.6701V18.6726V18.6752V18.6779V18.6805V18.6833V18.686V18.6888V18.6916V18.6945V18.6974V18.7003V18.7033V18.7063V18.7093V18.7124V18.7155V18.7186V18.7218V18.725V18.7283V18.7316V18.7349V18.7382V18.7416V18.745V18.7485V18.752V18.7555V18.7591V18.7627V18.7663V18.77V18.7737V18.7774V18.7811V18.7849V18.7888V18.7926V18.7965V18.8004V18.8044V18.8084V18.8124V18.8165V18.8205V18.8246V18.8288V18.833V18.8372V18.8414V18.8457V18.85V18.8543V18.8587V18.8631V18.8675V18.872V18.8764V18.881V18.8855V18.8901V18.8947V18.8993V18.904V18.9086V18.9134V18.9181V18.9229V18.9277V18.9325V18.9374V18.9423V18.9472V18.9521V18.9571V18.9621V18.9671V18.9722V18.9773V18.9824V18.9875V18.9927V18.9979V19.0031V19.0083V19.0136V19.0189V19.0242V19.0295V19.0349V19.0403V19.0457V19.0512V19.0566V19.0621V19.0677V19.0732V19.0788V19.0844V19.09V19.0956V19.1013V19.107V19.1127V19.1184V19.1242V19.13V19.1358V19.1416V19.1475V19.1534V19.1593V19.1652V19.1711V19.1771V19.1831V19.1891V19.1952V19.2012V19.2073V19.2134V19.2195V19.2256V19.2318V19.238V19.2442V19.2504V19.2567V19.2629V19.2692V19.2755V19.2819V19.2882V19.2946V19.301V19.3074V19.3138V19.3202V19.3267V19.3332V19.3397V19.3462V19.3527V19.3593V19.3659V19.3725V19.3791V19.3857V19.3924V19.399V19.4057V19.4124V19.4191V19.4258V19.4326V19.4394V19.4462V19.453V19.4598V19.4666V19.4735V19.4803V19.4872V19.4941V19.501V19.5079V19.5149V19.5218V19.5288V19.5358V19.5428V19.5498V19.5569V19.5639V19.571V19.578V19.5851V19.5922V19.5994V19.6065V19.6136V19.6208V19.628V19.6351V19.6423V19.6495V19.6568V19.664V19.6712V19.6785V19.6858V19.6931V19.7004V19.7077V19.715V19.7223V19.7297V19.737V19.7444V19.7517V19.7591V19.7665V19.7739V19.7813V19.7888V19.7962V19.8037V19.8111V19.8186V19.8261V19.8335V19.841V19.8485V19.8561V19.8636V19.8711V19.8786V19.8862V19.8938V19.9013V19.9089V19.9165V19.9241V19.9317V19.9393V19.9469V19.9545V19.9621V19.9697V19.9774V19.985V19.9927V20.0003V20.008V20.0157V20.0234V20.031V20.0387V20.0464V20.0541V20.0618V20.0695V20.0773V20.085V20.0927V20.1004V20.1082V20.1159V20.1237V20.1314V20.1392V20.1469V20.1547V20.1624V20.1702V20.178V20.1858V20.1935V20.2013V20.2091V20.2169V20.2247V20.2325V20.2403V20.2481V20.2558V20.2636V20.2715V20.2793V20.2871V20.2949V20.3027V20.3105V20.3183V20.3261V20.3339V20.3417V20.3495V20.3573V20.3652V20.373V20.3808V20.3886V20.3964V20.4042V20.412V20.4198V20.4276V20.4355V20.4433V20.4511V20.4589V20.4667V20.4745V20.4823V20.4901V20.4979V20.5057V20.5135V20.5212V20.529V20.5368V20.5446V20.5524V20.5601V20.5679V20.5757V20.5834V20.5912V20.5989V20.6067V20.6144V20.6222V20.6299V20.6377V20.6454V20.6531V20.6608V20.6686V20.6763V20.684V20.6917V20.6994V20.707V20.7147V20.7224V20.7301V20.7377V20.7454V20.753V20.7607V20.7683V20.776V20.7836V20.7912V20.7988V20.8064V20.814V20.8216V20.8292V20.8367V20.8443V20.8518V20.8594V20.8669V20.8745V20.882V20.8895V20.897V20.9045V20.912V20.9194V20.9269V20.9343V20.9418V20.9492V20.9566V20.9641V20.9715V20.9789V20.9862V20.9936V21.001V21.0083V21.0157V21.023V21.0303V21.0376V21.0449V21.0522V21.0594V21.0667V21.0739V21.0812V21.0884V21.0956V21.1028V21.11V21.1171V21.1243V21.1314V21.1385V21.1457V21.1528V21.1598V21.1669V21.174V21.181V21.188V21.1951V21.2021V21.209V21.216V21.223V21.2299V21.2368V21.2437V21.2506V21.2575V21.2644V21.2712V21.278V21.2848V21.2916V21.2984V21.3052V21.3119V21.3186V21.3254V21.3321V21.3387V21.3454V21.352V21.3587V21.3653V21.3718V21.3784V21.385V21.3915V21.398V21.4045V21.411V21.4174V21.4239V21.4303V21.4367V21.4431V21.4494V21.4558V21.4621V21.4684V21.4747V21.4809V21.4872V21.4934V21.4996V21.5058V21.5119V21.5181V21.5242V21.5303V21.5363V21.5424V21.5484V21.5544V21.5604V21.5664V21.5723V21.5782V21.5841V21.59C14.75 21.707 14.7233 21.7468 14.7199 21.7519L14.7197 21.7521C14.7138 21.7609 14.7006 21.7761 14.6646 21.7942C14.6256 21.8136 14.5776 21.8271 14.533 21.8346C14.5195 21.8368 14.5083 21.8382 14.5 21.839C14.4917 21.8382 14.4805 21.8368 14.467 21.8346C14.4224 21.8271 14.3744 21.8136 14.3354 21.7942C14.2994 21.7761 14.2862 21.7609 14.2803 21.7521L14.2801 21.7519C14.2767 21.7468 14.25 21.707 14.25 21.59V21.5841V21.5782V21.5723V21.5664V21.5604V21.5544V21.5484V21.5424V21.5363V21.5303V21.5242V21.5181V21.5119V21.5058V21.4996V21.4934V21.4872V21.4809V21.4747V21.4684V21.4621V21.4558V21.4494V21.4431V21.4367V21.4303V21.4239V21.4174V21.411V21.4045V21.398V21.3915V21.385V21.3784V21.3718V21.3653V21.3587V21.352V21.3454V21.3387V21.3321V21.3254V21.3186V21.3119V21.3052V21.2984V21.2916V21.2848V21.278V21.2712V21.2644V21.2575V21.2506V21.2437V21.2368V21.2299V21.223V21.216V21.209V21.2021V21.1951V21.188V21.181V21.174V21.1669V21.1598V21.1528V21.1457V21.1385V21.1314V21.1243V21.1171V21.11V21.1028V21.0956V21.0884V21.0812V21.0739V21.0667V21.0594V21.0522V21.0449V21.0376V21.0303V21.023V21.0157V21.0083V21.001V20.9936V20.9862V20.9789V20.9715V20.9641V20.9566V20.9492V20.9418V20.9343V20.9269V20.9194V20.912V20.9045V20.897V20.8895V20.882V20.8745V20.8669V20.8594V20.8518V20.8443V20.8367V20.8292V20.8216V20.814V20.8064V20.7988V20.7912V20.7836V20.776V20.7683V20.7607V20.753V20.7454V20.7377V20.7301V20.7224V20.7147V20.707V20.6994V20.6917V20.684V20.6763V20.6686V20.6608V20.6531V20.6454V20.6377V20.6299V20.6222V20.6144V20.6067V20.5989V20.5912V20.5834V20.5757V20.5679V20.5601V20.5524V20.5446V20.5368V20.529V20.5212V20.5135V20.5057V20.4979V20.4901V20.4823V20.4745V20.4667V20.4589V20.4511V20.4433V20.4355V20.4276V20.4198V20.412V20.4042V20.3964V20.3886V20.3808V20.373V20.3652V20.3573V20.3495V20.3417V20.3339V20.3261V20.3183V20.3105V20.3027V20.2949V20.2871V20.2793V20.2715V20.2636V20.2558V20.2481V20.2403V20.2325V20.2247V20.2169V20.2091V20.2013V20.1935V20.1858V20.178V20.1702V20.1624V20.1547V20.1469V20.1392V20.1314V20.1237V20.1159V20.1082V20.1004V20.0927V20.085V20.0773V20.0695V20.0618V20.0541V20.0464V20.0387V20.031V20.0234V20.0157V20.008V20.0003V19.9927V19.985V19.9774V19.9697V19.9621V19.9545V19.9469V19.9393V19.9317V19.9241V19.9165V19.9089V19.9013V19.8938V19.8862V19.8786V19.8711V19.8636V19.8561V19.8485V19.841V19.8335V19.8261V19.8186V19.8111V19.8037V19.7962V19.7888V19.7813V19.7739V19.7665V19.7591V19.7517V19.7444V19.737V19.7297V19.7223V19.715V19.7077V19.7004V19.6931V19.6858V19.6785V19.6712V19.664V19.6568V19.6495V19.6423V19.6351V19.628V19.6208V19.6136V19.6065V19.5994V19.5922V19.5851V19.578V19.571V19.5639V19.5569V19.5498V19.5428V19.5358V19.5288V19.5218V19.5149V19.5079V19.501V19.4941V19.4872V19.4803V19.4735V19.4666V19.4598V19.453V19.4462V19.4394V19.4326V19.4258V19.4191V19.4124V19.4057V19.399V19.3924V19.3857V19.3791V19.3725V19.3659V19.3593V19.3527V19.3462V19.3397V19.3332V19.3267V19.3202V19.3138V19.3074V19.301V19.2946V19.2882V19.2819V19.2755V19.2692V19.2629V19.2567V19.2504V19.2442V19.238V19.2318V19.2256V19.2195V19.2134V19.2073V19.2012V19.1952V19.1891V19.1831V19.1771V19.1711V19.1652V19.1593V19.1534V19.1475V19.1416V19.1358V19.13V19.1242V19.1184V19.1127V19.107V19.1013V19.0956V19.09V19.0844V19.0788V19.0732V19.0677V19.0621V19.0566V19.0512V19.0457V19.0403V19.0349V19.0295V19.0242V19.0189V19.0136V19.0083V19.0031V18.9979V18.9927V18.9875V18.9824V18.9773V18.9722V18.9671V18.9621V18.9571V18.9521V18.9472V18.9423V18.9374V18.9325V18.9277V18.9229V18.9181V18.9134V18.9086V18.904V18.8993V18.8947V18.8901V18.8855V18.881V18.8764V18.872V18.8675V18.8631V18.8587V18.8543V18.85V18.8457V18.8414V18.8372V18.833V18.8288V18.8246V18.8205V18.8165V18.8124V18.8084V18.8044V18.8004V18.7965V18.7926V18.7888V18.7849V18.7811V18.7774V18.7737V18.77V18.7663V18.7627V18.7591V18.7555V18.752V18.7485V18.745V18.7416V18.7382V18.7349V18.7316V18.7283V18.725V18.7218V18.7186V18.7155V18.7124V18.7093V18.7063V18.7033V18.7003V18.6974V18.6945V18.6916V18.6888V18.686V18.6833V18.6805V18.6779V18.6752V18.6726V18.6701V18.6676V18.6651V18.6626V18.6602V18.6578V18.6555V18.6532V18.6509V18.6487V18.6466V18.6444V18.6423V18.6402V18.6382V18.6362V18.6343V18.6324V18.6305V18.6287V18.6269V18.6252V18.6235V18.6218V18.6202V18.6186V18.6171V18.6156V18.6141V18.6127V18.6113V18.61V18.6087V18.6074V18.6062V18.6051V18.6039V18.6029V18.6018V18.6008V18.5999V18.599V18.5981V18.5973V18.5965V18.5958V18.5951V18.5944V18.5938V18.5932V18.5927V18.5923V18.5918V18.5914V18.5911V18.5908V18.5906V18.5903V18.5902V18.5901V18.59C14.25 18.1758 13.9142 17.84 13.5 17.84H10.5C10.0858 17.84 9.75 18.1758 9.75 18.59V18.5901V18.5902V18.5903V18.5906V18.5908V18.5911V18.5914V18.5918V18.5923V18.5927V18.5932V18.5938V18.5944V18.5951V18.5958V18.5965V18.5973V18.5981V18.599V18.5999V18.6008V18.6018V18.6029V18.6039V18.6051V18.6062V18.6074V18.6087V18.61V18.6113V18.6127V18.6141V18.6156V18.6171V18.6186V18.6202V18.6218V18.6235V18.6252V18.6269V18.6287V18.6305V18.6324V18.6343V18.6362V18.6382V18.6402V18.6423V18.6444V18.6466V18.6487V18.6509V18.6532V18.6555V18.6578V18.6602V18.6626V18.6651V18.6676V18.6701V18.6726V18.6752V18.6779V18.6805V18.6833V18.686V18.6888V18.6916V18.6945V18.6974V18.7003V18.7033V18.7063V18.7093V18.7124V18.7155V18.7186V18.7218V18.725V18.7283V18.7316V18.7349V18.7382V18.7416V18.745V18.7485V18.752V18.7555V18.7591V18.7627V18.7663V18.77V18.7737V18.7774V18.7811V18.7849V18.7888V18.7926V18.7965V18.8004V18.8044V18.8084V18.8124V18.8165V18.8205V18.8246V18.8288V18.833V18.8372V18.8414V18.8457V18.85V18.8543V18.8587V18.8631V18.8675V18.872V18.8764V18.881V18.8855V18.8901V18.8947V18.8993V18.904V18.9086V18.9134V18.9181V18.9229V18.9277V18.9325V18.9374V18.9423V18.9472V18.9521V18.9571V18.9621V18.9671V18.9722V18.9773V18.9824V18.9875V18.9927V18.9979V19.0031V19.0083V19.0136V19.0189V19.0242V19.0295V19.0349V19.0403V19.0457V19.0512V19.0566V19.0621V19.0677V19.0732V19.0788V19.0844V19.09V19.0956V19.1013V19.107V19.1127V19.1184V19.1242V19.13V19.1358V19.1416V19.1475V19.1534V19.1593V19.1652V19.1711V19.1771V19.1831V19.1891V19.1952V19.2012V19.2073V19.2134V19.2195V19.2256V19.2318V19.238V19.2442V19.2504V19.2567V19.2629V19.2692V19.2755V19.2819V19.2882V19.2946V19.301V19.3074V19.3138V19.3202V19.3267V19.3332V19.3397V19.3462V19.3527V19.3593V19.3659V19.3725V19.3791V19.3857V19.3924V19.399V19.4057V19.4124V19.4191V19.4258V19.4326V19.4394V19.4462V19.453V19.4598V19.4666V19.4735V19.4803V19.4872V19.4941V19.501V19.5079V19.5149V19.5218V19.5288V19.5358V19.5428V19.5498V19.5569V19.5639V19.571V19.578V19.5851V19.5922V19.5994V19.6065V19.6136V19.6208V19.628V19.6351V19.6423V19.6495V19.6568V19.664V19.6712V19.6785V19.6858V19.6931V19.7004V19.7077V19.715V19.7223V19.7297V19.737V19.7444V19.7517V19.7591V19.7665V19.7739V19.7813V19.7888V19.7962V19.8037V19.8111V19.8186V19.8261V19.8335V19.841V19.8485V19.8561V19.8636V19.8711V19.8786V19.8862V19.8938V19.9013V19.9089V19.9165V19.9241V19.9317V19.9393V19.9469V19.9545V19.9621V19.9697V19.9774V19.985V19.9927V20.0003V20.008V20.0157V20.0234V20.031V20.0387V20.0464V20.0541V20.0618V20.0695V20.0773V20.085V20.0927V20.1004V20.1082V20.1159V20.1237V20.1314V20.1392V20.1469V20.1547V20.1624V20.1702V20.178V20.1858V20.1935V20.2013V20.2091V20.2169V20.2247V20.2325V20.2403V20.2481V20.2558V20.2636V20.2715V20.2793V20.2871V20.2949V20.3027V20.3105V20.3183V20.3261V20.3339V20.3417V20.3495V20.3573V20.3652V20.373V20.3808V20.3886V20.3964V20.4042V20.412V20.4198V20.4276V20.4355V20.4433V20.4511V20.4589V20.4667V20.4745V20.4823V20.4901V20.4979V20.5057V20.5135V20.5212V20.529V20.5368V20.5446V20.5524V20.5601V20.5679V20.5757V20.5834V20.5912V20.5989V20.6067V20.6144V20.6222V20.6299V20.6377V20.6454V20.6531V20.6608V20.6686V20.6763V20.684V20.6917V20.6994V20.707V20.7147V20.7224V20.7301V20.7377V20.7454V20.753V20.7607V20.7683V20.776V20.7836V20.7912V20.7988V20.8064V20.814V20.8216V20.8292V20.8367V20.8443V20.8518V20.8594V20.8669V20.8745V20.882V20.8895V20.897V20.9045V20.912V20.9194V20.9269V20.9343V20.9418V20.9492V20.9566V20.9641V20.9715V20.9789V20.9862V20.9936V21.001V21.0083V21.0157V21.023V21.0303V21.0376V21.0449V21.0522V21.0594V21.0667V21.0739V21.0812V21.0884V21.0956V21.1028V21.11V21.1171V21.1243V21.1314V21.1385V21.1457V21.1528V21.1598V21.1669V21.174V21.181V21.188V21.1951V21.2021V21.209V21.216V21.223V21.2299V21.2368V21.2437V21.2506V21.2575V21.2644V21.2712V21.278V21.2848V21.2916V21.2984V21.3052V21.3119V21.3186V21.3254V21.3321V21.3387V21.3454V21.352V21.3587V21.3653V21.3718V21.3784V21.385V21.3915V21.398V21.4045V21.411V21.4174V21.4239V21.4303V21.4367V21.4431V21.4494V21.4558V21.4621V21.4684V21.4747V21.4809V21.4872V21.4934V21.4996V21.5058V21.5119V21.5181V21.5242V21.5303V21.5363V21.5424V21.5484V21.5544V21.5604V21.5664V21.5723V21.5782V21.5841V21.59C9.75 21.707 9.72329 21.7468 9.71985 21.7519L9.71971 21.7521C9.71383 21.7609 9.70062 21.7761 9.66459 21.7942C9.62563 21.8136 9.57758 21.8271 9.53295 21.8346C9.51952 21.8368 9.50826 21.8382 9.5 21.839C9.49174 21.8382 9.48048 21.8368 9.46705 21.8346C9.42242 21.8271 9.37437 21.8136 9.33541 21.7942C9.29938 21.7761 9.28617 21.7609 9.28029 21.7521L9.28015 21.7519C9.27671 21.7468 9.25 21.707 9.25 21.59V21.5841V21.5782V21.5723V21.5664V21.5604V21.5544V21.5484V21.5424V21.5363V21.5303V21.5242V21.5181V21.5119V21.5058V21.4996V21.4934V21.4872V21.4809V21.4747V21.4684V21.4621V21.4558V21.4494V21.4431V21.4367V21.4303V21.4239V21.4174V21.411V21.4045V21.398V21.3915V21.385V21.3784V21.3718V21.3653V21.3587V21.352V21.3454V21.3387V21.3321V21.3254V21.3186V21.3119V21.3052V21.2984V21.2916V21.2848V21.278V21.2712V21.2644V21.2575V21.2506V21.2437V21.2368V21.2299V21.223V21.216V21.209V21.2021V21.1951V21.188V21.181V21.174V21.1669V21.1598V21.1528V21.1457V21.1385V21.1314V21.1243V21.1171V21.11V21.1028V21.0956V21.0884V21.0812V21.0739V21.0667V21.0594V21.0522V21.0449V21.0376V21.0303V21.023V21.0157V21.0083V21.001V20.9936V20.9862V20.9789V20.9715V20.9641V20.9566V20.9492V20.9418V20.9343V20.9269V20.9194V20.912V20.9045V20.897V20.8895V20.882V20.8745V20.8669V20.8594V20.8518V20.8443V20.8367V20.8292V20.8216V20.814V20.8064V20.7988V20.7912V20.7836V20.776V20.7683V20.7607V20.753V20.7454V20.7377V20.7301V20.7224V20.7147V20.707V20.6994V20.6917V20.684V20.6763V20.6686V20.6608V20.6531V20.6454V20.6377V20.6299V20.6222V20.6144V20.6067V20.5989V20.5912V20.5834V20.5757V20.5679V20.5601V20.5524V20.5446V20.5368V20.529V20.5212V20.5135V20.5057V20.4979V20.4901V20.4823V20.4745V20.4667V20.4589V20.4511V20.4433V20.4355V20.4276V20.4198V20.412V20.4042V20.3964V20.3886V20.3808V20.373V20.3652V20.3573V20.3495V20.3417V20.3339V20.3261V20.3183V20.3105V20.3027V20.2949V20.2871V20.2793V20.2715V20.2636V20.2558V20.2481V20.2403V20.2325V20.2247V20.2169V20.2091V20.2013V20.1935V20.1858V20.178V20.1702V20.1624V20.1547V20.1469V20.1392V20.1314V20.1237V20.1159V20.1082V20.1004V20.0927V20.085V20.0773V20.0695V20.0618V20.0541V20.0464V20.0387V20.031V20.0234V20.0157V20.008V20.0003V19.9927V19.985V19.9774V19.9697V19.9621V19.9545V19.9469V19.9393V19.9317V19.9241V19.9165V19.9089V19.9013V19.8938V19.8862V19.8786V19.8711V19.8636V19.8561V19.8485V19.841V19.8335V19.8261V19.8186V19.8111V19.8037V19.7962V19.7888V19.7813V19.7739V19.7665V19.7591V19.7517V19.7444V19.737V19.7297V19.7223V19.715V19.7077V19.7004V19.6931V19.6858V19.6785V19.6712V19.664V19.6568V19.6495V19.6423V19.6351V19.628V19.6208V19.6136V19.6065V19.5994V19.5922V19.5851V19.578V19.571V19.5639V19.5569V19.5498V19.5428V19.5358V19.5288V19.5218V19.5149V19.5079V19.501V19.4941V19.4872V19.4803V19.4735V19.4666V19.4598V19.453V19.4462V19.4394V19.4326V19.4258V19.4191V19.4124V19.4057V19.399V19.3924V19.3857V19.3791V19.3725V19.3659V19.3593V19.3527V19.3462V19.3397V19.3332V19.3267V19.3202V19.3138V19.3074V19.301V19.2946V19.2882V19.2819V19.2755V19.2692V19.2629V19.2567V19.2504V19.2442V19.238V19.2318V19.2256V19.2195V19.2134V19.2073V19.2012V19.1952V19.1891V19.1831V19.1771V19.1711V19.1652V19.1593V19.1534V19.1475V19.1416V19.1358V19.13V19.1242V19.1184V19.1127V19.107V19.1013V19.0956V19.09V19.0844V19.0788V19.0732V19.0677V19.0621V19.0566V19.0512V19.0457V19.0403V19.0349V19.0295V19.0242V19.0189V19.0136V19.0083V19.0031V18.9979V18.9927V18.9875V18.9824V18.9773V18.9722V18.9671V18.9621V18.9571V18.9521V18.9472V18.9423V18.9374V18.9325V18.9277V18.9229V18.9181V18.9134V18.9086V18.904V18.8993V18.8947V18.8901V18.8855V18.881V18.8764V18.872V18.8675V18.8631V18.8587V18.8543V18.85V18.8457V18.8414V18.8372V18.833V18.8288V18.8246V18.8205V18.8165V18.8124V18.8084V18.8044V18.8004V18.7965V18.7926V18.7888V18.7849V18.7811V18.7774V18.7737V18.77V18.7663V18.7627V18.7591V18.7555V18.752V18.7485V18.745V18.7416V18.7382V18.7349V18.7316V18.7283V18.725V18.7218V18.7186V18.7155V18.7124V18.7093V18.7063V18.7033V18.7003V18.6974V18.6945V18.6916V18.6888V18.686V18.6833V18.6805V18.6779V18.6752V18.6726V18.6701V18.6676V18.6651V18.6626V18.6602V18.6578V18.6555V18.6532V18.6509V18.6487V18.6466V18.6444V18.6423V18.6402V18.6382V18.6362V18.6343V18.6324V18.6305V18.6287V18.6269V18.6252V18.6235V18.6218V18.6202V18.6186V18.6171V18.6156V18.6141V18.6127V18.6113V18.61V18.6087V18.6074V18.6062V18.6051V18.6039V18.6029V18.6018V18.6008V18.5999V18.599V18.5981V18.5973V18.5965V18.5958V18.5951V18.5944V18.5938V18.5932V18.5927V18.5923V18.5918V18.5914V18.5911V18.5908V18.5906V18.5903V18.5902V18.5901ZM20.5 10.84C20.3619 10.84 20.25 10.9519 20.25 11.09V15.09C20.25 15.2281 20.3619 15.34 20.5 15.34C20.6381 15.34 20.75 15.2281 20.75 15.09V11.09C20.75 10.9519 20.6381 10.84 20.5 10.84ZM18.75 11.09C18.75 10.1235 19.5335 9.33998 20.5 9.33998C21.4665 9.33998 22.25 10.1235 22.25 11.09V15.09C22.25 16.0565 21.4665 16.84 20.5 16.84C19.5335 16.84 18.75 16.0565 18.75 15.09V11.09ZM3.25 11.09C3.25 10.9519 3.36193 10.84 3.5 10.84C3.63807 10.84 3.75 10.9519 3.75 11.09V15.09C3.75 15.2281 3.63807 15.34 3.5 15.34C3.36193 15.34 3.25 15.2281 3.25 15.09V11.09ZM3.5 9.33998C2.5335 9.33998 1.75 10.1235 1.75 11.09V15.09C1.75 16.0565 2.5335 16.84 3.5 16.84C4.4665 16.84 5.25 16.0565 5.25 15.09V11.09C5.25 10.1235 4.4665 9.33998 3.5 9.33998ZM10.2812 6.33998C10.2812 6.7542 9.94546 7.08998 9.53125 7.08998C9.11704 7.08998 8.78125 6.7542 8.78125 6.33998C8.78125 5.92577 9.11704 5.58998 9.53125 5.58998C9.94546 5.58998 10.2812 5.92577 10.2812 6.33998ZM14.4678 7.08998C14.882 7.08998 15.2178 6.7542 15.2178 6.33998C15.2178 5.92577 14.882 5.58998 14.4678 5.58998C14.0536 5.58998 13.7178 5.92577 13.7178 6.33998C13.7178 6.7542 14.0536 7.08998 14.4678 7.08998Z" fill="white"/>
</svg>
