<svg width="24" height="25" viewBox="0 0 24 25" fill="none" xmlns="http://www.w3.org/2000/svg">
<path d="M18.3757 5.80844C17.8253 5.24379 17.197 4.76075 16.5098 4.374C15.7384 3.96802 14.3506 3.28839 12.3801 3.24253C11.8283 3.22975 11.2847 3.26509 10.7457 3.35079C10.2044 3.4365 9.69465 3.57032 9.15335 3.7718C8.38877 4.05523 7.65275 4.50481 7.21821 4.94011C7.65651 4.67773 8.32787 4.38903 9.13531 4.19432C10.0538 3.97835 11.0046 3.93577 11.9388 4.06876C13.6988 4.32438 15.0798 5.10701 16.0587 6.04225C16.4334 6.39683 16.7613 6.79777 17.0345 7.23537C18.1382 9.02617 18.0344 11.2771 17.1729 12.6048C16.5338 13.5911 15.1655 14.5174 13.8875 14.5068C13.4492 14.4895 12.8064 14.3926 12.1959 14.0813C10.2194 13.0716 9.92471 10.5568 11.3554 9.34042C10.8802 9.23817 9.9871 9.43816 9.36611 10.3651C8.80827 11.1974 8.83985 12.4822 9.18418 13.3934C8.96396 12.9441 8.81435 12.4636 8.74061 11.9687C8.59707 10.9943 8.70472 9.99927 9.05336 9.07804C9.2991 8.42261 9.6545 7.81374 10.1044 7.27747C10.778 6.47379 11.5388 5.98436 12.1718 5.7701C11.7659 5.416 11.1111 5.21527 10.3517 5.19347C9.24733 5.16039 7.7565 5.51975 6.53331 6.53393C5.92586 7.03756 5.42142 7.6538 5.04775 8.34879C4.70567 8.9773 4.52825 9.59603 4.52374 9.61032C4.61546 8.52396 5.05301 7.35942 5.46199 6.56175C4.86806 6.87225 4.08844 7.81576 3.65014 8.84874C3.07125 10.2629 2.84947 11.9454 3.10508 13.7355C3.83133 17.9967 7.54073 21.24 12.0087 21.24C16.9984 21.24 21.0431 17.1953 21.0431 12.2071C21.0453 11.0169 20.8106 9.83817 20.3526 8.73962C19.8947 7.64107 19.2227 6.64466 18.3757 5.80844Z" fill="white"/>
</svg>
