<svg width="24" height="25" viewBox="0 0 24 25" fill="none" xmlns="http://www.w3.org/2000/svg">
<path d="M8.11233 17.9421C7.98962 17.86 7.83689 17.8363 7.69508 17.8774C7.48924 17.9371 6.83014 18.0919 6.20088 18.2364C6.05927 18.2689 5.92053 18.3005 5.79075 18.33C5.82022 18.2018 5.85175 18.0648 5.88402 17.9248C6.02736 17.3028 6.18375 16.6287 6.24129 16.3963C6.27505 16.2599 6.24987 16.1156 6.17191 15.9987C5.43156 14.8887 5 13.5555 5 12.12C5 8.254 8.13401 5.12 12 5.12C15.866 5.12 19 8.254 19 12.12C19 15.986 15.866 19.12 12 19.12C10.5607 19.12 9.22418 18.6861 8.11233 17.9421Z" stroke="white" stroke-linecap="round" stroke-linejoin="round"/>
<path d="M21.125 12.12C21.125 17.1596 17.0396 21.245 12 21.245C10.1246 21.245 8.38142 20.6792 6.93168 19.7091C6.38887 19.8665 3.63639 20.4818 3.63639 20.4818C3.63639 20.4818 4.26006 17.7543 4.40306 17.1766C3.43771 15.7292 2.875 13.9903 2.875 12.12C2.875 7.08039 6.9604 2.995 12 2.995C17.0396 2.995 21.125 7.08039 21.125 12.12Z" stroke="white" stroke-linecap="round" stroke-linejoin="round" stroke-dasharray="3 1.8"/>
</svg>
