<svg width="24" height="25" viewBox="0 0 24 25" fill="none" xmlns="http://www.w3.org/2000/svg">
<path d="M19 4.77002H11V14.77H21V6.77002C21 5.82721 21 5.35581 20.7071 5.06291C20.4142 4.77002 19.9428 4.77002 19 4.77002Z" stroke="white" stroke-width="1.5" stroke-linecap="round" stroke-linejoin="round"/>
<path d="M7 4.77002H6C5.05719 4.77002 4.58579 4.77002 4.29289 5.06291C4 5.35581 4 5.82721 4 6.77002V7.77002H7V4.77002Z" stroke="white" stroke-width="1.5" stroke-linecap="round" stroke-linejoin="round"/>
<path d="M7 11.77H4V14.77H7V11.77Z" stroke="white" stroke-width="1.5" stroke-linecap="round" stroke-linejoin="round"/>
<path d="M7 18.77H4V19.77C4 20.7128 4 21.1842 4.29289 21.4771C4.58579 21.77 5.05719 21.77 6 21.77H7V18.77Z" stroke="white" stroke-width="1.5" stroke-linecap="round" stroke-linejoin="round"/>
<path d="M14 18.77H11V21.77H14V18.77Z" stroke="white" stroke-width="1.5" stroke-linecap="round" stroke-linejoin="round"/>
<path d="M21 18.77H18V21.77H19C19.9428 21.77 20.4142 21.77 20.7071 21.4771C21 21.1842 21 20.7128 21 19.77V18.77Z" stroke="white" stroke-width="1.5" stroke-linecap="round" stroke-linejoin="round"/>
</svg>
