<svg width="24" height="25" viewBox="0 0 24 25" fill="none" xmlns="http://www.w3.org/2000/svg">
<path d="M9.11049 18.0655C5.33401 19.255 5.51024 15.6424 4 15.2459M15.1524 21.59V16.5676C15.1524 15.6865 15.1767 15.0653 14.6489 14.541C17.1081 14.2767 19.1804 13.4003 19.1804 9.28199C19.177 8.22124 18.7549 7.20474 18.0059 6.4536C18.1826 5.99852 18.2674 5.51291 18.2553 5.02486C18.2432 4.53681 18.1345 4.056 17.9354 3.61023C17.9354 3.61023 17.0102 3.34589 14.8726 4.72661C13.0752 4.2581 11.1877 4.2581 9.3903 4.72661C7.25182 3.34589 6.32753 3.61023 6.32753 3.61023C6.12845 4.056 6.01972 4.53681 6.00762 5.02486C5.99552 5.51291 6.08029 5.99852 6.25704 6.4536C5.88337 6.82827 5.58728 7.27298 5.38574 7.76225C5.1842 8.25152 5.08115 8.77575 5.0825 9.3049C5.0825 13.3933 7.15478 14.2467 9.61399 14.541C9.09324 15.06 9.05762 15.9358 9.11049 16.6557V21.59" stroke="white" stroke-width="1.5" stroke-linecap="round" stroke-linejoin="round"/>
</svg>
