<svg width="24" height="25" viewBox="0 0 24 25" fill="none" xmlns="http://www.w3.org/2000/svg">
<path d="M16.5408 13.7735C16.5322 12.2981 17.1953 11.1861 18.5343 10.3662C17.7854 9.28452 16.6524 8.6896 15.1588 8.57494C13.7446 8.46244 12.1974 9.40567 11.6309 9.40567C11.0322 9.40567 9.66309 8.61388 8.58584 8.61388C6.36266 8.64849 4 10.4008 4 13.9661C4 15.0196 4.19099 16.1078 4.57296 17.2284C5.08369 18.7039 6.92489 22.3189 8.84549 22.2605C9.84979 22.2367 10.5601 21.5422 11.867 21.5422C13.1352 21.5422 13.7918 22.2605 14.912 22.2605C16.8498 22.2323 18.515 18.9462 19 17.4664C16.4013 16.2311 16.5408 13.8493 16.5408 13.7735ZM14.2729 5.83265C15.3609 4.5303 15.2622 3.34476 15.23 2.91858C14.2686 2.97483 13.157 3.57841 12.524 4.32045C11.8265 5.11657 11.4167 6.10091 11.5047 7.21072C12.5433 7.29076 13.4918 6.75208 14.2729 5.83265Z" stroke="white" stroke-width="1.5" stroke-linecap="round" stroke-linejoin="round"/>
</svg>
