<svg width="24" height="25" viewBox="0 0 24 25" fill="none" xmlns="http://www.w3.org/2000/svg">
<path d="M15.2 11.7743V10.0314C15.2 9.06887 15.9803 8.28856 16.9428 8.28856C17.9054 8.28856 18.6857 9.06886 18.6857 10.0314C18.6857 10.994 17.9054 11.7743 16.9429 11.7743H15.2ZM15.2 11.7743L11.7143 11.7743M15.2 11.7743L15.2 4.80286C15.2 3.8403 14.4197 3.06 13.4571 3.06C12.4946 3.06 11.7143 3.8403 11.7143 4.80286V11.7743M11.7143 11.7743L11.7143 8.28856M11.7143 11.7743L4.74285 11.7743C3.7803 11.7743 3 10.994 3 10.0314C3 9.06886 3.7803 8.28856 4.74285 8.28856H11.7143M11.7143 11.7743L18.6857 11.7743C19.6483 11.7743 20.4286 12.5546 20.4286 13.5171C20.4286 14.4797 19.6483 15.26 18.6857 15.26H11.7143M11.7143 11.7743V15.26M11.7143 11.7743L8.22857 11.7743M11.7143 11.7743L11.7143 18.7457C11.7143 19.7083 10.934 20.4886 9.97141 20.4886C9.00887 20.4886 8.22857 19.7083 8.22857 18.7457V11.7743M11.7143 8.28856V6.5457C11.7143 5.58315 10.934 4.80285 9.97141 4.80285C9.00887 4.80285 8.22857 5.58316 8.22857 6.5457C8.22857 7.50826 9.00887 8.28856 9.97142 8.28856H11.7143ZM11.7143 15.26H13.4571C14.4197 15.26 15.2 16.0403 15.2 17.0028C15.2 17.9654 14.4197 18.7457 13.4571 18.7457C12.4946 18.7457 11.7143 17.9654 11.7143 17.0028V15.26ZM8.22857 11.7743V13.5171C8.22857 14.4797 7.44826 15.26 6.48571 15.26C5.52316 15.26 4.74286 14.4797 4.74286 13.5171C4.74286 12.5546 5.52316 11.7743 6.48571 11.7743H8.22857Z" stroke="white" stroke-width="1.5" stroke-linecap="round" stroke-linejoin="round"/>
</svg>
