<svg width="26" height="26" viewBox="0 0 26 26" fill="none" xmlns="http://www.w3.org/2000/svg">
<path d="M16.4284 9.69141C15.6967 8.95965 14.7042 8.54855 13.6693 8.54855H11.857C10.5946 8.54855 9.57129 9.5719 9.57129 10.8343C9.57129 12.0966 10.5946 13.12 11.857 13.12H14.1427C15.4051 13.12 16.4284 14.1433 16.4284 15.4057C16.4284 16.6681 15.4051 17.6914 14.1427 17.6914H12.3304C11.2955 17.6914 10.303 17.2803 9.57129 16.5485M23.3333 14.4924C23.3939 14.0422 23.4346 13.5861 23.4346 13.12C23.4346 7.357 18.7618 2.6852 12.9999 2.6852C12.5338 2.6852 12.0776 2.72693 11.6274 2.78557C10.5998 2.09488 9.3616 1.69141 8.03092 1.69141C4.46321 1.69141 1.57129 4.58333 1.57129 8.15103C1.57129 9.48271 1.97478 10.72 2.66546 11.7476C2.60584 12.1977 2.56508 12.6539 2.56508 13.12C2.56508 18.883 7.23688 23.5548 12.9999 23.5548C13.465 23.5548 13.9211 23.514 14.3713 23.4544C15.3999 24.1451 16.6371 24.5486 17.9688 24.5486C21.5355 24.5486 24.4284 21.6566 24.4284 18.0889C24.4284 16.7572 24.024 15.52 23.3333 14.4924Z" stroke="white" stroke-width="1.5" stroke-linecap="round" stroke-linejoin="round"/>
</svg>
