<svg width="24" height="25" viewBox="0 0 24 25" fill="none" xmlns="http://www.w3.org/2000/svg">
<path d="M11.4996 3.05994C9.86341 3.05994 8.41985 3.64359 7.39987 4.87466C6.49038 5.97256 5.97472 8.20377 5.88972 10.0681L5.78631 10.0822L5.75514 10.0879C5.58079 10.112 5.40697 10.1399 5.23382 10.1715C4.57508 10.2976 3.32701 10.6333 3.04793 11.9805C2.91619 12.611 3.06352 13.1606 3.39785 13.587C3.69676 13.9681 4.10192 14.1948 4.40083 14.3378C4.52833 14.3959 4.65724 14.4512 4.78899 14.5036C4.4915 15.3309 3.96875 16.1809 3.39076 16.9516C2.8496 17.6712 2.9941 18.5849 3.27318 19.1799C3.55226 19.7763 4.08067 19.7494 4.96182 19.7891C5.46048 19.8103 5.98464 19.8613 6.50596 19.9591C6.74113 20.0016 7.01879 20.0979 7.36445 20.2424C7.56561 20.3274 7.76536 20.4167 7.96369 20.5073C8.12377 20.581 8.2966 20.6575 8.49351 20.7439C9.30525 21.0981 10.3012 21.4763 11.4061 21.4763C12.5111 21.4763 13.507 21.0981 14.3173 20.7439C14.5157 20.6589 14.6857 20.581 14.8486 20.5073L14.884 20.4903C15.0752 20.4053 15.2523 20.3246 15.4478 20.2438C15.7921 20.0979 16.0711 20.003 16.3063 19.9591C16.8165 19.867 17.3324 19.8102 17.8505 19.7891C18.7316 19.7494 19.4144 19.7763 19.6963 19.1799C19.9754 18.5849 20.1185 17.6712 19.5773 16.9516C19.0022 16.1866 18.4837 15.3422 18.1848 14.5206C18.3123 14.471 18.4639 14.4115 18.6169 14.3407C18.9229 14.2018 19.3507 13.9709 19.651 13.5714C19.9981 13.1096 20.0972 12.5245 19.8989 11.8941C19.5023 10.639 18.3519 10.3047 17.6776 10.1715C17.5107 10.1397 17.343 10.1123 17.1747 10.0893L17.1577 10.0865L17.0784 10.0737C16.9863 8.3256 16.4976 6.11422 15.6107 5.00074C14.6092 3.74701 13.1741 3.05994 11.4996 3.05994Z" stroke="white" stroke-width="1.5" stroke-linejoin="round"/>
</svg>
