<svg width="24" height="25" viewBox="0 0 24 25" fill="none" xmlns="http://www.w3.org/2000/svg">
<path d="M18.594 9.74314C18.4526 9.87943 18.3702 10.0658 18.3647 10.2621C18.2932 12.7958 17.2878 15.2647 15.5928 17.0696C13.6139 19.1768 10.871 20.31 7.61121 20.31C4.7773 20.31 3.23944 19.0497 3.0148 18.8512C3.47544 18.7601 4.2339 18.5497 4.99928 18.2134C5.75542 17.8811 6.61873 17.3829 7.16677 16.6722C7.30016 16.4992 7.35151 16.2766 7.30738 16.0627C7.26325 15.8487 7.12803 15.6647 6.93708 15.5586C6.08697 15.0863 5.33363 14.4712 4.71238 13.7438L4.71217 13.7435C2.52777 11.1879 2.54006 7.93866 2.98874 5.5536C2.99062 5.5525 2.99353 5.55114 2.99764 5.55014C3.00565 5.54819 3.01433 5.5486 3.02154 5.55094L3.25263 4.83743L3.02154 5.55094C3.02786 5.55298 3.03031 5.55554 3.03032 5.55554L3.03143 5.55687C3.07782 5.61244 5.72742 8.74819 9.72482 9.78265C9.94946 9.84078 10.1884 9.79166 10.3718 9.64962C10.5553 9.50757 10.6627 9.2886 10.6627 9.05657V8.49757C10.6701 7.52292 11.0782 6.58486 11.8075 5.8911C12.5375 5.1965 13.5295 4.80477 14.5669 4.81005C15.2394 4.81948 15.8963 4.99662 16.4735 5.32236C17.0514 5.64847 17.5283 6.1115 17.8601 6.6636C17.9957 6.88921 18.2397 7.02722 18.5029 7.02722H21.413L18.594 9.74314ZM21.4425 6.99886L21.4424 6.9989C21.4425 6.99887 21.4425 6.99887 21.4425 6.99886Z" stroke="white" stroke-width="1.5" stroke-linecap="round" stroke-linejoin="round"/>
</svg>
