<svg width="24" height="25" viewBox="0 0 24 25" fill="none" xmlns="http://www.w3.org/2000/svg">
<path d="M12.0214 20.7698C11.3518 20.775 10.6847 20.688 10.0389 20.5113C9.90169 20.4713 9.78118 20.3878 9.69544 20.2735C9.60971 20.1592 9.56337 20.0201 9.5634 19.8772L9.56134 12.6323C9.54901 11.5729 9.11381 10.672 8.30462 10.0256C7.19214 9.14118 5.45993 8.81776 3.78649 9.18392C3.67055 9.21043 3.5496 9.20499 3.4365 9.16819C3.32341 9.13139 3.22242 9.06461 3.14428 8.97495C3.06613 8.8853 3.01377 8.77613 2.99276 8.65907C2.97175 8.54201 2.98289 8.42145 3.02497 8.31022C3.21607 7.79774 3.45977 7.18993 3.81978 6.56773C4.15095 5.98526 4.56115 5.45142 5.03869 4.98141C5.14223 4.88237 5.27505 4.81952 5.41729 4.80226C5.55952 4.785 5.70352 4.81426 5.82774 4.88566L11.9416 8.41542L12.106 8.51118C13.0414 9.02981 14.0318 9.10091 14.9914 8.72241C16.3131 8.20213 17.4572 6.86404 17.9803 5.23128C18.0161 5.11806 18.0818 5.01659 18.1704 4.93756C18.2591 4.85852 18.3674 4.80484 18.4839 4.78217C18.6005 4.7595 18.721 4.76867 18.8328 4.80872C18.9446 4.84878 19.0435 4.91823 19.1191 5.00977C19.4668 5.4306 19.8716 5.94718 20.2312 6.56938C20.571 7.14626 20.8291 7.76755 20.998 8.41542C21.0321 8.55442 21.0202 8.7007 20.9641 8.83236C20.908 8.96401 20.8108 9.07395 20.6869 9.1457L14.5348 12.6972L14.3676 12.7951C13.4749 13.3379 12.9259 14.1656 12.7796 15.184C12.5782 16.5813 13.1659 18.2342 14.3125 19.495C14.393 19.5825 14.4482 19.6901 14.4724 19.8065C14.4965 19.9228 14.4887 20.0435 14.4498 20.1558C14.4119 20.2684 14.344 20.3685 14.2532 20.4451C14.1625 20.5218 14.0525 20.5721 13.9352 20.5906C13.3878 20.6761 12.7393 20.7698 12.0214 20.7698Z" stroke="white" stroke-width="1.5"/>
<path d="M3.28906 9.02002L9.53906 12.8638" stroke="white" stroke-width="1.5" stroke-linecap="round" stroke-linejoin="round"/>
<path d="M18.3516 4.80127L12.0703 8.39502" stroke="white" stroke-width="1.5" stroke-linecap="round" stroke-linejoin="round"/>
<path d="M14.4766 19.8013V12.77" stroke="white" stroke-width="1.5" stroke-linecap="round" stroke-linejoin="round"/>
</svg>
