<svg width="24" height="25" viewBox="0 0 24 25" fill="none" xmlns="http://www.w3.org/2000/svg">
<path d="M9.03825 7.16849C8.04225 8.34299 7.39875 10.0807 7.35375 12.0285V12.4515C7.3995 14.4 8.04225 16.1355 9.03825 17.3107C10.329 18.9877 12.2475 20.0512 14.3925 20.0512C15.7095 20.0512 16.9425 19.6485 17.9977 18.948C16.4093 20.3745 14.3055 21.24 12 21.24C11.856 21.24 11.7128 21.237 11.5725 21.2295C6.798 21.0067 3 17.067 3 12.24C3 7.26824 7.02975 3.23999 12 3.23999H12.0338C14.325 3.24899 16.4137 4.11449 17.9985 5.53124C16.9425 4.83374 15.7102 4.42799 14.391 4.42799C12.2475 4.42799 10.3283 5.49299 9.036 7.16849H9.03825ZM21 12.24C21 14.907 19.8412 17.301 17.9985 18.9487C15.69 20.0737 13.539 19.287 12.8265 18.795C15.0938 18.297 16.8068 15.555 16.8068 12.24C16.8068 8.92349 15.0945 6.18374 12.8265 5.68499C13.5382 5.19449 15.69 4.40774 17.9985 5.53124C19.8412 7.17749 21 9.57374 21 12.24Z" fill="white"/>
</svg>
