<svg width="24" height="25" viewBox="0 0 24 25" fill="none" xmlns="http://www.w3.org/2000/svg">
<path d="M9.27501 12.5843L10.3096 11.5497C10.5052 11.3541 10.5996 11.0791 10.5653 10.8046L10.363 9.18672C10.2777 8.50373 9.48631 8.16778 8.93567 8.58076L8.37858 8.99858V9.89501C8.37858 13.3606 11.188 16.17 14.6536 16.17H15.55L15.9474 15.6981C16.3999 15.1608 16.0866 14.3354 15.3915 14.2337L13.7543 13.9941C13.4741 13.9531 13.1909 14.047 12.9906 14.2472L11.9643 15.2736M3.00001 12.5843C3.00001 14.6026 3.66701 16.4651 4.7926 17.9634L3 21.5486L6.5852 19.756C8.08351 20.8816 9.94602 21.5486 11.9643 21.5486C16.9151 21.5486 20.9286 17.5351 20.9286 12.5843C20.9286 7.63345 16.9151 3.62 11.9643 3.62C7.01346 3.62 3.00001 7.63345 3.00001 12.5843Z" stroke="white" stroke-width="1.5" stroke-linecap="round" stroke-linejoin="round"/>
</svg>
