<svg width="24" height="25" viewBox="0 0 24 25" fill="none" xmlns="http://www.w3.org/2000/svg">
<path fill-rule="evenodd" clip-rule="evenodd" d="M14.5623 5.81409C16.1192 4.2218 18.6811 4.2218 20.238 5.81409C21.7462 7.35657 21.7462 9.82127 20.238 11.3637L13.3552 18.403L11.8678 13.4065L15.4499 10.7199C15.7451 10.4986 15.8354 10.0954 15.6629 9.76928L13.919 6.47199L14.5623 5.81409ZM21.3106 4.76541C19.1653 2.57136 15.635 2.57136 13.4897 4.76541L12.4639 5.81458C12.236 6.04769 12.1847 6.40136 12.3372 6.68957L14.0374 9.90429L10.5499 12.5199C10.2988 12.7083 10.1915 13.0331 10.2811 13.3339L12.2813 20.0529C12.3572 20.3076 12.5621 20.5032 12.8201 20.567C13.0781 20.6308 13.3506 20.5533 13.5364 20.3633L21.3106 12.4124C23.3887 10.287 23.3887 6.89083 21.3106 4.76541ZM3.76226 5.81409C5.31916 4.2218 7.88114 4.2218 9.43804 5.81409L10.3724 6.76971L11.5667 9.38235L8.0499 12.0199C7.78907 12.2156 7.6845 12.5573 7.79121 12.8654L9.19575 16.9207L3.76225 11.3637C2.25405 9.82127 2.25405 7.35657 3.76226 5.81409ZM10.5106 4.76541C8.36526 2.57136 4.83504 2.57136 2.68975 4.76541C0.611558 6.89083 0.611555 10.287 2.68974 12.4124L10.4639 20.3633C10.7093 20.6143 11.096 20.6614 11.3946 20.4768C11.6932 20.2922 11.8237 19.9252 11.7088 19.5935L9.3877 12.8916L12.9499 10.2199C13.232 10.0083 13.3286 9.62883 13.182 9.30813L11.6823 6.02712C11.6463 5.94839 11.5969 5.87648 11.5364 5.81458L10.5106 4.76541Z" fill="white"/>
</svg>
