<svg width="24" height="25" viewBox="0 0 24 25" fill="none" xmlns="http://www.w3.org/2000/svg">
<path fill-rule="evenodd" clip-rule="evenodd" d="M7.25 2.77002C7.25 2.35581 7.58579 2.02002 8 2.02002H16C16.4142 2.02002 16.75 2.35581 16.75 2.77002V6.02002H22C22.4142 6.02002 22.75 6.35581 22.75 6.77002V12.77C22.75 13.1842 22.4142 13.52 22 13.52H21.75V21.77C21.75 22.1842 21.4142 22.52 21 22.52H3C2.58579 22.52 2.25 22.1842 2.25 21.77V13.52H2C1.58579 13.52 1.25 13.1842 1.25 12.77V6.77002C1.25 6.35581 1.58579 6.02002 2 6.02002H7.25V2.77002ZM8 7.52002H2.75V12.02H3H7.25V11.27C7.25 10.8558 7.58579 10.52 8 10.52C8.41421 10.52 8.75 10.8558 8.75 11.27V12.02H15.25V11.27C15.25 10.8558 15.5858 10.52 16 10.52C16.4142 10.52 16.75 10.8558 16.75 11.27V12.02H21H21.25V7.52002H16H8ZM15.25 6.02002H8.75V3.52002H15.25V6.02002ZM20.25 13.52H16.75V14.27C16.75 14.6842 16.4142 15.02 16 15.02C15.5858 15.02 15.25 14.6842 15.25 14.27V13.52H8.75V14.27C8.75 14.6842 8.41421 15.02 8 15.02C7.58579 15.02 7.25 14.6842 7.25 14.27V13.52H3.75V21.02H20.25V13.52Z" fill="white"/>
</svg>
