<svg width="24" height="25" viewBox="0 0 24 25" fill="none" xmlns="http://www.w3.org/2000/svg">
<path fill-rule="evenodd" clip-rule="evenodd" d="M8 2.02002C7.58579 2.02002 7.25 2.35581 7.25 2.77002V6.02002H2C1.58579 6.02002 1.25 6.35581 1.25 6.77002V21.77C1.25 22.1842 1.58579 22.52 2 22.52H22C22.4142 22.52 22.75 22.1842 22.75 21.77V6.77002C22.75 6.35581 22.4142 6.02002 22 6.02002H16.75V2.77002C16.75 2.35581 16.4142 2.02002 16 2.02002H8ZM15.25 6.02002V3.52002H8.75V6.02002H15.25ZM8 7.52002H16H21.25V11.0629C21.2318 11.0693 21.2136 11.0766 21.1956 11.0846L21.1954 11.0847L21.1943 11.0851L21.1868 11.0884L21.1528 11.1031C21.1218 11.1164 21.0743 11.1365 21.0113 11.1624C20.8853 11.2143 20.6974 11.2895 20.4554 11.3803C19.9711 11.5619 19.2716 11.8053 18.419 12.0489C17.9106 12.1941 17.35 12.3388 16.75 12.4704V11.77C16.75 11.3558 16.4142 11.02 16 11.02C15.5858 11.02 15.25 11.3558 15.25 11.77V12.7534C14.2224 12.915 13.1226 13.02 12 13.02C10.8774 13.02 9.77764 12.915 8.75 12.7534V11.77C8.75 11.3558 8.41421 11.02 8 11.02C7.58579 11.02 7.25 11.3558 7.25 11.77V12.4704C6.64997 12.3388 6.0894 12.1941 5.58104 12.0489C4.72836 11.8053 4.02889 11.5619 3.54459 11.3803C3.30258 11.2895 3.11469 11.2143 2.98869 11.1624C2.9257 11.1365 2.87821 11.1164 2.8472 11.1031L2.81317 11.0884L2.80566 11.0851L2.8046 11.0847L2.80438 11.0846L2.80434 11.0845L2.80427 11.0845C2.78631 11.0765 2.76821 11.0693 2.75 11.0629V7.52002H8ZM15.25 14.2708C14.2219 14.4227 13.1246 14.52 12 14.52C10.8754 14.52 9.77809 14.4227 8.75 14.2708V14.77C8.75 15.1842 8.41421 15.52 8 15.52C7.58579 15.52 7.25 15.1842 7.25 14.77V14.0041C6.49122 13.847 5.79037 13.6687 5.16896 13.4912C4.27164 13.2348 3.53361 12.9782 3.01791 12.7848C2.9206 12.7483 2.83116 12.714 2.75 12.6824V21.02H21.25V12.6824C21.1688 12.714 21.0794 12.7483 20.9821 12.7848C20.4664 12.9782 19.7284 13.2348 18.831 13.4912C18.2096 13.6687 17.5088 13.847 16.75 14.0041V14.77C16.75 15.1842 16.4142 15.52 16 15.52C15.5858 15.52 15.25 15.1842 15.25 14.77V14.2708Z" fill="white"/>
</svg>
