<svg width="24" height="25" viewBox="0 0 24 25" fill="none" xmlns="http://www.w3.org/2000/svg">
<path fill-rule="evenodd" clip-rule="evenodd" d="M8.75 1.77026C8.75 1.35605 8.41421 1.02026 8 1.02026C7.58579 1.02026 7.25 1.35605 7.25 1.77026V3.02026H3C2.58579 3.02026 2.25 3.35605 2.25 3.77026V10.1036V21.7703C2.25 22.1845 2.58579 22.5203 3 22.5203H21C21.4142 22.5203 21.75 22.1845 21.75 21.7703V3.77026C21.75 3.35605 21.4142 3.02026 21 3.02026H16.75V1.77026C16.75 1.35605 16.4142 1.02026 16 1.02026C15.5858 1.02026 15.25 1.35605 15.25 1.77026V3.02026H8.75V1.77026ZM15.25 4.77026V4.52026H8.75V4.77026C8.75 5.18448 8.41421 5.52026 8 5.52026C7.58579 5.52026 7.25 5.18448 7.25 4.77026V4.52026H3.75V10.1036V21.0203H20.25V4.52026H16.75V4.77026C16.75 5.18448 16.4142 5.52026 16 5.52026C15.5858 5.52026 15.25 5.18448 15.25 4.77026ZM7 8.02026C6.58579 8.02026 6.25 8.35605 6.25 8.77026C6.25 9.18448 6.58579 9.52026 7 9.52026H17C17.4142 9.52026 17.75 9.18448 17.75 8.77026C17.75 8.35605 17.4142 8.02026 17 8.02026H7ZM6.25 12.7703C6.25 12.3561 6.58579 12.0203 7 12.0203H13C13.4142 12.0203 13.75 12.3561 13.75 12.7703C13.75 13.1845 13.4142 13.5203 13 13.5203H7C6.58579 13.5203 6.25 13.1845 6.25 12.7703ZM7 16.0203C6.58579 16.0203 6.25 16.3561 6.25 16.7703C6.25 17.1845 6.58579 17.5203 7 17.5203H10C10.4142 17.5203 10.75 17.1845 10.75 16.7703C10.75 16.3561 10.4142 16.0203 10 16.0203H7Z" fill="white"/>
</svg>
