<svg width="24" height="25" viewBox="0 0 24 25" fill="none" xmlns="http://www.w3.org/2000/svg">
<path fill-rule="evenodd" clip-rule="evenodd" d="M8.00003 1.02026C8.41425 1.02026 8.75003 1.35605 8.75003 1.77026V3.02026H15.25V1.77026C15.25 1.35605 15.5858 1.02026 16 1.02026C16.4142 1.02026 16.75 1.35605 16.75 1.77026V3.02026H21C21.4142 3.02026 21.75 3.35605 21.75 3.77026V21.7703C21.75 22.1845 21.4142 22.5203 21 22.5203H3.00003C2.58582 22.5203 2.25003 22.1845 2.25003 21.7703V9.41732V3.77026C2.25003 3.35605 2.58582 3.02026 3.00003 3.02026H7.25003V1.77026C7.25003 1.35605 7.58582 1.02026 8.00003 1.02026ZM15.25 4.52026V4.77026C15.25 5.18448 15.5858 5.52026 16 5.52026C16.4142 5.52026 16.75 5.18448 16.75 4.77026V4.52026H20.25V21.0203H3.75003V9.41732V4.52026H7.25003V4.77026C7.25003 5.18448 7.58582 5.52026 8.00003 5.52026C8.41425 5.52026 8.75003 5.18448 8.75003 4.77026V4.52026H15.25ZM14.8201 14.8136C14.8166 15.9926 13.6376 16.8697 11.997 16.8697C10.3563 16.8697 9.1738 15.9926 9.17735 14.8136C9.1738 13.9045 9.86627 13.1623 10.7541 13.0167V12.967C9.97991 12.8107 9.44369 12.1502 9.44724 11.3548C9.44369 10.2291 10.5232 9.3981 11.997 9.3981C13.4671 9.3981 14.5467 10.2291 14.5502 11.3548C14.5467 12.1538 14.0033 12.8107 13.2434 12.967V13.0167C14.117 13.1623 14.8166 13.9045 14.8201 14.8136ZM10.7754 14.6928C10.7754 15.3072 11.2654 15.7404 11.997 15.7404C12.7249 15.7404 13.2185 15.3107 13.2185 14.6928C13.2185 14.0643 12.7001 13.6098 11.997 13.6098C11.2903 13.6098 10.7754 14.0643 10.7754 14.6928ZM10.9458 11.5146C10.9458 12.0899 11.3826 12.4911 11.997 12.4911C12.6077 12.4911 13.0481 12.0899 13.0481 11.5146C13.0481 10.95 12.6149 10.5558 11.997 10.5558C11.3755 10.5558 10.9458 10.9464 10.9458 11.5146Z" fill="white"/>
</svg>
