<svg width="24" height="25" viewBox="0 0 24 25" fill="none" xmlns="http://www.w3.org/2000/svg">
<path fill-rule="evenodd" clip-rule="evenodd" d="M8 1.02026C8.41421 1.02026 8.75 1.35605 8.75 1.77026V3.02026H15.25V1.77026C15.25 1.35605 15.5858 1.02026 16 1.02026C16.4142 1.02026 16.75 1.35605 16.75 1.77026V3.02026H21C21.4142 3.02026 21.75 3.35605 21.75 3.77026V21.7703C21.75 22.1845 21.4142 22.5203 21 22.5203H3C2.58579 22.5203 2.25 22.1845 2.25 21.7703V10.1036V3.77026C2.25 3.35605 2.58579 3.02026 3 3.02026H7.25V1.77026C7.25 1.35605 7.58579 1.02026 8 1.02026ZM15.25 4.52026V4.77026C15.25 5.18448 15.5858 5.52026 16 5.52026C16.4142 5.52026 16.75 5.18448 16.75 4.77026V4.52026H20.25V21.0203H3.75V10.1036V4.52026H7.25V4.77026C7.25 5.18448 7.58579 5.52026 8 5.52026C8.41421 5.52026 8.75 5.18448 8.75 4.77026V4.52026H15.25ZM12 8.52026C11.3096 8.52026 10.75 9.07991 10.75 9.77026C10.75 10.4606 11.3096 11.0203 12 11.0203C12.6904 11.0203 13.25 10.4606 13.25 9.77026C13.25 9.07991 12.6904 8.52026 12 8.52026ZM9.25 9.77026C9.25 8.25148 10.4812 7.02026 12 7.02026C13.5188 7.02026 14.75 8.25148 14.75 9.77026C14.75 11.289 13.5188 12.5203 12 12.5203C10.4812 12.5203 9.25 11.289 9.25 9.77026ZM10 14.0203C8.48122 14.0203 7.25 15.2515 7.25 16.7703C7.25 17.7368 8.0335 18.5203 9 18.5203H15C15.9665 18.5203 16.75 17.7368 16.75 16.7703C16.75 15.2515 15.5188 14.0203 14 14.0203H10ZM8.75 16.7703C8.75 16.0799 9.30964 15.5203 10 15.5203H14C14.6904 15.5203 15.25 16.0799 15.25 16.7703C15.25 16.9083 15.1381 17.0203 15 17.0203H9C8.86193 17.0203 8.75 16.9083 8.75 16.7703Z" fill="white"/>
</svg>
