<svg width="24" height="25" viewBox="0 0 24 25" fill="none" xmlns="http://www.w3.org/2000/svg">
<path fill-rule="evenodd" clip-rule="evenodd" d="M8.75005 1.77026C8.75005 1.35605 8.41426 1.02026 8.00005 1.02026C7.58584 1.02026 7.25005 1.35605 7.25005 1.77026V3.02026H3.00005C2.58584 3.02026 2.25005 3.35605 2.25005 3.77026V9.41732V21.7703C2.25005 22.1845 2.58584 22.5203 3.00005 22.5203H21C21.4143 22.5203 21.75 22.1845 21.75 21.7703V3.77026C21.75 3.35605 21.4143 3.02026 21 3.02026H16.75V1.77026C16.75 1.35605 16.4143 1.02026 16 1.02026C15.5858 1.02026 15.25 1.35605 15.25 1.77026V3.02026H8.75005V1.77026ZM15.25 4.77026V4.52026H8.75005V4.77026C8.75005 5.18448 8.41426 5.52026 8.00005 5.52026C7.58584 5.52026 7.25005 5.18448 7.25005 4.77026V4.52026H3.75005V9.41732V21.0203H20.25V4.52026H16.75V4.77026C16.75 5.18448 16.4143 5.52026 16 5.52026C15.5858 5.52026 15.25 5.18448 15.25 4.77026ZM12.75 8.77026C12.75 8.35605 12.4142 8.02026 12 8.02026C11.5858 8.02026 11.25 8.35605 11.25 8.77026V12.0203H8C7.58579 12.0203 7.25 12.3561 7.25 12.7703C7.25 13.1845 7.58579 13.5203 8 13.5203H11.25V16.7703C11.25 17.1845 11.5858 17.5203 12 17.5203C12.4142 17.5203 12.75 17.1845 12.75 16.7703V13.5203H16C16.4142 13.5203 16.75 13.1845 16.75 12.7703C16.75 12.3561 16.4142 12.0203 16 12.0203H12.75V8.77026Z" fill="white"/>
</svg>
