<svg width="24" height="25" viewBox="0 0 24 25" fill="none" xmlns="http://www.w3.org/2000/svg">
<path fill-rule="evenodd" clip-rule="evenodd" d="M8.75003 1.77026C8.75003 1.35605 8.41425 1.02026 8.00003 1.02026C7.58582 1.02026 7.25003 1.35605 7.25003 1.77026V3.02026H3.00003C2.58582 3.02026 2.25003 3.35605 2.25003 3.77026V9.41732V21.7703C2.25003 22.1845 2.58582 22.5203 3.00003 22.5203H21C21.4142 22.5203 21.75 22.1845 21.75 21.7703V3.77026C21.75 3.35605 21.4142 3.02026 21 3.02026H16.75V1.77026C16.75 1.35605 16.4142 1.02026 16 1.02026C15.5858 1.02026 15.25 1.35605 15.25 1.77026V3.02026H8.75003V1.77026ZM15.25 4.77026V4.52026H8.75003V4.77026C8.75003 5.18448 8.41425 5.52026 8.00003 5.52026C7.58582 5.52026 7.25003 5.18448 7.25003 4.77026V4.52026H3.75003V9.41732V21.0203H20.25V4.52026H16.75V4.77026C16.75 5.18448 16.4142 5.52026 16 5.52026C15.5858 5.52026 15.25 5.18448 15.25 4.77026ZM8 12.0203C7.58579 12.0203 7.25 12.3561 7.25 12.7703C7.25 13.1845 7.58579 13.5203 8 13.5203H12H16C16.4142 13.5203 16.75 13.1845 16.75 12.7703C16.75 12.3561 16.4142 12.0203 16 12.0203H12H8Z" fill="white"/>
</svg>
