<svg width="24" height="25" viewBox="0 0 24 25" fill="none" xmlns="http://www.w3.org/2000/svg">
<path fill-rule="evenodd" clip-rule="evenodd" d="M8.00005 1.02026C8.41426 1.02026 8.75005 1.35605 8.75005 1.77026V3.02026H15.25V1.77026C15.25 1.35605 15.5858 1.02026 16 1.02026C16.4143 1.02026 16.75 1.35605 16.75 1.77026V3.02026H21C21.4143 3.02026 21.75 3.35605 21.75 3.77026V21.7703C21.75 22.1845 21.4143 22.5203 21 22.5203H3.00005C2.58584 22.5203 2.25005 22.1845 2.25005 21.7703V9.41732V3.77026C2.25005 3.35605 2.58584 3.02026 3.00005 3.02026H7.25005V1.77026C7.25005 1.35605 7.58584 1.02026 8.00005 1.02026ZM15.25 4.52026V4.77026C15.25 5.18448 15.5858 5.52026 16 5.52026C16.4143 5.52026 16.75 5.18448 16.75 4.77026V4.52026H20.25V21.0203H3.75005V9.41732V4.52026H7.25005V4.77026C7.25005 5.18448 7.58584 5.52026 8.00005 5.52026C8.41426 5.52026 8.75005 5.18448 8.75005 4.77026V4.52026H15.25ZM6.25006 8.77026C6.25006 8.35605 6.58585 8.02026 7.00006 8.02026H17.0001C17.4143 8.02026 17.7501 8.35605 17.7501 8.77026C17.7501 9.18448 17.4143 9.52026 17.0001 9.52026H7.00006C6.58585 9.52026 6.25006 9.18448 6.25006 8.77026ZM15 17.0203C14.5858 17.0203 14.25 17.3561 14.25 17.7703C14.25 18.1845 14.5858 18.5203 15 18.5203H17C17.4143 18.5203 17.75 18.1845 17.75 17.7703C17.75 17.3561 17.4143 17.0203 17 17.0203H15Z" fill="white"/>
</svg>
