<svg width="24" height="25" viewBox="0 0 24 25" fill="none" xmlns="http://www.w3.org/2000/svg">
<path fill-rule="evenodd" clip-rule="evenodd" d="M8.75005 1.77026C8.75005 1.35605 8.41426 1.02026 8.00005 1.02026C7.58584 1.02026 7.25005 1.35605 7.25005 1.77026V3.02026H3.00005C2.58584 3.02026 2.25005 3.35605 2.25005 3.77026V9.41732V21.7703C2.25005 22.1845 2.58584 22.5203 3.00005 22.5203H21C21.4143 22.5203 21.75 22.1845 21.75 21.7703V3.77026C21.75 3.35605 21.4143 3.02026 21 3.02026H16.75V1.77026C16.75 1.35605 16.4143 1.02026 16 1.02026C15.5858 1.02026 15.25 1.35605 15.25 1.77026V3.02026H8.75005V1.77026ZM15.25 4.77026V4.52026H8.75005V4.77026C8.75005 5.18448 8.41426 5.52026 8.00005 5.52026C7.58584 5.52026 7.25005 5.18448 7.25005 4.77026V4.52026H3.75005V9.41732V21.0203H20.25V4.52026H16.75V4.77026C16.75 5.18448 16.4143 5.52026 16 5.52026C15.5858 5.52026 15.25 5.18448 15.25 4.77026ZM7.00006 8.02026C6.58585 8.02026 6.25006 8.35605 6.25006 8.77026C6.25006 9.18448 6.58585 9.52026 7.00006 9.52026H17.0001C17.4143 9.52026 17.7501 9.18448 17.7501 8.77026C17.7501 8.35605 17.4143 8.02026 17.0001 8.02026H7.00006ZM9.00006 12.7703C9.00006 13.3225 8.55235 13.7703 8.00006 13.7703C7.44778 13.7703 7.00006 13.3225 7.00006 12.7703C7.00006 12.218 7.44778 11.7703 8.00006 11.7703C8.55235 11.7703 9.00006 12.218 9.00006 12.7703ZM8.00006 17.7703C8.55235 17.7703 9.00006 17.3225 9.00006 16.7703C9.00006 16.218 8.55235 15.7703 8.00006 15.7703C7.44778 15.7703 7.00006 16.218 7.00006 16.7703C7.00006 17.3225 7.44778 17.7703 8.00006 17.7703ZM13.0001 16.7703C13.0001 17.3225 12.5523 17.7703 12.0001 17.7703C11.4478 17.7703 11.0001 17.3225 11.0001 16.7703C11.0001 16.218 11.4478 15.7703 12.0001 15.7703C12.5523 15.7703 13.0001 16.218 13.0001 16.7703ZM16.0001 17.7703C16.5523 17.7703 17.0001 17.3225 17.0001 16.7703C17.0001 16.218 16.5523 15.7703 16.0001 15.7703C15.4478 15.7703 15.0001 16.218 15.0001 16.7703C15.0001 17.3225 15.4478 17.7703 16.0001 17.7703ZM13.0001 12.7703C13.0001 13.3225 12.5523 13.7703 12.0001 13.7703C11.4478 13.7703 11.0001 13.3225 11.0001 12.7703C11.0001 12.218 11.4478 11.7703 12.0001 11.7703C12.5523 11.7703 13.0001 12.218 13.0001 12.7703ZM16.0001 13.7703C16.5523 13.7703 17.0001 13.3225 17.0001 12.7703C17.0001 12.218 16.5523 11.7703 16.0001 11.7703C15.4478 11.7703 15.0001 12.218 15.0001 12.7703C15.0001 13.3225 15.4478 13.7703 16.0001 13.7703Z" fill="white"/>
</svg>
