<svg width="24" height="25" viewBox="0 0 24 25" fill="none" xmlns="http://www.w3.org/2000/svg">
<path fill-rule="evenodd" clip-rule="evenodd" d="M8.75003 1.77026C8.75003 1.35605 8.41425 1.02026 8.00003 1.02026C7.58582 1.02026 7.25003 1.35605 7.25003 1.77026V3.02026H3.00003C2.58582 3.02026 2.25003 3.35605 2.25003 3.77026V9.41732V21.7703C2.25003 22.1845 2.58582 22.5203 3.00003 22.5203H21C21.4142 22.5203 21.75 22.1845 21.75 21.7703V3.77026C21.75 3.35605 21.4142 3.02026 21 3.02026H16.75V1.77026C16.75 1.35605 16.4142 1.02026 16 1.02026C15.5858 1.02026 15.25 1.35605 15.25 1.77026V3.02026H8.75003V1.77026ZM15.25 4.77026V4.52026H8.75003V4.77026C8.75003 5.18448 8.41425 5.52026 8.00003 5.52026C7.58582 5.52026 7.25003 5.18448 7.25003 4.77026V4.52026H3.75003V9.41732V21.0203H20.25V4.52026H16.75V4.77026C16.75 5.18448 16.4142 5.52026 16 5.52026C15.5858 5.52026 15.25 5.18448 15.25 4.77026ZM13.5303 9.23993C13.2374 8.94704 12.7626 8.94704 12.4697 9.23993C12.1768 9.53283 12.1768 10.0077 12.4697 10.3006L14.1893 12.0203H8C7.58579 12.0203 7.25 12.3561 7.25 12.7703C7.25 13.1845 7.58579 13.5203 8 13.5203H14.1893L12.4697 15.2399C12.1768 15.5328 12.1768 16.0077 12.4697 16.3006C12.7626 16.5935 13.2374 16.5935 13.5303 16.3006L16.5303 13.3006C16.8232 13.0077 16.8232 12.5328 16.5303 12.2399L13.5303 9.23993Z" fill="white"/>
</svg>
