<svg width="24" height="25" viewBox="0 0 24 25" fill="none" xmlns="http://www.w3.org/2000/svg">
<path fill-rule="evenodd" clip-rule="evenodd" d="M11.999 1.83995L11.8726 1.83993C10.6706 1.83965 9.89481 1.83946 9.16915 2.07861C8.94542 2.15234 8.72749 2.24261 8.51716 2.34867C7.83493 2.69269 7.28651 3.24137 6.43678 4.0915L6.34737 4.18094L5.7341 4.79421C5.70481 4.82349 5.66509 4.83995 5.62368 4.83995C5.52203 4.83995 5.42109 4.84342 5.32099 4.85028L2.53033 2.05962C2.23744 1.76672 1.76256 1.76672 1.46967 2.05961C1.17678 2.35251 1.17678 2.82738 1.46967 3.12027L4.51548 6.16609L19.7379 21.3886L21.4697 23.1203C21.7626 23.4132 22.2374 23.4132 22.5303 23.1203C22.8232 22.8274 22.8232 22.3525 22.5303 22.0596L21.3884 20.9177C22.1152 20.1742 22.4404 19.2353 22.5959 18.079C22.7491 16.9398 22.749 15.4841 22.749 13.6464L22.749 13.5899L22.749 9.2146C22.749 6.79855 20.7904 4.83995 18.3744 4.83994C18.333 4.83995 18.2932 4.82349 18.2639 4.79421L17.6507 4.18094L17.5613 4.09151C16.7115 3.24137 16.1631 2.6927 15.4809 2.34867C15.2706 2.24261 15.0526 2.15234 14.8289 2.07861C14.1032 1.83946 13.3275 1.83965 12.1255 1.83993L11.999 1.83995ZM9.21352 8.74281L6.53644 6.06573C6.62874 6.00476 6.71537 5.93426 6.79476 5.85487L7.40803 5.2416C8.37845 4.27118 8.7517 3.91033 9.19254 3.68802C9.33645 3.61545 9.48556 3.55369 9.63864 3.50324C10.1076 3.34871 10.6266 3.33995 11.999 3.33995C13.3714 3.33995 13.8905 3.34871 14.3594 3.50324C14.5125 3.55369 14.6616 3.61545 14.8055 3.68802C15.2463 3.91033 15.6196 4.27118 16.59 5.2416L17.2033 5.85487C17.5139 6.16546 17.9351 6.33994 18.3744 6.33994C19.962 6.33995 21.249 7.62697 21.249 9.2146L21.249 13.5899C21.249 15.4968 21.2474 16.8514 21.1093 17.8791C20.9773 18.8608 20.7326 19.4364 20.3276 19.8569L15.8472 15.3765C16.4148 14.5939 16.75 13.6304 16.75 12.59C16.75 9.9666 14.6234 7.83995 12 7.83995C10.9596 7.83995 9.99612 8.17518 9.21352 8.74281ZM10.2938 9.82314L14.7668 14.2961C15.0734 13.8003 15.25 13.2163 15.25 12.59C15.25 10.795 13.7949 9.33995 12 9.33995C11.3737 9.33995 10.7897 9.51655 10.2938 9.82314ZM3.05285 7.92656C3.23876 7.55642 3.0894 7.10564 2.71926 6.91973C2.34911 6.73382 1.89833 6.88318 1.71242 7.25333C1.52405 7.62838 1.38791 8.03442 1.31371 8.46159C1.27113 8.70672 1.24902 8.95838 1.24902 9.2146L1.24902 13.5899L1.24902 13.6464L1.24902 13.6464C1.24901 15.4841 1.24899 16.9398 1.40216 18.079C1.55978 19.2514 1.8919 20.2003 2.64026 20.9487C3.38863 21.6971 4.33758 22.0292 5.51 22.1868C6.64921 22.34 8.10485 22.34 9.94261 22.3399L9.99902 22.3399L13.999 22.3399L14.0011 22.3399C14.353 22.3399 15.6833 22.3399 16.0022 22.339C16.4164 22.3378 16.7512 22.001 16.75 21.5868C16.7488 21.1726 16.412 20.8378 15.9978 20.839C15.6812 20.8399 14.3495 20.8399 13.999 20.8399L9.99902 20.8399C8.0922 20.8399 6.73753 20.8384 5.70987 20.7002C4.70378 20.5649 4.12413 20.3113 3.70093 19.888C3.27772 19.4648 3.02405 18.8852 2.88878 17.8791C2.75061 16.8514 2.74902 15.4968 2.74902 13.5899L2.74902 9.2146C2.74902 9.0448 2.76366 8.87902 2.79158 8.7183C2.84021 8.43837 2.92935 8.17246 3.05285 7.92656ZM8.75002 12.59C8.75002 12.1757 8.41424 11.84 8.00002 11.84C7.58581 11.84 7.25002 12.1757 7.25002 12.59C7.25002 15.2133 9.37667 17.34 12 17.34C12.4142 17.34 12.75 17.0042 12.75 16.59C12.75 16.1757 12.4142 15.84 12 15.84C10.2051 15.84 8.75002 14.3849 8.75002 12.59Z" fill="white"/>
</svg>
