<svg width="24" height="25" viewBox="0 0 24 25" fill="none" xmlns="http://www.w3.org/2000/svg">
<path fill-rule="evenodd" clip-rule="evenodd" d="M12 3.33997C8.54822 3.33997 5.75 6.13819 5.75 9.58997C5.75 13.0417 8.54822 15.84 12 15.84C15.4518 15.84 18.25 13.0417 18.25 9.58997C18.25 6.13819 15.4518 3.33997 12 3.33997ZM4.25 9.58997C4.25 5.30976 7.71979 1.83997 12 1.83997C16.2802 1.83997 19.75 5.30976 19.75 9.58997C19.75 11.5693 19.008 13.3753 17.787 14.745C19.4925 16.1075 20.467 17.9923 21.0182 19.5234C21.3146 20.3468 21.4955 21.0869 21.6026 21.6226C21.6563 21.8909 21.6917 22.1092 21.7139 22.2627C21.7251 22.3395 21.7329 22.4002 21.7381 22.4429C21.7407 22.4642 21.7426 22.4811 21.7439 22.4932L21.7455 22.5079L21.746 22.5125L21.7462 22.5142L21.7462 22.5148C21.7463 22.5151 21.7463 22.5153 21 22.59L21.7463 22.5153C21.7674 22.7262 21.6983 22.9361 21.5561 23.0932C21.4139 23.2503 21.2119 23.34 21 23.34L3 23.34C2.7881 23.34 2.58609 23.2503 2.44391 23.0932C2.30173 22.9361 2.23264 22.7262 2.25372 22.5153L3 22.59C2.25372 22.5153 2.25375 22.5151 2.25377 22.5148L2.25384 22.5142L2.25401 22.5125L2.25449 22.5079L2.25607 22.4932C2.25741 22.4811 2.25934 22.4642 2.26193 22.4429C2.26711 22.4002 2.27494 22.3395 2.28606 22.2627C2.30829 22.1092 2.34371 21.8909 2.39738 21.6226C2.50451 21.0869 2.68541 20.3468 2.98183 19.5234C3.53303 17.9923 4.50748 16.1075 6.21301 14.745C4.992 13.3753 4.25 11.5693 4.25 9.58997ZM7.33138 15.7765C5.81932 16.9019 4.91822 18.573 4.39317 20.0315C4.141 20.732 3.98154 21.3669 3.88385 21.84L20.1161 21.84C20.0185 21.3669 19.859 20.732 19.6068 20.0315C19.0818 18.573 18.1807 16.9019 16.6686 15.7765C15.3702 16.7579 13.7531 17.34 12 17.34C10.2469 17.34 8.62983 16.7579 7.33138 15.7765ZM12 8.33997C11.3096 8.33997 10.75 8.89961 10.75 9.58997C10.75 10.2803 11.3096 10.84 12 10.84C12.6904 10.84 13.25 10.2803 13.25 9.58997C13.25 8.89961 12.6904 8.33997 12 8.33997ZM9.25 9.58997C9.25 8.07118 10.4812 6.83997 12 6.83997C13.5188 6.83997 14.75 8.07118 14.75 9.58997C14.75 11.1088 13.5188 12.34 12 12.34C10.4812 12.34 9.25 11.1088 9.25 9.58997Z" fill="white"/>
</svg>
