<svg width="24" height="25" viewBox="0 0 24 25" fill="none" xmlns="http://www.w3.org/2000/svg">
<path fill-rule="evenodd" clip-rule="evenodd" d="M1.46967 2.05964C1.76256 1.76675 2.23744 1.76675 2.53033 2.05964L6.31226 5.84157L15.7484 15.2777L22.5303 22.0596C22.8232 22.3525 22.8232 22.8274 22.5303 23.1203C22.2374 23.4132 21.7626 23.4132 21.4697 23.1203L20.6372 22.2878C20.4652 22.512 20.2582 22.7232 20.0298 22.876C19.3323 23.3423 18.5623 23.3413 17.6139 23.3401L17.4641 23.34L6.53604 23.34L6.38622 23.3401C5.43784 23.3413 4.66786 23.3423 3.97041 22.876C3.67584 22.679 3.42025 22.3872 3.23097 22.1036C3.04169 21.8199 2.87027 21.4719 2.80142 21.1243C2.63874 20.3031 2.88693 19.7074 3.18829 18.984L3.22422 18.8977C3.8024 17.5063 4.7311 15.9289 6.21304 14.745C4.99201 13.3753 4.25 11.5693 4.25 9.58997C4.25 8.50393 4.47381 7.4686 4.87822 6.52885L1.46967 3.1203C1.17678 2.82741 1.17678 2.35253 1.46967 2.05964ZM7.33141 15.7765C6.01203 16.7585 5.1564 18.1569 4.60939 19.4733C4.26291 20.3071 4.206 20.4955 4.27283 20.8329C4.29134 20.9263 4.35813 21.0903 4.47864 21.2709C4.59916 21.4515 4.72497 21.5761 4.80419 21.6291C5.07965 21.8133 5.36161 21.84 6.53604 21.84L17.4641 21.84C18.6385 21.84 18.9205 21.8133 19.196 21.6291C19.2878 21.5676 19.4332 21.4169 19.5601 21.2107L15.0611 16.7117C14.1214 17.1162 13.086 17.34 12 17.34C10.247 17.34 8.62985 16.7579 7.33141 15.7765ZM6.04274 7.69337C5.85265 8.29103 5.75 8.92806 5.75 9.58997C5.75 13.0417 8.54822 15.84 12 15.84C12.6619 15.84 13.2989 15.7373 13.8966 15.5472L6.04274 7.69337ZM12 3.33997C10.6711 3.33997 9.44113 3.75387 8.42907 4.4598C8.08934 4.69677 7.62183 4.61346 7.38486 4.27373C7.14789 3.934 7.23119 3.46649 7.57093 3.22952C8.82654 2.3537 10.3544 1.83997 12 1.83997C16.2802 1.83997 19.75 5.30976 19.75 9.58997C19.75 11.2356 19.2363 12.7634 18.3604 14.019C18.1235 14.3588 17.656 14.4421 17.3162 14.2051C16.9765 13.9681 16.8932 13.5006 17.1302 13.1609C17.8361 12.1488 18.25 10.9189 18.25 9.58997C18.25 6.13819 15.4518 3.33997 12 3.33997ZM11.25 7.58997C11.25 7.17575 11.5858 6.83997 12 6.83997C13.5188 6.83997 14.75 8.07119 14.75 9.58997C14.75 10.0042 14.4142 10.34 14 10.34C13.5858 10.34 13.25 10.0042 13.25 9.58997C13.25 8.89961 12.6904 8.33997 12 8.33997C11.5858 8.33997 11.25 8.00418 11.25 7.58997Z" fill="white"/>
</svg>
