<svg width="24" height="25" viewBox="0 0 24 25" fill="none" xmlns="http://www.w3.org/2000/svg">
<path fill-rule="evenodd" clip-rule="evenodd" d="M11.1213 1.83991L11.0776 1.83991C10.6627 1.83987 10.3957 1.83985 10.135 1.86866C9.23951 1.96764 8.39063 2.31926 7.68743 2.88248C7.48275 3.04641 7.29394 3.23526 7.00057 3.52868L7.00056 3.52869L6.96967 3.55958L5.73508 4.79417C5.70579 4.82345 5.66607 4.83991 5.62465 4.83991C3.2086 4.83991 1.25 6.79851 1.25 9.21456L1.25 17.7804C1.25 20.2985 3.29137 22.3399 5.80952 22.3399L18.1905 22.3399C20.7086 22.3399 22.75 20.2985 22.75 17.7804L22.75 9.21456C22.75 6.79851 20.7914 4.83991 18.3753 4.83991C18.3339 4.83991 18.2942 4.82345 18.2649 4.79417L17.0303 3.55958L16.9995 3.5287C16.7061 3.23526 16.5173 3.04642 16.3126 2.88248C15.6094 2.31926 14.7605 1.96764 13.865 1.86866C13.6043 1.83985 13.3373 1.83987 12.9224 1.8399L12.8787 1.83991L11.1213 1.83991ZM10.2998 3.35958C10.4682 3.34096 10.6483 3.33991 11.1213 3.33991L12.8787 3.33991C13.3517 3.33991 13.5318 3.34096 13.7002 3.35958C14.3129 3.4273 14.8937 3.66788 15.3749 4.05325C15.5071 4.15918 15.6352 4.28574 15.9697 4.62024L17.2043 5.85483C17.5149 6.16542 17.9361 6.33991 18.3753 6.33991C19.963 6.33991 21.25 7.62693 21.25 9.21456L21.25 17.7804C21.25 19.4701 19.8802 20.8399 18.1905 20.8399L5.80952 20.8399C4.1198 20.8399 2.75 19.4701 2.75 17.7804L2.75 9.21456C2.75 7.62693 4.03703 6.33991 5.62465 6.33991C6.0639 6.33991 6.48515 6.16542 6.79574 5.85483L8.03033 4.62024C8.36482 4.28574 8.49288 4.15918 8.62514 4.05325C9.10628 3.66788 9.68709 3.4273 10.2998 3.35958ZM8.74989 12.5899C8.74989 10.795 10.205 9.33995 11.9999 9.33995C13.7948 9.33995 15.2499 10.795 15.2499 12.5899C15.2499 14.3849 13.7948 15.8399 11.9999 15.8399C10.205 15.8399 8.74989 14.3849 8.74989 12.5899ZM11.9999 7.83995C9.37654 7.83995 7.24989 9.96659 7.24989 12.5899C7.24989 15.2133 9.37654 17.3399 11.9999 17.3399C14.6232 17.3399 16.7499 15.2133 16.7499 12.5899C16.7499 9.96659 14.6232 7.83995 11.9999 7.83995Z" fill="white"/>
</svg>
