<svg width="24" height="25" viewBox="0 0 24 25" fill="none" xmlns="http://www.w3.org/2000/svg">
<path fill-rule="evenodd" clip-rule="evenodd" d="M1.25 3.65002C1.25 3.23581 1.58579 2.90002 2 2.90002H22C22.4142 2.90002 22.75 3.23581 22.75 3.65002V21.65C22.75 22.0642 22.4142 22.4 22 22.4H2C1.58579 22.4 1.25 22.0642 1.25 21.65V3.65002ZM2.75 4.40002V20.9H21.25V4.40002H2.75ZM5.25 17.65C5.25 17.2358 5.58579 16.9 6 16.9H9C9.41421 16.9 9.75 17.2358 9.75 17.65C9.75 18.0642 9.41421 18.4 9 18.4H6C5.58579 18.4 5.25 18.0642 5.25 17.65ZM15 16.9C14.5858 16.9 14.25 17.2358 14.25 17.65C14.25 18.0642 14.5858 18.4 15 18.4H18C18.4142 18.4 18.75 18.0642 18.75 17.65C18.75 17.2358 18.4142 16.9 18 16.9H15ZM8.25 13.65C8.25 13.2358 8.58579 12.9 9 12.9H15C15.4142 12.9 15.75 13.2358 15.75 13.65C15.75 14.0642 15.4142 14.4 15 14.4H9C8.58579 14.4 8.25 14.0642 8.25 13.65ZM12 18.65C12.5523 18.65 13 18.2023 13 17.65C13 17.0977 12.5523 16.65 12 16.65C11.4477 16.65 11 17.0977 11 17.65C11 18.2023 11.4477 18.65 12 18.65ZM7 13.65C7 14.2023 6.55228 14.65 6 14.65C5.44772 14.65 5 14.2023 5 13.65C5 13.0977 5.44772 12.65 6 12.65C6.55228 12.65 7 13.0977 7 13.65ZM18 14.65C18.5523 14.65 19 14.2023 19 13.65C19 13.0977 18.5523 12.65 18 12.65C17.4477 12.65 17 13.0977 17 13.65C17 14.2023 17.4477 14.65 18 14.65Z" fill="white"/>
</svg>
