<svg width="24" height="25" viewBox="0 0 24 25" fill="none" xmlns="http://www.w3.org/2000/svg">
<path fill-rule="evenodd" clip-rule="evenodd" d="M1.25 3.65002C1.25 3.23581 1.58579 2.90002 2 2.90002H22C22.4142 2.90002 22.75 3.23581 22.75 3.65002V21.65C22.75 22.0642 22.4142 22.4 22 22.4H2C1.58579 22.4 1.25 22.0642 1.25 21.65V3.65002ZM2.75 4.40002V20.9H21.25V4.40002H2.75ZM6.25 9.65002C6.25 9.23581 6.58579 8.90002 7 8.90002H11C11.4142 8.90002 11.75 9.23581 11.75 9.65002V11.15C11.75 11.5642 11.4142 11.9 11 11.9C10.5858 11.9 10.25 11.5642 10.25 11.15V10.4H7.75V14.9H10.25V14.15C10.25 13.7358 10.5858 13.4 11 13.4C11.4142 13.4 11.75 13.7358 11.75 14.15V15.65C11.75 16.0642 11.4142 16.4 11 16.4H7C6.58579 16.4 6.25 16.0642 6.25 15.65V9.65002ZM13.5 8.90002C13.0858 8.90002 12.75 9.23581 12.75 9.65002V15.65C12.75 16.0642 13.0858 16.4 13.5 16.4H17.5C17.9142 16.4 18.25 16.0642 18.25 15.65V14.15C18.25 13.7358 17.9142 13.4 17.5 13.4C17.0858 13.4 16.75 13.7358 16.75 14.15V14.9H14.25V10.4H16.75V11.15C16.75 11.5642 17.0858 11.9 17.5 11.9C17.9142 11.9 18.25 11.5642 18.25 11.15V9.65002C18.25 9.23581 17.9142 8.90002 17.5 8.90002H13.5Z" fill="white"/>
</svg>
