<svg width="24" height="25" viewBox="0 0 24 25" fill="none" xmlns="http://www.w3.org/2000/svg">
<path fill-rule="evenodd" clip-rule="evenodd" d="M2 2.8999C1.58579 2.8999 1.25 3.23569 1.25 3.6499L1.25 21.6499C1.25 22.0641 1.58579 22.3999 2 22.3999L16 22.3999C16.4142 22.3999 16.75 22.0641 16.75 21.6499L16.75 18.3999L22 18.3999C22.4142 18.3999 22.75 18.0641 22.75 17.6499L22.75 7.6499C22.75 7.23569 22.4142 6.8999 22 6.8999L16.75 6.8999L16.75 3.6499C16.75 3.23569 16.4142 2.8999 16 2.8999L2 2.8999ZM15.25 7.6499L15.25 4.3999L2.75 4.3999L2.75 20.8999L15.25 20.8999L15.25 17.6499L15.25 10.6508L15.25 10.6499L15.25 10.649L15.25 7.6499ZM16.75 16.8999L16.75 11.3999L21.25 11.3999L21.25 16.8999L16.75 16.8999ZM21.25 8.3999L21.25 9.8999L16.75 9.8999L16.75 8.3999L21.25 8.3999ZM5 5.8999C4.58579 5.8999 4.25 6.23569 4.25 6.6499L4.25 10.6499C4.25 11.0641 4.58579 11.3999 5 11.3999L13 11.3999C13.4142 11.3999 13.75 11.0641 13.75 10.6499L13.75 6.6499C13.75 6.23569 13.4142 5.8999 13 5.8999L5 5.8999ZM5.75 9.8999L5.75 7.3999L12.25 7.3999L12.25 9.8999L5.75 9.8999ZM7 14.6499C7 15.2022 6.55228 15.6499 6 15.6499C5.44771 15.6499 5 15.2022 5 14.6499C5 14.0976 5.44771 13.6499 6 13.6499C6.55228 13.6499 7 14.0976 7 14.6499ZM6 18.6499C6.55228 18.6499 7 18.2022 7 17.6499C7 17.0976 6.55228 16.6499 6 16.6499C5.44771 16.6499 5 17.0976 5 17.6499C5 18.2022 5.44771 18.6499 6 18.6499ZM10 14.6499C10 15.2022 9.55228 15.6499 9 15.6499C8.44771 15.6499 8 15.2022 8 14.6499C8 14.0976 8.44771 13.6499 9 13.6499C9.55228 13.6499 10 14.0976 10 14.6499ZM9 18.6499C9.55228 18.6499 10 18.2022 10 17.6499C10 17.0976 9.55228 16.6499 9 16.6499C8.44771 16.6499 8 17.0976 8 17.6499C8 18.2022 8.44771 18.6499 9 18.6499ZM13 14.6499C13 15.2022 12.5523 15.6499 12 15.6499C11.4477 15.6499 11 15.2022 11 14.6499C11 14.0976 11.4477 13.6499 12 13.6499C12.5523 13.6499 13 14.0976 13 14.6499ZM12 18.6499C12.5523 18.6499 13 18.2022 13 17.6499C13 17.0976 12.5523 16.6499 12 16.6499C11.4477 16.6499 11 17.0976 11 17.6499C11 18.2022 11.4477 18.6499 12 18.6499Z" fill="white"/>
</svg>
