<svg width="24" height="25" viewBox="0 0 24 25" fill="none" xmlns="http://www.w3.org/2000/svg">
<path fill-rule="evenodd" clip-rule="evenodd" d="M3 2.90015C2.58579 2.90015 2.25 3.23593 2.25 3.65015V21.6501C2.25 22.0644 2.58579 22.4001 3 22.4001H21C21.4142 22.4001 21.75 22.0644 21.75 21.6501V3.65015C21.75 3.23593 21.4142 2.90015 21 2.90015H3ZM3.75 20.9001V4.40015H20.25V20.9001H3.75ZM7.9999 7.90016C7.58569 7.90016 7.2499 8.23595 7.2499 8.65016C7.2499 9.06438 7.58569 9.40016 7.9999 9.40016H13.9999C14.4141 9.40016 14.7499 9.06438 14.7499 8.65016C14.7499 8.23595 14.4141 7.90016 13.9999 7.90016H7.9999ZM7.2499 12.6502C7.2499 12.2359 7.58569 11.9002 7.9999 11.9002H15.9999C16.4141 11.9002 16.7499 12.2359 16.7499 12.6502C16.7499 13.0644 16.4141 13.4002 15.9999 13.4002H7.9999C7.58569 13.4002 7.2499 13.0644 7.2499 12.6502ZM7.9999 15.9002C7.58569 15.9002 7.2499 16.2359 7.2499 16.6502C7.2499 17.0644 7.58569 17.4002 7.9999 17.4002H11.9999C12.4141 17.4002 12.7499 17.0644 12.7499 16.6502C12.7499 16.2359 12.4141 15.9002 11.9999 15.9002H7.9999Z" fill="white"/>
</svg>
