<svg width="24" height="25" viewBox="0 0 24 25" fill="none" xmlns="http://www.w3.org/2000/svg">
<path fill-rule="evenodd" clip-rule="evenodd" d="M3 2.90015C2.58579 2.90015 2.25 3.23593 2.25 3.65015V21.6501C2.25 22.0644 2.58579 22.4001 3 22.4001H21C21.4142 22.4001 21.75 22.0644 21.75 21.6501V3.65015C21.75 3.23593 21.4142 2.90015 21 2.90015H3ZM3.75 20.9001V4.40015H20.25V20.9001H3.75ZM8.75 10.6502C8.75 10.2359 8.41421 9.90016 8 9.90016C7.58579 9.90016 7.25 10.2359 7.25 10.6502V16.6502C7.25 17.0644 7.58579 17.4002 8 17.4002C8.41421 17.4002 8.75 17.0644 8.75 16.6502V10.6502ZM12 7.90016C12.4142 7.90016 12.75 8.23595 12.75 8.65016V16.6502C12.75 17.0644 12.4142 17.4002 12 17.4002C11.5858 17.4002 11.25 17.0644 11.25 16.6502V8.65016C11.25 8.23595 11.5858 7.90016 12 7.90016ZM16.75 12.6502C16.75 12.2359 16.4142 11.9002 16 11.9002C15.5858 11.9002 15.25 12.2359 15.25 12.6502V16.6502C15.25 17.0644 15.5858 17.4002 16 17.4002C16.4142 17.4002 16.75 17.0644 16.75 16.6502V12.6502Z" fill="white"/>
</svg>
