<svg width="24" height="25" viewBox="0 0 24 25" fill="none" xmlns="http://www.w3.org/2000/svg">
<path fill-rule="evenodd" clip-rule="evenodd" d="M12 2.90015C11.5858 2.90015 11.25 3.23593 11.25 3.65015V12.6501C11.25 13.0644 11.5858 13.4001 12 13.4001H21C21.4142 13.4001 21.75 13.0644 21.75 12.6501C21.75 7.26537 17.3848 2.90015 12 2.90015ZM12.75 11.9001V4.43378C16.7079 4.79044 19.8597 7.94229 20.2164 11.9001H12.75ZM9.28156 4.85829C9.67266 4.72186 9.87911 4.29421 9.74267 3.90311C9.60624 3.51201 9.17859 3.30556 8.78749 3.442C8.40209 3.57644 8.02776 3.73437 7.66623 3.91404C4.45765 5.50856 2.25 8.82086 2.25 12.6502C2.25 18.0349 6.61522 22.4002 12 22.4002C16.2464 22.4002 19.8569 19.6859 21.195 15.9001C21.333 15.5095 21.1284 15.0811 20.7378 14.943C20.3473 14.805 19.9188 15.0097 19.7808 15.4002C18.6478 18.6055 15.5909 20.9002 12 20.9002C7.44365 20.9002 3.75 17.2065 3.75 12.6502C3.75 9.41201 5.61547 6.60819 8.33377 5.25731C8.63948 5.10538 8.95589 4.9719 9.28156 4.85829Z" fill="white"/>
</svg>
