<svg width="24" height="25" viewBox="0 0 24 25" fill="none" xmlns="http://www.w3.org/2000/svg">
<path fill-rule="evenodd" clip-rule="evenodd" d="M3 2.90015C2.58579 2.90015 2.25 3.23593 2.25 3.65015V21.6501C2.25 22.0644 2.58579 22.4001 3 22.4001H21C21.4142 22.4001 21.75 22.0644 21.75 21.6501V3.65015C21.75 3.23593 21.4142 2.90015 21 2.90015H3ZM3.75 20.9001V4.40015H20.25V20.9001H3.75ZM17.5303 10.1805C17.8232 9.8876 17.8232 9.41272 17.5303 9.11983C17.2374 8.82694 16.7626 8.82694 16.4697 9.11983L13 12.5895L11.5303 11.1198C11.2374 10.8269 10.7626 10.8269 10.4697 11.1198L6.46967 15.1198C6.17678 15.4127 6.17678 15.8876 6.46967 16.1805C6.76256 16.4734 7.23744 16.4734 7.53033 16.1805L11 12.7108L12.4697 14.1805C12.6103 14.3211 12.8011 14.4002 13 14.4002C13.1989 14.4002 13.3897 14.3211 13.5303 14.1805L17.5303 10.1805Z" fill="white"/>
</svg>
