<svg width="24" height="25" viewBox="0 0 24 25" fill="none" xmlns="http://www.w3.org/2000/svg">
<path fill-rule="evenodd" clip-rule="evenodd" d="M3 2.31C2.58579 2.31 2.25 2.64578 2.25 3.06V21.06C2.25 21.4742 2.58579 21.81 3 21.81H21C21.4142 21.81 21.75 21.4742 21.75 21.06V11.06C21.75 10.6458 21.4142 10.31 21 10.31C20.5858 10.31 20.25 10.6458 20.25 11.06V20.31H3.75V3.81H16C16.4142 3.81 16.75 3.47421 16.75 3.06C16.75 2.64578 16.4142 2.31 16 2.31H3ZM21.5303 5.59033C21.8232 5.29743 21.8232 4.82256 21.5303 4.52967C21.2374 4.23677 20.7626 4.23677 20.4697 4.52967L12 12.9993L9.53033 10.5297C9.23744 10.2368 8.76256 10.2368 8.46967 10.5297C8.17678 10.8226 8.17678 11.2974 8.46967 11.5903L11.4697 14.5903C11.6103 14.731 11.8011 14.81 12 14.81C12.1989 14.81 12.3897 14.731 12.5303 14.5903L21.5303 5.59033Z" fill="white"/>
</svg>
