<svg width="24" height="25" viewBox="0 0 24 25" fill="none" xmlns="http://www.w3.org/2000/svg">
<path fill-rule="evenodd" clip-rule="evenodd" d="M3.75 12.06C3.75 7.50365 7.44365 3.81 12 3.81C13.3185 3.81 14.5627 4.11873 15.6662 4.66715C16.0372 4.85149 16.4873 4.70023 16.6716 4.32929C16.856 3.95836 16.7047 3.50822 16.3338 3.32388C15.0274 2.67468 13.5552 2.31 12 2.31C6.61522 2.31 2.25 6.67522 2.25 12.06C2.25 17.4448 6.61522 21.81 12 21.81C17.3848 21.81 21.75 17.4448 21.75 12.06C21.75 11.6944 21.7298 11.3332 21.6905 10.9776C21.645 10.5659 21.2744 10.269 20.8627 10.3145C20.451 10.3601 20.1541 10.7307 20.1996 11.1424C20.2329 11.4434 20.25 11.7496 20.25 12.06C20.25 16.6163 16.5563 20.31 12 20.31C7.44365 20.31 3.75 16.6163 3.75 12.06ZM21.5303 5.59033C21.8232 5.29743 21.8232 4.82256 21.5303 4.52967C21.2374 4.23677 20.7626 4.23677 20.4697 4.52967L12 12.9993L9.53033 10.5297C9.23744 10.2368 8.76256 10.2368 8.46967 10.5297C8.17678 10.8226 8.17678 11.2974 8.46967 11.5903L11.4697 14.5903C11.6103 14.731 11.8011 14.81 12 14.81C12.1989 14.81 12.3897 14.731 12.5303 14.5903L21.5303 5.59033Z" fill="white"/>
</svg>
