<svg width="24" height="25" viewBox="0 0 24 25" fill="none" xmlns="http://www.w3.org/2000/svg">
<path fill-rule="evenodd" clip-rule="evenodd" d="M6.75 4.30029C6.90723 4.30029 7.05531 4.37426 7.14975 4.49997L12.7841 12C12.9178 12.1779 12.9178 12.4227 12.7841 12.6006L7.14976 20.1006C7.05531 20.2263 6.90723 20.3003 6.75 20.3003H4.50091C4.08867 20.3003 3.85354 19.8295 4.10119 19.4999L9.28566 12.6007C9.41937 12.4227 9.41937 12.1779 9.28566 11.9999L4.10119 5.10066C3.85354 4.77111 4.08867 4.30029 4.50091 4.30029H6.75ZM14.75 4.30029C14.9072 4.30029 15.0553 4.37426 15.1498 4.49997L20.7841 12C20.9178 12.1779 20.9178 12.4227 20.7841 12.6006L15.1498 20.1006C15.0553 20.2263 14.9072 20.3003 14.75 20.3003H12.5009C12.0887 20.3003 11.8535 19.8295 12.1012 19.4999L17.2857 12.6007C17.4194 12.4227 17.4194 12.1779 17.2857 11.9999L12.1012 5.10066C11.8535 4.77111 12.0887 4.30029 12.5009 4.30029H14.75Z" fill="white"/>
</svg>
