<svg width="24" height="25" viewBox="0 0 24 25" fill="none" xmlns="http://www.w3.org/2000/svg">
<path fill-rule="evenodd" clip-rule="evenodd" d="M9.53033 6.83062C9.82322 6.53773 9.82322 6.06286 9.53033 5.76996C9.23744 5.47707 8.76256 5.47707 8.46967 5.76996L2.46967 11.77C2.17678 12.0629 2.17678 12.5377 2.46967 12.8306L8.46967 18.8306C8.76256 19.1235 9.23744 19.1235 9.53033 18.8306C9.82322 18.5377 9.82322 18.0629 9.53033 17.77L4.06066 12.3003L9.53033 6.83062ZM15.5303 5.76996C15.2374 5.47707 14.7626 5.47707 14.4697 5.76996C14.1768 6.06286 14.1768 6.53773 14.4697 6.83062L19.9393 12.3003L14.4697 17.77C14.1768 18.0629 14.1768 18.5377 14.4697 18.8306C14.7626 19.1235 15.2374 19.1235 15.5303 18.8306L21.5303 12.8306C21.8232 12.5377 21.8232 12.0629 21.5303 11.77L15.5303 5.76996Z" fill="white"/>
</svg>
