<svg width="24" height="25" viewBox="0 0 24 25" fill="none" xmlns="http://www.w3.org/2000/svg">
<path fill-rule="evenodd" clip-rule="evenodd" d="M12.5303 5.76996C12.2374 5.47707 11.7626 5.47707 11.4697 5.76996C11.1768 6.06286 11.1768 6.53773 11.4697 6.83062L16.9393 12.3003L11.4697 17.77C11.1768 18.0629 11.1768 18.5377 11.4697 18.8306C11.7626 19.1235 12.2374 19.1235 12.5303 18.8306L18.5303 12.8306C18.8232 12.5377 18.8232 12.0629 18.5303 11.77L12.5303 5.76996ZM8.53033 7.76996C8.23744 7.47707 7.76256 7.47707 7.46967 7.76996C7.17678 8.06286 7.17678 8.53773 7.46967 8.83062L10.9393 12.3003L7.46967 15.77C7.17678 16.0629 7.17678 16.5377 7.46967 16.8306C7.76256 17.1235 8.23744 17.1235 8.53033 16.8306L12.5303 12.8306C12.8232 12.5377 12.8232 12.0629 12.5303 11.77L8.53033 7.76996Z" fill="white"/>
</svg>
