<svg width="24" height="25" viewBox="0 0 24 25" fill="none" xmlns="http://www.w3.org/2000/svg">
<path fill-rule="evenodd" clip-rule="evenodd" d="M8.53033 7.76996C8.23744 7.47707 7.76256 7.47707 7.46967 7.76996C7.17678 8.06286 7.17678 8.53773 7.46967 8.83062L11.4697 12.8306C11.7626 13.1235 12.2374 13.1235 12.5303 12.8306L16.5303 8.83062C16.8232 8.53773 16.8232 8.06286 16.5303 7.76996C16.2374 7.47707 15.7626 7.47707 15.4697 7.76996L12 11.2396L8.53033 7.76996ZM6.53033 11.77C6.23744 11.4771 5.76256 11.4771 5.46967 11.77C5.17678 12.0629 5.17678 12.5377 5.46967 12.8306L11.1868 18.5478L11.2 18.561C11.2531 18.6143 11.337 18.6984 11.4226 18.7637C11.533 18.848 11.7287 18.9675 12 18.9675C12.2713 18.9675 12.467 18.848 12.5774 18.7637C12.663 18.6984 12.7469 18.6143 12.8 18.561L12.8132 18.5478L18.5303 12.8306C18.8232 12.5377 18.8232 12.0629 18.5303 11.77C18.2374 11.4771 17.7626 11.4771 17.4697 11.77L12 17.2396L6.53033 11.77Z" fill="white"/>
</svg>
