<svg width="24" height="25" viewBox="0 0 24 25" fill="none" xmlns="http://www.w3.org/2000/svg">
<path fill-rule="evenodd" clip-rule="evenodd" d="M18.1343 4.30029C17.977 4.30029 17.829 4.37426 17.7345 4.49997L12.1001 12C11.9665 12.1779 11.9665 12.4227 12.1001 12.6006L17.7345 20.1006C17.829 20.2263 17.977 20.3003 18.1343 20.3003H20.3834C20.7956 20.3003 21.0307 19.8295 20.7831 19.4999L15.5986 12.6007C15.4649 12.4227 15.4649 12.1779 15.5986 11.9999L20.7831 5.10066C21.0307 4.77111 20.7956 4.30029 20.3834 4.30029H18.1343ZM10.1343 4.30029C9.97703 4.30029 9.82896 4.37426 9.73451 4.49997L4.10014 12C3.96648 12.1779 3.96648 12.4227 4.10014 12.6006L9.73451 20.1006C9.82895 20.2263 9.97703 20.3003 10.1343 20.3003H12.3834C12.7956 20.3003 13.0307 19.8295 12.7831 19.4999L7.5986 12.6007C7.4649 12.4227 7.4649 12.1779 7.5986 11.9999L12.7831 5.10066C13.0307 4.77111 12.7956 4.30029 12.3834 4.30029H10.1343Z" fill="white"/>
</svg>
