<svg width="24" height="25" viewBox="0 0 24 25" fill="none" xmlns="http://www.w3.org/2000/svg">
<path fill-rule="evenodd" clip-rule="evenodd" d="M12.5303 6.76996C12.2374 6.47707 11.7626 6.47707 11.4697 6.76996L5.46967 12.77C5.17678 13.0629 5.17678 13.5377 5.46967 13.8306C5.76256 14.1235 6.23744 14.1235 6.53033 13.8306L12 8.36095L17.4697 13.8306C17.7626 14.1235 18.2374 14.1235 18.5303 13.8306C18.8232 13.5377 18.8232 13.0629 18.5303 12.77L12.5303 6.76996ZM16.5303 16.77L12.5303 12.77C12.2374 12.4771 11.7626 12.4771 11.4697 12.77L7.46967 16.77C7.17678 17.0629 7.17678 17.5377 7.46967 17.8306C7.76256 18.1235 8.23744 18.1235 8.53033 17.8306L12 14.361L15.4697 17.8306C15.7626 18.1235 16.2374 18.1235 16.5303 17.8306C16.8232 17.5377 16.8232 17.0629 16.5303 16.77Z" fill="white"/>
</svg>
