<svg width="24" height="25" viewBox="0 0 24 25" fill="none" xmlns="http://www.w3.org/2000/svg">
<path fill-rule="evenodd" clip-rule="evenodd" d="M17.7197 5.76996C18.0126 5.47707 18.4874 5.47707 18.7803 5.76996C19.0732 6.06286 19.0732 6.53773 18.7803 6.83062L13.3107 12.3003L18.7803 17.77C19.0732 18.0629 19.0732 18.5377 18.7803 18.8306C18.4874 19.1235 18.0126 19.1235 17.7197 18.8306L11.7197 12.8306C11.4268 12.5377 11.4268 12.0629 11.7197 11.77L17.7197 5.76996ZM11.7197 5.76996C12.0126 5.47707 12.4874 5.47707 12.7803 5.76996C13.0732 6.06286 13.0732 6.53773 12.7803 6.83062L7.31066 12.3003L12.7803 17.77C13.0732 18.0629 13.0732 18.5377 12.7803 18.8306C12.4874 19.1235 12.0126 19.1235 11.7197 18.8306L5.71967 12.8306C5.42678 12.5377 5.42678 12.0629 5.71967 11.77L11.7197 5.76996Z" fill="white"/>
</svg>
