<svg width="24" height="25" viewBox="0 0 24 25" fill="none" xmlns="http://www.w3.org/2000/svg">
<path fill-rule="evenodd" clip-rule="evenodd" d="M12.5303 6.83062C12.8232 6.53773 12.8232 6.06286 12.5303 5.76996C12.2374 5.47707 11.7626 5.47707 11.4697 5.76996L5.46967 11.77C5.17678 12.0629 5.17678 12.5377 5.46967 12.8306L11.4697 18.8306C11.7626 19.1235 12.2374 19.1235 12.5303 18.8306C12.8232 18.5377 12.8232 18.0629 12.5303 17.77L7.06066 12.3003L12.5303 6.83062ZM16.5303 8.83062C16.8232 8.53773 16.8232 8.06286 16.5303 7.76996C16.2374 7.47707 15.7626 7.47707 15.4697 7.76996L11.4697 11.77C11.1768 12.0629 11.1768 12.5377 11.4697 12.8306L15.4697 16.8306C15.7626 17.1235 16.2374 17.1235 16.5303 16.8306C16.8232 16.5377 16.8232 16.0629 16.5303 15.77L13.0607 12.3003L16.5303 8.83062Z" fill="white"/>
</svg>
