<svg width="24" height="25" viewBox="0 0 24 25" fill="none" xmlns="http://www.w3.org/2000/svg">
<path fill-rule="evenodd" clip-rule="evenodd" d="M6.28033 5.76996C5.98744 5.47707 5.51256 5.47707 5.21967 5.76996C4.92678 6.06286 4.92678 6.53773 5.21967 6.83062L10.6893 12.3003L5.21967 17.77C4.92678 18.0629 4.92678 18.5377 5.21967 18.8306C5.51256 19.1235 5.98744 19.1235 6.28033 18.8306L12.2803 12.8306C12.5732 12.5377 12.5732 12.0629 12.2803 11.77L6.28033 5.76996ZM12.2803 5.76996C11.9874 5.47707 11.5126 5.47707 11.2197 5.76996C10.9268 6.06286 10.9268 6.53773 11.2197 6.83062L16.6893 12.3003L11.2197 17.77C10.9268 18.0629 10.9268 18.5377 11.2197 18.8306C11.5126 19.1235 11.9874 19.1235 12.2803 18.8306L18.2803 12.8306C18.5732 12.5377 18.5732 12.0629 18.2803 11.77L12.2803 5.76996Z" fill="white"/>
</svg>
