<svg width="24" height="25" viewBox="0 0 24 25" fill="none" xmlns="http://www.w3.org/2000/svg">
<path fill-rule="evenodd" clip-rule="evenodd" d="M9 1.08008C8.58579 1.08008 8.25 1.41586 8.25 1.83008V3.08008H8.24883H8.24494H8.24105H8.23715H8.23324H8.22934H8.22542H8.22151H8.21758H8.21365H8.20972H8.20578H8.20184H8.1979H8.19394H8.18999H8.18603H8.18207H8.1781H8.17413H8.17015H8.16617H8.16218H8.1582H8.1542H8.15021H8.14621H8.14221H8.1382H8.13419H8.13018H8.12616H8.12214H8.11812H8.11409H8.11007H8.10603H8.102H8.09796H8.09392H8.08988H8.08583H8.08179H8.07774H8.07368H8.06963H8.06557H8.06151H8.05745H8.05339H8.04932H8.04525H8.04119H8.03711H8.03304H8.02897H8.02489H8.02081H8.01674H8.01266H8.00857H8.00449H8.00041H7.99632H7.99224H7.98815H7.98406H7.97998H7.97589H7.9718H7.96771H7.96362H7.95952H7.95543H7.95134H7.94725H7.94316H7.93906H7.93497H7.93088H7.92679H7.92269H7.9186H7.91451H7.91042H7.90633H7.90224H7.89815H7.89406H7.88997H7.88588H7.8818H7.87771H7.87363H7.86954H7.86546H7.86138H7.8573H7.85322H7.84915H7.84507H7.841H7.83692H7.83285H7.82879H7.82472H7.82065H7.81659H7.81253H7.80847H7.80441H7.80036H7.79631H7.79226H7.78821H7.78417H7.78012H7.77608H7.77205H7.76801H7.76398H7.75995H7.75593H7.75191H7.74789H7.74387H7.73986H7.73585H7.73185H7.72785H7.72385H7.71985H7.71586H7.71187H7.70789H7.70391H7.69994H7.69596H7.692H7.68803H7.68408H7.68012H7.67617H7.67223H7.66828H7.66435H7.66042H7.65649H7.65257H7.64865H7.64474H7.64083H7.63693H7.63303H7.62914H7.62525H7.62137H7.6175H7.61363H7.60976H7.60591H7.60205H7.5982H7.59436H7.59053H7.5867H7.58288H7.57906H7.57525H7.57144H7.56764H7.56385H7.56007H7.55629H7.55252H7.54875H7.54499H7.54124H7.53749H7.53376H7.53003H7.5263H7.52258H7.51887H7.51517H7.51148H7.50779H7.50411H7.50044H7.49677H7.49312H7.48947H7.48583H7.48219H7.47857H7.47495H7.47134H7.46774H7.46415H7.46057H7.45699H7.45342H7.44986H7.44631H7.44277H7.43924H7.43572H7.4322H7.4287H7.4252H7.42171H7.41823H7.41477H7.41131H7.40786H7.40442H7.40098H7.39756H7.39415H7.39075H7.38736H7.38397H7.3806H7.37724H7.37389H7.37054H7.36721H7.36389H7.36058H7.35728H7.35399H7.35071H7.34744H7.34418H7.34093H7.33769H7.33447H7.33125H7.32805H7.32486H7.32168H7.3185H7.31535H7.3122H7.30906H7.30594H7.30282H7.29972H7.29663H7.29356H7.29049H7.28744H7.2844H7.28137H7.27835H7.27534H7.27235H7.26937H7.2664H7.26345H7.2605H7.25757H7.25466H7.25175H7.24886H7.24598H7.24311H7.24026H7.23742H7.2346H7.23178H7.22898H7.2262H7.22342H7.22066H7.21792H7.21519H7.21247H7.20976H7.20707H7.2044H7.20173H7.19909H7.19645H7.19383H7.19123H7.18863H7.18606H7.1835H7.18095H7.17841H7.1759H7.17339H7.1709H7.16843H7.16597H7.16353H7.1611H7.15869H7.15629H7.15391H7.15154H7.14919H7.14685H7.14453H7.14223H7.13994H7.13767H7.13541H7.13317H7.13094H7.12873H7.12654H7.12436H7.1222H7.12006H7.11793H7.11582H7.11373H7.11165H7.10959H7.10755H7.10552H7.10351H7.10152H7.09954H7.09758H7.09564H7.09372H7.09181H7.08992H7.08805H7.08619H7.08436H7.08254H7.08074H7.07895H7.07719H7.07544H7.07371H7.072H7.07031H7.06863H7.06698H7.06534H7.06372H7.06212H7.06054H7.05897H7.05743H7.0559H7.0544H7.05291H7.05144H7.04999H7.04856H7.04715H7.04575H7.04438H7.04303H7.0417H7.04038H7.03909H7.03781H7.03656H7.03532H7.03411H7.03291H7.03174H7.03058H7.02945H7.02833H7.02724H7.02616H7.02511H7.02408H7.02307H7.02207H7.0211H7.02015H7.01922H7.01832H7.01743H7.01656H7.01572H7.0149H7.01409H7.01331H7.01255H7.01182H7.0111H7.01041H7.00973H7.00908H7.00846H7.00785H7.00726H7.0067H7.00616H7.00564H7.00515H7.00467H7.00422H7.00379H7.00339H7.003H7.00264H7.0023H7.00199H7.0017H7.00143H7.00118H7.00096H7.00076H7.00058H7.00043H7.0003H7.00019H7.00011H7.00005H7.00001L7 3.83008V3.08008C6.58579 3.08008 6.25 3.41586 6.25 3.83008C6.25 4.24429 6.58579 4.58008 7 4.58008V3.83008L7.00001 4.58008H7.00005H7.00011H7.00019H7.0003H7.00043H7.00058H7.00076H7.00096H7.00118H7.00143H7.0017H7.00199H7.0023H7.00264H7.003H7.00339H7.00379H7.00422H7.00467H7.00515H7.00564H7.00616H7.0067H7.00726H7.00785H7.00846H7.00908H7.00973H7.01041H7.0111H7.01182H7.01255H7.01331H7.01409H7.0149H7.01572H7.01656H7.01743H7.01832H7.01922H7.02015H7.0211H7.02207H7.02307H7.02408H7.02511H7.02616H7.02724H7.02833H7.02945H7.03058H7.03174H7.03291H7.03411H7.03532H7.03656H7.03781H7.03909H7.04038H7.0417H7.04303H7.04438H7.04575H7.04715H7.04856H7.04999H7.05144H7.05291H7.0544H7.0559H7.05743H7.05897H7.06054H7.06212H7.06372H7.06534H7.06698H7.06863H7.07031H7.072H7.07371H7.07544H7.07719H7.07895H7.08074H7.08254H7.08436H7.08619H7.08805H7.08992H7.09181H7.09372H7.09564H7.09758H7.09954H7.10152H7.10351H7.10552H7.10755H7.10959H7.11165H7.11373H7.11582H7.11793H7.12006H7.1222H7.12436H7.12654H7.12873H7.13094H7.13317H7.13541H7.13767H7.13994H7.14223H7.14453H7.14685H7.14919H7.15154H7.15391H7.15629H7.15869H7.1611H7.16353H7.16597H7.16843H7.1709H7.17339H7.1759H7.17841H7.18095H7.1835H7.18606H7.18863H7.19123H7.19383H7.19645H7.19909H7.20173H7.2044H7.20707H7.20976H7.21247H7.21519H7.21792H7.22066H7.22342H7.2262H7.22898H7.23178H7.2346H7.23742H7.24026H7.24311H7.24598H7.24886H7.25175H7.25466H7.25757H7.2605H7.26345H7.2664H7.26937H7.27235H7.27534H7.27835H7.28137H7.2844H7.28744H7.29049H7.29356H7.29663H7.29972H7.30282H7.30594H7.30906H7.3122H7.31535H7.3185H7.32168H7.32486H7.32805H7.33125H7.33447H7.33769H7.34093H7.34418H7.34744H7.35071H7.35399H7.35728H7.36058H7.36389H7.36721H7.37054H7.37389H7.37724H7.3806H7.38397H7.38736H7.39075H7.39415H7.39756H7.40098H7.40442H7.40786H7.41131H7.41477H7.41823H7.42171H7.4252H7.4287H7.4322H7.43572H7.43924H7.44277H7.44631H7.44986H7.45342H7.45699H7.46057H7.46415H7.46774H7.47134H7.47495H7.47857H7.48219H7.48583H7.48947H7.49312H7.49677H7.50044H7.50411H7.50779H7.51148H7.51517H7.51887H7.52258H7.5263H7.53003H7.53376H7.53749H7.54124H7.54499H7.54875H7.55252H7.55629H7.56007H7.56385H7.56764H7.57144H7.57525H7.57906H7.58288H7.5867H7.59053H7.59436H7.5982H7.60205H7.60591H7.60976H7.61363H7.6175H7.62137H7.62525H7.62914H7.63303H7.63693H7.64083H7.64474H7.64865H7.65257H7.65649H7.66042H7.66435H7.66828H7.67223H7.67617H7.68012H7.68408H7.68803H7.692H7.69596H7.69994H7.70391H7.70789H7.71187H7.71586H7.71985H7.72385H7.72785H7.73185H7.73585H7.73986H7.74387H7.74789H7.75191H7.75593H7.75995H7.76398H7.76801H7.77205H7.77608H7.78012H7.78417H7.78821H7.79226H7.79631H7.80036H7.80441H7.80847H7.81253H7.81659H7.82065H7.82472H7.82879H7.83285H7.83692H7.841H7.84507H7.84915H7.85322H7.8573H7.86138H7.86546H7.86954H7.87363H7.87771H7.8818H7.88588H7.88997H7.89406H7.89815H7.90224H7.90633H7.91042H7.91451H7.9186H7.92269H7.92679H7.93088H7.93497H7.93906H7.94316H7.94725H7.95134H7.95543H7.95952H7.96362H7.96771H7.9718H7.97589H7.97998H7.98406H7.98815H7.99224H7.99632H8.00041H8.00449H8.00857H8.01266H8.01674H8.02081H8.02489H8.02897H8.03304H8.03711H8.04119H8.04525H8.04932H8.05339H8.05745H8.06151H8.06557H8.06963H8.07368H8.07774H8.08179H8.08583H8.08988H8.09392H8.09796H8.102H8.10603H8.11007H8.11409H8.11812H8.12214H8.12616H8.13018H8.13419H8.1382H8.14221H8.14621H8.15021H8.1542H8.1582H8.16218H8.16617H8.17015H8.17413H8.1781H8.18207H8.18603H8.18999H8.19394H8.1979H8.20184H8.20578H8.20972H8.21365H8.21758H8.22151H8.22542H8.22934H8.23324H8.23715H8.24105H8.24494H8.24883H8.25V5.83008C8.25 6.24429 8.58579 6.58008 9 6.58008H15C15.4142 6.58008 15.75 6.24429 15.75 5.83008V4.58008H19.25V13.8301C19.25 14.091 19.251 14.3402 19.2521 14.5794V14.5795C19.2539 15.0277 19.2557 15.4404 19.2501 15.8279C19.2441 16.2421 19.575 16.5827 19.9892 16.5887C20.4033 16.5947 20.7439 16.2638 20.7499 15.8496C20.7557 15.4488 20.7539 15.0115 20.752 14.5531L20.752 14.552C20.751 14.3162 20.75 14.0749 20.75 13.8301V3.83008C20.75 3.41586 20.4142 3.08008 20 3.08008H15.75V1.83008C15.75 1.41586 15.4142 1.08008 15 1.08008H9ZM14.25 5.08008H9.75V2.58008H14.25V5.08008ZM2.53033 2.29975C2.23744 2.00685 1.76256 2.00685 1.46967 2.29975C1.17678 2.59264 1.17678 3.06752 1.46967 3.36041L3.25 5.14074V13.8301V13.8522V13.8743V13.8964V13.9185V13.9407V13.9628V13.985V14.0072V14.0294V14.0515V14.0737V14.0959V14.1181V14.1404V14.1626V14.1848V14.2071V14.2293V14.2516V14.2738V14.2961V14.3184V14.3407V14.3629V14.3852V14.4075V14.4298V14.4521V14.4744V14.4968V14.5191V14.5414V14.5637V14.5861V14.6084V14.6307V14.6531V14.6754V14.6978V14.7201V14.7425V14.7648V14.7872V14.8095V14.8319V14.8542V14.8766V14.8989V14.9213V14.9437V14.966V14.9884V15.0107V15.0331V15.0554V15.0778V15.1002V15.1225V15.1449V15.1672V15.1896V15.2119V15.2342V15.2566V15.2789V15.3013V15.3236V15.3459V15.3682V15.3906V15.4129V15.4352V15.4575V15.4798V15.5021V15.5244V15.5467V15.5689V15.5912V15.6135V15.6357V15.658V15.6802V15.7025V15.7247V15.7469V15.7692V15.7914V15.8136V15.8358V15.858V15.8801V15.9023V15.9245V15.9466V15.9688V15.9909V16.013V16.0351V16.0572V16.0793V16.1014V16.1235V16.1455V16.1676V16.1896V16.2116V16.2337V16.2557V16.2776V16.2996V16.3216V16.3435V16.3655V16.3874V16.4093V16.4312V16.4531V16.4749V16.4968V16.5186V16.5405V16.5623V16.5841V16.6058V16.6276V16.6493V16.6711V16.6928V16.7145V16.7362V16.7578V16.7795V16.8011V16.8227V16.8443V16.8659V16.8874V16.909V16.9305V16.952V16.9735V16.9949V17.0164V17.0378V17.0592V17.0806V17.1019V17.1233V17.1446V17.1659V17.1872V17.2085V17.2297V17.2509V17.2721V17.2933V17.3144V17.3355V17.3566V17.3777V17.3988V17.4198V17.4408V17.4618V17.4828V17.5037V17.5246V17.5455V17.5664V17.5872V17.608V17.6288V17.6496V17.6703V17.691V17.7117V17.7323V17.753V17.7736V17.7941V17.8147V17.8352V17.8557V17.8762V17.8966V17.917V17.9374V17.9577V17.9781V17.9983V18.0186V18.0388V18.059V18.0792V18.0994V18.1195V18.1395V18.1596V18.1796V18.1996V18.2196V18.2395V18.2594V18.2792V18.299V18.3188V18.3386V18.3583V18.378V18.3977V18.4173V18.4369V18.4565V18.476V18.4955V18.5149V18.5343V18.5537V18.5731V18.5924V18.6117V18.6309V18.6501V18.6693V18.6884V18.7075V18.7266V18.7456V18.7646V18.7835V18.8024V18.8213V18.8401V18.8589V18.8777V18.8964V18.9151V18.9337V18.9523V18.9709V18.9894V19.0078V19.0263V19.0447V19.063V19.0814V19.0996V19.1179V19.136V19.1542V19.1723V19.1904V19.2084V19.2264V19.2443V19.2622V19.28V19.2978V19.3156V19.3333V19.351V19.3686V19.3862V19.4037V19.4212V19.4387V19.4561V19.4734V19.4908V19.508V19.5252V19.5424V19.5595V19.5766V19.5936V19.6106V19.6276V19.6445V19.6613V19.6781V19.6948V19.7115V19.7282V19.7448V19.7613V19.7778V19.7943V19.8107V19.827V19.8433V19.8596V19.8758V19.8919V19.908V19.9241V19.9401V19.956V19.9719V19.9877V20.0035V20.0192V20.0349V20.0505V20.0661V20.0816V20.0971V20.1125V20.1279V20.1432V20.1584V20.1736V20.1888V20.2039V20.2189V20.2339V20.2488V20.2636V20.2784V20.2932V20.3079V20.3225V20.3371V20.3516V20.3661V20.3805V20.3949V20.4091V20.4234V20.4376V20.4517V20.4657V20.4797V20.4937V20.5075V20.5214V20.5351V20.5488V20.5625V20.576V20.5896V20.603V20.6164V20.6298V20.643V20.6562V20.6694V20.6825V20.6955V20.7085V20.7214V20.7342V20.747V20.7597V20.7723V20.7849V20.7974V20.8099V20.8223V20.8346V20.8469V20.859V20.8712V20.8832V20.8952V20.9072V20.919V20.9308V20.9426V20.9542V20.9658V20.9774V20.9888V21.0002V21.0115V21.0228V21.034V21.0451V21.0562V21.0672V21.0781V21.0889V21.0997V21.1104V21.121V21.1316V21.1421V21.1525V21.1629V21.1732V21.1834V21.1935V21.2036V21.2136V21.2235V21.2334V21.2432V21.2529V21.2625V21.2721V21.2816V21.291V21.3003V21.3096V21.3188V21.3279V21.337V21.3459V21.3548V21.3636V21.3724V21.3811V21.3896V21.3982V21.4066V21.415V21.4233V21.4315V21.4396V21.4477V21.4556V21.4635V21.4714V21.4791V21.4868V21.4944V21.5019V21.5093V21.5167V21.5239V21.5311V21.5382V21.5453V21.5522V21.5591V21.5659V21.5726V21.5792V21.5858V21.5922V21.5986V21.6049V21.6111V21.6173V21.6233V21.6293V21.6352V21.641V21.6467V21.6524V21.6579V21.6634V21.6688V21.6741V21.6793V21.6844V21.6895V21.6945V21.6993V21.7041V21.7088V21.7135V21.718V21.7224V21.7268V21.7311V21.7353V21.7394V21.7434V21.7473V21.7511V21.7549V21.7585V21.7621V21.7656V21.769V21.7723V21.7755V21.7786V21.7817V21.7846V21.7875V21.7902V21.7929V21.7955V21.798V21.8004V21.8027V21.8049V21.807V21.8091V21.811V21.8128V21.8146V21.8163V21.8178V21.8193V21.8207V21.822V21.8232V21.8243V21.8253V21.8262V21.827V21.8277V21.8283V21.8289V21.8293V21.8296V21.8299V21.83L4 21.8301H3.25C3.25 22.2443 3.58579 22.5801 4 22.5801V21.8301C4 22.5801 4.00005 22.5801 4.00015 22.5801H4.0006H4.00136H4.00241H4.00376H4.00541H4.00736H4.0096H4.01214H4.01497H4.01809H4.02151H4.02521H4.02921H4.03349H4.03806H4.04292H4.04806H4.05349H4.0592H4.0652H4.07147H4.07803H4.08486H4.09198H4.09937H4.10704H4.11498H4.1232H4.13169H4.14045H4.14949H4.15879H4.16836H4.17821H4.18832H4.19869H4.20933H4.22024H4.23141H4.24284H4.25453H4.26648H4.2787H4.29116H4.30389H4.31687H4.33011H4.3436H4.35735H4.37135H4.3856H4.40009H4.41484H4.42984H4.44508H4.46057H4.4763H4.49228H4.5085H4.52496H4.54166H4.55861H4.57579H4.59321H4.61087H4.62876H4.64689H4.66525H4.68384H4.70267H4.72172H4.74101H4.76052H4.78027H4.80024H4.82043H4.84085H4.8615H4.88236H4.90345H4.92476H4.94629H4.96803H4.99H5.01218H5.03458H5.05719H5.08001H5.10305H5.1263H5.14976H5.17343H5.1973H5.22139H5.24568H5.27017H5.29488H5.31978H5.34489H5.37019H5.3957H5.42141H5.44732H5.47342H5.49972H5.52621H5.5529H5.57979H5.60686H5.63413H5.66158H5.68923H5.71706H5.74508H5.77329H5.80168H5.83026H5.85901H5.88796H5.91708H5.94638H5.97586H6.00552H6.03536H6.06537H6.09556H6.12592H6.15645H6.18716H6.21804H6.24909H6.2803H6.31169H6.34324H6.37495H6.40684H6.43888H6.47109H6.50346H6.53599H6.56868H6.60153H6.63454H6.6677H6.70102H6.7345H6.76813H6.80191H6.83584H6.86992H6.90416H6.93854H6.97307H7.00774H7.04256H7.07753H7.11264H7.14789H7.18328H7.21882H7.25449H7.2903H7.32625H7.36234H7.39856H7.43492H7.47141H7.50803H7.54478H7.58166H7.61868H7.65582H7.69309H7.73048H7.768H7.80565H7.84341H7.8813H7.91931H7.95745H7.9957H8.03407H8.07255H8.11115H8.14987H8.1887H8.22765H8.2667H8.30587H8.34515H8.38454H8.42403H8.46363H8.50334H8.54316H8.58307H8.62309H8.66322H8.70344H8.74376H8.78418H8.8247H8.86532H8.90603H8.94684H8.98774H9.02874H9.06982H9.111H9.15227H9.19362H9.23507H9.2766H9.31821H9.35991H9.4017H9.44357H9.48551H9.52754H9.56965H9.61184H9.65411H9.69645H9.73887H9.78136H9.82393H9.86656H9.90927H9.95205H9.9949H10.0378H10.0808H10.1239H10.167H10.2102H10.2534H10.2967H10.3401H10.3835H10.427H10.4706H10.5142H10.5578H10.6015H10.6453H10.6891H10.733H10.7769H10.8209H10.8649H10.909H10.9531H10.9973H11.0415H11.0858H11.1301H11.1744H11.2188H11.2632H11.3077H11.3522H11.3967H11.4413H11.4859H11.5306H11.5753H11.62H11.6647H11.7095H11.7543H11.7991H11.844H11.8888H11.9337H11.9787H12.0236H12.0686H12.1136H12.1586H12.2036H12.2487H12.2938H12.3388H12.3839H12.4291H12.4742H12.5193H12.5645H12.6096H12.6548H12.7H12.7451H12.7903H12.8355H12.8807H12.9259H12.9711H13.0163H13.0615H13.1067H13.1519H13.1971H13.2423H13.2875H13.3326H13.3778H13.423H13.4681H13.5132H13.5584H13.6035H13.6486H13.6937H13.7387H13.7838H13.8288H13.8738H13.9188H13.9638H14.0088H14.0537H14.0986H14.1435H14.1883H14.2332H14.278H14.3228H14.3675H14.4122H14.4569H14.5015H14.5462H14.5907H14.6353H14.6798H14.7243H14.7687H14.8131H14.8574H14.9017H14.946H14.9902H15.0344H15.0785H15.1226H15.1666H15.2106H15.2545H15.2984H15.3423H15.386H15.4298H15.4734H15.517H15.5606H15.6041H15.6475H15.6909H15.7342H15.7775H15.8207H15.8638H15.9068H15.9498H15.9928H16.0356H16.0784H16.1211H16.1638H16.2064H16.2489H16.2913H16.3336H16.3759H16.4181H16.4602H16.5023H16.5442H16.5861H16.6279H16.6696H16.7112H16.7528H16.7942H16.8356H16.8769H16.918H16.9591H17.0001H17.0411H17.0819H17.1226H17.1632H17.2038H17.2442H17.2845H17.3248H17.3649H17.4049H17.4449H17.4847H17.5244H17.564H17.6035H17.6429H17.6822H17.7214H17.7605H17.7994H17.8383H17.877H17.9156H17.9541H17.9925H18.0308H18.0689H18.1069H18.1448H18.1826H18.2203H18.2578H18.2952H18.3325H18.3696H18.4067H18.4436H18.4803H18.517H18.5535H18.5898H18.6261H18.6622H18.6982H18.734H18.7697H18.8052H18.8406H18.8759H18.911H18.946H18.9808H19.0155H19.0501H19.0845H19.1187H19.1528H19.1868H19.2206H19.2542H19.2877H19.321H19.3542H19.3873H19.4201H19.4528H19.4854H19.5178H19.55H19.5821H19.614H19.6457H19.6773H19.7087H19.7399H19.771H19.8019H19.8326H19.8631H19.8935H19.9237H19.9538H19.9836H20.0133H20.0428H20.0721H20.1013H20.1302H20.159H20.1876H20.216H20.2442H20.2723H20.3001H20.3278H20.3553H20.3826H20.4097H20.4366H20.4633H20.4898H20.5161H20.5422H20.5682H20.5939H20.6194H20.6448H20.6699H20.6893L21.4697 23.3604C21.7626 23.6533 22.2374 23.6533 22.5303 23.3604C22.8232 23.0675 22.8232 22.5926 22.5303 22.2997L19.799 19.5684L5.24632 5.01574L2.53033 2.29975ZM4.75 13.8301V6.64074L18.7383 20.6291L19.1893 21.0801H19.1868H19.1528H19.1187H19.0845H19.0501H19.0155H18.9808H18.946H18.911H18.8759H18.8406H18.8052H18.7697H18.734H18.6982H18.6622H18.6261H18.5898H18.5535H18.517H18.4803H18.4436H18.4067H18.3696H18.3325H18.2952H18.2578H18.2203H18.1826H18.1448H18.1069H18.0689H18.0308H17.9925H17.9541H17.9156H17.877H17.8383H17.7994H17.7605H17.7214H17.6822H17.6429H17.6035H17.564H17.5244H17.4847H17.4449H17.4049H17.3649H17.3248H17.2845H17.2442H17.2038H17.1632H17.1226H17.0819H17.0411H17.0001H16.9591H16.918H16.8769H16.8356H16.7942H16.7528H16.7112H16.6696H16.6279H16.5861H16.5442H16.5023H16.4602H16.4181H16.3759H16.3336H16.2913H16.2489H16.2064H16.1638H16.1211H16.0784H16.0356H15.9928H15.9498H15.9068H15.8638H15.8207H15.7775H15.7342H15.6909H15.6475H15.6041H15.5606H15.517H15.4734H15.4298H15.386H15.3423H15.2984H15.2545H15.2106H15.1666H15.1226H15.0785H15.0344H14.9902H14.946H14.9017H14.8574H14.8131H14.7687H14.7243H14.6798H14.6353H14.5907H14.5462H14.5015H14.4569H14.4122H14.3675H14.3228H14.278H14.2332H14.1883H14.1435H14.0986H14.0537H14.0088H13.9638H13.9188H13.8738H13.8288H13.7838H13.7387H13.6937H13.6486H13.6035H13.5584H13.5132H13.4681H13.423H13.3778H13.3326H13.2875H13.2423H13.1971H13.1519H13.1067H13.0615H13.0163H12.9711H12.9259H12.8807H12.8355H12.7903H12.7451H12.7H12.6548H12.6096H12.5645H12.5193H12.4742H12.4291H12.3839H12.3388H12.2938H12.2487H12.2036H12.1586H12.1136H12.0686H12.0236H11.9787H11.9337H11.8888H11.844H11.7991H11.7543H11.7095H11.6647H11.62H11.5753H11.5306H11.4859H11.4413H11.3967H11.3522H11.3077H11.2632H11.2188H11.1744H11.1301H11.0858H11.0415H10.9973H10.9531H10.909H10.8649H10.8209H10.7769H10.733H10.6891H10.6453H10.6015H10.5578H10.5142H10.4706H10.427H10.3835H10.3401H10.2967H10.2534H10.2102H10.167H10.1239H10.0808H10.0378H9.9949H9.95205H9.90927H9.86656H9.82393H9.78136H9.73887H9.69645H9.65411H9.61184H9.56965H9.52754H9.48551H9.44357H9.4017H9.35991H9.31821H9.2766H9.23507H9.19362H9.15227H9.111H9.06982H9.02874H8.98774H8.94684H8.90603H8.86532H8.8247H8.78418H8.74376H8.70344H8.66322H8.62309H8.58307H8.54316H8.50334H8.46363H8.42403H8.38454H8.34515H8.30587H8.2667H8.22765H8.1887H8.14987H8.11115H8.07255H8.03407H7.9957H7.95745H7.91931H7.8813H7.84341H7.80565H7.768H7.73048H7.69309H7.65582H7.61868H7.58166H7.54478H7.50803H7.47141H7.43492H7.39856H7.36234H7.32625H7.2903H7.25449H7.21882H7.18328H7.14789H7.11264H7.07753H7.04256H7.00774H6.97307H6.93854H6.90416H6.86992H6.83584H6.80191H6.76813H6.7345H6.70102H6.6677H6.63454H6.60153H6.56868H6.53599H6.50346H6.47109H6.43888H6.40684H6.37495H6.34324H6.31169H6.2803H6.24909H6.21804H6.18716H6.15645H6.12592H6.09556H6.06537H6.03536H6.00552H5.97586H5.94638H5.91708H5.88796H5.85901H5.83026H5.80168H5.77329H5.74508H5.71706H5.68923H5.66158H5.63413H5.60686H5.57979H5.5529H5.52621H5.49972H5.47342H5.44732H5.42141H5.3957H5.37019H5.34489H5.31978H5.29488H5.27017H5.24568H5.22139H5.1973H5.17343H5.14976H5.1263H5.10305H5.08001H5.05719H5.03458H5.01218H4.99H4.96803H4.94629H4.92476H4.90345H4.88236H4.8615H4.84085H4.82043H4.80024H4.78027H4.76052H4.75V21.0781V21.0672V21.0562V21.0451V21.034V21.0228V21.0115V21.0002V20.9888V20.9774V20.9658V20.9542V20.9426V20.9308V20.919V20.9072V20.8952V20.8832V20.8712V20.859V20.8469V20.8346V20.8223V20.8099V20.7974V20.7849V20.7723V20.7597V20.747V20.7342V20.7214V20.7085V20.6955V20.6825V20.6694V20.6562V20.643V20.6298V20.6164V20.603V20.5896V20.576V20.5625V20.5488V20.5351V20.5214V20.5075V20.4937V20.4797V20.4657V20.4517V20.4376V20.4234V20.4091V20.3949V20.3805V20.3661V20.3516V20.3371V20.3225V20.3079V20.2932V20.2784V20.2636V20.2488V20.2339V20.2189V20.2039V20.1888V20.1736V20.1584V20.1432V20.1279V20.1125V20.0971V20.0816V20.0661V20.0505V20.0349V20.0192V20.0035V19.9877V19.9719V19.956V19.9401V19.9241V19.908V19.8919V19.8758V19.8596V19.8433V19.827V19.8107V19.7943V19.7778V19.7613V19.7448V19.7282V19.7115V19.6948V19.6781V19.6613V19.6445V19.6276V19.6106V19.5936V19.5766V19.5595V19.5424V19.5252V19.508V19.4908V19.4734V19.4561V19.4387V19.4212V19.4037V19.3862V19.3686V19.351V19.3333V19.3156V19.2978V19.28V19.2622V19.2443V19.2264V19.2084V19.1904V19.1723V19.1542V19.136V19.1179V19.0996V19.0814V19.063V19.0447V19.0263V19.0078V18.9894V18.9709V18.9523V18.9337V18.9151V18.8964V18.8777V18.8589V18.8401V18.8213V18.8024V18.7835V18.7646V18.7456V18.7266V18.7075V18.6884V18.6693V18.6501V18.6309V18.6117V18.5924V18.5731V18.5537V18.5343V18.5149V18.4955V18.476V18.4565V18.4369V18.4173V18.3977V18.378V18.3583V18.3386V18.3188V18.299V18.2792V18.2594V18.2395V18.2196V18.1996V18.1796V18.1596V18.1395V18.1195V18.0994V18.0792V18.059V18.0388V18.0186V17.9983V17.9781V17.9577V17.9374V17.917V17.8966V17.8762V17.8557V17.8352V17.8147V17.7941V17.7736V17.753V17.7323V17.7117V17.691V17.6703V17.6496V17.6288V17.608V17.5872V17.5664V17.5455V17.5246V17.5037V17.4828V17.4618V17.4408V17.4198V17.3988V17.3777V17.3566V17.3355V17.3144V17.2933V17.2721V17.2509V17.2297V17.2085V17.1872V17.1659V17.1446V17.1233V17.1019V17.0806V17.0592V17.0378V17.0164V16.9949V16.9735V16.952V16.9305V16.909V16.8874V16.8659V16.8443V16.8227V16.8011V16.7795V16.7578V16.7362V16.7145V16.6928V16.6711V16.6493V16.6276V16.6058V16.5841V16.5623V16.5405V16.5186V16.4968V16.4749V16.4531V16.4312V16.4093V16.3874V16.3655V16.3435V16.3216V16.2996V16.2776V16.2557V16.2337V16.2116V16.1896V16.1676V16.1455V16.1235V16.1014V16.0793V16.0572V16.0351V16.013V15.9909V15.9688V15.9466V15.9245V15.9023V15.8801V15.858V15.8358V15.8136V15.7914V15.7692V15.7469V15.7247V15.7025V15.6802V15.658V15.6357V15.6135V15.5912V15.5689V15.5467V15.5244V15.5021V15.4798V15.4575V15.4352V15.4129V15.3906V15.3682V15.3459V15.3236V15.3013V15.2789V15.2566V15.2342V15.2119V15.1896V15.1672V15.1449V15.1225V15.1002V15.0778V15.0554V15.0331V15.0107V14.9884V14.966V14.9437V14.9213V14.8989V14.8766V14.8542V14.8319V14.8095V14.7872V14.7648V14.7425V14.7201V14.6978V14.6754V14.6531V14.6307V14.6084V14.5861V14.5637V14.5414V14.5191V14.4968V14.4744V14.4521V14.4298V14.4075V14.3852V14.3629V14.3407V14.3184V14.2961V14.2738V14.2516V14.2293V14.2071V14.1848V14.1626V14.1404V14.1181V14.0959V14.0737V14.0515V14.0294V14.0072V13.985V13.9628V13.9407V13.9185V13.8964V13.8743V13.8522V13.8301Z" fill="white"/>
</svg>
