<svg width="24" height="25" viewBox="0 0 24 25" fill="none" xmlns="http://www.w3.org/2000/svg">
<path fill-rule="evenodd" clip-rule="evenodd" d="M8.25005 1.83008C8.25005 1.41586 8.58584 1.08008 9.00005 1.08008H15.0001C15.4143 1.08008 15.7501 1.41586 15.7501 1.83008V3.08008H20C20.4142 3.08008 20.75 3.41586 20.75 3.83008V21.8301C20.75 22.2443 20.4142 22.5801 20 22.5801H4C3.58579 22.5801 3.25 22.2443 3.25 21.8301V3.83008C3.25 3.41586 3.58579 3.08008 4 3.08008H8.25005V1.83008ZM15.7501 5.83008V4.58008H19.25V21.0801H4.75V4.58008H8.25005V5.83008C8.25005 6.24429 8.58584 6.58008 9.00005 6.58008H15.0001C15.4143 6.58008 15.7501 6.24429 15.7501 5.83008ZM9.75005 5.08008H14.2501V2.58008H9.75005V5.08008ZM12.75 10.3301C12.75 9.91586 12.4142 9.58008 12 9.58008C11.5858 9.58008 11.25 9.91586 11.25 10.3301V12.0801H9.5C9.08579 12.0801 8.75 12.4159 8.75 12.8301C8.75 13.2443 9.08579 13.5801 9.5 13.5801H11.25V15.3301C11.25 15.7443 11.5858 16.0801 12 16.0801C12.4142 16.0801 12.75 15.7443 12.75 15.3301V13.5801H14.5C14.9142 13.5801 15.25 13.2443 15.25 12.8301C15.25 12.4159 14.9142 12.0801 14.5 12.0801H12.75V10.3301Z" fill="white"/>
</svg>
