<svg width="24" height="25" viewBox="0 0 24 25" fill="none" xmlns="http://www.w3.org/2000/svg">
<path fill-rule="evenodd" clip-rule="evenodd" d="M8.25005 1.83008C8.25005 1.41586 8.58584 1.08008 9.00005 1.08008H15.0001C15.4143 1.08008 15.7501 1.41586 15.7501 1.83008V3.08008H20C20.4142 3.08008 20.75 3.41586 20.75 3.83008V21.8301C20.75 22.2443 20.4142 22.5801 20 22.5801H4C3.58579 22.5801 3.25 22.2443 3.25 21.8301V3.83008C3.25 3.41586 3.58579 3.08008 4 3.08008H8.25005V1.83008ZM15.7501 5.83008V4.58008H19.25V21.0801H4.75V4.58008H8.25005V5.83008C8.25005 6.24429 8.58584 6.58008 9.00005 6.58008H15.0001C15.4143 6.58008 15.7501 6.24429 15.7501 5.83008ZM9.75005 5.08008H14.2501V2.58008H9.75005V5.08008ZM15.5303 11.3604C15.8232 11.0675 15.8232 10.5926 15.5303 10.2997C15.2374 10.0069 14.7626 10.0069 14.4697 10.2997L11 13.7694L10.0303 12.7997C9.73744 12.5069 9.26256 12.5069 8.96967 12.7997C8.67678 13.0926 8.67678 13.5675 8.96967 13.8604L10.4697 15.3604C10.6103 15.5011 10.8011 15.5801 11 15.5801C11.1989 15.5801 11.3897 15.5011 11.5303 15.3604L15.5303 11.3604Z" fill="white"/>
</svg>
