<svg width="24" height="25" viewBox="0 0 24 25" fill="none" xmlns="http://www.w3.org/2000/svg">
<path fill-rule="evenodd" clip-rule="evenodd" d="M9.00005 1.08008C8.58584 1.08008 8.25005 1.41586 8.25005 1.83008V3.08008H4C3.58579 3.08008 3.25 3.41586 3.25 3.83008V21.8301C3.25 22.2443 3.58579 22.5801 4 22.5801H20C20.4142 22.5801 20.75 22.2443 20.75 21.8301V3.83008C20.75 3.41586 20.4142 3.08008 20 3.08008H15.7501V1.83008C15.7501 1.41586 15.4143 1.08008 15.0001 1.08008H9.00005ZM15.7501 4.58008V5.83008C15.7501 6.24429 15.4143 6.58008 15.0001 6.58008H9.00005C8.58584 6.58008 8.25005 6.24429 8.25005 5.83008V4.58008H4.75V21.0801H19.25V4.58008H15.7501ZM14.2501 5.08008H9.75005V2.58008H14.2501V5.08008ZM8.25 10.8301C8.25 10.4159 8.58579 10.0801 9 10.0801H15C15.4142 10.0801 15.75 10.4159 15.75 10.8301C15.75 11.2443 15.4142 11.5801 15 11.5801H9C8.58579 11.5801 8.25 11.2443 8.25 10.8301ZM9 14.0801C8.58579 14.0801 8.25 14.4159 8.25 14.8301C8.25 15.2443 8.58579 15.5801 9 15.5801H13C13.4142 15.5801 13.75 15.2443 13.75 14.8301C13.75 14.4159 13.4142 14.0801 13 14.0801H9Z" fill="white"/>
</svg>
