<svg width="24" height="25" viewBox="0 0 24 25" fill="none" xmlns="http://www.w3.org/2000/svg">
<path fill-rule="evenodd" clip-rule="evenodd" d="M8.25005 1.83008C8.25005 1.41586 8.58584 1.08008 9.00005 1.08008H15.0001C15.4143 1.08008 15.7501 1.41586 15.7501 1.83008V3.08008H20C20.4142 3.08008 20.75 3.41586 20.75 3.83008V21.8301C20.75 22.2443 20.4142 22.5801 20 22.5801H4C3.58579 22.5801 3.25 22.2443 3.25 21.8301V3.83008C3.25 3.41586 3.58579 3.08008 4 3.08008H8.25005V1.83008ZM15.7501 5.83008V4.58008H19.25V21.0801H4.75V4.58008H8.25005V5.83008C8.25005 6.24429 8.58584 6.58008 9.00005 6.58008H15.0001C15.4143 6.58008 15.7501 6.24429 15.7501 5.83008ZM9.75005 5.08008H14.2501V2.58008H9.75005V5.08008ZM10.5303 10.2997C10.2374 10.0069 9.76256 10.0069 9.46967 10.2997C9.17678 10.5926 9.17678 11.0675 9.46967 11.3604L10.9393 12.8301L9.46967 14.2997C9.17678 14.5926 9.17678 15.0675 9.46967 15.3604C9.76256 15.6533 10.2374 15.6533 10.5303 15.3604L12 13.8907L13.4697 15.3604C13.7626 15.6533 14.2374 15.6533 14.5303 15.3604C14.8232 15.0675 14.8232 14.5926 14.5303 14.2997L13.0607 12.8301L14.5303 11.3604C14.8232 11.0675 14.8232 10.5926 14.5303 10.2997C14.2374 10.0069 13.7626 10.0069 13.4697 10.2997L12 11.7694L10.5303 10.2997Z" fill="white"/>
</svg>
