<svg width="24" height="25" viewBox="0 0 24 25" fill="none" xmlns="http://www.w3.org/2000/svg">
<path fill-rule="evenodd" clip-rule="evenodd" d="M9.00005 1.08008C8.58584 1.08008 8.25005 1.41586 8.25005 1.83008V3.08008H4C3.58579 3.08008 3.25 3.41586 3.25 3.83008V21.8301C3.25 22.2443 3.58579 22.5801 4 22.5801H20C20.4142 22.5801 20.75 22.2443 20.75 21.8301V3.83008C20.75 3.41586 20.4142 3.08008 20 3.08008H15.7501V1.83008C15.7501 1.41586 15.4143 1.08008 15.0001 1.08008H9.00005ZM15.7501 4.58008V5.83008C15.7501 6.24429 15.4143 6.58008 15.0001 6.58008H9.00005C8.58584 6.58008 8.25005 6.24429 8.25005 5.83008V4.58008H4.75V21.0801H19.25V4.58008H15.7501ZM14.2501 5.08008H9.75005V2.58008H14.2501V5.08008Z" fill="white"/>
</svg>
