<svg width="24" height="25" viewBox="0 0 24 25" fill="none" xmlns="http://www.w3.org/2000/svg">
<path fill-rule="evenodd" clip-rule="evenodd" d="M5.75 11.1799C5.75 7.72815 8.54822 4.92993 12 4.92993C14.9382 4.92993 17.4045 6.95813 18.0719 9.69181C18.1301 9.93028 18.3014 10.1252 18.5304 10.2136C20.1226 10.8284 21.25 12.3734 21.25 14.1799C21.25 16.5271 19.3472 18.4299 17 18.4299H6C4.20507 18.4299 2.75 16.9749 2.75 15.1799C2.75 13.6663 3.78548 12.3926 5.18784 12.032C5.52413 11.9456 5.7571 11.6396 5.75099 11.2925C5.75033 11.255 5.75 11.2175 5.75 11.1799ZM12 3.42993C7.8612 3.42993 4.48014 6.67425 4.26126 10.7585C2.49832 11.4524 1.25 13.1696 1.25 15.1799C1.25 17.8033 3.37665 19.9299 6 19.9299H17C20.1756 19.9299 22.75 17.3556 22.75 14.1799C22.75 11.8713 21.3898 9.8821 19.4293 8.96699C18.4768 5.76532 15.512 3.42993 12 3.42993ZM10.5303 10.6496C10.2374 10.3567 9.76256 10.3567 9.46967 10.6496C9.17678 10.9425 9.17678 11.4174 9.46967 11.7103L10.9393 13.1799L9.46967 14.6496C9.17678 14.9425 9.17678 15.4174 9.46967 15.7103C9.76256 16.0032 10.2374 16.0032 10.5303 15.7103L12 14.2406L13.4697 15.7103C13.7626 16.0032 14.2374 16.0032 14.5303 15.7103C14.8232 15.4174 14.8232 14.9425 14.5303 14.6496L13.0607 13.1799L14.5303 11.7103C14.8232 11.4174 14.8232 10.9425 14.5303 10.6496C14.2374 10.3567 13.7626 10.3567 13.4697 10.6496L12 12.1193L10.5303 10.6496Z" fill="white"/>
</svg>
