<svg width="24" height="25" viewBox="0 0 24 25" fill="none" xmlns="http://www.w3.org/2000/svg">
<path fill-rule="evenodd" clip-rule="evenodd" d="M12 2.92993C8.54822 2.92993 5.75 5.72815 5.75 9.17993C5.75 9.21753 5.75033 9.25504 5.75099 9.29246C5.7571 9.63962 5.52413 9.94559 5.18784 10.032C3.78548 10.3926 2.75 11.6663 2.75 13.1799C2.75 14.3819 3.40216 15.4325 4.37554 15.9956C4.73409 16.203 4.85661 16.6618 4.6492 17.0203C4.4418 17.3789 3.983 17.5014 3.62446 17.294C2.20663 16.4738 1.25 14.939 1.25 13.1799C1.25 11.1696 2.49832 9.45236 4.26126 8.75848C4.48014 4.67425 7.8612 1.42993 12 1.42993C15.512 1.42993 18.4768 3.76532 19.4293 6.96699C21.3898 7.8821 22.75 9.87134 22.75 12.1799C22.75 14.0616 21.8454 15.7322 20.4504 16.78C20.1192 17.0287 19.6491 16.9619 19.4003 16.6307C19.1516 16.2995 19.2184 15.8294 19.5496 15.5806C20.5835 14.804 21.25 13.5699 21.25 12.1799C21.25 10.3734 20.1226 8.82841 18.5304 8.21358C18.3014 8.12516 18.1301 7.93028 18.0719 7.69181C17.4045 4.95813 14.9382 2.92993 12 2.92993ZM9 12.4299C9.41421 12.4299 9.75 12.7657 9.75 13.1799V15.1799C9.75 15.5941 9.41421 15.9299 9 15.9299C8.58579 15.9299 8.25 15.5941 8.25 15.1799V13.1799C8.25 12.7657 8.58579 12.4299 9 12.4299ZM9.75 18.1799C9.75 17.7657 9.41421 17.4299 9 17.4299C8.58579 17.4299 8.25 17.7657 8.25 18.1799V20.1799C8.25 20.5941 8.58579 20.9299 9 20.9299C9.41421 20.9299 9.75 20.5941 9.75 20.1799V18.1799ZM15 12.4299C15.4142 12.4299 15.75 12.7657 15.75 13.1799V15.1799C15.75 15.5941 15.4142 15.9299 15 15.9299C14.5858 15.9299 14.25 15.5941 14.25 15.1799V13.1799C14.25 12.7657 14.5858 12.4299 15 12.4299ZM15.75 18.1799C15.75 17.7657 15.4142 17.4299 15 17.4299C14.5858 17.4299 14.25 17.7657 14.25 18.1799V20.1799C14.25 20.5941 14.5858 20.9299 15 20.9299C15.4142 20.9299 15.75 20.5941 15.75 20.1799V18.1799ZM12 13.4299C12.4142 13.4299 12.75 13.7657 12.75 14.1799V16.1799C12.75 16.5941 12.4142 16.9299 12 16.9299C11.5858 16.9299 11.25 16.5941 11.25 16.1799V14.1799C11.25 13.7657 11.5858 13.4299 12 13.4299ZM12.75 19.1799C12.75 18.7657 12.4142 18.4299 12 18.4299C11.5858 18.4299 11.25 18.7657 11.25 19.1799V21.1799C11.25 21.5941 11.5858 21.9299 12 21.9299C12.4142 21.9299 12.75 21.5941 12.75 21.1799V19.1799Z" fill="white"/>
</svg>
