<svg width="24" height="25" viewBox="0 0 24 25" fill="none" xmlns="http://www.w3.org/2000/svg">
<path fill-rule="evenodd" clip-rule="evenodd" d="M12 4.92993C8.54822 4.92993 5.75 7.72815 5.75 11.1799C5.75 11.2175 5.75033 11.255 5.75099 11.2925C5.7571 11.6396 5.52413 11.9456 5.18784 12.032C3.78548 12.3926 2.75 13.6663 2.75 15.1799C2.75 16.9749 4.20507 18.4299 6 18.4299H17C19.3472 18.4299 21.25 16.5271 21.25 14.1799C21.25 12.3734 20.1226 10.8284 18.5304 10.2136C18.3014 10.1252 18.1301 9.93028 18.0719 9.69181C17.4045 6.95813 14.9382 4.92993 12 4.92993ZM4.26126 10.7585C4.48014 6.67425 7.8612 3.42993 12 3.42993C15.512 3.42993 18.4768 5.76532 19.4293 8.96699C21.3898 9.8821 22.75 11.8713 22.75 14.1799C22.75 17.3556 20.1756 19.9299 17 19.9299H6C3.37665 19.9299 1.25 17.8033 1.25 15.1799C1.25 13.1696 2.49832 11.4524 4.26126 10.7585Z" fill="white"/>
</svg>
