<svg width="24" height="25" viewBox="0 0 24 25" fill="none" xmlns="http://www.w3.org/2000/svg">
<path fill-rule="evenodd" clip-rule="evenodd" d="M5.75 9.17993C5.75 5.72815 8.54822 2.92993 12 2.92993C14.9382 2.92993 17.4045 4.95813 18.0719 7.69181C18.1301 7.93028 18.3014 8.12516 18.5304 8.21358C20.1226 8.82841 21.25 10.3734 21.25 12.1799C21.25 13.5699 20.5835 14.804 19.5496 15.5806C19.2184 15.8294 19.1516 16.2995 19.4003 16.6307C19.6491 16.9619 20.1192 17.0287 20.4504 16.78C21.8454 15.7322 22.75 14.0616 22.75 12.1799C22.75 9.87134 21.3898 7.8821 19.4293 6.96699C18.4768 3.76532 15.512 1.42993 12 1.42993C7.8612 1.42993 4.48014 4.67425 4.26126 8.75848C2.49832 9.45236 1.25 11.1696 1.25 13.1799C1.25 14.939 2.20663 16.4738 3.62446 17.294C3.983 17.5014 4.4418 17.3789 4.6492 17.0203C4.85661 16.6618 4.73409 16.203 4.37554 15.9956C3.40216 15.4325 2.75 14.3819 2.75 13.1799C2.75 11.6663 3.78548 10.3926 5.18784 10.032C5.52413 9.94559 5.7571 9.63962 5.75099 9.29246C5.75033 9.25504 5.75 9.21753 5.75 9.17993ZM10.8107 16.4299L13.5303 13.7103C13.8232 13.4174 13.8232 12.9425 13.5303 12.6496C13.2374 12.3567 12.7626 12.3567 12.4697 12.6496L8.46967 16.6496C8.25517 16.8641 8.191 17.1867 8.30709 17.4669C8.42318 17.7472 8.69665 17.9299 9 17.9299H13.1893L10.4697 20.6496C10.1768 20.9425 10.1768 21.4174 10.4697 21.7103C10.7626 22.0032 11.2374 22.0032 11.5303 21.7103L15.5303 17.7103C15.7448 17.4958 15.809 17.1732 15.6929 16.8929C15.5768 16.6127 15.3033 16.4299 15 16.4299H10.8107Z" fill="white"/>
</svg>
