<svg width="24" height="25" viewBox="0 0 24 25" fill="none" xmlns="http://www.w3.org/2000/svg">
<path fill-rule="evenodd" clip-rule="evenodd" d="M12 2.92993C8.54822 2.92993 5.75 5.72815 5.75 9.17993C5.75 9.21753 5.75033 9.25504 5.75099 9.29246C5.7571 9.63962 5.52413 9.94559 5.18784 10.032C3.78548 10.3926 2.75 11.6663 2.75 13.1799C2.75 14.3819 3.40216 15.4325 4.37554 15.9956C4.73409 16.203 4.85661 16.6618 4.6492 17.0203C4.4418 17.3789 3.983 17.5014 3.62446 17.294C2.20663 16.4738 1.25 14.939 1.25 13.1799C1.25 11.1696 2.49832 9.45236 4.26126 8.75848C4.48014 4.67425 7.8612 1.42993 12 1.42993C15.512 1.42993 18.4768 3.76532 19.4293 6.96699C21.3898 7.8821 22.75 9.87134 22.75 12.1799C22.75 14.0616 21.8454 15.7322 20.4504 16.78C20.1192 17.0287 19.6491 16.9619 19.4003 16.6307C19.1516 16.2995 19.2184 15.8294 19.5496 15.5806C20.5835 14.804 21.25 13.5699 21.25 12.1799C21.25 10.3734 20.1226 8.82841 18.5304 8.21358C18.3014 8.12516 18.1301 7.93028 18.0719 7.69181C17.4045 4.95813 14.9382 2.92993 12 2.92993ZM10 14.1799C10 14.7322 9.55228 15.1799 9 15.1799C8.44772 15.1799 8 14.7322 8 14.1799C8 13.6276 8.44772 13.1799 9 13.1799C9.55228 13.1799 10 13.6276 10 14.1799ZM9 20.1799C9.55228 20.1799 10 19.7322 10 19.1799C10 18.6276 9.55228 18.1799 9 18.1799C8.44772 18.1799 8 18.6276 8 19.1799C8 19.7322 8.44772 20.1799 9 20.1799ZM16 14.1799C16 14.7322 15.5523 15.1799 15 15.1799C14.4477 15.1799 14 14.7322 14 14.1799C14 13.6276 14.4477 13.1799 15 13.1799C15.5523 13.1799 16 13.6276 16 14.1799ZM15 20.1799C15.5523 20.1799 16 19.7322 16 19.1799C16 18.6276 15.5523 18.1799 15 18.1799C14.4477 18.1799 14 18.6276 14 19.1799C14 19.7322 14.4477 20.1799 15 20.1799ZM13 16.1799C13 16.7322 12.5523 17.1799 12 17.1799C11.4477 17.1799 11 16.7322 11 16.1799C11 15.6276 11.4477 15.1799 12 15.1799C12.5523 15.1799 13 15.6276 13 16.1799ZM12 22.1799C12.5523 22.1799 13 21.7322 13 21.1799C13 20.6276 12.5523 20.1799 12 20.1799C11.4477 20.1799 11 20.6276 11 21.1799C11 21.7322 11.4477 22.1799 12 22.1799Z" fill="white"/>
</svg>
