<svg width="24" height="25" viewBox="0 0 24 25" fill="none" xmlns="http://www.w3.org/2000/svg">
<path fill-rule="evenodd" clip-rule="evenodd" d="M5.75 11.1799C5.75 7.72815 8.54822 4.92993 12 4.92993C14.9382 4.92993 17.4045 6.95813 18.0719 9.69181C18.1301 9.93028 18.3014 10.1252 18.5304 10.2136C20.1226 10.8284 21.25 12.3734 21.25 14.1799C21.25 16.5271 19.3472 18.4299 17 18.4299H6C4.20507 18.4299 2.75 16.9749 2.75 15.1799C2.75 13.6663 3.78548 12.3926 5.18784 12.032C5.52413 11.9456 5.7571 11.6396 5.75099 11.2925C5.75033 11.255 5.75 11.2175 5.75 11.1799ZM12 3.42993C7.8612 3.42993 4.48014 6.67425 4.26126 10.7585C2.49832 11.4524 1.25 13.1696 1.25 15.1799C1.25 17.8033 3.37665 19.9299 6 19.9299H17C20.1756 19.9299 22.75 17.3556 22.75 14.1799C22.75 11.8713 21.3898 9.8821 19.4293 8.96699C18.4768 5.76532 15.512 3.42993 12 3.42993ZM11.5303 15.7103L15.5303 11.7103C15.8232 11.4174 15.8232 10.9425 15.5303 10.6496C15.2374 10.3567 14.7626 10.3567 14.4697 10.6496L11 14.1193L10.0303 13.1496C9.73744 12.8567 9.26256 12.8567 8.96967 13.1496C8.67678 13.4425 8.67678 13.9174 8.96967 14.2103L10.4697 15.7103C10.6103 15.8509 10.8011 15.9299 11 15.9299C11.1989 15.9299 11.3897 15.8509 11.5303 15.7103Z" fill="white"/>
</svg>
