<svg width="24" height="25" viewBox="0 0 24 25" fill="none" xmlns="http://www.w3.org/2000/svg">
<path d="M10.5 2.96021C8.92599 2.96021 7.65 4.23619 7.65 5.8102H9.15C9.15 5.06462 9.75442 4.46021 10.5 4.46021V2.96021ZM13.35 5.8102C13.35 4.23619 12.074 2.96021 10.5 2.96021V4.46021C11.2456 4.46021 11.85 5.06462 11.85 5.8102H13.35ZM13.35 6.43434V5.8102H11.85V6.43434H13.35ZM16.4 6.68434H13.6V8.18434H16.4V6.68434ZM18.15 10.7791V8.43434H16.65V10.7791H18.15ZM18.8276 11.0291H18.4V12.5291H18.8276V11.0291ZM21.75 13.9516C21.75 12.3376 20.4416 11.0291 18.8276 11.0291V12.5291C19.6132 12.5291 20.25 13.166 20.25 13.9516H21.75ZM18.8276 16.874C20.4416 16.874 21.75 15.5656 21.75 13.9516H20.25C20.25 14.7371 19.6132 15.374 18.8276 15.374V16.874ZM18.4 16.874H18.8276V15.374H18.4V16.874ZM18.15 20.7102V17.124H16.65V20.7102H18.15ZM13.6 22.4602H16.4V20.9602H13.6V22.4602ZM11.85 20.3734V20.7102H13.35V20.3734H11.85ZM10.5 19.0234C11.2456 19.0234 11.85 19.6278 11.85 20.3734H13.35C13.35 18.7994 12.074 17.5234 10.5 17.5234V19.0234ZM9.15 20.3734C9.15 19.6278 9.75442 19.0234 10.5 19.0234V17.5234C8.92599 17.5234 7.65 18.7994 7.65 20.3734H9.15ZM9.15 20.7102V20.3734H7.65V20.7102H9.15ZM4 22.4602H7.4V20.9602H4V22.4602ZM2.25 17.0834V20.7102H3.75V17.0834H2.25ZM4.31157 15.3334H4V16.8334H4.31157V15.3334ZM5.73399 13.911C5.73399 14.6966 5.09715 15.3334 4.31157 15.3334V16.8334C5.92558 16.8334 7.23399 15.525 7.23399 13.911H5.73399ZM4.31157 12.4886C5.09715 12.4886 5.73399 13.1255 5.73399 13.911H7.23399C7.23399 12.297 5.92558 10.9886 4.31157 10.9886V12.4886ZM4 12.4886H4.31157V10.9886H4V12.4886ZM2.25 8.43434V10.7386H3.75V8.43434H2.25ZM7.4 6.68434H4V8.18434H7.4V6.68434ZM7.65 5.8102V6.43434H9.15V5.8102H7.65ZM7.4 8.18434C8.3665 8.18434 9.15 7.40084 9.15 6.43434H7.65C7.65 6.57241 7.53807 6.68434 7.4 6.68434V8.18434ZM3.75 17.0834C3.75 16.9454 3.86193 16.8334 4 16.8334V15.3334C3.0335 15.3334 2.25 16.1169 2.25 17.0834H3.75ZM3.75 8.43434C3.75 8.29627 3.86193 8.18434 4 8.18434V6.68434C3.0335 6.68434 2.25 7.46784 2.25 8.43434H3.75ZM13.6 20.9602C13.4619 20.9602 13.35 20.8483 13.35 20.7102H11.85C11.85 21.6767 12.6335 22.4602 13.6 22.4602V20.9602ZM4 10.9886C3.86193 10.9886 3.75 10.8767 3.75 10.7386H2.25C2.25 11.7051 3.0335 12.4886 4 12.4886V10.9886ZM16.65 20.7102C16.65 20.8483 16.5381 20.9602 16.4 20.9602V22.4602C17.3665 22.4602 18.15 21.6767 18.15 20.7102H16.65ZM4 20.9602C3.86193 20.9602 3.75 20.8483 3.75 20.7102H2.25C2.25 21.6767 3.0335 22.4602 4 22.4602V20.9602ZM16.65 10.7791C16.65 11.7456 17.4335 12.5291 18.4 12.5291V11.0291C18.2619 11.0291 18.15 10.9172 18.15 10.7791H16.65ZM18.4 15.374C17.4335 15.374 16.65 16.1575 16.65 17.124H18.15C18.15 16.9859 18.2619 16.874 18.4 16.874V15.374ZM7.65 20.7102C7.65 20.8483 7.53807 20.9602 7.4 20.9602V22.4602C8.3665 22.4602 9.15 21.6767 9.15 20.7102H7.65ZM16.4 8.18434C16.5381 8.18434 16.65 8.29627 16.65 8.43434H18.15C18.15 7.46784 17.3665 6.68434 16.4 6.68434V8.18434ZM11.85 6.43434C11.85 7.40084 12.6335 8.18434 13.6 8.18434V6.68434C13.4619 6.68434 13.35 6.57241 13.35 6.43434H11.85Z" fill="white"/>
</svg>
