<svg width="24" height="25" viewBox="0 0 24 25" fill="none" xmlns="http://www.w3.org/2000/svg">
<path fill-rule="evenodd" clip-rule="evenodd" d="M1.25 3.71021C1.25 3.29599 1.58579 2.96021 2 2.96021L22 2.96021C22.4142 2.96021 22.75 3.29599 22.75 3.71021L22.75 21.7102C22.75 22.1244 22.4142 22.4602 22 22.4602L2 22.4602C1.58579 22.4602 1.25 22.1244 1.25 21.7102L1.25 3.71021ZM2.75 4.46021L2.75 20.9602L21.25 20.9602L21.25 4.46021L2.75 4.46021ZM6.46967 10.1799C6.76256 9.88698 7.23744 9.88698 7.53033 10.1799L10.5304 13.1799C10.671 13.3206 10.7501 13.5114 10.7501 13.7103C10.7501 13.9092 10.671 14.0999 10.5304 14.2406L7.53026 17.2407C7.23737 17.5336 6.76249 17.5335 6.4696 17.2407C6.17671 16.9478 6.17672 16.4729 6.46961 16.18L8.9394 13.7103L6.46967 11.2405C6.17678 10.9476 6.17678 10.4728 6.46967 10.1799ZM13 15.9602C12.5858 15.9602 12.25 16.296 12.25 16.7102C12.25 17.1244 12.5858 17.4602 13 17.4602L17 17.4602C17.4142 17.4602 17.75 17.1244 17.75 16.7102C17.75 16.296 17.4142 15.9602 17 15.9602L13 15.9602Z" fill="white"/>
</svg>
