<svg width="24" height="25" viewBox="0 0 24 25" fill="none" xmlns="http://www.w3.org/2000/svg">
<path fill-rule="evenodd" clip-rule="evenodd" d="M8.25 5.71021C8.25 3.63914 9.92893 1.96021 12 1.96021C14.0711 1.96021 15.75 3.63914 15.75 5.71021C15.75 7.52442 14.4617 9.03774 12.75 9.38519L12.75 21.9219C16.1551 21.5719 18.8617 18.8653 19.2117 15.4602L17 15.4602C16.5858 15.4602 16.25 15.1244 16.25 14.7102C16.25 14.296 16.5858 13.9602 17 13.9602L20 13.9602C20.4142 13.9602 20.75 14.296 20.75 14.7102C20.75 19.5427 16.8325 23.4602 12 23.4602C7.16751 23.4602 3.25 19.5427 3.25 14.7102C3.25 14.296 3.58578 13.9602 4 13.9602L7 13.9602C7.41421 13.9602 7.75 14.296 7.75 14.7102C7.75 15.1244 7.41421 15.4602 7 15.4602L4.78832 15.4602C5.13828 18.8653 7.84488 21.5719 11.25 21.9219L11.25 9.38519C9.53832 9.03774 8.25 7.52443 8.25 5.71021ZM14.25 5.71021C14.25 6.95242 13.2433 7.95951 12.0013 7.96021L12 7.96021C10.7574 7.96021 9.75 6.95285 9.75 5.71021C9.75 4.46757 10.7574 3.46021 12 3.46021C13.2426 3.46021 14.25 4.46757 14.25 5.71021Z" fill="white"/>
</svg>
