<svg width="24" height="25" viewBox="0 0 24 25" fill="none" xmlns="http://www.w3.org/2000/svg">
<path fill-rule="evenodd" clip-rule="evenodd" d="M9.03033 7.24054C9.32322 6.94764 9.32322 6.47277 9.03033 6.17988C8.73744 5.88698 8.26256 5.88698 7.96967 6.17988L1.96967 12.1799C1.67678 12.4728 1.67678 12.9476 1.96967 13.2405L7.96967 19.2405C8.26256 19.5334 8.73744 19.5334 9.03033 19.2405C9.32322 18.9476 9.32322 18.4728 9.03033 18.1799L3.56066 12.7102L9.03033 7.24054ZM16.0303 6.17988C15.7374 5.88698 15.2626 5.88698 14.9697 6.17988C14.6768 6.47277 14.6768 6.94764 14.9697 7.24054L20.4393 12.7102L14.9697 18.1799C14.6768 18.4728 14.6768 18.9476 14.9697 19.2405C15.2626 19.5334 15.7374 19.5334 16.0303 19.2405L22.0303 13.2405C22.3232 12.9476 22.3232 12.4728 22.0303 12.1799L16.0303 6.17988Z" fill="white"/>
<path d="M7.5 14.7102V12.7102M10 14.7102V12.7102M10 12.7102V10.7102H7.5V12.7102M10 12.7102H7.5" stroke="white" stroke-width="1.5" stroke-linecap="round" stroke-linejoin="round"/>
<path d="M12 14.7102V12.7102M12 12.7102V10.7102H14.5V12.7102H12Z" stroke="white" stroke-width="1.5" stroke-linecap="round" stroke-linejoin="round"/>
<path d="M16.5 10.7102V14.7102" stroke="white" stroke-width="1.5" stroke-linecap="round" stroke-linejoin="round"/>
</svg>
