<svg width="24" height="25" viewBox="0 0 24 25" fill="none" xmlns="http://www.w3.org/2000/svg">
<path fill-rule="evenodd" clip-rule="evenodd" d="M8 1.96021C8.41421 1.96021 8.75 2.29599 8.75 2.71021V4.96021H11.25V2.71021C11.25 2.29599 11.5858 1.96021 12 1.96021C12.4142 1.96021 12.75 2.29599 12.75 2.71021V4.96021H15.25V2.71021C15.25 2.29599 15.5858 1.96021 16 1.96021C16.4142 1.96021 16.75 2.29599 16.75 2.71021V4.96021H19C19.4142 4.96021 19.75 5.29599 19.75 5.71021V7.46021H22C22.4142 7.46021 22.75 7.79599 22.75 8.21021C22.75 8.62442 22.4142 8.96021 22 8.96021H19.75V11.4602H22C22.4142 11.4602 22.75 11.796 22.75 12.2102C22.75 12.6244 22.4142 12.9602 22 12.9602H19.75V15.4602H22C22.4142 15.4602 22.75 15.796 22.75 16.2102C22.75 16.6244 22.4142 16.9602 22 16.9602H19.75V19.7102C19.75 20.1244 19.4142 20.4602 19 20.4602H16.75V22.7102C16.75 23.1244 16.4142 23.4602 16 23.4602C15.5858 23.4602 15.25 23.1244 15.25 22.7102V20.4602H12.75V22.7102C12.75 23.1244 12.4142 23.4602 12 23.4602C11.5858 23.4602 11.25 23.1244 11.25 22.7102V20.4602H8.75V22.7102C8.75 23.1244 8.41421 23.4602 8 23.4602C7.58579 23.4602 7.25 23.1244 7.25 22.7102V20.4602H5C4.58579 20.4602 4.25 20.1244 4.25 19.7102V16.9602H2C1.58579 16.9602 1.25 16.6244 1.25 16.2102C1.25 15.796 1.58579 15.4602 2 15.4602H4.25V12.9602H2C1.58579 12.9602 1.25 12.6244 1.25 12.2102C1.25 11.796 1.58579 11.4602 2 11.4602H4.25V8.96021H2C1.58579 8.96021 1.25 8.62442 1.25 8.21021C1.25 7.79599 1.58579 7.46021 2 7.46021H4.25V5.71021C4.25 5.29599 4.58579 4.96021 5 4.96021H7.25V2.71021C7.25 2.29599 7.58579 1.96021 8 1.96021ZM18.25 16.2102V12.2102V8.21021V6.46021H16H12H8H5.75V8.21021V12.2102V16.2102V18.9602H8H12H16H18.25V16.2102Z" fill="white"/>
<path d="M15.2935 9.71021V15.7102" stroke="white" stroke-width="1.5" stroke-linecap="round" stroke-linejoin="round"/>
<path d="M12.9473 15.7102L10.9473 9.71021H9.94727L7.94727 15.7102" stroke="white" stroke-width="1.5" stroke-linecap="round" stroke-linejoin="round"/>
<path d="M8.94727 12.7102H11.9473" stroke="white" stroke-width="1.5" stroke-linecap="round" stroke-linejoin="round"/>
</svg>
