<svg width="24" height="25" viewBox="0 0 24 25" fill="none" xmlns="http://www.w3.org/2000/svg">
<rect x="6" y="6.71021" width="12" height="12" stroke="white" stroke-width="1.5" stroke-linecap="round" stroke-linejoin="round"/>
<path d="M5 10.4653L5.78118 10.4653" stroke="white" stroke-width="1.5" stroke-linecap="round" stroke-linejoin="round"/>
<circle cx="3" cy="10.4551" r="1.25" stroke="white" stroke-width="1.5"/>
<path d="M5 14.9756L5.78118 14.9756" stroke="white" stroke-width="1.5" stroke-linecap="round" stroke-linejoin="round"/>
<circle cx="3" cy="14.9653" r="1.25" stroke="white" stroke-width="1.5"/>
<path d="M19 10.4653L18.2188 10.4653" stroke="white" stroke-width="1.5" stroke-linecap="round" stroke-linejoin="round"/>
<circle r="1.25" transform="matrix(-1 0 0 1 21 10.4551)" stroke="white" stroke-width="1.5"/>
<path d="M19 14.9756L18.2188 14.9756" stroke="white" stroke-width="1.5" stroke-linecap="round" stroke-linejoin="round"/>
<circle r="1.25" transform="matrix(-1 0 0 1 21 14.9653)" stroke="white" stroke-width="1.5"/>
<path d="M14.2451 5.71021L14.2451 6.49138" stroke="white" stroke-width="1.5" stroke-linecap="round" stroke-linejoin="round"/>
<circle cx="14.2554" cy="3.71021" r="1.25" transform="rotate(90 14.2554 3.71021)" stroke="white" stroke-width="1.5"/>
<path d="M9.73486 5.71021L9.73486 6.49138" stroke="white" stroke-width="1.5" stroke-linecap="round" stroke-linejoin="round"/>
<circle cx="9.74512" cy="3.71021" r="1.25" transform="rotate(90 9.74512 3.71021)" stroke="white" stroke-width="1.5"/>
<path d="M14.2451 19.7104L14.2451 18.9293" stroke="white" stroke-width="1.5" stroke-linecap="round" stroke-linejoin="round"/>
<circle r="1.25" transform="matrix(4.37114e-08 -1 -1 -4.37114e-08 14.2554 21.7104)" stroke="white" stroke-width="1.5"/>
<path d="M9.73486 19.7104L9.73486 18.9293" stroke="white" stroke-width="1.5" stroke-linecap="round" stroke-linejoin="round"/>
<circle r="1.25" transform="matrix(4.37114e-08 -1 -1 -4.37114e-08 9.74512 21.7104)" stroke="white" stroke-width="1.5"/>
<path d="M14.6016 10.4265V15.4265" stroke="white" stroke-width="1.25" stroke-linecap="round" stroke-linejoin="round"/>
<path d="M12.9347 15.4265L11.2681 10.4265H10.4347L8.76807 15.4265" stroke="white" stroke-width="1.25" stroke-linecap="round" stroke-linejoin="round"/>
<path d="M9.60156 12.9265H12.1016" stroke="white" stroke-width="1.25" stroke-linecap="round" stroke-linejoin="round"/>
</svg>
