<svg width="24" height="25" viewBox="0 0 24 25" fill="none" xmlns="http://www.w3.org/2000/svg">
<path fill-rule="evenodd" clip-rule="evenodd" d="M3.00001 2.96021C2.5858 2.96021 2.25001 3.29599 2.25001 3.71021V13.709C2.25001 13.7094 2.25001 13.7098 2.25001 13.7102L2.25001 21.7102C2.25001 21.8138 2.271 21.9124 2.30895 22.0021C2.42281 22.2713 2.68935 22.4602 3.00001 22.4602L11 22.4602L21 22.4602C21.4142 22.4602 21.75 22.1244 21.75 21.7102V3.71021C21.75 3.29599 21.4142 2.96021 21 2.96021H3.00001ZM11.75 20.9602H20.25V4.46021H3.75001V12.9602H11C11.4142 12.9602 11.75 13.296 11.75 13.7102V20.9602ZM3.75001 14.4602L3.75001 20.9602L10.25 20.9602V14.4602H3.75001Z" fill="white"/>
</svg>
