<svg width="24" height="25" viewBox="0 0 24 25" fill="none" xmlns="http://www.w3.org/2000/svg">
<path fill-rule="evenodd" clip-rule="evenodd" d="M2.25 6.71021C2.25 4.63914 3.92893 2.96021 6 2.96021C7.81422 2.96021 9.32753 4.24852 9.67499 5.96021H12C12.4142 5.96021 12.75 6.29599 12.75 6.71021C12.75 7.12442 12.4142 7.46021 12 7.46021H9.67499C9.32753 9.17189 7.81422 10.4602 6 10.4602C3.92893 10.4602 2.25 8.78127 2.25 6.71021ZM6 4.46021C7.24264 4.46021 8.25 5.46756 8.25 6.71021C8.25 7.95285 7.24264 8.96021 6 8.96021C4.75736 8.96021 3.75 7.95285 3.75 6.71021C3.75 5.46756 4.75736 4.46021 6 4.46021ZM6.75 12.7102C6.75 12.296 6.41421 11.9602 6 11.9602C5.58579 11.9602 5.25 12.296 5.25 12.7102L5.25 15.0352C3.53832 15.3827 2.25 16.896 2.25 18.7102C2.25 20.7813 3.92893 22.4602 6 22.4602C8.07107 22.4602 9.75 20.7813 9.75 18.7102C9.75 16.896 8.46168 15.3827 6.75 15.0352V12.7102ZM18.75 10.3852C20.4617 10.0377 21.75 8.52442 21.75 6.71021C21.75 4.63914 20.0711 2.96021 18 2.96021C15.9289 2.96021 14.25 4.63914 14.25 6.71021C14.25 8.52442 15.5383 10.0377 17.25 10.3852V12.7102C17.25 13.1244 17.5858 13.4602 18 13.4602C18.4142 13.4602 18.75 13.1244 18.75 12.7102V10.3852ZM18 8.96021C16.7574 8.96021 15.75 7.95285 15.75 6.71021C15.75 5.46756 16.7574 4.46021 18 4.46021C19.2426 4.46021 20.25 5.46756 20.25 6.71021C20.25 7.95285 19.2426 8.96021 18 8.96021ZM12 17.9602C11.5858 17.9602 11.25 18.296 11.25 18.7102C11.25 19.1244 11.5858 19.4602 12 19.4602H14.325C14.6725 21.1719 16.1858 22.4602 18 22.4602C20.0711 22.4602 21.75 20.7813 21.75 18.7102C21.75 16.6391 20.0711 14.9602 18 14.9602C16.1858 14.9602 14.6725 16.2485 14.325 17.9602H12ZM15.75 18.7102C15.75 19.9528 16.7574 20.9602 18 20.9602C19.2426 20.9602 20.25 19.9528 20.25 18.7102C20.25 17.4676 19.2426 16.4602 18 16.4602C16.7574 16.4602 15.75 17.4676 15.75 18.7102ZM6 16.4602C4.75736 16.4602 3.75 17.4676 3.75 18.7102C3.75 19.9528 4.75736 20.9602 6 20.9602C7.24264 20.9602 8.25 19.9528 8.25 18.7102C8.25 17.4676 7.24264 16.4602 6 16.4602Z" fill="white"/>
</svg>
