<svg width="24" height="25" viewBox="0 0 24 25" fill="none" xmlns="http://www.w3.org/2000/svg">
<path fill-rule="evenodd" clip-rule="evenodd" d="M8.00014 2.96023L7.96188 2.96022C7.47854 2.95999 6.60734 2.95957 5.84656 3.26387C5.43885 3.42695 5.02705 3.68999 4.72019 4.11485C4.40994 4.54441 4.25006 5.07989 4.25006 5.71023V10.0102C4.25006 10.4742 3.84223 10.9553 3.11416 11.3921C2.78369 11.5904 2.44737 11.7423 2.19022 11.8451C2.06277 11.8961 1.95749 11.934 1.88567 11.9586C1.84982 11.9709 1.82249 11.9798 1.80511 11.9854L1.78675 11.9912L1.78449 11.9919L1.78414 11.992L1.78392 11.992L1.78385 11.9921L1.78353 11.9921C1.46681 12.0876 1.25 12.3794 1.25 12.7102C1.25 13.0413 1.46709 13.3332 1.78414 13.4285L1.78449 13.4286L1.78675 13.4293L1.80511 13.4351C1.82249 13.4407 1.84982 13.4496 1.88567 13.4619C1.95749 13.4865 2.06277 13.5244 2.19022 13.5753C2.44737 13.6782 2.78369 13.8301 3.11416 14.0284C3.84223 14.4652 4.25006 14.9463 4.25006 15.4102V19.7102C4.25006 20.3406 4.40994 20.876 4.72019 21.3056C5.02705 21.7305 5.43885 21.9935 5.84656 22.1566C6.60734 22.4609 7.47854 22.4605 7.96188 22.4602L8.00014 22.4602C8.41435 22.4602 8.75014 22.1244 8.75014 21.7102C8.75014 21.296 8.41435 20.9602 8.00014 20.9602C7.47465 20.9602 6.87237 20.9514 6.40363 20.7639C6.18632 20.6769 6.0356 20.565 5.93619 20.4274C5.84018 20.2944 5.75006 20.0799 5.75006 19.7102V15.4102C5.75006 14.0742 4.65785 13.2053 3.88589 12.7421L3.8322 12.7102L3.88589 12.6784C4.65785 12.2152 5.75006 11.3463 5.75006 10.0102V5.71023C5.75006 5.34057 5.84018 5.12605 5.93619 4.99311C6.0356 4.85547 6.18632 4.74351 6.40363 4.65659C6.87237 4.4691 7.47465 4.46023 8.00014 4.46023C8.41435 4.46023 8.75014 4.12444 8.75014 3.71023C8.75014 3.29602 8.41435 2.96023 8.00014 2.96023ZM16.0001 4.46023C16.5256 4.46023 17.1279 4.4691 17.5966 4.65659C17.814 4.74351 17.9647 4.85547 18.0641 4.99311C18.1601 5.12605 18.2502 5.34057 18.2502 5.71023V10.0102C18.2502 11.3463 19.3424 12.2152 20.1143 12.6783L20.168 12.7102L20.1143 12.7421C19.3424 13.2053 18.2502 14.0742 18.2502 15.4102V19.7102C18.2502 20.0799 18.1601 20.2944 18.0641 20.4274C17.9647 20.565 17.814 20.6769 17.5966 20.7639C17.1279 20.9514 16.5256 20.9602 16.0001 20.9602C15.5859 20.9602 15.2501 21.296 15.2501 21.7102C15.2501 22.1244 15.5859 22.4602 16.0001 22.4602L16.0384 22.4602C16.5217 22.4605 17.3929 22.4609 18.1537 22.1566C18.5614 21.9935 18.9732 21.7305 19.2801 21.3056C19.5903 20.876 19.7502 20.3406 19.7502 19.7102V15.4102C19.7502 14.9463 20.158 14.4652 20.8861 14.0283C21.2165 13.8301 21.5528 13.6782 21.8099 13.5753C21.9374 13.5244 22.0427 13.4865 22.1145 13.4619C22.1503 13.4496 22.1777 13.4407 22.195 13.4351L22.2134 13.4293L22.2157 13.4286L22.216 13.4285L22.2163 13.4284L22.2166 13.4283C22.5333 13.3328 22.7501 13.0411 22.7501 12.7102C22.7501 12.3791 22.533 12.0873 22.216 11.992L22.2157 11.9919L22.2134 11.9912L22.195 11.9854C22.1777 11.9798 22.1503 11.9709 22.1145 11.9586C22.0427 11.934 21.9374 11.8961 21.8099 11.8451C21.5528 11.7423 21.2165 11.5904 20.8861 11.3921C20.158 10.9553 19.7502 10.4742 19.7502 10.0102V5.71023C19.7502 5.07989 19.5903 4.54441 19.2801 4.11485C18.9732 3.68999 18.5614 3.42695 18.1537 3.26387C17.3929 2.95957 16.5217 2.95999 16.0384 2.96022L16.0001 2.96023C15.5859 2.96023 15.2501 3.29602 15.2501 3.71023C15.2501 4.12444 15.5859 4.46023 16.0001 4.46023ZM12.0001 9.71023C12.5524 9.71023 13.0001 9.26252 13.0001 8.71023C13.0001 8.15795 12.5524 7.71023 12.0001 7.71023C11.4479 7.71023 11.0001 8.15795 11.0001 8.71023C11.0001 9.26252 11.4479 9.71023 12.0001 9.71023ZM13.0001 12.7102C13.0001 13.2625 12.5524 13.7102 12.0001 13.7102C11.4479 13.7102 11.0001 13.2625 11.0001 12.7102C11.0001 12.1579 11.4479 11.7102 12.0001 11.7102C12.5524 11.7102 13.0001 12.1579 13.0001 12.7102ZM12.0001 17.7102C12.5524 17.7102 13.0001 17.2625 13.0001 16.7102C13.0001 16.1579 12.5524 15.7102 12.0001 15.7102C11.4479 15.7102 11.0001 16.1579 11.0001 16.7102C11.0001 17.2625 11.4479 17.7102 12.0001 17.7102Z" fill="white"/>
</svg>
