<svg width="24" height="25" viewBox="0 0 24 25" fill="none" xmlns="http://www.w3.org/2000/svg">
<path fill-rule="evenodd" clip-rule="evenodd" d="M14.7276 4.89205C14.8281 4.4902 14.5837 4.083 14.1819 3.98254C13.7801 3.88208 13.3729 4.1264 13.2724 4.52824L9.27239 20.5282C9.17193 20.9301 9.41625 21.3373 9.8181 21.4378C10.2199 21.5382 10.6271 21.2939 10.7276 20.892L14.7276 4.89205ZM6.53033 8.17983C6.82322 8.47273 6.82322 8.9476 6.53033 9.24049L3.06066 12.7102L6.53033 16.1798C6.82322 16.4727 6.82322 16.9476 6.53033 17.2405C6.23744 17.5334 5.76256 17.5334 5.46967 17.2405L1.46967 13.2405C1.17678 12.9476 1.17678 12.4727 1.46967 12.1798L5.46967 8.17983C5.76256 7.88694 6.23744 7.88694 6.53033 8.17983ZM17.4697 8.17983C17.7626 7.88694 18.2374 7.88694 18.5303 8.17983L22.5303 12.1798C22.8232 12.4727 22.8232 12.9476 22.5303 13.2405L18.5303 17.2405C18.2374 17.5334 17.7626 17.5334 17.4697 17.2405C17.1768 16.9476 17.1768 16.4727 17.4697 16.1798L20.9393 12.7102L17.4697 9.24049C17.1768 8.9476 17.1768 8.47273 17.4697 8.17983Z" fill="white"/>
</svg>
