<svg width="24" height="25" viewBox="0 0 24 25" fill="none" xmlns="http://www.w3.org/2000/svg">
<path fill-rule="evenodd" clip-rule="evenodd" d="M11.9999 2.96021C9.92887 2.96021 8.24994 4.63914 8.24994 6.71021V7.09687C7.23155 7.77856 6.40901 8.73003 5.88456 9.84904L3.43506 7.39954V4.71021C3.43506 4.29599 3.09927 3.96021 2.68506 3.96021C2.27085 3.96021 1.93506 4.29599 1.93506 4.71021V7.71021C1.93506 7.90912 2.01408 8.09988 2.15473 8.24054L5.15473 11.2405C5.22121 11.307 5.29707 11.3584 5.37805 11.3947C5.294 11.8202 5.24994 12.2601 5.24994 12.7102V15.7102C5.24994 15.8383 5.25351 15.9655 5.26054 16.0918C5.2233 16.1174 5.18785 16.1468 5.15473 16.1799L2.15473 19.1799C2.01408 19.3205 1.93506 19.5113 1.93506 19.7102V22.7102C1.93506 23.1244 2.27085 23.4602 2.68506 23.4602C3.09927 23.4602 3.43506 23.1244 3.43506 22.7102V20.0209L5.5986 17.8573C6.49556 20.5326 9.02264 22.4602 11.9999 22.4602C14.9773 22.4602 17.5044 20.5325 18.4013 17.8572L20.565 20.0209V22.7102C20.565 23.1244 20.9008 23.4602 21.315 23.4602C21.7292 23.4602 22.065 23.1244 22.065 22.7102V19.7102C22.065 19.5113 21.986 19.3205 21.8453 19.1799L18.8453 16.1799C18.8122 16.1467 18.7767 16.1173 18.7393 16.0916C18.7464 15.9654 18.7499 15.8382 18.7499 15.7102V12.7102C18.7499 12.2601 18.7059 11.8202 18.6218 11.3948C18.7029 11.3585 18.7788 11.3071 18.8453 11.2405L21.8453 8.24054C21.986 8.09988 22.065 7.90912 22.065 7.71021V4.71021C22.065 4.29599 21.7292 3.96021 21.315 3.96021C20.9008 3.96021 20.565 4.29599 20.565 4.71021V7.39954L18.1154 9.84916C17.5909 8.7301 16.7684 7.77858 15.7499 7.09687V6.71021C15.7499 4.63914 14.071 2.96021 11.9999 2.96021ZM14.2185 6.33327C14.0392 5.27008 13.1141 4.46021 11.9999 4.46021C10.8857 4.46021 9.9607 5.27008 9.78138 6.33327C10.4762 6.09156 11.2227 5.96021 11.9999 5.96021C12.7771 5.96021 13.5237 6.09156 14.2185 6.33327ZM12.7499 15.7102V20.907C15.2942 20.5431 17.2499 18.3551 17.2499 15.7102V12.7102C17.2499 9.81071 14.8994 7.46021 11.9999 7.46021C9.10045 7.46021 6.74994 9.81071 6.74994 12.7102V15.7102C6.74994 18.3551 8.70572 20.5431 11.2499 20.907V15.7102C11.2499 15.296 11.5857 14.9602 11.9999 14.9602C12.4142 14.9602 12.7499 15.296 12.7499 15.7102Z" fill="white"/>
</svg>
