<svg width="24" height="25" viewBox="0 0 24 25" fill="none" xmlns="http://www.w3.org/2000/svg">
<path fill-rule="evenodd" clip-rule="evenodd" d="M2.25001 3.71021C2.25001 3.29599 2.5858 2.96021 3.00001 2.96021H21C21.4142 2.96021 21.75 3.29599 21.75 3.71021V21.7102C21.75 22.1244 21.4142 22.4602 21 22.4602H3.00001C2.5858 22.4602 2.25001 22.1244 2.25001 21.7102V3.71021ZM3.75001 4.46021V20.9602H20.25V4.46021H3.75001ZM6 9.96021C6.41421 9.96021 6.75 10.296 6.75 10.7102V11.9602H11.25V7.4602H9.99999C9.58577 7.4602 9.24999 7.12442 9.24999 6.7102C9.24999 6.29599 9.58577 5.9602 9.99999 5.9602H12H14C14.4142 5.9602 14.75 6.29599 14.75 6.7102C14.75 7.12442 14.4142 7.4602 14 7.4602H12.75V11.9602H17.25V10.7102C17.25 10.296 17.5858 9.96021 18 9.96021C18.4142 9.96021 18.75 10.296 18.75 10.7102V12.7102V14.7102C18.75 15.1244 18.4142 15.4602 18 15.4602C17.5858 15.4602 17.25 15.1244 17.25 14.7102V13.4602H12.75V17.9602H14C14.4142 17.9602 14.75 18.296 14.75 18.7102C14.75 19.1244 14.4142 19.4602 14 19.4602H12H9.99999C9.58577 19.4602 9.24999 19.1244 9.24999 18.7102C9.24999 18.296 9.58577 17.9602 9.99999 17.9602H11.25V13.4602H6.75V14.7102C6.75 15.1244 6.41421 15.4602 6 15.4602C5.58579 15.4602 5.25 15.1244 5.25 14.7102V12.7102V10.7102C5.25 10.296 5.58579 9.96021 6 9.96021Z" fill="white"/>
</svg>
