<svg width="24" height="25" viewBox="0 0 24 25" fill="none" xmlns="http://www.w3.org/2000/svg">
<path fill-rule="evenodd" clip-rule="evenodd" d="M3.25 3.58997C3.25 3.17576 3.58579 2.83997 4 2.83997L18 2.83997C18.4142 2.83997 18.75 3.17576 18.75 3.58997L18.75 6.83996L21 6.83996C21.4142 6.83996 21.75 7.17575 21.75 7.58996L21.75 12.59C21.75 13.0042 21.4142 13.34 21 13.34L18.75 13.34L18.75 17.59C18.75 18.0042 18.4142 18.34 18 18.34L4 18.34C3.58579 18.34 3.25 18.0042 3.25 17.59L3.25 3.58997ZM17.25 12.5918C17.25 12.5912 17.25 12.5906 17.25 12.59C17.25 12.5893 17.25 12.5887 17.25 12.5881L17.25 7.59188C17.25 7.59124 17.25 7.5906 17.25 7.58996C17.25 7.58932 17.25 7.58868 17.25 7.58804L17.25 4.33997L4.75 4.33997L4.75 16.84L17.25 16.84L17.25 12.5918ZM18.75 8.33996L18.75 11.84L20.25 11.84L20.25 8.33996L18.75 8.33996ZM2.25 21.59C2.25 21.1757 2.58578 20.84 3 20.84L21 20.84C21.4142 20.84 21.75 21.1757 21.75 21.59C21.75 22.0042 21.4142 22.34 21 22.34L3 22.34C2.58578 22.34 2.25 22.0042 2.25 21.59Z" fill="white"/>
</svg>
