<svg width="24" height="25" viewBox="0 0 24 25" fill="none" xmlns="http://www.w3.org/2000/svg">
<path fill-rule="evenodd" clip-rule="evenodd" d="M7.75 8.58997C7.75 6.24276 9.65279 4.33997 12 4.33997C14.3472 4.33997 16.25 6.24276 16.25 8.58997C16.25 10.9372 14.3472 12.84 12 12.84C9.65279 12.84 7.75 10.9372 7.75 8.58997ZM12 2.83997C8.82436 2.83997 6.25 5.41433 6.25 8.58997C6.25 9.09617 6.31541 9.5871 6.43824 10.0548C4.02159 10.7355 2.25 12.955 2.25 15.5899C2.25 18.7656 4.82436 21.3399 8 21.3399C9.55457 21.3399 10.965 20.723 12 19.7206C13.0343 20.7222 14.445 21.3399 15.9999 21.3399C19.1755 21.3399 21.7499 18.7656 21.7499 15.5899C21.7499 12.9551 19.9783 10.7355 17.5617 10.0548C17.6846 9.58712 17.75 9.09618 17.75 8.58997C17.75 5.41433 15.1756 2.83997 12 2.83997ZM16.9866 11.4549C16.2458 12.7415 15.0214 13.7144 13.5616 14.1254C13.6846 14.5935 13.75 15.0844 13.75 15.5899C13.75 16.6673 13.4537 17.6755 12.9381 18.5375C13.7119 19.3413 14.7976 19.8399 15.9999 19.8399C18.3471 19.8399 20.2499 17.9371 20.2499 15.5899C20.2499 13.583 18.858 11.8995 16.9866 11.4549ZM12.0633 14.3396C12.0422 14.3399 12.0211 14.34 12 14.34C9.86751 14.34 8.00616 13.1791 7.01341 11.4549C5.14188 11.8994 3.75 13.5829 3.75 15.5899C3.75 17.9371 5.65279 19.8399 8 19.8399C9.37869 19.8399 10.6041 19.1834 11.3805 18.166C11.3927 18.1482 11.4057 18.1309 11.4196 18.1141C11.9414 17.4082 12.25 16.5351 12.25 15.5899C12.25 15.154 12.1846 14.7343 12.0633 14.3396Z" fill="white"/>
</svg>
