<svg width="24" height="25" viewBox="0 0 24 25" fill="none" xmlns="http://www.w3.org/2000/svg">
<path fill-rule="evenodd" clip-rule="evenodd" d="M2 3.84009C2.41421 3.84009 2.75 4.17587 2.75 4.59009V20.5901C2.75 21.0043 2.41421 21.3401 2 21.3401C1.58579 21.3401 1.25 21.0043 1.25 20.5901V4.59009C1.25 4.17587 1.58579 3.84009 2 3.84009ZM22 3.84009C22.4142 3.84009 22.75 4.17587 22.75 4.59009V12.5901V20.5901C22.75 21.0043 22.4142 21.3401 22 21.3401C21.5858 21.3401 21.25 21.0043 21.25 20.5901V12.5901V4.59009C21.25 4.17587 21.5858 3.84009 22 3.84009ZM18.5303 13.1204C18.671 12.9798 18.75 12.789 18.75 12.5901C18.75 12.3912 18.671 12.2004 18.5303 12.0598L16.0303 9.55976C15.7374 9.26687 15.2626 9.26687 14.9697 9.55976C14.6768 9.85265 14.6768 10.3275 14.9697 10.6204L16.1893 11.8401H7.81066L9.03033 10.6204C9.32322 10.3275 9.32322 9.85265 9.03033 9.55976C8.73744 9.26686 8.26256 9.26686 7.96967 9.55976L5.46967 12.0598C5.17678 12.3527 5.17678 12.8275 5.46967 13.1204L7.96967 15.6204C8.26256 15.9133 8.73744 15.9133 9.03033 15.6204C9.32322 15.3275 9.32322 14.8527 9.03033 14.5598L7.81066 13.3401H16.1893L14.9697 14.5598C14.6768 14.8527 14.6768 15.3275 14.9697 15.6204C15.2626 15.9133 15.7374 15.9133 16.0303 15.6204L18.5303 13.1204Z" fill="white"/>
</svg>
