<svg width="24" height="25" viewBox="0 0 24 25" fill="none" xmlns="http://www.w3.org/2000/svg">
<path fill-rule="evenodd" clip-rule="evenodd" d="M3.53033 1.52967C3.23744 1.23677 2.76256 1.23677 2.46967 1.52967C2.17678 1.82256 2.17678 2.29743 2.46967 2.59033L5.07545 5.1961C3.32967 6.95727 2.25 9.38314 2.25 12.06C2.25 13.1072 2.46937 14.1334 2.75717 15.0335C3.06774 16.0047 3.29313 16.7101 3.43869 17.2417C3.58952 17.7925 3.62723 18.0659 3.62009 18.2063C3.61436 18.3192 3.6103 18.3659 3.60482 18.405C3.59934 18.4441 3.59038 18.4902 3.56488 18.6002C3.52846 18.7574 3.44396 18.9604 3.24752 19.2955C3.05123 19.6303 2.77429 20.0465 2.38165 20.6354C2.29861 20.7562 2.25 20.9024 2.25 21.06C2.25 21.4742 2.58579 21.81 3 21.81H12C14.6769 21.81 17.1027 20.7303 18.8639 18.9846L21.4697 21.5903C21.7626 21.8832 22.2374 21.8832 22.5303 21.5903C22.8232 21.2974 22.8232 20.8226 22.5303 20.5297L3.53033 1.52967ZM17.8032 17.9239L6.13612 6.25677C4.66012 7.74804 3.75 9.79715 3.75 12.06C3.75 12.9056 3.92871 13.7722 4.18591 14.5766L4.19182 14.5951C4.49527 15.5441 4.73048 16.2797 4.88542 16.8455C5.03609 17.3957 5.13874 17.8773 5.11816 18.2825C5.10413 18.5586 5.08857 18.6696 5.02614 18.9389C4.93921 19.314 4.76667 19.6701 4.54156 20.0541C4.49371 20.1357 4.44208 20.2209 4.38671 20.31H12C14.2629 20.31 16.312 19.3999 17.8032 17.9239ZM10.166 4.01442C10.7551 3.88074 11.3688 3.81 12 3.81C16.5564 3.81 20.25 7.50365 20.25 12.06C20.25 12.8564 20.1374 13.6252 19.9276 14.3521C19.883 14.5066 19.834 14.6594 19.7808 14.8101C19.6427 15.2006 19.8474 15.6291 20.2379 15.7671C20.6285 15.9052 21.057 15.7005 21.195 15.3099C21.258 15.1316 21.316 14.9509 21.3688 14.7679C21.6172 13.9073 21.75 12.9985 21.75 12.06C21.75 6.67522 17.3848 2.31 12 2.31C11.2564 2.31 10.5313 2.39338 9.83404 2.55161C9.47738 2.63254 9.12813 2.73301 8.78747 2.85185C8.39637 2.98828 8.18993 3.41594 8.32636 3.80703C8.4628 4.19813 8.89045 4.40458 9.28155 4.26815C9.5694 4.16773 9.86453 4.08282 10.166 4.01442Z" fill="white"/>
</svg>
