<svg width="24" height="25" viewBox="0 0 24 25" fill="none" xmlns="http://www.w3.org/2000/svg">
<path fill-rule="evenodd" clip-rule="evenodd" d="M21.4697 1.52967C21.7626 1.23677 22.2374 1.23677 22.5303 1.52967C22.8232 1.82256 22.8232 2.29743 22.5303 2.59033L3.53033 21.5903C3.23744 21.8832 2.76256 21.8832 2.46967 21.5903C2.17678 21.2974 2.17678 20.8226 2.46967 20.5297L4.18934 18.81H3C2.58579 18.81 2.25 18.4742 2.25 18.06V4.06C2.25 3.64578 2.58579 3.31 3 3.31H12H19.6893L21.4697 1.52967ZM18.1893 4.81H12H3.75V17.31H5.68934L18.1893 4.81ZM21.75 7.06C21.75 6.64578 21.4142 6.31 21 6.31C20.5858 6.31 20.25 6.64578 20.25 7.06V18.8465L17.3354 17.3892C17.2313 17.3371 17.1164 17.31 17 17.31H10C9.58579 17.31 9.25 17.6458 9.25 18.06C9.25 18.4742 9.58579 18.81 10 18.81H16.8229L20.6646 20.7308C20.8971 20.8471 21.1732 20.8346 21.3943 20.698C21.6154 20.5613 21.75 20.3199 21.75 20.06V7.06Z" fill="white"/>
</svg>
