<svg width="24" height="25" viewBox="0 0 24 25" fill="none" xmlns="http://www.w3.org/2000/svg">
<path fill-rule="evenodd" clip-rule="evenodd" d="M2.75 11.06C2.75 7.05593 5.99594 3.81 10 3.81C13.0447 3.81 15.6525 5.68743 16.7262 8.34861C16.4876 8.32309 16.2453 8.31 16 8.31C12.2721 8.31 9.25 11.3321 9.25 15.06C9.25 18.7879 12.2721 21.81 16 21.81H22C22.4142 21.81 22.75 21.4742 22.75 21.06C22.75 20.8884 22.6924 20.7303 22.5955 20.6039C22.327 20.246 22.1424 19.9994 22.0104 19.8034C21.8775 19.6058 21.8309 19.5065 21.8118 19.448C21.7691 19.3174 21.7602 19.277 21.7561 19.2501C21.752 19.2233 21.7484 19.182 21.7501 19.0447C21.7506 19.0026 21.7719 18.8624 21.8831 18.5077C21.9877 18.1741 22.1459 17.7268 22.3663 17.1041C22.5822 16.4939 22.75 15.7889 22.75 15.06C22.75 12.1949 20.9649 9.74668 18.4463 8.76692C17.4386 5.0471 14.0399 2.31 10 2.31C5.16751 2.31 1.25 6.22751 1.25 11.06C1.25 12.002 1.44725 12.9231 1.70478 13.7284C1.95628 14.515 2.13963 15.0887 2.26281 15.5173C2.39122 15.9641 2.43168 16.1807 2.43567 16.2826C2.4446 16.5108 2.44139 16.6063 2.43035 16.685C2.41932 16.7637 2.39615 16.8564 2.32482 17.0733C2.23804 17.3373 2.01606 17.6837 1.38164 18.6355C1.2986 18.7562 1.25 18.9024 1.25 19.06C1.25 19.4742 1.58579 19.81 2 19.81H8C8.41421 19.81 8.75 19.4742 8.75 19.06C8.75 18.6458 8.41421 18.31 8 18.31H3.37965C3.54775 18.0264 3.67196 17.7786 3.74978 17.5419C3.82514 17.3127 3.88505 17.1128 3.91583 16.8932C3.94662 16.6736 3.94395 16.465 3.93452 16.2239C3.92254 15.9181 3.83002 15.5399 3.70445 15.103C3.57439 14.6504 3.3842 14.0556 3.13779 13.285L3.13774 13.2848L3.13352 13.2716C2.9066 12.5619 2.75 11.8005 2.75 11.06ZM21.25 15.06C21.25 12.1605 18.8995 9.81 16 9.81C13.1005 9.81 10.75 12.1605 10.75 15.06C10.75 17.9595 13.1005 20.31 16 20.31H20.5615C20.4908 20.1816 20.4306 20.0506 20.3859 19.9136C20.3394 19.7713 20.2972 19.6326 20.2734 19.4768C20.2495 19.3209 20.2484 19.176 20.2502 19.0263C20.2538 18.7375 20.3437 18.4038 20.4518 18.0589C20.5656 17.6961 20.733 17.223 20.9467 16.6193L20.9522 16.6037C21.1317 16.0965 21.25 15.5663 21.25 15.06Z" fill="white"/>
</svg>
