<svg width="24" height="25" viewBox="0 0 24 25" fill="none" xmlns="http://www.w3.org/2000/svg">
<path fill-rule="evenodd" clip-rule="evenodd" d="M2.25 4.06C2.25 3.64578 2.58579 3.31 3 3.31H21C21.4142 3.31 21.75 3.64578 21.75 4.06V20.06C21.75 20.3199 21.6154 20.5613 21.3943 20.698C21.1732 20.8346 20.8971 20.8471 20.6646 20.7308L16.8229 18.81H3C2.58579 18.81 2.25 18.4742 2.25 18.06V4.06ZM3.75 4.81V17.31H17C17.1164 17.31 17.2313 17.3371 17.3354 17.3892L20.25 18.8465V4.81H3.75ZM6.25 8.06C6.25 7.64578 6.58579 7.31 7 7.31H15C15.4142 7.31 15.75 7.64578 15.75 8.06C15.75 8.47421 15.4142 8.81 15 8.81H7C6.58579 8.81 6.25 8.47421 6.25 8.06ZM7 11.31C6.58579 11.31 6.25 11.6458 6.25 12.06C6.25 12.4742 6.58579 12.81 7 12.81H11C11.4142 12.81 11.75 12.4742 11.75 12.06C11.75 11.6458 11.4142 11.31 11 11.31H7Z" fill="white"/>
</svg>
