<svg width="24" height="25" viewBox="0 0 24 25" fill="none" xmlns="http://www.w3.org/2000/svg">
<path fill-rule="evenodd" clip-rule="evenodd" d="M3 3.31C2.58579 3.31 2.25 3.64578 2.25 4.06V18.06C2.25 18.4742 2.58579 18.81 3 18.81H16.8229L20.6646 20.7308C20.8971 20.8471 21.1732 20.8346 21.3943 20.698C21.6154 20.5613 21.75 20.3199 21.75 20.06V4.06C21.75 3.64578 21.4142 3.31 21 3.31H3ZM3.75 17.31V4.81H20.25V18.8465L17.3354 17.3892C17.2313 17.3371 17.1164 17.31 17 17.31H3.75ZM9 10.31C8.58579 10.31 8.25 10.6458 8.25 11.06C8.25 11.4742 8.58579 11.81 9 11.81H15C15.4142 11.81 15.75 11.4742 15.75 11.06C15.75 10.6458 15.4142 10.31 15 10.31H9Z" fill="white"/>
</svg>
