<svg width="24" height="25" viewBox="0 0 24 25" fill="none" xmlns="http://www.w3.org/2000/svg">
<path fill-rule="evenodd" clip-rule="evenodd" d="M12 3.81C7.44365 3.81 3.75 7.50365 3.75 12.06C3.75 12.9056 3.92871 13.7722 4.18591 14.5766L4.19182 14.5951C4.49527 15.5441 4.73048 16.2797 4.88542 16.8455C5.03609 17.3957 5.13874 17.8773 5.11816 18.2825C5.10413 18.5586 5.08857 18.6696 5.02614 18.9389C4.93921 19.314 4.76667 19.6701 4.54156 20.0541C4.49371 20.1357 4.44208 20.2209 4.38671 20.31H12C16.5564 20.31 20.25 16.6163 20.25 12.06C20.25 7.50365 16.5564 3.81 12 3.81ZM2.38165 20.6354C2.29861 20.7562 2.25 20.9024 2.25 21.06C2.25 21.4742 2.58579 21.81 3 21.81H12C17.3848 21.81 21.75 17.4448 21.75 12.06C21.75 6.67522 17.3848 2.31 12 2.31C6.61522 2.31 2.25 6.67522 2.25 12.06C2.25 13.1072 2.46937 14.1334 2.75717 15.0335C3.06774 16.0047 3.29313 16.7101 3.43869 17.2417C3.58952 17.7925 3.62723 18.0659 3.62009 18.2063C3.61436 18.3192 3.6103 18.3659 3.60482 18.405C3.59934 18.4441 3.59038 18.4902 3.56488 18.6002C3.52846 18.7574 3.44396 18.9604 3.24752 19.2955C3.05123 19.6303 2.77429 20.0465 2.38165 20.6354Z" fill="white"/>
</svg>
