<svg width="24" height="25" viewBox="0 0 24 25" fill="none" xmlns="http://www.w3.org/2000/svg">
<path fill-rule="evenodd" clip-rule="evenodd" d="M3.75 12.06C3.75 7.50365 7.44365 3.81 12 3.81C16.5564 3.81 20.25 7.50365 20.25 12.06C20.25 16.6163 16.5564 20.31 12 20.31H4.38671C4.44208 20.2209 4.49371 20.1357 4.54156 20.0541C4.76667 19.6701 4.93921 19.314 5.02614 18.9389C5.08857 18.6696 5.10413 18.5586 5.11816 18.2825C5.13874 17.8773 5.03609 17.3957 4.88542 16.8455C4.73048 16.2797 4.49527 15.5441 4.19182 14.5951L4.18591 14.5766C3.92871 13.7722 3.75 12.9056 3.75 12.06ZM2.25 21.06C2.25 20.9024 2.29861 20.7562 2.38165 20.6354C2.77429 20.0465 3.05123 19.6303 3.24752 19.2955C3.44396 18.9604 3.52846 18.7574 3.56488 18.6002C3.59038 18.4902 3.59934 18.4441 3.60482 18.405C3.6103 18.3659 3.61436 18.3192 3.62009 18.2063C3.62723 18.0659 3.58952 17.7925 3.43869 17.2417C3.29313 16.7101 3.06774 16.0047 2.75717 15.0335C2.46937 14.1334 2.25 13.1072 2.25 12.06C2.25 6.67522 6.61522 2.31 12 2.31C17.3848 2.31 21.75 6.67522 21.75 12.06C21.75 17.4448 17.3848 21.81 12 21.81H3C2.58579 21.81 2.25 21.4742 2.25 21.06ZM12.75 9.06C12.75 8.64578 12.4142 8.31 12 8.31C11.5858 8.31 11.25 8.64578 11.25 9.06V11.31H9C8.58579 11.31 8.25 11.6458 8.25 12.06C8.25 12.4742 8.58579 12.81 9 12.81H11.25V15.06C11.25 15.4742 11.5858 15.81 12 15.81C12.4142 15.81 12.75 15.4742 12.75 15.06V12.81H15C15.4142 12.81 15.75 12.4742 15.75 12.06C15.75 11.6458 15.4142 11.31 15 11.31H12.75V9.06Z" fill="white"/>
</svg>
