<svg width="24" height="25" viewBox="0 0 24 25" fill="none" xmlns="http://www.w3.org/2000/svg">
<path fill-rule="evenodd" clip-rule="evenodd" d="M2 3.31C1.58579 3.31 1.25 3.64578 1.25 4.06V18.06C1.25 18.3366 1.40224 18.5907 1.64611 18.7213C1.88997 18.8518 2.18588 18.8375 2.41603 18.684L5.22708 16.81H7C7.41421 16.81 7.75 16.4742 7.75 16.06C7.75 15.6458 7.41421 15.31 7 15.31H5C4.85193 15.31 4.70718 15.3538 4.58398 15.436L2.75 16.6586V4.81H17.25V8.31H10C9.58579 8.31 9.25 8.64578 9.25 9.06V18.06C9.25 18.4742 9.58579 18.81 10 18.81H18.7729L21.584 20.684C21.8141 20.8375 22.11 20.8518 22.3539 20.7213C22.5978 20.5907 22.75 20.3366 22.75 20.06V9.06C22.75 8.64578 22.4142 8.31 22 8.31H18.75V4.06C18.75 3.64578 18.4142 3.31 18 3.31H2ZM18 9.81H10.75V17.31H19C19.1481 17.31 19.2928 17.3538 19.416 17.436L21.25 18.6586V9.81H18Z" fill="white"/>
</svg>
