<svg width="24" height="25" viewBox="0 0 24 25" fill="none" xmlns="http://www.w3.org/2000/svg">
<path fill-rule="evenodd" clip-rule="evenodd" d="M3 3.31C2.58579 3.31 2.25 3.64578 2.25 4.06V18.06C2.25 18.4742 2.58579 18.81 3 18.81H16.8229L20.6646 20.7308C20.8971 20.8471 21.1732 20.8346 21.3943 20.698C21.6154 20.5613 21.75 20.3199 21.75 20.06V4.06C21.75 3.64578 21.4142 3.31 21 3.31H3ZM3.75 17.31V4.81H20.25V18.8465L17.3354 17.3892C17.2313 17.3371 17.1164 17.31 17 17.31H3.75ZM10.0303 8.02967C9.73744 7.73677 9.26256 7.73677 8.96967 8.02967C8.67678 8.32256 8.67678 8.79743 8.96967 9.09033L10.9393 11.06L8.96967 13.0297C8.67678 13.3226 8.67678 13.7974 8.96967 14.0903C9.26256 14.3832 9.73744 14.3832 10.0303 14.0903L12 12.1207L13.9697 14.0903C14.2626 14.3832 14.7374 14.3832 15.0303 14.0903C15.3232 13.7974 15.3232 13.3226 15.0303 13.0297L13.0607 11.06L15.0303 9.09033C15.3232 8.79743 15.3232 8.32256 15.0303 8.02967C14.7374 7.73677 14.2626 7.73677 13.9697 8.02967L12 9.99934L10.0303 8.02967Z" fill="white"/>
</svg>
