<svg width="24" height="25" viewBox="0 0 24 25" fill="none" xmlns="http://www.w3.org/2000/svg">
<path fill-rule="evenodd" clip-rule="evenodd" d="M3 3.31C2.58579 3.31 2.25 3.64578 2.25 4.06V18.06C2.25 18.4742 2.58579 18.81 3 18.81H16.8229L20.6646 20.7308C20.8971 20.8471 21.1732 20.8346 21.3943 20.698C21.6154 20.5613 21.75 20.3199 21.75 20.06V4.06C21.75 3.64578 21.4142 3.31 21 3.31H3ZM3.75 17.31V4.81H20.25V18.8465L17.3354 17.3892C17.2313 17.3371 17.1164 17.31 17 17.31H3.75ZM8 12.06C8.55228 12.06 9 11.6123 9 11.06C9 10.5077 8.55228 10.06 8 10.06C7.44772 10.06 7 10.5077 7 11.06C7 11.6123 7.44772 12.06 8 12.06ZM13 11.06C13 11.6123 12.5523 12.06 12 12.06C11.4477 12.06 11 11.6123 11 11.06C11 10.5077 11.4477 10.06 12 10.06C12.5523 10.06 13 10.5077 13 11.06ZM16 12.06C16.5523 12.06 17 11.6123 17 11.06C17 10.5077 16.5523 10.06 16 10.06C15.4477 10.06 15 10.5077 15 11.06C15 11.6123 15.4477 12.06 16 12.06Z" fill="white"/>
</svg>
