<svg width="24" height="25" viewBox="0 0 24 25" fill="none" xmlns="http://www.w3.org/2000/svg">
<path fill-rule="evenodd" clip-rule="evenodd" d="M3.75 12.06C3.75 7.50365 7.44365 3.81 12 3.81C16.5563 3.81 20.25 7.50365 20.25 12.06C20.25 16.6163 16.5563 20.31 12 20.31H4.38671C4.44208 20.2209 4.49371 20.1357 4.54156 20.0541C4.76667 19.6701 4.93921 19.314 5.02614 18.9389C5.08857 18.6696 5.10413 18.5586 5.11816 18.2825C5.13874 17.8773 5.03609 17.3957 4.88542 16.8455C4.73048 16.2797 4.49527 15.5441 4.19182 14.5951L4.18591 14.5766C3.92871 13.7722 3.75 12.9056 3.75 12.06ZM2.25 21.06C2.25 20.9024 2.29861 20.7562 2.38164 20.6354C2.77429 20.0465 3.05123 19.6303 3.24752 19.2955C3.44396 18.9604 3.52846 18.7574 3.56488 18.6002C3.59038 18.4902 3.59934 18.4441 3.60482 18.405C3.6103 18.3659 3.61436 18.3192 3.62009 18.2063C3.62723 18.0659 3.58952 17.7925 3.43868 17.2417C3.29313 16.7101 3.06774 16.0047 2.75717 15.0335C2.46937 14.1334 2.25 13.1072 2.25 12.06C2.25 6.67522 6.61522 2.31 12 2.31C17.3848 2.31 21.75 6.67522 21.75 12.06C21.75 17.4448 17.3848 21.81 12 21.81H3C2.58579 21.81 2.25 21.4742 2.25 21.06ZM10.0303 9.02967C9.73744 8.73677 9.26256 8.73677 8.96967 9.02967C8.67678 9.32256 8.67678 9.79743 8.96967 10.0903L10.9393 12.06L8.96967 14.0297C8.67678 14.3226 8.67678 14.7974 8.96967 15.0903C9.26256 15.3832 9.73744 15.3832 10.0303 15.0903L12 13.1207L13.9697 15.0903C14.2626 15.3832 14.7374 15.3832 15.0303 15.0903C15.3232 14.7974 15.3232 14.3226 15.0303 14.0297L13.0607 12.06L15.0303 10.0903C15.3232 9.79743 15.3232 9.32256 15.0303 9.02967C14.7374 8.73677 14.2626 8.73677 13.9697 9.02967L12 10.9993L10.0303 9.02967Z" fill="white"/>
</svg>
