<svg width="24" height="25" viewBox="0 0 24 25" fill="none" xmlns="http://www.w3.org/2000/svg">
<path fill-rule="evenodd" clip-rule="evenodd" d="M2.25 4.06C2.25 3.64578 2.58579 3.31 3 3.31H21C21.4142 3.31 21.75 3.64578 21.75 4.06V20.06C21.75 20.3199 21.6154 20.5613 21.3943 20.698C21.1732 20.8346 20.8971 20.8471 20.6646 20.7308L16.8229 18.81H3C2.58579 18.81 2.25 18.4742 2.25 18.06V4.06ZM3.75 4.81V17.31H17C17.1164 17.31 17.2313 17.3371 17.3354 17.3892L20.25 18.8465V4.81H3.75ZM13 14.06C13 14.6123 12.5523 15.06 12 15.06C11.4477 15.06 11 14.6123 11 14.06C11 13.5077 11.4477 13.06 12 13.06C12.5523 13.06 13 13.5077 13 14.06ZM12.75 7.06C12.75 6.64578 12.4142 6.31 12 6.31C11.5858 6.31 11.25 6.64578 11.25 7.06V11.06C11.25 11.4742 11.5858 11.81 12 11.81C12.4142 11.81 12.75 11.4742 12.75 11.06V7.06Z" fill="white"/>
</svg>
