<svg width="24" height="25" viewBox="0 0 24 25" fill="none" xmlns="http://www.w3.org/2000/svg">
<path fill-rule="evenodd" clip-rule="evenodd" d="M3 3.31C2.58579 3.31 2.25 3.64578 2.25 4.06V18.06C2.25 18.4742 2.58579 18.81 3 18.81H16.8229L20.6646 20.7308C20.8971 20.8471 21.1732 20.8346 21.3943 20.698C21.6154 20.5613 21.75 20.3199 21.75 20.06V4.06C21.75 3.64578 21.4142 3.31 21 3.31H3ZM3.75 17.31V4.81H20.25V18.8465L17.3354 17.3892C17.2313 17.3371 17.1164 17.31 17 17.31H3.75ZM16.0303 9.09033C16.3232 8.79743 16.3232 8.32256 16.0303 8.02967C15.7374 7.73677 15.2626 7.73677 14.9697 8.02967L11 11.9993L9.53033 10.5297C9.23744 10.2368 8.76256 10.2368 8.46967 10.5297C8.17678 10.8226 8.17678 11.2974 8.46967 11.5903L10.4697 13.5903C10.7626 13.8832 11.2374 13.8832 11.5303 13.5903L16.0303 9.09033Z" fill="white"/>
</svg>
