<svg width="24" height="25" viewBox="0 0 24 25" fill="none" xmlns="http://www.w3.org/2000/svg">
<path fill-rule="evenodd" clip-rule="evenodd" d="M11.4698 3.58966C11.7627 3.29677 12.2376 3.29677 12.5304 3.58966L13.975 5.03422L17.4194 1.58967C17.5601 1.44902 17.7509 1.37 17.9498 1.36999C18.1487 1.36999 18.3395 1.44901 18.4801 1.58966L22.5304 5.63989C22.6711 5.78054 22.7501 5.97131 22.7501 6.17022C22.7501 6.36913 22.6711 6.5599 22.5304 6.70055L19.0859 10.1451L20.5304 11.5897C20.6711 11.7303 20.7501 11.9211 20.7501 12.12C20.7501 12.3189 20.6711 12.5097 20.5304 12.6503L10.5304 22.6503C10.3898 22.791 10.199 22.87 10.0001 22.87C9.8012 22.87 9.61044 22.791 9.46978 22.6503L1.46978 14.6503C1.17689 14.3574 1.17689 13.8826 1.46978 13.5897L11.4698 3.58966ZM18.0252 9.08445L20.9394 6.17023L17.9498 3.18065L15.0357 6.09488L18.0252 9.08445ZM12.0001 5.18065L3.06077 14.12L10.0001 21.0593L18.9395 12.12L12.0001 5.18065ZM6.46967 13.5897C6.76256 13.2968 7.23744 13.2968 7.53033 13.5897L10.5303 16.5897C10.8232 16.8826 10.8232 17.3574 10.5303 17.6503C10.2374 17.9432 9.76256 17.9432 9.46967 17.6503L6.46967 14.6503C6.17678 14.3574 6.17678 13.8826 6.46967 13.5897Z" fill="white"/>
</svg>
