<svg width="24" height="25" viewBox="0 0 24 25" fill="none" xmlns="http://www.w3.org/2000/svg">
<path fill-rule="evenodd" clip-rule="evenodd" d="M12 2.87C6.89136 2.87 2.75 7.01136 2.75 12.12C2.75 17.2286 6.89136 21.37 12 21.37C17.1086 21.37 21.25 17.2286 21.25 12.12C21.25 7.01136 17.1086 2.87 12 2.87ZM1.25 12.12C1.25 6.18294 6.06294 1.37 12 1.37C17.9371 1.37 22.75 6.18294 22.75 12.12C22.75 18.0571 17.9371 22.87 12 22.87C6.06294 22.87 1.25 18.0571 1.25 12.12ZM11.25 6.12C11.25 5.70578 11.5858 5.37 12 5.37C15.7279 5.37 18.75 8.39207 18.75 12.12C18.75 12.5342 18.4142 12.87 18 12.87C17.5858 12.87 17.25 12.5342 17.25 12.12C17.25 9.2205 14.8995 6.87 12 6.87C11.5858 6.87 11.25 6.53421 11.25 6.12ZM10.75 12.12C10.75 11.4296 11.3096 10.87 12 10.87C12.6904 10.87 13.25 11.4296 13.25 12.12C13.25 12.8104 12.6904 13.37 12 13.37C11.3096 13.37 10.75 12.8104 10.75 12.12ZM12 9.37C10.4812 9.37 9.24999 10.6012 9.24999 12.12C9.24999 13.6388 10.4812 14.87 12 14.87C13.5188 14.87 14.75 13.6388 14.75 12.12C14.75 10.6012 13.5188 9.37 12 9.37Z" fill="white"/>
</svg>
