<svg width="24" height="25" viewBox="0 0 24 25" fill="none" xmlns="http://www.w3.org/2000/svg">
<path fill-rule="evenodd" clip-rule="evenodd" d="M12 2.37C7.71979 2.37 4.25 5.83979 4.25 10.12V14.12C4.25 18.4002 7.71979 21.87 12 21.87C16.2802 21.87 19.75 18.4002 19.75 14.12V10.12C19.75 5.83979 16.2802 2.37 12 2.37ZM5.75 10.12C5.75 6.66822 8.54822 3.87 12 3.87C15.4518 3.87 18.25 6.66822 18.25 10.12V14.12C18.25 17.5718 15.4518 20.37 12 20.37C8.54822 20.37 5.75 17.5718 5.75 14.12V10.12ZM12.75 8.12C12.75 7.70578 12.4142 7.37 12 7.37C11.5858 7.37 11.25 7.70578 11.25 8.12V10.12C11.25 10.5342 11.5858 10.87 12 10.87C12.4142 10.87 12.75 10.5342 12.75 10.12V8.12Z" fill="white"/>
</svg>
