<svg width="24" height="25" viewBox="0 0 24 25" fill="none" xmlns="http://www.w3.org/2000/svg">
<path fill-rule="evenodd" clip-rule="evenodd" d="M3 4.90002C2.58579 4.90002 2.25 5.23581 2.25 5.65003V16.9H1C0.585786 16.9 0.25 17.2358 0.25 17.65V20.65C0.25 21.0642 0.585786 21.4 1 21.4H23C23.4142 21.4 23.75 21.0642 23.75 20.65V17.65C23.75 17.2358 23.4142 16.9 23 16.9H21.75V5.65003C21.75 5.23581 21.4142 4.90002 21 4.90002H3ZM20.25 16.9V6.40003H3.75V16.9H20.25ZM3 18.4H1.75V19.9H22.25V18.4H21H3Z" fill="white"/>
</svg>
