<svg width="24" height="25" viewBox="0 0 24 25" fill="none" xmlns="http://www.w3.org/2000/svg">
<path fill-rule="evenodd" clip-rule="evenodd" d="M6 1.37C5.65585 1.37 5.35586 1.60422 5.2724 1.93809L2.2724 13.9381C2.25752 13.9976 2.25 14.0587 2.25 14.12V22.12C2.25 22.5342 2.58579 22.87 3 22.87H21C21.4142 22.87 21.75 22.5342 21.75 22.12V14.12C21.75 14.0587 21.7425 13.9976 21.7276 13.9381L18.7276 1.93809C18.6441 1.60422 18.3442 1.37 18 1.37H6ZM3.96059 13.37L6.58558 2.87H17.4144L20.0394 13.37H3.96059ZM3.75 14.87V21.37H20.25V14.87H3.75ZM8 18.12C8 18.6723 7.55229 19.12 7 19.12C6.44772 19.12 6 18.6723 6 18.12C6 17.5677 6.44772 17.12 7 17.12C7.55229 17.12 8 17.5677 8 18.12ZM11 17.37C10.5858 17.37 10.25 17.7058 10.25 18.12C10.25 18.5342 10.5858 18.87 11 18.87H17C17.4142 18.87 17.75 18.5342 17.75 18.12C17.75 17.7058 17.4142 17.37 17 17.37H11Z" fill="white"/>
</svg>
