<svg width="24" height="25" viewBox="0 0 24 25" fill="none" xmlns="http://www.w3.org/2000/svg">
<path fill-rule="evenodd" clip-rule="evenodd" d="M3.75 12.8296C3.75 8.27324 7.44365 4.57959 12 4.57959C16.5563 4.57959 20.25 8.27324 20.25 12.8296C20.25 17.3859 16.5563 21.0796 12 21.0796C7.44365 21.0796 3.75 17.3859 3.75 12.8296ZM12 3.07959C6.61522 3.07959 2.25 7.44481 2.25 12.8296C2.25 18.2144 6.61522 22.5796 12 22.5796C17.3848 22.5796 21.75 18.2144 21.75 12.8296C21.75 7.44481 17.3848 3.07959 12 3.07959ZM16.1965 9.60813C16.3079 9.32957 16.2426 9.0114 16.0304 8.79926C15.8183 8.58711 15.5001 8.52181 15.2216 8.63323L10.2216 10.6332C10.031 10.7095 9.87998 10.8605 9.80375 11.051L7.80375 16.051C7.69232 16.3296 7.75763 16.6478 7.96978 16.8599C8.18192 17.0721 8.50009 17.1374 8.77865 17.0259L13.7786 15.0259C13.9692 14.9497 14.1202 14.7987 14.1965 14.6081L16.1965 9.60813ZM9.8464 14.9833L11.0771 11.9066L14.1538 10.6759L12.9231 13.7526L9.8464 14.9833Z" fill="white"/>
</svg>
