<svg width="24" height="25" viewBox="0 0 24 25" fill="none" xmlns="http://www.w3.org/2000/svg">
<path d="M11.2619 15.0391C11.6584 14.6052 12.3419 14.6052 12.7384 15.0391L17.2059 19.9283C17.7923 20.57 17.337 21.6028 16.4677 21.6028H7.5326C6.66325 21.6028 6.20795 20.57 6.79439 19.9282L11.2619 15.0391Z" fill="white"/>
<path d="M18.6847 18.7044C19.9988 17.3256 20.5767 16.3866 21.0512 14.5432C21.5256 12.6998 21.4259 10.7554 20.7653 8.97026C20.1047 7.18507 18.9148 5.64416 17.3547 4.55362C15.7946 3.46308 13.9386 2.87492 12.0352 2.8678C10.1317 2.86068 8.27144 3.43495 6.70321 4.51379C5.13498 5.59263 3.93356 7.12461 3.25964 8.9048C2.58573 10.685 2.47145 12.6285 2.9321 14.4754C3.39275 16.3223 4.01378 17.1533 5.34946 18.7044" stroke="white" stroke-width="1.5" stroke-linecap="round" stroke-linejoin="round"/>
<path d="M16.7645 16.529C17.6532 15.5253 17.7787 15.0861 18.2015 13.8495C18.5266 12.5864 18.4582 11.2542 18.0056 10.0311C17.553 8.80791 16.7377 7.75212 15.6687 7.00491C14.5998 6.25771 13.3282 5.85471 12.024 5.84984C10.7197 5.84496 9.44515 6.23843 8.37064 6.97763C7.29613 7.71682 6.47295 8.76648 6.0112 9.98622C5.54945 11.206 5.47116 12.5376 5.78678 13.8031C6.15211 15.0339 6.4135 15.3266 7.23949 16.4454" stroke="white" stroke-width="1.5" stroke-linecap="round" stroke-linejoin="round"/>
<path d="M14.8307 14.2811C15.1757 13.7269 15.1599 13.8154 15.3347 13.1362C15.5095 12.457 15.4727 11.7406 15.2293 11.0829C14.986 10.4251 14.5475 9.85738 13.9727 9.45557C13.3979 9.05377 12.7141 8.83706 12.0128 8.83444C11.3114 8.83181 10.626 9.0434 10.0482 9.4409C9.4704 9.83839 9.02774 10.4028 8.77944 11.0587C8.53113 11.7147 8.48903 12.4307 8.65875 13.1112C8.91287 13.7687 8.77944 13.4551 9.18471 14.1556" stroke="white" stroke-width="1.5" stroke-linecap="round" stroke-linejoin="round"/>
</svg>
