<svg width="24" height="25" viewBox="0 0 24 25" fill="none" xmlns="http://www.w3.org/2000/svg">
<path fill-rule="evenodd" clip-rule="evenodd" d="M8 1.37C8.41421 1.37 8.75 1.70578 8.75 2.12V4.37H11.25V2.12C11.25 1.70578 11.5858 1.37 12 1.37C12.4142 1.37 12.75 1.70578 12.75 2.12V4.37H15.25V2.12C15.25 1.70578 15.5858 1.37 16 1.37C16.4142 1.37 16.75 1.70578 16.75 2.12V4.37H19C19.4142 4.37 19.75 4.70578 19.75 5.12V6.87H22C22.4142 6.87 22.75 7.20578 22.75 7.62C22.75 8.03421 22.4142 8.37 22 8.37H19.75V10.87H22C22.4142 10.87 22.75 11.2058 22.75 11.62C22.75 12.0342 22.4142 12.37 22 12.37H19.75V14.87H22C22.4142 14.87 22.75 15.2058 22.75 15.62C22.75 16.0342 22.4142 16.37 22 16.37H19.75V19.12C19.75 19.5342 19.4142 19.87 19 19.87H16.75V22.12V22.87H15.25V22.12V19.87H12.75V22.12C12.75 22.5342 12.4142 22.87 12 22.87C11.5858 22.87 11.25 22.5342 11.25 22.12V19.87H8.75V22.12C8.75 22.5342 8.41421 22.87 8 22.87C7.58579 22.87 7.25 22.5342 7.25 22.12V19.87H5C4.58579 19.87 4.25 19.5342 4.25 19.12V16.37H2C1.58579 16.37 1.25 16.0342 1.25 15.62C1.25 15.2058 1.58579 14.87 2 14.87H4.25V12.37H2C1.58579 12.37 1.25 12.0342 1.25 11.62C1.25 11.2058 1.58579 10.87 2 10.87H4.25V8.37H2C1.58579 8.37 1.25 8.03421 1.25 7.62C1.25 7.20578 1.58579 6.87 2 6.87H4.25V5.12C4.25 4.70578 4.58579 4.37 5 4.37H7.25V2.12C7.25 1.70578 7.58579 1.37 8 1.37ZM18.25 15.62V11.62V7.62V5.87H16H12H8H5.75V7.62V11.62V15.62V18.37H8H12H15.25H16.75H18.25V15.62ZM9 8.37C8.58579 8.37 8.25 8.70578 8.25 9.12V15.12C8.25 15.5342 8.58579 15.87 9 15.87H15C15.4142 15.87 15.75 15.5342 15.75 15.12V9.12C15.75 8.70578 15.4142 8.37 15 8.37H9ZM9.75 14.37V9.87H14.25V14.37H9.75Z" fill="white"/>
</svg>
