<svg width="24" height="25" viewBox="0 0 24 25" fill="none" xmlns="http://www.w3.org/2000/svg">
<path fill-rule="evenodd" clip-rule="evenodd" d="M2.25 3.12003C2.25 2.70581 2.58579 2.37003 3 2.37003H17C17.1989 2.37003 17.3897 2.44904 17.5303 2.5897L21.5303 6.5897C21.671 6.73035 21.75 6.92111 21.75 7.12003V21.12C21.75 21.5342 21.4142 21.87 21 21.87H16H8H3C2.58579 21.87 2.25 21.5342 2.25 21.12V3.12003ZM8.75 20.37H15.25V13.87H8.75V20.37ZM16.75 20.37V13.12C16.75 12.7058 16.4142 12.37 16 12.37H8C7.58579 12.37 7.25 12.7058 7.25 13.12V20.37H3.75V3.87003H16.6893L20.25 7.43069V20.37H16.75ZM7.25 8.12003C7.25 7.70581 7.58579 7.37003 8 7.37003L16 7.37003C16.4142 7.37003 16.75 7.70581 16.75 8.12003C16.75 8.53424 16.4142 8.87003 16 8.87003L8 8.87003C7.58579 8.87003 7.25 8.53424 7.25 8.12003Z" fill="white"/>
</svg>
