<svg width="24" height="25" viewBox="0 0 24 25" fill="none" xmlns="http://www.w3.org/2000/svg">
<path fill-rule="evenodd" clip-rule="evenodd" d="M3 4.90002C2.58579 4.90002 2.25 5.23581 2.25 5.65003V16.9H1C0.585786 16.9 0.25 17.2358 0.25 17.65V20.65C0.25 21.0642 0.585786 21.4 1 21.4H15H19H23C23.4142 21.4 23.75 21.0642 23.75 20.65V8.65002C23.75 8.23581 23.4142 7.90002 23 7.90002H21.75V5.65003C21.75 5.23581 21.4142 4.90002 21 4.90002H3ZM19 19.9L15.75 19.9V17.65V9.40002H20.9988L21 9.40003L21.0012 9.40002H22.25V19.9L19 19.9ZM14.25 19.9V18.4H3H1.75V19.9H14.25ZM14.25 8.65002V16.9H3.75V6.40003H20.25V7.90002H15C14.5858 7.90002 14.25 8.23581 14.25 8.65002ZM19 12.65C19.5523 12.65 20 12.2023 20 11.65C20 11.0977 19.5523 10.65 19 10.65C18.4477 10.65 18 11.0977 18 11.65C18 12.2023 18.4477 12.65 19 12.65Z" fill="white"/>
</svg>
