<svg width="24" height="25" viewBox="0 0 24 25" fill="none" xmlns="http://www.w3.org/2000/svg">
<path fill-rule="evenodd" clip-rule="evenodd" d="M17.3657 3.71896C17.5872 3.36893 18.0505 3.26471 18.4005 3.48618L21.4005 5.38433C21.6178 5.5218 21.7495 5.761 21.7495 6.01812V14.5891C21.7501 14.7245 21.75 14.8688 21.75 15.0235V15.0247L21.75 15.12L21.75 15.2153V15.2165C21.75 15.3712 21.7501 15.5156 21.7495 15.651V15.9834C21.7495 16.0121 21.7479 16.0403 21.7448 16.0681C21.7364 16.457 21.7147 16.7656 21.6587 17.0467C21.2839 18.931 19.811 20.4039 17.9267 20.7787C17.4668 20.8702 16.9334 20.8702 16.0953 20.87H16.0953L16 20.87H8.00002L7.90475 20.87H7.90472C7.06666 20.8702 6.53325 20.8702 6.07334 20.7787C4.18906 20.4039 2.71609 18.931 2.34129 17.0467C2.28564 16.7669 2.26387 16.46 2.25538 16.0738C2.25183 16.0442 2.25 16.014 2.25 15.9835V15.3069V15.3043V14.9357V14.9331V6.01818C2.25 5.76106 2.38171 5.52186 2.59899 5.38439L5.59899 3.48624C5.94902 3.26477 6.41232 3.36899 6.63379 3.71902C6.85526 4.06905 6.75104 4.53235 6.40101 4.75382L3.75 6.43116V10.6559C4.38426 10.0608 5.18287 9.63841 6.07334 9.46129C6.53326 9.3698 7.06668 9.36988 7.90475 9.37001L8.00002 9.37002H16L16.0953 9.37001C16.9334 9.36988 17.4668 9.3698 17.9267 9.46129C18.8169 9.63836 19.6153 10.0606 20.2495 10.6554V6.4311L17.5985 4.75376C17.2485 4.53229 17.1442 4.06899 17.3657 3.71896ZM20.2495 14.6947C20.2474 14.0357 20.2368 13.7337 20.1876 13.486C19.9311 12.1967 18.9233 11.1889 17.6341 10.9325C17.3384 10.8737 16.9653 10.87 16 10.87H8.00002C7.03476 10.87 6.66166 10.8737 6.36597 10.9325C5.07673 11.1889 4.06891 12.1967 3.81247 13.486C3.75365 13.7817 3.75002 14.1548 3.75002 15.12C3.75002 16.0853 3.75365 16.4584 3.81247 16.7541C4.06891 18.0433 5.07673 19.0511 6.36597 19.3076C6.66166 19.3664 7.03476 19.37 8.00002 19.37H16C16.9653 19.37 17.3384 19.3664 17.6341 19.3076C18.9233 19.0511 19.9311 18.0433 20.1876 16.7541C20.2368 16.5064 20.2474 16.2043 20.2495 15.5454V14.6947ZM10 15.12C10 15.6723 9.5523 16.12 9.00002 16.12C8.44773 16.12 8.00002 15.6723 8.00002 15.12C8.00002 14.5677 8.44773 14.12 9.00002 14.12C9.5523 14.12 10 14.5677 10 15.12ZM15 16.12C15.5523 16.12 16 15.6723 16 15.12C16 14.5677 15.5523 14.12 15 14.12C14.4477 14.12 14 14.5677 14 15.12C14 15.6723 14.4477 16.12 15 16.12Z" fill="white"/>
</svg>
