<svg width="24" height="25" viewBox="0 0 24 25" fill="none" xmlns="http://www.w3.org/2000/svg">
<path fill-rule="evenodd" clip-rule="evenodd" d="M8.00002 2.37004C7.76395 2.37004 7.54166 2.48119 7.40002 2.67004L4.40002 6.67004C4.30265 6.79986 4.25002 6.95776 4.25002 7.12004V21.12C4.25002 21.5343 4.58581 21.87 5.00002 21.87H19C19.4142 21.87 19.75 21.5343 19.75 21.12V3.12004C19.75 2.70583 19.4142 2.37004 19 2.37004H8.00002ZM5.75002 7.37004L8.37502 3.87004H18.25V20.37H5.75002V7.37004ZM9.75 9.11993C9.75 8.70572 9.41421 8.36993 9 8.36993C8.58579 8.36993 8.25 8.70572 8.25 9.11993V11.1199C8.25 11.5341 8.58579 11.8699 9 11.8699C9.41421 11.8699 9.75 11.5341 9.75 11.1199V9.11993ZM15 6.36993C15.4142 6.36993 15.75 6.70572 15.75 7.11993V11.1199C15.75 11.5341 15.4142 11.8699 15 11.8699C14.5858 11.8699 14.25 11.5341 14.25 11.1199V7.11993C14.25 6.70572 14.5858 6.36993 15 6.36993ZM12.75 7.11993C12.75 6.70572 12.4142 6.36993 12 6.36993C11.5858 6.36993 11.25 6.70572 11.25 7.11993V11.1199C11.25 11.5341 11.5858 11.8699 12 11.8699C12.4142 11.8699 12.75 11.5341 12.75 11.1199V7.11993Z" fill="white"/>
</svg>
