<svg width="24" height="25" viewBox="0 0 24 25" fill="none" xmlns="http://www.w3.org/2000/svg">
<path fill-rule="evenodd" clip-rule="evenodd" d="M5.75 9.06C5.75 5.60822 8.54822 2.81 12 2.81C14.9382 2.81 17.4045 4.8382 18.0719 7.57188C18.1301 7.81034 18.3014 8.00523 18.5304 8.09365C20.1226 8.70848 21.25 10.2535 21.25 12.06C21.25 13.45 20.5835 14.684 19.5496 15.4607C19.2184 15.7095 19.1516 16.1796 19.4003 16.5108C19.6491 16.842 20.1192 16.9088 20.4504 16.66C21.8454 15.6123 22.75 13.9417 22.75 12.06C22.75 9.75141 21.3898 7.76217 19.4293 6.84705C18.4768 3.64538 15.512 1.31 12 1.31C7.8612 1.31 4.48014 4.55432 4.26126 8.63854C2.49832 9.33243 1.25 11.0497 1.25 13.06C1.25 14.8191 2.20663 16.3539 3.62446 17.1741C3.983 17.3815 4.4418 17.259 4.6492 16.9004C4.85661 16.5419 4.73409 16.0831 4.37554 15.8757C3.40216 15.3126 2.75 14.262 2.75 13.06C2.75 11.5463 3.78548 10.2726 5.18784 9.91211C5.52413 9.82566 5.7571 9.51969 5.75099 9.17252C5.75033 9.1351 5.75 9.09759 5.75 9.06ZM16.0303 15.0297L12.5303 11.5297C12.2374 11.2368 11.7626 11.2368 11.4697 11.5297L7.96967 15.0297C7.67678 15.3226 7.67678 15.7974 7.96967 16.0903C8.26256 16.3832 8.73744 16.3832 9.03033 16.0903L11.25 13.8707V21.06C11.25 21.4742 11.5858 21.81 12 21.81C12.4142 21.81 12.75 21.4742 12.75 21.06V13.8707L14.9697 16.0903C15.2626 16.3832 15.7374 16.3832 16.0303 16.0903C16.3232 15.7974 16.3232 15.3226 16.0303 15.0297Z" fill="white"/>
</svg>
