<svg width="24" height="25" viewBox="0 0 24 25" fill="none" xmlns="http://www.w3.org/2000/svg">
<path fill-rule="evenodd" clip-rule="evenodd" d="M2 2.90002C1.58579 2.90002 1.25 3.23581 1.25 3.65002V17.65C1.25 18.0642 1.58579 18.4 2 18.4H11.25V20.9H9C8.58579 20.9 8.25 21.2358 8.25 21.65C8.25 22.0642 8.58579 22.4 9 22.4H12H15C15.4142 22.4 15.75 22.0642 15.75 21.65C15.75 21.2358 15.4142 20.9 15 20.9H12.75V18.4H22C22.4142 18.4 22.75 18.0642 22.75 17.65V3.65002C22.75 3.23581 22.4142 2.90002 22 2.90002H2ZM12 16.9H21.25V4.40002H2.75V16.9H12Z" fill="white"/>
</svg>
