<svg width="24" height="25" viewBox="0 0 24 25" fill="none" xmlns="http://www.w3.org/2000/svg">
<path fill-rule="evenodd" clip-rule="evenodd" d="M2 1.31C1.58579 1.31 1.25 1.64578 1.25 2.06V16.06C1.25 16.4742 1.58579 16.81 2 16.81H7.25V22.06C7.25 22.4742 7.58579 22.81 8 22.81H22C22.4142 22.81 22.75 22.4742 22.75 22.06V8.06C22.75 7.64578 22.4142 7.31 22 7.31H16.75V2.06C16.75 1.64578 16.4142 1.31 16 1.31H2ZM16.75 8.81V16.06C16.75 16.4742 16.4142 16.81 16 16.81H8.75V21.31H21.25V8.81H16.75ZM2.75 15.31V2.81H15.25V15.31H2.75Z" fill="white"/>
</svg>
