<svg width="24" height="25" viewBox="0 0 24 25" fill="none" xmlns="http://www.w3.org/2000/svg">
<path fill-rule="evenodd" clip-rule="evenodd" d="M12 3.13916C6.61522 3.13916 2.25 7.50438 2.25 12.8892C2.25 18.2739 6.61522 22.6392 12 22.6392C17.3848 22.6392 21.75 18.2739 21.75 12.8892C21.75 7.50438 17.3848 3.13916 12 3.13916ZM3.75 12.8892C3.75 8.33281 7.44365 4.63916 12 4.63916C16.5563 4.63916 20.25 8.33281 20.25 12.8892C20.25 17.4455 16.5563 21.1392 12 21.1392C7.44365 21.1392 3.75 17.4455 3.75 12.8892ZM11.8889 8.13916C9.30713 8.13916 7.25 10.2859 7.25 12.8892C7.25 15.4925 9.30713 17.6392 11.8889 17.6392C12.9378 17.6392 13.9055 17.2819 14.6808 16.683C15.0316 16.4119 15.3431 16.0914 15.6056 15.7319C15.85 15.3975 15.7769 14.9282 15.4424 14.6839C15.1079 14.4396 14.6387 14.5127 14.3944 14.8472C14.2145 15.0934 14.0018 15.312 13.7637 15.496C13.239 15.9013 12.5909 16.1392 11.8889 16.1392C10.1751 16.1392 8.75 14.7041 8.75 12.8892C8.75 11.0742 10.1751 9.63916 11.8889 9.63916C12.5909 9.63916 13.239 9.877 13.7637 10.2824C14.0018 10.4664 14.2145 10.6849 14.3944 10.9312C14.6387 11.2656 15.1079 11.3387 15.4424 11.0944C15.7769 10.8501 15.85 10.3809 15.6056 10.0464C15.3431 9.68692 15.0316 9.36642 14.6808 9.09536C13.9055 8.49643 12.9378 8.13916 11.8889 8.13916Z" fill="white"/>
</svg>
