<svg width="24" height="25" viewBox="0 0 24 25" fill="none" xmlns="http://www.w3.org/2000/svg">
<path fill-rule="evenodd" clip-rule="evenodd" d="M1.46943 2.11982C1.76232 1.82692 2.23719 1.82692 2.53009 2.11982L4.67356 4.26329L8.53009 8.11982L20.3866 19.9763L22.5301 22.1198C22.823 22.4127 22.823 22.8876 22.5301 23.1805C22.2372 23.4734 21.7623 23.4734 21.4694 23.1805L19.6047 21.3157C18.9974 21.4004 18.2516 21.4003 17.3099 21.4002C17.2735 21.4002 17.2368 21.4001 17.1998 21.4001H6.79976H6.76763C5.9548 21.4002 5.29919 21.4002 4.76829 21.3568C4.22165 21.3121 3.74151 21.2178 3.29729 20.9914C2.59168 20.6319 2.01801 20.0582 1.65848 19.3526C1.43214 18.9084 1.33778 18.4283 1.29312 17.8816C1.24974 17.3507 1.24975 16.6951 1.24976 15.8823L1.24976 15.8501V9.45015V9.44837C1.24976 9.1789 1.24976 8.9282 1.25114 8.69606C1.25022 8.68087 1.24976 8.66556 1.24976 8.65015C1.24976 8.63118 1.25046 8.61237 1.25184 8.59375C1.26047 7.48714 1.29972 6.65178 1.65848 5.94768C1.94041 5.39436 2.35404 4.92217 2.8597 4.57075L1.46943 3.18048C1.17653 2.88758 1.17653 2.41271 1.46943 2.11982ZM3.94934 5.66039C3.53923 5.87689 3.20577 6.21499 2.99499 6.62867C2.86138 6.8909 2.79527 7.23101 2.76741 7.90015H6.1891L3.94934 5.66039ZM7.6891 9.40015H2.74976C2.74976 9.41672 2.74976 9.43339 2.74976 9.45015V15.8501C2.74976 16.7026 2.75034 17.2968 2.78814 17.7595C2.82522 18.2133 2.89435 18.4741 2.99499 18.6716C3.21071 19.095 3.55491 19.4392 3.97828 19.6549C4.17579 19.7556 4.43656 19.8247 4.89044 19.8618C5.35307 19.8996 5.9473 19.9001 6.79976 19.9001H17.1998C17.5772 19.9001 17.9023 19.8997 18.1853 19.8964L7.6891 9.40015ZM19.1091 5.43853C18.6464 5.40073 18.0522 5.40015 17.1998 5.40015H9C8.58579 5.40015 8.25 5.06436 8.25 4.65015C8.25 4.23593 8.58579 3.90015 9 3.90015H17.1998L17.2319 3.90015C18.0447 3.90014 18.7003 3.90013 19.2312 3.94351C19.7779 3.98817 20.258 4.08253 20.7022 4.30887C21.4078 4.6684 21.9815 5.24207 22.341 5.94768C22.6998 6.65178 22.739 7.48715 22.7477 8.59376C22.7491 8.61238 22.7498 8.63118 22.7498 8.65015C22.7498 8.66556 22.7493 8.68087 22.7484 8.69605C22.7498 8.92815 22.7498 9.1788 22.7498 9.44822V9.45015V17.65C22.7498 18.0642 22.414 18.4 21.9998 18.4C21.5855 18.4 21.2498 18.0642 21.2498 17.65V9.45015C21.2498 9.43339 21.2498 9.41672 21.2498 9.40015H13C12.5858 9.40015 12.25 9.06436 12.25 8.65015C12.25 8.23593 12.5858 7.90015 13 7.90015H21.2321C21.2042 7.23101 21.1381 6.8909 21.0045 6.62867C20.7888 6.2053 20.4446 5.8611 20.0212 5.64538C19.8237 5.54474 19.563 5.47561 19.1091 5.43853Z" fill="white"/>
</svg>
