<svg width="24" height="25" viewBox="0 0 24 25" fill="none" xmlns="http://www.w3.org/2000/svg">
<path fill-rule="evenodd" clip-rule="evenodd" d="M3 4.90002C2.58579 4.90002 2.25 5.23581 2.25 5.65002V9.65002V19.65C2.25 20.0642 2.58579 20.4 3 20.4H12C12.4142 20.4 12.75 20.0642 12.75 19.65C12.75 19.2358 12.4142 18.9 12 18.9H3.75V10.4H20.25V13.65C20.25 14.0642 20.5858 14.4 21 14.4C21.4142 14.4 21.75 14.0642 21.75 13.65V9.65002V5.65002C21.75 5.23581 21.4142 4.90002 21 4.90002H3ZM20.25 8.90002H3.75V6.40002H20.25V8.90002ZM20.5303 17.1197C20.2374 16.8268 19.7626 16.8268 19.4697 17.1197C19.1768 17.4126 19.1768 17.8875 19.4697 18.1804L20.1893 18.9H16C15.5858 18.9 15.25 19.2358 15.25 19.65C15.25 20.0642 15.5858 20.4 16 20.4H20.1893L19.4697 21.1197C19.1768 21.4126 19.1768 21.8875 19.4697 22.1804C19.7626 22.4732 20.2374 22.4732 20.5303 22.1804L22.5303 20.1804C22.8232 19.8875 22.8232 19.4126 22.5303 19.1197L20.5303 17.1197ZM7 12.9C6.58579 12.9 6.25 13.2358 6.25 13.65C6.25 14.0642 6.58579 14.4 7 14.4H10C10.4142 14.4 10.75 14.0642 10.75 13.65C10.75 13.2358 10.4142 12.9 10 12.9H7Z" fill="white"/>
</svg>
