<svg width="24" height="25" viewBox="0 0 24 25" fill="none" xmlns="http://www.w3.org/2000/svg">
<path fill-rule="evenodd" clip-rule="evenodd" d="M1.25 4.65002C1.25 4.23581 1.58579 3.90002 2 3.90002H22C22.4142 3.90002 22.75 4.23581 22.75 4.65002V8.65002V20.65C22.75 21.0642 22.4142 21.4 22 21.4H2C1.58579 21.4 1.25 21.0642 1.25 20.65V8.65002V4.65002ZM21.25 5.40002V7.90002H2.75V5.40002H21.25ZM21.25 9.40002H2.75V19.9H21.25V9.40002ZM6 11.9C5.58579 11.9 5.25 12.2358 5.25 12.65C5.25 13.0642 5.58579 13.4 6 13.4H10C10.4142 13.4 10.75 13.0642 10.75 12.65C10.75 12.2358 10.4142 11.9 10 11.9H6Z" fill="white"/>
</svg>
