<svg width="24" height="25" viewBox="0 0 24 25" fill="none" xmlns="http://www.w3.org/2000/svg">
<path fill-rule="evenodd" clip-rule="evenodd" d="M2 4.90002C1.58579 4.90002 1.25 5.23581 1.25 5.65002V9.65002V19.65C1.25 20.0642 1.58579 20.4 2 20.4H14C14.4142 20.4 14.75 20.0642 14.75 19.65C14.75 19.2358 14.4142 18.9 14 18.9H2.75V10.4H19.25V15.65C19.25 16.0642 19.5858 16.4 20 16.4C20.4142 16.4 20.75 16.0642 20.75 15.65V9.65002V5.65002C20.75 5.23581 20.4142 4.90002 20 4.90002H2ZM19.25 8.90002H2.75V6.40002H19.25V8.90002ZM17.5 18.9C17.0858 18.9 16.75 19.2358 16.75 19.65C16.75 20.0642 17.0858 20.4 17.5 20.4H22.5C22.9142 20.4 23.25 20.0642 23.25 19.65C23.25 19.2358 22.9142 18.9 22.5 18.9H17.5ZM6 12.9C5.58579 12.9 5.25 13.2358 5.25 13.65C5.25 14.0642 5.58579 14.4 6 14.4H9C9.41421 14.4 9.75 14.0642 9.75 13.65C9.75 13.2358 9.41421 12.9 9 12.9H6Z" fill="white"/>
</svg>
