<svg width="24" height="25" viewBox="0 0 24 25" fill="none" xmlns="http://www.w3.org/2000/svg">
<path fill-rule="evenodd" clip-rule="evenodd" d="M3 4.90002C2.58579 4.90002 2.25 5.23581 2.25 5.65002V14.15C2.25 14.5642 2.58579 14.9 3 14.9C3.41421 14.9 3.75 14.5642 3.75 14.15V10.4H20.25V18.9H12C11.5858 18.9 11.25 19.2358 11.25 19.65C11.25 20.0642 11.5858 20.4 12 20.4H21C21.4142 20.4 21.75 20.0642 21.75 19.65V9.65002V5.65002C21.75 5.23581 21.4142 4.90002 21 4.90002H3ZM20.25 8.90002H3.75V6.40002H20.25V8.90002ZM6.53033 17.1197C6.23744 16.8268 5.76256 16.8268 5.46967 17.1197C5.17678 17.4126 5.17678 17.8875 5.46967 18.1804L6.18934 18.9H2C1.58579 18.9 1.25 19.2358 1.25 19.65C1.25 20.0642 1.58579 20.4 2 20.4H6.18934L5.46967 21.1197C5.17678 21.4126 5.17678 21.8875 5.46967 22.1804C5.76256 22.4732 6.23744 22.4732 6.53033 22.1804L8.53033 20.1804C8.82322 19.8875 8.82322 19.4126 8.53033 19.1197L6.53033 17.1197ZM7 12.9C6.58579 12.9 6.25 13.2358 6.25 13.65C6.25 14.0642 6.58579 14.4 7 14.4H10C10.4142 14.4 10.75 14.0642 10.75 13.65C10.75 13.2358 10.4142 12.9 10 12.9H7Z" fill="white"/>
</svg>
