<svg width="24" height="25" viewBox="0 0 24 25" fill="none" xmlns="http://www.w3.org/2000/svg">
<path fill-rule="evenodd" clip-rule="evenodd" d="M2 2.90002C1.58579 2.90002 1.25 3.23581 1.25 3.65002V8.65002C1.25 9.06424 1.58579 9.40002 2 9.40002C2.41421 9.40002 2.75 9.06424 2.75 8.65002V4.40002H7C7.41421 4.40002 7.75 4.06424 7.75 3.65002C7.75 3.23581 7.41421 2.90002 7 2.90002H2ZM17 2.90002C16.5858 2.90002 16.25 3.23581 16.25 3.65002C16.25 4.06424 16.5858 4.40002 17 4.40002H21.25V8.65002C21.25 9.06424 21.5858 9.40002 22 9.40002C22.4142 9.40002 22.75 9.06424 22.75 8.65002V3.65002C22.75 3.23581 22.4142 2.90002 22 2.90002H17ZM2.75 16.65C2.75 16.2358 2.41421 15.9 2 15.9C1.58579 15.9 1.25 16.2358 1.25 16.65V21.65C1.25 22.0642 1.58579 22.4 2 22.4H7C7.41421 22.4 7.75 22.0642 7.75 21.65C7.75 21.2358 7.41421 20.9 7 20.9H2.75V16.65ZM22.75 16.65C22.75 16.2358 22.4142 15.9 22 15.9C21.5858 15.9 21.25 16.2358 21.25 16.65V20.9H17C16.5858 20.9 16.25 21.2358 16.25 21.65C16.25 22.0642 16.5858 22.4 17 22.4H22C22.4142 22.4 22.75 22.0642 22.75 21.65V16.65ZM5.25 7.65002C5.25 7.23581 5.58579 6.90002 6 6.90002H18C18.4142 6.90002 18.75 7.23581 18.75 7.65002V11.65V17.65C18.75 18.0642 18.4142 18.4 18 18.4H6C5.58579 18.4 5.25 18.0642 5.25 17.65V11.65V7.65002ZM17.25 8.40002V10.9H6.75V8.40002H17.25ZM17.25 12.4H6.75V16.9H17.25V12.4Z" fill="white"/>
</svg>
