<svg width="24" height="25" viewBox="0 0 24 25" fill="none" xmlns="http://www.w3.org/2000/svg">
<path fill-rule="evenodd" clip-rule="evenodd" d="M11.3474 1.75059C11.4805 1.51546 11.7298 1.37012 12 1.37012C17.9371 1.37012 22.75 6.18306 22.75 12.1201C22.75 12.5343 22.4142 12.8701 22 12.8701C21.5858 12.8701 21.25 12.5343 21.25 12.1201C21.25 7.48274 17.8374 3.6424 13.3866 2.97335L14.1431 4.23425C14.3562 4.58943 14.2411 5.05013 13.8859 5.26324C13.5307 5.47635 13.07 5.36117 12.8569 5.00599L11.3569 2.50599C11.2179 2.27429 11.2142 1.98572 11.3474 1.75059ZM2 11.3701C2.41421 11.3701 2.75 11.7059 2.75 12.1201C2.75 16.7575 6.16255 20.5978 10.6134 21.2669L9.85688 20.006C9.64377 19.6508 9.75894 19.1901 10.1141 18.977C10.4693 18.7639 10.93 18.8791 11.1431 19.2342L12.6431 21.7342C12.7821 21.9659 12.7858 22.2545 12.6526 22.4896C12.5195 22.7248 12.2702 22.8701 12 22.8701C6.06294 22.8701 1.25 18.0572 1.25 12.1201C1.25 11.7059 1.58579 11.3701 2 11.3701ZM8 5.37012C8.41421 5.37012 8.75 5.7059 8.75 6.12012V8.12012V15.3701H16H18C18.4142 15.3701 18.75 15.7059 18.75 16.1201C18.75 16.5343 18.4142 16.8701 18 16.8701H16.75V18.1201C16.75 18.5343 16.4142 18.8701 16 18.8701C15.5858 18.8701 15.25 18.5343 15.25 18.1201V16.8701H8C7.58579 16.8701 7.25 16.5343 7.25 16.1201V8.87012H6C5.58579 8.87012 5.25 8.53433 5.25 8.12012C5.25 7.7059 5.58579 7.37012 6 7.37012H7.25V6.12012C7.25 5.7059 7.58579 5.37012 8 5.37012ZM10.5 7.37012C10.0858 7.37012 9.75 7.7059 9.75 8.12012C9.75 8.53433 10.0858 8.87012 10.5 8.87012H15.25V13.6201C15.25 14.0343 15.5858 14.3701 16 14.3701C16.4142 14.3701 16.75 14.0343 16.75 13.6201V8.12012C16.75 7.7059 16.4142 7.37012 16 7.37012H10.5Z" fill="white"/>
</svg>
