<svg width="24" height="25" viewBox="0 0 24 25" fill="none" xmlns="http://www.w3.org/2000/svg">
<path fill-rule="evenodd" clip-rule="evenodd" d="M5.75 2.12012C5.75 1.7059 5.41421 1.37012 5 1.37012C4.58579 1.37012 4.25 1.7059 4.25 2.12012V4.37012H2C1.58579 4.37012 1.25 4.7059 1.25 5.12012C1.25 5.53433 1.58579 5.87012 2 5.87012H4.25V19.1201C4.25 19.5343 4.58579 19.8701 5 19.8701H18.25V22.1201C18.25 22.5343 18.5858 22.8701 19 22.8701C19.4142 22.8701 19.75 22.5343 19.75 22.1201V19.8701H22C22.4142 19.8701 22.75 19.5343 22.75 19.1201C22.75 18.7059 22.4142 18.3701 22 18.3701H19H5.75V5.12012V2.12012ZM8 4.37012C7.58579 4.37012 7.25 4.7059 7.25 5.12012C7.25 5.53433 7.58579 5.87012 8 5.87012H18.25V16.1201C18.25 16.5343 18.5858 16.8701 19 16.8701C19.4142 16.8701 19.75 16.5343 19.75 16.1201V5.12012C19.75 4.7059 19.4142 4.37012 19 4.37012H8Z" fill="white"/>
</svg>
