<svg width="24" height="25" viewBox="0 0 24 25" fill="none" xmlns="http://www.w3.org/2000/svg">
<path fill-rule="evenodd" clip-rule="evenodd" d="M5.46967 5.52967C5.76256 5.23677 6.23744 5.23677 6.53033 5.52967L12 10.9993L17.4697 5.52967C17.7626 5.23677 18.2374 5.23677 18.5303 5.52967C18.8232 5.82256 18.8232 6.29743 18.5303 6.59033L13.0607 12.06L18.5303 17.5297C18.8232 17.8226 18.8232 18.2974 18.5303 18.5903C18.2374 18.8832 17.7626 18.8832 17.4697 18.5903L12 13.1207L6.53033 18.5903C6.23744 18.8832 5.76256 18.8832 5.46967 18.5903C5.17678 18.2974 5.17678 17.8226 5.46967 17.5297L10.9393 12.06L5.46967 6.59033C5.17678 6.29743 5.17678 5.82256 5.46967 5.52967Z" fill="white"/>
</svg>
