<svg width="24" height="25" viewBox="0 0 24 25" fill="none" xmlns="http://www.w3.org/2000/svg">
<path fill-rule="evenodd" clip-rule="evenodd" d="M12.5303 2.05964C12.2374 1.76674 11.7626 1.76674 11.4697 2.05964L6.4702 7.05911L6.46967 7.05964L4.46967 9.05964L1.46967 12.0596C1.17678 12.3525 1.17678 12.8274 1.46967 13.1203C1.76256 13.4132 2.23744 13.4132 2.53033 13.1203L4.25 11.4006V21.59C4.25 22.0042 4.58579 22.34 5 22.34H19C19.4142 22.34 19.75 22.0042 19.75 21.59V11.4006L21.4697 13.1203C21.7626 13.4132 22.2374 13.4132 22.5303 13.1203C22.8232 12.8274 22.8232 12.3525 22.5303 12.0596L19.5303 9.05964L17.5303 7.05964L17.5302 7.0595L12.5303 2.05964ZM16.4693 8.11994L12 3.65063L7.53047 8.12016L7.53033 8.1203L5.75 9.90063V20.84H18.25V9.90063L16.4697 8.1203L16.4693 8.11994ZM8.25 9.58997C8.25 9.17575 8.58579 8.83997 9 8.83997H11.25V7.58997C11.25 7.17575 11.5858 6.83997 12 6.83997C12.4142 6.83997 12.75 7.17575 12.75 7.58997V8.83997H15C15.4142 8.83997 15.75 9.17575 15.75 9.58997C15.75 10.0042 15.4142 10.34 15 10.34H12.75V12.84H15C15.4142 12.84 15.75 13.1758 15.75 13.59V17.59C15.75 18.0042 15.4142 18.34 15 18.34H12.75V19.59C12.75 20.0042 12.4142 20.34 12 20.34C11.5858 20.34 11.25 20.0042 11.25 19.59V18.34H9C8.58579 18.34 8.25 18.0042 8.25 17.59C8.25 17.1758 8.58579 16.84 9 16.84H11.25V14.34H9C8.58579 14.34 8.25 14.0042 8.25 13.59V9.58997ZM11.25 12.84V10.34H9.75V12.84H11.25ZM12.75 14.34V16.84H14.25V14.34H12.75Z" fill="white"/>
</svg>
