<svg width="24" height="25" viewBox="0 0 24 25" fill="none" xmlns="http://www.w3.org/2000/svg">
<path fill-rule="evenodd" clip-rule="evenodd" d="M11 4.33997C6.99594 4.33997 3.75 7.5859 3.75 11.59C3.75 15.594 6.99594 18.84 11 18.84C15.0041 18.84 18.25 15.594 18.25 11.59C18.25 7.5859 15.0041 4.33997 11 4.33997ZM2.25 11.59C2.25 6.75747 6.16751 2.83997 11 2.83997C15.8325 2.83997 19.75 6.75747 19.75 11.59C19.75 13.7362 18.9773 15.7019 17.6949 17.2242L20.5303 20.0596C20.8232 20.3525 20.8232 20.8274 20.5303 21.1203C20.2374 21.4132 19.7626 21.4132 19.4697 21.1203L16.6342 18.2848C15.112 19.5673 13.1462 20.34 11 20.34C6.16751 20.34 2.25 16.4225 2.25 11.59ZM11.3722 5.76493C11.1377 5.63207 10.8508 5.63222 10.6165 5.76531L6.17651 8.28751C5.93701 8.42356 5.78905 8.67778 5.78905 8.95323V14.1331C5.78905 14.4042 5.93243 14.6551 6.16602 14.7927L10.606 17.4087C10.8456 17.5499 11.1429 17.5501 11.3826 17.4091L15.8329 14.7931C16.0669 14.6556 16.2105 14.4045 16.2105 14.1331V8.95323C16.2105 8.67751 16.0623 8.42308 15.8224 8.28713L11.3722 5.76493ZM8.09519 8.95868L10.9951 7.31134L13.9017 8.95868L10.9951 10.6332L8.09519 8.95868ZM11.7603 11.9596L14.6793 10.2779V13.695L11.7603 15.4109V11.9596ZM10.229 11.9591V15.4093L7.32033 13.6955V10.2795L10.229 11.9591Z" fill="white"/>
</svg>
