<svg width="24" height="25" viewBox="0 0 24 25" fill="none" xmlns="http://www.w3.org/2000/svg">
<g clip-path="url(#clip0_11_1590)">
<path fill-rule="evenodd" clip-rule="evenodd" d="M12 2.34003C10.2051 2.34003 8.75 3.7951 8.75 5.59003C8.75 7.38495 10.2051 8.84003 12 8.84003C13.7949 8.84003 15.25 7.38495 15.25 5.59003C15.25 5.46738 15.2432 5.3466 15.2301 5.22799C15.1846 4.81628 15.4815 4.44564 15.8932 4.40012C16.3049 4.35461 16.6755 4.65147 16.721 5.06318C16.7402 5.23641 16.75 5.41222 16.75 5.59003C16.75 7.95818 15.017 9.92156 12.75 10.2812V10.4066L12.7734 10.4505C12.843 10.5804 12.946 10.7677 13.0775 10.9932C13.3416 11.4458 13.7163 12.0449 14.1625 12.6398C14.612 13.2392 15.1155 13.8093 15.6326 14.2229C16.1071 14.6026 16.5278 14.7984 16.8834 14.8339C16.9373 14.7691 16.9946 14.7061 17.0555 14.6453C18.1294 13.5714 19.8706 13.5714 20.9445 14.6453C22.0185 15.7192 22.0185 17.4604 20.9445 18.5344C19.8706 19.6083 18.1294 19.6083 17.0555 18.5344C16.4298 17.9087 16.1686 17.0565 16.272 16.2418C15.6881 16.086 15.155 15.7618 14.6955 15.3942C14.0407 14.8704 13.4505 14.1905 12.9625 13.5398C12.8898 13.4429 12.8189 13.346 12.75 13.2497V15.9436C13.1875 16.0672 13.6004 16.3011 13.9447 16.6454C15.0187 17.7194 15.0187 19.4606 13.9447 20.5345C12.8708 21.6084 11.1296 21.6084 10.0556 20.5345C8.98168 19.4606 8.98168 17.7194 10.0556 16.6454C10.3998 16.3012 10.8126 16.0673 11.25 15.9437V13.2497C11.1811 13.346 11.1102 13.4429 11.0375 13.5398C10.5495 14.1905 9.95927 14.8704 9.30446 15.3942C8.82319 15.7793 8.26121 16.1166 7.64466 16.2628C7.74094 17.0711 7.47892 17.9141 6.85861 18.5344C5.78466 19.6083 4.04346 19.6083 2.96952 18.5344C1.89558 17.4604 1.89558 15.7192 2.96952 14.6453C4.04346 13.5714 5.78466 13.5714 6.85861 14.6453C6.9211 14.7078 6.97995 14.7725 7.03517 14.8393C7.40737 14.8276 7.85613 14.632 8.36742 14.2229C8.88448 13.8093 9.38801 13.2392 9.8375 12.6398C10.2837 12.0449 10.6584 11.4458 10.9225 10.9932C11.054 10.7677 11.157 10.5804 11.2266 10.4505L11.25 10.4066V10.2812C8.98301 9.92156 7.25 7.95818 7.25 5.59003C7.25 2.96667 9.37665 0.840027 12 0.840027C12.757 0.840027 13.4746 1.01765 14.1116 1.33418C14.4825 1.51852 14.6338 1.96865 14.4494 2.33959C14.2651 2.71052 13.8149 2.86179 13.444 2.67745C13.0099 2.4617 12.5202 2.34003 12 2.34003ZM11.1163 17.7061C11.3583 17.4641 11.6749 17.342 11.9921 17.34L12 17.34L12.008 17.34C12.3253 17.342 12.642 17.464 12.8841 17.7061C13.3722 18.1942 13.3722 18.9857 12.8841 19.4738C12.3959 19.962 11.6044 19.962 11.1163 19.4738C10.6281 18.9857 10.6281 18.1942 11.1163 17.7061ZM4.03018 15.706C4.51833 15.2178 5.30979 15.2178 5.79795 15.706C6.2861 16.1941 6.2861 16.9856 5.79795 17.4737C5.30979 17.9619 4.51833 17.9619 4.03018 17.4737C3.54202 16.9856 3.54202 16.1941 4.03018 15.706ZM18.1161 15.706C18.6043 15.2178 19.3957 15.2178 19.8839 15.706C20.372 16.1941 20.372 16.9856 19.8839 17.4737C19.3957 17.9619 18.6043 17.9619 18.1161 17.4737C17.628 16.9856 17.628 16.1941 18.1161 15.706ZM16.5472 3.10298C16.8305 2.8008 16.8151 2.32617 16.513 2.04287C16.2108 1.75958 15.7361 1.77489 15.4528 2.07707L12.25 5.49344L11.5472 4.74374C11.2639 4.44155 10.7892 4.42624 10.487 4.70954C10.1849 4.99284 10.1695 5.46747 10.4528 5.76965L11.7028 7.10298C11.8446 7.25422 12.0427 7.34003 12.25 7.34003C12.4573 7.34003 12.6554 7.25422 12.7972 7.10298L16.5472 3.10298Z" fill="white"/>
</g>
<defs>
<clipPath id="clip0_11_1590">
<rect width="24" height="24" fill="white" transform="translate(0 0.589966)"/>
</clipPath>
</defs>
</svg>
