<svg width="24" height="25" viewBox="0 0 24 25" fill="none" xmlns="http://www.w3.org/2000/svg">
<path fill-rule="evenodd" clip-rule="evenodd" d="M11.4696 3.05951C11.5616 2.96749 11.6716 2.90438 11.7883 2.87018C11.819 2.86117 11.8505 2.85408 11.8826 2.84902M12.7499 5.4005V8.40662L12.7734 8.45052C12.8429 8.58035 12.9459 8.76766 13.0775 8.99319C13.3415 9.44582 13.7162 10.0449 14.1624 10.6398C14.6119 11.2392 15.1155 11.8093 15.6325 12.2229C16.1071 12.6026 16.5278 12.7984 16.8834 12.8339C16.9373 12.7691 16.9947 12.7062 17.0555 12.6454C18.1294 11.5715 19.8706 11.5715 20.9445 12.6454C22.0185 13.7194 22.0185 15.4606 20.9445 16.5345C19.8706 17.6084 18.1294 17.6084 17.0555 16.5345C16.4297 15.9088 16.1686 15.0566 16.272 14.2418C15.6881 14.086 15.155 13.7619 14.6955 13.3942C14.0407 12.8704 13.4505 12.1905 12.9624 11.5398C12.8897 11.4429 12.8188 11.346 12.7499 11.2497V15.9436C13.1874 16.0672 13.6003 16.3011 13.9447 16.6454C15.0186 17.7194 15.0186 19.4606 13.9447 20.5345C12.8707 21.6084 11.1295 21.6084 10.0556 20.5345C8.98163 19.4606 8.98163 17.7194 10.0556 16.6454C10.3998 16.3012 10.8126 16.0673 11.2499 15.9437V11.2497C11.1811 11.346 11.1102 11.4429 11.0374 11.5398C10.5494 12.1905 9.95921 12.8704 9.3044 13.3942C8.82314 13.7793 8.26118 14.1166 7.64464 14.2628C7.74097 15.0712 7.47895 15.9142 6.85861 16.5345C5.78466 17.6084 4.04346 17.6084 2.96952 16.5345C1.89558 15.4606 1.89558 13.7194 2.96952 12.6454C4.04346 11.5715 5.78466 11.5715 6.85861 12.6454C6.92106 12.7079 6.97989 12.7726 7.03508 12.8393C7.40728 12.8277 7.85606 12.632 8.36736 12.2229C8.88443 11.8093 9.38795 11.2392 9.83744 10.6398C10.2837 10.0449 10.6584 9.44582 10.9224 8.99319C11.054 8.76766 11.157 8.58035 11.2265 8.45052L11.2499 8.40662V5.4005L9.53027 7.12017C9.23738 7.41307 8.76251 7.41307 8.46961 7.12017C8.17672 6.82728 8.17672 6.35241 8.46961 6.05951L11.4696 3.05951M12.7499 5.4005L14.4696 7.12017C14.7625 7.41307 15.2374 7.41307 15.5303 7.12017C15.8232 6.82728 15.8232 6.35241 15.5303 6.05951L12.531 3.06023C12.5308 3.05999 12.5305 3.05975 12.5303 3.05951C12.438 2.96724 12.3277 2.90403 12.2106 2.8699C12.1804 2.86106 12.1494 2.85408 12.1177 2.84909C12.0399 2.83679 11.9606 2.83676 11.8828 2.849M4.03018 13.7061C4.51833 13.2179 5.30979 13.2179 5.79795 13.7061C6.2861 14.1942 6.2861 14.9857 5.79795 15.4738C5.30979 15.962 4.51833 15.962 4.03018 15.4738C3.54202 14.9857 3.54202 14.1942 4.03018 13.7061ZM18.1161 13.7061C18.6043 13.2179 19.3957 13.2179 19.8839 13.7061C20.372 14.1942 20.372 14.9857 19.8839 15.4738C19.3957 15.962 18.6043 15.962 18.1161 15.4738C17.628 14.9857 17.628 14.1942 18.1161 13.7061ZM11.1162 17.7061C10.6281 18.1942 10.6281 18.9857 11.1162 19.4738C11.6044 19.962 12.3958 19.962 12.884 19.4738C13.3722 18.9857 13.3722 18.1942 12.884 17.7061C12.3958 17.2179 11.6044 17.2179 11.1162 17.7061Z" fill="white"/>
</svg>
