<svg width="24" height="25" viewBox="0 0 24 25" fill="none" xmlns="http://www.w3.org/2000/svg">
<path fill-rule="evenodd" clip-rule="evenodd" d="M9.25 3.58997C9.25 3.17575 9.58579 2.83997 10 2.83997H14C14.4142 2.83997 14.75 3.17575 14.75 3.58997V7.58997C14.75 8.00418 14.4142 8.33997 14 8.33997H13.4405L19.3905 16.84H21C21.4142 16.84 21.75 17.1758 21.75 17.59V21.59C21.75 22.0042 21.4142 22.34 21 22.34H17C16.5858 22.34 16.25 22.0042 16.25 21.59V20.34H7.75V21.59C7.75 22.0042 7.41421 22.34 7 22.34H3C2.58579 22.34 2.25 22.0042 2.25 21.59V17.59C2.25 17.1758 2.58579 16.84 3 16.84H4.60951L10.5595 8.33997H10C9.58579 8.33997 9.25 8.00418 9.25 7.58997V3.58997ZM18.9908 18.34C18.9974 18.3401 19.0039 18.3401 19.0105 18.34H20.25V20.84H17.75V19.59V18.34H18.9908ZM17.5595 16.84L12 8.89781L6.44049 16.84H7C7.41421 16.84 7.75 17.1758 7.75 17.59V18.84H16.25V17.59C16.25 17.1758 16.5858 16.84 17 16.84H17.5595ZM12.0092 6.83997C12.0026 6.83988 11.9961 6.83988 11.9895 6.83997H10.75V4.33997H13.25V6.83997H12.0105H12.0092ZM6.25 18.34V19.59V20.84H3.75V18.34H4.98949H5.0092H6.25Z" fill="white"/>
</svg>
