<svg width="24" height="25" viewBox="0 0 24 25" fill="none" xmlns="http://www.w3.org/2000/svg">
<path fill-rule="evenodd" clip-rule="evenodd" d="M7.75 4.33997C5.95507 4.33997 4.5 5.79504 4.5 7.58997C4.5 9.38489 5.95507 10.84 7.75 10.84C9.54493 10.84 11 9.38489 11 7.58997C11 5.79504 9.54493 4.33997 7.75 4.33997ZM3 7.58997C3 4.96661 5.12665 2.83997 7.75 2.83997C10.3734 2.83997 12.5 4.96661 12.5 7.58997C12.5 10.2133 10.3734 12.34 7.75 12.34C5.12665 12.34 3 10.2133 3 7.58997ZM4.75 16.34C2.95507 16.34 1.5 17.795 1.5 19.59C1.5 20.2803 2.05964 20.84 2.75 20.84H12.75C13.4404 20.84 14 20.2803 14 19.59C14 17.795 12.5449 16.34 10.75 16.34H4.75ZM0 19.59C0 16.9666 2.12665 14.84 4.75 14.84H10.75C13.3734 14.84 15.5 16.9666 15.5 19.59C15.5 21.1087 14.2688 22.34 12.75 22.34H2.75C1.23122 22.34 0 21.1087 0 19.59ZM22.5001 7.59009C22.5001 7.39118 22.4211 7.20041 22.2805 7.05976C22.1398 6.91911 21.949 6.84009 21.7501 6.84009L17.5609 6.84008L19.109 5.29198C19.4019 4.99908 19.4019 4.52421 19.109 4.23132C18.8161 3.93842 18.3412 3.93842 18.0484 4.23132L15.2199 7.05974C14.927 7.35263 14.927 7.82751 15.2199 8.1204L18.0484 10.9488C18.3412 11.2417 18.8161 11.2417 19.109 10.9488C19.4019 10.6559 19.4019 10.1811 19.109 9.88817L17.5609 8.34008L21.0001 8.34008L21 18.34L17.75 18.34C17.3358 18.34 17 18.6758 17 19.09C17 19.5042 17.3358 19.84 17.75 19.84H21.75C22.1642 19.84 22.5 19.5042 22.5 19.09L22.5001 7.59009Z" fill="white"/>
</svg>
