<svg width="24" height="25" viewBox="0 0 24 25" fill="none" xmlns="http://www.w3.org/2000/svg">
<mask id="mask0_11_1605" style="mask-type:alpha" maskUnits="userSpaceOnUse" x="1" y="1" width="22" height="23">
<path fill-rule="evenodd" clip-rule="evenodd" d="M23 1.58997H1V23.59H23V1.58997ZM22 6.08997C22 7.47068 20.8807 8.58997 19.5 8.58997C18.1193 8.58997 17 7.47068 17 6.08997C17 4.70925 18.1193 3.58997 19.5 3.58997C20.8807 3.58997 22 4.70925 22 6.08997ZM7 19.09C7 20.4707 5.88071 21.59 4.5 21.59C3.11929 21.59 2 20.4707 2 19.09C2 17.7093 3.11929 16.59 4.5 16.59C5.88071 16.59 7 17.7093 7 19.09Z" fill="#C4C4C4"/>
</mask>
<g mask="url(#mask0_11_1605)">
<circle cx="12" cy="12.59" r="9.75" stroke="white" stroke-width="1.5"/>
</g>
<path fill-rule="evenodd" clip-rule="evenodd" d="M20.5 6.08997C20.5 6.64225 20.0523 7.08997 19.5 7.08997C18.9477 7.08997 18.5 6.64225 18.5 6.08997C18.5 5.53768 18.9477 5.08997 19.5 5.08997C20.0523 5.08997 20.5 5.53768 20.5 6.08997ZM22 6.08997C22 7.47068 20.8807 8.58997 19.5 8.58997C18.1193 8.58997 17 7.47068 17 6.08997C17 4.70925 18.1193 3.58997 19.5 3.58997C20.8807 3.58997 22 4.70925 22 6.08997ZM5.5 19.09C5.5 19.6423 5.05228 20.09 4.5 20.09C3.94772 20.09 3.5 19.6423 3.5 19.09C3.5 18.5377 3.94772 18.09 4.5 18.09C5.05228 18.09 5.5 18.5377 5.5 19.09ZM7 19.09C7 20.4707 5.88071 21.59 4.5 21.59C3.11929 21.59 2 20.4707 2 19.09C2 17.7093 3.11929 16.59 4.5 16.59C5.88071 16.59 7 17.7093 7 19.09Z" fill="white"/>
<path d="M14 14.59V12.2566M16 10.59H14V12.2566M14 12.2566H15.6667" stroke="white" stroke-linecap="round" stroke-linejoin="round"/>
<path d="M18 10.5899V14.59" stroke="white" stroke-linecap="round" stroke-linejoin="round"/>
<path d="M12 10.59H10V12.59M10 12.59V14.59L12 14.59M10 12.59H11.5" stroke="white" stroke-linecap="round" stroke-linejoin="round"/>
<path d="M6 14.59C6 14.09 6 11.59 6 10.59M6 14.59C7.5 14.59 8 13.6945 8 12.59C8 11.4854 7.5 10.59 6 10.59M6 14.59V10.59" stroke="white" stroke-linecap="round" stroke-linejoin="round"/>
</svg>
