<svg width="24" height="25" viewBox="0 0 24 25" fill="none" xmlns="http://www.w3.org/2000/svg">
<path fill-rule="evenodd" clip-rule="evenodd" d="M1.75 3.58997C1.75 3.17575 2.08579 2.83997 2.5 2.83997H9.5C9.91421 2.83997 10.25 3.17575 10.25 3.58997V8.58997C10.25 9.00418 9.91421 9.33997 9.5 9.33997H2.5C2.08579 9.33997 1.75 9.00418 1.75 8.58997V3.58997ZM3.25 4.33997V7.83997H8.75V4.33997H3.25ZM1.75 10.59C1.75 10.1758 2.08579 9.83997 2.5 9.83997H9.5C9.91421 9.83997 10.25 10.1758 10.25 10.59C10.25 11.0042 9.91421 11.34 9.5 11.34H2.5C2.08579 11.34 1.75 11.0042 1.75 10.59ZM11.5 2.83997C11.0858 2.83997 10.75 3.17575 10.75 3.58997V10.59C10.75 11.0042 11.0858 11.34 11.5 11.34H14.5C14.9142 11.34 15.25 11.0042 15.25 10.59V7.94006H16C17.4501 7.94006 18.0089 7.9482 18.4434 8.08001C19.4821 8.39509 20.295 9.20793 20.6101 10.2466C20.7419 10.6811 20.75 11.2399 20.75 12.6901C20.75 14.1402 20.7419 14.699 20.6101 15.1335C20.295 16.1722 19.4821 16.985 18.4434 17.3001C18.0089 17.4319 17.4501 17.4401 16 17.4401H15.25V14.59C15.25 14.1758 14.9142 13.84 14.5 13.84H11.5C11.0858 13.84 10.75 14.1758 10.75 14.59V21.59C10.75 22.0042 11.0858 22.34 11.5 22.34H14.5C14.9142 22.34 15.25 22.0042 15.25 21.59V18.9401H16L16.143 18.9401C17.4011 18.9404 18.203 18.9405 18.8789 18.7355C20.397 18.275 21.585 17.087 22.0455 15.5689C22.2505 14.8931 22.2503 14.0912 22.25 12.8331L22.25 12.6901L22.25 12.5471C22.2503 11.2889 22.2505 10.487 22.0455 9.81121C21.585 8.2931 20.397 7.10511 18.8789 6.6446C18.203 6.43959 17.4011 6.43976 16.143 6.44004L16 6.44006H15.25V3.58997C15.25 3.17575 14.9142 2.83997 14.5 2.83997H11.5ZM13.75 7.19006V4.33997H12.25V9.83997H13.75V7.19006ZM13.75 18.1901V15.34H12.25V20.84H13.75V18.1901ZM1.75 14.59C1.75 14.1758 2.08579 13.84 2.5 13.84H9.5C9.91421 13.84 10.25 14.1758 10.25 14.59V19.59C10.25 20.0042 9.91421 20.34 9.5 20.34H2.5C2.08579 20.34 1.75 20.0042 1.75 19.59V14.59ZM3.25 15.34V18.84H8.75V15.34H3.25ZM2.5 20.84C2.08579 20.84 1.75 21.1758 1.75 21.59C1.75 22.0042 2.08579 22.34 2.5 22.34H9.5C9.91421 22.34 10.25 22.0042 10.25 21.59C10.25 21.1758 9.91421 20.84 9.5 20.84H2.5Z" fill="white"/>
</svg>
