<svg width="24" height="25" viewBox="0 0 24 25" fill="none" xmlns="http://www.w3.org/2000/svg">
<path fill-rule="evenodd" clip-rule="evenodd" d="M3.75 20.84L10.9721 20.84C11.3863 20.84 11.7221 21.1758 11.7221 21.59C11.7221 22.0042 11.3863 22.34 10.9721 22.34L3 22.34C2.58579 22.34 2.25 22.0042 2.25 21.59V3.58996C2.25 3.17575 2.58579 2.83996 3 2.83996H17C17.1989 2.83996 17.3897 2.91898 17.5303 3.05963L21.5303 7.05963C21.671 7.20028 21.75 7.39105 21.75 7.58996V21.59C21.75 22.0042 21.4142 22.34 21 22.34H19.5C19.0858 22.34 18.75 22.0042 18.75 21.59C18.75 21.1757 19.0858 20.84 19.5 20.84H20.25V9.33999H16C15.5858 9.33999 15.25 9.0042 15.25 8.58999V4.33996H3.75V20.84ZM16.75 4.40062L20.1894 7.83999H16.75V4.40062ZM5.25 15.59C5.25 15.1758 5.58579 14.84 6 14.84H8C8.41421 14.84 8.75 15.1758 8.75 15.59C8.75 16.0042 8.41421 16.34 8 16.34H6C5.58579 16.34 5.25 16.0042 5.25 15.59ZM6 10.84C5.58579 10.84 5.25 11.1758 5.25 11.59C5.25 12.0042 5.58579 12.34 6 12.34H9C9.41421 12.34 9.75 12.0042 9.75 11.59C9.75 11.1758 9.41421 10.84 9 10.84H6ZM5.25 7.58997C5.25 7.17575 5.58579 6.83997 6 6.83997H10C10.4142 6.83997 10.75 7.17575 10.75 7.58997C10.75 8.00418 10.4142 8.33997 10 8.33997H6C5.58579 8.33997 5.25 8.00418 5.25 7.58997Z" fill="white"/>
<path d="M13.271 18.59V24.09L15.271 22.09L17.271 24.09V18.59" stroke="white" stroke-width="1.5" stroke-linecap="round" stroke-linejoin="round"/>
<path d="M15.271 11.59L18.7351 13.59V17.59L15.271 19.59L11.8069 17.59V13.59L15.271 11.59Z" stroke="white" stroke-width="1.5" stroke-linecap="round" stroke-linejoin="round"/>
</svg>
