<svg width="24" height="25" viewBox="0 0 24 25" fill="none" xmlns="http://www.w3.org/2000/svg">
<path fill-rule="evenodd" clip-rule="evenodd" d="M19.5789 6.43206C20.3638 6.43206 21 5.79584 21 5.01101C21 4.22619 20.3638 3.58997 19.5789 3.58997C18.7941 3.58997 18.1579 4.22619 18.1579 5.01101C18.1579 5.79584 18.7941 6.43206 19.5789 6.43206ZM21 8.80036C21 9.58518 20.3638 10.2214 19.5789 10.2214C18.7941 10.2214 18.1579 9.58518 18.1579 8.80036C18.1579 8.01553 18.7941 7.37931 19.5789 7.37931C20.3638 7.37931 21 8.01553 21 8.80036ZM19.5789 14.011C20.3638 14.011 21 13.3748 21 12.5899C21 11.8051 20.3638 11.1689 19.5789 11.1689C18.7941 11.1689 18.1579 11.8051 18.1579 12.5899C18.1579 13.3748 18.7941 14.011 19.5789 14.011ZM21 16.3794C21 17.1642 20.3638 17.8004 19.5789 17.8004C18.7941 17.8004 18.1579 17.1642 18.1579 16.3794C18.1579 15.5946 18.7941 14.9583 19.5789 14.9583C20.3638 14.9583 21 15.5946 21 16.3794ZM4.42105 21.5898C5.20587 21.5898 5.84209 20.9536 5.84209 20.1687C5.84209 19.3839 5.20587 18.7477 4.42105 18.7477C3.63622 18.7477 3 19.3839 3 20.1687C3 20.9536 3.63622 21.5898 4.42105 21.5898ZM9.63161 20.1687C9.63161 20.9536 8.99539 21.5898 8.21056 21.5898C7.42574 21.5898 6.78952 20.9536 6.78952 20.1687C6.78952 19.3839 7.42574 18.7477 8.21056 18.7477C8.99539 18.7477 9.63161 19.3839 9.63161 20.1687ZM12 21.5898C12.7848 21.5898 13.4211 20.9536 13.4211 20.1687C13.4211 19.3839 12.7848 18.7477 12 18.7477C11.2152 18.7477 10.579 19.3839 10.579 20.1687C10.579 20.9536 11.2152 21.5898 12 21.5898ZM17.2105 20.1687C17.2105 20.9536 16.5742 21.5898 15.7894 21.5898C15.0046 21.5898 14.3684 20.9536 14.3684 20.1687C14.3684 19.3839 15.0046 18.7477 15.7894 18.7477C16.5742 18.7477 17.2105 19.3839 17.2105 20.1687ZM21 20.1687C21 20.9536 20.3638 21.5898 19.5789 21.5898C18.7941 21.5898 18.1579 20.9536 18.1579 20.1687C18.1579 19.3839 18.7941 18.7477 19.5789 18.7477C20.3638 18.7477 21 19.3839 21 20.1687ZM12 17.8004C12.7848 17.8004 13.4211 17.1642 13.4211 16.3794C13.4211 15.5946 12.7848 14.9583 12 14.9583C11.2152 14.9583 10.579 15.5946 10.579 16.3794C10.579 17.1642 11.2152 17.8004 12 17.8004ZM5.84209 16.3794C5.84209 17.1642 5.20587 17.8004 4.42105 17.8004C3.63622 17.8004 3 17.1642 3 16.3794C3 15.5946 3.63622 14.9583 4.42105 14.9583C5.20587 14.9583 5.84209 15.5946 5.84209 16.3794ZM17.2105 12.5899C17.2105 13.3748 16.5742 14.011 15.7894 14.011C15.0046 14.011 14.3684 13.3748 14.3684 12.5899C14.3684 11.8051 15.0046 11.1689 15.7894 11.1689C16.5742 11.1689 17.2105 11.8051 17.2105 12.5899ZM12 14.011C12.7848 14.011 13.4211 13.3748 13.4211 12.5899C13.4211 11.8051 12.7848 11.1689 12 11.1689C11.2152 11.1689 10.579 11.8051 10.579 12.5899C10.579 13.3748 11.2152 14.011 12 14.011ZM9.63161 12.5899C9.63161 13.3748 8.99539 14.011 8.21056 14.011C7.42574 14.011 6.78952 13.3748 6.78952 12.5899C6.78952 11.8051 7.42574 11.1689 8.21056 11.1689C8.99539 11.1689 9.63161 11.8051 9.63161 12.5899ZM4.42105 14.011C5.20587 14.011 5.84209 13.3748 5.84209 12.5899C5.84209 11.8051 5.20587 11.1689 4.42105 11.1689C3.63622 11.1689 3 11.8051 3 12.5899C3 13.3748 3.63622 14.011 4.42105 14.011ZM12 10.2214C12.7848 10.2214 13.4211 9.58518 13.4211 8.80036C13.4211 8.01553 12.7848 7.37931 12 7.37931C11.2152 7.37931 10.579 8.01553 10.579 8.80036C10.579 9.58518 11.2152 10.2214 12 10.2214ZM5.84209 8.80036C5.84209 9.58518 5.20587 10.2214 4.42105 10.2214C3.63622 10.2214 3 9.58518 3 8.80036C3 8.01553 3.63622 7.37931 4.42105 7.37931C5.20587 7.37931 5.84209 8.01553 5.84209 8.80036ZM17.2105 5.01101C17.2105 5.79584 16.5742 6.43206 15.7894 6.43206C15.0046 6.43206 14.3684 5.79584 14.3684 5.01101C14.3684 4.22619 15.0046 3.58997 15.7894 3.58997C16.5742 3.58997 17.2105 4.22619 17.2105 5.01101ZM12 6.43206C12.7848 6.43206 13.4211 5.79584 13.4211 5.01101C13.4211 4.22619 12.7848 3.58997 12 3.58997C11.2152 3.58997 10.579 4.22619 10.579 5.01101C10.579 5.79584 11.2152 6.43206 12 6.43206ZM9.63161 5.01101C9.63161 5.79584 8.99539 6.43206 8.21056 6.43206C7.42574 6.43206 6.78952 5.79584 6.78952 5.01101C6.78952 4.22619 7.42574 3.58997 8.21056 3.58997C8.99539 3.58997 9.63161 4.22619 9.63161 5.01101ZM4.42105 6.43206C5.20587 6.43206 5.84209 5.79584 5.84209 5.01101C5.84209 4.22619 5.20587 3.58997 4.42105 3.58997C3.63622 3.58997 3 4.22619 3 5.01101C3 5.79584 3.63622 6.43206 4.42105 6.43206Z" fill="white"/>
</svg>
