<svg width="24" height="25" viewBox="0 0 24 25" fill="none" xmlns="http://www.w3.org/2000/svg">
<g clip-path="url(#clip0_11_1591)">
<path fill-rule="evenodd" clip-rule="evenodd" d="M16.5303 2.12036C16.8232 1.82746 16.8232 1.35259 16.5303 1.0597C16.2374 0.766803 15.7626 0.766803 15.4697 1.0597L12 4.52937L10.5303 3.0597C10.2374 2.7668 9.76256 2.7668 9.46967 3.0597C9.17678 3.35259 9.17678 3.82746 9.46967 4.12036L11.4697 6.12036C11.7626 6.41325 12.2374 6.41325 12.5303 6.12036L16.5303 2.12036ZM12.5303 7.05945C12.2374 6.76656 11.7625 6.76656 11.4696 7.05945L8.46961 10.0595C8.17672 10.3523 8.17672 10.8272 8.46961 11.1201C8.76251 11.413 9.23738 11.413 9.53027 11.1201L11.25 9.40039V10.4066L11.2266 10.4505C11.157 10.5803 11.054 10.7677 10.9225 10.9932C10.6584 11.4458 10.2837 12.0449 9.8375 12.6398C9.38801 13.2392 8.88448 13.8093 8.36742 14.2229C7.85613 14.632 7.40737 14.8276 7.03517 14.8393C6.97995 14.7725 6.9211 14.7078 6.85861 14.6453C5.78466 13.5714 4.04346 13.5714 2.96952 14.6453C1.89558 15.7192 1.89558 17.4604 2.96952 18.5344C4.04346 19.6083 5.78466 19.6083 6.85861 18.5344C7.47892 17.9141 7.74094 17.0711 7.64466 16.2628C8.26121 16.1166 8.82319 15.7793 9.30446 15.3942C9.95927 14.8704 10.5495 14.1905 11.0375 13.5398C11.1102 13.4429 11.1811 13.346 11.25 13.2497V15.9437C10.8126 16.0673 10.3998 16.3012 10.0556 16.6454C8.98168 17.7194 8.98168 19.4606 10.0556 20.5345C11.1296 21.6084 12.8708 21.6084 13.9447 20.5345C15.0187 19.4606 15.0187 17.7194 13.9447 16.6454C13.6004 16.3011 13.1875 16.0672 12.75 15.9436V13.2497C12.8189 13.346 12.8898 13.4429 12.9625 13.5398C13.4505 14.1905 14.0407 14.8704 14.6955 15.3942C15.155 15.7618 15.6881 16.086 16.272 16.2418C16.1686 17.0565 16.4298 17.9087 17.0555 18.5344C18.1294 19.6083 19.8706 19.6083 20.9445 18.5344C22.0185 17.4604 22.0185 15.7192 20.9445 14.6453C19.8706 13.5714 18.1294 13.5714 17.0555 14.6453C16.9946 14.7061 16.9373 14.7691 16.8834 14.8339C16.5278 14.7984 16.1071 14.6026 15.6326 14.2229C15.1155 13.8093 14.612 13.2392 14.1625 12.6398C13.7163 12.0449 13.3416 11.4458 13.0775 10.9932C12.946 10.7677 12.843 10.5803 12.7734 10.4505L12.75 10.4066V9.4005L14.4696 11.1201C14.7625 11.413 15.2374 11.413 15.5303 11.1201C15.8232 10.8272 15.8232 10.3523 15.5303 10.0595L12.531 7.06017L12.5303 7.05945ZM11.9917 17.34C11.6746 17.3421 11.3582 17.4641 11.1163 17.7061C10.6281 18.1942 10.6281 18.9857 11.1163 19.4738C11.6044 19.962 12.3959 19.962 12.8841 19.4738C13.3722 18.9857 13.3722 18.1942 12.8841 17.7061C12.6421 17.4641 12.3256 17.3421 12.0084 17.34L12 17.34L11.9917 17.34ZM5.79795 15.706C5.30979 15.2178 4.51833 15.2178 4.03018 15.706C3.54202 16.1941 3.54202 16.9856 4.03018 17.4737C4.51833 17.9619 5.30979 17.9619 5.79795 17.4737C6.2861 16.9856 6.2861 16.1941 5.79795 15.706ZM19.8839 15.706C19.3957 15.2178 18.6043 15.2178 18.1161 15.706C17.628 16.1941 17.628 16.9856 18.1161 17.4737C18.6043 17.9619 19.3957 17.9619 19.8839 17.4737C20.372 16.9856 20.372 16.1941 19.8839 15.706Z" fill="white"/>
</g>
<defs>
<clipPath id="clip0_11_1591">
<rect width="24" height="24" fill="white" transform="translate(0 0.589966)"/>
</clipPath>
</defs>
</svg>
