<svg width="24" height="25" viewBox="0 0 24 25" fill="none" xmlns="http://www.w3.org/2000/svg">
<path fill-rule="evenodd" clip-rule="evenodd" d="M22.25 1.58997C22.6642 1.58997 23 1.92575 23 2.33997V16.34C23 16.7542 22.6642 17.09 22.25 17.09H20V19.34C20 19.7542 19.6642 20.09 19.25 20.09H17V22.34C17 22.7542 16.6642 23.09 16.25 23.09H2.25C1.83579 23.09 1.5 22.7542 1.5 22.34V8.33997C1.5 7.92575 1.83579 7.58997 2.25 7.58997H4.5V5.33997C4.5 4.92575 4.83579 4.58997 5.25 4.58997H7.5V2.33997C7.5 1.92575 7.83579 1.58997 8.25 1.58997H22.25ZM9 5.33997V3.08997H21.5V15.59H19.25H9V5.33997ZM18.5 17.09H8.25C7.83579 17.09 7.5 16.7542 7.5 16.34V6.08997H6V8.33997V18.59H16.25H18.5V17.09ZM4.5 19.34V9.08997H3V21.59H15.5V20.09H5.25C4.83579 20.09 4.5 19.7542 4.5 19.34Z" fill="white"/>
</svg>
