<svg width="24" height="25" viewBox="0 0 24 25" fill="none" xmlns="http://www.w3.org/2000/svg">
<g clip-path="url(#clip0_11_1589)">
<path fill-rule="evenodd" clip-rule="evenodd" d="M12 2.34003C9.37665 2.34003 7.25 4.46667 7.25 7.09003C7.25 9.70912 9.36974 11.8331 11.9872 11.84L12.0001 11.8399L12.0128 11.84C14.6302 11.8331 16.75 9.70912 16.75 7.09003C16.75 6.91105 16.7401 6.73466 16.721 6.56132C16.6755 6.14962 16.9723 5.77897 17.384 5.73346C17.7957 5.68794 18.1664 5.9848 18.2119 6.39651C18.2371 6.62447 18.25 6.85588 18.25 7.09003C18.25 9.80388 16.5203 12.1137 14.1032 12.9773L15.6181 13.8862L16.8792 14.6429L16.9922 14.7107C17.0128 14.6886 17.0339 14.6668 17.0555 14.6453C18.1294 13.5714 19.8706 13.5714 20.9445 14.6453C22.0185 15.7192 22.0185 17.4604 20.9445 18.5344C19.8706 19.6083 18.1294 19.6083 17.0555 18.5344C16.3797 17.8586 16.1291 16.9186 16.3038 16.047L16.1075 15.9291L14.8464 15.1725L12.75 13.9147V15.9436C13.1875 16.0672 13.6004 16.3011 13.9447 16.6454C15.0187 17.7194 15.0187 19.4606 13.9447 20.5345C12.8708 21.6084 11.1296 21.6084 10.0556 20.5345C8.98168 19.4606 8.98168 17.7194 10.0556 16.6454C10.3998 16.3012 10.8126 16.0673 11.25 15.9437V13.9147L7.6191 16.0932C7.77594 16.9518 7.52244 17.8706 6.85861 18.5344C5.78466 19.6083 4.04346 19.6083 2.96952 18.5344C1.89558 17.4604 1.89558 15.7192 2.96952 14.6453C4.04346 13.5714 5.78466 13.5714 6.85861 14.6453C6.89088 14.6776 6.92217 14.7104 6.95251 14.7439L9.89677 12.9773C7.47969 12.1137 5.75 9.80388 5.75 7.09003C5.75 3.63825 8.54822 0.840027 12 0.840027C12.9965 0.840027 13.9405 1.07377 14.7782 1.4901C15.1492 1.67444 15.3004 2.12457 15.1161 2.49551C14.9317 2.86644 14.4816 3.01771 14.1107 2.83337C13.4757 2.51781 12.7597 2.34003 12 2.34003ZM11.9921 17.34L12 17.34L12.008 17.34C12.3253 17.342 12.642 17.464 12.8841 17.7061C13.3722 18.1942 13.3722 18.9857 12.8841 19.4738C12.3959 19.962 11.6044 19.962 11.1163 19.4738C10.6281 18.9857 10.6281 18.1942 11.1163 17.7061C11.3583 17.4641 11.6749 17.342 11.9921 17.34ZM4.03018 15.706C4.51833 15.2178 5.30979 15.2178 5.79795 15.706C6.2861 16.1941 6.2861 16.9856 5.79795 17.4737C5.30979 17.9619 4.51833 17.9619 4.03018 17.4737C3.54202 16.9856 3.54202 16.1941 4.03018 15.706ZM18.1161 15.706C18.6043 15.2178 19.3957 15.2178 19.8839 15.706C20.372 16.1941 20.372 16.9856 19.8839 17.4737C19.3957 17.9619 18.6043 17.9619 18.1161 17.4737C17.628 16.9856 17.628 16.1941 18.1161 15.706ZM18.0472 3.47798C18.3305 3.1758 18.3151 2.70117 18.013 2.41787C17.7108 2.13458 17.2361 2.14989 16.9528 2.45207L12.3438 7.36844L11.1722 6.11874C10.8889 5.81655 10.4142 5.80124 10.112 6.08454C9.80986 6.36784 9.79455 6.84247 10.0778 7.14465L11.7966 8.97798C11.9384 9.12922 12.1364 9.21503 12.3438 9.21503C12.5511 9.21503 12.7491 9.12922 12.8909 8.97798L18.0472 3.47798Z" fill="white"/>
</g>
<defs>
<clipPath id="clip0_11_1589">
<rect width="24" height="24" fill="white" transform="translate(0 0.589966)"/>
</clipPath>
</defs>
</svg>
