<svg width="24" height="25" viewBox="0 0 24 25" fill="none" xmlns="http://www.w3.org/2000/svg">
<path fill-rule="evenodd" clip-rule="evenodd" d="M6.55495 2.5555C6.27632 2.24901 5.80199 2.22642 5.49549 2.50505C5.189 2.78368 5.16641 3.25802 5.44504 3.56451L9.44504 7.96451C9.72367 8.271 10.198 8.29359 10.5045 8.01496C10.811 7.73633 10.8336 7.26199 10.555 6.9555L6.55495 2.5555ZM18.555 3.56451C18.8336 3.25802 18.811 2.78368 18.5045 2.50505C18.198 2.22642 17.7237 2.24901 17.445 2.5555L11.445 9.1555L7.44504 13.5555C7.43559 13.5659 7.42648 13.5765 7.41772 13.5873C6.98035 13.4085 6.50168 13.31 6 13.31C3.92893 13.31 2.25 14.9889 2.25 17.06C2.25 19.1311 3.92893 20.81 6 20.81C8.07107 20.81 9.75 19.1311 9.75 17.06C9.75 16.0365 9.33999 15.1088 8.67526 14.4322L12 10.775L15.3247 14.4322C14.66 15.1088 14.25 16.0365 14.25 17.06C14.25 19.1311 15.9289 20.81 18 20.81C20.0711 20.81 21.75 19.1311 21.75 17.06C21.75 14.9889 20.0711 13.31 18 13.31C17.4983 13.31 17.0196 13.4085 16.5823 13.5873C16.5735 13.5765 16.5644 13.5659 16.555 13.5555L13.0136 9.66001L18.555 3.56451ZM18 14.81C16.7574 14.81 15.75 15.8174 15.75 17.06C15.75 18.3026 16.7574 19.31 18 19.31C19.2426 19.31 20.25 18.3026 20.25 17.06C20.25 15.8174 19.2426 14.81 18 14.81ZM6 14.81C4.75736 14.81 3.75 15.8174 3.75 17.06C3.75 18.3026 4.75736 19.31 6 19.31C7.24264 19.31 8.25 18.3026 8.25 17.06C8.25 15.8174 7.24264 14.81 6 14.81Z" fill="white"/>
</svg>
