<svg width="24" height="25" viewBox="0 0 24 25" fill="none" xmlns="http://www.w3.org/2000/svg">
<path fill-rule="evenodd" clip-rule="evenodd" d="M15.182 2.86237C14.9579 2.80635 14.7206 2.85669 14.5385 2.99882C14.3565 3.14095 14.2501 3.35902 14.2501 3.58997V15.59V21.59C14.2501 22.0042 14.5859 22.34 15.0001 22.34C15.4143 22.34 15.7501 22.0042 15.7501 21.59V16.0535L19.3355 14.2608C19.5896 14.1337 19.7501 13.8741 19.7501 13.59V4.58997C19.7501 4.24582 19.5159 3.94583 19.182 3.86237L15.182 2.86237ZM18.2501 13.1264L15.7501 14.3764V4.55055L18.2501 5.17555V13.1264ZM4.75009 3.58997C4.75009 3.17576 4.4143 2.83997 4.00009 2.83997C3.58588 2.83997 3.25009 3.17576 3.25009 3.58997V10.59C3.25009 10.8407 3.37541 11.0749 3.58406 11.214L6.25009 12.9914V21.59C6.25009 22.0042 6.58588 22.34 7.00009 22.34C7.4143 22.34 7.75009 22.0042 7.75009 21.59V12.9914L10.4161 11.214C10.6248 11.0749 10.7501 10.8407 10.7501 10.59V3.58997C10.7501 3.17576 10.4143 2.83997 10.0001 2.83997C9.58588 2.83997 9.25009 3.17576 9.25009 3.58997V10.1886L7.75009 11.1886V3.58997C7.75009 3.17576 7.4143 2.83997 7.00009 2.83997C6.58588 2.83997 6.25009 3.17576 6.25009 3.58997V11.1886L4.75009 10.1886V3.58997Z" fill="white"/>
</svg>
