<svg width="24" height="25" viewBox="0 0 24 25" fill="none" xmlns="http://www.w3.org/2000/svg">
<path fill-rule="evenodd" clip-rule="evenodd" d="M3.56066 5.1506C4.22142 4.48983 4.9593 4.27289 5.69211 4.35732C6.44938 4.44457 7.26436 4.86387 7.99524 5.59475C8.72612 6.32562 9.14542 7.14061 9.23267 7.89789C9.3171 8.6307 9.10016 9.36858 8.4394 10.0293C7.77864 10.6901 7.04075 10.907 6.30791 10.8226C5.55062 10.7354 4.73562 10.3161 4.00474 9.58518C3.27387 8.8543 2.85458 8.03933 2.76735 7.28206C2.68294 6.54925 2.89989 5.81137 3.56066 5.1506ZM9.0559 4.53409C8.14666 3.62484 7.03408 3.00201 5.86379 2.86718C4.66903 2.72953 3.47935 3.11058 2.5 4.08994C1.52064 5.06929 1.13958 6.25896 1.27721 7.45372C1.41202 8.62401 2.03484 9.73659 2.94408 10.6458C3.85333 11.5551 4.96593 12.1779 6.13623 12.3128C7.10684 12.4246 8.07411 12.1941 8.92798 11.5786L9.93937 12.59L8.4697 14.0596L2.4697 20.0596C2.1768 20.3525 2.1768 20.8274 2.4697 21.1203C2.76259 21.4132 3.23746 21.4132 3.53036 21.1203L9.53036 15.1203L11 13.6506L15.4697 18.1203L18.4697 21.1203C18.7626 21.4132 19.2375 21.4132 19.5304 21.1203C19.8233 20.8274 19.8233 20.3525 19.5304 20.0596L16.5304 17.0596L11.5304 12.0596L9.98864 10.5179C10.6041 9.66406 10.8346 8.6968 10.7228 7.7262C10.588 6.55591 9.96514 5.44333 9.0559 4.53409ZM19.4697 3.05964C19.7626 2.76674 20.2375 2.76674 20.5304 3.05964L23.5304 6.05964C23.8232 6.35253 23.8232 6.8274 23.5304 7.1203L16.5304 14.1203C16.2375 14.4132 15.7626 14.4132 15.4697 14.1203C15.1768 13.8274 15.1768 13.3525 15.4697 13.0596L21.9394 6.58997L20 4.65063L13.5304 11.1203C13.2375 11.4132 12.7626 11.4132 12.4697 11.1203C12.1768 10.8274 12.1768 10.3525 12.4697 10.0596L19.4697 3.05964Z" fill="white"/>
</svg>
