<svg width="24" height="25" viewBox="0 0 24 25" fill="none" xmlns="http://www.w3.org/2000/svg">
<path fill-rule="evenodd" clip-rule="evenodd" d="M4.00009 2.83997C4.4143 2.83997 4.75009 3.17575 4.75009 3.58997V10.1886L6.25009 11.1886V3.58997C6.25009 3.17575 6.58588 2.83997 7.00009 2.83997C7.4143 2.83997 7.75009 3.17575 7.75009 3.58997V11.1886L9.25009 10.1886V3.58997C9.25009 3.17575 9.58588 2.83997 10.0001 2.83997C10.4143 2.83997 10.7501 3.17575 10.7501 3.58997V10.59C10.7501 10.8407 10.6248 11.0749 10.4161 11.214L7.75009 12.9914V21.59C7.75009 22.0042 7.4143 22.34 7.00009 22.34C6.58588 22.34 6.25009 22.0042 6.25009 21.59V12.9914L3.58406 11.214C3.37541 11.0749 3.25009 10.8407 3.25009 10.59V3.58997C3.25009 3.17575 3.58588 2.83997 4.00009 2.83997ZM17.0001 2.83997C17.4143 2.83997 17.7501 3.17575 17.7501 3.58997V12.9291C18.5663 13.1216 19.3305 13.6112 19.9226 14.2529C20.7027 15.0984 21.2501 16.2751 21.2501 17.59C21.2501 18.9049 20.7027 20.0815 19.9226 20.927C19.1518 21.7624 18.0892 22.34 17.0001 22.34C15.9109 22.34 14.8484 21.7624 14.0776 20.927C13.2975 20.0815 12.7501 18.9049 12.7501 17.59C12.7501 16.2751 13.2975 15.0984 14.0776 14.2529C14.6697 13.6112 15.4339 13.1216 16.2501 12.9291V3.58997C16.2501 3.17575 16.5859 2.83997 17.0001 2.83997ZM17.0001 14.34C16.4324 14.34 15.7449 14.6579 15.18 15.2701C14.6243 15.8724 14.2501 16.6957 14.2501 17.59C14.2501 18.4842 14.6243 19.3075 15.18 19.9098C15.7449 20.5221 16.4324 20.84 17.0001 20.84C17.5678 20.84 18.2553 20.5221 18.8202 19.9098C19.3759 19.3075 19.7501 18.4842 19.7501 17.59C19.7501 16.6957 19.3759 15.8724 18.8202 15.2701C18.2553 14.6579 17.5678 14.34 17.0001 14.34Z" fill="white"/>
</svg>
