<svg width="24" height="25" viewBox="0 0 24 25" fill="none" xmlns="http://www.w3.org/2000/svg">
<path fill-rule="evenodd" clip-rule="evenodd" d="M6.53033 3.05964C6.23744 2.76674 5.76256 2.76674 5.46967 3.05964C5.17678 3.35253 5.17678 3.8274 5.46967 4.1203L9.2045 7.85513L8.96967 9.49898L4.03033 4.55964C3.73744 4.26674 3.26256 4.26674 2.96967 4.55964C2.67678 4.85253 2.67678 5.3274 2.96967 5.6203L7.90901 10.5596L6.26517 10.7945L2.53033 7.05964C2.23744 6.76674 1.76256 6.76674 1.46967 7.05964C1.17678 7.35253 1.17678 7.8274 1.46967 8.1203L5.46967 12.1203C5.6366 12.2872 5.87237 12.3658 6.10607 12.3324L9.23484 11.8855L9.93934 12.59L8.46967 14.0596L2.46967 20.0596C2.17678 20.3525 2.17678 20.8274 2.46967 21.1203C2.76256 21.4132 3.23744 21.4132 3.53033 21.1203L9.53033 15.1203L11 13.6506L15.4697 18.1203L18.4697 21.1203C18.7626 21.4132 19.2374 21.4132 19.5303 21.1203C19.8232 20.8274 19.8232 20.3525 19.5303 20.0596L16.5303 17.0596L11.5303 12.0596L10.2955 10.8248L10.7425 7.69603C10.7758 7.46234 10.6973 7.22656 10.5303 7.05964L6.53033 3.05964ZM20.5303 3.05964C20.2374 2.76674 19.7626 2.76674 19.4697 3.05964L12.4697 10.0596C12.1768 10.3525 12.1768 10.8274 12.4697 11.1203C12.7626 11.4132 13.2374 11.4132 13.5303 11.1203L20 4.65063L21.9393 6.58997L15.4697 13.0596C15.1768 13.3525 15.1768 13.8274 15.4697 14.1203C15.7626 14.4132 16.2374 14.4132 16.5303 14.1203L23.5303 7.1203C23.8232 6.8274 23.8232 6.35253 23.5303 6.05964L20.5303 3.05964Z" fill="white"/>
</svg>
