<svg width="24" height="25" viewBox="0 0 24 25" fill="none" xmlns="http://www.w3.org/2000/svg">
<path fill-rule="evenodd" clip-rule="evenodd" d="M12.75 5.06V3.84363C14.4651 3.99819 16.0289 4.67767 17.2795 5.72018L16.4698 6.52957C16.1768 6.82241 16.1767 7.29728 16.4696 7.59023C16.7624 7.88318 17.2373 7.88326 17.5302 7.59042L18.3401 6.78087C19.3824 8.03135 20.0618 9.59501 20.2164 11.31H19C18.5858 11.31 18.25 11.6458 18.25 12.06C18.25 12.4742 18.5858 12.81 19 12.81H20.2164C20.0618 14.525 19.3824 16.0886 18.3401 17.3391L17.5302 16.5296C17.2373 16.2367 16.7624 16.2368 16.4696 16.5298C16.1767 16.8227 16.1768 17.2976 16.4698 17.5904L17.2795 18.3998C15.8488 19.5925 14.0082 20.31 12 20.31C9.9919 20.31 8.15136 19.5925 6.72075 18.4L7.5306 17.5904C7.82355 17.2976 7.82363 16.8227 7.53079 16.5298C7.23795 16.2368 6.76308 16.2367 6.47013 16.5296L5.66008 17.3393C4.61762 16.0888 3.93819 14.5251 3.78363 12.81H5C5.41421 12.81 5.75 12.4742 5.75 12.06C5.75 11.6458 5.41421 11.31 5 11.31H3.78363C3.93819 9.59493 4.61761 8.03121 5.66005 6.78071L6.46967 7.59033C6.76256 7.88322 7.23744 7.88322 7.53033 7.59033C7.82322 7.29743 7.82322 6.82256 7.53033 6.52967L6.72071 5.72005C7.97122 4.67761 9.53493 3.99818 11.25 3.84363V5.06C11.25 5.47421 11.5858 5.81 12 5.81C12.4142 5.81 12.75 5.47421 12.75 5.06ZM12 2.31C17.3848 2.31 21.75 6.67522 21.75 12.06C21.75 17.4448 17.3848 21.81 12 21.81C6.61522 21.81 2.25 17.4448 2.25 12.06C2.25 6.67522 6.61522 2.31 12 2.31ZM11.9999 9.06001L12.4463 8.45733C12.1811 8.2609 11.8186 8.2609 11.5534 8.45735L11.9999 9.06001ZM12.4126 10.5264C12.2704 10.3474 12.1277 10.1916 11.9999 10.0631C11.8721 10.1916 11.7294 10.3474 11.5872 10.5264C11.1378 11.0924 10.7499 11.8188 10.7499 12.6156C10.7499 13.2736 10.949 13.6935 11.1767 13.941C11.4072 14.1913 11.7058 14.31 11.9999 14.31C12.294 14.31 12.5927 14.1913 12.8231 13.941C13.0509 13.6935 13.2499 13.2736 13.2499 12.6156C13.2499 11.8188 12.862 11.0924 12.4126 10.5264ZM14.7499 12.6156C14.7499 11.3382 14.1378 10.2869 13.5872 9.59359C13.307 9.24067 13.0279 8.9617 12.8182 8.77017C12.713 8.67401 12.624 8.59881 12.5596 8.54628C12.5273 8.51999 12.5011 8.4993 12.4819 8.48442L12.4584 8.46646L12.4509 8.46079L12.4482 8.45878L12.4472 8.45799L12.4467 8.45764C12.4465 8.45749 12.4463 8.45733 11.9999 9.06001C11.5534 8.45735 11.5532 8.4575 11.553 8.45766L11.5526 8.458L11.5515 8.45879L11.5488 8.4608L11.5413 8.46648L11.5179 8.48444C11.4987 8.49931 11.4724 8.52001 11.4402 8.5463C11.3757 8.59882 11.2868 8.67402 11.1815 8.77019C10.9719 8.96172 10.6928 9.24069 10.4126 9.5936C9.86201 10.2869 9.24992 11.3382 9.24992 12.6156C9.24992 13.5871 9.55087 14.3895 10.0731 14.9568C10.5927 15.5213 11.294 15.81 11.9999 15.81C12.7058 15.81 13.4072 15.5213 13.9267 14.9568C14.449 14.3895 14.7499 13.5871 14.7499 12.6156Z" fill="white"/>
</svg>
