<svg width="24" height="25" viewBox="0 0 24 25" fill="none" xmlns="http://www.w3.org/2000/svg">
<path fill-rule="evenodd" clip-rule="evenodd" d="M5.66005 6.78071C4.61761 8.03121 3.93819 9.59493 3.78363 11.31H5C5.41421 11.31 5.75 11.6458 5.75 12.06C5.75 12.4742 5.41421 12.81 5 12.81H3.78363C3.90118 14.1144 4.32236 15.3313 4.97596 16.3895L6.41435 14.5915C6.55668 14.4136 6.77216 14.31 7 14.31H9.35352C9.61255 13.3942 10.3342 12.6725 11.25 12.4135V9.06C11.25 8.64578 11.5858 8.31 12 8.31C12.4142 8.31 12.75 8.64578 12.75 9.06V12.4135C13.6658 12.6725 14.3875 13.3942 14.6465 14.31H17C17.2278 14.31 17.4433 14.4136 17.5857 14.5915L19.024 16.3895C19.6776 15.3313 20.0988 14.1144 20.2164 12.81H19C18.5858 12.81 18.25 12.4742 18.25 12.06C18.25 11.6458 18.5858 11.31 19 11.31H20.2164C20.0618 9.59501 19.3824 8.03135 18.3401 6.78087L17.5302 7.59042C17.2373 7.88326 16.7624 7.88318 16.4696 7.59023C16.1767 7.29728 16.1768 6.82241 16.4698 6.52957L17.2795 5.72018C16.0289 4.67767 14.4651 3.99819 12.75 3.84363V5.06C12.75 5.47421 12.4142 5.81 12 5.81C11.5858 5.81 11.25 5.47421 11.25 5.06V3.84363C9.53493 3.99818 7.97122 4.67761 6.72071 5.72005L7.53033 6.52967C7.82322 6.82256 7.82322 7.29743 7.53033 7.59033C7.23744 7.88322 6.76256 7.88322 6.46967 7.59033L5.66005 6.78071ZM12 13.81C11.3096 13.81 10.75 14.3696 10.75 15.06C10.75 15.7504 11.3096 16.31 12 16.31C12.6904 16.31 13.25 15.7504 13.25 15.06C13.25 14.3696 12.6904 13.81 12 13.81ZM7.36047 15.81H9.35352C9.67998 16.9643 10.7412 17.81 12 17.81C13.2588 17.81 14.32 16.9643 14.6465 15.81H16.6395L18.091 17.6244C16.5825 19.2748 14.4122 20.31 12 20.31C9.58785 20.31 7.41748 19.2748 5.90895 17.6244L7.36047 15.81ZM21.75 12.06C21.75 6.67522 17.3848 2.31 12 2.31C6.61522 2.31 2.25 6.67522 2.25 12.06C2.25 17.4448 6.61522 21.81 12 21.81C17.3848 21.81 21.75 17.4448 21.75 12.06Z" fill="white"/>
</svg>
