<svg width="24" height="25" viewBox="0 0 24 25" fill="none" xmlns="http://www.w3.org/2000/svg">
<path fill-rule="evenodd" clip-rule="evenodd" d="M10.2507 8.88721C10.5849 8.55298 11.1268 8.55298 11.461 8.88721L13.4241 10.8503L15.3872 8.88721C15.7214 8.55298 16.2633 8.55298 16.5975 8.88721C16.9318 9.22143 16.9318 9.76332 16.5975 10.0976L14.6344 12.0606L16.5975 14.0237C16.9318 14.3579 16.9318 14.8998 16.5975 15.2341C16.2633 15.5683 15.7214 15.5683 15.3872 15.2341L13.4241 13.271L11.461 15.2341C11.1268 15.5683 10.5849 15.5683 10.2507 15.2341C9.91644 14.8998 9.91644 14.3579 10.2507 14.0237L12.2138 12.0606L10.2507 10.0976C9.91644 9.76332 9.91644 9.22143 10.2507 8.88721Z" fill="white"/>
<path d="M8.35698 5.46275H19.9444C20.0902 5.46275 20.2083 5.5809 20.2083 5.72664V18.3933C20.2083 18.539 20.0902 18.6572 19.9444 18.6572H8.35698C8.27632 18.6572 8.20009 18.6203 8.15004 18.557L3.13905 12.2237C3.06312 12.1278 3.06312 11.9922 3.13905 11.8962L8.15004 5.5629C8.20009 5.49964 8.27632 5.46275 8.35698 5.46275Z" stroke="white" stroke-width="1.58333"/>
</svg>
