<svg width="24" height="25" viewBox="0 0 24 25" fill="none" xmlns="http://www.w3.org/2000/svg">
<path fill-rule="evenodd" clip-rule="evenodd" d="M5 1.90002C4.58579 1.90002 4.25 2.23581 4.25 2.65002V22.65C4.25 23.0642 4.58579 23.4 5 23.4H19C19.4142 23.4 19.75 23.0642 19.75 22.65V2.65002C19.75 2.23581 19.4142 1.90002 19 1.90002H5ZM5.75 21.9V3.40002H18.25V21.9H5.75ZM9.75 9.65002C9.75 8.40738 10.7574 7.40002 12 7.40002C13.2426 7.40002 14.25 8.40738 14.25 9.65002C14.25 10.8927 13.2426 11.9 12 11.9C10.7574 11.9 9.75 10.8927 9.75 9.65002ZM12 5.90002C9.92893 5.90002 8.25 7.57896 8.25 9.65002C8.25 11.7211 9.92893 13.4 12 13.4C14.0711 13.4 15.75 11.7211 15.75 9.65002C15.75 7.57896 14.0711 5.90002 12 5.90002ZM11 17.65C11 18.2023 10.5523 18.65 10 18.65C9.44772 18.65 9 18.2023 9 17.65C9 17.0977 9.44772 16.65 10 16.65C10.5523 16.65 11 17.0977 11 17.65ZM14 18.65C14.5523 18.65 15 18.2023 15 17.65C15 17.0977 14.5523 16.65 14 16.65C13.4477 16.65 13 17.0977 13 17.65C13 18.2023 13.4477 18.65 14 18.65Z" fill="white"/>
</svg>
