<svg width="24" height="25" viewBox="0 0 24 25" fill="none" xmlns="http://www.w3.org/2000/svg">
<path fill-rule="evenodd" clip-rule="evenodd" d="M4.25 2.65002C4.25 2.23581 4.58579 1.90002 5 1.90002H19C19.4142 1.90002 19.75 2.23581 19.75 2.65002V22.65C19.75 23.0642 19.4142 23.4 19 23.4H5C4.58579 23.4 4.25 23.0642 4.25 22.65V2.65002ZM5.75 3.40002V21.9H18.25V3.40002H5.75ZM9.25 19.65C9.25 19.2358 9.58579 18.9 10 18.9H14C14.4142 18.9 14.75 19.2358 14.75 19.65C14.75 20.0642 14.4142 20.4 14 20.4H10C9.58579 20.4 9.25 20.0642 9.25 19.65ZM12 6.65002C12.5523 6.65002 13 6.20231 13 5.65002C13 5.09774 12.5523 4.65002 12 4.65002C11.4477 4.65002 11 5.09774 11 5.65002C11 6.20231 11.4477 6.65002 12 6.65002Z" fill="white"/>
</svg>
