<svg width="24" height="25" viewBox="0 0 24 25" fill="none" xmlns="http://www.w3.org/2000/svg">
<path fill-rule="evenodd" clip-rule="evenodd" d="M12 4.07959C12.3127 4.07959 12.5925 4.27352 12.7023 4.56625L18.7023 20.5662C18.8166 20.871 18.7212 21.2148 18.4662 21.4171C18.2113 21.6194 17.8549 21.6342 17.584 21.4536L12 17.731L6.41607 21.4536C6.14523 21.6342 5.78883 21.6194 5.53385 21.4171C5.27886 21.2148 5.1835 20.871 5.2978 20.5662L11.2978 4.56625C11.4076 4.27352 11.6874 4.07959 12 4.07959ZM12 6.96559L7.51874 18.9157L11.584 16.2056C11.8359 16.0376 12.1641 16.0376 12.4161 16.2056L16.4814 18.9157L12 6.96559Z" fill="white"/>
</svg>
