<svg width="24" height="25" viewBox="0 0 24 25" fill="none" xmlns="http://www.w3.org/2000/svg">
<path fill-rule="evenodd" clip-rule="evenodd" d="M20.5958 3.58595C20.8127 3.79342 20.8851 4.11024 20.7797 4.39129L14.7797 20.3913C14.6615 20.7065 14.3478 20.9043 14.0125 20.8751C13.6771 20.846 13.4023 20.597 13.3403 20.2662L11.9323 12.7572L4.92094 11.2615C4.60116 11.1932 4.36243 10.9257 4.33091 10.6003C4.29939 10.2748 4.48234 9.96646 4.78308 9.83814L19.7831 3.43811C20.0592 3.32032 20.3789 3.37848 20.5958 3.58595ZM7.54975 10.2885L12.7339 11.3945C13.0298 11.4576 13.2588 11.6923 13.3146 11.9897L14.3191 17.3474L18.7598 5.50554L7.54975 10.2885Z" fill="white"/>
</svg>
