<svg width="24" height="25" viewBox="0 0 24 25" fill="none" xmlns="http://www.w3.org/2000/svg">
<path fill-rule="evenodd" clip-rule="evenodd" d="M2.99992 3.87016L20.9999 3.87016C21.4141 3.87016 21.7499 3.53437 21.7499 3.12016C21.7499 2.70595 21.4141 2.37016 20.9999 2.37016L2.99992 2.37016C2.58571 2.37016 2.24992 2.70595 2.24992 3.12016C2.24992 3.53437 2.58571 3.87016 2.99992 3.87016ZM4.25 8.12012C4.25 7.7059 4.58579 7.37012 5 7.37012H19C19.4142 7.37012 19.75 7.7059 19.75 8.12012V16.1201C19.75 16.5343 19.4142 16.8701 19 16.8701H5C4.58579 16.8701 4.25 16.5343 4.25 16.1201V8.12012ZM5.75 8.87012V15.3701H18.25V8.87012H5.75ZM20.9999 21.8702L2.99992 21.8702C2.58571 21.8702 2.24992 21.5344 2.24992 21.1202C2.24992 20.7059 2.58571 20.3702 2.99992 20.3702L20.9999 20.3702C21.4141 20.3702 21.7499 20.7059 21.7499 21.1202C21.7499 21.5344 21.4141 21.8702 20.9999 21.8702Z" fill="white"/>
</svg>
