<svg width="24" height="25" viewBox="0 0 24 25" fill="none" xmlns="http://www.w3.org/2000/svg">
<path fill-rule="evenodd" clip-rule="evenodd" d="M3 2.37012C3.41421 2.37012 3.75 2.7059 3.75 3.12012L3.75 21.1201C3.75 21.5343 3.41421 21.8701 3 21.8701C2.58579 21.8701 2.25 21.5343 2.25 21.1201V3.12012C2.25 2.7059 2.58579 2.37012 3 2.37012ZM7.25 5.12012C7.25 4.7059 7.58579 4.37012 8 4.37012H16C16.4142 4.37012 16.75 4.7059 16.75 5.12012V19.1201C16.75 19.5343 16.4142 19.8701 16 19.8701H8C7.58579 19.8701 7.25 19.5343 7.25 19.1201V5.12012ZM8.75 5.87012V18.3701H15.25V5.87012H8.75ZM21.75 3.12012C21.75 2.7059 21.4142 2.37012 21 2.37012C20.5858 2.37012 20.25 2.7059 20.25 3.12012V21.1201C20.25 21.5343 20.5858 21.8701 21 21.8701C21.4142 21.8701 21.75 21.5343 21.75 21.1201V3.12012Z" fill="white"/>
</svg>
