<svg width="24" height="25" viewBox="0 0 24 25" fill="none" xmlns="http://www.w3.org/2000/svg">
<path d="M6 3.06C6 3.06 6.00001 5.56 6 7.06C6 12.06 18 12.56 18 17.06C18 18.2316 18 21.06 18 21.06" stroke="white" stroke-width="1.5" stroke-linecap="round" stroke-linejoin="round"/>
<path d="M18 3.06C18 3.06 18 5.56 18 7.06C18 8.96666 16.255 9.50979 14.0959 10.9389M6 21.06C6 21.06 6 18.2316 6 17.06C6 15.2528 7.18373 15.0135 9.5 13.56" stroke="white" stroke-width="1.5" stroke-linecap="round"/>
<path d="M9 4.06L15 4.06" stroke="white" stroke-width="1.5" stroke-linecap="round"/>
<path d="M9 7.06L15 7.06" stroke="white" stroke-width="1.5" stroke-linecap="round"/>
<path d="M9 20.06H15" stroke="white" stroke-width="1.5" stroke-linecap="round"/>
<path d="M9 17.06H15" stroke="white" stroke-width="1.5" stroke-linecap="round"/>
</svg>
