<svg width="24" height="25" viewBox="0 0 24 25" fill="none" xmlns="http://www.w3.org/2000/svg">
<path fill-rule="evenodd" clip-rule="evenodd" d="M12.3937 1.48191L11.9998 2.12012L11.6058 1.48192C11.8473 1.33285 12.1522 1.33285 12.3937 1.48191ZM11.9998 3.01929C11.7967 3.15892 11.5244 3.35266 11.2041 3.59648C10.4769 4.15014 9.50869 4.95727 8.54285 5.97084C6.59153 8.01858 4.75 10.8026 4.75 13.972C4.75 16.4893 5.66985 18.3198 7.00337 19.5271C8.34965 20.746 10.1636 21.3701 12 21.3701C13.8364 21.3702 15.6504 20.746 16.9966 19.5271C18.3301 18.3198 19.25 16.4893 19.25 13.972C19.25 10.8026 17.4084 8.0186 15.4569 5.97086C14.491 4.95728 13.5228 4.15015 12.7955 3.5965C12.4752 3.35266 12.2029 3.15893 11.9998 3.01929ZM16.5428 4.93604C18.5915 7.08583 20.75 10.2277 20.75 13.972C20.75 16.8868 19.6699 19.1303 18.0034 20.6391C16.3496 22.1363 14.1636 22.8702 12 22.8701C9.83643 22.8701 7.65035 22.1363 5.99663 20.6391C4.33015 19.1303 3.25 16.8868 3.25 13.972C3.25 10.2277 5.40836 7.08584 7.45693 4.93605C8.49102 3.85086 9.52275 2.99133 10.2955 2.40301C10.6825 2.10839 11.0061 1.88058 11.2347 1.72534C11.3491 1.64769 11.4398 1.58811 11.5029 1.54731C11.5345 1.52692 11.5592 1.51121 11.5765 1.50028L11.5969 1.48748L11.6028 1.48379L11.6047 1.48263L11.6053 1.48222C11.6056 1.48206 11.6058 1.48192 11.9998 2.12012C12.3937 1.48191 12.3939 1.48205 12.3942 1.48221L12.3949 1.48262L12.3967 1.48378L12.4027 1.48747L12.423 1.50027C12.4404 1.5112 12.465 1.5269 12.4966 1.5473C12.5598 1.58809 12.6505 1.64768 12.7648 1.72533C12.9935 1.88057 13.3171 2.10838 13.7041 2.403C14.4769 2.99131 15.5087 3.85085 16.5428 4.93604Z" fill="white"/>
</svg>
