<svg width="24" height="25" viewBox="0 0 24 25" fill="none" xmlns="http://www.w3.org/2000/svg">
<path fill-rule="evenodd" clip-rule="evenodd" d="M1.46967 1.58979C1.76256 1.29689 2.23744 1.29689 2.53033 1.58979L7.29229 6.35175L19.1743 18.2338L22.5303 21.5898C22.8232 21.8827 22.8232 22.3576 22.5303 22.6504C22.2374 22.9433 21.7626 22.9433 21.4697 22.6504L18.7205 19.9013C16.4933 22.5136 12.8471 23.3793 9.69085 22.5861C6.20595 21.7104 3.25 18.8018 3.25 13.972C3.25 11.2634 4.38044 8.8722 5.77087 6.95164L1.46967 2.65045C1.17678 2.35755 1.17678 1.88268 1.46967 1.58979ZM6.84632 8.02709C5.63905 9.74953 4.75 11.7688 4.75 13.972C4.75 18.0605 7.18492 20.4097 10.0564 21.1314C12.7876 21.8177 15.8559 21.0222 17.6554 18.8362L6.84632 8.02709ZM12.3937 1.48191L11.9998 2.12012L11.6058 1.48192C11.8473 1.33285 12.1522 1.33285 12.3937 1.48191ZM11.9998 3.01929C12.2029 3.15892 12.4752 3.35266 12.7955 3.5965C13.5228 4.15015 14.491 4.95728 15.4569 5.97086C17.4084 8.0186 19.25 10.8026 19.25 13.972C19.25 14.3423 19.2301 14.6971 19.192 15.0367C19.146 15.4483 19.4423 15.8194 19.8539 15.8655C20.2656 15.9116 20.6367 15.6152 20.6827 15.2036C20.7272 14.8068 20.75 14.3962 20.75 13.972C20.75 10.2277 18.5915 7.08583 16.5428 4.93604C15.5087 3.85085 14.4769 2.99131 13.7041 2.403C13.3171 2.10838 12.9935 1.88057 12.7648 1.72533C12.6505 1.64768 12.5598 1.58809 12.4966 1.5473C12.465 1.5269 12.4404 1.5112 12.423 1.50027L12.4027 1.48747L12.3967 1.48378L12.3949 1.48262L12.3942 1.48221C12.3939 1.48205 12.3937 1.48191 11.9998 2.12012C11.6058 1.48192 11.6057 1.48197 11.6057 1.48202L11.6055 1.48214L11.605 1.48242L11.6038 1.48319L11.6 1.48552L11.5875 1.49336L11.5429 1.52164C11.5047 1.54605 11.4498 1.58154 11.3801 1.62778C11.2406 1.72024 11.0414 1.85585 10.7965 2.03201C10.3072 2.38404 9.63333 2.89968 8.88878 3.55845C8.57856 3.83292 8.54958 4.30691 8.82406 4.61713C9.09853 4.92735 9.57252 4.95633 9.88274 4.68185C10.5828 4.06246 11.216 3.57808 11.6725 3.24964C11.7952 3.16133 11.9051 3.08441 11.9998 3.01929Z" fill="white"/>
</svg>
