<svg width="24" height="25" viewBox="0 0 24 25" fill="none" xmlns="http://www.w3.org/2000/svg">
<path fill-rule="evenodd" clip-rule="evenodd" d="M18.8407 4.49364C18.3639 4.06024 17.6358 4.06023 17.1591 4.49361C17.1404 4.51061 17.116 4.53471 17.0302 4.62045L16.7233 4.92735C16.699 6.00351 17.5863 6.89094 18.6624 6.86681L18.9695 6.55974C19.0552 6.474 19.0793 6.4496 19.0963 6.4309C19.5297 5.95414 19.5297 5.22608 19.0964 4.74932C19.0794 4.73062 19.0553 4.70622 18.9695 4.62048C18.8838 4.53474 18.8594 4.51063 18.8407 4.49364ZM17.3916 8.13768C16.5063 7.79199 15.798 7.08365 15.4524 6.19831L10.097 11.5536C9.29022 12.3604 8.98963 12.6698 8.78348 13.0339C8.57734 13.398 8.46667 13.8149 8.18995 14.9218L8.03055 15.5594L8.66816 15.4C9.77503 15.1232 10.192 15.0126 10.556 14.8064C10.9201 14.6003 11.2295 14.2997 12.0363 13.4929L17.3916 8.13768ZM16.1501 3.38365C17.199 2.4302 18.8008 2.43022 19.8497 3.3837C19.8985 3.42806 19.9503 3.47992 20.0176 3.54725L20.0176 3.54726L20.0302 3.55984L20.0427 3.57237L20.0428 3.57238C20.1101 3.63972 20.162 3.69157 20.2063 3.74038C21.1597 4.78927 21.1597 6.391 20.2063 7.43986C20.162 7.48863 20.1102 7.54043 20.0429 7.60767L20.0428 7.60776L20.0427 7.60788L20.0302 7.6204L13.097 14.5536L13.0234 14.6271C12.3154 15.3355 11.8581 15.793 11.2951 16.1117C10.7321 16.4305 10.1046 16.5872 9.13287 16.83L9.13286 16.83L9.03197 16.8552L7.18168 17.3177C6.9261 17.3816 6.65573 17.3067 6.46945 17.1205C6.28316 16.9342 6.20827 16.6638 6.27217 16.4082L6.73474 14.558L6.75995 14.4571C7.00267 13.4854 7.15943 12.8578 7.47819 12.2948C7.79694 11.7318 8.25442 11.2745 8.96278 10.5665L8.96279 10.5665L9.03634 10.4929L15.9696 3.55978L15.9821 3.54721C16.0495 3.47987 16.1013 3.42801 16.1501 3.38365ZM3.25 21.5901C3.25 21.1759 3.58579 20.8401 4 20.8401H20C20.4142 20.8401 20.75 21.1759 20.75 21.5901C20.75 22.0043 20.4142 22.3401 20 22.3401H4C3.58579 22.3401 3.25 22.0043 3.25 21.5901Z" fill="white"/>
</svg>
