<svg width="24" height="25" viewBox="0 0 24 25" fill="none" xmlns="http://www.w3.org/2000/svg">
<path fill-rule="evenodd" clip-rule="evenodd" d="M19.8408 4.49348C19.364 4.06012 18.636 4.06012 18.1592 4.49348C18.1405 4.51048 18.1161 4.53459 18.0303 4.62036L17.7233 4.92736C17.6991 6.00355 18.5865 6.89097 19.6627 6.8667L19.9697 6.5597C20.0554 6.47393 20.0795 6.44952 20.0965 6.43082C20.5299 5.95406 20.5299 5.226 20.0965 4.74924C20.0795 4.73054 20.0554 4.70613 19.9697 4.62036C19.8839 4.53459 19.8595 4.51048 19.8408 4.49348ZM18.3917 8.13764C17.5064 7.79199 16.798 7.08366 16.4524 6.1983L14.0972 8.5535C13.2904 9.36026 12.9898 9.66967 12.7837 10.0338C12.5776 10.3978 12.4669 10.8148 12.1902 11.9216L12.0308 12.5593L12.6684 12.3999C13.7753 12.1231 14.1922 12.0125 14.5563 11.8063C14.9204 11.6002 15.2298 11.2996 16.0365 10.4928L18.3917 8.13764ZM17.1503 3.38351C18.1991 2.43011 19.8009 2.43011 20.8497 3.38351C20.8985 3.42788 20.9504 3.47973 21.0177 3.54706L21.0177 3.54707L21.0177 3.5471L21.0303 3.5597L21.0429 3.5723L21.043 3.57237C21.1103 3.63967 21.1622 3.6915 21.2065 3.7403C22.1599 4.78917 22.1599 6.39089 21.2065 7.43976C21.1621 7.48858 21.1103 7.54043 21.0429 7.60776L21.0303 7.62036L17.0972 11.5535L17.0237 11.627C16.3156 12.3354 15.8583 12.7929 15.2953 13.1116C14.7324 13.4304 14.1048 13.5871 13.1331 13.8298L13.1331 13.8299L13.1331 13.8299L13.0322 13.8551L11.1819 14.3176C10.9263 14.3815 10.656 14.3066 10.4697 14.1204C10.2834 13.9341 10.2085 13.6637 10.2724 13.4081L10.735 11.5578L10.7602 11.4569C11.0029 10.4852 11.1597 9.85768 11.4784 9.29471C11.7972 8.73173 12.2546 8.27444 12.963 7.56636L13.0365 7.49284L16.9697 3.5597L16.9823 3.54712C17.0496 3.47976 17.1014 3.42789 17.1503 3.38351ZM2.25 3.59003C2.25 3.17582 2.58579 2.84003 3 2.84003H12C12.4142 2.84003 12.75 3.17582 12.75 3.59003C12.75 4.00424 12.4142 4.34003 12 4.34003H3.75V20.84H20.25V12.59C20.25 12.1758 20.5858 11.84 21 11.84C21.4142 11.84 21.75 12.1758 21.75 12.59V21.59C21.75 22.0042 21.4142 22.34 21 22.34H3C2.58579 22.34 2.25 22.0042 2.25 21.59V3.59003Z" fill="white"/>
</svg>
