<svg width="24" height="25" viewBox="0 0 24 25" fill="none" xmlns="http://www.w3.org/2000/svg">
<path fill-rule="evenodd" clip-rule="evenodd" d="M19.8499 4.3837C18.801 3.43022 17.1993 3.4302 16.1504 4.38365C16.1016 4.42802 16.0497 4.47988 15.9824 4.54723L15.9824 4.54724L15.9698 4.55978L12.4698 8.05979L13.0001 8.59013L12.4698 8.0598L11.9697 8.55988C11.6768 8.85277 11.6768 9.32765 11.9697 9.62054C12.2626 9.91343 12.7375 9.91343 13.0303 9.62054L13.5304 9.12046L14.9524 7.69847C15.2981 8.58379 16.0064 9.2921 16.8917 9.63774L15.4697 11.0598L14.9697 11.5598C14.6768 11.8527 14.6768 12.3276 14.9697 12.6205C15.2626 12.9134 15.7375 12.9134 16.0303 12.6205L16.5303 12.1205L20.0304 8.62039L20.043 8.60785L20.0431 8.60775C20.1104 8.54047 20.1622 8.48865 20.2065 8.43986C21.16 7.391 21.16 5.78926 20.2066 4.74038C20.1622 4.69158 20.1104 4.63974 20.043 4.57243L20.0305 4.55984L20.0179 4.54728C19.9506 4.47994 19.8987 4.42807 19.8499 4.3837ZM18.1627 8.3668L18.9698 7.55973C19.0555 7.474 19.0796 7.4496 19.0966 7.4309C19.53 6.95414 19.53 6.22608 19.0966 5.74932C19.0796 5.73062 19.0555 5.70621 18.9698 5.62048C18.884 5.53474 18.8596 5.51063 18.8409 5.49364C18.3642 5.06024 17.6361 5.06023 17.1593 5.49361C17.1406 5.51061 17.1162 5.53471 17.0305 5.62045L16.2233 6.42757C16.1991 7.50371 17.0865 8.39106 18.1627 8.3668ZM4.53035 4.0598C4.23745 3.7669 3.76258 3.7669 3.46969 4.0598C3.17679 4.35269 3.17679 4.82756 3.46969 5.12046L9.43938 11.0902L6.03657 14.4929L5.96302 14.5665C5.25466 15.2745 4.79718 15.7318 4.47843 16.2948C4.15967 16.8578 4.00291 17.4853 3.76019 18.4571L3.73498 18.558L3.27241 20.4082C3.20851 20.6638 3.2834 20.9342 3.46969 21.1205C3.65597 21.3067 3.92634 21.3816 4.18192 21.3177L6.03221 20.8552L6.1331 20.83C7.1048 20.5872 7.73236 20.4305 8.29534 20.1117C8.85831 19.793 9.31561 19.3355 10.0237 18.6271L10.0972 18.5536L13.5 15.1508L19.4697 21.1205C19.7626 21.4134 20.2375 21.4134 20.5303 21.1205C20.8232 20.8276 20.8232 20.3527 20.5303 20.0598L14.0303 13.5598L12.5304 12.0598L11.0304 10.5598L4.53035 4.0598ZM7.09722 15.5536L10.5 12.1508L11.4697 13.1205L12.4394 14.0901L9.03654 17.4929C8.22978 18.2997 7.92038 18.6003 7.55629 18.8064C7.1922 19.0126 6.77527 19.1232 5.6684 19.3999L5.03079 19.5594L5.19019 18.9218C5.46691 17.8149 5.57758 17.3979 5.78372 17.0339C5.98987 16.6698 6.29045 16.3604 7.09722 15.5536Z" fill="white"/>
</svg>
