<svg width="24" height="25" viewBox="0 0 24 25" fill="none" xmlns="http://www.w3.org/2000/svg">
<path fill-rule="evenodd" clip-rule="evenodd" d="M17.1593 5.49361C17.6361 5.06023 18.3642 5.06024 18.8409 5.49364C18.8596 5.51063 18.884 5.53474 18.9698 5.62048C19.0555 5.70621 19.0796 5.73062 19.0966 5.74931C19.53 6.22608 19.53 6.95414 19.0966 7.4309C19.0796 7.4496 19.0555 7.474 18.9697 7.55974L18.1627 8.3668C17.0865 8.39106 16.1991 7.50371 16.2233 6.42757L17.0305 5.62045C17.1162 5.53471 17.1406 5.51061 17.1593 5.49361ZM14.9524 7.69847L7.09722 15.5536C6.29045 16.3604 5.98987 16.6698 5.78372 17.0339C5.57758 17.3979 5.46691 17.8149 5.19019 18.9218L5.03079 19.5594L5.6684 19.3999C6.77527 19.1232 7.1922 19.0126 7.55629 18.8064C7.92038 18.6003 8.22978 18.2997 9.03654 17.4929L16.8917 9.63774C16.0064 9.2921 15.2981 8.58379 14.9524 7.69847ZM19.8499 4.3837C18.801 3.43022 17.1993 3.4302 16.1504 4.38365C16.1016 4.42802 16.0497 4.47987 15.9824 4.5472L15.9698 4.55978L6.03657 14.4929L5.96302 14.5665C5.25466 15.2745 4.79718 15.7318 4.47843 16.2948C4.15967 16.8578 4.00291 17.4853 3.76019 18.4571L3.73498 18.558L3.27241 20.4082C3.20851 20.6638 3.2834 20.9342 3.46969 21.1205C3.65597 21.3067 3.92634 21.3816 4.18192 21.3177L6.03221 20.8552L6.1331 20.83C7.1048 20.5872 7.73236 20.4305 8.29534 20.1117C8.85831 19.793 9.31561 19.3355 10.0237 18.6271L10.0972 18.5536L20.0304 8.6204L20.043 8.60778C20.1103 8.54048 20.1622 8.48865 20.2065 8.43986C21.16 7.391 21.16 5.78926 20.2066 4.74038C20.1622 4.6916 20.1104 4.63978 20.0431 4.5725L20.043 4.57243L20.0305 4.55984L20.0179 4.54728L20.0179 4.54724C19.9506 4.47992 19.8987 4.42806 19.8499 4.3837Z" fill="white"/>
</svg>
