<svg width="24" height="25" viewBox="0 0 24 25" fill="none" xmlns="http://www.w3.org/2000/svg">
<path fill-rule="evenodd" clip-rule="evenodd" d="M3 2.43018C2.58579 2.43018 2.25 2.76596 2.25 3.18018V10.1802C2.25 10.5944 2.58579 10.9302 3 10.9302H10C10.4142 10.9302 10.75 10.5944 10.75 10.1802V3.18018C10.75 2.76596 10.4142 2.43018 10 2.43018H3ZM3.75 9.43018V3.93018H9.25V9.43018H3.75ZM3 13.4302C2.58579 13.4302 2.25 13.766 2.25 14.1802V21.1802C2.25 21.5944 2.58579 21.9302 3 21.9302H10C10.4142 21.9302 10.75 21.5944 10.75 21.1802V14.1802C10.75 13.766 10.4142 13.4302 10 13.4302H3ZM3.75 20.4302V14.9302H9.25V20.4302H3.75ZM13.25 14.1802C13.25 13.766 13.5858 13.4302 14 13.4302H21C21.4142 13.4302 21.75 13.766 21.75 14.1802V21.1802C21.75 21.5944 21.4142 21.9302 21 21.9302H14C13.5858 21.9302 13.25 21.5944 13.25 21.1802V14.1802ZM14.75 14.9302V20.4302H20.25V14.9302H14.75ZM18.25 3.18018C18.25 2.76596 17.9142 2.43018 17.5 2.43018C17.0858 2.43018 16.75 2.76596 16.75 3.18018V5.93018H14C13.5858 5.93018 13.25 6.26596 13.25 6.68018C13.25 7.09439 13.5858 7.43018 14 7.43018H16.75V10.1802C16.75 10.5944 17.0858 10.9302 17.5 10.9302C17.9142 10.9302 18.25 10.5944 18.25 10.1802V7.43018H21C21.4142 7.43018 21.75 7.09439 21.75 6.68018C21.75 6.26596 21.4142 5.93018 21 5.93018H18.25V3.18018Z" fill="white"/>
</svg>
