<svg width="24" height="25" viewBox="0 0 24 25" fill="none" xmlns="http://www.w3.org/2000/svg">
<path fill-rule="evenodd" clip-rule="evenodd" d="M5 3.93018C4.30964 3.93018 3.75 4.48982 3.75 5.18018C3.75 5.87053 4.30964 6.43018 5 6.43018C5.69036 6.43018 6.25 5.87053 6.25 5.18018C6.25 4.48982 5.69036 3.93018 5 3.93018ZM2.25 5.18018C2.25 3.66139 3.48122 2.43018 5 2.43018C6.51878 2.43018 7.75 3.66139 7.75 5.18018C7.75 6.69896 6.51878 7.93018 5 7.93018C3.48122 7.93018 2.25 6.69896 2.25 5.18018ZM5 10.9302C4.30964 10.9302 3.75 11.4898 3.75 12.1802C3.75 12.8705 4.30964 13.4302 5 13.4302C5.69036 13.4302 6.25 12.8705 6.25 12.1802C6.25 11.4898 5.69036 10.9302 5 10.9302ZM2.25 12.1802C2.25 10.6614 3.48122 9.43018 5 9.43018C6.51878 9.43018 7.75 10.6614 7.75 12.1802C7.75 13.699 6.51878 14.9302 5 14.9302C3.48122 14.9302 2.25 13.699 2.25 12.1802ZM3.75 19.1802C3.75 18.4898 4.30964 17.9302 5 17.9302C5.69036 17.9302 6.25 18.4898 6.25 19.1802C6.25 19.8705 5.69036 20.4302 5 20.4302C4.30964 20.4302 3.75 19.8705 3.75 19.1802ZM5 16.4302C3.48122 16.4302 2.25 17.6614 2.25 19.1802C2.25 20.699 3.48122 21.9302 5 21.9302C6.51878 21.9302 7.75 20.699 7.75 19.1802C7.75 17.6614 6.51878 16.4302 5 16.4302ZM12 3.93018C11.3096 3.93018 10.75 4.48982 10.75 5.18018C10.75 5.87053 11.3096 6.43018 12 6.43018C12.6904 6.43018 13.25 5.87053 13.25 5.18018C13.25 4.48982 12.6904 3.93018 12 3.93018ZM9.25 5.18018C9.25 3.66139 10.4812 2.43018 12 2.43018C13.5188 2.43018 14.75 3.66139 14.75 5.18018C14.75 6.69896 13.5188 7.93018 12 7.93018C10.4812 7.93018 9.25 6.69896 9.25 5.18018ZM10.75 12.1802C10.75 11.4898 11.3096 10.9302 12 10.9302C12.6904 10.9302 13.25 11.4898 13.25 12.1802C13.25 12.8705 12.6904 13.4302 12 13.4302C11.3096 13.4302 10.75 12.8705 10.75 12.1802ZM12 9.43018C10.4812 9.43018 9.25 10.6614 9.25 12.1802C9.25 13.699 10.4812 14.9302 12 14.9302C13.5188 14.9302 14.75 13.699 14.75 12.1802C14.75 10.6614 13.5188 9.43018 12 9.43018ZM12 17.9302C11.3096 17.9302 10.75 18.4898 10.75 19.1802C10.75 19.8705 11.3096 20.4302 12 20.4302C12.6904 20.4302 13.25 19.8705 13.25 19.1802C13.25 18.4898 12.6904 17.9302 12 17.9302ZM9.25 19.1802C9.25 17.6614 10.4812 16.4302 12 16.4302C13.5188 16.4302 14.75 17.6614 14.75 19.1802C14.75 20.699 13.5188 21.9302 12 21.9302C10.4812 21.9302 9.25 20.699 9.25 19.1802ZM17.75 5.18018C17.75 4.48982 18.3096 3.93018 19 3.93018C19.6904 3.93018 20.25 4.48982 20.25 5.18018C20.25 5.87053 19.6904 6.43018 19 6.43018C18.3096 6.43018 17.75 5.87053 17.75 5.18018ZM19 2.43018C17.4812 2.43018 16.25 3.66139 16.25 5.18018C16.25 6.69896 17.4812 7.93018 19 7.93018C20.5188 7.93018 21.75 6.69896 21.75 5.18018C21.75 3.66139 20.5188 2.43018 19 2.43018ZM19 10.9302C18.3096 10.9302 17.75 11.4898 17.75 12.1802C17.75 12.8705 18.3096 13.4302 19 13.4302C19.6904 13.4302 20.25 12.8705 20.25 12.1802C20.25 11.4898 19.6904 10.9302 19 10.9302ZM16.25 12.1802C16.25 10.6614 17.4812 9.43018 19 9.43018C20.5188 9.43018 21.75 10.6614 21.75 12.1802C21.75 13.699 20.5188 14.9302 19 14.9302C17.4812 14.9302 16.25 13.699 16.25 12.1802ZM17.75 19.1802C17.75 18.4898 18.3096 17.9302 19 17.9302C19.6904 17.9302 20.25 18.4898 20.25 19.1802C20.25 19.8705 19.6904 20.4302 19 20.4302C18.3096 20.4302 17.75 19.8705 17.75 19.1802ZM19 16.4302C17.4812 16.4302 16.25 17.6614 16.25 19.1802C16.25 20.699 17.4812 21.9302 19 21.9302C20.5188 21.9302 21.75 20.699 21.75 19.1802C21.75 17.6614 20.5188 16.4302 19 16.4302Z" fill="white"/>
</svg>
