<svg width="24" height="25" viewBox="0 0 24 25" fill="none" xmlns="http://www.w3.org/2000/svg">
<path fill-rule="evenodd" clip-rule="evenodd" d="M3 2.43018C2.58579 2.43018 2.25 2.76596 2.25 3.18018V10.1802C2.25 10.5944 2.58579 10.9302 3 10.9302H10C10.4142 10.9302 10.75 10.5944 10.75 10.1802V3.18018C10.75 2.76596 10.4142 2.43018 10 2.43018H3ZM3.75 9.43018V3.93018H9.25V9.43018H3.75ZM14 2.43018C13.5858 2.43018 13.25 2.76596 13.25 3.18018V10.1802C13.25 10.5944 13.5858 10.9302 14 10.9302H21C21.4142 10.9302 21.75 10.5944 21.75 10.1802V3.18018C21.75 2.76596 21.4142 2.43018 21 2.43018H14ZM14.75 9.43018V3.93018H20.25V9.43018H14.75ZM2.25 14.1802C2.25 13.766 2.58579 13.4302 3 13.4302H10C10.4142 13.4302 10.75 13.766 10.75 14.1802V21.1802C10.75 21.5944 10.4142 21.9302 10 21.9302H3C2.58579 21.9302 2.25 21.5944 2.25 21.1802V14.1802ZM3.75 14.9302V20.4302H9.25V14.9302H3.75ZM14 13.4302C13.5858 13.4302 13.25 13.766 13.25 14.1802V21.1802C13.25 21.5944 13.5858 21.9302 14 21.9302H21C21.4142 21.9302 21.75 21.5944 21.75 21.1802V14.1802C21.75 13.766 21.4142 13.4302 21 13.4302H14ZM14.75 20.4302V14.9302H20.25V20.4302H14.75Z" fill="white"/>
</svg>
