<svg width="24" height="25" viewBox="0 0 24 25" fill="none" xmlns="http://www.w3.org/2000/svg">
<path fill-rule="evenodd" clip-rule="evenodd" d="M3.75 6.68018C3.75 5.16139 4.98122 3.93018 6.5 3.93018C8.01878 3.93018 9.25 5.16139 9.25 6.68018C9.25 8.19896 8.01878 9.43018 6.5 9.43018C4.98122 9.43018 3.75 8.19896 3.75 6.68018ZM6.5 2.43018C4.15279 2.43018 2.25 4.33297 2.25 6.68018C2.25 9.02739 4.15279 10.9302 6.5 10.9302C8.84721 10.9302 10.75 9.02739 10.75 6.68018C10.75 4.33297 8.84721 2.43018 6.5 2.43018ZM14.75 6.68018C14.75 5.16139 15.9812 3.93018 17.5 3.93018C19.0188 3.93018 20.25 5.16139 20.25 6.68018C20.25 8.19896 19.0188 9.43018 17.5 9.43018C15.9812 9.43018 14.75 8.19896 14.75 6.68018ZM17.5 2.43018C15.1528 2.43018 13.25 4.33297 13.25 6.68018C13.25 9.02739 15.1528 10.9302 17.5 10.9302C19.8472 10.9302 21.75 9.02739 21.75 6.68018C21.75 4.33297 19.8472 2.43018 17.5 2.43018ZM17.5 14.9302C15.9812 14.9302 14.75 16.1614 14.75 17.6802C14.75 19.199 15.9812 20.4302 17.5 20.4302C19.0188 20.4302 20.25 19.199 20.25 17.6802C20.25 16.1614 19.0188 14.9302 17.5 14.9302ZM13.25 17.6802C13.25 15.333 15.1528 13.4302 17.5 13.4302C19.8472 13.4302 21.75 15.333 21.75 17.6802C21.75 20.0274 19.8472 21.9302 17.5 21.9302C15.1528 21.9302 13.25 20.0274 13.25 17.6802ZM3.75 17.6802C3.75 16.1614 4.98122 14.9302 6.5 14.9302C8.01878 14.9302 9.25 16.1614 9.25 17.6802C9.25 19.199 8.01878 20.4302 6.5 20.4302C4.98122 20.4302 3.75 19.199 3.75 17.6802ZM6.5 13.4302C4.15279 13.4302 2.25 15.333 2.25 17.6802C2.25 20.0274 4.15279 21.9302 6.5 21.9302C8.84721 21.9302 10.75 20.0274 10.75 17.6802C10.75 15.333 8.84721 13.4302 6.5 13.4302Z" fill="white"/>
</svg>
