<svg width="24" height="25" viewBox="0 0 24 25" fill="none" xmlns="http://www.w3.org/2000/svg">
<path fill-rule="evenodd" clip-rule="evenodd" d="M3 2.43018C2.58579 2.43018 2.25 2.76596 2.25 3.18018V12.1802C2.25 12.5944 2.58579 12.9302 3 12.9302H10C10.4142 12.9302 10.75 12.5944 10.75 12.1802V3.18018C10.75 2.76596 10.4142 2.43018 10 2.43018H3ZM3.75 11.4302V3.93018H9.25V11.4302H3.75ZM3 15.4302C2.58579 15.4302 2.25 15.766 2.25 16.1802V21.1802C2.25 21.5944 2.58579 21.9302 3 21.9302H10C10.4142 21.9302 10.75 21.5944 10.75 21.1802V16.1802C10.75 15.766 10.4142 15.4302 10 15.4302H3ZM3.75 20.4302V16.9302H9.25V20.4302H3.75ZM13.25 3.18018C13.25 2.76596 13.5858 2.43018 14 2.43018H21C21.4142 2.43018 21.75 2.76596 21.75 3.18018V8.18018C21.75 8.59439 21.4142 8.93018 21 8.93018H14C13.5858 8.93018 13.25 8.59439 13.25 8.18018V3.18018ZM14.75 3.93018V7.43018H20.25V3.93018H14.75ZM14 11.4302C13.5858 11.4302 13.25 11.766 13.25 12.1802V21.1802C13.25 21.5944 13.5858 21.9302 14 21.9302H21C21.4142 21.9302 21.75 21.5944 21.75 21.1802V12.1802C21.75 11.766 21.4142 11.4302 21 11.4302H14ZM14.75 20.4302V12.9302H20.25V20.4302H14.75Z" fill="white"/>
</svg>
