<svg width="24" height="25" viewBox="0 0 24 25" fill="none" xmlns="http://www.w3.org/2000/svg">
<path fill-rule="evenodd" clip-rule="evenodd" d="M2 3.31C1.58579 3.31 1.25 3.64578 1.25 4.06V20.06C1.25 20.4742 1.58579 20.81 2 20.81H22C22.4142 20.81 22.75 20.4742 22.75 20.06V4.06C22.75 3.64578 22.4142 3.31 22 3.31H2ZM2.75 19.31V4.81H21.25V19.31H2.75ZM6.41603 7.43596C6.07138 7.2062 5.60573 7.29933 5.37596 7.64397C5.1462 7.98862 5.23933 8.45427 5.58397 8.68404L11.584 12.684C11.8359 12.852 12.1641 12.852 12.416 12.684L18.416 8.68404C18.7607 8.45427 18.8538 7.98862 18.624 7.64397C18.3943 7.29933 17.9286 7.2062 17.584 7.43596L12 11.1586L6.41603 7.43596Z" fill="white"/>
</svg>
