<svg width="24" height="25" viewBox="0 0 24 25" fill="none" xmlns="http://www.w3.org/2000/svg">
<path fill-rule="evenodd" clip-rule="evenodd" d="M3.25 3.06C3.25 2.64578 3.58579 2.31 4 2.31H22C22.4142 2.31 22.75 2.64578 22.75 3.06V17.06C22.75 17.4742 22.4142 17.81 22 17.81H19.75V20.06C19.75 20.4742 19.4142 20.81 19 20.81H1C0.585786 20.81 0.25 20.4742 0.25 20.06V6.06C0.25 5.64578 0.585786 5.31 1 5.31C1.41421 5.31 1.75 5.64578 1.75 6.06V19.31H18.25V17.81H4C3.58579 17.81 3.25 17.4742 3.25 17.06V3.06ZM21.25 16.31H19H4.75V3.81H21.25V16.31ZM8.38587 6.41688C8.03069 6.20377 7.56999 6.31894 7.35688 6.67413C7.14377 7.02931 7.25894 7.49001 7.61413 7.70312L12.6141 10.7031C12.8516 10.8456 13.1484 10.8456 13.3859 10.7031L18.3859 7.70312C18.7411 7.49001 18.8562 7.02931 18.6431 6.67413C18.43 6.31894 17.9693 6.20377 17.6141 6.41688L13 9.18536L8.38587 6.41688Z" fill="white"/>
</svg>
