<svg width="24" height="25" viewBox="0 0 24 25" fill="none" xmlns="http://www.w3.org/2000/svg">
<path fill-rule="evenodd" clip-rule="evenodd" d="M12 2.48999C6.61522 2.48999 2.25 6.85521 2.25 12.24C2.25 17.6248 6.61522 21.99 12 21.99C17.3848 21.99 21.75 17.6248 21.75 12.24C21.75 6.85521 17.3848 2.48999 12 2.48999ZM3.75 12.24C3.75 7.68364 7.44365 3.98999 12 3.98999C16.5563 3.98999 20.25 7.68364 20.25 12.24C20.25 16.7963 16.5563 20.49 12 20.49C7.44365 20.49 3.75 16.7963 3.75 12.24ZM9 15.99C8.58579 15.99 8.25 15.6542 8.25 15.24C8.25 14.8258 8.58579 14.49 9 14.49H15C15.4142 14.49 15.75 14.8258 15.75 15.24C15.75 15.6542 15.4142 15.99 15 15.99H9ZM10 10.24C10 10.7923 9.55228 11.24 9 11.24C8.44772 11.24 8 10.7923 8 10.24C8 9.68771 8.44772 9.23999 9 9.23999C9.55228 9.23999 10 9.68771 10 10.24ZM15 11.24C15.5523 11.24 16 10.7923 16 10.24C16 9.68771 15.5523 9.23999 15 9.23999C14.4477 9.23999 14 9.68771 14 10.24C14 10.7923 14.4477 11.24 15 11.24Z" fill="white"/>
</svg>
