<svg width="24" height="25" viewBox="0 0 24 25" fill="none" xmlns="http://www.w3.org/2000/svg">
<path fill-rule="evenodd" clip-rule="evenodd" d="M12 2.48999C6.61522 2.48999 2.25 6.85521 2.25 12.24C2.25 17.6248 6.61522 21.99 12 21.99C17.3848 21.99 21.75 17.6248 21.75 12.24C21.75 6.85521 17.3848 2.48999 12 2.48999ZM3.75 12.24C3.75 7.68364 7.44365 3.98999 12 3.98999C16.5563 3.98999 20.25 7.68364 20.25 12.24C20.25 16.7963 16.5563 20.49 12 20.49C7.44365 20.49 3.75 16.7963 3.75 12.24ZM8.59919 16.6904C8.35042 17.0216 7.88027 17.0884 7.54908 16.8397C7.21789 16.5909 7.15107 16.1207 7.39984 15.7896C8.4476 14.3946 10.1182 13.49 11.9999 13.49C13.8816 13.49 15.5522 14.3946 16.5999 15.7896C16.8487 16.1207 16.7819 16.5909 16.4507 16.8397C16.1195 17.0884 15.6493 17.0216 15.4006 16.6904C14.6239 15.6565 13.3898 14.99 11.9999 14.99C10.6099 14.99 9.37583 15.6565 8.59919 16.6904ZM10 10.24C10 10.7923 9.55228 11.24 9 11.24C8.44772 11.24 8 10.7923 8 10.24C8 9.68771 8.44772 9.23999 9 9.23999C9.55228 9.23999 10 9.68771 10 10.24ZM15 11.24C15.5523 11.24 16 10.7923 16 10.24C16 9.68771 15.5523 9.23999 15 9.23999C14.4477 9.23999 14 9.68771 14 10.24C14 10.7923 14.4477 11.24 15 11.24Z" fill="white"/>
</svg>
