<svg width="24" height="25" viewBox="0 0 24 25" fill="none" xmlns="http://www.w3.org/2000/svg">
<path fill-rule="evenodd" clip-rule="evenodd" d="M12 2.48999C6.61522 2.48999 2.25 6.85521 2.25 12.24C2.25 17.6248 6.61522 21.99 12 21.99C17.3848 21.99 21.75 17.6248 21.75 12.24C21.75 6.85521 17.3848 2.48999 12 2.48999ZM3.75 12.24C3.75 7.68364 7.44365 3.98999 12 3.98999C16.5563 3.98999 20.25 7.68364 20.25 12.24C20.25 16.7963 16.5563 20.49 12 20.49C7.44365 20.49 3.75 16.7963 3.75 12.24ZM7 12.49C6.76141 12.49 6.53705 12.6035 6.39572 12.7958C6.2544 12.988 6.21297 13.236 6.28415 13.4637L7 13.24C6.28415 13.4637 6.28425 13.464 6.28435 13.4644L6.28458 13.4651L6.28513 13.4669L6.2866 13.4715L6.29099 13.485C6.29456 13.4959 6.29945 13.5106 6.3057 13.5288C6.31819 13.5651 6.33613 13.6155 6.35984 13.678C6.40722 13.8028 6.47797 13.9767 6.57485 14.1833C6.76772 14.5948 7.06888 15.1463 7.50281 15.7017C8.3724 16.8148 9.819 17.99 12 17.99C14.181 17.99 15.6276 16.8148 16.4972 15.7017C16.9311 15.1463 17.2323 14.5948 17.4252 14.1833C17.522 13.9767 17.5928 13.8028 17.6402 13.678C17.6639 13.6155 17.6818 13.5651 17.6943 13.5288L17.7024 13.505L17.709 13.485L17.7134 13.4715L17.7149 13.4669L17.7154 13.4651L17.7156 13.4644C17.7158 13.464 17.7158 13.4637 17 13.24L17.7158 13.4637C17.787 13.236 17.7456 12.988 17.6043 12.7958C17.463 12.6035 17.2386 12.49 17 12.49H7ZM8.68483 14.7782C8.47404 14.5084 8.30067 14.2372 8.16145 13.99H15.8386C15.6993 14.2372 15.526 14.5084 15.3152 14.7782C14.6222 15.6652 13.5688 16.49 12 16.49C10.4312 16.49 9.3778 15.6652 8.68483 14.7782ZM10 9.23999C10 9.79227 9.55228 10.24 9 10.24C8.44772 10.24 8 9.79227 8 9.23999C8 8.68771 8.44772 8.23999 9 8.23999C9.55228 8.23999 10 8.68771 10 9.23999ZM15 10.24C15.5523 10.24 16 9.79227 16 9.23999C16 8.68771 15.5523 8.23999 15 8.23999C14.4477 8.23999 14 8.68771 14 9.23999C14 9.79227 14.4477 10.24 15 10.24Z" fill="white"/>
</svg>
