<svg width="24" height="25" viewBox="0 0 24 25" fill="none" xmlns="http://www.w3.org/2000/svg">
<path fill-rule="evenodd" clip-rule="evenodd" d="M12 2.48999C6.61522 2.48999 2.25 6.85521 2.25 12.24C2.25 17.6248 6.61522 21.99 12 21.99C17.3848 21.99 21.75 17.6248 21.75 12.24C21.75 6.85521 17.3848 2.48999 12 2.48999ZM3.75 12.24C3.75 7.68364 7.44365 3.98999 12 3.98999C16.5563 3.98999 20.25 7.68364 20.25 12.24C20.25 16.7963 16.5563 20.49 12 20.49C7.44365 20.49 3.75 16.7963 3.75 12.24ZM9 10.24C9.55228 10.24 10 9.79227 10 9.23999C10 8.68771 9.55228 8.23999 9 8.23999C8.44772 8.23999 8 8.68771 8 9.23999C8 9.79227 8.44772 10.24 9 10.24ZM16 9.23999C16 9.79227 15.5523 10.24 15 10.24C14.4477 10.24 14 9.79227 14 9.23999C14 8.68771 14.4477 8.23999 15 8.23999C15.5523 8.23999 16 8.68771 16 9.23999ZM12 11.49C10.4812 11.49 9.25 12.7212 9.25 14.24V16.24C9.25 17.7588 10.4812 18.99 12 18.99C13.5188 18.99 14.75 17.7588 14.75 16.24V14.24C14.75 12.7212 13.5188 11.49 12 11.49ZM10.75 14.24C10.75 13.5496 11.3096 12.99 12 12.99C12.6904 12.99 13.25 13.5496 13.25 14.24V16.24C13.25 16.9303 12.6904 17.49 12 17.49C11.3096 17.49 10.75 16.9303 10.75 16.24V14.24Z" fill="white"/>
</svg>
