<svg width="24" height="25" viewBox="0 0 24 25" fill="none" xmlns="http://www.w3.org/2000/svg">
<path fill-rule="evenodd" clip-rule="evenodd" d="M3 2.43018C2.58579 2.43018 2.25 2.76596 2.25 3.18018V10.1802C2.25 10.5944 2.58579 10.9302 3 10.9302H21C21.4142 10.9302 21.75 10.5944 21.75 10.1802V3.18018C21.75 2.76596 21.4142 2.43018 21 2.43018H3ZM3.75 9.43018V3.93018H20.25V9.43018H3.75ZM3 13.4302C2.58579 13.4302 2.25 13.766 2.25 14.1802V21.1802C2.25 21.5944 2.58579 21.9302 3 21.9302H15C15.4142 21.9302 15.75 21.5944 15.75 21.1802V14.1802C15.75 13.766 15.4142 13.4302 15 13.4302H3ZM3.75 20.4302V14.9302H14.25V20.4302H3.75Z" fill="white"/>
</svg>
