<svg width="24" height="25" viewBox="0 0 24 25" fill="none" xmlns="http://www.w3.org/2000/svg">
<path fill-rule="evenodd" clip-rule="evenodd" d="M5 3.08011C4.58579 3.08011 4.25 3.4159 4.25 3.83011V21.8301C4.25 22.2443 4.58579 22.5801 5 22.5801H19C19.4142 22.5801 19.75 22.2443 19.75 21.8301V7.83011C19.75 7.6312 19.671 7.44043 19.5303 7.29978L15.5303 3.29978C15.3897 3.15913 15.1989 3.08011 15 3.08011H5ZM5.75 21.0801V4.58011H13.25V8.83019C13.25 9.24441 13.5858 9.58019 14 9.58019H18.25V21.0801H5.75ZM18.1894 8.08019L14.75 4.64077V8.08019H18.1894ZM11.5303 12.3605C11.8232 12.0676 11.8232 11.5928 11.5303 11.2999C11.2374 11.007 10.7626 11.007 10.4697 11.2999L8.46967 13.2999C8.17678 13.5928 8.17678 14.0676 8.46967 14.3605L10.4697 16.3605C10.7626 16.6534 11.2374 16.6534 11.5303 16.3605C11.8232 16.0676 11.8232 15.5928 11.5303 15.2999L10.0607 13.8302L11.5303 12.3605ZM12.4697 14.3605L13.9393 15.8302L12.4697 17.2999C12.1768 17.5928 12.1768 18.0676 12.4697 18.3605C12.7626 18.6534 13.2374 18.6534 13.5303 18.3605L15.5303 16.3605C15.8232 16.0676 15.8232 15.5928 15.5303 15.2999L13.5303 13.2999C13.2374 13.007 12.7626 13.007 12.4697 13.2999C12.1768 13.5928 12.1768 14.0676 12.4697 14.3605Z" fill="white"/>
</svg>
