<svg width="24" height="25" viewBox="0 0 24 25" fill="none" xmlns="http://www.w3.org/2000/svg">
<path fill-rule="evenodd" clip-rule="evenodd" d="M4.25 3.83011C4.25 3.4159 4.58579 3.08011 5 3.08011H15C15.1989 3.08011 15.3897 3.15913 15.5303 3.29978L19.5303 7.29978C19.671 7.44043 19.75 7.6312 19.75 7.83011V21.8301C19.75 22.2443 19.4142 22.5801 19 22.5801H5C4.58579 22.5801 4.25 22.2443 4.25 21.8301V3.83011ZM5.75 4.58011V21.0801H18.25V9.58019H14C13.5858 9.58019 13.25 9.24441 13.25 8.83019V4.58011H5.75ZM14.75 4.64077L18.1894 8.08019H14.75V4.64077ZM9.57922 13.5568C9.88701 13.172 10.4447 13.1012 10.8389 13.3968L11.55 13.9302C11.8167 14.1302 12.1833 14.1302 12.45 13.9302L13.1611 13.3968C13.5553 13.1012 14.113 13.172 14.4208 13.5568C14.7257 13.9379 14.6765 14.4917 14.3092 14.8131L12 16.8336L9.69084 14.8131C9.32346 14.4917 9.27427 13.9379 9.57922 13.5568ZM11.7389 12.1968C10.6965 11.4151 9.22183 11.6023 8.40792 12.6197C7.60151 13.6277 7.7316 15.0919 8.70309 15.942L11.2899 18.2054C11.6965 18.5612 12.3035 18.5612 12.7101 18.2054L15.2969 15.942C16.2684 15.0919 16.3985 13.6277 15.5921 12.6197C14.7782 11.6023 13.3035 11.4151 12.2611 12.1968L12 12.3927L11.7389 12.1968Z" fill="white"/>
</svg>
