<svg width="24" height="25" viewBox="0 0 24 25" fill="none" xmlns="http://www.w3.org/2000/svg">
<path fill-rule="evenodd" clip-rule="evenodd" d="M2 2.31C1.58579 2.31 1.25 2.64578 1.25 3.06V6.06C1.25 6.47421 1.58579 6.81 2 6.81H3.25V21.06C3.25 21.4742 3.58579 21.81 4 21.81H20C20.4142 21.81 20.75 21.4742 20.75 21.06V6.81H22C22.4142 6.81 22.75 6.47421 22.75 6.06V3.06C22.75 2.64578 22.4142 2.31 22 2.31H2ZM19.25 6.81H4.75V20.31H19.25V6.81ZM20 5.31H21.25V3.81H2.75V5.31H4H20ZM8.25 10.06C8.25 9.64578 8.58579 9.31 9 9.31H15C15.4142 9.31 15.75 9.64578 15.75 10.06C15.75 10.4742 15.4142 10.81 15 10.81H9C8.58579 10.81 8.25 10.4742 8.25 10.06Z" fill="white"/>
</svg>
