<svg width="24" height="25" viewBox="0 0 24 25" fill="none" xmlns="http://www.w3.org/2000/svg">
<path fill-rule="evenodd" clip-rule="evenodd" d="M5 3.08011C4.58579 3.08011 4.25 3.4159 4.25 3.83011V13.0802H3C2.58579 13.0802 2.25 13.416 2.25 13.8302C2.25 14.2444 2.58579 14.5802 3 14.5802H5H19H21C21.4142 14.5802 21.75 14.2444 21.75 13.8302C21.75 13.416 21.4142 13.0802 21 13.0802H19.75V7.83011C19.75 7.6312 19.671 7.44043 19.5303 7.29978L15.5303 3.29978C15.3897 3.15913 15.1989 3.08011 15 3.08011H5ZM18.25 13.0802H5.75V4.58011H13.25V8.83019C13.25 9.24441 13.5858 9.58019 14 9.58019H18.25V13.0802ZM18.1894 8.08019L14.75 4.64077V8.08019H18.1894ZM6 16.0801C6.41421 16.0801 6.75 16.4159 6.75 16.8301V19.8301C6.75 20.2443 6.41421 20.5801 6 20.5801C5.58579 20.5801 5.25 20.2443 5.25 19.8301V16.8301C5.25 16.4159 5.58579 16.0801 6 16.0801ZM10.75 16.8301C10.75 16.4159 10.4142 16.0801 10 16.0801C9.58579 16.0801 9.25 16.4159 9.25 16.8301V21.8301C9.25 22.2443 9.58579 22.5801 10 22.5801C10.4142 22.5801 10.75 22.2443 10.75 21.8301V16.8301ZM14 16.0801C14.4142 16.0801 14.75 16.4159 14.75 16.8301V21.8301C14.75 22.2443 14.4142 22.5801 14 22.5801C13.5858 22.5801 13.25 22.2443 13.25 21.8301V16.8301C13.25 16.4159 13.5858 16.0801 14 16.0801ZM18.75 16.8301C18.75 16.4159 18.4142 16.0801 18 16.0801C17.5858 16.0801 17.25 16.4159 17.25 16.8301V19.8301C17.25 20.2443 17.5858 20.5801 18 20.5801C18.4142 20.5801 18.75 20.2443 18.75 19.8301V16.8301Z" fill="white"/>
</svg>
