<svg width="24" height="25" viewBox="0 0 24 25" fill="none" xmlns="http://www.w3.org/2000/svg">
<path fill-rule="evenodd" clip-rule="evenodd" d="M2.75 3.08011C2.33579 3.08011 2 3.4159 2 3.83011V21.8301C2 22.2443 2.33579 22.5801 2.75 22.5801H16.75C17.1642 22.5801 17.5 22.2443 17.5 21.8301V18.8302C17.5 18.4159 17.1642 18.0802 16.75 18.0802C16.3358 18.0802 16 18.4159 16 18.8302V21.0801H3.5V4.58011H11V8.83019C11 9.24441 11.3358 9.58019 11.75 9.58019H16.0427C16.1457 9.87147 16.4235 10.0802 16.75 10.0802C17.1642 10.0802 17.5 9.74437 17.5 9.33016V7.83011C17.5 7.6312 17.421 7.44043 17.2803 7.29978L13.2803 3.29978C13.1397 3.15913 12.9489 3.08011 12.75 3.08011H2.75ZM15.9394 8.08019L12.5 4.64077V8.08019H15.9394ZM4 7.83015C4 7.41594 4.33579 7.08015 4.75 7.08015H9.75C10.1642 7.08015 10.5 7.41594 10.5 7.83015C10.5 8.24437 10.1642 8.58015 9.75 8.58015H4.75C4.33579 8.58015 4 8.24437 4 7.83015ZM4.75 11.0802C4.33579 11.0802 4 11.4159 4 11.8302C4 12.2444 4.33579 12.5802 4.75 12.5802H8.75C9.16421 12.5802 9.5 12.2444 9.5 11.8302C9.5 11.4159 9.16421 11.0802 8.75 11.0802H4.75ZM4 15.8302C4 15.4159 4.33579 15.0802 4.75 15.0802H7.25C7.66421 15.0802 8 15.4159 8 15.8302C8 16.2444 7.66421 16.5802 7.25 16.5802H4.75C4.33579 16.5802 4 16.2444 4 15.8302ZM20.4072 10.173C20.1824 9.94812 19.8178 9.94812 19.5929 10.173L19.1747 10.5911C19.216 11.0199 19.5603 11.3642 19.9891 11.4054L20.4072 10.9873C20.6321 10.7624 20.6321 10.3979 20.4072 10.173ZM13.9722 15.7936L18.0176 11.7482C18.2196 12.0805 18.4997 12.3606 18.832 12.5625L14.7865 16.608C13.9798 17.4147 13.6704 17.7153 13.3063 17.9214C13.0583 18.0618 12.7859 18.1579 12.2878 18.2923C12.4222 17.7942 12.5183 17.5218 12.6587 17.2739C12.8649 16.9098 13.1654 16.6004 13.9722 15.7936ZM18.5323 9.11232C19.3429 8.30166 20.6573 8.30168 21.4679 9.11235C22.2785 9.92301 22.2785 11.2373 21.4679 12.0479L15.8472 17.6686L15.7737 17.7422L15.7737 17.7422L15.7736 17.7422C15.0656 18.4505 14.6083 18.908 14.0453 19.2267C13.4823 19.5455 12.8548 19.7023 11.8831 19.945L11.7822 19.9702L11.4319 20.0578C11.1763 20.1217 10.906 20.0468 10.7197 19.8605C10.5334 19.6742 10.4585 19.4038 10.5224 19.1483L10.61 18.798L10.6352 18.6971L10.6352 18.6971C10.8779 17.7254 11.0347 17.0978 11.3534 16.5348C11.6722 15.9719 12.1296 15.5146 12.838 14.8065L12.9116 14.733L18.5323 9.11232Z" fill="white"/>
</svg>
