<svg width="24" height="25" viewBox="0 0 24 25" fill="none" xmlns="http://www.w3.org/2000/svg">
<path fill-rule="evenodd" clip-rule="evenodd" d="M4.25 3.83011C4.25 3.4159 4.58579 3.08011 5 3.08011H15C15.1989 3.08011 15.3897 3.15913 15.5303 3.29978L19.5303 7.29978C19.671 7.44043 19.75 7.6312 19.75 7.83011V21.8301C19.75 22.2443 19.4142 22.5801 19 22.5801H5C4.58579 22.5801 4.25 22.2443 4.25 21.8301V3.83011ZM5.75 4.58011V21.0801H18.25V9.58019H14C13.5858 9.58019 13.25 9.24441 13.25 8.83019V4.58011H5.75ZM14.75 4.64077V8.08019H18.1894L14.75 4.64077ZM12 11.0802C12.4142 11.0802 12.75 11.416 12.75 11.8302V16.0195L13.9697 14.7999C14.2626 14.507 14.7374 14.507 15.0303 14.7999C15.3232 15.0928 15.3232 15.5676 15.0303 15.8605L12.5303 18.3605C12.2374 18.6534 11.7626 18.6534 11.4697 18.3605L8.96967 15.8605C8.67678 15.5676 8.67678 15.0928 8.96967 14.7999C9.26256 14.507 9.73744 14.507 10.0303 14.7999L11.25 16.0195V11.8302C11.25 11.416 11.5858 11.0802 12 11.0802Z" fill="white"/>
</svg>
