<svg width="24" height="25" viewBox="0 0 24 25" fill="none" xmlns="http://www.w3.org/2000/svg">
<path fill-rule="evenodd" clip-rule="evenodd" d="M4.25 3.83011C4.25 3.4159 4.58579 3.08011 5 3.08011H15C15.1989 3.08011 15.3897 3.15913 15.5303 3.29978L19.5303 7.29978C19.671 7.44043 19.75 7.6312 19.75 7.83011V21.8301C19.75 22.2443 19.4142 22.5801 19 22.5801H5C4.58579 22.5801 4.25 22.2443 4.25 21.8301V3.83011ZM5.75 4.58011V21.0801H18.25V9.58019H14C13.5858 9.58019 13.25 9.24441 13.25 8.83019V4.58011H5.75ZM14.75 4.64077L18.1894 8.08019H14.75V4.64077ZM10.916 12.0529C10.7628 11.8231 10.4524 11.761 10.2226 11.9142C9.99289 12.0674 9.9308 12.3778 10.084 12.6076L11.25 14.3566V16.0802C11.25 16.3563 11.4739 16.5802 11.75 16.5802C12.0261 16.5802 12.25 16.3563 12.25 16.0802V14.3566L13.416 12.6076C13.5692 12.3778 13.5071 12.0674 13.2774 11.9142C13.0476 11.761 12.7372 11.8231 12.584 12.0529L11.75 13.3038L10.916 12.0529ZM14.6787 12.073C14.5631 11.8802 14.3331 11.7884 14.1165 11.8484C13.8999 11.9083 13.75 12.1055 13.75 12.3302V16.0802C13.75 16.3563 13.9739 16.5802 14.25 16.5802C14.5261 16.5802 14.75 16.3563 14.75 16.0802V14.1354L15.3213 15.0875C15.4116 15.2381 15.5744 15.3302 15.75 15.3302C15.9256 15.3302 16.0884 15.2381 16.1787 15.0875L16.75 14.1354V16.0802C16.75 16.3563 16.9739 16.5802 17.25 16.5802C17.5261 16.5802 17.75 16.3563 17.75 16.0802V12.3302C17.75 12.1055 17.6001 11.9083 17.3835 11.8484C17.1669 11.7884 16.9369 11.8802 16.8213 12.073L15.75 13.8584L14.6787 12.073ZM6.25 12.3302C6.25 12.0541 6.47386 11.8302 6.75 11.8302H9.25C9.52614 11.8302 9.75 12.0541 9.75 12.3302C9.75 12.6063 9.52614 12.8302 9.25 12.8302H7.25V13.7052H9.25C9.52614 13.7052 9.75 13.9291 9.75 14.2052V16.0802C9.75 16.3563 9.52614 16.5802 9.25 16.5802H6.75C6.47386 16.5802 6.25 16.3563 6.25 16.0802C6.25 15.8041 6.47386 15.5802 6.75 15.5802H8.75V14.7052H6.75C6.47386 14.7052 6.25 14.4813 6.25 14.2052V12.3302Z" fill="white"/>
</svg>
