<svg width="24" height="25" viewBox="0 0 24 25" fill="none" xmlns="http://www.w3.org/2000/svg">
<path fill-rule="evenodd" clip-rule="evenodd" d="M4.25 3.83011C4.25 3.4159 4.58579 3.08011 5 3.08011H15C15.1989 3.08011 15.3897 3.15913 15.5303 3.29978L19.5303 7.29978C19.671 7.44043 19.75 7.6312 19.75 7.83011V21.8301C19.75 22.2443 19.4142 22.5801 19 22.5801H5C4.58579 22.5801 4.25 22.2443 4.25 21.8301V3.83011ZM5.75 4.58011V21.0801H18.25V9.58019H14C13.5858 9.58019 13.25 9.24441 13.25 8.83019V4.58011H5.75ZM14.75 4.64077L18.1894 8.08019H14.75V4.64077ZM10.5303 12.2999C10.2374 12.007 9.76256 12.007 9.46967 12.2999C9.17678 12.5928 9.17678 13.0676 9.46967 13.3605L10.9393 14.8302L9.46967 16.2999C9.17678 16.5928 9.17678 17.0676 9.46967 17.3605C9.76256 17.6534 10.2374 17.6534 10.5303 17.3605L12 15.8909L13.4697 17.3605C13.7626 17.6534 14.2374 17.6534 14.5303 17.3605C14.8232 17.0676 14.8232 16.5928 14.5303 16.2999L13.0607 14.8302L14.5303 13.3605C14.8232 13.0676 14.8232 12.5928 14.5303 12.2999C14.2374 12.007 13.7626 12.007 13.4697 12.2999L12 13.7695L10.5303 12.2999Z" fill="white"/>
</svg>
