<svg width="24" height="25" viewBox="0 0 24 25" fill="none" xmlns="http://www.w3.org/2000/svg">
<path fill-rule="evenodd" clip-rule="evenodd" d="M2.25 12.06C2.25 6.67682 6.58419 2.31 12 2.31C15.2226 2.31 17.6366 3.6559 19.2301 4.98383C19.6171 5.30627 19.9569 5.62863 20.25 5.93217V5.56C20.25 5.14578 20.5858 4.81 21 4.81C21.4142 4.81 21.75 5.14578 21.75 5.56V8.06C21.75 8.47421 21.4142 8.81 21 8.81H19C18.5858 8.81 18.25 8.47421 18.25 8.06C18.25 7.64578 18.5858 7.31 19 7.31H19.4824C19.1637 6.95199 18.7593 6.54401 18.2699 6.13616C16.8634 4.9641 14.7774 3.81 12 3.81C7.41581 3.81 3.75 7.50205 3.75 12.06C3.75 12.4742 3.41421 12.81 3 12.81C2.58579 12.81 2.25 12.4742 2.25 12.06ZM21 11.31C21.4142 11.31 21.75 11.6458 21.75 12.06C21.75 17.4448 17.3848 21.81 12 21.81C9.25451 21.81 7.082 20.43 5.63227 19.1156C5.30412 18.8181 5.00955 18.5209 4.75 18.2389V18.56C4.75 18.9742 4.41421 19.31 4 19.31C3.58579 19.31 3.25 18.9742 3.25 18.56V16.06C3.25 15.6458 3.58579 15.31 4 15.31H6.06448C6.47869 15.31 6.81448 15.6458 6.81448 16.06C6.81448 16.4742 6.47869 16.81 6.06448 16.81H5.48953C5.79687 17.1741 6.18242 17.5897 6.63981 18.0044C7.94744 19.19 9.77493 20.31 12 20.31C16.5563 20.31 20.25 16.6163 20.25 12.06C20.25 11.6458 20.5858 11.31 21 11.31Z" fill="white"/>
<path fill-rule="evenodd" clip-rule="evenodd" d="M8.7085 5.93494C8.29428 5.93494 7.9585 6.27072 7.9585 6.68494V16.4349C7.9585 16.8492 8.29428 17.1849 8.7085 17.1849H16.2918C16.706 17.1849 17.0418 16.8492 17.0418 16.4349V8.8516C17.0418 8.65269 16.9628 8.46193 16.8222 8.32127L14.6555 6.15461C14.5148 6.01395 14.3241 5.93494 14.1252 5.93494H8.7085ZM9.4585 15.6849V7.43494H12.8335V9.39332C12.8335 9.80753 13.1693 10.1433 13.5835 10.1433H15.5418V15.6849H9.4585ZM15.0229 8.64332L14.3335 7.95393V8.64332H15.0229Z" fill="white"/>
</svg>
