<svg width="24" height="25" viewBox="0 0 24 25" fill="none" xmlns="http://www.w3.org/2000/svg">
<path fill-rule="evenodd" clip-rule="evenodd" d="M4.25 3.83011C4.25 3.4159 4.58579 3.08011 5 3.08011H15C15.1989 3.08011 15.3897 3.15913 15.5303 3.29978L19.5303 7.29978C19.671 7.44043 19.75 7.6312 19.75 7.83011V21.8301C19.75 22.2443 19.4142 22.5801 19 22.5801H5C4.58579 22.5801 4.25 22.2443 4.25 21.8301V3.83011ZM5.75 4.58011V21.0801H18.25V9.58019H14C13.5858 9.58019 13.25 9.24441 13.25 8.83019V4.58011H5.75ZM14.75 4.64077L18.1894 8.08019H14.75V4.64077ZM13.0303 11.7999C12.7374 11.507 12.2626 11.507 11.9697 11.7999C11.6768 12.0928 11.6768 12.5676 11.9697 12.8605L13.1893 14.0802H9C8.58579 14.0802 8.25 14.416 8.25 14.8302C8.25 15.2444 8.58579 15.5802 9 15.5802H13.1893L11.9697 16.7999C11.6768 17.0928 11.6768 17.5676 11.9697 17.8605C12.2626 18.1534 12.7374 18.1534 13.0303 17.8605L15.5303 15.3605C15.8232 15.0676 15.8232 14.5928 15.5303 14.2999L13.0303 11.7999Z" fill="white"/>
</svg>
