<svg width="24" height="25" viewBox="0 0 24 25" fill="none" xmlns="http://www.w3.org/2000/svg">
<path fill-rule="evenodd" clip-rule="evenodd" d="M4.25 3.83011C4.25 3.4159 4.58579 3.08011 5 3.08011H15C15.1989 3.08011 15.3897 3.15913 15.5303 3.29978L19.5303 7.29978C19.671 7.44043 19.75 7.6312 19.75 7.83011V21.8301C19.75 22.2443 19.4142 22.5801 19 22.5801H5C4.58579 22.5801 4.25 22.2443 4.25 21.8301V3.83011ZM5.75 4.58011V21.0801H18.25V9.58019H14C13.5858 9.58019 13.25 9.24441 13.25 8.83019V4.58011H5.75ZM14.75 4.64077L18.1894 8.08019H14.75V4.64077ZM12.1708 14.4948C12.0438 14.2407 11.7841 14.0802 11.5 14.0802C11.2159 14.0802 10.9562 14.2407 10.8292 14.4948L9.53647 17.0802H9C8.58579 17.0802 8.25 17.416 8.25 17.8302C8.25 18.2444 8.58579 18.5802 9 18.5802H10C10.2841 18.5802 10.5438 18.4197 10.6708 18.1656L11.5 16.5073L12.3292 18.1656C12.4562 18.4197 12.7159 18.5802 13 18.5802H15C15.4142 18.5802 15.75 18.2444 15.75 17.8302C15.75 17.416 15.4142 17.0802 15 17.0802H13.4635L12.1708 14.4948Z" fill="white"/>
</svg>
