<svg width="24" height="25" viewBox="0 0 24 25" fill="none" xmlns="http://www.w3.org/2000/svg">
<path fill-rule="evenodd" clip-rule="evenodd" d="M5 3.08011C4.58579 3.08011 4.25 3.4159 4.25 3.83011V12.8301C4.25 13.2443 4.58579 13.5801 5 13.5801C5.41421 13.5801 5.75 13.2443 5.75 12.8301V4.58011H13.25V8.83019C13.25 9.24441 13.5858 9.58019 14 9.58019H18.25V12.8301C18.25 13.2443 18.5858 13.5801 19 13.5801C19.4142 13.5801 19.75 13.2443 19.75 12.8301V7.83011C19.75 7.6312 19.671 7.44043 19.5303 7.29978L15.5303 3.29978C15.3897 3.15913 15.1989 3.08011 15 3.08011H5ZM18.1894 8.08019L14.75 4.64077V8.08019H18.1894ZM5.75 15.8302C5.75 15.416 5.41421 15.0802 5 15.0802C4.58579 15.0802 4.25 15.416 4.25 15.8302V16.8302V21.8301C4.25 22.2443 4.58579 22.5801 5 22.5801H10.5C10.9142 22.5801 11.25 22.2443 11.25 21.8301C11.25 21.4159 10.9142 21.0801 10.5 21.0801H5.75V16.8302V15.8302ZM18.25 15.8302V16.8302V21.0801H13.5C13.0858 21.0801 12.75 21.4159 12.75 21.8301C12.75 22.2443 13.0858 22.5801 13.5 22.5801H19C19.4142 22.5801 19.75 22.2443 19.75 21.8301V16.8302V15.8302C19.75 15.416 19.4142 15.0802 19 15.0802C18.5858 15.0802 18.25 15.416 18.25 15.8302Z" fill="white"/>
</svg>
