<svg width="24" height="25" viewBox="0 0 24 25" fill="none" xmlns="http://www.w3.org/2000/svg">
<path fill-rule="evenodd" clip-rule="evenodd" d="M4.25 3.83011C4.25 3.4159 4.58579 3.08011 5 3.08011H15C15.1989 3.08011 15.3897 3.15913 15.5303 3.29978L19.5303 7.29978C19.671 7.44043 19.75 7.6312 19.75 7.83011V21.8301C19.75 22.2443 19.4142 22.5801 19 22.5801H5C4.58579 22.5801 4.25 22.2443 4.25 21.8301V3.83011ZM5.75 4.58011V21.0801H18.25V9.58019H14C13.5858 9.58019 13.25 9.24441 13.25 8.83019V4.58011H5.75ZM14.75 4.64077L18.1894 8.08019H14.75V4.64077ZM9.5 14.0802C9.08579 14.0802 8.75 14.416 8.75 14.8302C8.75 15.2444 9.08579 15.5802 9.5 15.5802H14.5C14.9142 15.5802 15.25 15.2444 15.25 14.8302C15.25 14.416 14.9142 14.0802 14.5 14.0802H9.5Z" fill="white"/>
</svg>
