<svg width="24" height="25" viewBox="0 0 24 25" fill="none" xmlns="http://www.w3.org/2000/svg">
<path fill-rule="evenodd" clip-rule="evenodd" d="M2.53033 2.29975C2.23744 2.00685 1.76256 2.00685 1.46967 2.29975C1.17678 2.59264 1.17678 3.06752 1.46967 3.36041L4.46967 6.36041L18.4697 20.3604L21.4697 23.3604C21.7626 23.6533 22.2374 23.6533 22.5303 23.3604C22.8232 23.0675 22.8232 22.5926 22.5303 22.2997L19.75 19.5194V7.83008C19.75 7.63117 19.671 7.4404 19.5303 7.29975L15.5303 3.29975C15.3897 3.1591 15.1989 3.08008 15 3.08008H5C4.58579 3.08008 4.25 3.41586 4.25 3.83008V4.01942L2.53033 2.29975ZM18.25 9.58016V18.0194L5.75 5.51942V4.58008H13.25V8.83016C13.25 9.24438 13.5858 9.58016 14 9.58016H18.25ZM18.1894 8.08016L14.75 4.64074V8.08016H18.1894ZM5.75 9.8302V21.0801H16C16.4142 21.0801 16.75 21.4159 16.75 21.8301C16.75 22.2443 16.4142 22.5801 16 22.5801H5C4.58579 22.5801 4.25 22.2443 4.25 21.8301V9.8302C4.25 9.41599 4.58579 9.0802 5 9.0802C5.41421 9.0802 5.75 9.41599 5.75 9.8302Z" fill="white"/>
</svg>
