<svg width="24" height="25" viewBox="0 0 24 25" fill="none" xmlns="http://www.w3.org/2000/svg">
<path fill-rule="evenodd" clip-rule="evenodd" d="M4.25 3.83011C4.25 3.4159 4.58579 3.08011 5 3.08011H15C15.1989 3.08011 15.3897 3.15913 15.5303 3.29978L19.5303 7.29978C19.671 7.44043 19.75 7.6312 19.75 7.83011V21.8301C19.75 22.2443 19.4142 22.5801 19 22.5801H5C4.58579 22.5801 4.25 22.2443 4.25 21.8301V3.83011ZM5.75 4.58011V21.0801H18.25V9.58019H14C13.5858 9.58019 13.25 9.24441 13.25 8.83019V4.58011H5.75ZM14.75 4.64077L18.1894 8.08019H14.75V4.64077ZM15.5303 13.3605C15.8232 13.0676 15.8232 12.5928 15.5303 12.2999C15.2374 12.007 14.7626 12.007 14.4697 12.2999L11 15.7695L10.0303 14.7999C9.73744 14.507 9.26256 14.507 8.96967 14.7999C8.67678 15.0928 8.67678 15.5676 8.96967 15.8605L10.4697 17.3605C10.6103 17.5012 10.8011 17.5802 11 17.5802C11.1989 17.5802 11.3897 17.5012 11.5303 17.3605L15.5303 13.3605Z" fill="white"/>
</svg>
