<svg width="24" height="25" viewBox="0 0 24 25" fill="none" xmlns="http://www.w3.org/2000/svg">
<path fill-rule="evenodd" clip-rule="evenodd" d="M5 3.08011C4.58579 3.08011 4.25 3.4159 4.25 3.83011V21.8301C4.25 22.2443 4.58579 22.5801 5 22.5801H19C19.4142 22.5801 19.75 22.2443 19.75 21.8301V7.83011C19.75 7.6312 19.671 7.44043 19.5303 7.29978L15.5303 3.29978C15.3897 3.15913 15.1989 3.08011 15 3.08011H5ZM5.75 21.0801V4.58011H13.25V8.83019C13.25 9.24441 13.5858 9.58019 14 9.58019H18.25V21.0801H5.75ZM18.1894 8.08019L14.75 4.64077V8.08019H18.1894ZM9.25 11.8302C9.25 11.416 9.58579 11.0802 10 11.0802H11.25V10.8302C11.25 10.416 11.5858 10.0802 12 10.0802C12.4142 10.0802 12.75 10.416 12.75 10.8302V11.0802H14C14.4142 11.0802 14.75 11.416 14.75 11.8302C14.75 12.2444 14.4142 12.5802 14 12.5802H12H10.75V14.0802H14C14.4142 14.0802 14.75 14.416 14.75 14.8302V17.8302C14.75 18.2444 14.4142 18.5802 14 18.5802H12.75V18.8302C12.75 19.2444 12.4142 19.5802 12 19.5802C11.5858 19.5802 11.25 19.2444 11.25 18.8302V18.5802H10C9.58579 18.5802 9.25 18.2444 9.25 17.8302C9.25 17.416 9.58579 17.0802 10 17.0802H12H13.25V15.5802H10C9.58579 15.5802 9.25 15.2444 9.25 14.8302V11.8302Z" fill="white"/>
</svg>
