<svg width="24" height="25" viewBox="0 0 24 25" fill="none" xmlns="http://www.w3.org/2000/svg">
<path fill-rule="evenodd" clip-rule="evenodd" d="M5 3.08011C4.58579 3.08011 4.25 3.4159 4.25 3.83011V21.8301C4.25 22.2443 4.58579 22.5801 5 22.5801H19C19.4142 22.5801 19.75 22.2443 19.75 21.8301V7.83011C19.75 7.6312 19.671 7.44043 19.5303 7.29978L15.5303 3.29978C15.3897 3.15913 15.1989 3.08011 15 3.08011H5ZM5.75 21.0801V4.58011H13.25V8.83019C13.25 9.24441 13.5858 9.58019 14 9.58019H18.25V21.0801H5.75ZM18.1894 8.08019L14.75 4.64077V8.08019H18.1894Z" fill="white"/>
<path d="M7 15.5801V14.1738M7 14.1738V11.8301H8.32812C8.97533 11.8301 9.5 12.3547 9.5 13.002V13.002C9.5 13.6492 8.97533 14.1738 8.32812 14.1738H7Z" stroke="white" stroke-linecap="round" stroke-linejoin="round"/>
<path d="M14.5 15.5801V13.5488M17 11.8301H14.5V13.5488M14.5 13.5488H16.375" stroke="white" stroke-linecap="round" stroke-linejoin="round"/>
<path d="M11.375 11.8301H10.75V15.5801H11.375C12.4105 15.5801 13.25 14.7406 13.25 13.7051C13.25 12.6695 12.4105 11.8301 11.375 11.8301Z" stroke="white" stroke-linecap="round" stroke-linejoin="round"/>
</svg>
