<svg width="24" height="25" viewBox="0 0 24 25" fill="none" xmlns="http://www.w3.org/2000/svg">
<path fill-rule="evenodd" clip-rule="evenodd" d="M4.25 3.83011C4.25 3.4159 4.58579 3.08011 5 3.08011H15C15.1989 3.08011 15.3897 3.15913 15.5303 3.29978L19.5303 7.29978C19.671 7.44043 19.75 7.6312 19.75 7.83011V21.8301C19.75 22.2443 19.4142 22.5801 19 22.5801H5C4.58579 22.5801 4.25 22.2443 4.25 21.8301V3.83011ZM5.75 4.58011V21.0801H18.25V9.58019H14C13.5858 9.58019 13.25 9.24441 13.25 8.83019V4.58011H5.75ZM14.75 4.64077L18.1894 8.08019H14.75V4.64077ZM11.3037 12.0729C11.1881 11.8802 10.9581 11.7883 10.7415 11.8483C10.5249 11.9083 10.375 12.1054 10.375 12.3302V16.0802C10.375 16.3563 10.5988 16.5802 10.875 16.5802C11.1511 16.5802 11.375 16.3563 11.375 16.0802V14.1353L12.6962 16.3374C12.8118 16.5301 13.0418 16.622 13.2584 16.562C13.475 16.502 13.625 16.3049 13.625 16.0802V12.3302C13.625 12.054 13.4011 11.8302 13.125 11.8302C12.8488 11.8302 12.625 12.054 12.625 12.3302V14.275L11.3037 12.0729ZM14.625 11.8302C14.3488 11.8302 14.125 12.054 14.125 12.3302V16.0802C14.125 16.3563 14.3488 16.5802 14.625 16.5802H17.125C17.4011 16.5802 17.625 16.3563 17.625 16.0802V14.3302C17.625 14.054 17.4011 13.8302 17.125 13.8302H16.125C15.8488 13.8302 15.625 14.054 15.625 14.3302C15.625 14.6063 15.8488 14.8302 16.125 14.8302H16.625V15.5802H15.125V12.8302H17.125C17.4011 12.8302 17.625 12.6063 17.625 12.3302C17.625 12.054 17.4011 11.8302 17.125 11.8302H14.625ZM6.37496 12.3302C6.37496 12.054 6.59882 11.8302 6.87496 11.8302H8.20309C9.12644 11.8302 9.87496 12.5787 9.87496 13.502C9.87496 14.4254 9.12644 15.1739 8.20309 15.1739H7.37496V16.0802C7.37496 16.3563 7.1511 16.5802 6.87496 16.5802C6.59882 16.5802 6.37496 16.3563 6.37496 16.0802V14.6739V12.3302ZM7.37496 14.1739H8.20309C8.57415 14.1739 8.87496 13.8731 8.87496 13.502C8.87496 13.131 8.57415 12.8302 8.20309 12.8302H7.37496V14.1739Z" fill="white"/>
</svg>
