<svg width="24" height="25" viewBox="0 0 24 25" fill="none" xmlns="http://www.w3.org/2000/svg">
<path fill-rule="evenodd" clip-rule="evenodd" d="M3.75 5.80995L7.04677 5.80995C7.46098 5.80994 7.79677 5.47416 7.79677 5.05995C7.79677 4.64573 7.46098 4.30994 7.04677 4.30995L3 4.30995C2.58579 4.30995 2.25 4.64574 2.25 5.05995V23.06C2.25 23.4742 2.58579 23.81 3 23.81H17C17.4142 23.81 17.75 23.4742 17.75 23.06V19.1265C17.75 18.7123 17.4142 18.3765 17 18.3765C16.5858 18.3765 16.25 18.7123 16.25 19.1265V22.31H3.75V5.80995Z" fill="white"/>
<path fill-rule="evenodd" clip-rule="evenodd" d="M7 0.309969C6.58579 0.309969 6.25 0.645755 6.25 1.05997V19.06C6.25 19.4742 6.58579 19.81 7 19.81H21C21.4142 19.81 21.75 19.4742 21.75 19.06V5.05997C21.75 4.86106 21.671 4.67029 21.5303 4.52964L17.5303 0.529639C17.3897 0.388986 17.1989 0.309969 17 0.309969H7ZM7.75 18.31V1.80997H15.25V6.06005C15.25 6.47427 15.5858 6.81005 16 6.81005H20.25V18.31H7.75ZM20.1894 5.31005L16.75 1.87063V5.31005H20.1894Z" fill="white"/>
</svg>
