<svg width="24" height="25" viewBox="0 0 24 25" fill="none" xmlns="http://www.w3.org/2000/svg">
<path fill-rule="evenodd" clip-rule="evenodd" d="M5 3.08011C4.58579 3.08011 4.25 3.4159 4.25 3.83011V21.8301C4.25 22.2443 4.58579 22.5801 5 22.5801H19C19.4142 22.5801 19.75 22.2443 19.75 21.8301V7.83011C19.75 7.6312 19.671 7.44043 19.5303 7.29978L15.5303 3.29978C15.3897 3.15913 15.1989 3.08011 15 3.08011H5ZM5.75 21.0801V4.58011H13.25V8.83019C13.25 9.24441 13.5858 9.58019 14 9.58019H18.25V21.0801H5.75ZM18.1894 8.08019L14.75 4.64077V8.08019H18.1894ZM9 12.0802C8.58579 12.0802 8.25 12.416 8.25 12.8302C8.25 13.2444 8.58579 13.5802 9 13.5802H15C15.4142 13.5802 15.75 13.2444 15.75 12.8302C15.75 12.416 15.4142 12.0802 15 12.0802H9ZM8.25 16.8302C8.25 16.416 8.58579 16.0802 9 16.0802H13C13.4142 16.0802 13.75 16.416 13.75 16.8302C13.75 17.2444 13.4142 17.5802 13 17.5802H9C8.58579 17.5802 8.25 17.2444 8.25 16.8302Z" fill="white"/>
</svg>
