<svg width="24" height="25" viewBox="0 0 24 25" fill="none" xmlns="http://www.w3.org/2000/svg">
<path fill-rule="evenodd" clip-rule="evenodd" d="M4.25 3.83011C4.25 3.4159 4.58579 3.08011 5 3.08011H15C15.1989 3.08011 15.3897 3.15913 15.5303 3.29978L19.5303 7.29978C19.671 7.44043 19.75 7.6312 19.75 7.83011V21.8301C19.75 22.2443 19.4142 22.5801 19 22.5801H5C4.58579 22.5801 4.25 22.2443 4.25 21.8301V3.83011ZM5.75 4.58011V21.0801H18.25V9.58019H14C13.5858 9.58019 13.25 9.24441 13.25 8.83019V4.58011H5.75ZM14.75 4.64077L18.1894 8.08019H14.75V4.64077ZM8.74989 11.8302C9.02603 11.8302 9.24989 12.054 9.24989 12.3302V16.0802C9.24989 16.3563 9.02603 16.5802 8.74989 16.5802H7.25C6.97386 16.5802 6.75 16.3563 6.75 16.0802C6.75 15.804 6.97386 15.5802 7.25 15.5802H8.24989V12.3302C8.24989 12.054 8.47374 11.8302 8.74989 11.8302ZM10.2499 11.8302C9.97375 11.8302 9.74989 12.054 9.74989 12.3302V14.6739V16.0802C9.74989 16.3563 9.97375 16.5802 10.2499 16.5802C10.526 16.5802 10.7499 16.3563 10.7499 16.0802V15.1739H11.578C12.5014 15.1739 13.2499 14.4254 13.2499 13.502C13.2499 12.5787 12.5014 11.8302 11.578 11.8302H10.2499ZM11.578 14.1739H10.7499V12.8302H11.578C11.9491 12.8302 12.2499 13.131 12.2499 13.502C12.2499 13.8731 11.9491 14.1739 11.578 14.1739ZM14.2499 11.8302C13.9737 11.8302 13.7499 12.054 13.7499 12.3302V16.0802C13.7499 16.3563 13.9737 16.5802 14.2499 16.5802H16.7499C17.026 16.5802 17.2499 16.3563 17.2499 16.0802V14.3302C17.2499 14.054 17.026 13.8302 16.7499 13.8302H15.7499C15.4737 13.8302 15.2499 14.054 15.2499 14.3302C15.2499 14.6063 15.4737 14.8302 15.7499 14.8302H16.2499V15.5802H14.7499V12.8302H16.7499C17.026 12.8302 17.2499 12.6063 17.2499 12.3302C17.2499 12.054 17.026 11.8302 16.7499 11.8302H14.2499Z" fill="white"/>
</svg>
