<svg width="24" height="25" viewBox="0 0 24 25" fill="none" xmlns="http://www.w3.org/2000/svg">
<path fill-rule="evenodd" clip-rule="evenodd" d="M4.25 3.83011C4.25 3.4159 4.58579 3.08011 5 3.08011H15C15.1989 3.08011 15.3897 3.15913 15.5303 3.29978L19.5303 7.29978C19.671 7.44043 19.75 7.6312 19.75 7.83011V21.8301C19.75 22.2443 19.4142 22.5801 19 22.5801H5C4.58579 22.5801 4.25 22.2443 4.25 21.8301V3.83011ZM5.75 4.58011V21.0801H18.25V9.58019H14C13.5858 9.58019 13.25 9.24441 13.25 8.83019V4.58011H5.75ZM14.75 4.64077V8.08019H18.1894L14.75 4.64077ZM11.4697 11.2999C11.7626 11.007 12.2374 11.007 12.5303 11.2999L15.0303 13.7999C15.3232 14.0928 15.3232 14.5677 15.0303 14.8606C14.7374 15.1535 14.2626 15.1535 13.9697 14.8606L12.75 13.6409V17.8302C12.75 18.2445 12.4142 18.5802 12 18.5802C11.5858 18.5802 11.25 18.2445 11.25 17.8302V13.6409L10.0303 14.8606C9.73743 15.1535 9.26256 15.1535 8.96966 14.8606C8.67677 14.5677 8.67677 14.0928 8.96966 13.7999L11.4697 11.2999Z" fill="white"/>
</svg>
