<svg width="24" height="25" viewBox="0 0 24 25" fill="none" xmlns="http://www.w3.org/2000/svg">
<path fill-rule="evenodd" clip-rule="evenodd" d="M5 3.08011C4.58579 3.08011 4.25 3.4159 4.25 3.83011V13.0802H3C2.58579 13.0802 2.25 13.416 2.25 13.8302C2.25 14.2444 2.58579 14.5802 3 14.5802H5H19H21C21.4142 14.5802 21.75 14.2444 21.75 13.8302C21.75 13.416 21.4142 13.0802 21 13.0802H19.75V7.83011C19.75 7.6312 19.671 7.44043 19.5303 7.29978L15.5303 3.29978C15.3897 3.15913 15.1989 3.08011 15 3.08011H5ZM18.25 13.0802H5.75V4.58011H13.25V8.83019C13.25 9.24441 13.5858 9.58019 14 9.58019H18.25V13.0802ZM18.1894 8.08019L14.75 4.64077V8.08019H18.1894ZM5.75 16.8301C5.75 16.4159 5.41421 16.0801 5 16.0801C4.58579 16.0801 4.25 16.4159 4.25 16.8301V17.3301V21.8301C4.25 22.2443 4.58579 22.5801 5 22.5801H19C19.4142 22.5801 19.75 22.2443 19.75 21.8301V17.3301V16.8301C19.75 16.4159 19.4142 16.0801 19 16.0801C18.5858 16.0801 18.25 16.4159 18.25 16.8301V17.3301V21.0801H5.75V17.3301V16.8301Z" fill="white"/>
</svg>
