<svg width="24" height="25" viewBox="0 0 24 25" fill="none" xmlns="http://www.w3.org/2000/svg">
<path fill-rule="evenodd" clip-rule="evenodd" d="M11.2302 4.04475C10.8428 4.34039 10.3837 4.79716 9.70209 5.47882L4.35894 10.822C4.03593 11.145 3.76341 11.418 3.53461 11.6571C4.49801 11.4205 5.47515 11.4119 6.43696 11.5321C7.926 11.7182 9.43278 12.2221 10.8301 12.6893L11.1124 12.7836C12.6291 13.2891 13.9994 13.7201 15.253 13.7771C16.399 13.8292 17.4142 13.5669 18.3258 12.728C18.6476 12.3973 18.8924 12.1299 19.0755 11.89C19.3579 11.5198 19.4218 11.3044 19.4218 11.1201C19.4218 10.9358 19.3579 10.7203 19.0755 10.3501C18.7799 9.96264 18.3231 9.50362 17.6414 8.82196L14.2983 5.47882C13.6166 4.79716 13.1576 4.34039 12.7701 4.04475C12.4 3.76232 12.1845 3.69849 12.0002 3.69849C11.8159 3.69849 11.6004 3.76232 11.2302 4.04475ZM2.92488 13.89C2.83208 13.7684 2.76288 13.6634 2.71179 13.5708C3.8097 12.9748 4.98617 12.8624 6.25091 13.0205C7.58594 13.1874 8.95886 13.6459 10.395 14.1255L10.395 14.1255L10.638 14.2066C12.1213 14.701 13.6885 15.2075 15.1849 15.2755C15.3844 15.2846 15.5833 15.2859 15.7811 15.2785L12.2983 18.7613C11.6166 19.443 11.1576 19.8997 10.7701 20.1954C10.4 20.4778 10.1845 20.5416 10.0002 20.5416C9.81589 20.5416 9.60042 20.4778 9.23025 20.1954C8.84277 19.8997 8.38375 19.443 7.70209 18.7613L4.35894 15.4182C3.67728 14.7365 3.22052 14.2775 2.92488 13.89ZM18.7391 14.4418C18.9658 14.2151 19.179 14.0019 19.3761 13.7997C19.4278 13.7513 19.4793 13.7016 19.5305 13.6504C19.5604 13.6206 19.5871 13.5888 19.6109 13.5556C19.8659 13.2864 20.0874 13.0367 20.268 12.7999C20.6523 12.2963 20.9218 11.7642 20.9218 11.1201C20.9218 10.4759 20.6523 9.94385 20.268 9.44025C19.904 8.96314 19.3742 8.43338 18.7389 7.79809L18.7021 7.7613L15.3589 4.41816L15.3222 4.38138L15.3222 4.38137C14.6869 3.74603 14.1571 3.21625 13.68 2.85222C13.1764 2.46799 12.6443 2.19849 12.0002 2.19849C11.3561 2.19849 10.824 2.46799 10.3204 2.85222C9.84326 3.21624 9.31352 3.74603 8.67823 4.38136L8.6782 4.38138L8.6782 4.38139L8.64143 4.41816L3.29828 9.7613L3.26151 9.79807C2.62617 10.4334 2.09638 10.9631 1.73235 11.4402C1.34811 11.9439 1.07861 12.4759 1.07861 13.1201C1.07861 13.7642 1.34811 14.2963 1.73235 14.7999C2.09638 15.277 2.62617 15.8067 3.26152 16.4421L3.29828 16.4788L6.64143 19.822L6.6782 19.8587L6.67822 19.8588L6.67829 19.8588C7.31355 20.4941 7.84328 21.0239 8.32038 21.3879C8.82398 21.7721 9.35605 22.0416 10.0002 22.0416C10.6443 22.0416 11.1764 21.7721 11.68 21.3879C12.1571 21.0239 12.6869 20.4941 13.3222 19.8588L13.3589 19.822L18.7021 14.4788L18.7389 14.442L18.7391 14.4418ZM19.5531 17.6302C19.6481 17.5079 19.7156 17.4213 19.7767 17.3505C19.8365 17.2813 19.8719 17.249 19.8927 17.233C19.9019 17.2258 19.9069 17.223 19.9084 17.2222C19.9096 17.2215 19.9105 17.2212 19.9123 17.2206C19.9151 17.2197 19.9384 17.2123 20.0001 17.2123C20.0617 17.2123 20.0851 17.2197 20.0879 17.2206C20.0897 17.2212 20.0906 17.2215 20.0918 17.2222C20.0933 17.223 20.0983 17.2258 20.1075 17.233C20.1283 17.249 20.1637 17.2813 20.2234 17.3505C20.2846 17.4213 20.3521 17.5079 20.4471 17.6301C20.8828 18.191 21.2501 18.9002 21.2501 19.6756C21.2501 20.3337 21.0511 20.7536 20.8233 21.001C20.5929 21.2514 20.2942 21.3701 20.0001 21.3701C19.706 21.3701 19.4074 21.2514 19.177 21.001C18.9492 20.7536 18.7501 20.3337 18.7501 19.6756C18.7501 18.9002 19.1174 18.191 19.5531 17.6302ZM20.0001 15.7123C19.6087 15.7123 19.2746 15.8152 18.9761 16.0455C18.7456 16.2235 18.5548 16.4697 18.3978 16.6722L18.3686 16.7099C17.8311 17.4017 17.2501 18.4312 17.2501 19.6756C17.2501 20.6472 17.5511 21.4495 18.0733 22.0169C18.5929 22.5813 19.2942 22.8701 20.0001 22.8701C20.706 22.8701 21.4074 22.5813 21.927 22.0169C22.4492 21.4495 22.7501 20.6472 22.7501 19.6756C22.7501 18.4312 22.1691 17.4016 21.6316 16.7098L21.6024 16.6722C21.4454 16.4697 21.2545 16.2234 21.024 16.0455C20.7255 15.8151 20.3915 15.7123 20.0001 15.7123Z" fill="white"/>
</svg>
