<svg width="24" height="25" viewBox="0 0 24 25" fill="none" xmlns="http://www.w3.org/2000/svg">
<path d="M19 18.3701C18.3096 18.3701 17.75 17.8105 17.75 17.1201C17.75 17.0534 17.7796 16.8884 17.8847 16.6097C17.9834 16.3482 18.1255 16.0453 18.2925 15.7261C18.5161 15.2987 18.772 14.8652 19 14.4972C19.228 14.8652 19.4839 15.2987 19.7075 15.7261C19.8745 16.0453 20.0166 16.3482 20.1153 16.6097C20.2204 16.8884 20.25 17.0534 20.25 17.1201C20.25 17.8105 19.6904 18.3701 19 18.3701Z" stroke="white" stroke-width="1.5" stroke-linejoin="round"/>
<path d="M18 12.1201L10 20.1201L3.5 13.6201L7.5 9.62012L12 5.12012L19 12.1201H18Z" stroke="white" stroke-width="1.5" stroke-linecap="round" stroke-linejoin="round"/>
<circle cx="13" cy="10.1201" r="1" fill="white"/>
<path d="M13 10.1201L16 4.12012" stroke="white" stroke-width="1.5" stroke-linecap="round" stroke-linejoin="round"/>
</svg>
