<svg width="24" height="25" viewBox="0 0 24 25" fill="none" xmlns="http://www.w3.org/2000/svg">
<path fill-rule="evenodd" clip-rule="evenodd" d="M12 3.40002C6.89137 3.40002 2.75 7.54139 2.75 12.65C2.75 17.7587 6.89137 21.9 12 21.9C17.1086 21.9 21.25 17.7587 21.25 12.65C21.25 7.54139 17.1086 3.40002 12 3.40002ZM22.75 12.65C22.75 16.5853 20.6354 20.0267 17.4805 21.9H22C22.4142 21.9 22.75 22.2358 22.75 22.65C22.75 23.0642 22.4142 23.4 22 23.4H12C6.06294 23.4 1.25 18.5871 1.25 12.65C1.25 6.71296 6.06294 1.90002 12 1.90002C17.9371 1.90002 22.75 6.71296 22.75 12.65ZM10.75 12.65C10.75 11.9597 11.3096 11.4 12 11.4C12.6904 11.4 13.25 11.9597 13.25 12.65C13.25 13.3404 12.6904 13.9 12 13.9C11.3096 13.9 10.75 13.3404 10.75 12.65ZM12 9.90002C10.4812 9.90002 9.25 11.1312 9.25 12.65C9.25 14.1688 10.4812 15.4 12 15.4C13.5188 15.4 14.75 14.1688 14.75 12.65C14.75 11.1312 13.5188 9.90002 12 9.90002ZM13 6.65002C13 7.20231 12.5523 7.65002 12 7.65002C11.4477 7.65002 11 7.20231 11 6.65002C11 6.09774 11.4477 5.65002 12 5.65002C12.5523 5.65002 13 6.09774 13 6.65002ZM6 13.65C6.55228 13.65 7 13.2023 7 12.65C7 12.0977 6.55228 11.65 6 11.65C5.44772 11.65 5 12.0977 5 12.65C5 13.2023 5.44772 13.65 6 13.65ZM19 12.65C19 13.2023 18.5523 13.65 18 13.65C17.4477 13.65 17 13.2023 17 12.65C17 12.0977 17.4477 11.65 18 11.65C18.5523 11.65 19 12.0977 19 12.65ZM12 19.65C12.5523 19.65 13 19.2023 13 18.65C13 18.0977 12.5523 17.65 12 17.65C11.4477 17.65 11 18.0977 11 18.65C11 19.2023 11.4477 19.65 12 19.65Z" fill="white"/>
</svg>
