<svg width="24" height="25" viewBox="0 0 24 25" fill="none" xmlns="http://www.w3.org/2000/svg">
<path fill-rule="evenodd" clip-rule="evenodd" d="M6.49686 4.40002H10.0754L12.1754 7.90002H8.44131L6.49686 4.40002ZM4.79277 4.40002H2.75V7.90002H6.72537L4.84438 4.51424C4.82371 4.47704 4.80655 4.43884 4.79277 4.40002ZM7.98673 9.40002H2.75V20.9H21.25V9.40002H19.0137C19.005 9.40017 18.9964 9.40017 18.9877 9.40002H13.5137C13.505 9.40017 13.4964 9.40017 13.4877 9.40002H8.01462C8.00532 9.40019 7.99602 9.40019 7.98673 9.40002ZM11.8246 4.40002L13.9246 7.90002H17.6754L15.5754 4.40002H11.8246ZM15.9863 2.90002H10.5123C10.5036 2.89986 10.495 2.89986 10.4863 2.90002H2C1.58579 2.90002 1.25 3.2358 1.25 3.65002V8.65002V21.65C1.25 22.0642 1.58579 22.4 2 22.4H22C22.4142 22.4 22.75 22.0642 22.75 21.65V8.65002V3.65002C22.75 3.2358 22.4142 2.90002 22 2.90002H16.0123C16.0036 2.89986 15.995 2.89986 15.9863 2.90002ZM19.4246 7.90002L17.3246 4.40002H21.25V7.90002H19.4246Z" fill="white"/>
</svg>
