<svg width="24" height="25" viewBox="0 0 24 25" fill="none" xmlns="http://www.w3.org/2000/svg">
<path fill-rule="evenodd" clip-rule="evenodd" d="M3 2.90002C2.58579 2.90002 2.25 3.23581 2.25 3.65002V7.65002V12.65V17.65V21.65C2.25 22.0642 2.58579 22.4 3 22.4H8H16H21C21.4142 22.4 21.75 22.0642 21.75 21.65V17.65V12.65V7.65002V3.65002C21.75 3.23581 21.4142 2.90002 21 2.90002H16H8H3ZM3.75 18.4V20.9H7.25V18.4H3.75ZM7.25 16.9H3.75V13.4H7.25V16.9ZM8.75 17.65V20.9H15.25V17.65V13.4H8.75V17.65ZM20.25 13.4V16.9H16.75V13.4H20.25ZM20.25 18.4H16.75V20.9H20.25V18.4ZM20.25 6.90002V4.40002H16.75V6.90002H20.25ZM16.75 8.40002H20.25V11.9H16.75V8.40002ZM15.25 7.65002V4.40002H8.75V7.65002V11.9H15.25V7.65002ZM3.75 11.9V8.40002H7.25V11.9H3.75ZM3.75 6.90002H7.25V4.40002H3.75V6.90002Z" fill="white"/>
</svg>
