<svg width="24" height="25" viewBox="0 0 24 25" fill="none" xmlns="http://www.w3.org/2000/svg">
<path fill-rule="evenodd" clip-rule="evenodd" d="M2.25 7.18018C2.25 6.76596 2.58579 6.43018 3 6.43018H21C21.4142 6.43018 21.75 6.76596 21.75 7.18018C21.75 7.59439 21.4142 7.93018 21 7.93018H3C2.58579 7.93018 2.25 7.59439 2.25 7.18018ZM5.25 12.1802C5.25 11.766 5.58579 11.4302 6 11.4302H18C18.4142 11.4302 18.75 11.766 18.75 12.1802C18.75 12.5944 18.4142 12.9302 18 12.9302H6C5.58579 12.9302 5.25 12.5944 5.25 12.1802ZM10 16.4302C9.58579 16.4302 9.25 16.766 9.25 17.1802C9.25 17.5944 9.58579 17.9302 10 17.9302H14C14.4142 17.9302 14.75 17.5944 14.75 17.1802C14.75 16.766 14.4142 16.4302 14 16.4302H10Z" fill="white"/>
</svg>
