<svg width="24" height="25" viewBox="0 0 24 25" fill="none" xmlns="http://www.w3.org/2000/svg">
<path fill-rule="evenodd" clip-rule="evenodd" d="M1.31583 2.87293C1.43682 2.60351 1.70467 2.43018 2.00001 2.43018H22C22.2954 2.43018 22.5632 2.60351 22.6842 2.87293C22.8052 3.14236 22.7568 3.45771 22.5606 3.67845L14.75 12.4653V21.1802C14.75 21.5944 14.4142 21.9302 14 21.9302H10C9.5858 21.9302 9.25001 21.5944 9.25001 21.1802V12.4653L1.43946 3.67845C1.24324 3.45771 1.19484 3.14236 1.31583 2.87293ZM3.67015 3.93018L10.5606 11.6819C10.6826 11.8192 10.75 11.9965 10.75 12.1802V20.4302H13.25V12.1802C13.25 11.9965 13.3174 11.8192 13.4395 11.6819L20.3299 3.93018H3.67015Z" fill="white"/>
</svg>
