<svg width="24" height="25" viewBox="0 0 24 25" fill="none" xmlns="http://www.w3.org/2000/svg">
<path fill-rule="evenodd" clip-rule="evenodd" d="M12.3176 2.38059L12 3.06C12.3176 2.38059 12.318 2.38073 12.3183 2.38089L12.3191 2.38128L12.3212 2.38227L12.3274 2.38517L12.3471 2.39466C12.3635 2.40262 12.3864 2.41387 12.4154 2.42843C12.4733 2.45754 12.5555 2.49993 12.6585 2.55581C12.8644 2.66753 13.1539 2.8335 13.4993 3.05554C14.1889 3.49881 15.1079 4.17001 16.0286 5.08476C17.8706 6.91477 19.75 9.75416 19.75 13.6964C19.75 18.1669 16.314 21.81 12 21.81C7.68601 21.81 4.25 18.1669 4.25 13.6964C4.25 11.4633 5.06895 9.66297 5.87216 8.43382C6.27459 7.81798 6.67738 7.33863 6.98193 7.01101C7.13445 6.84693 7.26307 6.72013 7.35571 6.6325C7.40206 6.58866 7.43947 6.55456 7.46646 6.53043C7.47996 6.51837 7.49085 6.50879 7.49897 6.50173L7.50902 6.49303L7.51244 6.4901L7.51374 6.48899L7.51429 6.48852C7.51453 6.48832 7.51477 6.48812 8 7.06L7.51477 6.48812C7.73759 6.29906 8.04992 6.25663 8.3151 6.3794C8.58028 6.50217 8.75 6.76778 8.75 7.06C8.75 8.60681 8.75699 9.72944 8.97114 10.479C9.07218 10.8326 9.19892 11.0203 9.32389 11.1245C9.43876 11.2202 9.62939 11.31 10 11.31C10.3705 11.31 10.6532 11.1316 10.9013 10.612C11.1661 10.0571 11.3156 9.23646 11.3765 8.26322C11.4363 7.30622 11.4068 6.27747 11.3603 5.34745C11.3455 5.05055 11.3284 4.75758 11.3122 4.47943C11.2793 3.91477 11.25 3.41122 11.25 3.06C11.25 2.80357 11.381 2.56492 11.5973 2.42725C11.8137 2.28958 12.0854 2.27198 12.3176 2.38059ZM7.27676 9.03339C7.2273 9.10458 7.17757 9.17825 7.12784 9.25436C6.43105 10.3207 5.75 11.8385 5.75 13.6964C5.75 17.4077 8.582 20.31 12 20.31C15.418 20.31 18.25 17.4077 18.25 13.6964C18.25 10.2749 16.6294 7.79614 14.9714 6.14887C14.1951 5.37766 13.4174 4.79629 12.8101 4.39664C12.8258 4.66466 12.8427 4.95744 12.8584 5.27255C12.9057 6.21753 12.9387 7.31378 12.8735 8.35678C12.8094 9.38354 12.6464 10.4379 12.255 11.258C11.8468 12.1134 11.1295 12.81 10 12.81C9.37061 12.81 8.81124 12.6498 8.36361 12.2768C7.92608 11.9122 7.67782 11.4124 7.52886 10.891C7.37778 10.3623 7.30851 9.72825 7.27676 9.03339Z" fill="white"/>
</svg>
