<svg width="24" height="25" viewBox="0 0 24 25" fill="none" xmlns="http://www.w3.org/2000/svg">
<path fill-rule="evenodd" clip-rule="evenodd" d="M12.25 4.59015C12.25 4.17594 12.5858 3.84015 13 3.84015L20 3.84015C20.4142 3.84015 20.75 4.17593 20.75 4.59015C20.75 5.00436 20.4142 5.34015 20 5.34015L13 5.34015C12.5858 5.34015 12.25 5.00436 12.25 4.59015ZM3.25 19.5901C3.25 19.1759 3.58579 18.8401 4 18.8401L20 18.8401C20.4142 18.8401 20.75 19.1759 20.75 19.5901C20.75 20.0043 20.4142 20.3401 20 20.3401L4 20.3401C3.58579 20.3401 3.25 20.0043 3.25 19.5901ZM13 8.84015C12.5858 8.84015 12.25 9.17594 12.25 9.59015C12.25 10.0044 12.5858 10.3401 13 10.3401L20 10.3401C20.4142 10.3401 20.75 10.0044 20.75 9.59015C20.75 9.17593 20.4142 8.84015 20 8.84015L13 8.84015ZM3.25 14.5901C3.25 14.1759 3.58579 13.8401 4 13.8401L20 13.8401C20.4142 13.8401 20.75 14.1759 20.75 14.5901C20.75 15.0043 20.4142 15.3401 20 15.3401L4 15.3401C3.58579 15.3401 3.25 15.0043 3.25 14.5901ZM4.75 7.09015C4.75 6.12365 5.5335 5.34015 6.5 5.34015C7.4665 5.34015 8.25 6.12365 8.25 7.09015C8.25 8.05665 7.4665 8.84015 6.5 8.84015C5.5335 8.84015 4.75 8.05665 4.75 7.09015ZM6.5 3.84015C4.70507 3.84015 3.25 5.29522 3.25 7.09015C3.25 8.88507 4.70507 10.3401 6.5 10.3401C8.29493 10.3401 9.75 8.88507 9.75 7.09015C9.75 5.29522 8.29493 3.84015 6.5 3.84015Z" fill="white"/>
</svg>
