<svg width="24" height="25" viewBox="0 0 24 25" fill="none" xmlns="http://www.w3.org/2000/svg">
<path fill-rule="evenodd" clip-rule="evenodd" d="M5 3.84015L4.96555 3.84014L4.96555 3.84014C4.76044 3.84006 4.53864 3.83997 4.35143 3.86514C4.1321 3.89463 3.85192 3.97047 3.61612 4.20627C3.38032 4.44207 3.30448 4.72225 3.27499 4.94158C3.24982 5.12879 3.24991 5.35059 3.24999 5.5557L3.24999 5.5557L3.25 5.59015L3.25 8.59015L3.24999 8.62459C3.24991 8.82971 3.24982 9.0515 3.27499 9.23872C3.30448 9.45804 3.38032 9.73823 3.61612 9.97403C3.85192 10.2098 4.1321 10.2857 4.35143 10.3152C4.53865 10.3403 4.76044 10.3402 4.96556 10.3402L5 10.3401L8 10.3401L8.03444 10.3402C8.23956 10.3402 8.46135 10.3403 8.64857 10.3152C8.86789 10.2857 9.14808 10.2098 9.38388 9.97403C9.61968 9.73823 9.69552 9.45804 9.72501 9.23872C9.75018 9.0515 9.75009 8.82971 9.75001 8.62459L9.75 8.59015L9.75 5.59015L9.75001 5.55571C9.75009 5.35059 9.75018 5.1288 9.72501 4.94158C9.69552 4.72225 9.61968 4.44207 9.38388 4.20627C9.14808 3.97047 8.86789 3.89463 8.64857 3.86514C8.46135 3.83997 8.23956 3.84006 8.03445 3.84014L8 3.84015L5 3.84015ZM4.75 5.59015C4.75 5.49107 4.75003 5.41076 4.75115 5.3413C4.82061 5.34018 4.90092 5.34015 5 5.34015L8 5.34015C8.09908 5.34015 8.17939 5.34018 8.24885 5.3413C8.24997 5.41076 8.25 5.49107 8.25 5.59015L8.25 8.59015C8.25 8.68923 8.24997 8.76954 8.24885 8.83899C8.17939 8.84011 8.09908 8.84015 8 8.84015L5 8.84015C4.90092 8.84015 4.82061 8.84011 4.75115 8.83899C4.75003 8.76954 4.75 8.68923 4.75 8.59015L4.75 5.59015ZM12.25 4.59015C12.25 4.17594 12.5858 3.84015 13 3.84015L20 3.84015C20.4142 3.84015 20.75 4.17593 20.75 4.59015C20.75 5.00436 20.4142 5.34015 20 5.34015L13 5.34015C12.5858 5.34015 12.25 5.00436 12.25 4.59015ZM3.25 19.5901C3.25 19.1759 3.58579 18.8401 4 18.8401L20 18.8401C20.4142 18.8401 20.75 19.1759 20.75 19.5901C20.75 20.0043 20.4142 20.3401 20 20.3401L4 20.3401C3.58579 20.3401 3.25 20.0043 3.25 19.5901ZM13 8.84015C12.5858 8.84015 12.25 9.17594 12.25 9.59015C12.25 10.0044 12.5858 10.3401 13 10.3401L20 10.3401C20.4142 10.3401 20.75 10.0044 20.75 9.59015C20.75 9.17593 20.4142 8.84015 20 8.84015L13 8.84015ZM3.25 14.5901C3.25 14.1759 3.58579 13.8401 4 13.8401L20 13.8401C20.4142 13.8401 20.75 14.1759 20.75 14.5901C20.75 15.0043 20.4142 15.3401 20 15.3401L4 15.3401C3.58579 15.3401 3.25 15.0043 3.25 14.5901Z" fill="white"/>
</svg>
