<svg width="24" height="25" viewBox="0 0 24 25" fill="none" xmlns="http://www.w3.org/2000/svg">
<path fill-rule="evenodd" clip-rule="evenodd" d="M12.2499 4.59009C12.2499 4.17588 12.5857 3.84009 12.9999 3.84009L19.9999 3.84009C20.4141 3.84009 20.7499 4.17588 20.7499 4.59009C20.7499 5.0043 20.4141 5.34009 19.9999 5.34009L12.9999 5.34009C12.5857 5.34009 12.2499 5.00431 12.2499 4.59009ZM3.25 19.5901C3.25 19.1759 3.58578 18.8401 4 18.8401L20 18.8401C20.4142 18.8401 20.75 19.1759 20.75 19.5901C20.75 20.0043 20.4142 20.3401 20 20.3401L4 20.3401C3.58578 20.3401 3.25 20.0043 3.25 19.5901ZM12.9999 8.84009C12.5857 8.84009 12.2499 9.17588 12.2499 9.59009C12.2499 10.0043 12.5857 10.3401 12.9999 10.3401L19.9999 10.3401C20.4141 10.3401 20.7499 10.0043 20.7499 9.59009C20.7499 9.17588 20.4141 8.84009 19.9999 8.84009L12.9999 8.84009ZM3.25 14.59C3.25 14.1758 3.58578 13.84 4 13.84L20 13.84C20.4142 13.84 20.75 14.1758 20.75 14.59C20.75 15.0043 20.4142 15.34 20 15.34L4 15.34C3.58578 15.34 3.25 15.0043 3.25 14.59ZM4.00011 3.84009C3.5859 3.84009 3.25011 4.17587 3.25011 4.59009C3.25011 5.0043 3.5859 5.34009 4.00011 5.34009L5.75011 5.34009L5.75011 9.59009C5.75011 10.0043 6.0859 10.3401 6.50011 10.3401C6.91433 10.3401 7.25011 10.0043 7.25011 9.59009L7.25011 5.34009L9.00011 5.34009C9.41433 5.34009 9.75011 5.0043 9.75011 4.59009C9.75011 4.17587 9.41433 3.84009 9.00011 3.84009L6.50011 3.84009L4.00011 3.84009Z" fill="white"/>
</svg>
