<svg width="24" height="25" viewBox="0 0 24 25" fill="none" xmlns="http://www.w3.org/2000/svg">
<path fill-rule="evenodd" clip-rule="evenodd" d="M5 1.90015C5.41421 1.90015 5.75 2.23593 5.75 2.65015V3.90015H19C19.2489 3.90015 19.4815 4.0236 19.6211 4.22967C19.7606 4.43575 19.7888 4.69762 19.6964 4.92869L17.8078 9.65015L19.6964 14.3716C19.7888 14.6027 19.7606 14.8645 19.6211 15.0706C19.4815 15.2767 19.2489 15.4001 19 15.4001H5.75V22.6501C5.75 23.0644 5.41421 23.4001 5 23.4001C4.58579 23.4001 4.25 23.0644 4.25 22.6501V14.6501V4.65015V2.65015C4.25 2.23593 4.58579 1.90015 5 1.90015ZM5.75 13.9001H17.8922L16.3036 9.92869C16.2321 9.74988 16.2321 9.55041 16.3036 9.3716L17.8922 5.40015H5.75V13.9001Z" fill="white"/>
</svg>
