<svg width="24" height="25" viewBox="0 0 24 25" fill="none" xmlns="http://www.w3.org/2000/svg">
<path fill-rule="evenodd" clip-rule="evenodd" d="M5 1.90015C5.41421 1.90015 5.75 2.23593 5.75 2.65015V3.73529L9.85291 2.91471C10.0359 2.87812 10.2259 2.91103 10.3859 3.00703L15.0328 5.7952L18.6646 3.97933C18.8971 3.86308 19.1732 3.8755 19.3943 4.01216C19.6154 4.14881 19.75 4.39021 19.75 4.65015V14.6501C19.75 14.9342 19.5895 15.1939 19.3354 15.321L15.3354 17.321C15.1061 17.4356 14.834 17.4252 14.6141 17.2933L9.86276 14.4424L5.75 15.265V22.6501C5.75 23.0644 5.41421 23.4001 5 23.4001C4.58579 23.4001 4.25 23.0644 4.25 22.6501V14.6501V4.65015V2.65015C4.25 2.23593 4.58579 1.90015 5 1.90015ZM5.75 13.7353L9.85291 12.9147C10.0359 12.8781 10.2259 12.911 10.3859 13.007L15.0328 15.7952L18.25 14.1866V5.86367L15.3354 7.32097C15.1061 7.43564 14.834 7.4252 14.6141 7.29327L9.86276 4.44245L5.75 5.265V13.7353Z" fill="white"/>
</svg>
