<svg width="24" height="25" viewBox="0 0 24 25" fill="none" xmlns="http://www.w3.org/2000/svg">
<path fill-rule="evenodd" clip-rule="evenodd" d="M2 3.08008C1.58579 3.08008 1.25 3.41586 1.25 3.83008V7.83008V20.8301C1.25 21.2443 1.58579 21.5801 2 21.5801H22C22.4142 21.5801 22.75 21.2443 22.75 20.8301V6.83008C22.75 6.41586 22.4142 6.08008 22 6.08008H13.3107L10.5303 3.29975C10.3897 3.1591 10.1989 3.08008 10 3.08008H2ZM2.75 7.83008V4.58008H9.68934L12.4697 7.36041C12.6103 7.50106 12.8011 7.58008 13 7.58008H21.25V20.0801H2.75V7.83008ZM12.5303 10.2999C12.2374 10.007 11.7626 10.007 11.4697 10.2999L8.96967 12.7999C8.67678 13.0928 8.67678 13.5677 8.96967 13.8606C9.26256 14.1535 9.73744 14.1535 10.0303 13.8606L11.25 12.6409V16.8303C11.25 17.2445 11.5858 17.5803 12 17.5803C12.4142 17.5803 12.75 17.2445 12.75 16.8303V12.6409L13.9697 13.8606C14.2626 14.1535 14.7374 14.1535 15.0303 13.8606C15.3232 13.5677 15.3232 13.0928 15.0303 12.7999L12.5303 10.2999Z" fill="white"/>
</svg>
