<svg width="24" height="25" viewBox="0 0 24 25" fill="none" xmlns="http://www.w3.org/2000/svg">
<path fill-rule="evenodd" clip-rule="evenodd" d="M2 3.08008C1.58579 3.08008 1.25 3.41586 1.25 3.83008V7.83008V20.8301C1.25 21.2443 1.58579 21.5801 2 21.5801H22C22.4142 21.5801 22.75 21.2443 22.75 20.8301V6.83008C22.75 6.41586 22.4142 6.08008 22 6.08008H13.3107L10.5303 3.29975C10.3897 3.1591 10.1989 3.08008 10 3.08008H2ZM2.75 7.83008V4.58008H9.68934L12.4697 7.36041C12.6103 7.50106 12.8011 7.58008 13 7.58008H21.25V20.0801H2.75V7.83008ZM12.75 10.8302C12.75 10.416 12.4142 10.0802 12 10.0802C11.5858 10.0802 11.25 10.416 11.25 10.8302V15.0195L10.0303 13.7999C9.73744 13.507 9.26256 13.507 8.96967 13.7999C8.67678 14.0928 8.67678 14.5676 8.96967 14.8605L11.4697 17.3605C11.7626 17.6534 12.2374 17.6534 12.5303 17.3605L15.0303 14.8605C15.3232 14.5676 15.3232 14.0928 15.0303 13.7999C14.7374 13.507 14.2626 13.507 13.9697 13.7999L12.75 15.0195V10.8302Z" fill="white"/>
</svg>
