<svg width="24" height="25" viewBox="0 0 24 25" fill="none" xmlns="http://www.w3.org/2000/svg">
<path fill-rule="evenodd" clip-rule="evenodd" d="M22.5304 2.29975C22.8233 2.59264 22.8233 3.06752 22.5304 3.36041L19.8108 6.08002L22 6.07996C22.1989 6.07995 22.3897 6.15897 22.5304 6.29962C22.671 6.44027 22.75 6.63104 22.75 6.82996V20.83C22.75 21.2442 22.4143 21.58 22 21.58H4.31083L2.53038 23.3604C2.23749 23.6533 1.76261 23.6533 1.46972 23.3604C1.17683 23.0675 1.17683 22.5926 1.46972 22.2997L21.4697 2.29975C21.7626 2.00685 22.2375 2.00685 22.5304 2.29975ZM5.81083 20.08H21.25V7.57998L18.3107 7.58007L5.81083 20.08ZM1.25005 3.82996C1.25005 3.41574 1.58584 3.07996 2.00005 3.07996H10C10.199 3.07996 10.3897 3.15897 10.5304 3.29963L13.5304 6.29963C13.8233 6.59252 13.8233 7.06739 13.5304 7.36029C13.2375 7.65318 12.7626 7.65318 12.4697 7.36029L9.68939 4.57996H2.75005V7.82996V17.8301C2.75005 18.2443 2.41426 18.5801 2.00005 18.5801C1.58584 18.5801 1.25005 18.2443 1.25005 17.8301V7.82996V3.82996Z" fill="white"/>
</svg>
