<svg width="24" height="25" viewBox="0 0 24 25" fill="none" xmlns="http://www.w3.org/2000/svg">
<path fill-rule="evenodd" clip-rule="evenodd" d="M2.00005 3.08013C1.58584 3.08013 1.25005 3.41591 1.25005 3.83013V7.83013V20.8301C1.25005 21.2443 1.58584 21.5801 2.00005 21.5801H15H22C22.4143 21.5801 22.75 21.2443 22.75 20.8301V6.83013C22.75 6.41591 22.4143 6.08013 22 6.08013H13.3107L10.5304 3.2998C10.3897 3.15915 10.199 3.08013 10 3.08013H2.00005ZM2.75005 7.83013V4.58013H9.68939L12.4697 7.36046C12.6104 7.50111 12.8011 7.58013 13 7.58013H13.25V7.8302C13.25 9.34898 14.4812 10.5802 16 10.5802C17.5188 10.5802 18.75 9.34898 18.75 7.8302V7.58013H21.25V20.0801H15H2.75005V7.83013ZM14.75 7.8302V7.5802H17.25V7.8302C17.25 8.52056 16.6904 9.0802 16 9.0802C15.3096 9.0802 14.75 8.52056 14.75 7.8302ZM16 12.0802C16.4142 12.0802 16.75 12.416 16.75 12.8302V13.8302C16.75 14.2444 16.4142 14.5802 16 14.5802C15.5858 14.5802 15.25 14.2444 15.25 13.8302V12.8302C15.25 12.416 15.5858 12.0802 16 12.0802ZM16.75 16.8302C16.75 16.416 16.4142 16.0802 16 16.0802C15.5858 16.0802 15.25 16.416 15.25 16.8302V17.8302C15.25 18.2444 15.5858 18.5802 16 18.5802C16.4142 18.5802 16.75 18.2444 16.75 17.8302V16.8302Z" fill="white"/>
</svg>
