<svg width="24" height="25" viewBox="0 0 24 25" fill="none" xmlns="http://www.w3.org/2000/svg">
<path fill-rule="evenodd" clip-rule="evenodd" d="M2.00005 3.08013C1.58584 3.08013 1.25005 3.41591 1.25005 3.83013V7.83013V20.8301C1.25005 21.2443 1.58584 21.5801 2.00005 21.5801H15H22C22.4143 21.5801 22.75 21.2443 22.75 20.8301V6.83013C22.75 6.41591 22.4143 6.08013 22 6.08013H13.3107L10.5304 3.2998C10.3897 3.15915 10.199 3.08013 10 3.08013H2.00005ZM2.75005 7.83013V4.58013H9.68939L12.4697 7.36046C12.6104 7.50111 12.8011 7.58013 13 7.58013H21.25V20.0801H15H2.75005V7.83013ZM13.0303 11.8605C13.5659 11.325 14.4341 11.325 14.9697 11.8605C15.5052 12.3961 15.5052 13.2643 14.9697 13.7999L12 16.7695L9.03033 13.7999C8.4948 13.2643 8.4948 12.3961 9.03033 11.8605C9.56586 11.325 10.4341 11.325 10.9697 11.8605L11.4697 12.3605C11.7626 12.6534 12.2374 12.6534 12.5303 12.3605L13.0303 11.8605ZM16.0303 10.7999C14.9191 9.6886 13.1235 9.67864 12 10.77C10.8765 9.67864 9.08094 9.6886 7.96967 10.7999C6.84835 11.9212 6.84835 13.7392 7.96967 14.8605L11.1756 18.0664C11.6309 18.5217 12.3691 18.5217 12.8244 18.0664L16.0303 14.8605C17.1517 13.7392 17.1517 11.9212 16.0303 10.7999Z" fill="white"/>
</svg>
