<svg width="24" height="25" viewBox="0 0 24 25" fill="none" xmlns="http://www.w3.org/2000/svg">
<path fill-rule="evenodd" clip-rule="evenodd" d="M2.00005 3.08013C1.58584 3.08013 1.25005 3.41591 1.25005 3.83013V7.83013V20.8301C1.25005 21.2443 1.58584 21.5801 2.00005 21.5801H22C22.4143 21.5801 22.75 21.2443 22.75 20.8301V6.83013C22.75 6.41591 22.4143 6.08013 22 6.08013H13.3107L10.5304 3.2998C10.3897 3.15915 10.199 3.08013 10 3.08013H2.00005ZM2.75005 7.83013V4.58013H9.68939L12.4697 7.36046C12.6104 7.50111 12.8011 7.58013 13 7.58013H21.25V20.0801H2.75005V7.83013ZM7.75005 13.8302C7.75005 12.5876 8.75741 11.5802 10 11.5802C11.0651 11.5802 11.9589 12.321 12.1912 13.3161C12.2466 13.5534 12.4138 13.749 12.6395 13.8406C12.8653 13.9322 13.1215 13.9085 13.3266 13.7769C13.5205 13.6525 13.7507 13.5802 14 13.5802C14.6904 13.5802 15.25 14.1399 15.25 14.8302C15.25 15.5206 14.6904 16.0802 14 16.0802H10C8.75741 16.0802 7.75005 15.0729 7.75005 13.8302ZM10 10.0802C7.92898 10.0802 6.25005 11.7592 6.25005 13.8302C6.25005 15.9013 7.92898 17.5802 10 17.5802H14C15.5188 17.5802 16.75 16.349 16.75 14.8302C16.75 13.3115 15.5188 12.0802 14 12.0802C13.7787 12.0802 13.563 12.1065 13.3563 12.1562C12.7414 10.9256 11.47 10.0802 10 10.0802Z" fill="white"/>
</svg>
