<svg width="24" height="25" viewBox="0 0 24 25" fill="none" xmlns="http://www.w3.org/2000/svg">
<path fill-rule="evenodd" clip-rule="evenodd" d="M1.25 3.83008C1.25 3.41586 1.58579 3.08008 2 3.08008H10C10.1989 3.08008 10.3897 3.1591 10.5303 3.29975L13.3107 6.08008H22C22.4142 6.08008 22.75 6.41586 22.75 6.83008V20.8301C22.75 21.2443 22.4142 21.5801 22 21.5801H2C1.58579 21.5801 1.25 21.2443 1.25 20.8301V7.83008V3.83008ZM2.75 4.58008V7.83008V20.0801H21.25V7.58008H13C12.8011 7.58008 12.6103 7.50106 12.4697 7.36041L9.68934 4.58008H2.75ZM12 11.5802C10.7574 11.5802 9.75 12.5876 9.75 13.8302C9.75 15.0728 10.7574 16.0802 12 16.0802C13.2426 16.0802 14.25 15.0728 14.25 13.8302C14.25 12.5876 13.2426 11.5802 12 11.5802ZM8.25 13.8302C8.25 11.7591 9.92893 10.0802 12 10.0802C14.0711 10.0802 15.75 11.7591 15.75 13.8302C15.75 15.9013 14.0711 17.5802 12 17.5802C9.92893 17.5802 8.25 15.9013 8.25 13.8302ZM18 11.8302C18.5523 11.8302 19 11.3825 19 10.8302C19 10.2779 18.5523 9.8302 18 9.8302C17.4477 9.8302 17 10.2779 17 10.8302C17 11.3825 17.4477 11.8302 18 11.8302Z" fill="white"/>
</svg>
