<svg width="24" height="25" viewBox="0 0 24 25" fill="none" xmlns="http://www.w3.org/2000/svg">
<path fill-rule="evenodd" clip-rule="evenodd" d="M2 3.08008C1.58579 3.08008 1.25 3.41586 1.25 3.83008V7.83008V20.8301C1.25 21.2443 1.58579 21.5801 2 21.5801H22C22.4142 21.5801 22.75 21.2443 22.75 20.8301V6.83008C22.75 6.41586 22.4142 6.08008 22 6.08008H13.3107L10.5303 3.29975C10.3897 3.1591 10.1989 3.08008 10 3.08008H2ZM2.75 7.83008V4.58008H9.68934L12.4697 7.36041C12.6103 7.50106 12.8011 7.58008 13 7.58008H21.25V20.0801H2.75V7.83008ZM13.0303 10.7999C12.7374 10.507 12.2626 10.507 11.9697 10.7999C11.6768 11.0928 11.6768 11.5677 11.9697 11.8606L13.1893 13.0803H9C8.58579 13.0803 8.25 13.416 8.25 13.8303C8.25 14.2445 8.58579 14.5803 9 14.5803H13.1893L11.9697 15.7999C11.6768 16.0928 11.6768 16.5677 11.9697 16.8606C12.2626 17.1535 12.7374 17.1535 13.0303 16.8606L15.5303 14.3606C15.8232 14.0677 15.8232 13.5928 15.5303 13.2999L13.0303 10.7999Z" fill="white"/>
</svg>
