<svg width="24" height="25" viewBox="0 0 24 25" fill="none" xmlns="http://www.w3.org/2000/svg">
<path fill-rule="evenodd" clip-rule="evenodd" d="M2.00005 3.08013C1.58584 3.08013 1.25005 3.41591 1.25005 3.83013V7.83013V20.8301C1.25005 21.2443 1.58584 21.5801 2.00005 21.5801H22C22.4143 21.5801 22.75 21.2443 22.75 20.8301V6.83013C22.75 6.41591 22.4143 6.08013 22 6.08013H13.3107L10.5304 3.2998C10.3897 3.15915 10.199 3.08013 10.0001 3.08013H2.00005ZM2.75005 7.83013V4.58013H9.68939L12.4697 7.36046C12.6104 7.50111 12.8011 7.58013 13.0001 7.58013H21.25V20.0801H2.75005V7.83013ZM16.0304 11.8606C16.3233 11.5677 16.3233 11.0928 16.0304 10.7999C15.7375 10.507 15.2626 10.507 14.9697 10.7999L11.0001 14.7696L9.53038 13.2999C9.23749 13.007 8.76261 13.007 8.46972 13.2999C8.17683 13.5928 8.17683 14.0677 8.46972 14.3606L10.4697 16.3606C10.7626 16.6535 11.2375 16.6535 11.5304 16.3606L16.0304 11.8606Z" fill="white"/>
</svg>
