<svg width="24" height="25" viewBox="0 0 24 25" fill="none" xmlns="http://www.w3.org/2000/svg">
<path fill-rule="evenodd" clip-rule="evenodd" d="M2 3.08008C1.58579 3.08008 1.25 3.41586 1.25 3.83008V7.83008V20.8301C1.25 21.2443 1.58579 21.5801 2 21.5801H22C22.4142 21.5801 22.75 21.2443 22.75 20.8301V6.83008C22.75 6.41586 22.4142 6.08008 22 6.08008H13.3107L10.5303 3.29975C10.3897 3.1591 10.1989 3.08008 10 3.08008H2ZM2.75 7.83008V4.58008H9.68934L12.4697 7.36041C12.6103 7.50106 12.8011 7.58008 13 7.58008H21.25V20.0801H2.75V7.83008ZM12.75 10.8302C12.75 10.416 12.4142 10.0802 12 10.0802C11.5858 10.0802 11.25 10.416 11.25 10.8302V13.0802H9C8.58579 13.0802 8.25 13.416 8.25 13.8302C8.25 14.2444 8.58579 14.5802 9 14.5802H11.25V16.8302C11.25 17.2444 11.5858 17.5802 12 17.5802C12.4142 17.5802 12.75 17.2444 12.75 16.8302V14.5802H15C15.4142 14.5802 15.75 14.2444 15.75 13.8302C15.75 13.416 15.4142 13.0802 15 13.0802H12.75V10.8302Z" fill="white"/>
</svg>
