<svg width="24" height="25" viewBox="0 0 24 25" fill="none" xmlns="http://www.w3.org/2000/svg">
<path fill-rule="evenodd" clip-rule="evenodd" d="M1.99981 3.07964C1.58559 3.07964 1.24981 3.41543 1.24981 3.82964V7.82964V20.8296C1.24981 21.2439 1.58559 21.5796 1.99981 21.5796H2.98266C2.98835 21.5798 2.99405 21.5798 2.99976 21.5798H20.9998C21.3573 21.5798 21.6651 21.3275 21.7352 20.9769L23.7352 10.9769C23.7793 10.7566 23.7222 10.5281 23.5798 10.3543C23.4373 10.1806 23.2245 10.0798 22.9998 10.0798H20.7498V6.82964C20.7498 6.41543 20.414 6.07964 19.9998 6.07964H11.3105L8.53014 3.29931C8.38948 3.15866 8.19872 3.07964 7.99981 3.07964H1.99981ZM19.9911 11.5798C19.994 11.5799 19.9969 11.5799 19.9998 11.5799C20.0027 11.5799 20.0056 11.5799 20.0085 11.5798H22.0849L20.3849 20.0798H18.0171C18.0113 20.0797 18.0056 20.0796 17.9998 20.0796H14.9998H3.91465L5.61461 11.5798H19.9911ZM19.2498 10.0798V7.57964H10.9998C10.8009 7.57964 10.6101 7.50062 10.4695 7.35997L7.68915 4.57964H2.74981V7.82964V18.2553L4.26432 10.6827C4.33443 10.3322 4.64225 10.0798 4.99976 10.0798H19.2498Z" fill="white"/>
</svg>
