<svg width="24" height="25" viewBox="0 0 24 25" fill="none" xmlns="http://www.w3.org/2000/svg">
<path fill-rule="evenodd" clip-rule="evenodd" d="M2 3.08008C1.58579 3.08008 1.25 3.41586 1.25 3.83008V7.83008V20.8301C1.25 21.2443 1.58579 21.5801 2 21.5801H22C22.4142 21.5801 22.75 21.2443 22.75 20.8301V6.83008C22.75 6.41586 22.4142 6.08008 22 6.08008H13.3107L10.5303 3.29975C10.3897 3.1591 10.1989 3.08008 10 3.08008H2ZM2.75 7.83008V4.58008H9.68934L12.4697 7.36041C12.6103 7.50106 12.8011 7.58008 13 7.58008H21.25V20.0801H2.75V7.83008ZM10.0303 10.7999C9.73744 10.507 9.26256 10.507 8.96967 10.7999C8.67678 11.0928 8.67678 11.5676 8.96967 11.8605L10.9393 13.8302L8.96967 15.7999C8.67678 16.0928 8.67678 16.5676 8.96967 16.8605C9.26256 17.1534 9.73744 17.1534 10.0303 16.8605L12 14.8909L13.9697 16.8605C14.2626 17.1534 14.7374 17.1534 15.0303 16.8605C15.3232 16.5676 15.3232 16.0928 15.0303 15.7999L13.0607 13.8302L15.0303 11.8605C15.3232 11.5676 15.3232 11.0928 15.0303 10.7999C14.7374 10.507 14.2626 10.507 13.9697 10.7999L12 12.7695L10.0303 10.7999Z" fill="white"/>
</svg>
