<svg width="24" height="25" viewBox="0 0 24 25" fill="none" xmlns="http://www.w3.org/2000/svg">
<path fill-rule="evenodd" clip-rule="evenodd" d="M1.25005 3.83013C1.25005 3.41591 1.58584 3.08013 2.00005 3.08013H10C10.199 3.08013 10.3897 3.15914 10.5304 3.2998L13.3107 6.08013H22C22.4143 6.08013 22.75 6.41591 22.75 6.83013V20.8301C22.75 21.2443 22.4143 21.5801 22 21.5801H2.00005C1.58584 21.5801 1.25005 21.2443 1.25005 20.8301V7.83013V3.83013ZM2.75005 4.58013V7.83013V20.0801H21.25V7.58013H13C12.8011 7.58013 12.6104 7.50111 12.4697 7.36046L9.68939 4.58013H2.75005ZM11 14.0802C10.3096 14.0802 9.75 14.6398 9.75 15.3302C9.75 16.0206 10.3096 16.5802 11 16.5802C11.6904 16.5802 12.25 16.0206 12.25 15.3302C12.25 14.6398 11.6904 14.0802 11 14.0802ZM12.25 12.8801C11.875 12.6883 11.4501 12.5802 11 12.5802C9.48122 12.5802 8.25 13.8114 8.25 15.3302C8.25 16.849 9.48122 18.0802 11 18.0802C12.5188 18.0802 13.75 16.849 13.75 15.3302V11.6409L14.4697 12.3605C14.7626 12.6534 15.2374 12.6534 15.5303 12.3605C15.8232 12.0676 15.8232 11.5928 15.5303 11.2999L13.5303 9.29987C13.3158 9.08537 12.9932 9.0212 12.713 9.13729C12.4327 9.25338 12.25 9.52685 12.25 9.8302V12.8801Z" fill="white"/>
</svg>
