<svg width="24" height="25" viewBox="0 0 24 25" fill="none" xmlns="http://www.w3.org/2000/svg">
<path fill-rule="evenodd" clip-rule="evenodd" d="M13.5303 4.76996C13.2374 4.47707 12.7626 4.47707 12.4697 4.76996C12.1768 5.06286 12.1768 5.53773 12.4697 5.83062L16.1893 9.55029H4C3.58579 9.55029 3.25 9.88608 3.25 10.3003V17.3003C3.25 17.7145 3.58579 18.0503 4 18.0503C4.41421 18.0503 4.75 17.7145 4.75 17.3003V11.0503H16.1893L12.4697 14.77C12.1768 15.0629 12.1768 15.5377 12.4697 15.8306C12.7626 16.1235 13.2374 16.1235 13.5303 15.8306L18.5303 10.8306C18.8232 10.5377 18.8232 10.0629 18.5303 9.76996L13.5303 4.76996ZM17.5303 4.76996C17.2374 4.47707 16.7626 4.47707 16.4697 4.76996C16.1768 5.06286 16.1768 5.53773 16.4697 5.83062L20.9393 10.3003L16.4697 14.77C16.1768 15.0629 16.1768 15.5377 16.4697 15.8306C16.7626 16.1235 17.2374 16.1235 17.5303 15.8306L22.5303 10.8306C22.671 10.69 22.75 10.4992 22.75 10.3003C22.75 10.1014 22.671 9.91061 22.5303 9.76996L17.5303 4.76996Z" fill="white"/>
</svg>
