<svg width="24" height="25" viewBox="0 0 24 25" fill="none" xmlns="http://www.w3.org/2000/svg">
<path fill-rule="evenodd" clip-rule="evenodd" d="M12 2.42993C6.58419 2.42993 2.25 6.79676 2.25 12.1799C2.25 17.5647 6.61522 21.9299 12 21.9299C17.3848 21.9299 21.75 17.5647 21.75 12.1799C21.75 11.7657 21.4142 11.4299 21 11.4299C20.5858 11.4299 20.25 11.7657 20.25 12.1799C20.25 16.7363 16.5563 20.4299 12 20.4299C7.44365 20.4299 3.75 16.7363 3.75 12.1799C3.75 7.62198 7.41581 3.92993 12 3.92993C14.7774 3.92993 16.8634 5.08403 18.2699 6.2561C18.9735 6.8425 19.5014 7.4292 19.8518 7.8672C20.0267 8.0858 20.1564 8.26616 20.2408 8.38923C20.283 8.45073 20.3138 8.49781 20.3331 8.52807C20.3428 8.54319 20.3496 8.5541 20.3536 8.5605L20.3569 8.5658L20.3572 8.5663L20.3574 8.56661L20.3575 8.56687L20.3577 8.5671C20.5314 8.85529 20.8758 8.99257 21.2002 8.90272C21.5251 8.81273 21.75 8.51704 21.75 8.17993V3.67993C21.75 3.26572 21.4142 2.92993 21 2.92993C20.5858 2.92993 20.25 3.26572 20.25 3.67993V6.0521C19.9569 5.74856 19.6171 5.4262 19.2301 5.10377C17.6366 3.77583 15.2226 2.42993 12 2.42993ZM10 8.4299C9.58579 8.4299 9.25 8.76569 9.25 9.1799V12.1799C9.25 12.5941 9.58579 12.9299 10 12.9299H13.25V14.4299H10C9.58579 14.4299 9.25 14.7657 9.25 15.1799C9.25 15.5941 9.58579 15.9299 10 15.9299H14C14.4142 15.9299 14.75 15.5941 14.75 15.1799V12.1799C14.75 11.7657 14.4142 11.4299 14 11.4299H10.75V9.9299H14C14.4142 9.9299 14.75 9.59411 14.75 9.1799C14.75 8.76569 14.4142 8.4299 14 8.4299H10Z" fill="white"/>
</svg>
