<svg width="24" height="25" viewBox="0 0 24 25" fill="none" xmlns="http://www.w3.org/2000/svg">
<path fill-rule="evenodd" clip-rule="evenodd" d="M2.25 12.1799C2.25 6.79676 6.58419 2.42993 12 2.42993C15.2226 2.42993 17.6366 3.77583 19.2301 5.10377C19.6171 5.4262 19.9569 5.74856 20.25 6.0521V3.67993C20.25 3.26572 20.5858 2.92993 21 2.92993C21.4142 2.92993 21.75 3.26572 21.75 3.67993V8.17993C21.75 8.51704 21.5251 8.81273 21.2002 8.90272C20.8758 8.99257 20.5314 8.85529 20.3577 8.5671L20.3575 8.56687L20.3574 8.56661L20.3572 8.5663L20.3569 8.5658L20.3536 8.5605C20.3496 8.5541 20.3428 8.54319 20.3331 8.52807C20.3138 8.49781 20.283 8.45073 20.2408 8.38923C20.1564 8.26616 20.0267 8.0858 19.8518 7.8672C19.5014 7.4292 18.9735 6.8425 18.2699 6.2561C16.8634 5.08403 14.7774 3.92993 12 3.92993C7.41581 3.92993 3.75 7.62198 3.75 12.1799C3.75 16.7363 7.44365 20.4299 12 20.4299C16.5563 20.4299 20.25 16.7363 20.25 12.1799C20.25 11.7657 20.5858 11.4299 21 11.4299C21.4142 11.4299 21.75 11.7657 21.75 12.1799C21.75 17.5647 17.3848 21.9299 12 21.9299C6.61522 21.9299 2.25 17.5647 2.25 12.1799ZM9 8.42993C9.41421 8.42993 9.75 8.76572 9.75 9.17993V15.1799C9.75 15.5941 9.41421 15.9299 9 15.9299C8.58579 15.9299 8.25 15.5941 8.25 15.1799V9.17993C8.25 8.76572 8.58579 8.42993 9 8.42993ZM12 8.42993C11.5858 8.42993 11.25 8.76572 11.25 9.17993V12.1799C11.25 12.5941 11.5858 12.9299 12 12.9299H14.25V14.4299H12C11.5858 14.4299 11.25 14.7657 11.25 15.1799C11.25 15.5941 11.5858 15.9299 12 15.9299H15C15.4142 15.9299 15.75 15.5941 15.75 15.1799V12.1799C15.75 11.7657 15.4142 11.4299 15 11.4299H12.75V9.92993H15C15.4142 9.92993 15.75 9.59415 15.75 9.17993C15.75 8.76572 15.4142 8.42993 15 8.42993H12Z" fill="white"/>
</svg>
