<svg width="24" height="25" viewBox="0 0 24 25" fill="none" xmlns="http://www.w3.org/2000/svg">
<path fill-rule="evenodd" clip-rule="evenodd" d="M14.4697 4.76996C14.7626 4.47707 15.2374 4.47707 15.5303 4.76996L20.5303 9.76996C20.8232 10.0629 20.8232 10.5377 20.5303 10.8306L15.5303 15.8306C15.2374 16.1235 14.7626 16.1235 14.4697 15.8306C14.1768 15.5377 14.1768 15.0629 14.4697 14.77L18.1893 11.0503H4.75V17.3003C4.75 17.7145 4.41421 18.0503 4 18.0503C3.58579 18.0503 3.25 17.7145 3.25 17.3003V10.3003C3.25 9.88608 3.58579 9.55029 4 9.55029H18.1893L14.4697 5.83062C14.1768 5.53773 14.1768 5.06286 14.4697 4.76996Z" fill="white"/>
</svg>
