<svg width="24" height="25" viewBox="0 0 24 25" fill="none" xmlns="http://www.w3.org/2000/svg">
<path fill-rule="evenodd" clip-rule="evenodd" d="M5.75 2.12012C5.75 1.7059 5.41421 1.37012 5 1.37012C4.58579 1.37012 4.25 1.7059 4.25 2.12012V4.37012H2C1.58579 4.37012 1.25 4.7059 1.25 5.12012C1.25 5.53433 1.58579 5.87012 2 5.87012H4.25L4.25 18.3701H2C1.58579 18.3701 1.25 18.7059 1.25 19.1201C1.25 19.5343 1.58579 19.8701 2 19.8701H4.25V22.1201C4.25 22.5343 4.58579 22.8701 5 22.8701C5.41421 22.8701 5.75 22.5343 5.75 22.1201V19.8701H18.25V22.1201C18.25 22.5343 18.5858 22.8701 19 22.8701C19.4142 22.8701 19.75 22.5343 19.75 22.1201V19.8701H22C22.4142 19.8701 22.75 19.5343 22.75 19.1201C22.75 18.7059 22.4142 18.3701 22 18.3701H19.75V5.87012H22C22.4142 5.87012 22.75 5.53433 22.75 5.12012C22.75 4.7059 22.4142 4.37012 22 4.37012H19.75V2.12012C19.75 1.7059 19.4142 1.37012 19 1.37012C18.5858 1.37012 18.25 1.7059 18.25 2.12012V4.37012H5.75V2.12012ZM18.25 18.3701V5.87012H5.75L5.75 18.3701H18.25Z" fill="white"/>
</svg>
