<svg width="24" height="25" viewBox="0 0 24 25" fill="none" xmlns="http://www.w3.org/2000/svg">
<path fill-rule="evenodd" clip-rule="evenodd" d="M3 2.37012C2.58579 2.37012 2.25 2.7059 2.25 3.12012V21.1201C2.25 21.5343 2.58579 21.8701 3 21.8701H21C21.4142 21.8701 21.75 21.5343 21.75 21.1201V3.12012C21.75 2.7059 21.4142 2.37012 21 2.37012H3ZM3.75 20.3701V3.87012H20.25V20.3701H3.75ZM6 5.37012C5.58579 5.37012 5.25 5.7059 5.25 6.12012V18.1201C5.25 18.5343 5.58579 18.8701 6 18.8701H18C18.4142 18.8701 18.75 18.5343 18.75 18.1201V6.12012C18.75 5.7059 18.4142 5.37012 18 5.37012H6ZM6.75 17.3701V6.87012H17.25V17.3701H6.75Z" fill="white"/>
</svg>
