<svg width="24" height="25" viewBox="0 0 24 25" fill="none" xmlns="http://www.w3.org/2000/svg">
<path fill-rule="evenodd" clip-rule="evenodd" d="M11.596 3.05999L11.7044 3.05996C12.4254 3.0597 12.9287 3.05951 13.3624 3.17156C14.5985 3.49087 15.5637 4.45609 15.883 5.69214C15.995 6.12587 15.9949 6.6291 15.9946 7.3501L15.9946 7.4585L15.9946 7.56691C15.9949 8.28791 15.995 8.79114 15.883 9.22487C15.5637 10.4609 14.5985 11.4261 13.3624 11.7454C12.9287 11.8575 12.4254 11.8573 11.7044 11.857L11.596 11.857H8.08884H4.75C4.46604 11.857 4.20642 11.6966 4.07932 11.4427C3.95222 11.1888 3.97944 10.8848 4.14963 10.6575L5.29435 9.12859V8.41009V8.37461C5.29434 7.54488 5.29433 6.87163 5.34363 6.32767C5.39457 5.76567 5.50282 5.26849 5.76459 4.81508C6.07267 4.28144 6.5158 3.83831 7.04944 3.53023C7.50285 3.26846 8.00003 3.1602 8.56203 3.10927C9.106 3.05997 9.77925 3.05998 10.609 3.05999L10.6445 3.05999H11.596ZM12.9872 4.62388C12.7632 4.566 12.4687 4.55999 11.596 4.55999H10.6445C9.7708 4.55999 9.1657 4.56071 8.69743 4.60315C8.23946 4.64465 7.98648 4.72128 7.79942 4.82928C7.49383 5.0057 7.24006 5.25947 7.06364 5.56506C6.95564 5.75212 6.87901 6.0051 6.83751 6.46306C6.79507 6.93134 6.79435 7.53644 6.79435 8.41009V9.37824C6.79435 9.54031 6.74185 9.69801 6.64472 9.82774L6.24845 10.357H8.08884H11.596C12.4687 10.357 12.7632 10.351 12.9872 10.2931C13.6951 10.1103 14.2478 9.55752 14.4307 8.84969C14.4885 8.62563 14.4946 8.33119 14.4946 7.4585C14.4946 6.58581 14.4885 6.29138 14.4307 6.06732C14.2478 5.35948 13.6951 4.80674 12.9872 4.62388ZM8.49751 5.51348C8.0833 5.51348 7.74751 5.84927 7.74751 6.26348C7.74751 6.67769 8.0833 7.01348 8.49751 7.01348H12.2117C12.6259 7.01348 12.9617 6.67769 12.9617 6.26348C12.9617 5.84927 12.6259 5.51348 12.2117 5.51348H8.49751ZM7.74751 8.71697C7.74751 8.30276 8.0833 7.96697 8.49751 7.96697H10.3546C10.7688 7.96697 11.1046 8.30276 11.1046 8.71697C11.1046 9.13118 10.7688 9.46697 10.3546 9.46697H8.49751C8.0833 9.46697 7.74751 9.13118 7.74751 8.71697ZM12.4517 21.1798L12.3433 21.1798C11.6223 21.1801 11.1191 21.1803 10.6854 21.0682C9.44933 20.7489 8.48411 19.7837 8.1648 18.5476C8.05275 18.1139 8.05294 17.6107 8.0532 16.8897L8.05323 16.7813L8.0532 16.6729C8.05294 15.9519 8.05275 15.4486 8.1648 15.0149C8.48411 13.7789 9.44933 12.8136 10.6854 12.4943C11.1191 12.3823 11.6223 12.3825 12.3433 12.3827L12.4517 12.3828H15.9589H18.9815C19.2564 12.3828 19.5093 12.5332 19.6405 12.7747C19.7718 13.0163 19.7603 13.3103 19.6107 13.5409L18.754 14.8616L18.7539 15.83L18.7539 15.8654C18.7538 16.6952 18.7537 17.3685 18.7044 17.9125C18.6534 18.4745 18.5451 18.9717 18.2832 19.4251C17.9752 19.9585 17.5322 20.4015 16.9987 20.7095C16.5453 20.9713 16.0481 21.0796 15.486 21.1305C14.9421 21.1798 14.2688 21.1798 13.439 21.1798H13.4035H12.4517ZM11.0606 19.6159C11.2846 19.6738 11.5791 19.6798 12.4517 19.6798H13.4035C14.2772 19.6798 14.8823 19.6791 15.3506 19.6366C15.8086 19.5951 16.0616 19.5185 16.2487 19.4105C16.5542 19.2341 16.8079 18.9804 16.9843 18.6749C17.0923 18.4879 17.169 18.2349 17.2105 17.7769C17.253 17.3086 17.2538 16.7035 17.2539 15.8298L17.254 14.6395C17.254 14.4947 17.296 14.353 17.3748 14.2314L17.601 13.8828H15.9589H12.4517C11.5791 13.8828 11.2846 13.8888 11.0606 13.9467C10.3527 14.1295 9.79997 14.6823 9.61712 15.3901C9.55924 15.6142 9.55323 15.9086 9.55323 16.7813C9.55323 17.654 9.55924 17.9484 9.61712 18.1725C9.79997 18.8803 10.3527 19.433 11.0606 19.6159ZM11.2569 14.7138C10.8427 14.7138 10.5069 15.0496 10.5069 15.4638C10.5069 15.8781 10.8427 16.2138 11.2569 16.2138H14.9711C15.3854 16.2138 15.7211 15.8781 15.7211 15.4638C15.7211 15.0496 15.3854 14.7138 14.9711 14.7138H11.2569ZM10.5069 17.9172C10.5069 17.503 10.8427 17.1672 11.2569 17.1672H13.114C13.5283 17.1672 13.864 17.503 13.864 17.9172C13.864 18.3314 13.5283 18.6672 13.114 18.6672H11.2569C10.8427 18.6672 10.5069 18.3314 10.5069 17.9172Z" fill="white"/>
</svg>
