<svg width="24" height="25" viewBox="0 0 24 25" fill="none" xmlns="http://www.w3.org/2000/svg">
<path fill-rule="evenodd" clip-rule="evenodd" d="M5.30965 4.35714C5.42724 4.08008 5.69907 3.90015 6.00005 3.90015H18C18.4143 3.90015 18.75 4.23593 18.75 4.65015C18.75 5.06436 18.4143 5.40015 18 5.40015H7.76722L14.2668 12.1291C14.5475 12.4197 14.5475 12.8806 14.2668 13.1712L7.76722 19.9001H18C18.4143 19.9001 18.75 20.2359 18.75 20.6501C18.75 21.0644 18.4143 21.4001 18 21.4001H6.00005C5.69907 21.4001 5.42724 21.2202 5.30965 20.9432C5.19207 20.6661 5.2515 20.3456 5.4606 20.1291L12.6846 12.6501L5.4606 5.1712C5.2515 4.95472 5.19207 4.6342 5.30965 4.35714Z" fill="white"/>
</svg>
