<svg width="24" height="25" viewBox="0 0 24 25" fill="none" xmlns="http://www.w3.org/2000/svg">
<path fill-rule="evenodd" clip-rule="evenodd" d="M9 1.37H15C15.1989 1.37 15.3897 1.44901 15.5303 1.58966C15.671 1.73032 15.75 1.92108 15.75 2.12V7.12C15.75 7.31891 15.671 7.50967 15.5303 7.65033L12.5303 10.6503C12.2374 10.9432 11.7626 10.9432 11.4697 10.6503L8.46967 7.65033C8.32902 7.50967 8.25 7.31891 8.25 7.12L8.25 2.12C8.25 1.92108 8.32902 1.73032 8.46967 1.58967C8.61032 1.44901 8.80109 1.37 9 1.37ZM9.75 2.87V6.80933L12 9.05933L14.25 6.80933V2.87L9.75 2.87ZM2 8.36999C1.58579 8.36999 1.25 8.70578 1.25 9.11999V15.12C1.25 15.5342 1.58579 15.87 2 15.87H7C7.19891 15.87 7.38968 15.791 7.53033 15.6503L10.5303 12.6503C10.8232 12.3574 10.8232 11.8826 10.5303 11.5897L7.53033 8.58966C7.38968 8.44901 7.19891 8.36999 7 8.36999H2ZM2.75 14.37V9.87H6.68934L8.93934 12.12L6.68934 14.37H2.75ZM17 8.36999C16.8011 8.36999 16.6103 8.44901 16.4697 8.58966L13.4697 11.5897C13.1768 11.8826 13.1768 12.3574 13.4697 12.6503L16.4697 15.6503C16.6103 15.791 16.8011 15.87 17 15.87H22C22.4142 15.87 22.75 15.5342 22.75 15.12V9.11999C22.75 8.70578 22.4142 8.36999 22 8.36999H17ZM15.0607 12.12L17.3107 9.87H21.25V14.37H17.3107L15.0607 12.12ZM12.5303 13.5897C12.2374 13.2968 11.7626 13.2968 11.4697 13.5897L8.46967 16.5897C8.32902 16.7303 8.25 16.9211 8.25 17.12V22.12C8.25 22.3189 8.32902 22.5097 8.46967 22.6503C8.61032 22.791 8.80109 22.87 9 22.87H15C15.4142 22.87 15.75 22.5342 15.75 22.12V17.12C15.75 16.9211 15.671 16.7303 15.5303 16.5897L12.5303 13.5897ZM9.75 21.37V17.4307L12 15.1807L14.25 17.4307V21.37H9.75Z" fill="white"/>
</svg>
