<svg width="24" height="25" viewBox="0 0 24 25" fill="none" xmlns="http://www.w3.org/2000/svg">
<path fill-rule="evenodd" clip-rule="evenodd" d="M15.5 3.3999C16.4665 3.3999 17.25 4.1834 17.25 5.1499C17.25 6.1164 16.4665 6.8999 15.5 6.8999H13.008L13.6667 4.70422C13.899 3.93006 14.6115 3.3999 15.4198 3.3999H15.5ZM18.75 5.1499C18.75 5.79422 18.5625 6.39475 18.2391 6.8999H21C21.4142 6.8999 21.75 7.23569 21.75 7.6499V11.6499C21.75 12.0641 21.4142 12.3999 21 12.3999H19.75V21.6499C19.75 22.0641 19.4142 22.3999 19 22.3999H12H5C4.58579 22.3999 4.25 22.0641 4.25 21.6499V12.3999H3C2.58579 12.3999 2.25 12.0641 2.25 11.6499V7.6499C2.25 7.23569 2.58579 6.8999 3 6.8999H5.76091C5.4375 6.39475 5.25 5.79422 5.25 5.1499C5.25 3.35498 6.70507 1.8999 8.5 1.8999H8.58023C10.0509 1.8999 11.3474 2.86456 11.77 4.2732L12 5.03983L12.23 4.2732C12.6526 2.86456 13.9491 1.8999 15.4198 1.8999H15.5C17.2949 1.8999 18.75 3.35498 18.75 5.1499ZM5 10.8999H11.25V8.3999H8.5H3.75V10.8999H5ZM12.75 10.8999H19H20.25V8.3999H15.5H12.75V10.8999ZM5.75 12.3999V20.8999H11.25V12.3999H5.75ZM12.75 12.3999V20.8999H18.25V12.3999H12.75ZM10.992 6.8999L10.3333 4.70422C10.101 3.93006 9.38847 3.3999 8.58023 3.3999H8.5C7.5335 3.3999 6.75 4.1834 6.75 5.1499C6.75 6.1164 7.5335 6.8999 8.5 6.8999H10.992Z" fill="white"/>
</svg>
