<svg width="24" height="25" viewBox="0 0 24 25" fill="none" xmlns="http://www.w3.org/2000/svg">
<path fill-rule="evenodd" clip-rule="evenodd" d="M6.62404 3.64393C6.8538 3.98858 6.76067 4.45423 6.41603 4.68399L3.75 6.46134V13.3196C4.49123 12.6899 5.4513 12.31 6.50009 12.31C8.59138 12.31 10.3299 13.8205 10.6841 15.81H13.316C13.6702 13.8204 15.4087 12.31 17.5 12.31C18.5488 12.31 19.5088 12.6898 20.25 13.3195V6.46134L17.584 4.68399C17.2393 4.45423 17.1462 3.98858 17.376 3.64393C17.6057 3.29928 18.0714 3.20615 18.416 3.43592L21.416 5.43592C21.6247 5.57502 21.75 5.80919 21.75 6.05996V16.56C21.75 18.9072 19.8472 20.81 17.5 20.81C15.4087 20.81 13.6702 19.2995 13.316 17.31H10.6841C10.3299 19.2995 8.59139 20.81 6.50009 20.81C4.15716 20.81 2.25703 18.9141 2.25011 16.5728L2.25 16.56V6.05996C2.25 5.80919 2.37533 5.57502 2.58397 5.43592L5.58397 3.43592C5.92862 3.20615 6.39427 3.29928 6.62404 3.64393ZM20.25 16.56C20.25 15.0412 19.0188 13.81 17.5 13.81C15.9812 13.81 14.75 15.0412 14.75 16.56C14.75 18.0787 15.9812 19.31 17.5 19.31C19.0188 19.31 20.25 18.0787 20.25 16.56ZM6.50009 13.81C4.98131 13.81 3.75009 15.0412 3.75009 16.56C3.75009 18.0788 4.98131 19.31 6.50009 19.31C8.01542 19.31 9.24449 18.0843 9.25007 16.5703L9.25 16.56L9.25007 16.5496C9.24448 15.0356 8.01541 13.81 6.50009 13.81Z" fill="white"/>
</svg>
