<svg width="24" height="25" viewBox="0 0 24 25" fill="none" xmlns="http://www.w3.org/2000/svg">
<path fill-rule="evenodd" clip-rule="evenodd" d="M4 2.83997C3.58579 2.83997 3.25 3.17576 3.25 3.58997L3.25 6.58997C3.25 11.1697 6.76847 14.9277 11.2498 15.3083L11.2498 20.84L7.99976 20.84C7.58555 20.84 7.24976 21.1758 7.24976 21.59C7.24976 22.0042 7.58555 22.34 7.99976 22.34L11.9998 22.34L15.9998 22.34C16.414 22.34 16.7498 22.0042 16.7498 21.59C16.7498 21.1758 16.414 20.84 15.9998 20.84L12.7498 20.84L12.7498 15.3083C17.2313 14.928 20.75 11.1699 20.75 6.58997L20.75 3.58997C20.75 3.17576 20.4142 2.83997 20 2.83997L4 2.83997ZM4.75 6.58997L4.75 4.33997L19.25 4.33997L19.25 6.58997C19.25 10.594 16.0041 13.84 12 13.84C7.99594 13.84 4.75 10.594 4.75 6.58997Z" fill="white"/>
</svg>
