<svg width="24" height="25" viewBox="0 0 24 25" fill="none" xmlns="http://www.w3.org/2000/svg">
<path fill-rule="evenodd" clip-rule="evenodd" d="M2.32918 3.25456C2.45623 3.00047 2.71593 2.83997 3 2.83997L21 2.83997C21.2841 2.83997 21.5438 3.00047 21.6708 3.25456C21.7979 3.50865 21.7705 3.81271 21.6 4.03997L17.1052 10.033C17.102 10.0374 17.0988 10.0417 17.0955 10.046L12.75 15.84L12.75 20.84L16 20.84C16.4142 20.84 16.75 21.1758 16.75 21.59C16.75 22.0042 16.4142 22.34 16 22.34L12 22.34L8 22.34C7.58579 22.34 7.25 22.0042 7.25 21.59C7.25 21.1758 7.58579 20.84 8 20.84L11.25 20.84L11.25 15.84L6.90459 10.0461C6.90126 10.0417 6.89797 10.0374 6.89473 10.0329L2.4 4.03997C2.22956 3.81271 2.20214 3.50865 2.32918 3.25456ZM9 10.34L12 14.34L15 10.34L9 10.34ZM16.125 8.83997L7.875 8.83997L4.5 4.33997L19.5 4.33997L16.125 8.83997Z" fill="white"/>
</svg>
