<svg width="24" height="25" viewBox="0 0 24 25" fill="none" xmlns="http://www.w3.org/2000/svg">
<path fill-rule="evenodd" clip-rule="evenodd" d="M10.9601 5.08015C11.3416 4.71702 11.6918 4.57959 12 4.57959C12.3082 4.57959 12.6584 4.71702 13.0399 5.08015C13.4254 5.44696 13.8066 6.01318 14.1431 6.77023C14.3399 7.21305 14.5163 7.70984 14.6675 8.25142C13.8176 8.13912 12.9222 8.07959 12 8.07959C11.0778 8.07959 10.1824 8.13912 9.3325 8.25142C9.48366 7.70984 9.66012 7.21305 9.85693 6.77023C10.1934 6.01318 10.5746 5.44696 10.9601 5.08015ZM7.71187 8.54146C7.91255 7.66622 8.17383 6.86389 8.48621 6.16103C8.64888 5.79502 8.82801 5.45014 9.02341 5.1329C6.86141 5.96959 5.14 7.691 4.30331 9.853C4.62055 9.6576 4.96543 9.47847 5.33143 9.3158C6.0343 9.00342 6.83663 8.74214 7.71187 8.54146ZM3.75 12.8296C3.75 12.8298 3.75 12.8299 3.75 12.8301C3.75016 13.1382 3.88764 13.4882 4.25056 13.8695C4.61737 14.255 5.18359 14.6362 5.94064 14.9727C6.38346 15.1695 6.88025 15.3459 7.42183 15.4971C7.30953 14.6472 7.25 13.7518 7.25 12.8296C7.25 11.9074 7.30953 11.0119 7.42183 10.1621C6.88025 10.3133 6.38346 10.4897 5.94064 10.6865C5.18359 11.023 4.61737 11.4042 4.25056 11.7896C3.88743 12.1712 3.75 12.5213 3.75 12.8296ZM8.98903 15.8406C8.83541 14.9099 8.75 13.8957 8.75 12.8296C8.75 11.7635 8.83541 10.7492 8.98903 9.81862C9.91965 9.665 10.9339 9.57959 12 9.57959C13.0661 9.57959 14.0803 9.665 15.011 9.81862C15.1646 10.7492 15.25 11.7635 15.25 12.8296C15.25 13.8957 15.1646 14.9099 15.011 15.8406C14.0803 15.9942 13.0661 16.0796 12 16.0796C10.9339 16.0796 9.91965 15.9942 8.98903 15.8406ZM7.71187 17.1177C6.83663 16.917 6.0343 16.6558 5.33144 16.3434C4.96543 16.1807 4.62055 16.0016 4.30331 15.8062C5.14 17.9682 6.86141 19.6896 9.02342 20.5263C8.82801 20.209 8.64888 19.8642 8.48621 19.4982C8.17383 18.7953 7.91255 17.993 7.71187 17.1177ZM9.3325 17.4078C10.1824 17.5201 11.0778 17.5796 12 17.5796C12.9222 17.5796 13.8176 17.5201 14.6675 17.4078C14.5163 17.9493 14.3399 18.4461 14.1431 18.8889C13.8066 19.646 13.4254 20.2122 13.0399 20.579C12.6584 20.9422 12.3082 21.0796 12 21.0796C11.6918 21.0796 11.3416 20.9422 10.9601 20.579C10.5746 20.2122 10.1934 19.646 9.85693 18.8889C9.66012 18.4461 9.48366 17.9493 9.3325 17.4078ZM16.2881 17.1177C16.0875 17.993 15.8262 18.7953 15.5138 19.4982C15.3511 19.8642 15.172 20.209 14.9766 20.5263C17.1386 19.6896 18.86 17.9682 19.6967 15.8062C19.3795 16.0016 19.0346 16.1807 18.6686 16.3434C17.9657 16.6558 17.1634 16.917 16.2881 17.1177ZM21.75 12.8296C21.75 7.44481 17.3848 3.07959 12 3.07959C6.61522 3.07959 2.25 7.44481 2.25 12.8296C2.25 18.2144 6.61522 22.5796 12 22.5796C17.3848 22.5796 21.75 18.2144 21.75 12.8296ZM19.6967 9.85301C19.3795 9.6576 19.0346 9.47847 18.6686 9.3158C17.9657 9.00342 17.1634 8.74214 16.2881 8.54146C16.0875 7.66622 15.8262 6.86389 15.5138 6.16103C15.3511 5.79502 15.172 5.45014 14.9766 5.1329C17.1386 5.96959 18.86 7.691 19.6967 9.85301ZM16.5782 10.1621C17.1198 10.3133 17.6165 10.4897 18.0594 10.6865C18.8164 11.023 19.3826 11.4042 19.7494 11.7896C20.1126 12.1712 20.25 12.5213 20.25 12.8296C20.25 13.1378 20.1126 13.488 19.7494 13.8695C19.3826 14.255 18.8164 14.6362 18.0594 14.9727C17.6165 15.1695 17.1198 15.3459 16.5782 15.4971C16.6905 14.6472 16.75 13.7518 16.75 12.8296C16.75 11.9074 16.6905 11.0119 16.5782 10.1621Z" fill="white"/>
</svg>
