<svg width="24" height="25" viewBox="0 0 24 25" fill="none" xmlns="http://www.w3.org/2000/svg">
<path fill-rule="evenodd" clip-rule="evenodd" d="M18.8945 2.93549C18.6016 2.6426 18.1267 2.6426 17.8338 2.93549C17.5409 3.22838 17.5409 3.70326 17.8338 3.99615C19.3276 5.48993 20.2502 7.5514 20.2502 9.82978C20.2502 14.3861 16.5565 18.0798 12.0002 18.0798C9.72181 18.0798 7.66034 17.1572 6.16656 15.6634C5.87367 15.3705 5.39879 15.3705 5.1059 15.6634C4.81301 15.9563 4.81301 16.4312 5.1059 16.7241C6.70418 18.3224 8.8568 19.3691 11.2502 19.5513V21.0798H9.00019C8.58598 21.0798 8.25019 21.4156 8.25019 21.8298C8.25019 22.244 8.58598 22.5798 9.00019 22.5798H12.0002H15.0002C15.4144 22.5798 15.7502 22.244 15.7502 21.8298C15.7502 21.4156 15.4144 21.0798 15.0002 21.0798H12.7502V19.5514C17.7845 19.1684 21.7502 14.9622 21.7502 9.82978C21.7502 7.1376 20.6581 4.69907 18.8945 2.93549ZM6.75019 9.82978C6.75019 6.93029 9.1007 4.57978 12.0002 4.57978C14.8997 4.57978 17.2502 6.93029 17.2502 9.82978C17.2502 12.7293 14.8997 15.0798 12.0002 15.0798C9.1007 15.0798 6.75019 12.7293 6.75019 9.82978ZM12.0002 3.07978C8.27227 3.07978 5.25019 6.10186 5.25019 9.82978C5.25019 13.5577 8.27227 16.5798 12.0002 16.5798C15.7281 16.5798 18.7502 13.5577 18.7502 9.82978C18.7502 6.10186 15.7281 3.07978 12.0002 3.07978Z" fill="white"/>
</svg>
