<svg width="24" height="25" viewBox="0 0 24 25" fill="none" xmlns="http://www.w3.org/2000/svg">
<path fill-rule="evenodd" clip-rule="evenodd" d="M12 2.07959C12.4142 2.07959 12.75 2.41538 12.75 2.82959V4.11128C16.9842 4.47072 20.3589 7.8454 20.7183 12.0796H22C22.4142 12.0796 22.75 12.4154 22.75 12.8296C22.75 13.2438 22.4142 13.5796 22 13.5796H20.7183C20.6428 14.4671 20.4348 15.3177 20.1137 16.111C19.9583 16.495 19.521 16.6802 19.1371 16.5248C18.7531 16.3694 18.5679 15.9321 18.7233 15.5482C19.0627 14.7096 19.25 13.7924 19.25 12.8296C19.25 8.82553 16.0041 5.57959 12 5.57959C11.373 5.57959 10.7656 5.65901 10.1869 5.80795C9.87657 5.88784 9.57425 5.98777 9.28141 6.10631C8.89746 6.26173 8.46022 6.07647 8.3048 5.69252C8.14938 5.30857 8.33464 4.87132 8.71859 4.7159C9.07248 4.57265 9.43791 4.45185 9.81306 4.3553C10.2785 4.23549 10.7587 4.15308 11.25 4.11133V2.82959C11.25 2.41538 11.5858 2.07959 12 2.07959ZM3.53033 3.29926C3.23744 3.00637 2.76256 3.00637 2.46967 3.29926C2.17678 3.59215 2.17678 4.06703 2.46967 4.35992L5.30514 7.19539C4.17419 8.53805 3.43912 10.2268 3.28172 12.0796H2C1.58579 12.0796 1.25 12.4154 1.25 12.8296C1.25 13.2438 1.58579 13.5796 2 13.5796H3.28169C3.64113 17.8138 7.01581 21.1885 11.25 21.5479V22.8296C11.25 23.2438 11.5858 23.5796 12 23.5796C12.4142 23.5796 12.75 23.2438 12.75 22.8296V21.5479C14.6028 21.3905 16.2915 20.6554 17.6342 19.5245L20.4697 22.3599C20.7626 22.6528 21.2374 22.6528 21.5303 22.3599C21.8232 22.067 21.8232 21.5922 21.5303 21.2993L18.1872 17.9561L6.87348 6.64241L3.53033 3.29926ZM12 20.0796C13.7322 20.0796 15.3216 19.4729 16.5689 18.4591L14.068 15.9582C13.4752 16.3506 12.7638 16.5796 12 16.5796C9.92893 16.5796 8.25 14.9007 8.25 12.8296C8.25 12.0658 8.47895 11.3544 8.87137 10.7616L6.37045 8.2607C5.35674 9.50798 4.75 11.0974 4.75 12.8296C4.75 16.8337 7.99594 20.0796 12 20.0796ZM12.9702 14.8605L9.96913 11.8594C9.82855 12.153 9.75 12.4818 9.75 12.8296C9.75 14.0722 10.7574 15.0796 12 15.0796C12.3478 15.0796 12.6766 15.001 12.9702 14.8605Z" fill="white"/>
</svg>
