<svg width="24" height="25" viewBox="0 0 24 25" fill="none" xmlns="http://www.w3.org/2000/svg">
<path fill-rule="evenodd" clip-rule="evenodd" d="M12 2.07959C12.4142 2.07959 12.75 2.41538 12.75 2.82959V4.11128C16.9842 4.47072 20.3589 7.8454 20.7183 12.0796H22C22.4142 12.0796 22.75 12.4154 22.75 12.8296C22.75 13.2438 22.4142 13.5796 22 13.5796H20.7183C20.3589 17.8138 16.9842 21.1885 12.75 21.5479V22.8296C12.75 23.2438 12.4142 23.5796 12 23.5796C11.5858 23.5796 11.25 23.2438 11.25 22.8296V21.5479C7.01581 21.1885 3.64113 17.8138 3.28169 13.5796H2C1.58579 13.5796 1.25 13.2438 1.25 12.8296C1.25 12.4154 1.58579 12.0796 2 12.0796H3.28169C3.64113 7.8454 7.01581 4.47072 11.25 4.11128V2.82959C11.25 2.41538 11.5858 2.07959 12 2.07959ZM12 20.0796C16.0041 20.0796 19.25 16.8337 19.25 12.8296C19.25 8.82553 16.0041 5.57959 12 5.57959C7.99594 5.57959 4.75 8.82553 4.75 12.8296C4.75 16.8337 7.99594 20.0796 12 20.0796ZM14.5 12.8296C14.5 14.2103 13.3807 15.3296 12 15.3296C10.6193 15.3296 9.5 14.2103 9.5 12.8296C9.5 11.4489 10.6193 10.3296 12 10.3296C13.3807 10.3296 14.5 11.4489 14.5 12.8296ZM16 12.8296C16 15.0387 14.2091 16.8296 12 16.8296C9.79086 16.8296 8 15.0387 8 12.8296C8 10.6205 9.79086 8.82959 12 8.82959C14.2091 8.82959 16 10.6205 16 12.8296Z" fill="white"/>
</svg>
