<svg width="24" height="25" viewBox="0 0 24 25" fill="none" xmlns="http://www.w3.org/2000/svg">
<path fill-rule="evenodd" clip-rule="evenodd" d="M2.25 3.18018C2.25 2.76596 2.58579 2.43018 3 2.43018H21C21.4142 2.43018 21.75 2.76596 21.75 3.18018V9.18018V21.1802C21.75 21.5944 21.4142 21.9302 21 21.9302H9H3C2.58579 21.9302 2.25 21.5944 2.25 21.1802V9.18018V3.18018ZM3.75 9.93018V20.4302H8.25L8.25 9.93018H3.75ZM8.99915 8.43018H3.75V3.93018H20.25V8.43018H9.00085C9.00057 8.43018 9.00029 8.43018 9 8.43018C8.99971 8.43018 8.99943 8.43018 8.99915 8.43018ZM9.75 9.93018L9.75 20.4302H20.25V9.93018H9.75Z" fill="white"/>
</svg>
