<svg width="24" height="25" viewBox="0 0 24 25" fill="none" xmlns="http://www.w3.org/2000/svg">
<path fill-rule="evenodd" clip-rule="evenodd" d="M3.00008 2.43018C2.58587 2.43018 2.25008 2.76596 2.25008 3.18018V9.16915L2.25 9.18018L2.25008 9.1912V21.1802C2.25008 21.5944 2.58587 21.9302 3.00008 21.9302L12.0001 21.9302L21.0001 21.9302C21.4143 21.9302 21.7501 21.5944 21.7501 21.1802V3.18018C21.7501 2.76596 21.4143 2.43018 21.0001 2.43018H12.0001H3.00008ZM3.75008 20.4302V9.93018H11.2501V15.1691C11.25 15.1728 11.25 15.1765 11.25 15.1802C11.25 15.1839 11.25 15.1875 11.2501 15.1912V20.4302H3.75008ZM12.7501 15.9302V20.4302H20.2501V15.9302H12.7501ZM20.2501 14.4302V3.93018H12.7501L12.7501 14.4302H20.2501ZM3.75008 8.43018H11.2501V3.93018H3.75008V8.43018Z" fill="white"/>
</svg>
