<svg width="24" height="25" viewBox="0 0 24 25" fill="none" xmlns="http://www.w3.org/2000/svg">
<path fill-rule="evenodd" clip-rule="evenodd" d="M3 2.43018C2.58579 2.43018 2.25 2.76596 2.25 3.18018V21.1802C2.25 21.5944 2.58579 21.9302 3 21.9302H21C21.4142 21.9302 21.75 21.5944 21.75 21.1802V12.1802V3.18018C21.75 2.76596 21.4142 2.43018 21 2.43018H3ZM14.25 11.4302H9.75V4.18018C9.75 4.09252 9.73496 4.00837 9.70732 3.93018H14.2927C14.265 4.00837 14.25 4.09252 14.25 4.18018V11.4302ZM14.25 12.9302H9.75V20.1802C9.75 20.2678 9.73496 20.352 9.70732 20.4302H14.2927C14.265 20.352 14.25 20.2678 14.25 20.1802V12.9302ZM15.7073 20.4302C15.735 20.352 15.75 20.2678 15.75 20.1802V12.9302H20.25V20.4302H15.7073ZM15.75 11.4302V4.18018C15.75 4.09252 15.735 4.00837 15.7073 3.93018H20.25V11.4302H15.75ZM8.25 4.18018V12.1802V20.1802C8.25 20.2678 8.26504 20.352 8.29268 20.4302H3.75V3.93018H8.29268C8.26504 4.00837 8.25 4.09252 8.25 4.18018Z" fill="white"/>
</svg>
