<svg width="24" height="25" viewBox="0 0 24 25" fill="none" xmlns="http://www.w3.org/2000/svg">
<path fill-rule="evenodd" clip-rule="evenodd" d="M3 2.43018C2.58579 2.43018 2.25 2.76596 2.25 3.18018V9.18018V21.1802C2.25 21.5944 2.58579 21.9302 3 21.9302H9H21C21.4142 21.9302 21.75 21.5944 21.75 21.1802V15.1802V9.18018V3.18018C21.75 2.76596 21.4142 2.43018 21 2.43018H3ZM20.25 14.4302V9.93018H9.75V14.4302L20.25 14.4302ZM9.75 15.9302L20.25 15.9302V20.4302H9.75V15.9302ZM8.25 15.1808C8.25 15.1806 8.25 15.1804 8.25 15.1802C8.25 15.18 8.25 15.1798 8.25 15.1796V9.93018H3.75V20.4302H8.25V15.1808ZM3.75 8.43018H9H20.25V3.93018H3.75V8.43018Z" fill="white"/>
</svg>
