<svg width="24" height="25" viewBox="0 0 24 25" fill="none" xmlns="http://www.w3.org/2000/svg">
<path fill-rule="evenodd" clip-rule="evenodd" d="M3 2.43018C2.58579 2.43018 2.25 2.76596 2.25 3.18018V9.18018V21.1802C2.25 21.5944 2.58579 21.9302 3 21.9302H9H15H21C21.4142 21.9302 21.75 21.5944 21.75 21.1802V9.18017V3.18018C21.75 2.76596 21.4142 2.43018 21 2.43018H3ZM15.75 20.4302H20.25V9.93017L15.75 9.93017L15.75 20.4302ZM14.25 9.93017L14.25 20.4302H9.75L9.75 9.93018L14.25 9.93017ZM15 8.43018L20.25 8.43017V3.93018H3.75V8.43018H9H15ZM8.25 20.4302L8.25 9.93018L3.75 9.93018V20.4302H8.25Z" fill="white"/>
</svg>
