<svg width="24" height="25" viewBox="0 0 24 25" fill="none" xmlns="http://www.w3.org/2000/svg">
<path fill-rule="evenodd" clip-rule="evenodd" d="M2.25 3.18018C2.25 2.76596 2.58579 2.43018 3 2.43018H12H21C21.4142 2.43018 21.75 2.76596 21.75 3.18018V12.1802V21.1802C21.75 21.5944 21.4142 21.9302 21 21.9302H12H3C2.58579 21.9302 2.25 21.5944 2.25 21.1802V12.1802V3.18018ZM3.75 12.9302V20.4302H11.25V12.9302H3.75ZM11.25 11.4302H3.75V3.93018H11.25V11.4302ZM12.75 12.9302V20.4302H20.25V12.9302H12.75ZM20.25 11.4302H12.75V3.93018H20.25V11.4302Z" fill="white"/>
</svg>
