<svg width="24" height="25" viewBox="0 0 24 25" fill="none" xmlns="http://www.w3.org/2000/svg">
<path fill-rule="evenodd" clip-rule="evenodd" d="M3 2.43018C2.58579 2.43018 2.25 2.76596 2.25 3.18018V12.1802V21.1802C2.25 21.5944 2.58579 21.9302 3 21.9302H9H15H21C21.4142 21.9302 21.75 21.5944 21.75 21.1802V12.1802V3.18018C21.75 2.76596 21.4142 2.43018 21 2.43018H15H9H3ZM14.25 3.93018H9.75V11.4302H14.25V3.93018ZM15.75 11.4302V3.93018H20.25V11.4302H15.75ZM14.25 12.9302H9.75V20.4302H14.25V12.9302ZM15.75 20.4302V12.9302H20.25V20.4302H15.75ZM3.75 20.4302V12.9302H8.25V20.4302H3.75ZM3.75 11.4302H8.25V3.93018H3.75V11.4302Z" fill="white"/>
</svg>
