<svg width="24" height="25" viewBox="0 0 24 25" fill="none" xmlns="http://www.w3.org/2000/svg">
<path fill-rule="evenodd" clip-rule="evenodd" d="M3 2.43018C2.58579 2.43018 2.25 2.76596 2.25 3.18018V9.18018V15.1802V21.1802C2.25 21.5944 2.58579 21.9302 3 21.9302L12 21.9302L21 21.9302C21.4142 21.9302 21.75 21.5944 21.75 21.1802V15.1802V9.18018V3.18018C21.75 2.76596 21.4142 2.43018 21 2.43018H3ZM20.25 14.4302V9.93018H12.75V14.4302H20.25ZM12.75 15.9302H20.25V20.4302H12.75V15.9302ZM11.25 14.4302V9.93018H3.75V14.4302H11.25ZM3.75 15.9302H11.25V20.4302H3.75V15.9302ZM3.75 8.43018H12H20.25V3.93018H3.75V8.43018Z" fill="white"/>
</svg>
