<svg width="24" height="25" viewBox="0 0 24 25" fill="none" xmlns="http://www.w3.org/2000/svg">
<path fill-rule="evenodd" clip-rule="evenodd" d="M10.7454 3.97205C10.7912 3.56037 10.4945 3.18956 10.0828 3.14381C9.67114 3.09807 9.30033 3.39472 9.25459 3.8064L8.66205 9.13928L3 9.13928C2.58579 9.13928 2.25 9.47507 2.25 9.88928C2.25 10.3035 2.58579 10.6393 3 10.6393L8.49538 10.6393L7.99538 15.1393H2C1.58579 15.1393 1.25 15.4751 1.25 15.8893C1.25 16.3035 1.58579 16.6393 2 16.6393H7.82871L7.25459 21.8064C7.20885 22.2181 7.5055 22.5889 7.91718 22.6346C8.32886 22.6804 8.69967 22.3837 8.74541 21.972L9.33794 16.6393L13.8287 16.6393L13.2546 21.8064C13.2088 22.2181 13.5055 22.5889 13.9172 22.6346C14.3289 22.6804 14.6997 22.3837 14.7454 21.972L15.3379 16.6393H20C20.4142 16.6393 20.75 16.3035 20.75 15.8893C20.75 15.4751 20.4142 15.1393 20 15.1393H15.5046L16.0046 10.6393L21 10.6393C21.4142 10.6393 21.75 10.3035 21.75 9.88928C21.75 9.47507 21.4142 9.13928 21 9.13928L16.1713 9.13928L16.7454 3.97205C16.7912 3.56037 16.4945 3.18956 16.0828 3.14381C15.6711 3.09807 15.3003 3.39472 15.2546 3.8064L14.662 9.13928H10.1713L10.7454 3.97205ZM13.9954 15.1393L14.4954 10.6393H10.0046L9.50461 15.1393L13.9954 15.1393Z" fill="white"/>
</svg>
