<svg width="24" height="25" viewBox="0 0 24 25" fill="none" xmlns="http://www.w3.org/2000/svg">
<path fill-rule="evenodd" clip-rule="evenodd" d="M12 4.63916C7.44365 4.63916 3.75 8.33281 3.75 12.8892C3.75 17.4455 7.44365 21.1392 12 21.1392C16.5563 21.1392 20.25 17.4455 20.25 12.8892C20.25 8.33281 16.5563 4.63916 12 4.63916ZM2.25 12.8892C2.25 7.50438 6.61522 3.13916 12 3.13916C17.3848 3.13916 21.75 7.50438 21.75 12.8892C21.75 18.2739 17.3848 22.6392 12 22.6392C6.61522 22.6392 2.25 18.2739 2.25 12.8892ZM11.093 8.14495C11.504 8.19633 11.7956 8.57117 11.7442 8.98219L11.5371 10.6392L13.0254 10.6392L13.2558 8.79613C13.3072 8.38512 13.682 8.09358 14.093 8.14495C14.504 8.19633 14.7956 8.57117 14.7442 8.98219L14.5371 10.6392H16C16.4142 10.6392 16.75 10.9749 16.75 11.3892C16.75 11.8034 16.4142 12.1392 16 12.1392H14.3496L14.1621 13.6392H15.5C15.9142 13.6392 16.25 13.9749 16.25 14.3892C16.25 14.8034 15.9142 15.1392 15.5 15.1392H13.9746L13.7442 16.9822C13.6928 17.3932 13.318 17.6847 12.907 17.6334C12.496 17.582 12.2044 17.2071 12.2558 16.7961L12.4629 15.1392H10.9746L10.7442 16.9822C10.6928 17.3932 10.318 17.6847 9.90697 17.6334C9.49596 17.582 9.20441 17.2071 9.25579 16.7961L9.46291 15.1392H8C7.58579 15.1392 7.25 14.8034 7.25 14.3892C7.25 13.9749 7.58579 13.6392 8 13.6392H9.65041L9.83791 12.1392H8.5C8.08579 12.1392 7.75 11.8034 7.75 11.3892C7.75 10.9749 8.08579 10.6392 8.5 10.6392H10.0254L10.2558 8.79613C10.3072 8.38512 10.682 8.09358 11.093 8.14495ZM11.1621 13.6392H12.6504L12.8379 12.1392H11.3496L11.1621 13.6392Z" fill="white"/>
</svg>
