<svg width="24" height="25" viewBox="0 0 24 25" fill="none" xmlns="http://www.w3.org/2000/svg">
<path fill-rule="evenodd" clip-rule="evenodd" d="M12 2.37C7.71979 2.37 4.25 5.83979 4.25 10.12V12.37H2C1.58579 12.37 1.25 12.7058 1.25 13.12V21.12C1.25 21.5342 1.58579 21.87 2 21.87H8C8.41421 21.87 8.75 21.5342 8.75 21.12V13.12C8.75 12.7058 8.41421 12.37 8 12.37H5.75V10.12C5.75 6.66822 8.54822 3.87 12 3.87C15.4518 3.87 18.25 6.66822 18.25 10.12V12.37H16C15.5858 12.37 15.25 12.7058 15.25 13.12V21.12C15.25 21.5342 15.5858 21.87 16 21.87H22C22.4142 21.87 22.75 21.5342 22.75 21.12V13.12C22.75 12.7058 22.4142 12.37 22 12.37H19.75V10.12C19.75 5.83979 16.2802 2.37 12 2.37ZM19 13.87H16.75V20.37H21.25V13.87H19ZM5 13.87H2.75V20.37H7.25V13.87H5Z" fill="white"/>
</svg>
