<svg width="24" height="25" viewBox="0 0 24 25" fill="none" xmlns="http://www.w3.org/2000/svg">
<path fill-rule="evenodd" clip-rule="evenodd" d="M12 2.37C6.61522 2.37 2.25 6.73522 2.25 12.12V13.12V17.12V21.12C2.25 21.5342 2.58579 21.87 3 21.87H9C9.41421 21.87 9.75 21.5342 9.75 21.12V13.12C9.75 12.7058 9.41421 12.37 9 12.37H3.75V12.12C3.75 7.56365 7.44365 3.87 12 3.87C16.5563 3.87 20.25 7.56365 20.25 12.12V12.37H15C14.5858 12.37 14.25 12.7058 14.25 13.12V21.12C14.25 21.5342 14.5858 21.87 15 21.87H21C21.4142 21.87 21.75 21.5342 21.75 21.12V17.12V13.12V12.12C21.75 6.73522 17.3848 2.37 12 2.37ZM20.25 13.87H15.75V20.37H20.25V17.12V13.87ZM3.75 13.87V17.12V20.37H8.25V13.87H3.75Z" fill="white"/>
</svg>
