<svg width="24" height="25" viewBox="0 0 24 25" fill="none" xmlns="http://www.w3.org/2000/svg">
<path fill-rule="evenodd" clip-rule="evenodd" d="M19.2378 5.75421C17.6809 4.16193 15.1189 4.16192 13.562 5.75421L12.5362 6.80338C12.3951 6.94769 12.2017 7.02904 11.9999 7.02904C11.7981 7.02904 11.6048 6.94769 11.4636 6.80338L10.4378 5.75421C8.8809 4.16193 6.31892 4.16193 4.76201 5.75421C3.25381 7.29669 3.25381 9.76139 4.76201 11.3039L11.9999 18.7063L19.2378 11.3039C20.746 9.76139 20.746 7.29669 19.2378 5.75421ZM12.4895 4.70553C14.6348 2.51148 18.165 2.51149 20.3103 4.70554C22.3885 6.83096 22.3885 10.2271 20.3103 12.3525L12.5362 20.3034C12.3951 20.4477 12.2017 20.529 11.9999 20.529C11.7981 20.529 11.6048 20.4477 11.4636 20.3034L3.6895 12.3525C1.61131 10.2271 1.61131 6.83096 3.6895 4.70554C5.8348 2.51148 9.36501 2.51149 11.5103 4.70554L11.9999 5.20626L12.4895 4.70553Z" fill="white"/>
</svg>
