<svg width="24" height="25" viewBox="0 0 24 25" fill="none" xmlns="http://www.w3.org/2000/svg">
<path fill-rule="evenodd" clip-rule="evenodd" d="M1.46967 1.52961C1.76256 1.23671 2.23744 1.23671 2.53033 1.52961L6.04088 5.04015L16.7287 15.728L21.5303 20.5296C21.8232 20.8225 21.8232 21.2974 21.5303 21.5903C21.2374 21.8832 20.7626 21.8832 20.4697 21.5903L16.198 17.3186L13.1962 20.3168C13.0966 20.4162 12.9222 20.5827 12.7791 20.7183C12.7062 20.7874 12.6391 20.8507 12.5903 20.8967L12.5321 20.9514L12.5161 20.9664L12.5119 20.9704L12.5108 20.9714L12.5105 20.9717L12.5105 20.9718L12.5104 20.9718L11.9972 20.4249L11.481 20.9689L11.4809 20.9688L11.4809 20.9688L11.4806 20.9685L11.4795 20.9675L11.4753 20.9635L11.4596 20.9486L11.4022 20.8939C11.3539 20.848 11.2876 20.7848 11.2155 20.7158C11.0736 20.58 10.9018 20.4147 10.8038 20.3168L3.79733 13.3189C1.73422 11.2583 1.73422 7.95842 3.79733 5.89782C3.96319 5.73216 4.13752 5.57939 4.31896 5.43956L1.46967 2.59027C1.17678 2.29737 1.17678 1.8225 1.46967 1.52961ZM5.39196 6.51256C5.20379 6.6431 5.02476 6.79192 4.85735 6.95912C3.38089 8.43379 3.38088 10.7829 4.85734 12.2575L11.8638 19.2555C11.8986 19.2902 11.9459 19.3366 11.9997 19.3887C12.054 19.3363 12.1017 19.29 12.1362 19.2555L15.1374 16.258L5.39196 6.51256ZM11.9972 20.4249L11.481 20.9689C11.7692 21.2424 12.2207 21.2437 12.5104 20.9718L11.9972 20.4249ZM19.1427 6.95912C17.6085 5.42687 15.0766 5.42688 13.5425 6.95912L12.53 7.97035C12.2372 8.26281 11.7628 8.26281 11.47 7.97035L10.4575 6.95912C10.2049 6.70681 9.92591 6.49645 9.62911 6.32758C9.36202 6.17562 9.07995 6.05695 8.78917 5.97178C8.39166 5.85534 8.16381 5.43871 8.28024 5.04119C8.39668 4.64368 8.81331 4.41583 9.21083 4.53226C9.61119 4.64953 10.0009 4.81332 10.3709 5.02383C10.7823 5.25792 11.1687 5.5494 11.5175 5.89782L12 6.37968L12.4825 5.89782C14.6022 3.78064 18.0829 3.78064 20.2027 5.89782C22.2658 7.95842 22.2658 11.2583 20.2027 13.3189L18.9294 14.5906C18.6363 14.8833 18.1614 14.883 17.8687 14.5899C17.576 14.2969 17.5763 13.822 17.8694 13.5293L19.1427 12.2575C20.6191 10.7829 20.6191 8.43379 19.1427 6.95912Z" fill="white"/>
</svg>
