<svg width="24" height="25" viewBox="0 0 24 25" fill="none" xmlns="http://www.w3.org/2000/svg">
<path fill-rule="evenodd" clip-rule="evenodd" d="M9.21346 8.2128L6.72068 5.72002C8.15171 4.52691 9.99158 3.81 12 3.81C14.0084 3.81 15.8483 4.52691 17.2793 5.72002L14.7865 8.2128C14.0038 7.64488 13.041 7.31 12 7.31C10.959 7.31 9.99619 7.64488 9.21346 8.2128ZM8.1528 9.27346L5.66002 6.78068C4.46691 8.21171 3.75 10.0516 3.75 12.06C3.75 14.0684 4.46691 15.9083 5.66002 17.3393L8.1528 14.8465C7.58488 14.0638 7.25 13.101 7.25 12.06C7.25 11.019 7.58488 10.0562 8.1528 9.27346ZM9.21346 15.9072L6.72068 18.4C8.15171 19.5931 9.99158 20.31 12 20.31C14.0084 20.31 15.8483 19.5931 17.2793 18.4L14.7865 15.9072C14.0038 16.4751 13.041 16.81 12 16.81C10.959 16.81 9.99619 16.4751 9.21346 15.9072ZM15.8472 14.8465L18.34 17.3393C19.5331 15.9083 20.25 14.0684 20.25 12.06C20.25 10.0516 19.5331 8.21171 18.34 6.78068L15.8472 9.27346C16.4151 10.0562 16.75 11.019 16.75 12.06C16.75 13.101 16.4151 14.0638 15.8472 14.8465ZM12 2.31C9.30782 2.31 6.86929 3.40212 5.10571 5.16571C3.34213 6.92929 2.25 9.36782 2.25 12.06C2.25 14.7522 3.34213 17.1907 5.10571 18.9543C6.86929 20.7179 9.30782 21.81 12 21.81C14.6922 21.81 17.1307 20.7179 18.8943 18.9543C20.6579 17.1907 21.75 14.7522 21.75 12.06C21.75 9.36782 20.6579 6.92929 18.8943 5.16571C17.1307 3.40212 14.6922 2.31 12 2.31ZM8.75 12.06C8.75 10.2651 10.2051 8.81 12 8.81C13.7949 8.81 15.25 10.2651 15.25 12.06C15.25 13.8549 13.7949 15.31 12 15.31C10.2051 15.31 8.75 13.8549 8.75 12.06Z" fill="white"/>
</svg>
