<svg width="24" height="25" viewBox="0 0 24 25" fill="none" xmlns="http://www.w3.org/2000/svg">
<path d="M11.7568 3.0633C6.85562 3.19581 3 7.15706 3 12.06M11.7568 3.0633C16.7922 2.92715 21 7.02271 21 12.06M11.7568 3.0633V9.06M3 12.06C3 16.9629 6.85562 20.9242 11.7568 21.0567M3 12.06H9M11.7568 21.0567C16.7922 21.1928 21 17.0973 21 12.06M11.7568 21.0567V15.0287M21 12.06H14.8438" stroke="white" stroke-width="1.5"/>
<path d="M15.1819 3.92827C16.6346 2.86498 18.5052 3.00887 19.7781 4.28183C21.0511 5.55479 21.1949 7.42536 20.1317 8.87802" stroke="white" stroke-width="1.5"/>
<path d="M3.86815 15.242C2.80486 16.6946 2.94875 18.5652 4.22171 19.8382C5.49467 21.1111 7.36524 21.255 8.81791 20.1917" stroke="white" stroke-width="1.5"/>
<path d="M20.1316 15.242C21.1949 16.6946 21.051 18.5652 19.778 19.8382C18.5051 21.1111 16.6345 21.255 15.1819 20.1917" stroke="white" stroke-width="1.5"/>
<path d="M8.81785 3.92827C7.36518 2.86498 5.4946 3.00887 4.22165 4.28183C2.9487 5.55479 2.80481 7.42536 3.86809 8.87802" stroke="white" stroke-width="1.5"/>
<path d="M9 12.06C9 10.4031 10.3431 9.06 12 9.06C13.6569 9.06 15 10.4031 15 12.06C15 13.7169 13.6569 15.06 12 15.06C10.3431 15.06 9 13.7169 9 12.06Z" stroke="white" stroke-width="1.5"/>
</svg>
