<svg width="24" height="25" viewBox="0 0 24 25" fill="none" xmlns="http://www.w3.org/2000/svg">
<path fill-rule="evenodd" clip-rule="evenodd" d="M12.5303 1.52973C12.2374 1.23684 11.7626 1.23684 11.4697 1.52973L6.4702 6.5292C6.47002 6.52938 6.46985 6.52955 6.46967 6.52973L4.46967 8.52973L1.46967 11.5297C1.17678 11.8226 1.17678 12.2975 1.46967 12.5904C1.76256 12.8833 2.23744 12.8833 2.53033 12.5904L4.25 10.8707V21.0601C4.25 21.4743 4.58579 21.8101 5 21.8101H19C19.4142 21.8101 19.75 21.4743 19.75 21.0601V10.8707L21.4697 12.5904C21.7626 12.8833 22.2374 12.8833 22.5303 12.5904C22.8232 12.2975 22.8232 11.8226 22.5303 11.5297L19.5303 8.52973L17.5303 6.52973C17.5303 6.52968 17.5302 6.52964 17.5302 6.52959L12.5303 1.52973ZM16.4693 7.59003L12 3.12072L7.53047 7.59025C7.53042 7.5903 7.53038 7.59034 7.53033 7.59039L5.75 9.37072V20.3101H18.25V9.37072L16.4697 7.59039C16.4696 7.59027 16.4694 7.59015 16.4693 7.59003Z" fill="white"/>
</svg>
