<svg width="24" height="25" viewBox="0 0 24 25" fill="none" xmlns="http://www.w3.org/2000/svg">
<path fill-rule="evenodd" clip-rule="evenodd" d="M2.25 3.06C2.25 2.64578 2.58579 2.31 3 2.31H12C12.4142 2.31 12.75 2.64578 12.75 3.06C12.75 3.47421 12.4142 3.81 12 3.81H3.75V17.2493L4.46967 16.5297L8.96967 12.0297C9.26256 11.7368 9.73744 11.7368 10.0303 12.0297L14 15.9993L16.4697 13.5297C16.7626 13.2368 17.2374 13.2368 17.5303 13.5297L20.25 16.2493V12.06C20.25 11.6458 20.5858 11.31 21 11.31C21.4142 11.31 21.75 11.6458 21.75 12.06V21.06C21.75 21.4742 21.4142 21.81 21 21.81H3C2.58579 21.81 2.25 21.4742 2.25 21.06V3.06ZM3.75 20.31V19.2673C3.85236 19.2312 3.94846 19.1722 4.03033 19.0903L5.53033 17.5903L9.5 13.6207L13.4697 17.5903L16.1893 20.31H3.75ZM20.25 20.31H18.2073C18.1712 20.2076 18.1122 20.1115 18.0303 20.0297L15.0607 17.06L17 15.1207L19.9697 18.0903C20.0515 18.1722 20.1476 18.2312 20.25 18.2673V20.31ZM17.75 3.06C17.75 2.64578 17.4142 2.31 17 2.31C16.5858 2.31 16.25 2.64578 16.25 3.06V7.24934L15.0303 6.02967C14.7374 5.73677 14.2626 5.73677 13.9697 6.02967C13.6768 6.32256 13.6768 6.79743 13.9697 7.09033L16.4697 9.59033C16.7626 9.88322 17.2374 9.88322 17.5303 9.59033L20.0303 7.09033C20.3232 6.79743 20.3232 6.32256 20.0303 6.02967C19.7374 5.73677 19.2626 5.73677 18.9697 6.02967L17.75 7.24934V3.06Z" fill="white"/>
</svg>
