<svg width="24" height="25" viewBox="0 0 24 25" fill="none" xmlns="http://www.w3.org/2000/svg">
<path fill-rule="evenodd" clip-rule="evenodd" d="M12 3.81C7.44365 3.81 3.75 7.50365 3.75 12.06C3.75 13.2878 4.01821 14.453 4.49925 15.5001L8.96967 11.0297C9.26256 10.7368 9.73744 10.7368 10.0303 11.0297L14 14.9993L16.4697 12.5297C16.7626 12.2368 17.2374 12.2368 17.5303 12.5297L19.7884 14.7877C20.0874 13.9339 20.25 13.0159 20.25 12.06C20.25 7.50365 16.5563 3.81 12 3.81ZM12 20.31C9.22676 20.31 6.77311 18.9416 5.27739 16.8433L5.53033 16.5903L9.5 12.6207L13.4697 16.5903L16.1 19.2207C14.8922 19.9137 13.4924 20.31 12 20.31ZM19.1161 16.2368C18.6465 17.0351 18.0464 17.7474 17.3451 18.3445L15.0607 16.06L17 14.1207L19.1161 16.2368ZM2.25 12.06C2.25 6.67522 6.61522 2.31 12 2.31C17.3848 2.31 21.75 6.67522 21.75 12.06C21.75 17.4448 17.3848 21.81 12 21.81C6.61522 21.81 2.25 17.4448 2.25 12.06ZM12.75 9.06C12.75 8.36964 13.3096 7.81 14 7.81C14.6904 7.81 15.25 8.36964 15.25 9.06C15.25 9.75035 14.6904 10.31 14 10.31C13.3096 10.31 12.75 9.75035 12.75 9.06ZM14 6.31C12.4812 6.31 11.25 7.54121 11.25 9.06C11.25 10.5788 12.4812 11.81 14 11.81C15.5188 11.81 16.75 10.5788 16.75 9.06C16.75 7.54121 15.5188 6.31 14 6.31Z" fill="white"/>
</svg>
