<svg width="24" height="25" viewBox="0 0 24 25" fill="none" xmlns="http://www.w3.org/2000/svg">
<path fill-rule="evenodd" clip-rule="evenodd" d="M2.25 3.06C2.25 2.64578 2.58579 2.31 3 2.31H21C21.4142 2.31 21.75 2.64578 21.75 3.06V21.06C21.75 21.4742 21.4142 21.81 21 21.81H3C2.58579 21.81 2.25 21.4742 2.25 21.06V3.06ZM3.75 19.2673V20.31H16.1893L13.4697 17.5903L9.5 13.6207L5.53033 17.5903L4.03033 19.0903C3.94846 19.1722 3.85236 19.2312 3.75 19.2673ZM3.75 17.2493L4.46967 16.5297L8.96967 12.0297C9.26256 11.7368 9.73744 11.7368 10.0303 12.0297L14 15.9993L16.4697 13.5297C16.7626 13.2368 17.2374 13.2368 17.5303 13.5297L20.25 16.2493V3.81H3.75V17.2493ZM20.25 18.2673C20.1476 18.2312 20.0515 18.1722 19.9697 18.0903L17 15.1207L15.0607 17.06L18.0303 20.0297C18.1122 20.1115 18.1712 20.2076 18.2073 20.31H20.25V18.2673ZM15 7.81C14.3096 7.81 13.75 8.36964 13.75 9.06C13.75 9.75035 14.3096 10.31 15 10.31C15.6904 10.31 16.25 9.75035 16.25 9.06C16.25 8.36964 15.6904 7.81 15 7.81ZM12.25 9.06C12.25 7.54121 13.4812 6.31 15 6.31C16.5188 6.31 17.75 7.54121 17.75 9.06C17.75 10.5788 16.5188 11.81 15 11.81C13.4812 11.81 12.25 10.5788 12.25 9.06Z" fill="white"/>
</svg>
