<svg width="24" height="25" viewBox="0 0 24 25" fill="none" xmlns="http://www.w3.org/2000/svg">
<path fill-rule="evenodd" clip-rule="evenodd" d="M2.25 3.06C2.25 2.64578 2.58579 2.31 3 2.31H12C12.4142 2.31 12.75 2.64578 12.75 3.06C12.75 3.47421 12.4142 3.81 12 3.81H3.75V17.2493L4.46967 16.5297L8.96967 12.0297C9.26256 11.7368 9.73744 11.7368 10.0303 12.0297L14 15.9993L16.4697 13.5297C16.7626 13.2368 17.2374 13.2368 17.5303 13.5297L20.25 16.2493V12.06C20.25 11.6458 20.5858 11.31 21 11.31C21.4142 11.31 21.75 11.6458 21.75 12.06V21.06C21.75 21.4742 21.4142 21.81 21 21.81H3C2.58579 21.81 2.25 21.4742 2.25 21.06V3.06ZM3.75 20.31V19.2673C3.85236 19.2312 3.94846 19.1722 4.03033 19.0903L5.53033 17.5903L9.5 13.6207L13.4697 17.5903L16.1893 20.31H3.75ZM20.25 20.31H18.2073C18.1712 20.2076 18.1122 20.1115 18.0303 20.0297L15.0607 17.06L17 15.1207L19.9697 18.0903C20.0515 18.1722 20.1476 18.2312 20.25 18.2673V20.31ZM18.5303 2.52967C18.2374 2.23678 17.7626 2.23678 17.4697 2.52967L14.9697 5.02967C14.6768 5.32256 14.6768 5.79744 14.9697 6.09033C15.2626 6.38322 15.7374 6.38322 16.0303 6.09033L17.25 4.87066V9.06C17.25 9.47421 17.5858 9.81 18 9.81C18.4142 9.81 18.75 9.47421 18.75 9.06V4.87066L19.9697 6.09033C20.2626 6.38322 20.7374 6.38322 21.0303 6.09033C21.3232 5.79744 21.3232 5.32256 21.0303 5.02967L18.5303 2.52967Z" fill="white"/>
</svg>
