<svg width="24" height="25" viewBox="0 0 24 25" fill="none" xmlns="http://www.w3.org/2000/svg">
<path fill-rule="evenodd" clip-rule="evenodd" d="M4.25 3.06C4.25 2.64578 4.58579 2.31 5 2.31H19C19.4142 2.31 19.75 2.64578 19.75 3.06V5.31H22C22.4142 5.31 22.75 5.64578 22.75 6.06V18.06C22.75 18.4742 22.4142 18.81 22 18.81H19.75V21.06C19.75 21.4742 19.4142 21.81 19 21.81H5C4.58579 21.81 4.25 21.4742 4.25 21.06V18.81H2C1.58579 18.81 1.25 18.4742 1.25 18.06V6.06C1.25 5.64578 1.58579 5.31 2 5.31H4.25V3.06ZM19.75 17.31H21.25V6.81H19.75V17.31ZM18.25 6.06V3.81H5.75V6.06V18.06V20.31H18.25V18.06V6.06ZM2.75 17.31H4.25V6.81H2.75V17.31Z" fill="white"/>
<circle cx="14" cy="9.06" r="2" stroke="white" stroke-width="1.5" stroke-linecap="round" stroke-linejoin="round"/>
<path d="M13.6471 16.56L13.0289 15.8094C11.5996 14.0739 10.885 13.2061 9.94118 13.2061C8.99733 13.2061 8.2827 14.0739 6.85346 15.8094L6.23529 16.56L5 18.06M13.6471 16.56V16.56C14.4946 15.5308 14.9184 15.0162 15.4271 14.8291C15.8729 14.6651 16.3624 14.6651 16.8082 14.8291C17.3169 15.0162 17.7407 15.5308 18.5882 16.56L19 17.06M13.6471 16.56L16.5294 20.06" stroke="white" stroke-width="1.5" stroke-linecap="square"/>
</svg>
