<svg width="24" height="25" viewBox="0 0 24 25" fill="none" xmlns="http://www.w3.org/2000/svg">
<path fill-rule="evenodd" clip-rule="evenodd" d="M1.53033 0.529667C1.23744 0.236774 0.762563 0.236774 0.46967 0.529667C0.176777 0.822561 0.176777 1.29743 0.46967 1.59033L2.25 3.37066V21.06C2.25 21.4742 2.58579 21.81 3 21.81H20.6893L22.4697 23.5903C22.7626 23.8832 23.2374 23.8832 23.5303 23.5903C23.8232 23.2974 23.8232 22.8226 23.5303 22.5297L3.5304 2.52974L3.53026 2.52959L1.53033 0.529667ZM3.75 19.6018V20.31H15.1369L9.13887 14.1326L3.75 19.6018ZM3.75 17.4646L8.60856 12.5336C8.75019 12.3899 8.94376 12.3093 9.14555 12.31C9.34734 12.3107 9.54032 12.3928 9.68089 12.5375L17.1905 20.2718C17.2026 20.2842 17.2141 20.297 17.2252 20.31H19.1893L3.75 4.87066V17.4646ZM9 2.31C8.58579 2.31 8.25 2.64578 8.25 3.06C8.25 3.47421 8.58579 3.81 9 3.81H20.25V15.06C20.25 15.4742 20.5858 15.81 21 15.81C21.4142 15.81 21.75 15.4742 21.75 15.06V3.06C21.75 2.64578 21.4142 2.31 21 2.31H9ZM16 6.81C15.3096 6.81 14.75 7.36964 14.75 8.06C14.75 8.75035 15.3096 9.31 16 9.31C16.6904 9.31 17.25 8.75035 17.25 8.06C17.25 7.36964 16.6904 6.81 16 6.81ZM13.25 8.06C13.25 6.54121 14.4812 5.31 16 5.31C17.5188 5.31 18.75 6.54121 18.75 8.06C18.75 9.57878 17.5188 10.81 16 10.81C14.4812 10.81 13.25 9.57878 13.25 8.06Z" fill="white"/>
</svg>
