<svg width="26" height="25" viewBox="0 0 26 25" fill="none" xmlns="http://www.w3.org/2000/svg">
<path fill-rule="evenodd" clip-rule="evenodd" d="M15.75 5.56C15.75 4.5935 16.5335 3.81 17.5 3.81C18.4665 3.81 19.25 4.5935 19.25 5.56C19.25 6.5265 18.4665 7.31 17.5 7.31C16.5335 7.31 15.75 6.5265 15.75 5.56ZM17.5 2.31C15.7051 2.31 14.25 3.76507 14.25 5.56C14.25 7.35492 15.7051 8.81 17.5 8.81C19.2949 8.81 20.75 7.35492 20.75 5.56C20.75 3.76507 19.2949 2.31 17.5 2.31ZM10.6309 6.65443C10.4929 6.43976 10.2552 6.31 10 6.31C9.7448 6.31 9.50712 6.43976 9.36912 6.65443L0.369117 20.6544C0.220757 20.8852 0.210249 21.1786 0.341716 21.4194C0.473184 21.6602 0.725645 21.81 1 21.81H10H19H25C25.2744 21.81 25.5268 21.6602 25.6583 21.4194C25.7898 21.1786 25.7792 20.8852 25.6309 20.6544L19.1309 10.5433C18.9929 10.3287 18.7552 10.1989 18.5 10.1989C18.2448 10.1989 18.0071 10.3287 17.8691 10.5433L15.5 14.2286L10.6309 6.65443ZM19.4095 20.31L16.3916 15.6156L18.5 12.3358L23.6263 20.31H19.4095ZM14.8691 16.0211L17.6263 20.31H10H2.37375L10 8.44694L14.8691 16.0211Z" fill="white"/>
</svg>
