<svg width="24" height="25" viewBox="0 0 24 25" fill="none" xmlns="http://www.w3.org/2000/svg">
<path fill-rule="evenodd" clip-rule="evenodd" d="M12.5303 1.52967C12.2374 1.23677 11.7626 1.23677 11.4697 1.52967L8.46967 4.52967C8.17677 4.82256 8.17677 5.29743 8.46967 5.59033C8.76256 5.88322 9.23743 5.88322 9.53033 5.59033L11.25 3.87066V12.06C11.25 12.4742 11.5858 12.81 12 12.81C12.4142 12.81 12.75 12.4742 12.75 12.06V3.87066L14.4697 5.59033C14.7626 5.88322 15.2374 5.88322 15.5303 5.59033C15.8232 5.29743 15.8232 4.82256 15.5303 4.52967L12.5303 1.52967ZM4.80769 7.77153C4.92414 7.49205 5.19722 7.30999 5.5 7.30999H8C8.41421 7.30999 8.75 7.64578 8.75 8.05999C8.75 8.47421 8.41421 8.80999 8 8.80999H6L4.125 13.31H8.00013C8.25089 13.31 8.48507 13.4353 8.62417 13.644L10.4015 16.31H13.5987L15.3761 13.644C15.5152 13.4353 15.7494 13.31 16.0001 13.31H19.875L18 8.80999H16C15.5858 8.80999 15.25 8.47421 15.25 8.05999C15.25 7.64578 15.5858 7.30999 16 7.30999H18.5C18.8028 7.30999 19.0759 7.49205 19.1923 7.77153L21.6923 13.7715C21.7442 13.8961 21.7616 14.0324 21.7425 14.1661L20.7425 21.1661C20.6897 21.5355 20.3732 21.81 20 21.81H4C3.62676 21.81 3.31032 21.5355 3.25754 21.1661L2.25754 14.1661C2.23845 14.0324 2.25578 13.8961 2.30769 13.7715L4.80769 7.77153ZM4.65047 20.31L3.86476 14.81H7.59874L9.37609 17.476C9.51519 17.6847 9.74936 17.81 10.0001 17.81H14.0001C14.2509 17.81 14.4851 17.6847 14.6242 17.476L16.4015 14.81H20.1352L19.3495 20.31H4.65047Z" fill="white"/>
</svg>
