<svg width="24" height="25" viewBox="0 0 24 25" fill="none" xmlns="http://www.w3.org/2000/svg">
<path fill-rule="evenodd" clip-rule="evenodd" d="M5.5 2.31C5.14983 2.31 4.84626 2.55232 4.76865 2.89378L2.26865 13.8938C2.24835 13.9831 2.24458 14.0754 2.25754 14.1661L3.25754 21.1661C3.31032 21.5356 3.62676 21.81 4 21.81H20C20.3732 21.81 20.6897 21.5356 20.7425 21.1661L21.7425 14.1661C21.7554 14.0754 21.7516 13.9831 21.7313 13.8938L19.2313 2.89378C19.1537 2.55232 18.8502 2.31 18.5 2.31H12H5.5ZM3.93958 13.31L6.09867 3.81H12H17.9013L20.0604 13.31H16C15.7492 13.31 15.5151 13.4353 15.376 13.644L13.5986 16.31H10.4014L8.62404 13.644C8.48494 13.4353 8.25076 13.31 8 13.31H3.93958ZM3.86476 14.81L4.65047 20.31H19.3495L20.1352 14.81H16.4014L14.624 17.476C14.4849 17.6847 14.2508 17.81 14 17.81H10C9.74924 17.81 9.51506 17.6847 9.37596 17.476L7.59861 14.81H3.86476Z" fill="white"/>
</svg>
