<svg width="24" height="25" viewBox="0 0 24 25" fill="none" xmlns="http://www.w3.org/2000/svg">
<path fill-rule="evenodd" clip-rule="evenodd" d="M4.76865 2.89378C4.84626 2.55232 5.14983 2.31 5.5 2.31H12H18.5C18.8502 2.31 19.1537 2.55232 19.2313 2.89378L21.7313 13.8938C21.7516 13.9831 21.7554 14.0754 21.7425 14.1661L20.7425 21.1661C20.6897 21.5356 20.3732 21.81 20 21.81H4C3.62676 21.81 3.31032 21.5356 3.25754 21.1661L2.25754 14.1661C2.24458 14.0754 2.24835 13.9831 2.26865 13.8938L4.76865 2.89378ZM3.93958 13.31H8C8.25076 13.31 8.48494 13.4353 8.62404 13.644L10.4014 16.31H13.5986L15.376 13.644C15.5151 13.4353 15.7492 13.31 16 13.31H20.0604L17.9013 3.81H12H6.09867L3.93958 13.31ZM20.1352 14.81H16.4014L14.624 17.476C14.4849 17.6847 14.2508 17.81 14 17.81H10C9.74924 17.81 9.51506 17.6847 9.37596 17.476L7.59861 14.81H3.86476L4.65047 20.31H19.3495L20.1352 14.81ZM10 6.31C9.58579 6.31 9.25 6.64578 9.25 7.06C9.25 7.47421 9.58579 7.81 10 7.81H14C14.4142 7.81 14.75 7.47421 14.75 7.06C14.75 6.64578 14.4142 6.31 14 6.31H10ZM8 9.31C7.58579 9.31 7.25 9.64578 7.25 10.06C7.25 10.4742 7.58579 10.81 8 10.81H16C16.4142 10.81 16.75 10.4742 16.75 10.06C16.75 9.64578 16.4142 9.31 16 9.31H8Z" fill="white"/>
</svg>
