<svg width="24" height="25" viewBox="0 0 24 25" fill="none" xmlns="http://www.w3.org/2000/svg">
<path fill-rule="evenodd" clip-rule="evenodd" d="M12.75 2.06C12.75 1.64578 12.4142 1.31 12 1.31C11.5858 1.31 11.25 1.64578 11.25 2.06V10.2493L9.53033 8.52967C9.23744 8.23677 8.76256 8.23677 8.46967 8.52967C8.17678 8.82256 8.17678 9.29743 8.46967 9.59033L11.4697 12.5903C11.7626 12.8832 12.2374 12.8832 12.5303 12.5903L15.5303 9.59033C15.8232 9.29743 15.8232 8.82256 15.5303 8.52967C15.2374 8.23677 14.7626 8.23677 14.4697 8.52967L12.75 10.2493V2.06ZM4.77239 3.8781C4.85586 3.54422 5.15585 3.31 5.5 3.31H8.75C9.16421 3.31 9.5 3.64578 9.5 4.06C9.5 4.47421 9.16421 4.81 8.75 4.81H6.08558L3.96058 13.31H8.0003C8.25106 13.31 8.48523 13.4353 8.62433 13.644L10.4017 16.31H13.5989L15.3763 13.644C15.5154 13.4353 15.7495 13.31 16.0003 13.31H20.0394L17.9144 4.81H15.25C14.8358 4.81 14.5 4.47421 14.5 4.06C14.5 3.64578 14.8358 3.31 15.25 3.31H18.5C18.8442 3.31 19.1441 3.54422 19.2276 3.8781L21.7276 13.8781C21.7511 13.9722 21.7562 14.07 21.7425 14.1661L20.7425 21.1661C20.6897 21.5356 20.3732 21.81 20 21.81H4C3.62676 21.81 3.31032 21.5356 3.25754 21.1661L2.25754 14.1661C2.24382 14.07 2.24886 13.9722 2.27239 13.8781L4.77239 3.8781ZM4.65047 20.31L3.86476 14.81H7.59891L9.37626 17.476C9.51536 17.6847 9.74953 17.81 10.0003 17.81H14.0003C14.2511 17.81 14.4852 17.6847 14.6243 17.476L16.4017 14.81H20.1352L19.3495 20.31H4.65047Z" fill="white"/>
</svg>
