<svg width="24" height="25" viewBox="0 0 24 25" fill="none" xmlns="http://www.w3.org/2000/svg">
<path fill-rule="evenodd" clip-rule="evenodd" d="M3.25 4.59009C3.25 4.17588 3.58579 3.84009 4 3.84009L20 3.84009C20.4142 3.84009 20.75 4.17588 20.75 4.59009C20.75 5.0043 20.4142 5.34009 20 5.34009L4 5.34009C3.58579 5.34009 3.25 5.0043 3.25 4.59009ZM9.25 9.59009C9.25 9.17588 9.58579 8.84009 10 8.84009L20 8.84009C20.4142 8.84009 20.75 9.17588 20.75 9.59009C20.75 10.0043 20.4142 10.3401 20 10.3401L10 10.3401C9.58579 10.3401 9.25 10.0043 9.25 9.59009ZM3.25 19.5901C3.25 19.1759 3.58579 18.8401 4 18.8401L20 18.8401C20.4142 18.8401 20.75 19.1759 20.75 19.5901C20.75 20.0043 20.4142 20.3401 20 20.3401L4 20.3401C3.58579 20.3401 3.25 20.0043 3.25 19.5901ZM10 13.8401C9.58579 13.8401 9.25 14.1759 9.25 14.5901C9.25 15.0043 9.58579 15.3401 10 15.3401L20 15.3401C20.4142 15.3401 20.75 15.0043 20.75 14.5901C20.75 14.1759 20.4142 13.8401 20 13.8401L10 13.8401ZM4.53033 9.05976C4.23744 8.76686 3.76256 8.76686 3.46967 9.05976C3.17678 9.35265 3.17678 9.82752 3.46967 10.1204L5.43934 12.0901L3.46967 14.0598C3.17678 14.3527 3.17678 14.8275 3.46967 15.1204C3.76256 15.4133 4.23744 15.4133 4.53033 15.1204L7.03033 12.6204C7.32322 12.3275 7.32322 11.8527 7.03033 11.5598L4.53033 9.05976Z" fill="white"/>
</svg>
