<svg width="24" height="25" viewBox="0 0 24 25" fill="none" xmlns="http://www.w3.org/2000/svg">
<path fill-rule="evenodd" clip-rule="evenodd" d="M3.25011 4.59009C3.25011 4.17588 3.5859 3.84009 4.00011 3.84009L20.0001 3.84009C20.4143 3.84009 20.7501 4.17588 20.7501 4.59009C20.7501 5.0043 20.4143 5.34009 20.0001 5.34009L4.00011 5.34009C3.5859 5.34009 3.25011 5.0043 3.25011 4.59009ZM10.25 9.59009C10.25 9.17587 10.5858 8.84009 11 8.84009L20 8.84009C20.4142 8.84009 20.75 9.17587 20.75 9.59009C20.75 10.0043 20.4142 10.3401 20 10.3401L11 10.3401C10.5858 10.3401 10.25 10.0043 10.25 9.59009ZM3.25011 19.5901C3.25011 19.1759 3.5859 18.8401 4.00011 18.8401L20.0001 18.8401C20.4143 18.8401 20.7501 19.1759 20.7501 19.5901C20.7501 20.0043 20.4143 20.3401 20.0001 20.3401L4.00011 20.3401C3.5859 20.3401 3.25011 20.0043 3.25011 19.5901ZM11 13.8401C10.5858 13.8401 10.25 14.1759 10.25 14.5901C10.25 15.0043 10.5858 15.3401 11 15.3401L20 15.3401C20.4142 15.3401 20.75 15.0043 20.75 14.5901C20.75 14.1759 20.4142 13.8401 20 13.8401L11 13.8401ZM7.03033 10.1204C7.32322 9.82746 7.32322 9.35259 7.03033 9.0597C6.73744 8.7668 6.26256 8.7668 5.96967 9.0597L3.46967 11.5597C3.17678 11.8526 3.17678 12.3275 3.46967 12.6204L5.96967 15.1204C6.26256 15.4132 6.73744 15.4132 7.03033 15.1204C7.32322 14.8275 7.32322 14.3526 7.03033 14.0597L5.06066 12.09L7.03033 10.1204Z" fill="white"/>
</svg>
