<svg width="24" height="25" viewBox="0 0 24 25" fill="none" xmlns="http://www.w3.org/2000/svg">
<path fill-rule="evenodd" clip-rule="evenodd" d="M11.25 4.59009C11.25 4.17587 11.5858 3.84009 12 3.84009L20 3.84009C20.4142 3.84009 20.75 4.17587 20.75 4.59009C20.75 5.0043 20.4142 5.34009 20 5.34009L12 5.34009C11.5858 5.34009 11.25 5.0043 11.25 4.59009ZM3.25 19.5901C3.25 19.1759 3.58578 18.8401 4 18.8401L20 18.8401C20.4142 18.8401 20.75 19.1759 20.75 19.5901C20.75 20.0043 20.4142 20.3401 20 20.3401L4 20.3401C3.58578 20.3401 3.25 20.0043 3.25 19.5901ZM12 8.84009C11.5858 8.84009 11.25 9.17587 11.25 9.59009C11.25 10.0043 11.5858 10.3401 12 10.3401L20 10.3401C20.4142 10.3401 20.75 10.0043 20.75 9.59009C20.75 9.17587 20.4142 8.84009 20 8.84009L12 8.84009ZM4.46967 4.05976C4.76256 3.76686 5.23744 3.76686 5.53033 4.05976L8.03033 6.55976C8.32322 6.85265 8.32322 7.32752 8.03033 7.62042L5.53033 10.1204C5.23744 10.4133 4.76256 10.4133 4.46967 10.1204C4.17678 9.82752 4.17678 9.35265 4.46967 9.05976L6.43934 7.09009L4.46967 5.12042C4.17678 4.82752 4.17678 4.35265 4.46967 4.05976ZM4 13.84C3.58578 13.84 3.25 14.1758 3.25 14.59C3.25 15.0043 3.58578 15.34 4 15.34L20 15.34C20.4142 15.34 20.75 15.0043 20.75 14.59C20.75 14.1758 20.4142 13.84 20 13.84L4 13.84Z" fill="white"/>
</svg>
