<svg width="24" height="25" viewBox="0 0 24 25" fill="none" xmlns="http://www.w3.org/2000/svg">
<path fill-rule="evenodd" clip-rule="evenodd" d="M2.74976 12.0599C2.74976 14.4071 4.65255 16.3099 6.99976 16.3099C7.95738 16.3099 8.83908 15.994 9.54932 15.4606C9.88051 15.2118 10.3507 15.2786 10.5994 15.6098C10.8482 15.941 10.7814 16.4111 10.4502 16.6599C9.48911 17.3818 8.29334 17.8099 6.99976 17.8099C3.82412 17.8099 1.24976 15.2355 1.24976 12.0599C1.24976 8.88424 3.82412 6.30988 6.99976 6.30988C10.1754 6.30988 12.7498 8.88424 12.7498 12.0599C12.7498 14.4071 14.6525 16.3099 16.9998 16.3099C19.347 16.3099 21.2498 14.4071 21.2498 12.0599C21.2498 9.71266 19.347 7.80987 16.9998 7.80987C16.0419 7.80987 15.1601 8.12582 14.4498 8.6595C14.1186 8.9083 13.6485 8.84154 13.3996 8.51038C13.1508 8.17922 13.2176 7.70906 13.5488 7.46026C14.5099 6.73811 15.7059 6.30988 16.9998 6.30987C20.1754 6.30987 22.7498 8.88424 22.7498 12.0599C22.7498 15.2355 20.1754 17.8099 16.9998 17.8099C13.8241 17.8099 11.2498 15.2355 11.2498 12.0599C11.2498 9.71266 9.34697 7.80988 6.99976 7.80988C4.65255 7.80988 2.74976 9.71266 2.74976 12.0599Z" fill="white"/>
</svg>
