<svg width="24" height="25" viewBox="0 0 24 25" fill="none" xmlns="http://www.w3.org/2000/svg">
<path fill-rule="evenodd" clip-rule="evenodd" d="M12 3.81006C7.44365 3.81006 3.75 7.50371 3.75 12.0601C3.75 16.6164 7.44365 20.3101 12 20.3101C16.5563 20.3101 20.25 16.6164 20.25 12.0601C20.25 7.50371 16.5563 3.81006 12 3.81006ZM2.25 12.0601C2.25 6.67528 6.61522 2.31006 12 2.31006C17.3848 2.31006 21.75 6.67528 21.75 12.0601C21.75 17.4448 17.3848 21.8101 12 21.8101C6.61522 21.8101 2.25 17.4448 2.25 12.0601ZM12 10.3101C12.4142 10.3101 12.75 10.6458 12.75 11.0601V16.0601C12.75 16.4743 12.4142 16.8101 12 16.8101C11.5858 16.8101 11.25 16.4743 11.25 16.0601V11.0601C11.25 10.6458 11.5858 10.3101 12 10.3101ZM12 9.06006C12.5523 9.06006 13 8.61234 13 8.06006C13 7.50777 12.5523 7.06006 12 7.06006C11.4477 7.06006 11 7.50777 11 8.06006C11 8.61234 11.4477 9.06006 12 9.06006Z" fill="white"/>
</svg>
