<svg width="24" height="25" viewBox="0 0 24 25" fill="none" xmlns="http://www.w3.org/2000/svg">
<path fill-rule="evenodd" clip-rule="evenodd" d="M3.3721 2.99872C3.13998 2.86608 2.85479 2.86703 2.62356 3.00122C2.39232 3.13541 2.25 3.38255 2.25 3.6499V21.6499C2.25 22.0641 2.58579 22.3999 3 22.3999H17H19H21C21.4142 22.3999 21.75 22.0641 21.75 21.6499V12.6499C21.75 12.2357 21.4142 11.8999 21 11.8999H17.75V3.6499C17.75 3.38255 17.6077 3.13541 17.3764 3.00122C17.1452 2.86703 16.86 2.86608 16.6279 2.99872L13.5 4.78609L10.3721 2.99872C10.1415 2.86696 9.85847 2.86696 9.6279 2.99872L6.5 4.78609L3.3721 2.99872ZM16.25 12.6499V4.94229L13.8721 6.30108C13.6415 6.43284 13.3585 6.43284 13.1279 6.30108L10 4.51372L6.8721 6.30108C6.64153 6.43284 6.35847 6.43284 6.1279 6.30108L3.75 4.94229V20.8999H16.25V12.6499ZM17.75 20.8999H19H20.25V13.3999H17.75V20.8999ZM7.25 10.6499C7.25 10.2357 7.58579 9.8999 8 9.8999H9.25V9.6499C9.25 9.23569 9.58579 8.8999 10 8.8999C10.4142 8.8999 10.75 9.23569 10.75 9.6499V9.8999H12C12.4142 9.8999 12.75 10.2357 12.75 10.6499C12.75 11.0641 12.4142 11.3999 12 11.3999H10H8.75V12.8999H12C12.4142 12.8999 12.75 13.2357 12.75 13.6499V16.6499C12.75 17.0641 12.4142 17.3999 12 17.3999H10.75V17.6499C10.75 18.0641 10.4142 18.3999 10 18.3999C9.58579 18.3999 9.25 18.0641 9.25 17.6499V17.3999H8C7.58579 17.3999 7.25 17.0641 7.25 16.6499C7.25 16.2357 7.58579 15.8999 8 15.8999H10H11.25V14.3999H8C7.58579 14.3999 7.25 14.0641 7.25 13.6499V10.6499Z" fill="white"/>
</svg>
