<svg width="24" height="25" viewBox="0 0 24 25" fill="none" xmlns="http://www.w3.org/2000/svg">
<path fill-rule="evenodd" clip-rule="evenodd" d="M4.27768 2.58008C4.27768 2.16586 4.61346 1.83008 5.02768 1.83008L20.9714 1.83008C21.3856 1.83008 21.7214 2.16586 21.7214 2.58008L21.7214 23.0792C21.7214 23.4934 21.3856 23.8292 20.9714 23.8292L5.02768 23.8292C4.61346 23.8292 4.27768 23.4934 4.27768 23.0792V18.135H2.75C2.33579 18.135 2 17.7992 2 17.385C2 16.9708 2.33579 16.635 2.75 16.635H4.27768V13.5796H2.75C2.33579 13.5796 2 13.2438 2 12.8296C2 12.4154 2.33579 12.0796 2.75 12.0796H4.27768L4.27768 9.02427H2.75C2.33579 9.02427 2 8.68848 2 8.27427C2 7.86005 2.33579 7.52427 2.75 7.52427H4.27768V2.58008ZM5.77768 9.02427H7.30536C7.71957 9.02427 8.05536 8.68848 8.05536 8.27427C8.05536 7.86005 7.71957 7.52427 7.30536 7.52427L5.77768 7.52427V3.33008L20.2214 3.33008L20.2214 22.3292L5.77768 22.3292V18.135H7.30536C7.71957 18.135 8.05536 17.7992 8.05536 17.385C8.05536 16.9708 7.71957 16.635 7.30536 16.635H5.77768V13.5796H7.30536C7.71957 13.5796 8.05536 13.2438 8.05536 12.8296C8.05536 12.4154 7.71957 12.0796 7.30536 12.0796H5.77768L5.77768 9.02427ZM9.97189 8.27427C9.97189 7.86005 10.3077 7.52427 10.7219 7.52427L17.5549 7.52427C17.9691 7.52427 18.3049 7.86005 18.3049 8.27427C18.3049 8.68848 17.9691 9.02427 17.5549 9.02427L10.7219 9.02427C10.3077 9.02427 9.97189 8.68848 9.97189 8.27427ZM10.7219 12.0796C10.3077 12.0796 9.97189 12.4154 9.97189 12.8296C9.97189 13.2438 10.3077 13.5796 10.7219 13.5796H15.2772C15.6915 13.5796 16.0272 13.2438 16.0272 12.8296C16.0272 12.4154 15.6915 12.0796 15.2772 12.0796H10.7219ZM9.97189 17.385C9.97189 16.9708 10.3077 16.635 10.7219 16.635H12.9996C13.4138 16.635 13.7496 16.9708 13.7496 17.385C13.7496 17.7992 13.4138 18.135 12.9996 18.135H10.7219C10.3077 18.135 9.97189 17.7992 9.97189 17.385Z" fill="white"/>
</svg>
