<svg width="24" height="26" viewBox="0 0 24 26" fill="none" xmlns="http://www.w3.org/2000/svg">
<path d="M2 20.56L1.37452 20.1462C1.22215 20.3765 1.20864 20.6718 1.33936 20.9151C1.47008 21.1583 1.72387 21.31 2 21.31V20.56ZM22 20.56V21.31C22.2591 21.31 22.4999 21.1762 22.6368 20.9562C22.7737 20.7362 22.7873 20.4611 22.6728 20.2286L22 20.56ZM16.7812 9.96625L17.454 9.63481C17.3099 9.34218 16.9931 9.17629 16.6705 9.22447C16.3478 9.27266 16.0933 9.52387 16.041 9.84585L16.7812 9.96625ZM15.1114 13.1004L15.5956 13.6731L15.1114 13.1004ZM10.6141 14.2138L10.5374 13.4677L10.6141 14.2138ZM4.6124 16.6117L3.98692 16.1978L4.6124 16.6117ZM22 19.81H2V21.31H22V19.81ZM16.1085 10.2977L21.3272 20.8915L22.6728 20.2286L17.454 9.63481L16.1085 10.2977ZM2.62548 20.9739L5.23788 17.0255L3.98692 16.1978L1.37452 20.1462L2.62548 20.9739ZM16.7812 9.96625C16.041 9.84585 16.041 9.84565 16.041 9.84546C16.041 9.84541 16.0411 9.84523 16.0411 9.84512C16.0411 9.84491 16.0412 9.84472 16.0412 9.84457C16.0412 9.84426 16.0413 9.84407 16.0413 9.844C16.0413 9.84385 16.0413 9.84416 16.0411 9.84493C16.0409 9.84647 16.0403 9.84983 16.0393 9.85491C16.0375 9.86509 16.0343 9.88215 16.0296 9.90541C16.0202 9.952 16.0047 10.0231 15.9821 10.1134C15.9366 10.2947 15.8628 10.5492 15.7517 10.8351C15.5246 11.4194 15.165 12.073 14.6272 12.5277L15.5956 13.6731C16.4029 12.9906 16.8782 12.0772 17.1498 11.3786C17.2879 11.0232 17.3795 10.7074 17.4369 10.4787C17.4657 10.364 17.4862 10.2702 17.4997 10.2031C17.5065 10.1696 17.5116 10.1426 17.5152 10.123C17.517 10.1132 17.5184 10.1052 17.5194 10.0991C17.52 10.096 17.5204 10.0935 17.5207 10.0914C17.5209 10.0904 17.5211 10.0894 17.5212 10.0887C17.5213 10.0883 17.5213 10.0879 17.5214 10.0876C17.5214 10.0874 17.5214 10.0872 17.5215 10.0871C17.5215 10.0869 17.5215 10.0866 16.7812 9.96625ZM14.6272 12.5277C13.8572 13.1787 13.4206 13.3198 12.9678 13.369C12.6996 13.3982 12.4172 13.3954 12.004 13.3975C11.6039 13.3995 11.1255 13.4072 10.5374 13.4677L10.6909 14.9598C11.207 14.9067 11.6288 14.8994 12.0115 14.8975C12.3812 14.8956 12.7641 14.9001 13.1301 14.8602C13.9458 14.7715 14.6537 14.4695 15.5956 13.6731L14.6272 12.5277ZM10.5374 13.4677C8.47862 13.6796 5.99557 14.8094 5.02096 15.2832L5.67679 16.6323C6.6609 16.1538 8.92654 15.1414 10.6909 14.9598L10.5374 13.4677ZM5.23788 17.0255C5.35441 16.8494 5.50548 16.7155 5.67679 16.6323L5.02096 15.2832C4.58991 15.4928 4.23996 15.8154 3.98692 16.1978L5.23788 17.0255Z" fill="white"/>
<path d="M14.6154 6.57121L11.8097 1.06L6.0896 12.3846C6.0896 12.3846 7.6521 11.645 9.81243 11.3746C10.5042 11.2881 11.0998 11.2463 11.59 11.2296C12.5285 11.1976 13.4276 10.6439 13.7383 9.75773C13.9442 9.17068 14.1586 8.54039 14.2825 8.12199C14.5747 7.13585 14.6154 6.57121 14.6154 6.57121Z" stroke="white" stroke-width="1.5" stroke-linejoin="round"/>
</svg>
