<svg width="24" height="25" viewBox="0 0 24 25" fill="none" xmlns="http://www.w3.org/2000/svg">
<path fill-rule="evenodd" clip-rule="evenodd" d="M11.7367 1.41775C11.9064 1.35408 12.0936 1.35408 12.2633 1.41775L20.2633 4.41772C20.5561 4.52749 20.75 4.80734 20.75 5.11997L20.75 17.12C20.75 17.3786 20.6168 17.6189 20.3975 17.756L12.3975 22.756C12.1543 22.908 11.8457 22.908 11.6025 22.756L3.6025 17.756C3.38321 17.6189 3.25 17.3786 3.25 17.12L3.25 5.11997C3.25 4.80734 3.44393 4.52749 3.73666 4.41772L11.7367 1.41775ZM4.75 5.63972L4.75 16.7043L12 21.2355L19.25 16.7043L19.25 5.63972L12 2.921L4.75 5.63972Z" fill="white"/>
<path fill-rule="evenodd" clip-rule="evenodd" d="M16.7516 7.20061C17.0414 6.90747 17.0403 6.43497 16.7485 6.14313C16.4556 5.85024 15.9807 5.85024 15.6878 6.14313L11.1685 10.6625C10.646 10.3327 10.027 10.1418 9.36351 10.1418C7.49322 10.1418 5.97705 11.658 5.97705 13.5283C5.97705 15.3986 7.49322 16.9148 9.36351 16.9148C11.2338 16.9148 12.75 15.3986 12.75 13.5283C12.75 12.8647 12.5591 12.2456 12.2292 11.7231L13.8455 10.1068L14.8971 11.1584C15.19 11.4513 15.6648 11.4513 15.9577 11.1584L17.8033 9.31288C18.0961 9.01999 18.0961 8.54512 17.8033 8.25222L16.7516 7.20061ZM9.36351 11.6418C8.32165 11.6418 7.47705 12.4864 7.47705 13.5283C7.47705 14.5702 8.32165 15.4148 9.36351 15.4148C10.4054 15.4148 11.25 14.5702 11.25 13.5283C11.25 12.4864 10.4054 11.6418 9.36351 11.6418ZM15.4274 9.56742L14.9062 9.0462L15.691 8.26134L16.2123 8.78255L15.4274 9.56742Z" fill="white"/>
</svg>
