<svg width="24" height="25" viewBox="0 0 24 25" fill="none" xmlns="http://www.w3.org/2000/svg">
<path fill-rule="evenodd" clip-rule="evenodd" d="M21.5303 2.58967C21.8232 2.88256 21.8232 3.35743 21.5303 3.65033L20.6678 4.51283L23.2803 7.12527C23.5732 7.41816 23.5732 7.89303 23.2803 8.18593L19.7803 11.6859C19.4874 11.9788 19.0125 11.9788 18.7196 11.6859L16.1072 9.07349L11.9642 13.2165C12.4637 14.0687 12.75 15.0609 12.75 16.12C12.75 19.2956 10.1756 21.87 7 21.87C3.82436 21.87 1.25 19.2956 1.25 16.12C1.25 12.9444 3.82436 10.37 7 10.37C8.57239 10.37 9.99737 11.0011 11.0354 12.0239L20.4697 2.58967C20.7626 2.29677 21.2374 2.29677 21.5303 2.58967ZM10.4561 13.6639C10.3917 13.5995 10.3414 13.5263 10.3053 13.4482C9.52618 12.4855 8.33497 11.87 7 11.87C4.65279 11.87 2.75 13.7728 2.75 16.12C2.75 18.4672 4.65279 20.37 7 20.37C9.34721 20.37 11.25 18.4672 11.25 16.12C11.25 15.2203 10.9704 14.3858 10.4934 13.6989C10.4807 13.6877 10.4682 13.6761 10.4561 13.6639ZM19.2499 10.0949L17.3106 8.1556L19.7499 5.71626L21.6893 7.6556L19.2499 10.0949Z" fill="white"/>
<path fill-rule="evenodd" clip-rule="evenodd" d="M14.3804 18.1907C14.3804 18.1431 14.4071 17.9767 14.5375 17.7263C14.6609 17.4895 14.8563 17.2186 15.133 16.9633C15.6773 16.4609 16.5428 16.0114 17.8152 16.0114C19.0875 16.0114 19.9531 16.4609 20.4973 16.9633C20.774 17.2186 20.9694 17.4895 21.0928 17.7263C21.2232 17.9767 21.2499 18.1431 21.2499 18.1907C21.2499 18.2383 21.2232 18.4047 21.0928 18.6551C20.9694 18.8919 20.774 19.1628 20.4973 19.4181C19.9531 19.9205 19.0875 20.37 17.8152 20.37C16.5428 20.37 15.6773 19.9205 15.133 19.4181C14.8563 19.1628 14.6609 18.8919 14.5375 18.6551C14.4071 18.4047 14.3804 18.2383 14.3804 18.1907ZM17.8152 14.5114C16.1582 14.5114 14.9313 15.108 14.1155 15.8611C13.7122 16.2334 13.4107 16.6426 13.2071 17.0334C13.0106 17.4108 12.8804 17.8199 12.8804 18.1907C12.8804 18.5615 13.0106 18.9706 13.2071 19.348C13.4107 19.7388 13.7122 20.148 14.1155 20.5203C14.9313 21.2734 16.1582 21.87 17.8152 21.87C19.4721 21.87 20.699 21.2734 21.5148 20.5203C21.9182 20.148 22.2196 19.7388 22.4232 19.348C22.6197 18.9706 22.7499 18.5615 22.7499 18.1907C22.7499 17.8199 22.6197 17.4108 22.4232 17.0334C22.2196 16.6426 21.9182 16.2334 21.5148 15.8611C20.699 15.108 19.4721 14.5114 17.8152 14.5114ZM17.3097 18.1907C17.3097 17.9116 17.536 17.6853 17.8152 17.6853C18.0943 17.6853 18.3206 17.9116 18.3206 18.1907C18.3206 18.4698 18.0943 18.6961 17.8152 18.6961C17.536 18.6961 17.3097 18.4698 17.3097 18.1907ZM17.8152 16.1853C16.7076 16.1853 15.8097 17.0831 15.8097 18.1907C15.8097 19.2983 16.7076 20.1961 17.8152 20.1961C18.9227 20.1961 19.8206 19.2983 19.8206 18.1907C19.8206 17.0831 18.9227 16.1853 17.8152 16.1853Z" fill="white"/>
</svg>
