<svg width="24" height="25" viewBox="0 0 24 25" fill="none" xmlns="http://www.w3.org/2000/svg">
<path fill-rule="evenodd" clip-rule="evenodd" d="M20.5303 2.58967C20.8232 2.88256 20.8232 3.35743 20.5303 3.65033L20.0607 4.12L22.5303 6.58966C22.8232 6.88256 22.8232 7.35743 22.5303 7.65033L19.0303 11.1503C18.7374 11.4432 18.2626 11.4432 17.9697 11.1503L15.5 8.68066L11.5617 12.619C12.3069 13.5886 12.75 14.8025 12.75 16.12C12.75 19.2956 10.1756 21.87 7 21.87C3.82436 21.87 1.25 19.2956 1.25 16.12C1.25 12.9444 3.82436 10.37 7 10.37C8.31745 10.37 9.53141 10.8131 10.501 11.5583L14.9697 7.08966L18.4697 3.58967C18.4698 3.58957 18.4699 3.58948 18.4699 3.58938L19.4697 2.58967C19.7626 2.29677 20.2374 2.29677 20.5303 2.58967ZM16.5607 7.62L18.5 9.55933L20.9393 7.12L19 5.18066L16.5607 7.62ZM7 11.87C4.65279 11.87 2.75 13.7728 2.75 16.12C2.75 18.4672 4.65279 20.37 7 20.37C9.34721 20.37 11.25 18.4672 11.25 16.12C11.25 13.7728 9.34721 11.87 7 11.87Z" fill="white"/>
</svg>
