<svg width="24" height="25" viewBox="0 0 24 25" fill="none" xmlns="http://www.w3.org/2000/svg">
<path fill-rule="evenodd" clip-rule="evenodd" d="M1.25 3.12C1.25 2.70578 1.58579 2.37 2 2.37H22C22.4142 2.37 22.75 2.70578 22.75 3.12V15.12C22.75 15.5342 22.4142 15.87 22 15.87H2C1.58579 15.87 1.25 15.5342 1.25 15.12V3.12ZM2.75 3.87V14.37H21.25V3.87H2.75ZM9.25 11.12C9.25 10.7058 9.58579 10.37 10 10.37H14C14.4142 10.37 14.75 10.7058 14.75 11.12C14.75 11.5342 14.4142 11.87 14 11.87H10C9.58579 11.87 9.25 11.5342 9.25 11.12ZM6 12.12C6.55228 12.12 7 11.6723 7 11.12C7 10.5677 6.55228 10.12 6 10.12C5.44772 10.12 5 10.5677 5 11.12C5 11.6723 5.44772 12.12 6 12.12ZM19 11.12C19 11.6723 18.5523 12.12 18 12.12C17.4477 12.12 17 11.6723 17 11.12C17 10.5677 17.4477 10.12 18 10.12C18.5523 10.12 19 10.5677 19 11.12ZM18 8.12C18.5523 8.12 19 7.67228 19 7.12C19 6.56771 18.5523 6.12 18 6.12C17.4477 6.12 17 6.56771 17 7.12C17 7.67228 17.4477 8.12 18 8.12ZM7 7.12C7 7.67228 6.55228 8.12 6 8.12C5.44772 8.12 5 7.67228 5 7.12C5 6.56771 5.44772 6.12 6 6.12C6.55228 6.12 7 6.56771 7 7.12ZM10 8.12C10.5523 8.12 11 7.67228 11 7.12C11 6.56771 10.5523 6.12 10 6.12C9.44771 6.12 9 6.56771 9 7.12C9 7.67228 9.44771 8.12 10 8.12ZM15 7.12C15 7.67228 14.5523 8.12 14 8.12C13.4477 8.12 13 7.67228 13 7.12C13 6.56771 13.4477 6.12 14 6.12C14.5523 6.12 15 6.56771 15 7.12ZM15.5303 18.6503L12.5303 21.6503C12.2374 21.9432 11.7626 21.9432 11.4697 21.6503L8.46967 18.6503C8.17678 18.3574 8.17678 17.8826 8.46967 17.5897C8.76256 17.2968 9.23744 17.2968 9.53033 17.5897L12 20.0593L14.4697 17.5897C14.7626 17.2968 15.2374 17.2968 15.5303 17.5897C15.8232 17.8826 15.8232 18.3574 15.5303 18.6503Z" fill="white"/>
</svg>
