<svg width="24" height="25" viewBox="0 0 24 25" fill="none" xmlns="http://www.w3.org/2000/svg">
<path fill-rule="evenodd" clip-rule="evenodd" d="M2 5.37C1.58579 5.37 1.25 5.70578 1.25 6.12V18.12C1.25 18.5342 1.58579 18.87 2 18.87H22C22.4142 18.87 22.75 18.5342 22.75 18.12V6.12C22.75 5.70578 22.4142 5.37 22 5.37H2ZM2.75 17.37V6.87H21.25V17.37H2.75ZM10 13.37C9.58579 13.37 9.25 13.7058 9.25 14.12C9.25 14.5342 9.58579 14.87 10 14.87H14C14.4142 14.87 14.75 14.5342 14.75 14.12C14.75 13.7058 14.4142 13.37 14 13.37H10ZM7 14.12C7 14.6723 6.55228 15.12 6 15.12C5.44772 15.12 5 14.6723 5 14.12C5 13.5677 5.44772 13.12 6 13.12C6.55228 13.12 7 13.5677 7 14.12ZM18 15.12C18.5523 15.12 19 14.6723 19 14.12C19 13.5677 18.5523 13.12 18 13.12C17.4477 13.12 17 13.5677 17 14.12C17 14.6723 17.4477 15.12 18 15.12ZM19 10.12C19 10.6723 18.5523 11.12 18 11.12C17.4477 11.12 17 10.6723 17 10.12C17 9.56771 17.4477 9.12 18 9.12C18.5523 9.12 19 9.56771 19 10.12ZM6 11.12C6.55228 11.12 7 10.6723 7 10.12C7 9.56771 6.55228 9.12 6 9.12C5.44772 9.12 5 9.56771 5 10.12C5 10.6723 5.44772 11.12 6 11.12ZM11 10.12C11 10.6723 10.5523 11.12 10 11.12C9.44771 11.12 9 10.6723 9 10.12C9 9.56771 9.44771 9.12 10 9.12C10.5523 9.12 11 9.56771 11 10.12ZM14 11.12C14.5523 11.12 15 10.6723 15 10.12C15 9.56771 14.5523 9.12 14 9.12C13.4477 9.12 13 9.56771 13 10.12C13 10.6723 13.4477 11.12 14 11.12Z" fill="white"/>
</svg>
