<svg width="24" height="25" viewBox="0 0 24 25" fill="none" xmlns="http://www.w3.org/2000/svg">
<path fill-rule="evenodd" clip-rule="evenodd" d="M3 2.90002C2.58579 2.90002 2.25 3.23581 2.25 3.65002V21.65C2.25 22.0642 2.58579 22.4 3 22.4H21C21.4142 22.4 21.75 22.0642 21.75 21.65V3.65002C21.75 3.23581 21.4142 2.90002 21 2.90002H3ZM3.75 20.9V4.40002H20.25V20.9H3.75ZM10 8.90003C9.58579 8.90003 9.25 9.23581 9.25 9.65003V12.65V15.65C9.25 16.0642 9.58579 16.4 10 16.4H14C14.4142 16.4 14.75 16.0642 14.75 15.65C14.75 15.2358 14.4142 14.9 14 14.9H10.75V13.4H14C14.4142 13.4 14.75 13.0642 14.75 12.65C14.75 12.2358 14.4142 11.9 14 11.9H10.75V10.4H14C14.4142 10.4 14.75 10.0642 14.75 9.65003C14.75 9.23581 14.4142 8.90003 14 8.90003H10Z" fill="white"/>
</svg>
