<svg width="24" height="25" viewBox="0 0 24 25" fill="none" xmlns="http://www.w3.org/2000/svg">
<path fill-rule="evenodd" clip-rule="evenodd" d="M1.25 3.65002C1.25 3.23581 1.58579 2.90002 2 2.90002H22C22.4142 2.90002 22.75 3.23581 22.75 3.65002V21.65C22.75 22.0642 22.4142 22.4 22 22.4H2C1.58579 22.4 1.25 22.0642 1.25 21.65V3.65002ZM2.75 4.40002V20.9H21.25V4.40002H2.75ZM7 8.90002C7.41421 8.90002 7.75 9.23581 7.75 9.65002V11.9H10.25V9.65002C10.25 9.23581 10.5858 8.90002 11 8.90002C11.4142 8.90002 11.75 9.23581 11.75 9.65002V12.65V15.65C11.75 16.0642 11.4142 16.4 11 16.4C10.5858 16.4 10.25 16.0642 10.25 15.65V13.4H7C6.58579 13.4 6.25 13.0642 6.25 12.65V9.65002C6.25 9.23581 6.58579 8.90002 7 8.90002ZM17.4881 10.2195C17.8026 9.9499 17.839 9.47643 17.5694 9.16193C17.2999 8.84744 16.8264 8.81102 16.5119 9.08058L14.25 11.0194V9.65002C14.25 9.23581 13.9142 8.90002 13.5 8.90002C13.0858 8.90002 12.75 9.23581 12.75 9.65002V12.65V15.65C12.75 16.0642 13.0858 16.4 13.5 16.4C13.9142 16.4 14.25 16.0642 14.25 15.65V14.2807L16.5119 16.2195C16.8264 16.489 17.2999 16.4526 17.5694 16.1381C17.839 15.8236 17.8026 15.3501 17.4881 15.0806L14.6524 12.65L17.4881 10.2195Z" fill="white"/>
</svg>
