<svg width="24" height="25" viewBox="0 0 24 25" fill="none" xmlns="http://www.w3.org/2000/svg">
<path fill-rule="evenodd" clip-rule="evenodd" d="M2 2.90002C1.58579 2.90002 1.25 3.23581 1.25 3.65002V21.65C1.25 22.0642 1.58579 22.4 2 22.4H22C22.4142 22.4 22.75 22.0642 22.75 21.65V3.65002C22.75 3.23581 22.4142 2.90002 22 2.90002H2ZM2.75 20.9V4.40002H21.25V20.9H2.75ZM7.75 9.65003C7.75 9.23581 7.41422 8.90003 7 8.90003C6.58579 8.90003 6.25 9.23581 6.25 9.65003V12.65V15.65C6.25 16.0642 6.58579 16.4 7 16.4C7.41422 16.4 7.75 16.0642 7.75 15.65V13.4H10.25V15.65C10.25 16.0642 10.5858 16.4 11 16.4C11.4142 16.4 11.75 16.0642 11.75 15.65V12.65V9.65003C11.75 9.23581 11.4142 8.90003 11 8.90003C10.5858 8.90003 10.25 9.23581 10.25 9.65003V11.9H7.75V9.65003ZM15.5 10.4C14.8096 10.4 14.25 10.9597 14.25 11.65V13.65C14.25 14.3404 14.8096 14.9 15.5 14.9C16.1904 14.9 16.75 14.3404 16.75 13.65V11.65C16.75 10.9597 16.1904 10.4 15.5 10.4ZM12.75 11.65C12.75 10.1312 13.9812 8.90003 15.5 8.90003C17.0188 8.90003 18.25 10.1312 18.25 11.65V13.65C18.25 14.5213 17.8448 15.298 17.2125 15.8019L17.5303 16.1197C17.8232 16.4126 17.8232 16.8875 17.5303 17.1804C17.2374 17.4732 16.7626 17.4732 16.4697 17.1804L15.6833 16.394C15.6227 16.398 15.5616 16.4 15.5 16.4C13.9812 16.4 12.75 15.1688 12.75 13.65V11.65Z" fill="white"/>
</svg>
