<svg width="24" height="25" viewBox="0 0 24 25" fill="none" xmlns="http://www.w3.org/2000/svg">
<path fill-rule="evenodd" clip-rule="evenodd" d="M1.25 3.65002C1.25 3.23581 1.58579 2.90002 2 2.90002H22C22.4142 2.90002 22.75 3.23581 22.75 3.65002V21.65C22.75 22.0642 22.4142 22.4 22 22.4H2C1.58579 22.4 1.25 22.0642 1.25 21.65V3.65002ZM2.75 4.40002V20.9H21.25V4.40002H2.75ZM7 8.90003C7.41421 8.90003 7.75 9.23581 7.75 9.65003V11.9H10.25V9.65003C10.25 9.23581 10.5858 8.90003 11 8.90003C11.4142 8.90003 11.75 9.23581 11.75 9.65003V12.65V15.65C11.75 16.0642 11.4142 16.4 11 16.4C10.5858 16.4 10.25 16.0642 10.25 15.65V13.4H7.75V15.65C7.75 16.0642 7.41421 16.4 7 16.4C6.58579 16.4 6.25 16.0642 6.25 15.65V12.65V9.65003C6.25 9.23581 6.58579 8.90003 7 8.90003ZM14.5 10.4C14.9762 10.4 15.2958 10.4004 15.5433 10.4173C15.784 10.4337 15.9012 10.4632 15.9784 10.4952C16.2846 10.622 16.528 10.8654 16.6549 11.1717C16.6868 11.2488 16.7163 11.366 16.7327 11.6068C16.7496 11.8542 16.75 12.1738 16.75 12.65C16.75 13.1262 16.7496 13.4458 16.7327 13.6933C16.7163 13.934 16.6868 14.0512 16.6549 14.1284C16.528 14.4347 16.2846 14.678 15.9784 14.8049C15.9012 14.8368 15.784 14.8663 15.5433 14.8827C15.2958 14.8996 14.9762 14.9 14.5 14.9H14.25V10.4H14.5ZM16.5524 9.10936C16.262 8.98907 15.9625 8.94243 15.6454 8.92079C15.3408 8.90001 14.9697 8.90002 14.5253 8.90003H14.5H13.5C13.0858 8.90003 12.75 9.23581 12.75 9.65003V15.65C12.75 16.0642 13.0858 16.4 13.5 16.4H14.5H14.5253H14.5253C14.9697 16.4 15.3408 16.4 15.6454 16.3793C15.9625 16.3576 16.262 16.311 16.5524 16.1907C17.2262 15.9116 17.7616 15.3762 18.0407 14.7024C18.161 14.412 18.2076 14.1125 18.2292 13.7954C18.25 13.4908 18.25 13.1197 18.25 12.6753V12.65V12.6248C18.25 12.1803 18.25 11.8093 18.2292 11.5047C18.2076 11.1876 18.161 10.888 18.0407 10.5976C17.7616 9.92382 17.2262 9.38846 16.5524 9.10936Z" fill="white"/>
</svg>
