<svg width="24" height="25" viewBox="0 0 24 25" fill="none" xmlns="http://www.w3.org/2000/svg">
<path fill-rule="evenodd" clip-rule="evenodd" d="M7.66459 4.38916C8.03507 4.20392 8.48558 4.35408 8.67082 4.72457L9.46353 6.30998H11H13C13.4142 6.30998 13.75 6.64577 13.75 7.05998C13.75 7.47419 13.4142 7.80998 13 7.80998H11.6259C11.3619 9.02963 10.7889 10.6147 9.79256 12.0606C9.64861 12.2694 9.49537 12.476 9.33251 12.6785C9.98983 13.1773 10.772 13.584 11.6973 13.8364C12.097 13.9454 12.3326 14.3577 12.2236 14.7573C12.1146 15.1569 11.7023 15.3925 11.3027 15.2836C10.1086 14.9579 9.11599 14.4269 8.29548 13.7795C7.21747 14.7515 5.8438 15.513 4.1233 15.7998C3.71472 15.8679 3.3283 15.5919 3.2602 15.1833C3.19211 14.7747 3.46812 14.3883 3.8767 14.3202C5.2247 14.0955 6.3196 13.5144 7.20159 12.7452C5.77446 11.138 5.08897 9.18977 4.84405 7.80998H3.5C3.08579 7.80998 2.75 7.47419 2.75 7.05998C2.75 6.64577 3.08579 6.30998 3.5 6.30998H5.5H7.78647L7.32918 5.39539C7.14394 5.02491 7.29411 4.5744 7.66459 4.38916ZM6.36978 7.80998C6.60734 8.94018 7.17371 10.4093 8.23757 11.6454C8.34904 11.5027 8.45561 11.3572 8.55744 11.2094C9.34533 10.0661 9.83121 8.81404 10.0853 7.80998H9H6.36978ZM16 8.30998C16.3067 8.30998 16.5825 8.49669 16.6964 8.78144L19.4964 15.7814L20.6964 18.7814C20.8502 19.166 20.6631 19.6025 20.2785 19.7563C19.894 19.9102 19.4575 19.7231 19.3036 19.3385L18.2922 16.81H13.7078L12.6964 19.3385C12.5425 19.7231 12.106 19.9102 11.7215 19.7563C11.3369 19.6025 11.1498 19.166 11.3036 18.7814L12.5036 15.7814L15.3036 8.78144C15.4175 8.49669 15.6933 8.30998 16 8.30998ZM14.3078 15.31H17.6922L16 11.0794L14.3078 15.31Z" fill="white"/>
</svg>
