<svg width="24" height="25" viewBox="0 0 24 25" fill="none" xmlns="http://www.w3.org/2000/svg">
<path fill-rule="evenodd" clip-rule="evenodd" d="M12.2806 2.79842C12.102 2.72697 11.9028 2.72686 11.7241 2.79812L2.7241 6.38778C2.4439 6.49953 2.25793 6.76829 2.25209 7.0699C2.24626 7.3715 2.42169 7.64725 2.69735 7.76977L6.76064 9.57568L2.72711 11.1643C2.44589 11.2751 2.25863 11.5438 2.25213 11.846C2.24563 12.1482 2.42115 12.4247 2.69735 12.5475L6.71729 14.3341L2.72581 15.9148C2.44503 16.026 2.25833 16.2947 2.25211 16.5967C2.2459 16.8986 2.42138 17.1748 2.69735 17.2975L11.6974 21.2975C11.8913 21.3837 12.1126 21.3837 12.3066 21.2975L21.3066 17.2975C21.5826 17.1748 21.7581 16.8985 21.7518 16.5965C21.7455 16.2945 21.5586 16.0257 21.2777 15.9146L17.2837 14.3354L21.3066 12.5475C21.5825 12.4248 21.758 12.1486 21.7518 11.8467C21.7456 11.5448 21.5589 11.2761 21.2782 11.1648L17.2544 9.57073L21.3066 7.76977C21.5825 7.64712 21.758 7.37094 21.7518 7.06903C21.7456 6.76711 21.5589 6.49836 21.2782 6.38714L18.4078 5.24999L18.4055 5.24905L12.2806 2.79842ZM15.2118 8.83709C15.0314 8.84799 14.8598 8.92412 14.7306 9.05094L12.002 10.2637L9.3327 9.07734C9.19278 8.92569 8.99523 8.83804 8.7892 8.83578L4.9327 7.12178L12.0015 4.30238L17.8506 6.64265L17.853 6.6436L19.0659 7.12413L15.2118 8.83709ZM8.68376 10.4304L11.6974 11.7698C11.8913 11.856 12.1126 11.856 12.3066 11.7698L15.3351 10.4238L19.0659 11.9018L15.2198 13.6112C15.0636 13.628 14.9157 13.6936 14.7985 13.7985L12.002 15.0414L9.18764 13.7906C9.0749 13.6929 8.93506 13.6308 8.7872 13.6126L4.94257 11.9039L8.68376 10.4304ZM4.93829 16.652L8.63688 15.1873L11.6974 16.5475C11.8913 16.6337 12.1126 16.6337 12.3066 16.5475L15.3631 15.189L19.0644 16.6525L12.002 19.7914L4.93829 16.652Z" fill="white"/>
</svg>
