<svg width="24" height="25" viewBox="0 0 24 25" fill="none" xmlns="http://www.w3.org/2000/svg">
<path fill-rule="evenodd" clip-rule="evenodd" d="M11.6956 2.43476C11.8895 2.34857 12.1109 2.34857 12.3048 2.43476L21.3048 6.43476C21.5756 6.55513 21.7502 6.82373 21.7502 7.12012C21.7502 7.41651 21.5756 7.6851 21.3048 7.80548L12.3048 11.8055C12.1109 11.8917 11.8895 11.8917 11.6956 11.8055L2.69558 7.80548C2.42474 7.6851 2.25019 7.41651 2.25019 7.12012C2.25019 6.82373 2.42474 6.55513 2.69558 6.43476L11.6956 2.43476ZM4.84685 7.12012L12.0002 10.2994L19.1535 7.12012L12.0002 3.94086L4.84685 7.12012ZM2.31483 11.8155C2.48306 11.437 2.92628 11.2665 3.30479 11.4348L12.0002 15.2994L20.6956 11.4348C21.0741 11.2665 21.5173 11.437 21.6855 11.8155C21.8538 12.194 21.6833 12.6372 21.3048 12.8055L12.3048 16.8055C12.1109 16.8917 11.8895 16.8917 11.6956 16.8055L2.69558 12.8055C2.31707 12.6372 2.1466 12.194 2.31483 11.8155ZM3.30479 16.4348C2.92628 16.2665 2.48306 16.437 2.31483 16.8155C2.1466 17.194 2.31707 17.6372 2.69558 17.8055L11.6956 21.8055C11.8895 21.8917 12.1109 21.8917 12.3048 21.8055L21.3048 17.8055C21.6833 17.6372 21.8538 17.194 21.6855 16.8155C21.5173 16.437 21.0741 16.2665 20.6956 16.4348L12.0002 20.2994L3.30479 16.4348Z" fill="white"/>
</svg>
