<svg width="24" height="25" viewBox="0 0 24 25" fill="none" xmlns="http://www.w3.org/2000/svg">
<path fill-rule="evenodd" clip-rule="evenodd" d="M2 3.84009C2.41421 3.84009 2.75 4.17587 2.75 4.59009L2.75 20.5901C2.75 21.0043 2.41421 21.3401 2 21.3401C1.58579 21.3401 1.25 21.0043 1.25 20.5901V4.59009C1.25 4.17587 1.58579 3.84009 2 3.84009ZM22 3.84009C22.4142 3.84009 22.75 4.17587 22.75 4.59009V20.5901C22.75 21.0043 22.4142 21.3401 22 21.3401C21.5858 21.3401 21.25 21.0043 21.25 20.5901V4.59009C21.25 4.17587 21.5858 3.84009 22 3.84009ZM12.6708 8.25468C12.5438 8.00059 12.2841 7.84009 12 7.84009C11.7159 7.84009 11.4562 8.00059 11.3292 8.25468L8.82918 13.2547L7.32918 16.2547C7.14394 16.6252 7.29411 17.0757 7.66459 17.2609C8.03507 17.4461 8.48558 17.296 8.67082 16.9255L9.96353 14.3401H14.0365L15.3292 16.9255C15.5144 17.296 15.9649 17.4461 16.3354 17.2609C16.7059 17.0757 16.8561 16.6252 16.6708 16.2547L15.1708 13.2547L12.6708 8.25468ZM12 10.2671L13.2865 12.8401H10.7135L12 10.2671Z" fill="white"/>
</svg>
