<svg width="24" height="25" viewBox="0 0 24 25" fill="none" xmlns="http://www.w3.org/2000/svg">
<path fill-rule="evenodd" clip-rule="evenodd" d="M8 3.84009C7.58579 3.84009 7.25 4.17587 7.25 4.59009C7.25 5.0043 7.58579 5.34009 8 5.34009H11.25V12.5901C11.25 13.0043 11.5858 13.3401 12 13.3401C12.4142 13.3401 12.75 13.0043 12.75 12.5901V5.34009H16C16.4142 5.34009 16.75 5.0043 16.75 4.59009C16.75 4.17587 16.4142 3.84009 16 3.84009H12H8ZM21.5303 19.1204C21.8232 18.8275 21.8232 18.3527 21.5303 18.0598L19.0303 15.5598C18.7374 15.2669 18.2626 15.2669 17.9697 15.5598C17.6768 15.8527 17.6768 16.3275 17.9697 16.6204L19.1893 17.8401L4.81066 17.8401L6.03033 16.6204C6.32322 16.3275 6.32322 15.8527 6.03033 15.5598C5.73744 15.2669 5.26256 15.2669 4.96967 15.5598L2.46967 18.0598C2.17678 18.3526 2.17678 18.8275 2.46967 19.1204L4.96967 21.6204C5.26256 21.9133 5.73744 21.9133 6.03033 21.6204C6.32322 21.3275 6.32322 20.8527 6.03033 20.5598L4.81066 19.3401L19.1893 19.3401L17.9697 20.5598C17.6768 20.8527 17.6768 21.3275 17.9697 21.6204C18.2626 21.9133 18.7374 21.9133 19.0303 21.6204L21.5303 19.1204Z" fill="white"/>
</svg>
