<svg width="24" height="25" viewBox="0 0 24 25" fill="none" xmlns="http://www.w3.org/2000/svg">
<path fill-rule="evenodd" clip-rule="evenodd" d="M14.2173 1.87214C14.5337 1.96792 14.75 2.25946 14.75 2.58996V9.83996H19C19.2766 9.83996 19.5307 9.9922 19.6613 10.2361C19.7918 10.4799 19.7775 10.7758 19.624 11.006L17.624 14.006C17.3943 14.3506 16.9286 14.4438 16.584 14.214C16.2393 13.9842 16.1462 13.5186 16.376 13.1739L17.5986 11.34H14C13.5858 11.34 13.25 11.0042 13.25 10.59V5.06704L11.2907 8.00599C11.0609 8.35063 10.5953 8.44377 10.2506 8.214C9.90599 7.98424 9.81286 7.51858 10.0426 7.17394L13.376 2.17394C13.5593 1.89895 13.901 1.77637 14.2173 1.87214ZM2.46967 3.05963C2.76256 2.76674 3.23744 2.76674 3.53033 3.05963L9.73033 9.25963L15.9303 15.4596L21.5303 21.0596C21.8232 21.3525 21.8232 21.8274 21.5303 22.1203C21.2374 22.4132 20.7626 22.4132 20.4697 22.1203L15.5166 17.1672L11.624 23.006C11.4407 23.281 11.099 23.4036 10.7827 23.3078C10.4663 23.212 10.25 22.9205 10.25 22.59V15.34H6C5.7234 15.34 5.46926 15.1877 5.33874 14.9439C5.20823 14.7 5.22253 14.4041 5.37596 14.1739L8.2349 9.88553L2.46967 4.12029C2.17678 3.8274 2.17678 3.35253 2.46967 3.05963ZM9.31657 10.9672L7.40139 13.84H11C11.4142 13.84 11.75 14.1757 11.75 14.59V20.1129L14.4349 16.0855L9.31657 10.9672Z" fill="white"/>
</svg>
