<svg width="24" height="25" viewBox="0 0 24 25" fill="none" xmlns="http://www.w3.org/2000/svg">
<path fill-rule="evenodd" clip-rule="evenodd" d="M14.2173 1.87214C14.5337 1.96792 14.75 2.25946 14.75 2.58996V9.83996H19C19.2766 9.83996 19.5307 9.9922 19.6613 10.2361C19.7918 10.4799 19.7775 10.7758 19.624 11.006L11.624 23.006C11.4407 23.281 11.099 23.4036 10.7827 23.3078C10.4663 23.212 10.25 22.9205 10.25 22.59V15.34H6C5.7234 15.34 5.46926 15.1877 5.33875 14.9439C5.20823 14.7 5.22254 14.4041 5.37596 14.1739L13.376 2.17394C13.5593 1.89895 13.901 1.77637 14.2173 1.87214ZM7.40139 13.84H11C11.4142 13.84 11.75 14.1757 11.75 14.59V20.1129L17.5986 11.34H14C13.5858 11.34 13.25 11.0042 13.25 10.59V5.06704L7.40139 13.84Z" fill="white"/>
</svg>
