<svg width="24" height="25" viewBox="0 0 24 25" fill="none" xmlns="http://www.w3.org/2000/svg">
<path fill-rule="evenodd" clip-rule="evenodd" d="M2.53033 1.76947C2.23744 1.47658 1.76256 1.47658 1.46967 1.76947C1.17678 2.06237 1.17678 2.53724 1.46967 2.83013L4.87822 6.23868C4.47381 7.17843 4.25 8.21377 4.25 9.2998C4.25 11.3654 5.0591 13.2437 6.37615 14.6323C7.17987 15.4796 7.83464 16.3595 8.10984 17.283L7.95996 17.5079L8.20168 17.669C8.23336 17.8479 8.25 18.0284 8.25 18.2107V19.2998C8.25 21.3709 9.92893 23.0498 12 23.0498C14.0711 23.0498 15.75 21.3709 15.75 19.2998V18.2107C15.75 18.0288 15.7665 17.8483 15.7983 17.669L16.0401 17.5078L15.8901 17.2829C15.8926 17.2747 15.8951 17.2664 15.8976 17.2581L21.4697 22.8301C21.7626 23.123 22.2374 23.123 22.5303 22.8301C22.8232 22.5372 22.8232 22.0624 22.5303 21.7695L16.1877 15.4268L6.31226 5.55141L2.53033 1.76947ZM14.49 16.7344C14.5607 16.5167 14.6448 16.3052 14.7396 16.1001L6.04274 7.4032C5.85265 8.00086 5.75 8.6379 5.75 9.2998C5.75 10.9662 6.40119 12.4789 7.46449 13.6C8.26621 14.4453 9.10872 15.4979 9.51004 16.7344C9.54251 16.7541 9.58272 16.7779 9.62992 16.8048C9.77682 16.8888 9.98848 17.0017 10.2422 17.1144C10.7628 17.3458 11.4014 17.5498 12.0002 17.5498C12.5989 17.5498 13.2374 17.3458 13.7579 17.1144C14.0116 17.0017 14.2232 16.8888 14.3701 16.8049C14.4173 16.7779 14.4575 16.7541 14.49 16.7344ZM9.75 18.5361V19.2998C9.75 20.5424 10.7574 21.5498 12 21.5498C13.2426 21.5498 14.25 20.5424 14.25 19.2998V18.5361C13.6541 18.7899 12.8445 19.0498 12.0002 19.0498C11.1557 19.0498 10.346 18.7898 9.75 18.5361ZM8.42907 4.16963C9.44113 3.4637 10.6711 3.0498 12 3.0498C15.4518 3.0498 18.25 5.84803 18.25 9.2998C18.25 10.6287 17.8361 11.8587 17.1302 12.8707C16.8932 13.2105 16.9765 13.678 17.3162 13.9149C17.656 14.1519 18.1235 14.0686 18.3605 13.7289C19.2363 12.4733 19.75 10.9454 19.75 9.2998C19.75 5.0196 16.2802 1.5498 12 1.5498C10.3544 1.5498 8.82654 2.06354 7.57093 2.93935C7.23119 3.17633 7.14789 3.64384 7.38486 3.98357C7.62183 4.3233 8.08934 4.4066 8.42907 4.16963Z" fill="white"/>
</svg>
