<svg width="24" height="25" viewBox="0 0 24 25" fill="none" xmlns="http://www.w3.org/2000/svg">
<path fill-rule="evenodd" clip-rule="evenodd" d="M5.75 9.2998C5.75 5.84803 8.54822 3.0498 12 3.0498C15.4518 3.0498 18.25 5.84803 18.25 9.2998C18.25 10.9662 17.5988 12.4789 16.5355 13.6C15.7338 14.4453 14.8913 15.4979 14.49 16.7345C14.4575 16.7541 14.4173 16.7779 14.3701 16.8049C14.2232 16.8888 14.0116 17.0017 13.7579 17.1145C13.2374 17.3458 12.5989 17.5498 12.0002 17.5498C11.4014 17.5498 10.7628 17.3458 10.2422 17.1144C9.98848 17.0017 9.77682 16.8888 9.62992 16.8048C9.58272 16.7779 9.54251 16.7541 9.51004 16.7344C9.10872 15.4979 8.2662 14.4453 7.46448 13.6C6.40119 12.4789 5.75 10.9662 5.75 9.2998ZM9.75 18.5361C10.346 18.7898 11.1557 19.0498 12.0002 19.0498C12.8445 19.0498 13.6541 18.7899 14.25 18.5361V19.2998C14.25 20.5424 13.2426 21.5498 12 21.5498C10.7574 21.5498 9.75 20.5424 9.75 19.2998V18.5361ZM12 1.5498C7.71979 1.5498 4.25 5.0196 4.25 9.2998C4.25 11.3654 5.0591 13.2437 6.37615 14.6323C7.44473 15.7589 8.25 16.9429 8.25 18.2107V19.2998C8.25 21.3709 9.92893 23.0498 12 23.0498C14.0711 23.0498 15.75 21.3709 15.75 19.2998V18.2107C15.75 16.9429 16.5553 15.7589 17.6238 14.6323C18.9409 13.2437 19.75 11.3654 19.75 9.2998C19.75 5.0196 16.2802 1.5498 12 1.5498Z" fill="white"/>
</svg>
