<svg width="24" height="25" viewBox="0 0 24 25" fill="none" xmlns="http://www.w3.org/2000/svg">
<path fill-rule="evenodd" clip-rule="evenodd" d="M6.53033 4.05976C6.23744 3.76687 5.76256 3.76687 5.46967 4.05976L2.46967 7.05976C2.17678 7.35265 2.17678 7.82753 2.46967 8.12042C2.76256 8.41331 3.23744 8.41331 3.53033 8.12042L5.25 6.40075L5.25 18.7794L3.53033 17.0598C3.23744 16.7669 2.76256 16.7669 2.46967 17.0598C2.17678 17.3527 2.17678 17.8275 2.46967 18.1204L5.46967 21.1204C5.76256 21.4133 6.23744 21.4133 6.53033 21.1204L9.53033 18.1204C9.82322 17.8275 9.82322 17.3527 9.53033 17.0598C9.23744 16.7669 8.76256 16.7669 8.46967 17.0598L6.75 18.7794L6.75 6.40075L8.46967 8.12042C8.76256 8.41331 9.23744 8.41331 9.53033 8.12042C9.82322 7.82753 9.82322 7.35265 9.53033 7.05976L6.53033 4.05976ZM11.25 5.59006C11.25 5.17584 11.5858 4.84006 12 4.84006L22 4.84006C22.4142 4.84006 22.75 5.17584 22.75 5.59006C22.75 6.00427 22.4142 6.34006 22 6.34006L12 6.34006C11.5858 6.34006 11.25 6.00427 11.25 5.59006ZM12 11.8401C11.5858 11.8401 11.25 12.1758 11.25 12.5901C11.25 13.0043 11.5858 13.3401 12 13.3401L22 13.3401C22.4142 13.3401 22.75 13.0043 22.75 12.5901C22.75 12.1758 22.4142 11.8401 22 11.8401L12 11.8401ZM12 18.8401C11.5858 18.8401 11.25 19.1758 11.25 19.5901C11.25 20.0043 11.5858 20.3401 12 20.3401L22 20.3401C22.4142 20.3401 22.75 20.0043 22.75 19.5901C22.75 19.1758 22.4142 18.8401 22 18.8401L12 18.8401Z" fill="white"/>
</svg>
