<svg width="24" height="25" viewBox="0 0 24 25" fill="none" xmlns="http://www.w3.org/2000/svg">
<path fill-rule="evenodd" clip-rule="evenodd" d="M3.25 3.59009C3.25 3.17587 3.58579 2.84009 4 2.84009H20C20.4142 2.84009 20.75 3.17587 20.75 3.59009C20.75 4.0043 20.4142 4.34009 20 4.34009H4C3.58579 4.34009 3.25 4.0043 3.25 3.59009ZM3.25 21.5901C3.25 21.1759 3.58579 20.8401 4 20.8401H20C20.4142 20.8401 20.75 21.1759 20.75 21.5901C20.75 22.0043 20.4142 22.3401 20 22.3401H4C3.58579 22.3401 3.25 22.0043 3.25 21.5901ZM12.6708 8.25468C12.5438 8.00059 12.2841 7.84009 12 7.84009C11.7159 7.84009 11.4562 8.00059 11.3292 8.25468L8.82918 13.2547L7.32918 16.2547C7.14394 16.6252 7.29411 17.0757 7.66459 17.2609C8.03507 17.4461 8.48558 17.296 8.67082 16.9255L9.96353 14.3401H14.0365L15.3292 16.9255C15.5144 17.296 15.9649 17.4461 16.3354 17.2609C16.7059 17.0757 16.8561 16.6252 16.6708 16.2547L15.1708 13.2547L12.6708 8.25468ZM12 10.2671L13.2865 12.8401H10.7135L12 10.2671Z" fill="white"/>
</svg>
