<svg width="24" height="25" viewBox="0 0 24 25" fill="none" xmlns="http://www.w3.org/2000/svg">
<path fill-rule="evenodd" clip-rule="evenodd" d="M2.75 12.5901C2.75 10.2429 4.65279 8.34009 7 8.34009H9C9.41421 8.34009 9.75 8.0043 9.75 7.59009C9.75 7.17587 9.41421 6.84009 9 6.84009H7C3.82436 6.84009 1.25 9.41445 1.25 12.5901C1.25 15.7657 3.82436 18.3401 7 18.3401H9C9.41421 18.3401 9.75 18.0043 9.75 17.5901C9.75 17.1759 9.41421 16.8401 9 16.8401H7C4.65279 16.8401 2.75 14.9373 2.75 12.5901ZM15 6.84009C14.5858 6.84009 14.25 7.17587 14.25 7.59009C14.25 8.0043 14.5858 8.34009 15 8.34009H17C19.3472 8.34009 21.25 10.2429 21.25 12.5901C21.25 14.9373 19.3472 16.8401 17 16.8401H15C14.5858 16.8401 14.25 17.1759 14.25 17.5901C14.25 18.0043 14.5858 18.3401 15 18.3401H17C20.1756 18.3401 22.75 15.7657 22.75 12.5901C22.75 9.41445 20.1756 6.84009 17 6.84009H15ZM8 11.8401C7.58579 11.8401 7.25 12.1759 7.25 12.5901C7.25 13.0043 7.58579 13.3401 8 13.3401H16C16.4142 13.3401 16.75 13.0043 16.75 12.5901C16.75 12.1759 16.4142 11.8401 16 11.8401H8Z" fill="white"/>
</svg>
