<svg width="24" height="25" viewBox="0 0 24 25" fill="none" xmlns="http://www.w3.org/2000/svg">
<path fill-rule="evenodd" clip-rule="evenodd" d="M19.6017 4.9887C17.3561 2.74319 13.7154 2.74319 11.4699 4.9887L10.7628 5.69581C10.4699 5.9887 10.4699 6.46358 10.7628 6.75647C11.0557 7.04936 11.5306 7.04936 11.8235 6.75647L12.5306 6.04936C14.1903 4.38963 16.8813 4.38963 18.541 6.04936C20.2007 7.70909 20.2007 10.4 18.541 12.0598L16.8548 13.7459C15.3453 15.2555 12.8979 15.2555 11.3883 13.7459L11.1164 13.474C10.8235 13.1811 10.3486 13.1811 10.0557 13.474C9.76283 13.7669 9.76282 14.2417 10.0557 14.5346L10.3277 14.8066C12.423 16.9019 15.8202 16.9019 17.9155 14.8066L19.6017 13.1204C21.8472 10.8749 21.8472 7.23422 19.6017 4.9887ZM7.14582 11.4343C8.65534 9.92473 11.1028 9.92473 12.6123 11.4343L12.8843 11.7062C13.1772 11.9991 13.652 11.9991 13.9449 11.7062C14.2378 11.4133 14.2378 10.9385 13.9449 10.6456L13.673 10.3736C11.5776 8.27828 8.18047 8.27828 6.08516 10.3736L4.39898 12.0598C2.15346 14.3053 2.15346 17.946 4.39898 20.1915C6.64449 22.437 10.2852 22.437 12.5307 20.1915L13.2378 19.4844C13.5307 19.1915 13.5307 18.7166 13.2378 18.4237C12.9449 18.1308 12.47 18.1308 12.1772 18.4237L11.47 19.1308C9.81032 20.7906 7.11937 20.7906 5.45964 19.1308C3.79991 17.4711 3.79991 14.7802 5.45964 13.1204L7.14582 11.4343Z" fill="white"/>
</svg>
