<svg width="24" height="25" viewBox="0 0 24 25" fill="none" xmlns="http://www.w3.org/2000/svg">
<path fill-rule="evenodd" clip-rule="evenodd" d="M3.85349 4.92884C4.09736 5.05935 4.24959 5.3135 4.24959 5.59009L4.24959 9.84006L4.99956 9.84003C5.41377 9.84001 5.74957 10.1758 5.74959 10.59C5.74961 11.0042 5.41384 11.34 4.99962 11.34L3.49962 11.3401L3.49959 11.3401L1.99959 11.3401C1.58538 11.3401 1.24959 11.0043 1.24959 10.5901C1.24959 10.1759 1.58538 9.84009 1.99959 9.84009L2.74959 9.84009L2.74959 6.99143L2.4156 7.21408C2.07095 7.44383 1.6053 7.35069 1.37554 7.00604C1.14579 6.66138 1.23893 6.19573 1.58358 5.96598L3.08358 4.96604C3.31373 4.81262 3.60963 4.79832 3.85349 4.92884ZM7.99983 5.84004C7.58561 5.84004 7.24983 6.17582 7.24983 6.59004C7.24983 7.00425 7.58561 7.34004 7.99983 7.34004L19.9998 7.34004C20.414 7.34004 20.7498 7.00425 20.7498 6.59004C20.7498 6.17582 20.414 5.84004 19.9998 5.84004L7.99983 5.84004ZM7.24983 12.59C7.24983 12.1758 7.58561 11.84 7.99983 11.84L19.9998 11.84C20.414 11.84 20.7498 12.1758 20.7498 12.59C20.7498 13.0042 20.414 13.34 19.9998 13.34L7.99983 13.34C7.58561 13.34 7.24983 13.0042 7.24983 12.59ZM7.24983 18.59C7.24983 18.1758 7.58561 17.84 7.99983 17.84L19.9998 17.84C20.414 17.84 20.7498 18.1758 20.7498 18.59C20.7498 19.0043 20.414 19.34 19.9998 19.34L7.99983 19.34C7.58561 19.34 7.24983 19.0042 7.24983 18.59ZM2 13.84C1.58579 13.84 1.25 14.1758 1.25 14.59C1.25 15.0042 1.58579 15.34 2 15.34L4.24993 15.34L4.24983 16.34L1.99976 16.34C1.58554 16.34 1.24976 16.6758 1.24976 17.09L1.24976 19.59C1.24976 20.0042 1.58554 20.34 1.99976 20.34L5 20.34C5.41421 20.34 5.75 20.0042 5.75 19.59C5.75 19.1758 5.41421 18.84 5 18.84L2.74976 18.84L2.74976 17.84L4.99976 17.84C5.41394 17.84 5.74972 17.5043 5.74976 17.0901L5.75 14.5901C5.75002 14.3912 5.67101 14.2004 5.53036 14.0597C5.3897 13.9191 5.19893 13.84 5 13.84L2 13.84Z" fill="white"/>
</svg>
