<svg width="24" height="25" viewBox="0 0 24 25" fill="none" xmlns="http://www.w3.org/2000/svg">
<path fill-rule="evenodd" clip-rule="evenodd" d="M5.00005 2.83997C4.58583 2.83994 4.25003 3.17571 4.25 3.58992C4.24997 4.00413 4.58574 4.33994 4.99995 4.33997L5.25 4.33998L5.25 6.84003L5 6.84003C4.58579 6.84003 4.25 7.17581 4.25 7.59003C4.25 8.00424 4.58579 8.34003 5 8.34003L6 8.34003L7 8.34003C7.41421 8.34003 7.75 8.00424 7.75 7.59003C7.75 7.17581 7.41421 6.84003 7 6.84003L6.75 6.84003L6.75 3.59003C6.75 3.17583 6.41424 2.84005 6.00005 2.84003L5.00005 2.83997ZM10.25 5.59003C10.25 5.17582 10.5858 4.84003 11 4.84003L21 4.84003C21.4143 4.84003 21.75 5.17582 21.75 5.59003C21.75 6.00425 21.4143 6.34003 21 6.34003L11 6.34003C10.5858 6.34003 10.25 6.00425 10.25 5.59003ZM11 11.84C10.5858 11.84 10.25 12.1758 10.25 12.59C10.25 13.0042 10.5858 13.34 11 13.34L21 13.34C21.4143 13.34 21.75 13.0042 21.75 12.59C21.75 12.1758 21.4143 11.84 21 11.84L11 11.84ZM11 18.84C10.5858 18.84 10.25 19.1758 10.25 19.59C10.25 20.0042 10.5858 20.34 11 20.34L21 20.34C21.4143 20.34 21.75 20.0042 21.75 19.59C21.75 19.1758 21.4143 18.84 21 18.84L11 18.84ZM4.25 10.59C4.25 10.1758 4.58579 9.84003 5 9.84003L7 9.84003C7.25993 9.84003 7.50133 9.97462 7.63799 10.1957C7.77464 10.4168 7.78707 10.6929 7.67082 10.9254L6.21353 13.84L7 13.84C7.41421 13.84 7.75 14.1758 7.75 14.59C7.75 15.0042 7.41421 15.34 7 15.34L5 15.34C4.74007 15.34 4.49867 15.2054 4.36201 14.9843C4.22536 14.7632 4.21293 14.4871 4.32918 14.2546L5.78647 11.34L5 11.34C4.58579 11.34 4.25 11.0042 4.25 10.59ZM5 16.8401C4.58579 16.8401 4.25 17.1759 4.25 17.5901C4.25 18.0043 4.58579 18.3401 5 18.3401L6.25 18.3401L6.25 18.8401L5 18.8401C4.58579 18.8401 4.25 19.1759 4.25 19.5901C4.25 20.0043 4.58579 20.3401 5 20.3401L6.25 20.3401L6.25 20.8401L5 20.8401C4.58579 20.8401 4.25 21.1759 4.25 21.5901C4.25 22.0043 4.58579 22.3401 5 22.3401L7 22.3401C7.41421 22.3401 7.75 22.0043 7.75 21.5901L7.75 19.5901L7.75 17.5901C7.75 17.1759 7.41421 16.8401 7 16.8401L5 16.8401Z" fill="white"/>
</svg>
