<svg width="24" height="25" viewBox="0 0 24 25" fill="none" xmlns="http://www.w3.org/2000/svg">
<path fill-rule="evenodd" clip-rule="evenodd" d="M4 7.59009C4.55228 7.59009 5 7.14237 5 6.59009C5 6.0378 4.55228 5.59009 4 5.59009C3.44772 5.59009 3 6.0378 3 6.59009C3 7.14237 3.44772 7.59009 4 7.59009ZM7.25 6.59009C7.25 6.17587 7.58579 5.84009 8 5.84009L20 5.84009C20.4142 5.84009 20.75 6.17587 20.75 6.59009C20.75 7.0043 20.4142 7.34009 20 7.34009L8 7.34009C7.58579 7.34009 7.25 7.0043 7.25 6.59009ZM8 11.8401C7.58579 11.8401 7.25 12.1759 7.25 12.5901C7.25 13.0043 7.58579 13.3401 8 13.3401L20 13.3401C20.4142 13.3401 20.75 13.0043 20.75 12.5901C20.75 12.1759 20.4142 11.8401 20 11.8401L8 11.8401ZM8 17.8401C7.58579 17.8401 7.25 18.1759 7.25 18.5901C7.25 19.0043 7.58579 19.3401 8 19.3401L20 19.3401C20.4142 19.3401 20.75 19.0043 20.75 18.5901C20.75 18.1759 20.4142 17.8401 20 17.8401L8 17.8401ZM5 12.5901C5 13.1424 4.55228 13.5901 4 13.5901C3.44772 13.5901 3 13.1424 3 12.5901C3 12.0378 3.44772 11.5901 4 11.5901C4.55228 11.5901 5 12.0378 5 12.5901ZM4 19.5901C4.55228 19.5901 5 19.1424 5 18.5901C5 18.0378 4.55228 17.5901 4 17.5901C3.44772 17.5901 3 18.0378 3 18.5901C3 19.1424 3.44772 19.5901 4 19.5901Z" fill="white"/>
</svg>
