<svg width="24" height="25" viewBox="0 0 24 25" fill="none" xmlns="http://www.w3.org/2000/svg">
<path fill-rule="evenodd" clip-rule="evenodd" d="M3.75 5.59009C3.75 4.89973 4.30964 4.34009 5 4.34009C5.69036 4.34009 6.25 4.89973 6.25 5.59009C6.25 6.28044 5.69036 6.84009 5 6.84009C4.30964 6.84009 3.75 6.28044 3.75 5.59009ZM5 2.84009C3.48122 2.84009 2.25 4.07131 2.25 5.59009C2.25 7.10887 3.48122 8.34009 5 8.34009C6.51878 8.34009 7.75 7.10887 7.75 5.59009C7.75 4.07131 6.51878 2.84009 5 2.84009ZM10.25 5.59009C10.25 5.17588 10.5858 4.84009 11 4.84009L21 4.84009C21.4142 4.84009 21.75 5.17588 21.75 5.59009C21.75 6.0043 21.4142 6.34009 21 6.34009L11 6.34009C10.5858 6.34009 10.25 6.0043 10.25 5.59009ZM11 11.8401C10.5858 11.8401 10.25 12.1759 10.25 12.5901C10.25 13.0043 10.5858 13.3401 11 13.3401L21 13.3401C21.4142 13.3401 21.75 13.0043 21.75 12.5901C21.75 12.1759 21.4142 11.8401 21 11.8401L11 11.8401ZM11 18.8401C10.5858 18.8401 10.25 19.1759 10.25 19.5901C10.25 20.0043 10.5858 20.3401 11 20.3401L21 20.3401C21.4142 20.3401 21.75 20.0043 21.75 19.5901C21.75 19.1759 21.4142 18.8401 21 18.8401L11 18.8401ZM5 11.3401C4.30964 11.3401 3.75 11.8997 3.75 12.5901C3.75 13.2804 4.30964 13.8401 5 13.8401C5.69036 13.8401 6.25 13.2804 6.25 12.5901C6.25 11.8997 5.69036 11.3401 5 11.3401ZM2.25 12.5901C2.25 11.0713 3.48122 9.84009 5 9.84009C6.51878 9.84009 7.75 11.0713 7.75 12.5901C7.75 14.1089 6.51878 15.3401 5 15.3401C3.48122 15.3401 2.25 14.1089 2.25 12.5901ZM3.75 19.5901C3.75 18.8997 4.30964 18.3401 5 18.3401C5.69036 18.3401 6.25 18.8997 6.25 19.5901C6.25 20.2804 5.69036 20.8401 5 20.8401C4.30964 20.8401 3.75 20.2804 3.75 19.5901ZM5 16.8401C3.48122 16.8401 2.25 18.0713 2.25 19.5901C2.25 21.1089 3.48122 22.3401 5 22.3401C6.51878 22.3401 7.75 21.1089 7.75 19.5901C7.75 18.0713 6.51878 16.8401 5 16.8401Z" fill="white"/>
</svg>
