<svg width="24" height="25" viewBox="0 0 24 25" fill="none" xmlns="http://www.w3.org/2000/svg">
<path fill-rule="evenodd" clip-rule="evenodd" d="M7.53033 4.12042C7.82322 3.82752 7.82322 3.35265 7.53033 3.05976C7.23744 2.76686 6.76256 2.76686 6.46967 3.05976L4 5.52943L3.53033 5.05976C3.23744 4.76686 2.76256 4.76686 2.46967 5.05976C2.17678 5.35265 2.17678 5.82752 2.46967 6.12042L3.46967 7.12042C3.76256 7.41331 4.23744 7.41331 4.53033 7.12042L7.53033 4.12042ZM10.25 5.59009C10.25 5.17588 10.5858 4.84009 11 4.84009L21 4.84009C21.4142 4.84009 21.75 5.17588 21.75 5.59009C21.75 6.0043 21.4142 6.34009 21 6.34009L11 6.34009C10.5858 6.34009 10.25 6.0043 10.25 5.59009ZM11 11.8401C10.5858 11.8401 10.25 12.1759 10.25 12.5901C10.25 13.0043 10.5858 13.3401 11 13.3401L21 13.3401C21.4142 13.3401 21.75 13.0043 21.75 12.5901C21.75 12.1759 21.4142 11.8401 21 11.8401L11 11.8401ZM11 18.8401C10.5858 18.8401 10.25 19.1759 10.25 19.5901C10.25 20.0043 10.5858 20.3401 11 20.3401L21 20.3401C21.4142 20.3401 21.75 20.0043 21.75 19.5901C21.75 19.1759 21.4142 18.8401 21 18.8401L11 18.8401ZM7.53033 10.0598C7.82322 10.3527 7.82322 10.8275 7.53033 11.1204L4.53033 14.1204C4.23744 14.4133 3.76256 14.4133 3.46967 14.1204L2.46967 13.1204C2.17678 12.8275 2.17678 12.3527 2.46967 12.0598C2.76256 11.7669 3.23744 11.7669 3.53033 12.0598L4 12.5294L6.46967 10.0598C6.76256 9.76686 7.23744 9.76686 7.53033 10.0598ZM7.53033 18.1204C7.82322 17.8275 7.82322 17.3527 7.53033 17.0598C7.23744 16.7669 6.76256 16.7669 6.46967 17.0598L4 19.5294L3.53033 19.0598C3.23744 18.7669 2.76256 18.7669 2.46967 19.0598C2.17678 19.3527 2.17678 19.8275 2.46967 20.1204L3.46967 21.1204C3.76256 21.4133 4.23744 21.4133 4.53033 21.1204L7.53033 18.1204Z" fill="white"/>
</svg>
