<svg width="24" height="25" viewBox="0 0 24 25" fill="none" xmlns="http://www.w3.org/2000/svg">
<path fill-rule="evenodd" clip-rule="evenodd" d="M3 2.84009C2.58579 2.84009 2.25 3.17587 2.25 3.59009L2.25 7.59009C2.25 8.0043 2.58579 8.34009 3 8.34009L7 8.34009C7.41421 8.34009 7.75 8.0043 7.75 7.59009L7.75 3.59009C7.75 3.17587 7.41421 2.84009 7 2.84009L3 2.84009ZM3.75 6.84009L3.75 4.34009L6.25 4.34009L6.25 6.84009L3.75 6.84009ZM10.25 5.59009C10.25 5.17588 10.5858 4.84009 11 4.84009L21 4.84009C21.4142 4.84009 21.75 5.17588 21.75 5.59009C21.75 6.0043 21.4142 6.34009 21 6.34009L11 6.34009C10.5858 6.34009 10.25 6.0043 10.25 5.59009ZM11 11.8401C10.5858 11.8401 10.25 12.1759 10.25 12.5901C10.25 13.0043 10.5858 13.3401 11 13.3401L21 13.3401C21.4142 13.3401 21.75 13.0043 21.75 12.5901C21.75 12.1759 21.4142 11.8401 21 11.8401L11 11.8401ZM11 18.8401C10.5858 18.8401 10.25 19.1759 10.25 19.5901C10.25 20.0043 10.5858 20.3401 11 20.3401L21 20.3401C21.4142 20.3401 21.75 20.0043 21.75 19.5901C21.75 19.1759 21.4142 18.8401 21 18.8401L11 18.8401ZM2.25 10.5901C2.25 10.1759 2.58579 9.84009 3 9.84009L7 9.84009C7.41421 9.84009 7.75 10.1759 7.75 10.5901L7.75 14.5901C7.75 15.0043 7.41421 15.3401 7 15.3401L3 15.3401C2.58579 15.3401 2.25 15.0043 2.25 14.5901L2.25 10.5901ZM3.75 11.3401L3.75 13.8401L6.25 13.8401L6.25 11.3401L3.75 11.3401ZM3 16.8401C2.58579 16.8401 2.25 17.1759 2.25 17.5901L2.25 21.5901C2.25 22.0043 2.58579 22.3401 3 22.3401L7 22.3401C7.41421 22.3401 7.75 22.0043 7.75 21.5901L7.75 17.5901C7.75 17.1759 7.41421 16.8401 7 16.8401L3 16.8401ZM3.75 20.8401L3.75 18.3401L6.25 18.3401L6.25 20.8401L3.75 20.8401Z" fill="white"/>
</svg>
