<svg width="24" height="25" viewBox="0 0 24 25" fill="none" xmlns="http://www.w3.org/2000/svg">
<path fill-rule="evenodd" clip-rule="evenodd" d="M4.03034 3.55976C3.73745 3.26687 3.26257 3.26687 2.96968 3.55976C2.67679 3.85265 2.67679 4.32753 2.96968 4.62042L3.93935 5.59009L2.96968 6.55976C2.67679 6.85265 2.67679 7.32753 2.96968 7.62042C3.26257 7.91331 3.73745 7.91331 4.03034 7.62042L5.00001 6.65075L5.96968 7.62042C6.26257 7.91331 6.73745 7.91331 7.03034 7.62042C7.32323 7.32753 7.32323 6.85265 7.03034 6.55976L6.06067 5.59009L7.03034 4.62042C7.32323 4.32753 7.32323 3.85265 7.03034 3.55976C6.73745 3.26687 6.26257 3.26687 5.96968 3.55976L5.00001 4.52943L4.03034 3.55976ZM10.25 5.59009C10.25 5.17588 10.5858 4.84009 11 4.84009L21 4.84009C21.4142 4.84009 21.75 5.17588 21.75 5.59009C21.75 6.0043 21.4142 6.34009 21 6.34009L11 6.34009C10.5858 6.34009 10.25 6.0043 10.25 5.59009ZM11 11.8401C10.5858 11.8401 10.25 12.1759 10.25 12.5901C10.25 13.0043 10.5858 13.3401 11 13.3401L21 13.3401C21.4142 13.3401 21.75 13.0043 21.75 12.5901C21.75 12.1759 21.4142 11.8401 21 11.8401L11 11.8401ZM11 18.8401C10.5858 18.8401 10.25 19.1759 10.25 19.5901C10.25 20.0043 10.5858 20.3401 11 20.3401L21 20.3401C21.4142 20.3401 21.75 20.0043 21.75 19.5901C21.75 19.1759 21.4142 18.8401 21 18.8401L11 18.8401ZM2.96968 10.5598C3.26257 10.2669 3.73745 10.2669 4.03034 10.5598L5.00001 11.5294L5.96968 10.5598C6.26257 10.2669 6.73745 10.2669 7.03034 10.5598C7.32323 10.8527 7.32323 11.3275 7.03034 11.6204L6.06067 12.5901L7.03034 13.5598C7.32323 13.8527 7.32323 14.3275 7.03034 14.6204C6.73745 14.9133 6.26257 14.9133 5.96968 14.6204L5.00001 13.6507L4.03034 14.6204C3.73745 14.9133 3.26257 14.9133 2.96968 14.6204C2.67679 14.3275 2.67679 13.8527 2.96968 13.5598L3.93935 12.5901L2.96968 11.6204C2.67679 11.3275 2.67679 10.8527 2.96968 10.5598ZM4.03034 17.5598C3.73745 17.2669 3.26257 17.2669 2.96968 17.5598C2.67679 17.8527 2.67679 18.3275 2.96968 18.6204L3.93935 19.5901L2.96968 20.5598C2.67679 20.8527 2.67679 21.3275 2.96968 21.6204C3.26257 21.9133 3.73745 21.9133 4.03034 21.6204L5.00001 20.6507L5.96968 21.6204C6.26257 21.9133 6.73745 21.9133 7.03034 21.6204C7.32323 21.3275 7.32323 20.8527 7.03034 20.5598L6.06067 19.5901L7.03034 18.6204C7.32323 18.3275 7.32323 17.8527 7.03034 17.5598C6.73745 17.2669 6.26257 17.2669 5.96968 17.5598L5.00001 18.5294L4.03034 17.5598Z" fill="white"/>
</svg>
