<svg width="24" height="25" viewBox="0 0 24 25" fill="none" xmlns="http://www.w3.org/2000/svg">
<path fill-rule="evenodd" clip-rule="evenodd" d="M5.85398 4.92884C6.09785 5.05935 6.25008 5.3135 6.25008 5.59009L6.25008 9.84006L7.00005 9.84003C7.41426 9.84001 7.75006 10.1758 7.75008 10.59C7.7501 11.0042 7.41432 11.34 7.00011 11.34L5.50011 11.3401L5.50008 11.3401L4.00008 11.3401C3.58587 11.3401 3.25008 11.0043 3.25008 10.5901C3.25008 10.1759 3.58587 9.84009 4.00008 9.84009L4.75008 9.84009L4.75008 6.99143L4.41609 7.21408C4.07143 7.44383 3.60578 7.35069 3.37603 7.00604C3.14628 6.66138 3.23942 6.19573 3.58407 5.96598L5.08407 4.96604C5.31422 4.81262 5.61012 4.79832 5.85398 4.92884ZM11.0001 4.84009C10.5859 4.84009 10.2501 5.17588 10.2501 5.59009C10.2501 6.00431 10.5859 6.34009 11.0001 6.34009L21.0001 6.34009C21.4143 6.34009 21.7501 6.00431 21.7501 5.59009C21.7501 5.17588 21.4143 4.84009 21.0001 4.84009L11.0001 4.84009ZM10.2501 12.5901C10.2501 12.1759 10.5859 11.8401 11.0001 11.8401L21.0001 11.8401C21.4143 11.8401 21.7501 12.1759 21.7501 12.5901C21.7501 13.0043 21.4143 13.3401 21.0001 13.3401L11.0001 13.3401C10.5859 13.3401 10.2501 13.0043 10.2501 12.5901ZM10.2501 19.5901C10.2501 19.1759 10.5859 18.8401 11.0001 18.8401L21.0001 18.8401C21.4143 18.8401 21.7501 19.1759 21.7501 19.5901C21.7501 20.0043 21.4143 20.3401 21.0001 20.3401L11.0001 20.3401C10.5859 20.3401 10.2501 20.0043 10.2501 19.5901ZM4.00057 13.84C3.58635 13.84 3.25057 14.1758 3.25057 14.59C3.25057 15.0042 3.58635 15.34 4.00057 15.34L6.25049 15.34L6.2504 16.34L4.00032 16.34C3.58611 16.34 3.25032 16.6758 3.25032 17.09L3.25032 19.59C3.25032 20.0042 3.58611 20.34 4.00032 20.34L7.00057 20.34C7.41478 20.34 7.75057 20.0042 7.75057 19.59C7.75057 19.1758 7.41478 18.84 7.00057 18.84L4.75032 18.84L4.75032 17.84L7.00032 17.84C7.41451 17.84 7.75028 17.5043 7.75032 17.0901L7.75057 14.5901C7.75059 14.3912 7.67158 14.2004 7.53092 14.0597C7.39027 13.9191 7.19949 13.84 7.00057 13.84L4.00057 13.84Z" fill="white"/>
</svg>
