<svg width="24" height="25" viewBox="0 0 24 25" fill="none" xmlns="http://www.w3.org/2000/svg">
<path fill-rule="evenodd" clip-rule="evenodd" d="M0.999908 2.02002L1.49991 2.01996H1.50002L4.00002 2.02002C4.37019 2.02003 4.68499 2.29011 4.74128 2.65598L6.64344 15.02L9.25 15.02V7.76996C9.25 7.35574 9.58579 7.01996 10 7.01996H20C20.4142 7.01996 20.75 7.35574 20.75 7.76996V15.02L22 15.02C22.4142 15.02 22.75 15.3557 22.75 15.77C22.75 16.1842 22.4142 16.52 22 16.52H20L6 16.52C5.62982 16.52 5.31501 16.2499 5.25872 15.8841L3.35656 3.52L1.50009 3.51996H1.49998L1.00009 3.52002C0.585878 3.52007 0.250051 3.18432 0.25 2.77011C0.249949 2.3559 0.585695 2.02007 0.999908 2.02002ZM19.25 15.02V8.51996H10.75V15.02H19.25ZM7.75 20.77C7.75 20.0796 8.30964 19.52 9 19.52C9.69036 19.52 10.25 20.0796 10.25 20.77C10.25 21.4603 9.69036 22.02 9 22.02C8.30964 22.02 7.75 21.4603 7.75 20.77ZM9 18.02C7.48122 18.02 6.25 19.2512 6.25 20.77C6.25 22.2887 7.48122 23.52 9 23.52C10.5188 23.52 11.75 22.2887 11.75 20.77C11.75 19.2512 10.5188 18.02 9 18.02ZM19 18.02C17.4812 18.02 16.25 19.2512 16.25 20.77C16.25 22.2887 17.4812 23.52 19 23.52C20.5188 23.52 21.75 22.2887 21.75 20.77C21.75 19.2512 20.5188 18.02 19 18.02ZM17.75 20.77C17.75 20.0796 18.3096 19.52 19 19.52C19.6904 19.52 20.25 20.0796 20.25 20.77C20.25 21.4603 19.6904 22.02 19 22.02C18.3096 22.02 17.75 21.4603 17.75 20.77Z" fill="white"/>
</svg>
