<svg width="24" height="25" viewBox="0 0 24 25" fill="none" xmlns="http://www.w3.org/2000/svg">
<path fill-rule="evenodd" clip-rule="evenodd" d="M11.25 3.06C11.25 2.64578 11.5858 2.31 12 2.31C17.3848 2.31 21.75 6.67522 21.75 12.06C21.75 17.4448 17.3848 21.81 12 21.81C6.61522 21.81 2.25 17.4448 2.25 12.06C2.25 10.5048 2.61468 9.03257 3.26388 7.72622C3.44822 7.35529 3.89836 7.20402 4.26929 7.38836C4.64023 7.5727 4.79149 8.02284 4.60716 8.39377C4.05873 9.49734 3.75 10.7415 3.75 12.06C3.75 16.6163 7.44365 20.31 12 20.31C16.5563 20.31 20.25 16.6163 20.25 12.06C20.25 7.50365 16.5563 3.81 12 3.81C11.5858 3.81 11.25 3.47421 11.25 3.06Z" fill="white"/>
</svg>
