<svg width="24" height="25" viewBox="0 0 24 25" fill="none" xmlns="http://www.w3.org/2000/svg">
<path fill-rule="evenodd" clip-rule="evenodd" d="M12 21.81C11.5858 21.81 11.25 21.4742 11.25 21.06V17.7169C11.25 17.3026 11.5858 16.9669 12 16.9669C12.4142 16.9669 12.75 17.3026 12.75 17.7169V21.06C12.75 21.4742 12.4142 21.81 12 21.81ZM12 7.15341C11.5858 7.15341 11.25 6.81763 11.25 6.40341V3.06C11.25 2.64578 11.5858 2.31 12 2.31C12.4142 2.31 12.75 2.64578 12.75 3.06V6.40341C12.75 6.81763 12.4142 7.15341 12 7.15341ZM5.1059 17.8936C4.81301 18.1865 4.81301 18.6614 5.1059 18.9543C5.39879 19.2472 5.87367 19.2472 6.16656 18.9543L8.53052 16.5903C8.82342 16.2974 8.82342 15.8226 8.53052 15.5297C8.23763 15.2368 7.76276 15.2368 7.46986 15.5297L5.1059 17.8936ZM15.4697 7.52985C15.1768 7.82275 15.1768 8.29762 15.4697 8.59051C15.7626 8.88341 16.2374 8.88341 16.5303 8.59051L18.8945 6.22636C19.1874 5.93347 19.1874 5.4586 18.8945 5.1657C18.6016 4.87281 18.1267 4.87281 17.8338 5.1657L15.4697 7.52985ZM3 11.31C2.58579 11.31 2.25 11.6458 2.25 12.06C2.25 12.4742 2.58579 12.81 3 12.81H6.34315C6.75736 12.81 7.09315 12.4742 7.09315 12.06C7.09315 11.6458 6.75736 11.31 6.34315 11.31H3ZM17.6566 11.31C17.2424 11.31 16.9066 11.6458 16.9066 12.06C16.9066 12.4742 17.2424 12.81 17.6566 12.81H21C21.4142 12.81 21.75 12.4742 21.75 12.06C21.75 11.6458 21.4142 11.31 21 11.31H17.6566ZM17.8336 18.9543C18.1265 19.2472 18.6014 19.2472 18.8943 18.9543C19.1872 18.6614 19.1872 18.1865 18.8943 17.8936L16.5303 15.5297C16.2374 15.2368 15.7626 15.2368 15.4697 15.5297C15.1768 15.8226 15.1768 16.2974 15.4697 16.5903L17.8336 18.9543ZM7.46986 8.59052C7.76275 8.88341 8.23763 8.88341 8.53052 8.59052C8.82341 8.29762 8.82341 7.82275 8.53052 7.52986L6.16637 5.16571C5.87348 4.87281 5.3986 4.87281 5.10571 5.16571C4.81282 5.4586 4.81282 5.93347 5.10571 6.22637L7.46986 8.59052Z" fill="white"/>
</svg>
