<svg width="24" height="25" viewBox="0 0 24 25" fill="none" xmlns="http://www.w3.org/2000/svg">
<path fill-rule="evenodd" clip-rule="evenodd" d="M8 1.37C7.58579 1.37 7.25 1.70578 7.25 2.12V3.62V4.12C7.25 4.53421 7.58579 4.87 8 4.87C8.41421 4.87 8.75 4.53421 8.75 4.12V3.62V2.87H15.25V7.37H12.5H12C11.5858 7.37 11.25 7.70578 11.25 8.12C11.25 8.53421 11.5858 8.87 12 8.87H12.5L16 8.87L19.25 8.87V15.62V16.12C19.25 16.5342 19.5858 16.87 20 16.87C20.4142 16.87 20.75 16.5342 20.75 16.12V15.62V8.12C20.75 7.70578 20.4142 7.37 20 7.37H16.75V2.12C16.75 1.70578 16.4142 1.37 16 1.37H8ZM3.53033 2.58967C3.23744 2.29677 2.76256 2.29677 2.46967 2.58967C2.17678 2.88256 2.17678 3.35743 2.46967 3.65033L6.18934 7.37H4C3.58579 7.37 3.25 7.70578 3.25 8.12V22.12C3.25 22.5342 3.58579 22.87 4 22.87H18C18.1989 22.87 18.3897 22.791 18.5303 22.6503L20 21.1807L21.4697 22.6503C21.7626 22.9432 22.2374 22.9432 22.5303 22.6503C22.8232 22.3574 22.8232 21.8826 22.5303 21.5897L20.5303 19.5897L8.53033 7.58967L3.53033 2.58967ZM4.75 8.87H7.68934L18.9393 20.12L17.6893 21.37H4.75V8.87Z" fill="white"/>
</svg>
