<svg width="24" height="25" viewBox="0 0 24 25" fill="none" xmlns="http://www.w3.org/2000/svg">
<path fill-rule="evenodd" clip-rule="evenodd" d="M7.25 2.12C7.25 1.70578 7.58579 1.37 8 1.37H16C16.4142 1.37 16.75 1.70578 16.75 2.12V7.37H20C20.4142 7.37 20.75 7.70578 20.75 8.12V22.12C20.75 22.5342 20.4142 22.87 20 22.87H4C3.58579 22.87 3.25 22.5342 3.25 22.12V8.12C3.25 7.70578 3.58579 7.37 4 7.37H7.25V2.12ZM15.25 2.87V7.37H8.75V2.87H15.25ZM4.75 8.87H8H16H19.25V21.37H4.75V8.87ZM12.75 14.12C12.75 13.7058 12.4142 13.37 12 13.37C11.5858 13.37 11.25 13.7058 11.25 14.12V16.12C11.25 16.5342 11.5858 16.87 12 16.87C12.4142 16.87 12.75 16.5342 12.75 16.12V14.12Z" fill="white"/>
</svg>
