<svg width="24" height="25" viewBox="0 0 24 25" fill="none" xmlns="http://www.w3.org/2000/svg">
<path fill-rule="evenodd" clip-rule="evenodd" d="M9 1.37C8.58579 1.37 8.25 1.70578 8.25 2.12V4.62V5.12C8.25 5.53421 8.58579 5.87 9 5.87C9.41421 5.87 9.75 5.53421 9.75 5.12V4.62V2.87H14.25V7.70166C13.5379 7.48597 12.7825 7.37 12 7.37C11.5858 7.37 11.25 7.70578 11.25 8.12C11.25 8.53421 11.5858 8.87 12 8.87C15.4518 8.87 18.25 11.6682 18.25 15.12C18.25 15.5342 18.5858 15.87 19 15.87C19.4142 15.87 19.75 15.5342 19.75 15.12C19.75 12.2001 18.1352 9.65736 15.75 8.33604V2.12C15.75 1.70578 15.4142 1.37 15 1.37H9ZM3.53033 2.58967C3.23744 2.29677 2.76256 2.29677 2.46967 2.58967C2.17678 2.88256 2.17678 3.35743 2.46967 3.65033L7.57565 8.75631C5.56654 10.1557 4.25 12.4836 4.25 15.12C4.25 19.4002 7.71979 22.87 12 22.87C14.6364 22.87 16.9643 21.5535 18.3637 19.5443L21.4697 22.6503C21.7626 22.9432 22.2374 22.9432 22.5303 22.6503C22.8232 22.3574 22.8232 21.8826 22.5303 21.5897L18.7484 17.8077L9.31226 8.3716L3.53033 2.58967ZM5.75 15.12C5.75 12.8987 6.90865 10.9469 8.65728 9.83793L17.2821 18.4627C16.1731 20.2113 14.2213 21.37 12 21.37C8.54822 21.37 5.75 18.5718 5.75 15.12Z" fill="white"/>
</svg>
