<svg width="24" height="25" viewBox="0 0 24 25" fill="none" xmlns="http://www.w3.org/2000/svg">
<path fill-rule="evenodd" clip-rule="evenodd" d="M8.25 2.12C8.25 1.70578 8.58579 1.37 9 1.37H15C15.4142 1.37 15.75 1.70578 15.75 2.12V8.33604C18.1352 9.65736 19.75 12.2001 19.75 15.12C19.75 19.4002 16.2802 22.87 12 22.87C7.71979 22.87 4.25 19.4002 4.25 15.12C4.25 12.2001 5.86476 9.65736 8.25 8.33604V2.12ZM14.25 2.87V7.70166C13.5379 7.48597 12.7825 7.37 12 7.37C11.2175 7.37 10.4621 7.48597 9.75 7.70166V2.87H14.25ZM12 8.87C8.54822 8.87 5.75 11.6682 5.75 15.12C5.75 18.5718 8.54822 21.37 12 21.37C15.4518 21.37 18.25 18.5718 18.25 15.12C18.25 11.6682 15.4518 8.87 12 8.87ZM12.75 14.12C12.75 13.7058 12.4142 13.37 12 13.37C11.5858 13.37 11.25 13.7058 11.25 14.12V16.12C11.25 16.5342 11.5858 16.87 12 16.87C12.4142 16.87 12.75 16.5342 12.75 16.12V14.12Z" fill="white"/>
</svg>
