<svg width="24" height="25" viewBox="0 0 24 25" fill="none" xmlns="http://www.w3.org/2000/svg">
<path fill-rule="evenodd" clip-rule="evenodd" d="M21.3828 3.18467C21.6105 3.31979 21.75 3.56489 21.75 3.82959V18.5569C21.75 18.8313 21.6001 19.0839 21.3591 19.2153L15.3591 22.488C15.1353 22.6101 14.8647 22.6101 14.6409 22.488L9 19.4112L3.35914 22.488C3.12676 22.6148 2.84477 22.6096 2.61715 22.4745C2.38953 22.3394 2.25 22.0943 2.25 21.8296V7.10232C2.25 6.82786 2.39992 6.57532 2.64086 6.4439L8.64086 3.17117C8.86472 3.04906 9.13528 3.04906 9.35914 3.17117L15 6.248L20.6409 3.17117C20.8732 3.04441 21.1552 3.04954 21.3828 3.18467ZM14.25 7.54754L9.75 5.093V18.1116L14.25 20.5662V7.54754ZM15.75 20.5662L20.25 18.1116V5.093L15.75 7.54754V20.5662ZM8.25 18.1116V5.093L3.75 7.54754V20.5662L8.25 18.1116Z" fill="white"/>
</svg>
