<svg width="24" height="25" viewBox="0 0 24 25" fill="none" xmlns="http://www.w3.org/2000/svg">
<path fill-rule="evenodd" clip-rule="evenodd" d="M20.75 1.05982C20.75 0.775743 20.5895 0.516046 20.3354 0.389002C20.0813 0.261958 19.7773 0.289375 19.55 0.459822L11.7498 6.30999L2 6.30999C1.58578 6.30999 1.25 6.64578 1.25 7.05999L1.25 15.06C1.25 15.4742 1.58578 15.81 2 15.81L5.25 15.81L5.25 21.0601C5.25 21.4743 5.58579 21.8101 6 21.8101L9 21.8101C9.41421 21.8101 9.75 21.4743 9.75 21.0601L9.75 15.81L11.7502 15.81L19.55 21.6598C19.7773 21.8303 20.0813 21.8577 20.3354 21.7306C20.5895 21.6036 20.75 21.3439 20.75 21.0598L20.75 14.8099L23 14.8099C23.4142 14.8099 23.75 14.4741 23.75 14.0599L23.75 8.05985C23.75 7.64564 23.4142 7.30985 23 7.30985L20.75 7.30985L20.75 1.05982ZM20.75 8.80985L20.75 13.3099L22.25 13.3099L22.25 8.80985L20.75 8.80985ZM12.75 14.6848L19.25 19.5598L19.25 14.0599L19.25 8.05985L19.25 2.55982L12.75 7.43482L12.75 14.6848ZM11.25 14.31L11.25 7.80999L2.75 7.80999L2.75 14.31L11.25 14.31ZM6.75 15.8101L6.75 20.3101L8.25 20.3101L8.25 15.8101L6.75 15.8101Z" fill="white"/>
</svg>
