<svg width="24" height="25" viewBox="0 0 24 25" fill="none" xmlns="http://www.w3.org/2000/svg">
<path fill-rule="evenodd" clip-rule="evenodd" d="M3.25 7.06C3.25 6.64578 3.58579 6.31 4 6.31H20C20.4142 6.31 20.75 6.64578 20.75 7.06C20.75 7.47421 20.4142 7.81 20 7.81H4C3.58579 7.81 3.25 7.47421 3.25 7.06ZM3.25 12.06C3.25 11.6458 3.58579 11.31 4 11.31L20 11.31C20.4142 11.31 20.75 11.6458 20.75 12.06C20.75 12.4742 20.4142 12.81 20 12.81L4 12.81C3.58579 12.81 3.25 12.4742 3.25 12.06ZM4 16.31C3.58579 16.31 3.25 16.6458 3.25 17.06C3.25 17.4742 3.58579 17.81 4 17.81H20C20.4142 17.81 20.75 17.4742 20.75 17.06C20.75 16.6458 20.4142 16.31 20 16.31H4Z" fill="white"/>
</svg>
