<svg width="24" height="25" viewBox="0 0 24 25" fill="none" xmlns="http://www.w3.org/2000/svg">
<path fill-rule="evenodd" clip-rule="evenodd" d="M12 1.37C9.92893 1.37 8.25 3.04893 8.25 5.12V5.62C8.25 6.03421 8.58579 6.37 9 6.37C9.41421 6.37 9.75 6.03421 9.75 5.62V5.12C9.75 3.87735 10.7574 2.87 12 2.87C13.2426 2.87 14.25 3.87735 14.25 5.12V11.12C14.25 11.5342 14.5858 11.87 15 11.87C15.4142 11.87 15.75 11.5342 15.75 11.12V5.12C15.75 3.04893 14.0711 1.37 12 1.37ZM3.53033 2.58967C3.23744 2.29677 2.76256 2.29677 2.46967 2.58967C2.17678 2.88256 2.17678 3.35743 2.46967 3.65033L8.25 9.43066V12.12C8.25 14.1911 9.92893 15.87 12 15.87H14.6893L15.9158 17.0965C14.7287 17.9717 13.2643 18.37 12 18.37C10.6501 18.37 9.07409 17.9161 7.84993 16.9145C6.64917 15.9321 5.75 14.3952 5.75 12.12C5.75 11.7058 5.41421 11.37 5 11.37C4.58579 11.37 4.25 11.7058 4.25 12.12C4.25 14.8448 5.35083 16.8079 6.90007 18.0755C8.19962 19.1387 9.78803 19.6926 11.25 19.8335V22.12C11.25 22.5342 11.5858 22.87 12 22.87C12.4142 22.87 12.75 22.5342 12.75 22.12V19.8335C14.1608 19.6975 15.6883 19.1771 16.9607 18.1866C16.9692 18.18 16.9775 18.1732 16.9856 18.1663L20.4697 21.6503C20.7626 21.9432 21.2374 21.9432 21.5303 21.6503C21.8232 21.3574 21.8232 20.8826 21.5303 20.5897L15.5303 14.5897L9.53033 8.58966L3.53033 2.58967ZM9.75 12.12V10.9307L13.1893 14.37H12C10.7574 14.37 9.75 13.3626 9.75 12.12ZM19.75 12.12C19.75 11.7058 19.4142 11.37 19 11.37C18.5858 11.37 18.25 11.7058 18.25 12.12C18.25 12.7908 18.1718 13.3937 18.0335 13.9341C17.9308 14.3354 18.1729 14.7439 18.5742 14.8466C18.9755 14.9493 19.384 14.7072 19.4867 14.3059C19.658 13.6365 19.75 12.9082 19.75 12.12Z" fill="white"/>
</svg>
