<svg width="24" height="25" viewBox="0 0 24 25" fill="none" xmlns="http://www.w3.org/2000/svg">
<path fill-rule="evenodd" clip-rule="evenodd" d="M12 1.37C9.92893 1.37 8.25 3.04893 8.25 5.11999V12.12C8.25 14.1911 9.92893 15.87 12 15.87C14.0711 15.87 15.75 14.1911 15.75 12.12V5.12C15.75 3.04893 14.0711 1.37 12 1.37ZM9.75 5.11999C9.75 3.87735 10.7574 2.87 12 2.87C13.2426 2.87 14.25 3.87735 14.25 5.12V12.12C14.25 13.3626 13.2426 14.37 12 14.37C10.7574 14.37 9.75 13.3626 9.75 12.12V5.11999ZM5.75 12.12C5.75 11.7058 5.41421 11.37 5 11.37C4.58579 11.37 4.25 11.7058 4.25 12.12C4.25 14.8448 5.35083 16.8079 6.90007 18.0755C8.19962 19.1387 9.78803 19.6926 11.25 19.8335V22.12C11.25 22.5342 11.5858 22.87 12 22.87C12.4142 22.87 12.75 22.5342 12.75 22.12V19.8335C14.212 19.6926 15.8004 19.1387 17.0999 18.0755C18.6492 16.8079 19.75 14.8448 19.75 12.12C19.75 11.7058 19.4142 11.37 19 11.37C18.5858 11.37 18.25 11.7058 18.25 12.12C18.25 14.3952 17.3508 15.9321 16.1501 16.9145C14.9259 17.9161 13.3499 18.37 12 18.37C10.6501 18.37 9.07409 17.9161 7.84993 16.9145C6.64917 15.9321 5.75 14.3952 5.75 12.12Z" fill="white"/>
</svg>
