<svg width="24" height="25" viewBox="0 0 24 25" fill="none" xmlns="http://www.w3.org/2000/svg">
<path fill-rule="evenodd" clip-rule="evenodd" d="M3.75 12.8892C3.75 8.33281 7.44365 4.63916 12 4.63916C16.5563 4.63916 20.25 8.33281 20.25 12.8892C20.25 17.4455 16.5563 21.1392 12 21.1392C7.44365 21.1392 3.75 17.4455 3.75 12.8892ZM12 3.13916C6.61522 3.13916 2.25 7.50438 2.25 12.8892C2.25 18.2739 6.61522 22.6392 12 22.6392C17.3848 22.6392 21.75 18.2739 21.75 12.8892C21.75 7.50438 17.3848 3.13916 12 3.13916ZM7.99997 12.1392C7.58576 12.1392 7.24997 12.4749 7.24997 12.8892C7.24997 13.3034 7.58576 13.6392 7.99997 13.6392H16C16.4142 13.6392 16.75 13.3034 16.75 12.8892C16.75 12.4749 16.4142 12.1392 16 12.1392H7.99997Z" fill="white"/>
</svg>
