<svg width="24" height="25" viewBox="0 0 24 25" fill="none" xmlns="http://www.w3.org/2000/svg">
<path fill-rule="evenodd" clip-rule="evenodd" d="M1.25 4.65002C1.25 4.23581 1.58579 3.90002 2 3.90002L6 3.90002L18 3.90002L22 3.90002C22.4142 3.90002 22.75 4.23581 22.75 4.65002V8.65002V14.65V18.65C22.75 19.0642 22.4142 19.4 22 19.4H18H6H2C1.58579 19.4 1.25 19.0642 1.25 18.65L1.25 14.65L1.25 8.65002L1.25 4.65002ZM21.25 7.89635V5.40002H18.7537C18.7603 5.835 18.7785 6.0525 18.8267 6.23237C19.0347 7.00882 19.6412 7.61531 20.4177 7.82336C20.5975 7.87155 20.815 7.88971 21.25 7.89635ZM17.2526 5.40002C17.2598 5.89234 17.2857 6.27695 17.3778 6.6206C17.7245 7.91469 18.7353 8.92549 20.0294 9.27225C20.3731 9.36433 20.7577 9.3902 21.25 9.39738V13.9027C20.7577 13.9098 20.3731 13.9357 20.0294 14.0278C18.7353 14.3746 17.7245 15.3854 17.3778 16.6795C17.2857 17.0231 17.2598 17.4077 17.2526 17.9H6.74735C6.74018 17.4077 6.7143 17.0231 6.62222 16.6795C6.27547 15.3854 5.26467 14.3746 3.97057 14.0278C3.62693 13.9357 3.24231 13.9098 2.75 13.9027L2.75 9.39738C3.24231 9.3902 3.62693 9.36433 3.97057 9.27225C5.26467 8.92549 6.27547 7.91469 6.62222 6.6206C6.7143 6.27695 6.74018 5.89234 6.74735 5.40002L17.2526 5.40002ZM2.75 5.40002H5.24633C5.23968 5.835 5.22153 6.0525 5.17333 6.23237C4.96528 7.00882 4.3588 7.61531 3.58234 7.82336C3.40248 7.87155 3.18497 7.88971 2.75 7.89635V5.40002ZM2.75 15.4037V17.9H5.24633C5.23968 17.4651 5.22153 17.2475 5.17333 17.0677C4.96528 16.2912 4.3588 15.6847 3.58234 15.4767C3.40248 15.4285 3.18497 15.4103 2.75 15.4037ZM18.8267 17.0677C18.7785 17.2475 18.7603 17.4651 18.7537 17.9H21.25V15.4037C20.815 15.4103 20.5975 15.4285 20.4177 15.4767C19.6412 15.6847 19.0347 16.2912 18.8267 17.0677ZM12.8838 10.7663C12.3956 10.2782 11.6042 10.2782 11.116 10.7663C10.6278 11.2545 10.6278 12.046 11.116 12.5341C11.6042 13.0223 12.3956 13.0223 12.8838 12.5341C13.3719 12.046 13.3719 11.2545 12.8838 10.7663ZM10.0553 9.70569C11.1293 8.63175 12.8705 8.63175 13.9444 9.70569C15.0184 10.7796 15.0184 12.5208 13.9444 13.5948C12.8705 14.6687 11.1293 14.6687 10.0553 13.5948C8.9814 12.5208 8.9814 10.7796 10.0553 9.70569ZM5 20.9C4.58579 20.9 4.25 21.2358 4.25 21.65C4.25 22.0642 4.58579 22.4 5 22.4H19C19.4142 22.4 19.75 22.0642 19.75 21.65C19.75 21.2358 19.4142 20.9 19 20.9H5Z" fill="white"/>
</svg>
