<svg width="24" height="25" viewBox="0 0 24 25" fill="none" xmlns="http://www.w3.org/2000/svg">
<path fill-rule="evenodd" clip-rule="evenodd" d="M12.9998 5.40015C9.96907 5.40015 7.37273 7.25974 6.28949 9.90015H12.9998C13.414 9.90015 13.7498 10.2359 13.7498 10.6501C13.7498 11.0644 13.414 11.4001 12.9998 11.4001H5.85711C5.78654 11.8062 5.74976 12.2239 5.74976 12.6501C5.74976 13.0764 5.78654 13.4941 5.85711 13.9001H10.9998C11.414 13.9001 11.7498 14.2359 11.7498 14.6501C11.7498 15.0644 11.414 15.4001 10.9998 15.4001H6.28949C7.37273 18.0406 9.96907 19.9001 12.9998 19.9001C15.165 19.9001 17.1079 18.9519 18.4375 17.4455C18.7116 17.1349 19.1855 17.1054 19.4961 17.3795C19.8066 17.6536 19.8362 18.1275 19.5621 18.4381C17.9598 20.2534 15.6133 21.4001 12.9998 21.4001C9.12795 21.4001 5.8435 18.8854 4.69063 15.4001H2.99976C2.58554 15.4001 2.24976 15.0644 2.24976 14.6501C2.24976 14.2359 2.58554 13.9001 2.99976 13.9001H4.33837C4.27997 13.4919 4.24976 13.0745 4.24976 12.6501C4.24976 12.2257 4.27997 11.8084 4.33837 11.4001H2.99976C2.58554 11.4001 2.24976 11.0644 2.24976 10.6501C2.24976 10.2359 2.58554 9.90015 2.99976 9.90015H4.69063C5.8435 6.41489 9.12795 3.90015 12.9998 3.90015C15.6133 3.90015 17.9598 5.0469 19.5621 6.8622C19.8362 7.17275 19.8066 7.6467 19.4961 7.9208C19.1855 8.1949 18.7116 8.16535 18.4375 7.8548C17.1079 6.34842 15.165 5.40015 12.9998 5.40015Z" fill="white"/>
</svg>
