<svg width="24" height="25" viewBox="0 0 24 25" fill="none" xmlns="http://www.w3.org/2000/svg">
<path fill-rule="evenodd" clip-rule="evenodd" d="M12.7498 3.65015C12.7498 3.23593 12.414 2.90015 11.9998 2.90015C11.5855 2.90015 11.2498 3.23593 11.2498 3.65015V4.90015H9.90545C7.8524 4.90015 6.24976 6.63681 6.24976 8.70113C6.24976 10.3139 7.23376 11.7767 8.73883 12.3034L11.2498 13.1823V18.9001H10.3331C8.94042 18.9001 7.74976 17.7038 7.74976 16.1501C7.74976 15.7359 7.41397 15.4001 6.99976 15.4001C6.58554 15.4001 6.24976 15.7359 6.24976 16.1501C6.24976 18.4625 8.04386 20.4001 10.3331 20.4001H11.2498V21.6501C11.2498 22.0644 11.5855 22.4001 11.9998 22.4001C12.414 22.4001 12.7498 22.0644 12.7498 21.6501V20.4001H14.0941C16.1471 20.4001 17.7498 18.6635 17.7498 16.5992C17.7498 14.9864 16.7658 13.5236 15.2607 12.9969L12.7498 12.118V6.40015H13.6664C15.0591 6.40015 16.2498 7.59646 16.2498 9.15015C16.2498 9.56436 16.5855 9.90015 16.9998 9.90015C17.414 9.90015 17.7498 9.56436 17.7498 9.15015C17.7498 6.83784 15.9556 4.90015 13.6664 4.90015H12.7498V3.65015ZM11.2498 6.40015H9.90545C8.74896 6.40015 7.74976 7.39543 7.74976 8.70113C7.74976 9.71486 8.36639 10.5839 9.23435 10.8876L11.2498 11.593V6.40015ZM12.7498 13.7073V18.9001H14.0941C15.2506 18.9001 16.2498 17.9049 16.2498 16.5992C16.2498 15.5854 15.6331 14.7164 14.7652 14.4126L12.7498 13.7073Z" fill="white"/>
</svg>
