<svg width="24" height="25" viewBox="0 0 24 25" fill="none" xmlns="http://www.w3.org/2000/svg">
<path fill-rule="evenodd" clip-rule="evenodd" d="M12 4.40002C7.44365 4.40002 3.75 8.09368 3.75 12.65C3.75 17.2064 7.44365 20.9 12 20.9C16.5563 20.9 20.25 17.2064 20.25 12.65C20.25 8.09368 16.5563 4.40002 12 4.40002ZM2.25 12.65C2.25 7.26525 6.61522 2.90002 12 2.90002C17.3848 2.90002 21.75 7.26525 21.75 12.65C21.75 18.0348 17.3848 22.4 12 22.4C6.61522 22.4 2.25 18.0348 2.25 12.65Z" fill="white"/>
<path fill-rule="evenodd" clip-rule="evenodd" d="M11.9999 6.87061C12.284 6.87061 12.5437 7.03111 12.6708 7.2852L14.0723 10.0882L16.8402 10.5496C17.1173 10.5957 17.3454 10.7929 17.4311 11.0605C17.5168 11.328 17.4459 11.621 17.2472 11.8197L15.1827 13.8842L15.8754 16.8859C15.9407 17.1689 15.8367 17.4641 15.6085 17.6438C15.3803 17.8234 15.0689 17.8552 14.8092 17.7253L11.9999 16.3207L9.19071 17.7253C8.93094 17.8552 8.61953 17.8234 8.39134 17.6438C8.16315 17.4641 8.0592 17.1689 8.1245 16.8859L8.81719 13.8842L6.75265 11.8197C6.55399 11.621 6.48302 11.328 6.56876 11.0605C6.65449 10.7929 6.88256 10.5957 7.15968 10.5496L9.92759 10.0882L11.3291 7.28519C11.4562 7.03111 11.7159 6.87061 11.9999 6.87061ZM11.9999 9.29766L11.0984 11.1007C10.9911 11.3153 10.7876 11.4656 10.5509 11.505L8.84384 11.7895L10.1718 13.1175C10.3546 13.3003 10.4304 13.5645 10.3722 13.8165L9.94415 15.6716L11.6645 14.8114C11.8757 14.7058 12.1242 14.7058 12.3353 14.8114L14.0557 15.6716L13.6276 13.8165C13.5695 13.5645 13.6452 13.3003 13.8281 13.1175L15.156 11.7895L13.4489 11.505C13.2123 11.4656 13.0087 11.3153 12.9014 11.1007L11.9999 9.29766Z" fill="white"/>
</svg>
