<svg width="24" height="25" viewBox="0 0 24 25" fill="none" xmlns="http://www.w3.org/2000/svg">
<path fill-rule="evenodd" clip-rule="evenodd" d="M12 4.40002C7.44365 4.40002 3.75 8.09368 3.75 12.65C3.75 17.2064 7.44365 20.9 12 20.9C16.5563 20.9 20.25 17.2064 20.25 12.65C20.25 8.09368 16.5563 4.40002 12 4.40002ZM2.25 12.65C2.25 7.26525 6.61522 2.90002 12 2.90002C17.3848 2.90002 21.75 7.26525 21.75 12.65C21.75 18.0348 17.3848 22.4 12 22.4C6.61522 22.4 2.25 18.0348 2.25 12.65ZM8.24993 10.3935C8.24993 9.01642 9.36627 7.90008 10.7433 7.90008H11.25V7.15009C11.25 6.73587 11.5858 6.40009 12 6.40009C12.4142 6.40009 12.75 6.73587 12.75 7.15009V7.90008H12.9999C14.5187 7.90008 15.7499 9.1313 15.7499 10.6501C15.7499 11.0643 15.4141 11.4001 14.9999 11.4001C14.5857 11.4001 14.2499 11.0643 14.2499 10.6501C14.2499 9.95972 13.6903 9.40008 12.9999 9.40008H12.75V12.1095L14.045 12.5412C15.0632 12.8806 15.7499 13.8334 15.7499 14.9067C15.7499 16.2837 14.6336 17.4001 13.2565 17.4001H12.75V18.1501C12.75 18.5643 12.4142 18.9001 12 18.9001C11.5858 18.9001 11.25 18.5643 11.25 18.1501V17.4001H10.9999C9.48115 17.4001 8.24993 16.1689 8.24993 14.6501C8.24993 14.2359 8.58572 13.9001 8.99993 13.9001C9.41415 13.9001 9.74993 14.2359 9.74993 14.6501C9.74993 15.3404 10.3096 15.9001 10.9999 15.9001H11.25V13.1907L9.95486 12.759C8.93669 12.4196 8.24993 11.4667 8.24993 10.3935ZM11.25 11.6095V9.40008H10.7433C10.1947 9.40008 9.74993 9.84485 9.74993 10.3935C9.74993 10.8211 10.0235 11.2007 10.4292 11.3359L11.25 11.6095ZM12.75 13.6907V15.9001H13.2565C13.8052 15.9001 14.2499 15.4553 14.2499 14.9067C14.2499 14.4791 13.9763 14.0994 13.5707 13.9642L12.75 13.6907Z" fill="white"/>
</svg>
