<svg width="24" height="25" viewBox="0 0 24 25" fill="none" xmlns="http://www.w3.org/2000/svg">
<path fill-rule="evenodd" clip-rule="evenodd" d="M3.75 12.65C3.75 8.09368 7.44365 4.40002 12 4.40002C16.5563 4.40002 20.25 8.09368 20.25 12.65C20.25 17.2064 16.5563 20.9 12 20.9C7.44365 20.9 3.75 17.2064 3.75 12.65ZM12 2.90002C6.61522 2.90002 2.25 7.26525 2.25 12.65C2.25 18.0348 6.61522 22.4 12 22.4C17.3848 22.4 21.75 18.0348 21.75 12.65C21.75 7.26525 17.3848 2.90002 12 2.90002ZM8.75 12.65C8.75 12.5659 8.7532 12.4825 8.75947 12.4H12C12.4142 12.4 12.75 12.0642 12.75 11.65C12.75 11.2358 12.4142 10.9 12 10.9H9.26091C9.83844 9.99795 10.8494 9.40002 12 9.40002C12.9706 9.40002 13.8411 9.82454 14.4377 10.5005C14.7118 10.8111 15.1857 10.8406 15.4963 10.5665C15.8069 10.2924 15.8364 9.81845 15.5623 9.5079C14.693 8.52302 13.4188 7.90002 12 7.90002C9.99465 7.90002 8.27954 9.14271 7.58276 10.9H7C6.58579 10.9 6.25 11.2358 6.25 11.65C6.25 12.0642 6.58579 12.4 7 12.4H7.25647C7.25217 12.4828 7.25 12.5662 7.25 12.65C7.25 12.7339 7.25217 12.8172 7.25647 12.9H7C6.58579 12.9 6.25 13.2358 6.25 13.65C6.25 14.0642 6.58579 14.4 7 14.4H7.58276C8.27954 16.1573 9.99465 17.4 12 17.4C13.4188 17.4 14.693 16.777 15.5623 15.7921C15.8364 15.4816 15.8069 15.0076 15.4963 14.7335C15.1857 14.4594 14.7118 14.489 14.4377 14.7995C13.8411 15.4755 12.9706 15.9 12 15.9C10.8494 15.9 9.83844 15.3021 9.26091 14.4H11C11.4142 14.4 11.75 14.0642 11.75 13.65C11.75 13.2358 11.4142 12.9 11 12.9H8.75947C8.7532 12.8175 8.75 12.7341 8.75 12.65Z" fill="white"/>
</svg>
