<svg width="24" height="25" viewBox="0 0 24 25" fill="none" xmlns="http://www.w3.org/2000/svg">
<path fill-rule="evenodd" clip-rule="evenodd" d="M11.3264 1.89816C11.4807 2.16266 11.4588 2.49443 11.2709 2.73626C10.3174 3.9637 9.75 5.50445 9.75 7.17983C9.75 11.1839 12.9959 14.4298 17 14.4298C18.1022 14.4298 19.1449 14.1844 20.0784 13.7459C20.3558 13.6156 20.6845 13.6672 20.9087 13.8762C21.1328 14.0851 21.2073 14.4094 21.0968 14.6953C19.6868 18.3416 16.1466 20.9298 12 20.9298C6.61522 20.9298 2.25 16.5646 2.25 11.1798C2.25 6.2807 5.86263 2.22666 10.5694 1.53414C10.8724 1.48956 11.1721 1.63366 11.3264 1.89816ZM9.07683 3.46247C5.96346 4.64237 3.75 7.65309 3.75 11.1798C3.75 15.7362 7.44365 19.4298 12 19.4298C14.8756 19.4298 17.4088 17.9584 18.8857 15.726C18.278 15.8595 17.647 15.9298 17 15.9298C12.1675 15.9298 8.25 12.0123 8.25 7.17983C8.25 5.85124 8.54651 4.59098 9.07683 3.46247Z" fill="white"/>
</svg>
