<svg width="24" height="25" viewBox="0 0 24 25" fill="none" xmlns="http://www.w3.org/2000/svg">
<path fill-rule="evenodd" clip-rule="evenodd" d="M9.25 5.06C9.25 3.54578 10.4858 2.31 12 2.31C13.5142 2.31 14.75 3.54578 14.75 5.06C14.75 6.57421 13.5142 7.81 12 7.81C10.4858 7.81 9.25 6.57421 9.25 5.06ZM12 3.81C11.3142 3.81 10.75 4.37421 10.75 5.06C10.75 5.74578 11.3142 6.31 12 6.31C12.6858 6.31 13.25 5.74578 13.25 5.06C13.25 4.37421 12.6858 3.81 12 3.81ZM9.25 12.06C9.25 10.5458 10.4858 9.31 12 9.31C13.5142 9.31 14.75 10.5458 14.75 12.06C14.75 13.5742 13.5142 14.81 12 14.81C10.4858 14.81 9.25 13.5742 9.25 12.06ZM12 10.81C11.3142 10.81 10.75 11.3742 10.75 12.06C10.75 12.7458 11.3142 13.31 12 13.31C12.6858 13.31 13.25 12.7458 13.25 12.06C13.25 11.3742 12.6858 10.81 12 10.81ZM9.25 19.06C9.25 17.5458 10.4858 16.31 12 16.31C13.5142 16.31 14.75 17.5458 14.75 19.06C14.75 20.5742 13.5142 21.81 12 21.81C10.4858 21.81 9.25 20.5742 9.25 19.06ZM12 17.81C11.3142 17.81 10.75 18.3742 10.75 19.06C10.75 19.7458 11.3142 20.31 12 20.31C12.6858 20.31 13.25 19.7458 13.25 19.06C13.25 18.3742 12.6858 17.81 12 17.81Z" fill="white"/>
</svg>
