<svg width="24" height="25" viewBox="0 0 24 25" fill="none" xmlns="http://www.w3.org/2000/svg">
<path fill-rule="evenodd" clip-rule="evenodd" d="M2.25 12.06C2.25 10.5458 3.48579 9.31 5 9.31C6.51421 9.31 7.75 10.5458 7.75 12.06C7.75 13.5742 6.51421 14.81 5 14.81C3.48579 14.81 2.25 13.5742 2.25 12.06ZM5 10.81C4.31421 10.81 3.75 11.3742 3.75 12.06C3.75 12.7458 4.31421 13.31 5 13.31C5.68579 13.31 6.25 12.7458 6.25 12.06C6.25 11.3742 5.68579 10.81 5 10.81ZM16.25 12.06C16.25 10.5458 17.4858 9.31 19 9.31C20.5142 9.31 21.75 10.5458 21.75 12.06C21.75 13.5742 20.5142 14.81 19 14.81C17.4858 14.81 16.25 13.5742 16.25 12.06ZM19 10.81C18.3142 10.81 17.75 11.3742 17.75 12.06C17.75 12.7458 18.3142 13.31 19 13.31C19.6858 13.31 20.25 12.7458 20.25 12.06C20.25 11.3742 19.6858 10.81 19 10.81ZM9.25 12.06C9.25 10.5458 10.4858 9.31 12 9.31C13.5142 9.31 14.75 10.5458 14.75 12.06C14.75 13.5742 13.5142 14.81 12 14.81C10.4858 14.81 9.25 13.5742 9.25 12.06ZM12 10.81C11.3142 10.81 10.75 11.3742 10.75 12.06C10.75 12.7458 11.3142 13.31 12 13.31C12.6858 13.31 13.25 12.7458 13.25 12.06C13.25 11.3742 12.6858 10.81 12 10.81Z" fill="white"/>
</svg>
