<svg width="24" height="25" viewBox="0 0 24 25" fill="none" xmlns="http://www.w3.org/2000/svg">
<path fill-rule="evenodd" clip-rule="evenodd" d="M2 2.87C2 2.45578 2.33579 2.12 2.75 2.12H20.75C21.1642 2.12 21.5 2.45578 21.5 2.87V20.87C21.5 21.2842 21.1642 21.62 20.75 21.62H2.75C2.33579 21.62 2 21.2842 2 20.87V2.87ZM3.5 3.62V20.12H20V3.62H3.5ZM10.75 13.62C10.0596 13.62 9.5 14.1796 9.5 14.87C9.5 15.5604 10.0596 16.12 10.75 16.12C11.4404 16.12 12 15.5604 12 14.87C12 14.1796 11.4404 13.62 10.75 13.62ZM12 12.4199C11.625 12.2281 11.2001 12.12 10.75 12.12C9.23122 12.12 8 13.3512 8 14.87C8 16.3888 9.23122 17.62 10.75 17.62C12.268 17.62 13.4987 16.3901 13.5 14.8724C13.5 14.8716 13.5 14.8708 13.5 14.87L13.5 8.27138L15.334 9.49403C15.6786 9.7238 16.1443 9.63067 16.374 9.28602C16.6038 8.94137 16.5107 8.47572 16.166 8.24596L13.166 6.24596C12.9359 6.09253 12.64 6.07823 12.3961 6.20874C12.1522 6.33925 12 6.5934 12 6.87V12.4199Z" fill="white"/>
</svg>
