<svg width="24" height="25" viewBox="0 0 24 25" fill="none" xmlns="http://www.w3.org/2000/svg">
<path fill-rule="evenodd" clip-rule="evenodd" d="M1.25 3.12C1.25 2.70578 1.58579 2.37 2 2.37H16C16.4142 2.37 16.75 2.70578 16.75 3.12V21.12C16.75 21.5342 16.4142 21.87 16 21.87H2C1.58579 21.87 1.25 21.5342 1.25 21.12V3.12ZM2.75 3.87V20.37H15.25V3.87H2.75ZM19 5.37C19.4142 5.37 19.75 5.70578 19.75 6.12V18.12C19.75 18.5342 19.4142 18.87 19 18.87C18.5858 18.87 18.25 18.5342 18.25 18.12V6.12C18.25 5.70578 18.5858 5.37 19 5.37ZM22.75 8.11999C22.75 7.70578 22.4142 7.36999 22 7.36999C21.5858 7.36999 21.25 7.70578 21.25 8.11999V16.12C21.25 16.5342 21.5858 16.87 22 16.87C22.4142 16.87 22.75 16.5342 22.75 16.12V8.11999ZM8 13.87C7.30964 13.87 6.75 14.4296 6.75 15.12C6.75 15.8104 7.30964 16.37 8 16.37C8.69036 16.37 9.25 15.8104 9.25 15.12C9.25 14.4296 8.69036 13.87 8 13.87ZM9.25 12.6699C8.87497 12.4781 8.45011 12.37 8 12.37C6.48122 12.37 5.25 13.6012 5.25 15.12C5.25 16.6388 6.48122 17.87 8 17.87C9.51878 17.87 10.75 16.6388 10.75 15.12V8.52138L12.584 9.74403C12.9286 9.9738 13.3943 9.88067 13.624 9.53602C13.8538 9.19137 13.7607 8.72572 13.416 8.49596L10.416 6.49596C10.1859 6.34253 9.88997 6.32822 9.64611 6.45874C9.40224 6.58925 9.25 6.8434 9.25 7.12V12.6699Z" fill="white"/>
</svg>
