<svg width="24" height="25" viewBox="0 0 24 25" fill="none" xmlns="http://www.w3.org/2000/svg">
<path fill-rule="evenodd" clip-rule="evenodd" d="M21.75 2.12C21.75 1.89088 21.6453 1.67432 21.4657 1.53207C21.286 1.38981 21.0513 1.33746 20.8282 1.38994L8.82822 4.21347C8.48943 4.29318 8.25 4.59549 8.25 4.94353V10.12V16.1197C7.62325 15.649 6.8442 15.37 6 15.37C3.92893 15.37 2.25 17.0489 2.25 19.12C2.25 21.1911 3.92893 22.87 6 22.87C8.07026 22.87 9.74868 21.1924 9.75 19.1224C9.75 19.1216 9.75 19.1208 9.75 19.12V10.7056L21.1819 7.84761C21.5158 7.76414 21.75 7.46415 21.75 7.12V2.12ZM8.25 19.12C8.25 17.8774 7.24264 16.87 6 16.87C4.75736 16.87 3.75 17.8774 3.75 19.12C3.75 20.3626 4.75736 21.37 6 21.37C7.24264 21.37 8.25 20.3626 8.25 19.12ZM20.25 6.53442L9.75 9.15942V5.53754L20.25 3.06695V6.53442Z" fill="white"/>
</svg>
