<svg width="24" height="25" viewBox="0 0 24 25" fill="none" xmlns="http://www.w3.org/2000/svg">
<path fill-rule="evenodd" clip-rule="evenodd" d="M4.25 3.12C4.25 2.70578 4.58579 2.37 5 2.37H19C19.4142 2.37 19.75 2.70578 19.75 3.12V5.37H22C22.4142 5.37 22.75 5.70578 22.75 6.12V18.12C22.75 18.5342 22.4142 18.87 22 18.87H19.75V21.12C19.75 21.5342 19.4142 21.87 19 21.87H5C4.58579 21.87 4.25 21.5342 4.25 21.12V18.87H2C1.58579 18.87 1.25 18.5342 1.25 18.12V6.12C1.25 5.70578 1.58579 5.37 2 5.37H4.25V3.12ZM19.75 17.37H21.25V6.87H19.75V17.37ZM18.25 6.12V3.87H5.75V6.12V18.12V20.37H18.25V18.12V6.12ZM2.75 17.37H4.25V6.87H2.75V17.37ZM11 13.87C10.3096 13.87 9.75 14.4296 9.75 15.12C9.75 15.8104 10.3096 16.37 11 16.37C11.6904 16.37 12.25 15.8104 12.25 15.12C12.25 14.4296 11.6904 13.87 11 13.87ZM12.25 12.6699C11.875 12.4781 11.4501 12.37 11 12.37C9.48122 12.37 8.25 13.6012 8.25 15.12C8.25 16.6388 9.48122 17.87 11 17.87C12.518 17.87 13.7487 16.6401 13.75 15.1224C13.75 15.1216 13.75 15.1208 13.75 15.12L13.75 8.52138L15.584 9.74403C15.9286 9.9738 16.3943 9.88067 16.624 9.53602C16.8538 9.19137 16.7607 8.72572 16.416 8.49596L13.416 6.49596C13.1859 6.34253 12.89 6.32823 12.6461 6.45874C12.4022 6.58925 12.25 6.8434 12.25 7.12V12.6699Z" fill="white"/>
</svg>
