<svg width="24" height="25" viewBox="0 0 24 25" fill="none" xmlns="http://www.w3.org/2000/svg">
<path fill-rule="evenodd" clip-rule="evenodd" d="M2 2.37C1.58579 2.37 1.25 2.70578 1.25 3.12L1.25 21.12C1.25 21.5342 1.58579 21.87 2 21.87L22 21.87C22.4142 21.87 22.75 21.5342 22.75 21.12L22.75 3.12C22.75 2.70578 22.4142 2.37 22 2.37L2 2.37ZM2.75 20.37L2.75 3.87L21.25 3.87L21.25 20.37L2.75 20.37ZM7.75 8.12C7.75 7.70578 7.41421 7.37 7 7.37C6.58579 7.37 6.25 7.70578 6.25 8.12L6.25 16.12C6.25 16.5342 6.58579 16.87 7 16.87C7.41421 16.87 7.75 16.5342 7.75 16.12L7.75 8.12ZM12 10.37C12.4142 10.37 12.75 10.7058 12.75 11.12L12.75 16.12C12.75 16.5342 12.4142 16.87 12 16.87C11.5858 16.87 11.25 16.5342 11.25 16.12L11.25 11.12C11.25 10.7058 11.5858 10.37 12 10.37ZM17.75 9.12C17.75 8.70578 17.4142 8.37 17 8.37C16.5858 8.37 16.25 8.70578 16.25 9.12L16.25 16.12C16.25 16.5342 16.5858 16.87 17 16.87C17.4142 16.87 17.75 16.5342 17.75 16.12L17.75 9.12Z" fill="white"/>
</svg>
