<svg width="24" height="25" viewBox="0 0 24 25" fill="none" xmlns="http://www.w3.org/2000/svg">
<path fill-rule="evenodd" clip-rule="evenodd" d="M21.4657 1.53207C21.6453 1.67432 21.75 1.89088 21.75 2.12V6.12V16.12C21.75 18.1911 20.0711 19.87 18 19.87C15.9289 19.87 14.25 18.1911 14.25 16.12C14.25 14.0489 15.9289 12.37 18 12.37C18.8442 12.37 19.6233 12.649 20.25 13.1197V7.08058L9.75 9.70558V19.12C9.75 21.1911 8.07107 22.87 6 22.87C3.92893 22.87 2.25 21.1911 2.25 19.12C2.25 17.0489 3.92893 15.37 6 15.37C6.8442 15.37 7.62325 15.649 8.25 16.1197V9.12V4.94353C8.25 4.59549 8.48943 4.29318 8.82822 4.21347L20.8282 1.38994C21.0513 1.33746 21.286 1.38981 21.4657 1.53207ZM20.25 16.12C20.25 14.8774 19.2426 13.87 18 13.87C16.7574 13.87 15.75 14.8774 15.75 16.12C15.75 17.3626 16.7574 18.37 18 18.37C19.2426 18.37 20.25 17.3626 20.25 16.12ZM6 16.87C7.24264 16.87 8.25 17.8774 8.25 19.12C8.25 20.3626 7.24264 21.37 6 21.37C4.75736 21.37 3.75 20.3626 3.75 19.12C3.75 17.8774 4.75736 16.87 6 16.87ZM9.75 8.15942L20.25 5.53442V3.06695L9.75 5.53754V8.15942Z" fill="white"/>
</svg>
