<svg width="24" height="25" viewBox="0 0 24 25" fill="none" xmlns="http://www.w3.org/2000/svg">
<path fill-rule="evenodd" clip-rule="evenodd" d="M20.75 1.12C20.75 0.705782 20.4142 0.369995 20 0.369995C19.5858 0.369995 19.25 0.705782 19.25 1.12V3.37H17C16.5858 3.37 16.25 3.70578 16.25 4.12C16.25 4.53421 16.5858 4.87 17 4.87H19.25V7.12C19.25 7.53421 19.5858 7.87 20 7.87C20.4142 7.87 20.75 7.53421 20.75 7.12V4.87H23C23.4142 4.87 23.75 4.53421 23.75 4.12C23.75 3.70578 23.4142 3.37 23 3.37H20.75V1.12ZM2 3.37C1.58579 3.37 1.25 3.70578 1.25 4.12V22.12C1.25 22.5342 1.58579 22.87 2 22.87H20C20.4142 22.87 20.75 22.5342 20.75 22.12V10.62C20.75 10.2058 20.4142 9.87 20 9.87C19.5858 9.87 19.25 10.2058 19.25 10.62V21.37H2.75V4.87H13.5C13.9142 4.87 14.25 4.53421 14.25 4.12C14.25 3.70578 13.9142 3.37 13.5 3.37H2ZM8.75 16.12C8.75 15.4296 9.30964 14.87 10 14.87C10.6904 14.87 11.25 15.4296 11.25 16.12C11.25 16.8104 10.6904 17.37 10 17.37C9.30964 17.37 8.75 16.8104 8.75 16.12ZM10 13.37C10.4501 13.37 10.875 13.4781 11.25 13.6699V8.12C11.25 7.8434 11.4022 7.58925 11.6461 7.45874C11.89 7.32823 12.1859 7.34253 12.416 7.49596L15.416 9.49596C15.7607 9.72572 15.8538 10.1914 15.624 10.536C15.3943 10.8807 14.9286 10.9738 14.584 10.744L12.75 9.52138V16.12C12.75 17.6388 11.5188 18.87 10 18.87C8.48122 18.87 7.25 17.6388 7.25 16.12C7.25 14.6012 8.48122 13.37 10 13.37Z" fill="white"/>
</svg>
