<svg width="24" height="25" viewBox="0 0 24 25" fill="none" xmlns="http://www.w3.org/2000/svg">
<path fill-rule="evenodd" clip-rule="evenodd" d="M2.62356 2.94141C2.85479 2.80721 3.13998 2.80626 3.3721 2.93891L6.5 4.72627L9.6279 2.93891C9.85847 2.80715 10.1415 2.80715 10.3721 2.93891L13.5 4.72627L16.6279 2.93891C16.86 2.80626 17.1452 2.80721 17.3764 2.94141C17.6077 3.0756 17.75 3.32274 17.75 3.59009V11.8401H21C21.4142 11.8401 21.75 12.1759 21.75 12.5901V21.5901C21.75 22.0043 21.4142 22.3401 21 22.3401H19H17H3C2.58579 22.3401 2.25 22.0043 2.25 21.5901V3.59009C2.25 3.32274 2.39232 3.0756 2.62356 2.94141ZM17.75 20.8401H19H20.25V13.3401H17.75V20.8401ZM16.25 20.8401H3.75V4.88247L6.1279 6.24127C6.35847 6.37303 6.64153 6.37303 6.8721 6.24127L10 4.4539L13.1279 6.24127C13.3585 6.37303 13.6415 6.37303 13.8721 6.24127L16.25 4.88247V12.5901V20.8401ZM6.25 9.59009C6.25 9.17587 6.58579 8.84009 7 8.84009H11C11.4142 8.84009 11.75 9.17587 11.75 9.59009C11.75 10.0043 11.4142 10.3401 11 10.3401H7C6.58579 10.3401 6.25 10.0043 6.25 9.59009ZM7 12.8401C6.58579 12.8401 6.25 13.1759 6.25 13.5901C6.25 14.0043 6.58579 14.3401 7 14.3401H13C13.4142 14.3401 13.75 14.0043 13.75 13.5901C13.75 13.1759 13.4142 12.8401 13 12.8401H7ZM6.25 17.5901C6.25 17.1759 6.58579 16.8401 7 16.8401H13C13.4142 16.8401 13.75 17.1759 13.75 17.5901C13.75 18.0043 13.4142 18.3401 13 18.3401H7C6.58579 18.3401 6.25 18.0043 6.25 17.5901Z" fill="white"/>
</svg>
