<svg width="24" height="25" viewBox="0 0 24 25" fill="none" xmlns="http://www.w3.org/2000/svg">
<path fill-rule="evenodd" clip-rule="evenodd" d="M3 3.08008C2.58579 3.08008 2.25 3.41586 2.25 3.83008V21.8301C2.25 22.2443 2.58579 22.5801 3 22.5801H17C17.1989 22.5801 17.3897 22.5011 17.5303 22.3604L21.5303 18.3604C21.671 18.2198 21.75 18.029 21.75 17.8301V3.83008C21.75 3.41586 21.4142 3.08008 21 3.08008H3ZM3.75 21.0801V4.58008H20.25V16.08H16C15.5858 16.08 15.25 16.4158 15.25 16.83V21.0801H3.75ZM16.75 21.0194L20.1894 17.58H16.75V21.0194Z" fill="white"/>
</svg>
