<svg width="24" height="25" viewBox="0 0 24 25" fill="none" xmlns="http://www.w3.org/2000/svg">
<path fill-rule="evenodd" clip-rule="evenodd" d="M8.75 1.83008C8.75 1.41586 8.41421 1.08008 8 1.08008C7.58579 1.08008 7.25 1.41586 7.25 1.83008V3.08008H3C2.58579 3.08008 2.25 3.41586 2.25 3.83008V21.8301C2.25 22.2443 2.58579 22.5801 3 22.5801H21C21.4142 22.5801 21.75 22.2443 21.75 21.8301V3.83008C21.75 3.41586 21.4142 3.08008 21 3.08008H16.75V1.83008C16.75 1.41586 16.4142 1.08008 16 1.08008C15.5858 1.08008 15.25 1.41586 15.25 1.83008V3.08008H12.75V1.83008C12.75 1.41586 12.4142 1.08008 12 1.08008C11.5858 1.08008 11.25 1.41586 11.25 1.83008V3.08008H8.75V1.83008ZM15.25 4.58008H12.75V5.83008C12.75 6.24429 12.4142 6.58008 12 6.58008C11.5858 6.58008 11.25 6.24429 11.25 5.83008V4.58008H8.75V5.83008C8.75 6.24429 8.41421 6.58008 8 6.58008C7.58579 6.58008 7.25 6.24429 7.25 5.83008V4.58008H3.75V21.0801H20.25V4.58008H16.75V5.83008C16.75 6.24429 16.4142 6.58008 16 6.58008C15.5858 6.58008 15.25 6.24429 15.25 5.83008V4.58008Z" fill="white"/>
</svg>
