<svg width="24" height="25" viewBox="0 0 24 25" fill="none" xmlns="http://www.w3.org/2000/svg">
<path fill-rule="evenodd" clip-rule="evenodd" d="M4.25 3.83008C4.25 3.41586 4.58579 3.08008 5 3.08008H19C19.4142 3.08008 19.75 3.41586 19.75 3.83008V21.8301C19.75 22.2443 19.4142 22.5801 19 22.5801H5C4.58579 22.5801 4.25 22.2443 4.25 21.8301V17.5801H3C2.58579 17.5801 2.25 17.2443 2.25 16.8301C2.25 16.4159 2.58579 16.0801 3 16.0801H4.25V13.5801H3C2.58579 13.5801 2.25 13.2443 2.25 12.8301C2.25 12.4159 2.58579 12.0801 3 12.0801H4.25V9.58008H3C2.58579 9.58008 2.25 9.24429 2.25 8.83008C2.25 8.41586 2.58579 8.08008 3 8.08008H4.25V3.83008ZM5.75 9.58008H7C7.41421 9.58008 7.75 9.24429 7.75 8.83008C7.75 8.41586 7.41421 8.08008 7 8.08008H5.75V4.58008H18.25V21.0801H5.75V17.5801H7C7.41421 17.5801 7.75 17.2443 7.75 16.8301C7.75 16.4159 7.41421 16.0801 7 16.0801H5.75V13.5801H7C7.41421 13.5801 7.75 13.2443 7.75 12.8301C7.75 12.4159 7.41421 12.0801 7 12.0801H5.75V9.58008ZM15 7.08008C15.4142 7.08008 15.75 7.41586 15.75 7.83008V11.8301C15.75 12.2443 15.4142 12.5801 15 12.5801C14.5858 12.5801 14.25 12.2443 14.25 11.8301V7.83008C14.25 7.41586 14.5858 7.08008 15 7.08008Z" fill="white"/>
</svg>
