<svg width="24" height="25" viewBox="0 0 24 25" fill="none" xmlns="http://www.w3.org/2000/svg">
<path fill-rule="evenodd" clip-rule="evenodd" d="M2.25 3.83008C2.25 3.41586 2.58579 3.08008 3 3.08008H21C21.4142 3.08008 21.75 3.41586 21.75 3.83008V17.8301C21.75 18.029 21.671 18.2198 21.5303 18.3604L17.5303 22.3604C17.3897 22.5011 17.1989 22.5801 17 22.5801H3C2.58579 22.5801 2.25 22.2443 2.25 21.8301V3.83008ZM3.75 4.58008V21.0801H15.25V16.83C15.25 16.4158 15.5858 16.08 16 16.08H20.25V4.58008H3.75ZM20.1894 17.58H16.75V21.0194L20.1894 17.58ZM6.25 7.83008C6.25 7.41586 6.58579 7.08008 7 7.08008H15C15.4142 7.08008 15.75 7.41586 15.75 7.83008C15.75 8.24429 15.4142 8.58008 15 8.58008H7C6.58579 8.58008 6.25 8.24429 6.25 7.83008ZM7 11.0801C6.58579 11.0801 6.25 11.4159 6.25 11.8301C6.25 12.2443 6.58579 12.5801 7 12.5801H13C13.4142 12.5801 13.75 12.2443 13.75 11.8301C13.75 11.4159 13.4142 11.0801 13 11.0801H7ZM6.25 15.8301C6.25 15.4159 6.58579 15.0801 7 15.0801H9C9.41421 15.0801 9.75 15.4159 9.75 15.8301C9.75 16.2443 9.41421 16.5801 9 16.5801H7C6.58579 16.5801 6.25 16.2443 6.25 15.8301Z" fill="white"/>
</svg>
