<svg width="24" height="25" viewBox="0 0 24 25" fill="none" xmlns="http://www.w3.org/2000/svg">
<circle cx="12" cy="12.3594" r="9.75" stroke="white" stroke-width="1.5"/>
<path d="M7.56206 15.8194C7.56206 16.1914 7.85006 16.4194 8.18606 16.4194C8.43806 16.4194 8.65406 16.2994 8.78606 16.0474L10.7661 12.4594C11.0781 11.8834 11.3061 11.2354 11.3061 10.5874C11.3061 8.97937 10.1541 8.06737 8.70206 8.06737C7.25006 8.06737 6.09806 8.97937 6.09806 10.6474C6.09806 12.1474 7.16606 13.0594 8.42606 13.0594C8.67806 13.0594 8.91806 13.0114 9.03806 12.9514L9.06206 12.9754L7.65806 15.4354C7.58606 15.5674 7.56206 15.6994 7.56206 15.8194ZM8.70206 11.8594C7.93406 11.8594 7.45406 11.3314 7.45406 10.5634C7.45406 9.79537 7.93406 9.26737 8.70206 9.26737C9.47006 9.26737 9.95006 9.79537 9.95006 10.5634C9.95006 11.3314 9.47006 11.8594 8.70206 11.8594ZM14.148 15.8194C14.148 16.1914 14.436 16.4194 14.772 16.4194C15.024 16.4194 15.24 16.2994 15.372 16.0474L17.352 12.4594C17.664 11.8834 17.892 11.2354 17.892 10.5874C17.892 8.97937 16.74 8.06737 15.288 8.06737C13.836 8.06737 12.684 8.97937 12.684 10.6474C12.684 12.1474 13.752 13.0594 15.012 13.0594C15.264 13.0594 15.504 13.0114 15.624 12.9514L15.648 12.9754L14.244 15.4354C14.172 15.5674 14.148 15.6994 14.148 15.8194ZM15.288 11.8594C14.52 11.8594 14.04 11.3314 14.04 10.5634C14.04 9.79537 14.52 9.26737 15.288 9.26737C16.056 9.26737 16.536 9.79537 16.536 10.5634C16.536 11.3314 16.056 11.8594 15.288 11.8594Z" fill="white"/>
</svg>
