<svg width="24" height="25" viewBox="0 0 24 25" fill="none" xmlns="http://www.w3.org/2000/svg">
<path fill-rule="evenodd" clip-rule="evenodd" d="M4 2.84009C4.41421 2.84009 4.75 3.17587 4.75 3.59009V7.84009H19.25V3.59009C19.25 3.17587 19.5858 2.84009 20 2.84009C20.4142 2.84009 20.75 3.17587 20.75 3.59009V8.59009C20.75 9.0043 20.4142 9.34009 20 9.34009H4C3.58579 9.34009 3.25 9.0043 3.25 8.59009V3.59009C3.25 3.17587 3.58579 2.84009 4 2.84009ZM3.25 16.5901C3.25 16.1759 3.58579 15.8401 4 15.8401H20C20.4142 15.8401 20.75 16.1759 20.75 16.5901V21.5901C20.75 22.0043 20.4142 22.3401 20 22.3401C19.5858 22.3401 19.25 22.0043 19.25 21.5901V17.3401H4.75V21.5901C4.75 22.0043 4.41421 22.3401 4 22.3401C3.58579 22.3401 3.25 22.0043 3.25 21.5901V16.5901ZM20 13.5901C20.5523 13.5901 21 13.1424 21 12.5901C21 12.0378 20.5523 11.5901 20 11.5901C19.4477 11.5901 19 12.0378 19 12.5901C19 13.1424 19.4477 13.5901 20 13.5901ZM17 12.5901C17 13.1424 16.5523 13.5901 16 13.5901C15.4477 13.5901 15 13.1424 15 12.5901C15 12.0378 15.4477 11.5901 16 11.5901C16.5523 11.5901 17 12.0378 17 12.5901ZM12 13.5901C12.5523 13.5901 13 13.1424 13 12.5901C13 12.0378 12.5523 11.5901 12 11.5901C11.4477 11.5901 11 12.0378 11 12.5901C11 13.1424 11.4477 13.5901 12 13.5901ZM9 12.5901C9 13.1424 8.55228 13.5901 8 13.5901C7.44772 13.5901 7 13.1424 7 12.5901C7 12.0378 7.44772 11.5901 8 11.5901C8.55228 11.5901 9 12.0378 9 12.5901ZM4 13.5901C4.55228 13.5901 5 13.1424 5 12.5901C5 12.0378 4.55228 11.5901 4 11.5901C3.44772 11.5901 3 12.0378 3 12.5901C3 13.1424 3.44772 13.5901 4 13.5901Z" fill="white"/>
</svg>
