<svg width="24" height="25" viewBox="0 0 24 25" fill="none" xmlns="http://www.w3.org/2000/svg">
<path fill-rule="evenodd" clip-rule="evenodd" d="M5 1.37012C4.58579 1.37012 4.25 1.7059 4.25 2.12012V10.1201V13.1201C4.25 13.3836 4.38822 13.6277 4.61413 13.7632L9.17626 16.5005L8.2602 21.9968C8.22396 22.2143 8.28523 22.4367 8.42774 22.6049C8.57024 22.7731 8.77954 22.8701 9 22.8701H15C15.2205 22.8701 15.4298 22.7731 15.5723 22.6049C15.7148 22.4367 15.776 22.2143 15.7398 21.9968L14.8237 16.5005L19.3859 13.7632C19.6118 13.6277 19.75 13.3836 19.75 13.1201V10.1201V2.12012C19.75 1.7059 19.4142 1.37012 19 1.37012H13H9H5ZM18.25 9.37012V2.87012H13.75V4.12012C13.75 4.53433 13.4142 4.87012 13 4.87012C12.5858 4.87012 12.25 4.53433 12.25 4.12012V2.87012H9.75V6.12012C9.75 6.53433 9.41421 6.87012 9 6.87012C8.58579 6.87012 8.25 6.53433 8.25 6.12012V2.87012H5.75V9.37012H18.25ZM5.75 10.8701H18.25V12.6955L13.6141 15.477C13.3499 15.6355 13.2096 15.9395 13.2602 16.2434L14.1147 21.3701H9.88534L10.7398 16.2434C10.7904 15.9395 10.6501 15.6355 10.3859 15.477L5.75 12.6955V10.8701Z" fill="white"/>
</svg>
