<svg width="24" height="25" viewBox="0 0 24 25" fill="none" xmlns="http://www.w3.org/2000/svg">
<path fill-rule="evenodd" clip-rule="evenodd" d="M4.25 2.12012C4.25 1.7059 4.58579 1.37012 5 1.37012H17C17.4142 1.37012 17.75 1.7059 17.75 2.12012V4.37012H21C21.4142 4.37012 21.75 4.7059 21.75 5.12012V12.1201C21.75 12.5343 21.4142 12.8701 21 12.8701H11.75V15.3701H13C13.4142 15.3701 13.75 15.7059 13.75 16.1201V22.1201C13.75 22.5343 13.4142 22.8701 13 22.8701H9C8.58579 22.8701 8.25 22.5343 8.25 22.1201V16.1201C8.25 15.7059 8.58579 15.3701 9 15.3701H10.25V12.1201C10.25 11.7059 10.5858 11.3701 11 11.3701H20.25V5.87012H17.75V8.12012C17.75 8.53433 17.4142 8.87012 17 8.87012H5C4.58579 8.87012 4.25 8.53433 4.25 8.12012V2.12012ZM16.25 5.12012V2.87012H5.75V7.37012H16.25V5.12012ZM11 16.8701L9.75 16.8701V21.3701H12.25V16.8701L11 16.8701Z" fill="white"/>
</svg>
