<svg width="24" height="25" viewBox="0 0 24 25" fill="none" xmlns="http://www.w3.org/2000/svg">
<path fill-rule="evenodd" clip-rule="evenodd" d="M11.4699 3.04438C13.3248 1.18939 16.3324 1.18939 18.1874 3.04438C20.0424 4.89937 20.0424 7.9069 18.1874 9.76189L16.4446 11.5047C16.1517 11.7976 15.6768 11.7976 15.3839 11.5047C15.091 11.2118 15.091 10.7369 15.3839 10.444L17.1267 8.70123C18.3959 7.43203 18.3959 5.37424 17.1267 4.10504C15.8575 2.83584 13.7997 2.83584 12.5305 4.10504L10.7877 5.84783C10.4948 6.14073 10.02 6.14073 9.72706 5.84783C9.43417 5.55494 9.43417 5.08007 9.72706 4.78717L11.4699 3.04438ZM21.7229 10.8226C22.0158 11.1154 22.0158 11.5903 21.7229 11.8832L19.248 14.3581C18.9551 14.651 18.4802 14.651 18.1873 14.3581C17.8944 14.0652 17.8944 13.5904 18.1873 13.2975L20.6622 10.8226C20.9551 10.5297 21.43 10.5297 21.7229 10.8226ZM15.3589 5.87281C15.6518 6.1657 15.6518 6.64057 15.3589 6.93347L13.6161 8.67626C13.3233 8.96915 12.8484 8.96915 12.5555 8.67626C12.2626 8.38337 12.2626 7.90849 12.5555 7.6156L14.2983 5.87281C14.5912 5.57991 15.0661 5.57991 15.3589 5.87281ZM2.46967 2.52966C2.76256 2.23676 3.23744 2.23676 3.53033 2.52966L8.28778 7.28711L11.1162 10.1155L13.9446 12.944L16.7731 15.7724L21.5303 20.5297C21.8232 20.8225 21.8232 21.2974 21.5303 21.5903C21.2374 21.8832 20.7626 21.8832 20.4697 21.5903L16.2427 17.3634L13.9447 19.6614C11.3087 22.2974 7.03483 22.2974 4.39879 19.6614C1.76275 17.0253 1.76275 12.7515 4.39879 10.1154L6.69679 7.81744L2.46967 3.59032C2.17678 3.29742 2.17678 2.82255 2.46967 2.52966ZM7.75745 8.8781L5.45945 11.1761C3.4092 13.2264 3.4092 16.5505 5.45945 18.6007C7.5097 20.651 10.8338 20.651 12.8841 18.6007L15.1821 16.3027L13.4143 14.535L11.1163 16.833C10.0424 17.9069 8.30116 17.9069 7.22722 16.833C6.15327 15.759 6.15327 14.0178 7.22722 12.9439L9.52522 10.6459L7.75745 8.8781ZM10.5859 11.7065L8.28788 14.0045C7.79972 14.4927 7.79972 15.2841 8.28788 15.7723C8.77603 16.2605 9.56749 16.2605 10.0556 15.7723L12.3536 13.4743L10.5859 11.7065Z" fill="white"/>
</svg>
