<svg width="24" height="25" viewBox="0 0 24 25" fill="none" xmlns="http://www.w3.org/2000/svg">
<g clip-path="url(#clip0_9_11215)">
<path fill-rule="evenodd" clip-rule="evenodd" d="M4.15519 2.38677C3.90643 2.33346 3.64761 2.40989 3.46772 2.58979C3.28782 2.76968 3.21139 3.0285 3.26469 3.27726L6.26469 17.2773C6.33053 17.5845 6.58092 17.8181 6.89198 17.8626L12.4071 18.6504L11.4677 19.5898C11.1748 19.8827 11.1748 20.3576 11.4677 20.6504L13.4677 22.6504C13.7606 22.9433 14.2355 22.9433 14.5284 22.6504L23.0284 14.1504C23.3213 13.8576 23.3213 13.3827 23.0284 13.0898L21.0284 11.0898C20.7355 10.7969 20.2606 10.7969 19.9677 11.0898L19.5284 11.5291L18.7405 6.01405C18.6961 5.70299 18.4624 5.4526 18.1552 5.38677L4.15519 2.38677ZM18.2026 12.855L17.3295 6.74389L6.32435 4.38564L10.6579 8.71875C11.0546 8.4967 11.512 8.37012 11.999 8.37012C13.5178 8.37012 14.749 9.60133 14.749 11.1201C14.749 12.6389 13.5178 13.8701 11.999 13.8701C10.4802 13.8701 9.24902 12.6389 9.24902 11.1201C9.24902 10.6334 9.37549 10.1761 9.59735 9.77953L5.2635 5.4461L7.62182 16.4516L13.7329 17.3246L18.2026 12.855ZM14.5284 18.6504L13.0587 20.1201L13.998 21.0595L21.4374 13.6201L20.498 12.6808L19.5284 13.6504L14.5284 18.6504ZM11.999 9.87012C11.3087 9.87012 10.749 10.4298 10.749 11.1201C10.749 11.8105 11.3087 12.3701 11.999 12.3701C12.6894 12.3701 13.249 11.8105 13.249 11.1201C13.249 10.4298 12.6894 9.87012 11.999 9.87012Z" fill="white"/>
</g>
<defs>
<clipPath id="clip0_9_11215">
<rect width="24" height="24" fill="white" transform="translate(0 0.120117)"/>
</clipPath>
</defs>
</svg>
