<svg width="24" height="25" viewBox="0 0 24 25" fill="none" xmlns="http://www.w3.org/2000/svg">
<g clip-path="url(#clip0_9_11214)">
<path fill-rule="evenodd" clip-rule="evenodd" d="M12.6387 0.727044C12.5022 0.505234 12.2604 0.370117 12 0.370117C11.7396 0.370117 11.4978 0.505234 11.3613 0.727044L3.36126 13.727C3.19534 13.9967 3.21658 14.3414 3.41435 14.5886L6.43953 18.3701H6C5.58579 18.3701 5.25 18.7059 5.25 19.1201V22.1201C5.25 22.5343 5.58579 22.8701 6 22.8701H18C18.4142 22.8701 18.75 22.5343 18.75 22.1201V19.1201C18.75 18.7059 18.4142 18.3701 18 18.3701H17.5605L20.5857 14.5886C20.7834 14.3414 20.8047 13.9967 20.6387 13.727L12.6387 0.727044ZM15.9931 19.8701H16.0059H17.25V21.3701H6.75V19.8701H7.99408H8.00688H15.9931ZM15.6395 18.3701L19.0847 14.0637L12.75 3.7699V9.47363C13.9043 9.8001 14.75 10.8613 14.75 12.1201C14.75 13.6389 13.5188 14.8701 12 14.8701C10.4812 14.8701 9.25 13.6389 9.25 12.1201C9.25 10.8613 10.0958 9.8001 11.25 9.47363V3.7699L4.91535 14.0637L8.36047 18.3701H15.6395ZM12 10.8701C11.3096 10.8701 10.75 11.4298 10.75 12.1201C10.75 12.8105 11.3096 13.3701 12 13.3701C12.6904 13.3701 13.25 12.8105 13.25 12.1201C13.25 11.4298 12.6904 10.8701 12 10.8701Z" fill="white"/>
</g>
<defs>
<clipPath id="clip0_9_11214">
<rect width="24" height="24" fill="white" transform="translate(0 0.120117)"/>
</clipPath>
</defs>
</svg>
