<svg width="24" height="25" viewBox="0 0 24 25" fill="none" xmlns="http://www.w3.org/2000/svg">
<path fill-rule="evenodd" clip-rule="evenodd" d="M17.3974 4.25326C17.7486 4.47279 17.8554 4.93551 17.6359 5.28676L7.63585 21.2868C7.41632 21.638 6.95361 21.7448 6.60236 21.5253C6.2511 21.3057 6.14432 20.843 6.36386 20.4918L16.3639 4.49176C16.5834 4.14051 17.0461 4.03373 17.3974 4.25326ZM5.99976 5.63916C4.75712 5.63916 3.74976 6.64652 3.74976 7.88916C3.74976 9.1318 4.75712 10.1392 5.99976 10.1392C7.2424 10.1392 8.24976 9.1318 8.24976 7.88916C8.24976 6.64652 7.2424 5.63916 5.99976 5.63916ZM2.24976 7.88916C2.24976 5.81809 3.92869 4.13916 5.99976 4.13916C8.07082 4.13916 9.74976 5.81809 9.74976 7.88916C9.74976 9.96023 8.07082 11.6392 5.99976 11.6392C3.92869 11.6392 2.24976 9.96023 2.24976 7.88916ZM15.7498 17.8892C15.7498 16.6465 16.7571 15.6392 17.9998 15.6392C19.2424 15.6392 20.2498 16.6465 20.2498 17.8892C20.2498 19.1318 19.2424 20.1392 17.9998 20.1392C16.7571 20.1392 15.7498 19.1318 15.7498 17.8892ZM17.9998 14.1392C15.9287 14.1392 14.2498 15.8181 14.2498 17.8892C14.2498 19.9602 15.9287 21.6392 17.9998 21.6392C20.0708 21.6392 21.7498 19.9602 21.7498 17.8892C21.7498 15.8181 20.0708 14.1392 17.9998 14.1392Z" fill="white"/>
</svg>
