<svg width="24" height="25" viewBox="0 0 24 25" fill="none" xmlns="http://www.w3.org/2000/svg">
<path fill-rule="evenodd" clip-rule="evenodd" d="M3.75 12.8892C3.75 8.33281 7.44365 4.63916 12 4.63916C16.5563 4.63916 20.25 8.33281 20.25 12.8892C20.25 17.4455 16.5563 21.1392 12 21.1392C7.44365 21.1392 3.75 17.4455 3.75 12.8892ZM12 3.13916C6.61522 3.13916 2.25 7.50438 2.25 12.8892C2.25 18.2739 6.61522 22.6392 12 22.6392C17.3848 22.6392 21.75 18.2739 21.75 12.8892C21.75 7.50438 17.3848 3.13916 12 3.13916ZM15.6431 8.27503C15.8562 7.91985 15.7411 7.45915 15.3859 7.24604C15.0307 7.03293 14.57 7.1481 14.3569 7.50329L8.35688 17.5033C8.14377 17.8585 8.25894 18.3192 8.61413 18.5323C8.96931 18.7454 9.43001 18.6302 9.64312 18.275L15.6431 8.27503ZM8.5 9.63916C8.08579 9.63916 7.75 9.97495 7.75 10.3892C7.75 10.8034 8.08579 11.1392 8.5 11.1392C8.91421 11.1392 9.25 10.8034 9.25 10.3892C9.25 9.97495 8.91421 9.63916 8.5 9.63916ZM6.25 10.3892C6.25 9.14652 7.25736 8.13916 8.5 8.13916C9.74264 8.13916 10.75 9.14652 10.75 10.3892C10.75 11.6318 9.74264 12.6392 8.5 12.6392C7.25736 12.6392 6.25 11.6318 6.25 10.3892ZM14.75 15.3892C14.75 14.9749 15.0858 14.6392 15.5 14.6392C15.9142 14.6392 16.25 14.9749 16.25 15.3892C16.25 15.8034 15.9142 16.1392 15.5 16.1392C15.0858 16.1392 14.75 15.8034 14.75 15.3892ZM15.5 13.1392C14.2574 13.1392 13.25 14.1465 13.25 15.3892C13.25 16.6318 14.2574 17.6392 15.5 17.6392C16.7426 17.6392 17.75 16.6318 17.75 15.3892C17.75 14.1465 16.7426 13.1392 15.5 13.1392Z" fill="white"/>
</svg>
