<svg width="24" height="25" viewBox="0 0 24 25" fill="none" xmlns="http://www.w3.org/2000/svg">
<path fill-rule="evenodd" clip-rule="evenodd" d="M3.25 3.59009C3.25 3.17587 3.58579 2.84009 4 2.84009H20C20.4142 2.84009 20.75 3.17587 20.75 3.59009C20.75 4.0043 20.4142 4.34009 20 4.34009H4C3.58579 4.34009 3.25 4.0043 3.25 3.59009ZM11.4697 7.05976C11.7626 6.76686 12.2374 6.76686 12.5303 7.05976L15.0303 9.55976C15.3232 9.85265 15.3232 10.3275 15.0303 10.6204C14.7374 10.9133 14.2626 10.9133 13.9697 10.6204L12.75 9.40075V15.7794L13.9697 14.5598C14.2626 14.2669 14.7374 14.2669 15.0303 14.5598C15.3232 14.8527 15.3232 15.3275 15.0303 15.6204L12.5303 18.1204C12.2374 18.4133 11.7626 18.4133 11.4697 18.1204L8.96967 15.6204C8.67678 15.3275 8.67678 14.8527 8.96967 14.5598C9.26256 14.2669 9.73744 14.2669 10.0303 14.5598L11.25 15.7794V9.40075L10.0303 10.6204C9.73744 10.9133 9.26256 10.9133 8.96967 10.6204C8.67678 10.3275 8.67678 9.85265 8.96967 9.55976L11.4697 7.05976ZM4 20.8401C3.58579 20.8401 3.25 21.1759 3.25 21.5901C3.25 22.0043 3.58579 22.3401 4 22.3401H20C20.4142 22.3401 20.75 22.0043 20.75 21.5901C20.75 21.1759 20.4142 20.8401 20 20.8401H4Z" fill="white"/>
</svg>
