<svg width="24" height="25" viewBox="0 0 24 25" fill="none" xmlns="http://www.w3.org/2000/svg">
<path fill-rule="evenodd" clip-rule="evenodd" d="M7.77627 6.97306C9.21391 6.52371 10.639 6.31 12 6.31C13.361 6.31 14.7861 6.52371 16.2238 6.97306C18.7104 7.7503 21.2322 9.23155 23.5303 11.5298C23.7896 11.789 23.8234 12.1977 23.6103 12.496L21.1103 15.9959C20.88 16.3184 20.4385 16.406 20.1025 16.196L16.1025 13.696C15.9041 13.572 15.7749 13.3625 15.7532 13.1295L15.3004 8.26537C14.1674 7.95564 13.0567 7.81 12 7.81C10.9434 7.81 9.83266 7.95564 8.69959 8.26537L8.24678 13.1295C8.22509 13.3625 8.09592 13.572 7.89751 13.696L3.89751 16.196C3.56147 16.406 3.12004 16.3184 2.88971 15.9959L0.389711 12.4959C0.176611 12.1976 0.210433 11.7889 0.469679 11.5297C2.76783 9.23152 5.28957 7.75029 7.77627 6.97306ZM7.14418 8.79094C5.40574 9.49227 3.64823 10.5903 1.98556 12.1494L3.70046 14.5503L6.78765 12.6208L7.14418 8.79094ZM16.8558 8.79095L17.2124 12.6208L20.2996 14.5503L22.0145 12.1495C20.3518 10.5903 18.5943 9.49229 16.8558 8.79095Z" fill="white"/>
</svg>
