<svg width="24" height="25" viewBox="0 0 24 25" fill="none" xmlns="http://www.w3.org/2000/svg">
<path fill-rule="evenodd" clip-rule="evenodd" d="M11.9995 4.31C10.6385 4.31 9.21342 4.52371 7.77578 4.97306C5.28909 5.75029 2.76734 7.23152 0.46919 9.52968C0.209945 9.78893 0.176123 10.1976 0.389222 10.4959L2.88922 13.9959C3.11955 14.3184 3.56099 14.406 3.89702 14.196L7.89702 11.696C8.09543 11.572 8.22461 11.3625 8.24629 11.1295L8.6991 6.26537C9.83217 5.95564 10.9429 5.81 11.9995 5.81C13.0562 5.81 14.1669 5.95564 15.2999 6.26537L15.7528 11.1295C15.7744 11.3625 15.9036 11.572 16.102 11.696L20.102 14.196C20.4381 14.406 20.8795 14.3184 21.1098 13.9959L23.6098 10.496C23.8229 10.1977 23.7891 9.78902 23.5299 9.52977C21.2317 7.23155 18.71 5.7503 16.2233 4.97306C14.7856 4.52371 13.3605 4.31 11.9995 4.31ZM1.98508 10.1494C3.64774 8.59029 5.40525 7.49227 7.14369 6.79094L6.78717 10.6208L3.69997 12.5503L1.98508 10.1494ZM17.2119 10.6208L16.8554 6.79095C18.5938 7.49229 20.3513 8.59033 22.014 10.1495L20.2991 12.5503L17.2119 10.6208ZM12.75 12.06C12.75 11.6458 12.4142 11.31 12 11.31C11.5858 11.31 11.25 11.6458 11.25 12.06V18.2493L9.53032 16.5297C9.23743 16.2368 8.76255 16.2368 8.46966 16.5297C8.17677 16.8226 8.17677 17.2974 8.46966 17.5903L11.4697 20.5903C11.7626 20.8832 12.2374 20.8832 12.5303 20.5903L15.5303 17.5903C15.8232 17.2974 15.8232 16.8226 15.5303 16.5297C15.2374 16.2368 14.7626 16.2368 14.4697 16.5297L12.75 18.2493V12.06Z" fill="white"/>
</svg>
