<svg width="24" height="25" viewBox="0 0 24 25" fill="none" xmlns="http://www.w3.org/2000/svg">
<path fill-rule="evenodd" clip-rule="evenodd" d="M2.25 3.06006C2.25 2.64585 2.58579 2.31006 3 2.31006H7.5C7.84415 2.31006 8.14414 2.54428 8.22761 2.87816L9.72761 8.87816C9.79731 9.15698 9.70155 9.45112 9.48105 9.63546L5.94602 12.5909C7.24933 14.9502 9.10981 16.8107 11.4692 18.114L14.4246 14.579C14.6089 14.3585 14.9031 14.2627 15.1819 14.3325L21.1819 15.8325C21.5158 15.9159 21.75 16.2159 21.75 16.5601V16.5688V16.5776V16.5864V16.5952V16.604V16.6128V16.6216V16.6304V16.6392V16.6479V16.6567V16.6655V16.6743V16.6831V16.6919V16.7007V16.7095V16.7183V16.7271V16.7358V16.7446V16.7534V16.7622V16.771V16.7798V16.7886V16.7974V16.8062V16.8149V16.8237V16.8325V16.8413V16.8501V16.8589V16.8677V16.8765V16.8853V16.894V16.9028V16.9116V16.9204V16.9292V16.938V16.9468V16.9556V16.9644V16.9731V16.9819V16.9907V16.9995V17.0083V17.0171V17.0259V17.0347V17.0435V17.0522V17.061V17.0698V17.0786V17.0874V17.0962V17.105V17.1138V17.1226V17.1313V17.1401V17.1489V17.1577V17.1665V17.1753V17.1841V17.1929V17.2017V17.2104V17.2192V17.228V17.2368V17.2456V17.2544V17.2632V17.272V17.2808V17.2896V17.2983V17.3071V17.3159V17.3247V17.3335V17.3423V17.3511V17.3599V17.3687V17.3774V17.3862V17.395V17.4038V17.4126V17.4214V17.4302V17.439V17.4478V17.4565V17.4653V17.4741V17.4829V17.4917V17.5005V17.5093V17.5181V17.5269V17.5356V17.5444V17.5532V17.562V17.5708V17.5796V17.5884V17.5972V17.606V17.6147V17.6235V17.6323V17.6411V17.6499V17.6587V17.6675V17.6763V17.6851V17.6938V17.7026V17.7114V17.7202V17.729V17.7378V17.7466V17.7554V17.7642V17.7729V17.7817V17.7905V17.7993V17.8081V17.8169V17.8257V17.8345V17.8433V17.8521V17.8608V17.8696V17.8784V17.8872V17.896V17.9048V17.9136V17.9224V17.9312V17.9399V17.9487V17.9575V17.9663V17.9751V17.9839V17.9927V18.0015V18.0103V18.019V18.0278V18.0366V18.0454V18.0542V18.063V18.0718V18.0806V18.0894V18.0981V18.1069V18.1157V18.1245V18.1333V18.1421V18.1509V18.1597V18.1685V18.1772V18.186V18.1948V18.2036V18.2124V18.2212V18.23V18.2388V18.2476V18.2563V18.2651V18.2739V18.2827V18.2915V18.3003V18.3091V18.3179V18.3267V18.3354V18.3442V18.353V18.3618V18.3706V18.3794V18.3882V18.397V18.4058V18.4146V18.4233V18.4321V18.4409V18.4497V18.4585V18.4673V18.4761V18.4849V18.4937V18.5024V18.5112V18.52V18.5288V18.5376V18.5464V18.5552V18.564V18.5728V18.5815V18.5903V18.5991V18.6079V18.6167V18.6255V18.6343V18.6431V18.6519V18.6606V18.6694V18.6782V18.687V18.6958V18.7046V18.7134V18.7222V18.731V18.7397V18.7485V18.7573V18.7661V18.7749V18.7837V18.7925V18.8013V18.8101V18.8188V18.8276V18.8364V18.8452V18.854V18.8628V18.8716V18.8804V18.8892V18.8979V18.9067V18.9155V18.9243V18.9331V18.9419V18.9507V18.9595V18.9683V18.9771V18.9858V18.9946V19.0034V19.0122V19.021V19.0298V19.0386V19.0474V19.0562V19.0649V19.0737V19.0825V19.0913V19.1001V19.1089V19.1177V19.1265V19.1353V19.144V19.1528V19.1616V19.1704V19.1792V19.188V19.1968V19.2056V19.2144V19.2231V19.2319V19.2407V19.2495V19.2583V19.2671V19.2759V19.2847V19.2935V19.3022V19.311V19.3198V19.3286V19.3374V19.3462V19.355V19.3638V19.3726V19.3813V19.3901V19.3989V19.4077V19.4165V19.4253V19.4341V19.4429V19.4517V19.4604V19.4692V19.478V19.4868V19.4956V19.5044V19.5132V19.522V19.5308V19.5396V19.5483V19.5571V19.5659V19.5747V19.5835V19.5923V19.6011V19.6099V19.6187V19.6274V19.6362V19.645V19.6538V19.6626V19.6714V19.6802V19.689V19.6978V19.7065V19.7153V19.7241V19.7329V19.7417V19.7505V19.7593V19.7681V19.7769V19.7856V19.7944V19.8032V19.812V19.8208V19.8296V19.8384V19.8472V19.856V19.8647V19.8735V19.8823V19.8911V19.8999V19.9087V19.9175V19.9263V19.9351V19.9438V19.9526V19.9614V19.9702V19.979V19.9878V19.9966V20.0054V20.0142V20.0229V20.0317V20.0405V20.0493V20.0581V20.0669V20.0757V20.0845V20.0933V20.1021V20.1108V20.1196V20.1284V20.1372V20.146V20.1548V20.1636V20.1724V20.1812V20.1899V20.1987V20.2075V20.2163V20.2251V20.2339V20.2427V20.2515V20.2603V20.269V20.2778V20.2866V20.2954V20.3042V20.313V20.3218V20.3306V20.3394V20.3481V20.3569V20.3657V20.3745V20.3833V20.3921V20.4009V20.4097V20.4185V20.4272V20.436V20.4448V20.4536V20.4624V20.4712V20.48V20.4888V20.4976V20.5063V20.5151V20.5239V20.5327V20.5415V20.5503V20.5591V20.5679V20.5767V20.5854V20.5942V20.603V20.6118V20.6206V20.6294V20.6382V20.647V20.6558V20.6646V20.6733V20.6821V20.6909V20.6997V20.7085V20.7173V20.7261V20.7349V20.7437V20.7524V20.7612V20.77V20.7788V20.7876V20.7964V20.8052V20.814V20.8228V20.8315V20.8403V20.8491V20.8579V20.8667V20.8755V20.8843V20.8931V20.9019V20.9106V20.9194V20.9282V20.937V20.9458V20.9546V20.9634V20.9722V20.981V20.9897V20.9985V21.0073V21.0161V21.0249V21.0337V21.0425V21.0513V21.0601C21.75 21.4743 21.4142 21.8101 21 21.8101C17.3049 21.8101 14.0463 21.1005 11.3191 19.7302C8.245 18.1856 5.87446 15.8151 4.32984 12.7409C2.95955 10.0137 2.25 6.75516 2.25 3.06006ZM12.8577 18.7919C14.9784 19.7007 17.452 20.2211 20.25 20.2996V20.2954V20.2866V20.2778V20.269V20.2603V20.2515V20.2427V20.2339V20.2251V20.2163V20.2075V20.1987V20.1899V20.1812V20.1724V20.1636V20.1548V20.146V20.1372V20.1284V20.1196V20.1108V20.1021V20.0933V20.0845V20.0757V20.0669V20.0581V20.0493V20.0405V20.0317V20.0229V20.0142V20.0054V19.9966V19.9878V19.979V19.9702V19.9614V19.9526V19.9438V19.9351V19.9263V19.9175V19.9087V19.8999V19.8911V19.8823V19.8735V19.8647V19.856V19.8472V19.8384V19.8296V19.8208V19.812V19.8032V19.7944V19.7856V19.7769V19.7681V19.7593V19.7505V19.7417V19.7329V19.7241V19.7153V19.7065V19.6978V19.689V19.6802V19.6714V19.6626V19.6538V19.645V19.6362V19.6274V19.6187V19.6099V19.6011V19.5923V19.5835V19.5747V19.5659V19.5571V19.5483V19.5396V19.5308V19.522V19.5132V19.5044V19.4956V19.4868V19.478V19.4692V19.4604V19.4517V19.4429V19.4341V19.4253V19.4165V19.4077V19.3989V19.3901V19.3813V19.3726V19.3638V19.355V19.3462V19.3374V19.3286V19.3198V19.311V19.3022V19.2935V19.2847V19.2759V19.2671V19.2583V19.2495V19.2407V19.2319V19.2231V19.2144V19.2056V19.1968V19.188V19.1792V19.1704V19.1616V19.1528V19.144V19.1353V19.1265V19.1177V19.1089V19.1001V19.0913V19.0825V19.0737V19.0649V19.0562V19.0474V19.0386V19.0298V19.021V19.0122V19.0034V18.9946V18.9858V18.9771V18.9683V18.9595V18.9507V18.9419V18.9331V18.9243V18.9155V18.9067V18.8979V18.8892V18.8804V18.8716V18.8628V18.854V18.8452V18.8364V18.8276V18.8188V18.8101V18.8013V18.7925V18.7837V18.7749V18.7661V18.7573V18.7485V18.7397V18.731V18.7222V18.7134V18.7046V18.6958V18.687V18.6782V18.6694V18.6606V18.6519V18.6431V18.6343V18.6255V18.6167V18.6079V18.5991V18.5903V18.5815V18.5728V18.564V18.5552V18.5464V18.5376V18.5288V18.52V18.5112V18.5024V18.4937V18.4849V18.4761V18.4673V18.4585V18.4497V18.4409V18.4321V18.4233V18.4146V18.4058V18.397V18.3882V18.3794V18.3706V18.3618V18.353V18.3442V18.3354V18.3267V18.3179V18.3091V18.3003V18.2915V18.2827V18.2739V18.2651V18.2563V18.2476V18.2388V18.23V18.2212V18.2124V18.2036V18.1948V18.186V18.1772V18.1685V18.1597V18.1509V18.1421V18.1333V18.1245V18.1157V18.1069V18.0981V18.0894V18.0806V18.0718V18.063V18.0542V18.0454V18.0366V18.0278V18.019V18.0103V18.0015V17.9927V17.9839V17.9751V17.9663V17.9575V17.9487V17.9399V17.9312V17.9224V17.9136V17.9048V17.896V17.8872V17.8784V17.8696V17.8608V17.8521V17.8433V17.8345V17.8257V17.8169V17.8081V17.7993V17.7905V17.7817V17.7729V17.7642V17.7554V17.7466V17.7378V17.729V17.7202V17.7114V17.7026V17.6938V17.6851V17.6763V17.6675V17.6587V17.6499V17.6411V17.6323V17.6235V17.6147V17.606V17.5972V17.5884V17.5796V17.5708V17.562V17.5532V17.5444V17.5356V17.5269V17.5181V17.5093V17.5005V17.4917V17.4829V17.4741V17.4653V17.4565V17.4478V17.439V17.4302V17.4214V17.4126V17.4038V17.395V17.3862V17.3774V17.3687V17.3599V17.3511V17.3423V17.3335V17.3247V17.3159V17.3071V17.2983V17.2896V17.2808V17.272V17.2632V17.2544V17.2456V17.2368V17.228V17.2192V17.2104V17.2017V17.1929V17.1841V17.1753V17.1665V17.1577V17.1489V17.1456L15.274 15.9016L12.8577 18.7919ZM5.26818 11.2024L8.15842 8.78607L6.91442 3.81006H3.76044C3.83901 6.60805 4.35936 9.08165 5.26818 11.2024ZM13.2499 7.06001C13.2499 6.64579 13.5856 6.31001 13.9999 6.31001C15.0264 6.31001 15.9339 6.94891 16.5474 7.60439C16.891 7.97142 17.1821 8.38424 17.3908 8.79049C17.592 9.182 17.7499 9.63166 17.7499 10.06C17.7499 10.4742 17.4141 10.81 16.9999 10.81C16.5856 10.81 16.2499 10.4742 16.2499 10.06C16.2499 9.97005 16.2062 9.76709 16.0567 9.4761C15.9147 9.19985 15.7058 8.90027 15.4523 8.62943C14.956 8.09925 14.4184 7.81001 13.9999 7.81001C13.5856 7.81001 13.2499 7.47422 13.2499 7.06001ZM13.9999 3.31001C13.5856 3.31001 13.2499 3.64579 13.2499 4.06001C13.2499 4.47422 13.5856 4.81001 13.9999 4.81001C16.8994 4.81001 19.2499 7.16051 19.2499 10.06C19.2499 10.4742 19.5856 10.81 19.9999 10.81C20.4141 10.81 20.7499 10.4742 20.7499 10.06C20.7499 6.33208 17.7278 3.31001 13.9999 3.31001Z" fill="white"/>
</svg>
