<svg width="24" height="25" viewBox="0 0 24 25" fill="none" xmlns="http://www.w3.org/2000/svg">
<path fill-rule="evenodd" clip-rule="evenodd" d="M3 2.31C2.58579 2.31 2.25 2.64578 2.25 3.06C2.25 6.7551 2.95955 10.0137 4.32984 12.7408C5.87446 15.815 8.245 18.1855 11.3191 19.7302C14.0463 21.1004 17.3049 21.81 21 21.81C21.4142 21.81 21.75 21.4742 21.75 21.06V21.0512V21.0424V21.0336V21.0248V21.0161V21.0073V20.9985V20.9897V20.9809V20.9721V20.9633V20.9545V20.9457V20.937V20.9282V20.9194V20.9106V20.9018V20.893V20.8842V20.8754V20.8666V20.8578V20.8491V20.8403V20.8315V20.8227V20.8139V20.8051V20.7963V20.7875V20.7787V20.77V20.7612V20.7524V20.7436V20.7348V20.726V20.7172V20.7084V20.6996V20.6909V20.6821V20.6733V20.6645V20.6557V20.6469V20.6381V20.6293V20.6205V20.6118V20.603V20.5942V20.5854V20.5766V20.5678V20.559V20.5502V20.5414V20.5327V20.5239V20.5151V20.5063V20.4975V20.4887V20.4799V20.4711V20.4623V20.4536V20.4448V20.436V20.4272V20.4184V20.4096V20.4008V20.392V20.3832V20.3745V20.3657V20.3569V20.3481V20.3393V20.3305V20.3217V20.3129V20.3041V20.2953V20.2866V20.2778V20.269V20.2602V20.2514V20.2426V20.2338V20.225V20.2162V20.2075V20.1987V20.1899V20.1811V20.1723V20.1635V20.1547V20.1459V20.1371V20.1284V20.1196V20.1108V20.102V20.0932V20.0844V20.0756V20.0668V20.058V20.0493V20.0405V20.0317V20.0229V20.0141V20.0053V19.9965V19.9877V19.9789V19.9702V19.9614V19.9526V19.9438V19.935V19.9262V19.9174V19.9086V19.8998V19.8911V19.8823V19.8735V19.8647V19.8559V19.8471V19.8383V19.8295V19.8207V19.812V19.8032V19.7944V19.7856V19.7768V19.768V19.7592V19.7504V19.7416V19.7328V19.7241V19.7153V19.7065V19.6977V19.6889V19.6801V19.6713V19.6625V19.6537V19.645V19.6362V19.6274V19.6186V19.6098V19.601V19.5922V19.5834V19.5746V19.5659V19.5571V19.5483V19.5395V19.5307V19.5219V19.5131V19.5043V19.4955V19.4868V19.478V19.4692V19.4604V19.4516V19.4428V19.434V19.4252V19.4164V19.4077V19.3989V19.3901V19.3813V19.3725V19.3637V19.3549V19.3461V19.3373V19.3286V19.3198V19.311V19.3022V19.2934V19.2846V19.2758V19.267V19.2582V19.2495V19.2407V19.2319V19.2231V19.2143V19.2055V19.1967V19.1879V19.1791V19.1703V19.1616V19.1528V19.144V19.1352V19.1264V19.1176V19.1088V19.1V19.0912V19.0825V19.0737V19.0649V19.0561V19.0473V19.0385V19.0297V19.0209V19.0121V19.0034V18.9946V18.9858V18.977V18.9682V18.9594V18.9506V18.9418V18.933V18.9243V18.9155V18.9067V18.8979V18.8891V18.8803V18.8715V18.8627V18.8539V18.8452V18.8364V18.8276V18.8188V18.81V18.8012V18.7924V18.7836V18.7748V18.7661V18.7573V18.7485V18.7397V18.7309V18.7221V18.7133V18.7045V18.6957V18.687V18.6782V18.6694V18.6606V18.6518V18.643V18.6342V18.6254V18.6166V18.6078V18.5991V18.5903V18.5815V18.5727V18.5639V18.5551V18.5463V18.5375V18.5287V18.52V18.5112V18.5024V18.4936V18.4848V18.476V18.4672V18.4584V18.4496V18.4409V18.4321V18.4233V18.4145V18.4057V18.3969V18.3881V18.3793V18.3705V18.3618V18.353V18.3442V18.3354V18.3266V18.3178V18.309V18.3002V18.2914V18.2827V18.2739V18.2651V18.2563V18.2475V18.2387V18.2299V18.2211V18.2123V18.2036V18.1948V18.186V18.1772V18.1684V18.1596V18.1508V18.142V18.1332V18.1245V18.1157V18.1069V18.0981V18.0893V18.0805V18.0717V18.0629V18.0541V18.0453V18.0366V18.0278V18.019V18.0102V18.0014V17.9926V17.9838V17.975V17.9662V17.9575V17.9487V17.9399V17.9311V17.9223V17.9135V17.9047V17.8959V17.8871V17.8784V17.8696V17.8608V17.852V17.8432V17.8344V17.8256V17.8168V17.808V17.7993V17.7905V17.7817V17.7729V17.7641V17.7553V17.7465V17.7377V17.7289V17.7202V17.7114V17.7026V17.6938V17.685V17.6762V17.6674V17.6586V17.6498V17.6411V17.6323V17.6235V17.6147V17.6059V17.5971V17.5883V17.5795V17.5707V17.562V17.5532V17.5444V17.5356V17.5268V17.518V17.5092V17.5004V17.4916V17.4828V17.4741V17.4653V17.4565V17.4477V17.4389V17.4301V17.4213V17.4125V17.4037V17.395V17.3862V17.3774V17.3686V17.3598V17.351V17.3422V17.3334V17.3246V17.3159V17.3071V17.2983V17.2895V17.2807V17.2719V17.2631V17.2543V17.2455V17.2368V17.228V17.2192V17.2104V17.2016V17.1928V17.184V17.1752V17.1664V17.1577V17.1489V17.1401V17.1313V17.1225V17.1137V17.1049V17.0961V17.0873V17.0786V17.0698V17.061V17.0522V17.0434V17.0346V17.0258V17.017V17.0082V16.9995V16.9907V16.9819V16.9731V16.9643V16.9555V16.9467V16.9379V16.9291V16.9203V16.9116V16.9028V16.894V16.8852V16.8764V16.8676V16.8588V16.85V16.8412V16.8325V16.8237V16.8149V16.8061V16.7973V16.7885V16.7797V16.7709V16.7621V16.7534V16.7446V16.7358V16.727V16.7182V16.7094V16.7006V16.6918V16.683V16.6743V16.6655V16.6567V16.6479V16.6391V16.6303V16.6215V16.6127V16.6039V16.5952V16.5864V16.5776V16.5688V16.56C21.75 16.2158 21.5158 15.9159 21.1819 15.8324L15.1819 14.3324C14.9031 14.2627 14.6089 14.3584 14.4246 14.5789L11.4692 18.114C9.10981 16.8107 7.24933 14.9502 5.94602 12.5908L9.48105 9.6354C9.70155 9.45106 9.79731 9.15692 9.72761 8.8781L8.22761 2.8781C8.14414 2.54422 7.84415 2.31 7.5 2.31H3ZM20.25 20.2996C17.452 20.221 14.9784 19.7006 12.8577 18.7918L15.274 15.9016L20.25 17.1456V17.1489V17.1577V17.1664V17.1752V17.184V17.1928V17.2016V17.2104V17.2192V17.228V17.2368V17.2455V17.2543V17.2631V17.2719V17.2807V17.2895V17.2983V17.3071V17.3159V17.3246V17.3334V17.3422V17.351V17.3598V17.3686V17.3774V17.3862V17.395V17.4037V17.4125V17.4213V17.4301V17.4389V17.4477V17.4565V17.4653V17.4741V17.4828V17.4916V17.5004V17.5092V17.518V17.5268V17.5356V17.5444V17.5532V17.562V17.5707V17.5795V17.5883V17.5971V17.6059V17.6147V17.6235V17.6323V17.6411V17.6498V17.6586V17.6674V17.6762V17.685V17.6938V17.7026V17.7114V17.7202V17.7289V17.7377V17.7465V17.7553V17.7641V17.7729V17.7817V17.7905V17.7993V17.808V17.8168V17.8256V17.8344V17.8432V17.852V17.8608V17.8696V17.8784V17.8871V17.8959V17.9047V17.9135V17.9223V17.9311V17.9399V17.9487V17.9575V17.9662V17.975V17.9838V17.9926V18.0014V18.0102V18.019V18.0278V18.0366V18.0453V18.0541V18.0629V18.0717V18.0805V18.0893V18.0981V18.1069V18.1157V18.1245V18.1332V18.142V18.1508V18.1596V18.1684V18.1772V18.186V18.1948V18.2036V18.2123V18.2211V18.2299V18.2387V18.2475V18.2563V18.2651V18.2739V18.2827V18.2914V18.3002V18.309V18.3178V18.3266V18.3354V18.3442V18.353V18.3618V18.3705V18.3793V18.3881V18.3969V18.4057V18.4145V18.4233V18.4321V18.4409V18.4496V18.4584V18.4672V18.476V18.4848V18.4936V18.5024V18.5112V18.52V18.5287V18.5375V18.5463V18.5551V18.5639V18.5727V18.5815V18.5903V18.5991V18.6078V18.6166V18.6254V18.6342V18.643V18.6518V18.6606V18.6694V18.6782V18.687V18.6957V18.7045V18.7133V18.7221V18.7309V18.7397V18.7485V18.7573V18.7661V18.7748V18.7836V18.7924V18.8012V18.81V18.8188V18.8276V18.8364V18.8452V18.8539V18.8627V18.8715V18.8803V18.8891V18.8979V18.9067V18.9155V18.9243V18.933V18.9418V18.9506V18.9594V18.9682V18.977V18.9858V18.9946V19.0034V19.0121V19.0209V19.0297V19.0385V19.0473V19.0561V19.0649V19.0737V19.0825V19.0912V19.1V19.1088V19.1176V19.1264V19.1352V19.144V19.1528V19.1616V19.1703V19.1791V19.1879V19.1967V19.2055V19.2143V19.2231V19.2319V19.2407V19.2495V19.2582V19.267V19.2758V19.2846V19.2934V19.3022V19.311V19.3198V19.3286V19.3373V19.3461V19.3549V19.3637V19.3725V19.3813V19.3901V19.3989V19.4077V19.4164V19.4252V19.434V19.4428V19.4516V19.4604V19.4692V19.478V19.4868V19.4955V19.5043V19.5131V19.5219V19.5307V19.5395V19.5483V19.5571V19.5659V19.5746V19.5834V19.5922V19.601V19.6098V19.6186V19.6274V19.6362V19.645V19.6537V19.6625V19.6713V19.6801V19.6889V19.6977V19.7065V19.7153V19.7241V19.7328V19.7416V19.7504V19.7592V19.768V19.7768V19.7856V19.7944V19.8032V19.812V19.8207V19.8295V19.8383V19.8471V19.8559V19.8647V19.8735V19.8823V19.8911V19.8998V19.9086V19.9174V19.9262V19.935V19.9438V19.9526V19.9614V19.9702V19.9789V19.9877V19.9965V20.0053V20.0141V20.0229V20.0317V20.0405V20.0493V20.058V20.0668V20.0756V20.0844V20.0932V20.102V20.1108V20.1196V20.1284V20.1371V20.1459V20.1547V20.1635V20.1723V20.1811V20.1899V20.1987V20.2075V20.2162V20.225V20.2338V20.2426V20.2514V20.2602V20.269V20.2778V20.2866V20.2953V20.2996ZM8.15842 8.78601L5.26818 11.2023C4.35936 9.08159 3.83901 6.60799 3.76044 3.81H6.91442L8.15842 8.78601ZM16.1999 2.31C15.7857 2.31 15.4499 2.64578 15.4499 3.06C15.4499 3.47421 15.7857 3.81 16.1999 3.81H19.1893L14.4696 8.52967C14.1767 8.82256 14.1767 9.29743 14.4696 9.59033C14.7625 9.88322 15.2374 9.88322 15.5303 9.59033L20.2499 4.87066V7.86C20.2499 8.27421 20.5857 8.61 20.9999 8.61C21.4141 8.61 21.7499 8.27421 21.7499 7.86V3.06C21.7499 2.64578 21.4141 2.31 20.9999 2.31H16.1999Z" fill="white"/>
</svg>
