<svg width="24" height="25" viewBox="0 0 24 25" fill="none" xmlns="http://www.w3.org/2000/svg">
<path fill-rule="evenodd" clip-rule="evenodd" d="M3 2.30994C2.58579 2.30994 2.25 2.64572 2.25 3.05994C2.25 6.75504 2.95955 10.0136 4.32984 12.7408C5.87446 15.8149 8.245 18.1855 11.3191 19.7301C14.0463 21.1004 17.3049 21.8099 21 21.8099C21.4142 21.8099 21.75 21.4741 21.75 21.0599V21.0511V21.0424V21.0336V21.0248V21.016V21.0072V20.9984V20.9896V20.9808V20.972V20.9633V20.9545V20.9457V20.9369V20.9281V20.9193V20.9105V20.9017V20.8929V20.8842V20.8754V20.8666V20.8578V20.849V20.8402V20.8314V20.8226V20.8138V20.8051V20.7963V20.7875V20.7787V20.7699V20.7611V20.7523V20.7435V20.7347V20.726V20.7172V20.7084V20.6996V20.6908V20.682V20.6732V20.6644V20.6556V20.6469V20.6381V20.6293V20.6205V20.6117V20.6029V20.5941V20.5853V20.5765V20.5677V20.559V20.5502V20.5414V20.5326V20.5238V20.515V20.5062V20.4974V20.4886V20.4799V20.4711V20.4623V20.4535V20.4447V20.4359V20.4271V20.4183V20.4095V20.4008V20.392V20.3832V20.3744V20.3656V20.3568V20.348V20.3392V20.3304V20.3217V20.3129V20.3041V20.2953V20.2865V20.2777V20.2689V20.2601V20.2513V20.2426V20.2338V20.225V20.2162V20.2074V20.1986V20.1898V20.181V20.1722V20.1635V20.1547V20.1459V20.1371V20.1283V20.1195V20.1107V20.1019V20.0931V20.0844V20.0756V20.0668V20.058V20.0492V20.0404V20.0316V20.0228V20.014V20.0052V19.9965V19.9877V19.9789V19.9701V19.9613V19.9525V19.9437V19.9349V19.9261V19.9174V19.9086V19.8998V19.891V19.8822V19.8734V19.8646V19.8558V19.847V19.8383V19.8295V19.8207V19.8119V19.8031V19.7943V19.7855V19.7767V19.7679V19.7592V19.7504V19.7416V19.7328V19.724V19.7152V19.7064V19.6976V19.6888V19.6801V19.6713V19.6625V19.6537V19.6449V19.6361V19.6273V19.6185V19.6097V19.601V19.5922V19.5834V19.5746V19.5658V19.557V19.5482V19.5394V19.5306V19.5219V19.5131V19.5043V19.4955V19.4867V19.4779V19.4691V19.4603V19.4515V19.4427V19.434V19.4252V19.4164V19.4076V19.3988V19.39V19.3812V19.3724V19.3636V19.3549V19.3461V19.3373V19.3285V19.3197V19.3109V19.3021V19.2933V19.2845V19.2758V19.267V19.2582V19.2494V19.2406V19.2318V19.223V19.2142V19.2054V19.1967V19.1879V19.1791V19.1703V19.1615V19.1527V19.1439V19.1351V19.1263V19.1176V19.1088V19.1V19.0912V19.0824V19.0736V19.0648V19.056V19.0472V19.0385V19.0297V19.0209V19.0121V19.0033V18.9945V18.9857V18.9769V18.9681V18.9594V18.9506V18.9418V18.933V18.9242V18.9154V18.9066V18.8978V18.889V18.8802V18.8715V18.8627V18.8539V18.8451V18.8363V18.8275V18.8187V18.8099V18.8011V18.7924V18.7836V18.7748V18.766V18.7572V18.7484V18.7396V18.7308V18.722V18.7133V18.7045V18.6957V18.6869V18.6781V18.6693V18.6605V18.6517V18.6429V18.6342V18.6254V18.6166V18.6078V18.599V18.5902V18.5814V18.5726V18.5638V18.5551V18.5463V18.5375V18.5287V18.5199V18.5111V18.5023V18.4935V18.4847V18.476V18.4672V18.4584V18.4496V18.4408V18.432V18.4232V18.4144V18.4056V18.3969V18.3881V18.3793V18.3705V18.3617V18.3529V18.3441V18.3353V18.3265V18.3177V18.309V18.3002V18.2914V18.2826V18.2738V18.265V18.2562V18.2474V18.2386V18.2299V18.2211V18.2123V18.2035V18.1947V18.1859V18.1771V18.1683V18.1595V18.1508V18.142V18.1332V18.1244V18.1156V18.1068V18.098V18.0892V18.0804V18.0717V18.0629V18.0541V18.0453V18.0365V18.0277V18.0189V18.0101V18.0013V17.9926V17.9838V17.975V17.9662V17.9574V17.9486V17.9398V17.931V17.9222V17.9135V17.9047V17.8959V17.8871V17.8783V17.8695V17.8607V17.8519V17.8431V17.8344V17.8256V17.8168V17.808V17.7992V17.7904V17.7816V17.7728V17.764V17.7552V17.7465V17.7377V17.7289V17.7201V17.7113V17.7025V17.6937V17.6849V17.6761V17.6674V17.6586V17.6498V17.641V17.6322V17.6234V17.6146V17.6058V17.597V17.5883V17.5795V17.5707V17.5619V17.5531V17.5443V17.5355V17.5267V17.5179V17.5092V17.5004V17.4916V17.4828V17.474V17.4652V17.4564V17.4476V17.4388V17.4301V17.4213V17.4125V17.4037V17.3949V17.3861V17.3773V17.3685V17.3597V17.351V17.3422V17.3334V17.3246V17.3158V17.307V17.2982V17.2894V17.2806V17.2719V17.2631V17.2543V17.2455V17.2367V17.2279V17.2191V17.2103V17.2015V17.1927V17.184V17.1752V17.1664V17.1576V17.1488V17.14V17.1312V17.1224V17.1136V17.1049V17.0961V17.0873V17.0785V17.0697V17.0609V17.0521V17.0433V17.0345V17.0258V17.017V17.0082V16.9994V16.9906V16.9818V16.973V16.9642V16.9554V16.9467V16.9379V16.9291V16.9203V16.9115V16.9027V16.8939V16.8851V16.8763V16.8676V16.8588V16.85V16.8412V16.8324V16.8236V16.8148V16.806V16.7972V16.7885V16.7797V16.7709V16.7621V16.7533V16.7445V16.7357V16.7269V16.7181V16.7094V16.7006V16.6918V16.683V16.6742V16.6654V16.6566V16.6478V16.639V16.6302V16.6215V16.6127V16.6039V16.5951V16.5863V16.5775V16.5687V16.5599C21.75 16.2158 21.5158 15.9158 21.1819 15.8323L15.1819 14.3323C14.9031 14.2626 14.6089 14.3584 14.4246 14.5789L11.4692 18.1139C9.10981 16.8106 7.24933 14.9501 5.94602 12.5907L9.48105 9.63534C9.70155 9.451 9.79731 9.15686 9.72761 8.87803L8.22761 2.87803C8.14414 2.54416 7.84415 2.30994 7.5 2.30994H3ZM20.25 20.2995C17.452 20.2209 14.9784 19.7006 12.8577 18.7918L15.274 15.9015L20.25 17.1455V17.1488V17.1576V17.1664V17.1752V17.184V17.1927V17.2015V17.2103V17.2191V17.2279V17.2367V17.2455V17.2543V17.2631V17.2719V17.2806V17.2894V17.2982V17.307V17.3158V17.3246V17.3334V17.3422V17.351V17.3597V17.3685V17.3773V17.3861V17.3949V17.4037V17.4125V17.4213V17.4301V17.4388V17.4476V17.4564V17.4652V17.474V17.4828V17.4916V17.5004V17.5092V17.5179V17.5267V17.5355V17.5443V17.5531V17.5619V17.5707V17.5795V17.5883V17.597V17.6058V17.6146V17.6234V17.6322V17.641V17.6498V17.6586V17.6674V17.6761V17.6849V17.6937V17.7025V17.7113V17.7201V17.7289V17.7377V17.7465V17.7552V17.764V17.7728V17.7816V17.7904V17.7992V17.808V17.8168V17.8256V17.8344V17.8431V17.8519V17.8607V17.8695V17.8783V17.8871V17.8959V17.9047V17.9135V17.9222V17.931V17.9398V17.9486V17.9574V17.9662V17.975V17.9838V17.9926V18.0013V18.0101V18.0189V18.0277V18.0365V18.0453V18.0541V18.0629V18.0717V18.0804V18.0892V18.098V18.1068V18.1156V18.1244V18.1332V18.142V18.1508V18.1595V18.1683V18.1771V18.1859V18.1947V18.2035V18.2123V18.2211V18.2299V18.2386V18.2474V18.2562V18.265V18.2738V18.2826V18.2914V18.3002V18.309V18.3177V18.3265V18.3353V18.3441V18.3529V18.3617V18.3705V18.3793V18.3881V18.3969V18.4056V18.4144V18.4232V18.432V18.4408V18.4496V18.4584V18.4672V18.476V18.4847V18.4935V18.5023V18.5111V18.5199V18.5287V18.5375V18.5463V18.5551V18.5638V18.5726V18.5814V18.5902V18.599V18.6078V18.6166V18.6254V18.6342V18.6429V18.6517V18.6605V18.6693V18.6781V18.6869V18.6957V18.7045V18.7133V18.722V18.7308V18.7396V18.7484V18.7572V18.766V18.7748V18.7836V18.7924V18.8011V18.8099V18.8187V18.8275V18.8363V18.8451V18.8539V18.8627V18.8715V18.8802V18.889V18.8978V18.9066V18.9154V18.9242V18.933V18.9418V18.9506V18.9594V18.9681V18.9769V18.9857V18.9945V19.0033V19.0121V19.0209V19.0297V19.0385V19.0472V19.056V19.0648V19.0736V19.0824V19.0912V19.1V19.1088V19.1176V19.1263V19.1351V19.1439V19.1527V19.1615V19.1703V19.1791V19.1879V19.1967V19.2054V19.2142V19.223V19.2318V19.2406V19.2494V19.2582V19.267V19.2758V19.2845V19.2933V19.3021V19.3109V19.3197V19.3285V19.3373V19.3461V19.3549V19.3636V19.3724V19.3812V19.39V19.3988V19.4076V19.4164V19.4252V19.434V19.4427V19.4515V19.4603V19.4691V19.4779V19.4867V19.4955V19.5043V19.5131V19.5219V19.5306V19.5394V19.5482V19.557V19.5658V19.5746V19.5834V19.5922V19.601V19.6097V19.6185V19.6273V19.6361V19.6449V19.6537V19.6625V19.6713V19.6801V19.6888V19.6976V19.7064V19.7152V19.724V19.7328V19.7416V19.7504V19.7592V19.7679V19.7767V19.7855V19.7943V19.8031V19.8119V19.8207V19.8295V19.8383V19.847V19.8558V19.8646V19.8734V19.8822V19.891V19.8998V19.9086V19.9174V19.9261V19.9349V19.9437V19.9525V19.9613V19.9701V19.9789V19.9877V19.9965V20.0052V20.014V20.0228V20.0316V20.0404V20.0492V20.058V20.0668V20.0756V20.0844V20.0931V20.1019V20.1107V20.1195V20.1283V20.1371V20.1459V20.1547V20.1635V20.1722V20.181V20.1898V20.1986V20.2074V20.2162V20.225V20.2338V20.2426V20.2513V20.2601V20.2689V20.2777V20.2865V20.2953V20.2995ZM8.15842 8.78595L5.26818 11.2023C4.35936 9.08153 3.83901 6.60793 3.76044 3.80994H6.91442L8.15842 8.78595ZM20.4696 2.52965C20.7625 2.23676 21.2374 2.23676 21.5303 2.52965C21.8232 2.82255 21.8232 3.29742 21.5303 3.59031L16.8106 8.30998H19.7999C20.2142 8.30998 20.5499 8.64577 20.5499 9.05998C20.5499 9.4742 20.2142 9.80998 19.7999 9.80998H14.9999C14.5857 9.80998 14.2499 9.4742 14.2499 9.05998V4.25998C14.2499 3.84577 14.5857 3.50998 14.9999 3.50998C15.4141 3.50998 15.7499 3.84577 15.7499 4.25998V7.24932L20.4696 2.52965Z" fill="white"/>
</svg>
