<svg width="24" height="25" viewBox="0 0 24 25" fill="none" xmlns="http://www.w3.org/2000/svg">
<path fill-rule="evenodd" clip-rule="evenodd" d="M6 8.81C4.20507 8.81 2.75 10.2651 2.75 12.06C2.75 13.8549 4.20507 15.31 6 15.31C7.79493 15.31 9.25 13.8549 9.25 12.06C9.25 10.2651 7.79493 8.81 6 8.81ZM10.75 12.06C10.75 13.3172 10.2616 14.4603 9.46412 15.31H14.5359C13.7384 14.4603 13.25 13.3172 13.25 12.06C13.25 9.43665 15.3766 7.31 18 7.31C20.6234 7.31 22.75 9.43665 22.75 12.06C22.75 14.6834 20.6234 16.81 18 16.81H6C3.37665 16.81 1.25 14.6834 1.25 12.06C1.25 9.43665 3.37665 7.31 6 7.31C8.62335 7.31 10.75 9.43665 10.75 12.06ZM18 15.31C19.7949 15.31 21.25 13.8549 21.25 12.06C21.25 10.2651 19.7949 8.81 18 8.81C16.2051 8.81 14.75 10.2651 14.75 12.06C14.75 13.8549 16.2051 15.31 18 15.31Z" fill="white"/>
</svg>
