<svg width="24" height="25" viewBox="0 0 24 25" fill="none" xmlns="http://www.w3.org/2000/svg">
<path fill-rule="evenodd" clip-rule="evenodd" d="M7.00001 3.31C6.5858 3.31 6.25001 3.64578 6.25001 4.06V8.06C6.25001 8.47421 6.5858 8.81 7.00001 8.81C7.41422 8.81 7.75001 8.47421 7.75001 8.06V5.87066L11.4697 9.59033C11.7626 9.88322 12.2374 9.88322 12.5303 9.59033L17.0303 5.09033C17.3232 4.79743 17.3232 4.32256 17.0303 4.02967C16.7374 3.73677 16.2626 3.73677 15.9697 4.02967L12 7.99934L8.81067 4.81H11C11.4142 4.81 11.75 4.47421 11.75 4.06C11.75 3.64578 11.4142 3.31 11 3.31H7.00001ZM12 11.31C10.639 11.31 9.21391 11.5237 7.77627 11.9731C5.28957 12.7503 2.76783 14.2315 0.469679 16.5297C0.210433 16.7889 0.176611 17.1976 0.389711 17.4959L2.88971 20.9959C3.12004 21.3184 3.56147 21.406 3.89751 21.196L7.89751 18.696C8.09592 18.572 8.22509 18.3625 8.24678 18.1295L8.69959 13.2654C9.83266 12.9556 10.9434 12.81 12 12.81C13.0567 12.81 14.1674 12.9556 15.3004 13.2654L15.7532 18.1295C15.7749 18.3625 15.9041 18.572 16.1025 18.696L20.1025 21.196C20.4385 21.406 20.88 21.3184 21.1103 20.9959L23.6103 17.496C23.8234 17.1977 23.7896 16.789 23.5303 16.5298C21.2322 14.2316 18.7104 12.7503 16.2238 11.9731C14.7861 11.5237 13.361 11.31 12 11.31ZM1.98556 17.1494C3.64823 15.5903 5.40574 14.4923 7.14418 13.7909L6.78765 17.6208L3.70046 19.5503L1.98556 17.1494ZM17.2124 17.6208L16.8558 13.791C18.5943 14.4923 20.3518 15.5903 22.0145 17.1495L20.2996 19.5503L17.2124 17.6208Z" fill="white"/>
</svg>
