<svg width="24" height="25" viewBox="0 0 24 25" fill="none" xmlns="http://www.w3.org/2000/svg">
<path fill-rule="evenodd" clip-rule="evenodd" d="M5 3.81C4.30964 3.81 3.75 4.36964 3.75 5.06C3.75 5.75035 4.30964 6.31 5 6.31C5.69036 6.31 6.25 5.75035 6.25 5.06C6.25 4.36964 5.69036 3.81 5 3.81ZM2.25 5.06C2.25 3.54121 3.48122 2.31 5 2.31C6.51878 2.31 7.75 3.54121 7.75 5.06C7.75 6.57878 6.51878 7.81 5 7.81C3.48122 7.81 2.25 6.57878 2.25 5.06ZM5 10.81C4.30964 10.81 3.75 11.3696 3.75 12.06C3.75 12.7504 4.30964 13.31 5 13.31C5.69036 13.31 6.25 12.7504 6.25 12.06C6.25 11.3696 5.69036 10.81 5 10.81ZM2.25 12.06C2.25 10.5412 3.48122 9.31 5 9.31C6.51878 9.31 7.75 10.5412 7.75 12.06C7.75 13.5788 6.51878 14.81 5 14.81C3.48122 14.81 2.25 13.5788 2.25 12.06ZM10.75 5.06C10.75 4.36964 11.3096 3.81 12 3.81C12.6904 3.81 13.25 4.36964 13.25 5.06C13.25 5.75035 12.6904 6.31 12 6.31C11.3096 6.31 10.75 5.75035 10.75 5.06ZM12 2.31C10.4812 2.31 9.25 3.54121 9.25 5.06C9.25 6.57878 10.4812 7.81 12 7.81C13.5188 7.81 14.75 6.57878 14.75 5.06C14.75 3.54121 13.5188 2.31 12 2.31ZM12 10.81C11.3096 10.81 10.75 11.3696 10.75 12.06C10.75 12.7504 11.3096 13.31 12 13.31C12.6904 13.31 13.25 12.7504 13.25 12.06C13.25 11.3696 12.6904 10.81 12 10.81ZM9.25 12.06C9.25 10.5412 10.4812 9.31 12 9.31C13.5188 9.31 14.75 10.5412 14.75 12.06C14.75 13.5788 13.5188 14.81 12 14.81C10.4812 14.81 9.25 13.5788 9.25 12.06ZM10.75 19.06C10.75 18.3696 11.3096 17.81 12 17.81C12.6904 17.81 13.25 18.3696 13.25 19.06C13.25 19.7504 12.6904 20.31 12 20.31C11.3096 20.31 10.75 19.7504 10.75 19.06ZM12 16.31C10.4812 16.31 9.25 17.5412 9.25 19.06C9.25 20.5788 10.4812 21.81 12 21.81C13.5188 21.81 14.75 20.5788 14.75 19.06C14.75 17.5412 13.5188 16.31 12 16.31ZM19 3.81C18.3096 3.81 17.75 4.36964 17.75 5.06C17.75 5.75035 18.3096 6.31 19 6.31C19.6904 6.31 20.25 5.75035 20.25 5.06C20.25 4.36964 19.6904 3.81 19 3.81ZM16.25 5.06C16.25 3.54121 17.4812 2.31 19 2.31C20.5188 2.31 21.75 3.54121 21.75 5.06C21.75 6.57878 20.5188 7.81 19 7.81C17.4812 7.81 16.25 6.57878 16.25 5.06ZM17.75 12.06C17.75 11.3696 18.3096 10.81 19 10.81C19.6904 10.81 20.25 11.3696 20.25 12.06C20.25 12.7504 19.6904 13.31 19 13.31C18.3096 13.31 17.75 12.7504 17.75 12.06ZM19 9.31C17.4812 9.31 16.25 10.5412 16.25 12.06C16.25 13.5788 17.4812 14.81 19 14.81C20.5188 14.81 21.75 13.5788 21.75 12.06C21.75 10.5412 20.5188 9.31 19 9.31Z" fill="white"/>
</svg>
