<svg width="24" height="25" viewBox="0 0 24 25" fill="none" xmlns="http://www.w3.org/2000/svg">
<path fill-rule="evenodd" clip-rule="evenodd" d="M8.35448 4.47331C10.5084 3.31809 13.2521 3.28211 15.4439 4.36931C17.5976 5.4376 19.25 7.6049 19.25 10.9778C19.25 12.2304 18.9632 13.4228 18.4922 14.5378C18.4255 14.6957 18.3551 14.852 18.2813 15.0067C18.103 15.3806 18.2615 15.8282 18.6354 16.0066C19.0092 16.1849 19.4569 16.0264 19.6352 15.6525C19.7184 15.478 19.7982 15.3009 19.874 15.1215C20.4094 13.8541 20.75 12.4633 20.75 10.9778C20.75 7.03199 18.772 4.34572 16.1105 3.02554C13.4871 1.72426 10.2307 1.7649 7.64552 3.15143C7.28049 3.3472 7.14328 3.80182 7.33906 4.16685C7.53483 4.53188 7.98945 4.66909 8.35448 4.47331ZM3.53033 3.29929C3.23744 3.0064 2.76256 3.0064 2.46967 3.29929C2.17678 3.59218 2.17678 4.06706 2.46967 4.35995L4.40579 6.29607C3.67309 7.58643 3.25 9.15298 3.25 10.9778C3.25 14.722 5.40849 17.8639 7.45717 20.0137C8.49132 21.0989 9.52311 21.9584 10.2959 22.5467C10.6829 22.8414 11.0065 23.0692 11.2352 23.2244C11.3495 23.3021 11.4402 23.3616 11.5034 23.4024C11.535 23.4228 11.5596 23.4385 11.577 23.4495L11.5973 23.4623L11.6033 23.466L11.6051 23.4671L11.6058 23.4675C11.6061 23.4677 11.6063 23.4678 12.0002 22.8296L11.6063 23.4678C11.8478 23.6169 12.1527 23.6169 12.3942 23.4678L12.0002 22.8296C12.3942 23.4678 12.3943 23.4677 12.3945 23.4676L12.3948 23.4674L12.3957 23.4669L12.3982 23.4653L12.4065 23.4602L12.4354 23.442C12.46 23.4263 12.4953 23.4037 12.5403 23.3743C12.6304 23.3155 12.7597 23.2295 12.9211 23.1174C13.2439 22.8933 13.6962 22.5647 14.222 22.1416C15.1177 21.4209 16.2368 20.4183 17.2934 19.1836L20.4697 22.3599C20.7626 22.6528 21.2374 22.6528 21.5303 22.3599C21.8232 22.0671 21.8232 21.5922 21.5303 21.2993L17.7684 17.5373L5.88634 5.6553L3.53033 3.29929ZM4.75 10.9778C4.75 9.57421 5.03617 8.38773 5.51559 7.40587L16.2292 18.1195C15.2288 19.3037 14.1509 20.2736 13.2817 20.9729C12.7872 21.3708 12.3637 21.6783 12.0657 21.8852L12.0002 21.9304C11.7971 21.7908 11.5248 21.5971 11.2045 21.3532C10.4772 20.7996 9.50896 19.9925 8.54306 18.9789C6.59162 16.9311 4.75 14.1471 4.75 10.9778ZM11.2499 8.70745C11.4836 8.62488 11.7357 8.57962 12 8.57962C13.2426 8.57962 14.25 9.58698 14.25 10.8296C14.25 11.0939 14.2047 11.3461 14.1222 11.5797C13.9841 11.9702 14.1888 12.3987 14.5794 12.5367C14.9699 12.6748 15.3984 12.4701 15.5364 12.0796C15.675 11.6876 15.75 11.2666 15.75 10.8296C15.75 8.75855 14.0711 7.07962 12 7.07962C11.563 7.07962 11.142 7.15466 10.7501 7.29319C10.3595 7.43123 10.1548 7.85972 10.2929 8.25026C10.4309 8.6408 10.8594 8.84549 11.2499 8.70745Z" fill="white"/>
</svg>
