<svg width="24" height="25" viewBox="0 0 24 25" fill="none" xmlns="http://www.w3.org/2000/svg">
<path fill-rule="evenodd" clip-rule="evenodd" d="M4.75 10.9778C4.75 8.46046 5.66985 6.62991 7.00337 5.42261C8.34965 4.20375 10.1636 3.57959 12 3.57959C13.8364 3.57959 15.6504 4.20377 16.9966 5.42263C18.3301 6.62994 19.25 8.46048 19.25 10.9778C19.25 14.1471 17.4085 16.9312 15.4572 18.9789C14.4913 19.9925 13.5231 20.7996 12.7959 21.3533C12.4756 21.5971 12.2033 21.7908 12.0002 21.9304C11.7971 21.7908 11.5248 21.5971 11.2045 21.3532C10.4772 20.7996 9.50896 19.9925 8.54306 18.9789C6.59162 16.9311 4.75 14.1471 4.75 10.9778ZM11.6058 23.4675C11.6061 23.4677 11.6063 23.4678 12.0002 22.8296L11.6063 23.4678C11.8478 23.6169 12.1527 23.6169 12.3942 23.4678L12.0002 22.8296C12.3942 23.4678 12.3944 23.4677 12.3947 23.4675L12.3953 23.4671L12.3972 23.4659L12.4031 23.4623L12.4235 23.4495C12.4408 23.4385 12.4655 23.4228 12.4971 23.4024C12.5602 23.3616 12.6509 23.3021 12.7653 23.2244C12.9939 23.0692 13.3175 22.8413 13.7045 22.5467C14.4773 21.9584 15.509 21.0989 16.5431 20.0137C18.5916 17.8639 20.75 14.722 20.75 10.9778C20.75 8.06296 19.6699 5.81942 18.0034 4.31066C16.3496 2.81346 14.1636 2.0796 12 2.07959C9.83643 2.07958 7.65035 2.81344 5.99663 4.31064C4.33015 5.8194 3.25 8.06294 3.25 10.9778C3.25 14.722 5.40849 17.8639 7.45717 20.0137C8.49132 21.0989 9.52311 21.9584 10.2959 22.5467C10.6829 22.8414 11.0065 23.0692 11.2352 23.2244C11.3495 23.3021 11.4402 23.3616 11.5034 23.4024C11.535 23.4228 11.5596 23.4385 11.577 23.4495L11.5973 23.4623L11.6033 23.466L11.6051 23.4671L11.6058 23.4675ZM10.0303 8.79929C9.73744 8.5064 9.26256 8.5064 8.96967 8.79929C8.67678 9.09218 8.67678 9.56706 8.96967 9.85995L10.9393 11.8296L8.96967 13.7993C8.67678 14.0922 8.67678 14.5671 8.96967 14.86C9.26256 15.1528 9.73744 15.1528 10.0303 14.86L12 12.8903L13.9697 14.86C14.2626 15.1528 14.7374 15.1528 15.0303 14.86C15.3232 14.5671 15.3232 14.0922 15.0303 13.7993L13.0607 11.8296L15.0303 9.85995C15.3232 9.56706 15.3232 9.09218 15.0303 8.79929C14.7374 8.5064 14.2626 8.5064 13.9697 8.79929L12 10.769L10.0303 8.79929Z" fill="white"/>
</svg>
