<svg width="24" height="25" viewBox="0 0 24 25" fill="none" xmlns="http://www.w3.org/2000/svg">
<path fill-rule="evenodd" clip-rule="evenodd" d="M12 3.57959C10.2051 3.57959 8.75 5.03466 8.75 6.82959C8.75 8.62452 10.2051 10.0796 12 10.0796C13.7949 10.0796 15.25 8.62452 15.25 6.82959C15.25 5.03466 13.7949 3.57959 12 3.57959ZM12.75 11.5207C15.017 11.1611 16.75 9.19774 16.75 6.82959C16.75 4.20624 14.6234 2.07959 12 2.07959C9.37665 2.07959 7.25 4.20624 7.25 6.82959C7.25 9.19774 8.98301 11.1611 11.25 11.5207V17.8296C11.25 18.2438 11.5858 18.5796 12 18.5796C12.4142 18.5796 12.75 18.2438 12.75 17.8296V11.5207ZM8.73235 14.0836C8.82168 14.4881 8.56622 14.8884 8.16175 14.9777C6.74115 15.2915 5.59304 15.7645 4.81985 16.3077C4.03332 16.8602 3.75 17.3951 3.75 17.8296C3.75 18.1378 3.88743 18.4879 4.25056 18.8695C4.61737 19.2549 5.18359 19.6362 5.94064 19.9726C7.45286 20.6447 9.59454 21.0796 12 21.0796C14.4055 21.0796 16.5471 20.6447 18.0594 19.9726C18.8164 19.6362 19.3826 19.2549 19.7494 18.8695C20.1126 18.4879 20.25 18.1378 20.25 17.8296C20.25 17.3951 19.9667 16.8602 19.1802 16.3077C18.407 15.7645 17.2589 15.2915 15.8382 14.9777C15.4338 14.8884 15.1783 14.4881 15.2677 14.0836C15.357 13.6791 15.7573 13.4237 16.1618 13.513C17.7046 13.8538 19.0565 14.3876 20.0424 15.0803C21.015 15.7636 21.75 16.6935 21.75 17.8296C21.75 18.6259 21.3838 19.3281 20.836 19.9036C20.292 20.4753 19.5402 20.956 18.6686 21.3434C16.9234 22.119 14.5651 22.5796 12 22.5796C9.4349 22.5796 7.07658 22.119 5.33143 21.3434C4.45981 20.956 3.70801 20.4753 3.16397 19.9036C2.61625 19.3281 2.25 18.6259 2.25 17.8296C2.25 16.6935 2.98496 15.7636 3.95758 15.0803C4.94353 14.3876 6.29541 13.8538 7.83825 13.513C8.24271 13.4237 8.64301 13.6791 8.73235 14.0836Z" fill="white"/>
</svg>
