<svg width="24" height="25" viewBox="0 0 24 25" fill="none" xmlns="http://www.w3.org/2000/svg">
<path fill-rule="evenodd" clip-rule="evenodd" d="M6.75 9.34812C6.75 7.35808 7.43156 5.93008 8.396 4.99871C9.36949 4.05861 10.6775 3.57959 12 3.57959C13.3225 3.57959 14.6305 4.05862 15.604 4.99873C16.5684 5.9301 17.25 7.3581 17.25 9.34812C17.25 11.8436 15.8904 14.0406 14.4408 15.6633C13.7237 16.466 13.0047 17.1053 12.4648 17.5437C12.2879 17.6874 12.1308 17.809 12.0002 17.9072C11.8695 17.809 11.7124 17.6874 11.5354 17.5437C10.9956 17.1053 10.2765 16.4659 9.55939 15.6632C8.10964 14.0405 6.75 11.8436 6.75 9.34812ZM11.5873 19.4557C11.5875 19.4559 11.5877 19.456 12.0002 18.8296L11.5877 19.456C11.838 19.6208 12.1624 19.6208 12.4126 19.456L12.0002 18.8296C12.4126 19.456 12.4128 19.4558 12.4131 19.4557L12.4137 19.4553L12.4153 19.4542L12.4202 19.451L12.4363 19.4402C12.4498 19.4311 12.4689 19.4181 12.4932 19.4014C12.5417 19.368 12.6109 19.3195 12.6979 19.2564C12.8719 19.1304 13.1173 18.9461 13.4104 18.7081C13.9956 18.2329 14.7765 17.5389 15.5594 16.6626C17.1097 14.9273 18.75 12.3835 18.75 9.34812C18.75 6.99247 17.9316 5.16121 16.646 3.91973C15.3695 2.687 13.6775 2.07959 12 2.07959C10.3225 2.07959 8.63051 2.68698 7.354 3.91971C6.06844 5.16119 5.25 6.99246 5.25 9.34812C5.25 12.3835 6.89045 14.9273 8.44079 16.6626C9.2237 17.5389 10.0047 18.2329 10.5899 18.7081C10.883 18.9461 11.1285 19.1305 11.3024 19.2565C11.3894 19.3195 11.4587 19.368 11.5072 19.4014C11.5315 19.4181 11.5505 19.4311 11.5641 19.4402L11.5802 19.451L11.5851 19.4542L11.5867 19.4553L11.5873 19.4557ZM12 7.57959C11.3096 7.57959 10.75 8.13923 10.75 8.82959C10.75 9.51995 11.3096 10.0796 12 10.0796C12.6904 10.0796 13.25 9.51995 13.25 8.82959C13.25 8.13923 12.6904 7.57959 12 7.57959ZM9.25 8.82959C9.25 7.31081 10.4812 6.07959 12 6.07959C13.5188 6.07959 14.75 7.31081 14.75 8.82959C14.75 10.3484 13.5188 11.5796 12 11.5796C10.4812 11.5796 9.25 10.3484 9.25 8.82959ZM5.68787 16.3771C5.85294 16.757 5.67879 17.1988 5.29889 17.3638C4.72123 17.6148 4.31008 17.8795 4.0546 18.1287C3.80118 18.3758 3.75 18.5557 3.75 18.6651C3.75 18.7908 3.8206 19.0158 4.18671 19.3201C4.54835 19.6208 5.11663 19.9251 5.88481 20.1952C7.41435 20.733 9.57636 21.0796 12 21.0796C14.4236 21.0796 16.5856 20.733 18.1152 20.1952C18.8834 19.9251 19.4516 19.6208 19.8133 19.3201C20.1794 19.0158 20.25 18.7908 20.25 18.6651C20.25 18.5557 20.1988 18.3758 19.9454 18.1287C19.6899 17.8795 19.2788 17.6148 18.7011 17.3638C18.3212 17.1988 18.1471 16.757 18.3121 16.3771C18.4772 15.9972 18.919 15.823 19.2989 15.9881C19.972 16.2806 20.5609 16.6337 20.9927 17.0548C21.4266 17.478 21.75 18.0209 21.75 18.6651C21.75 19.4133 21.3169 20.0208 20.7722 20.4736C20.223 20.9302 19.4732 21.3077 18.6127 21.6103C16.8849 22.2178 14.5469 22.5796 12 22.5796C9.45308 22.5796 7.11508 22.2178 5.38726 21.6103C4.52677 21.3077 3.77703 20.9302 3.22782 20.4736C2.68308 20.0208 2.25 19.4133 2.25 18.6651C2.25 18.0209 2.57342 17.478 3.0073 17.0548C3.43912 16.6337 4.02797 16.2806 4.70111 15.9881C5.08101 15.823 5.5228 15.9972 5.68787 16.3771Z" fill="white"/>
</svg>
