<svg width="24" height="25" viewBox="0 0 24 25" fill="none" xmlns="http://www.w3.org/2000/svg">
<path d="M7.24342 13.1921L6.69088 12.7046C6.52482 12.8685 6.44526 13.0918 6.47495 13.3105C6.50464 13.5292 6.64031 13.7193 6.84319 13.8264L7.24342 13.1921ZM7.65739 12.5361L6.89117 12.4576L6.89117 12.4576L7.65739 12.5361ZM5.86486 11.5892L5.51572 10.9554L5.51572 10.9554L5.86486 11.5892ZM5.24391 12.5732L4.47508 12.5129L5.24391 12.5732ZM5.54702 13.6081L4.88388 13.2578L5.54702 13.6081ZM4.41597 13.8853L3.97443 13.3063L4.41597 13.8853ZM3.79502 14.8694L3.02057 14.9097L3.02057 14.9097L3.79502 14.8694ZM5.58755 15.8163L5.13012 15.2485L5.58755 15.8163ZM17.9987 18.8737L17.5985 19.508C17.8013 19.6152 18.0491 19.6276 18.271 19.5418C18.4928 19.456 18.6643 19.2813 18.7365 19.0677L17.9987 18.8737ZM18.4126 18.2176L18.8701 18.7855L18.4126 18.2176ZM20.2051 19.1646L20.9796 19.1243L20.9796 19.1243L20.2051 19.1646ZM19.5841 20.1486L20.0257 20.7277L19.5841 20.1486ZM18.4532 20.4259L18.454 19.7018C18.1824 19.7113 17.9304 19.8531 17.79 20.0756C17.6496 20.2981 17.6414 20.5686 17.7683 20.7887L18.4532 20.4259ZM18.7562 21.4607L19.525 21.5211L18.7562 21.4607ZM18.1353 22.4448L18.4844 23.0786L18.1353 22.4448ZM16.3428 21.4979L15.5766 21.4194L16.3428 21.4979ZM16.7568 20.8419L17.3093 21.3295C17.4754 21.1655 17.5549 20.9423 17.5252 20.7236C17.4955 20.5049 17.3599 20.3148 17.157 20.2076L16.7568 20.8419ZM6.0015 15.1603L6.40174 14.526C6.19886 14.4189 5.9511 14.4064 5.72926 14.4922C5.50742 14.578 5.33591 14.7527 5.26373 14.9663L6.0015 15.1603ZM14.0679 19.4215L13.6623 20.0529L13.6677 20.0558L14.0679 19.4215ZM12.7109 17.8403C12.3465 17.644 11.8694 17.7675 11.6453 18.1162C11.4213 18.4648 11.5351 18.9067 11.8995 19.1031L12.7109 17.8403ZM15.0379 16.464C14.6716 16.2705 14.1956 16.3976 13.9745 16.7479C13.7535 17.0982 13.8712 17.539 14.2374 17.7325L15.0379 16.464ZM11.5486 16.3121C11.9149 16.5056 12.391 16.3785 12.612 16.0282C12.833 15.6779 12.7153 15.237 12.3491 15.0436L11.5486 16.3121ZM8.96229 17.5701C9.32854 17.7636 9.80464 17.6364 10.0257 17.2861C10.2467 16.9358 10.129 16.495 9.76276 16.3015L8.96229 17.5701ZM7.24342 13.1921C7.79596 13.6797 7.79606 13.6796 7.79615 13.6795C7.79619 13.6795 7.79629 13.6794 7.79636 13.6793C7.79649 13.6792 7.79663 13.6791 7.79678 13.6789C7.79708 13.6786 7.7974 13.6783 7.79774 13.678C7.79843 13.6773 7.79921 13.6765 7.80008 13.6756C7.80182 13.6739 7.80392 13.6718 7.80636 13.6693C7.81123 13.6644 7.81748 13.658 7.82493 13.6503C7.83978 13.635 7.85959 13.6141 7.88286 13.5885C7.92884 13.5381 7.99119 13.4664 8.05655 13.3812C8.16435 13.2407 8.37075 12.9503 8.42361 12.6146L6.89117 12.4576C6.89688 12.4213 6.90517 12.4176 6.88583 12.4532C6.86907 12.4839 6.84306 12.5231 6.80968 12.5666C6.77731 12.6088 6.74481 12.6463 6.72038 12.6731C6.70844 12.6862 6.69915 12.696 6.69371 12.7016C6.691 12.7044 6.68931 12.7061 6.68877 12.7066C6.6885 12.7069 6.68853 12.7069 6.68888 12.7065C6.68905 12.7064 6.6893 12.7061 6.68963 12.7058C6.6898 12.7056 6.68999 12.7054 6.69019 12.7052C6.6903 12.7051 6.69041 12.705 6.69052 12.7049C6.69058 12.7049 6.69067 12.7048 6.6907 12.7047C6.69079 12.7046 6.69088 12.7046 7.24342 13.1921ZM8.42361 12.6146C8.54854 11.8212 7.95824 11.2674 7.45892 11.0137C6.94914 10.7547 6.18377 10.616 5.51572 10.9554L6.214 12.223C6.22607 12.2168 6.27469 12.1985 6.37193 12.2053C6.46789 12.2121 6.57854 12.2419 6.67982 12.2933C6.78263 12.3456 6.84594 12.4046 6.87528 12.4459C6.90109 12.4822 6.88725 12.4825 6.89117 12.4576L8.42361 12.6146ZM5.51572 10.9554C5.17207 11.1299 4.9133 11.3701 4.73915 11.6706C4.57498 11.9538 4.50913 12.2516 4.47508 12.5129L6.01274 12.6336C6.03612 12.4543 6.06873 12.3677 6.09467 12.3229C6.11063 12.2954 6.13361 12.2638 6.214 12.223L5.51572 10.9554ZM4.47508 12.5129C4.43854 12.7932 4.51563 13.0233 4.5957 13.1847C4.66715 13.3288 4.7693 13.4674 4.80488 13.5191C4.86269 13.6031 4.84824 13.5962 4.83688 13.5539C4.81416 13.4694 4.82426 13.3523 4.88388 13.2578L6.21016 13.9585C6.38411 13.6828 6.40672 13.3977 6.34014 13.1501C6.28492 12.9447 6.17025 12.7796 6.11693 12.7021C6.04138 12.5923 6.0215 12.5661 6.00546 12.5338C5.99804 12.5188 6.0222 12.5611 6.01274 12.6336L4.47508 12.5129ZM4.88388 13.2578C4.9435 13.1633 5.04931 13.0968 5.14067 13.0725C5.18633 13.0604 5.20016 13.0683 5.09174 13.0645C5.02502 13.0622 4.84272 13.0506 4.67067 13.066C4.47786 13.0832 4.22147 13.1372 3.97443 13.3063L4.85752 14.4644C4.79356 14.5082 4.74151 14.5101 4.75936 14.5085C4.79799 14.5051 4.83269 14.5077 4.97438 14.5127C5.07437 14.5162 5.28802 14.5245 5.50998 14.4656C5.77763 14.3946 6.03621 14.2341 6.21016 13.9585L4.88388 13.2578ZM3.97443 13.3063C3.74415 13.4639 3.49523 13.665 3.30919 13.9367C3.11185 14.225 3.01396 14.5501 3.02057 14.9097L4.56948 14.8292C4.56794 14.7451 4.58634 14.711 4.60443 14.6846C4.63382 14.6417 4.69945 14.5726 4.85752 14.4644L3.97443 13.3063ZM3.02057 14.9097C3.03342 15.6087 3.54735 16.1458 4.04736 16.4203C4.53711 16.6891 5.35652 16.8799 6.04499 16.3842L5.13012 15.2485C5.15171 15.2329 5.1584 15.244 5.11114 15.2417C5.05741 15.2391 4.96983 15.2185 4.86899 15.1631C4.76965 15.1086 4.68611 15.0358 4.63175 14.9631C4.57667 14.8895 4.56971 14.8418 4.56948 14.8292L3.02057 14.9097ZM18.8701 18.7855C18.8484 18.801 18.8417 18.79 18.889 18.7923C18.9427 18.7949 19.0303 18.8155 19.1311 18.8708C19.2305 18.9254 19.314 18.9981 19.3684 19.0708C19.4235 19.1445 19.4304 19.1922 19.4306 19.2048L20.9796 19.1243C20.9667 18.4253 20.4528 17.8881 19.9527 17.6137C19.463 17.3449 18.6435 17.154 17.9551 17.6498L18.8701 18.7855ZM19.4306 19.2048C19.4322 19.2889 19.4138 19.3229 19.3957 19.3493C19.3663 19.3923 19.3007 19.4614 19.1426 19.5696L20.0257 20.7277C20.256 20.57 20.5049 20.369 20.6909 20.0973C20.8883 19.809 20.9862 19.4839 20.9796 19.1243L19.4306 19.2048ZM19.1426 19.5696C19.1467 19.5668 19.1185 19.5851 19.0377 19.6099C18.9629 19.6328 18.8732 19.6521 18.7792 19.6672C18.6868 19.682 18.6016 19.6909 18.5395 19.6961C18.5089 19.6986 18.485 19.7001 18.4698 19.701C18.4623 19.7014 18.457 19.7017 18.4543 19.7018C18.4529 19.7019 18.4522 19.7019 18.4521 19.7019C18.4521 19.7019 18.4522 19.7019 18.4526 19.7019C18.4527 19.7019 18.4529 19.7019 18.4532 19.7018C18.4533 19.7018 18.4534 19.7018 18.4536 19.7018C18.4536 19.7018 18.4538 19.7018 18.4538 19.7018C18.4539 19.7018 18.454 19.7018 18.4532 20.4259C18.4523 21.15 18.4524 21.15 18.4525 21.15C18.4526 21.15 18.4527 21.15 18.4528 21.15C18.453 21.15 18.4532 21.15 18.4534 21.15C18.4539 21.1499 18.4544 21.1499 18.4549 21.1499C18.4559 21.1499 18.4572 21.1498 18.4586 21.1498C18.4615 21.1497 18.4651 21.1495 18.4694 21.1493C18.4781 21.1489 18.4896 21.1483 18.5037 21.1476C18.5318 21.146 18.5704 21.1435 18.6172 21.1396C18.71 21.1319 18.8389 21.1185 18.9835 21.0953C19.2333 21.0553 19.6789 20.965 20.0257 20.7277L19.1426 19.5696ZM18.4532 20.4259C17.7683 20.7887 17.7682 20.7886 17.7681 20.7885C17.7681 20.7884 17.7681 20.7883 17.768 20.7883C17.768 20.7882 17.7679 20.788 17.7678 20.7879C17.7677 20.7877 17.7676 20.7876 17.7676 20.7875C17.7674 20.7872 17.7673 20.7871 17.7674 20.7871C17.7674 20.7871 17.7677 20.7877 17.7683 20.7888C17.7696 20.7911 17.772 20.7954 17.7754 20.8016C17.7821 20.814 17.7927 20.8337 17.8056 20.8593C17.8317 20.911 17.8659 20.983 17.898 21.0636C17.9308 21.1457 17.9573 21.2264 17.9731 21.2971C17.99 21.3735 17.9868 21.405 17.9874 21.4003L19.525 21.5211C19.5763 21.1276 19.4389 20.7294 19.3519 20.5115C19.3016 20.3853 19.2498 20.2764 19.2107 20.1991C19.191 20.1601 19.174 20.1282 19.1615 20.1051C19.1552 20.0935 19.1499 20.0841 19.146 20.0771C19.144 20.0736 19.1423 20.0706 19.141 20.0683C19.1404 20.0671 19.1398 20.0661 19.1393 20.0653C19.139 20.0648 19.1388 20.0645 19.1386 20.0641C19.1385 20.0639 19.1384 20.0638 19.1383 20.0636C19.1383 20.0635 19.1382 20.0634 19.1382 20.0634C19.1381 20.0633 19.1381 20.0632 18.4532 20.4259ZM17.9874 21.4003C17.964 21.5797 17.9314 21.6663 17.9055 21.7111C17.8895 21.7386 17.8665 21.7702 17.7861 21.811L18.4844 23.0786C18.828 22.904 19.0868 22.6639 19.261 22.3634C19.4251 22.0801 19.491 21.7824 19.525 21.5211L17.9874 21.4003ZM17.7861 21.811C17.7741 21.8171 17.7254 21.8355 17.6282 21.8286C17.5323 21.8219 17.4216 21.7921 17.3204 21.7406C17.2176 21.6884 17.1542 21.6293 17.1249 21.5881C17.0991 21.5518 17.113 21.5516 17.109 21.5764L15.5766 21.4194C15.4517 22.2128 16.042 22.7666 16.5413 23.0203C17.051 23.2792 17.8164 23.4179 18.4844 23.0786L17.7861 21.811ZM17.9987 18.8737C18.7365 19.0677 18.7364 19.0678 18.7364 19.0679C18.7364 19.0679 18.7364 19.0681 18.7363 19.0681C18.7363 19.0683 18.7362 19.0684 18.7362 19.0686C18.7361 19.0688 18.736 19.0691 18.7359 19.0693C18.7358 19.0697 18.7357 19.07 18.7356 19.0703C18.7355 19.0707 18.7354 19.0707 18.7356 19.0704C18.7358 19.0697 18.7366 19.0675 18.7379 19.0639C18.7405 19.0568 18.7451 19.0446 18.7515 19.0286C18.7647 18.9958 18.7839 18.9513 18.8076 18.9046C18.8321 18.8564 18.8562 18.8161 18.8769 18.7875C18.9009 18.7544 18.9015 18.7628 18.8701 18.7855L17.9551 17.6498C17.6638 17.8596 17.4922 18.1683 17.4131 18.324C17.3651 18.4184 17.3285 18.5037 17.3037 18.5653C17.2912 18.5965 17.2813 18.6227 17.2742 18.6421C17.2706 18.6519 17.2677 18.66 17.2655 18.6664C17.2644 18.6695 17.2635 18.6722 17.2627 18.6745C17.2623 18.6756 17.262 18.6766 17.2617 18.6775C17.2615 18.6779 17.2614 18.6783 17.2612 18.6787C17.2612 18.6789 17.2611 18.6791 17.2611 18.6793C17.261 18.6794 17.261 18.6795 17.261 18.6795C17.2609 18.6797 17.2609 18.6798 17.9987 18.8737ZM17.109 21.5764C17.1033 21.6127 17.095 21.6164 17.1144 21.5809C17.1311 21.5501 17.1571 21.5109 17.1905 21.4674C17.2229 21.4252 17.2554 21.3878 17.2798 21.3609C17.2917 21.3479 17.301 21.3381 17.3065 21.3325C17.3092 21.3297 17.3109 21.3279 17.3114 21.3274C17.3117 21.3271 17.3117 21.3272 17.3113 21.3275C17.3111 21.3277 17.3109 21.3279 17.3106 21.3283C17.3104 21.3284 17.3102 21.3286 17.31 21.3288C17.3099 21.3289 17.3098 21.329 17.3097 21.3291C17.3096 21.3292 17.3095 21.3293 17.3095 21.3293C17.3094 21.3294 17.3093 21.3295 16.7568 20.8419C16.2042 20.3543 16.2041 20.3544 16.204 20.3545C16.204 20.3545 16.2039 20.3546 16.2038 20.3547C16.2037 20.3548 16.2036 20.355 16.2034 20.3551C16.2031 20.3554 16.2028 20.3557 16.2024 20.3561C16.2018 20.3568 16.201 20.3575 16.2001 20.3584C16.1984 20.3601 16.1963 20.3622 16.1938 20.3647C16.189 20.3696 16.1827 20.376 16.1753 20.3837C16.1604 20.3991 16.1406 20.42 16.1173 20.4455C16.0714 20.496 16.009 20.5676 15.9437 20.6528C15.8358 20.7933 15.6295 21.0837 15.5766 21.4194L17.109 21.5764ZM6.0015 15.1603C5.26373 14.9663 5.26377 14.9662 5.26381 14.966C5.26383 14.966 5.26386 14.9659 5.26389 14.9658C5.26394 14.9657 5.26399 14.9655 5.26403 14.9654C5.26412 14.9651 5.26421 14.9649 5.26428 14.9647C5.26442 14.9642 5.26454 14.9639 5.26461 14.9637C5.26477 14.9632 5.26478 14.9632 5.26466 14.9636C5.26441 14.9643 5.26363 14.9665 5.26234 14.97C5.25973 14.9771 5.25513 14.9894 5.24871 15.0054C5.23555 15.0381 5.21634 15.0826 5.19258 15.1294C5.16808 15.1776 5.144 15.2178 5.12326 15.2464C5.09932 15.2795 5.09863 15.2711 5.13012 15.2485L6.04499 16.3842C6.33631 16.1745 6.50792 15.8658 6.58704 15.7101C6.63501 15.6157 6.67165 15.5305 6.6964 15.4688C6.70893 15.4376 6.71881 15.4115 6.72594 15.392C6.72951 15.3823 6.73241 15.3741 6.73463 15.3678C6.73575 15.3646 6.73669 15.3619 6.73746 15.3597C6.73785 15.3585 6.73819 15.3575 6.7385 15.3566C6.73865 15.3562 6.73879 15.3558 6.73892 15.3554C6.73898 15.3552 6.73904 15.355 6.7391 15.3549C6.73913 15.3548 6.73918 15.3546 6.73919 15.3546C6.73923 15.3545 6.73927 15.3544 6.0015 15.1603ZM9.09055 15.9464L6.40174 14.526L5.60127 15.7946L8.29009 17.215L9.09055 15.9464ZM17.157 20.2076L14.4682 18.7872L13.6677 20.0558L16.3565 21.4762L17.157 20.2076ZM6.84319 13.8264L9.532 15.2468L10.3325 13.9783L7.64365 12.5579L6.84319 13.8264ZM14.9096 18.0876L17.5985 19.508L18.3989 18.2394L15.7101 16.8191L14.9096 18.0876ZM9.532 15.2468L10.8764 15.957L11.6769 14.6885L10.3325 13.9783L9.532 15.2468ZM14.4736 18.7901L12.7109 17.8403L11.8995 19.1031L13.6623 20.0529L14.4736 18.7901ZM14.2374 17.7325L14.9096 18.0876L15.7101 16.8191L15.0379 16.464L14.2374 17.7325ZM10.8764 15.957L11.5486 16.3121L12.3491 15.0436L11.6769 14.6885L10.8764 15.957ZM9.76276 16.3015L9.09055 15.9464L8.29009 17.215L8.96229 17.5701L9.76276 16.3015Z" fill="white"/>
<path d="M16.7568 13.1921L17.3094 12.7045C17.4754 12.8685 17.555 13.0918 17.5253 13.3105C17.4956 13.5291 17.3599 13.7192 17.157 13.8264L16.7568 13.1921ZM16.3428 12.5361L17.1091 12.4576L16.3428 12.5361ZM18.1354 11.5892L17.7862 12.223L18.1354 11.5892ZM18.7563 12.5732L19.5252 12.5129L18.7563 12.5732ZM18.4532 13.6081L17.7901 13.9585L18.4532 13.6081ZM19.5843 13.8853L20.0258 13.3063L19.5843 13.8853ZM20.2052 14.8694L20.9797 14.9096L20.9797 14.9096L20.2052 14.8694ZM18.4127 15.8163L18.8701 15.2484L18.4127 15.8163ZM6.00156 18.8737L6.40179 19.508C6.1989 19.6152 5.95112 19.6276 5.72926 19.5418C5.50741 19.4559 5.3359 19.2813 5.26375 19.0677L6.00156 18.8737ZM5.58767 18.2176L5.13018 18.7855L5.58767 18.2176ZM3.79514 19.1646L3.02069 19.1243L3.79514 19.1646ZM4.41609 20.1486L3.97453 20.7277L4.41609 20.1486ZM5.54707 20.4259L5.54619 19.7018C5.81787 19.7113 6.06985 19.8531 6.21023 20.0756C6.35061 20.2981 6.35887 20.5686 6.23199 20.7886L5.54707 20.4259ZM5.24403 21.4607L4.4752 21.5211L5.24403 21.4607ZM5.86498 22.4448L5.51586 23.0786L5.86498 22.4448ZM7.65742 21.4979L8.42365 21.4194L7.65742 21.4979ZM7.24347 20.8419L6.69093 21.3295C6.52487 21.1655 6.44532 20.9423 6.47501 20.7236C6.5047 20.5049 6.64037 20.3148 6.84324 20.2076L7.24347 20.8419ZM17.9987 15.1603L17.5985 14.526C17.8014 14.4189 18.0491 14.4064 18.271 14.4922C18.4928 14.578 18.6643 14.7527 18.7365 14.9663L17.9987 15.1603ZM16.7568 13.1921C16.2043 13.6797 16.2042 13.6796 16.2041 13.6795C16.204 13.6795 16.204 13.6794 16.2039 13.6793C16.2037 13.6792 16.2036 13.6791 16.2035 13.6789C16.2032 13.6786 16.2028 13.6783 16.2025 13.678C16.2018 13.6773 16.201 13.6765 16.2002 13.6756C16.1984 13.6739 16.1963 13.6718 16.1939 13.6693C16.189 13.6644 16.1828 13.658 16.1753 13.6503C16.1605 13.635 16.1406 13.6141 16.1174 13.5885C16.0714 13.5381 16.009 13.4664 15.9437 13.3812C15.8359 13.2407 15.6295 12.9503 15.5766 12.6146L17.1091 12.4576C17.1034 12.4213 17.0951 12.4176 17.1144 12.4531C17.1312 12.4839 17.1572 12.5231 17.1906 12.5666C17.2229 12.6088 17.2554 12.6463 17.2799 12.6731C17.2918 12.6862 17.3011 12.6959 17.3065 12.7016C17.3092 12.7044 17.3109 12.7061 17.3115 12.7066C17.3117 12.7069 17.3117 12.7069 17.3114 12.7065C17.3112 12.7064 17.3109 12.7061 17.3106 12.7058C17.3104 12.7056 17.3103 12.7054 17.31 12.7052C17.3099 12.7051 17.3098 12.705 17.3097 12.7049C17.3097 12.7048 17.3096 12.7048 17.3095 12.7047C17.3095 12.7046 17.3094 12.7045 16.7568 13.1921ZM15.5766 12.6146C15.4517 11.8212 16.042 11.2673 16.5413 11.0137C17.0511 10.7547 17.8165 10.616 18.4845 10.9554L17.7862 12.223C17.7742 12.2168 17.7255 12.1985 17.6283 12.2053C17.5323 12.2121 17.4217 12.2419 17.3204 12.2933C17.2176 12.3455 17.1543 12.4046 17.125 12.4459C17.0992 12.4822 17.113 12.4824 17.1091 12.4576L15.5766 12.6146ZM18.4845 10.9554C18.8282 11.1299 19.0869 11.3701 19.2611 11.6705C19.4253 11.9538 19.4911 12.2516 19.5252 12.5129L17.9875 12.6336C17.9641 12.4542 17.9315 12.3677 17.9056 12.3229C17.8896 12.2954 17.8666 12.2638 17.7862 12.223L18.4845 10.9554ZM19.5252 12.5129C19.5617 12.7932 19.4846 13.0233 19.4045 13.1847C19.3331 13.3288 19.2309 13.4674 19.1954 13.5191C19.1375 13.6031 19.152 13.5962 19.1634 13.5539C19.1861 13.4694 19.176 13.3523 19.1164 13.2578L17.7901 13.9585C17.6161 13.6828 17.5935 13.3977 17.6601 13.1501C17.7153 12.9447 17.83 12.7796 17.8833 12.7021C17.9589 12.5923 17.9787 12.5661 17.9948 12.5338C18.0022 12.5188 17.978 12.561 17.9875 12.6336L19.5252 12.5129ZM19.1164 13.2578C19.0567 13.1633 18.9509 13.0967 18.8596 13.0725C18.8139 13.0604 18.8001 13.0683 18.9085 13.0645C18.9752 13.0622 19.1575 13.0506 19.3296 13.066C19.5224 13.0832 19.7788 13.1372 20.0258 13.3063L19.1427 14.4644C19.2067 14.5082 19.2587 14.5101 19.2409 14.5085C19.2023 14.5051 19.1675 14.5077 19.0259 14.5127C18.9259 14.5162 18.7122 14.5245 18.4903 14.4656C18.2226 14.3946 17.964 14.2341 17.7901 13.9585L19.1164 13.2578ZM20.0258 13.3063C20.2561 13.4639 20.505 13.665 20.691 13.9367C20.8884 14.225 20.9863 14.5501 20.9797 14.9096L19.4308 14.8292C19.4323 14.745 19.4139 14.711 19.3958 14.6846C19.3664 14.6417 19.3008 14.5726 19.1427 14.4644L20.0258 13.3063ZM20.9797 14.9096C20.9668 15.6087 20.4529 16.1458 19.9529 16.4203C19.4631 16.6891 18.6437 16.8799 17.9552 16.3842L18.8701 15.2484C18.8485 15.2329 18.8418 15.244 18.8891 15.2417C18.9428 15.2391 19.0304 15.2185 19.1312 15.1631C19.2306 15.1086 19.3141 15.0358 19.3685 14.9631C19.4236 14.8895 19.4305 14.8418 19.4308 14.8292L20.9797 14.9096ZM17.157 13.8264L6.40179 19.508L5.60132 18.2394L16.3566 12.5579L17.157 13.8264ZM5.13018 18.7855C5.15179 18.801 5.15852 18.7899 5.11126 18.7922C5.05755 18.7949 4.96997 18.8155 4.86913 18.8708C4.76978 18.9254 4.68624 18.9981 4.63187 19.0708C4.57678 19.1445 4.56983 19.1922 4.5696 19.2048L3.02069 19.1243C3.03354 18.4253 3.54748 17.8881 4.0475 17.6137C4.53723 17.3448 5.35669 17.154 6.04517 17.6498L5.13018 18.7855ZM4.5696 19.2048C4.56806 19.2889 4.58646 19.3229 4.60455 19.3493C4.63394 19.3923 4.69958 19.4614 4.85766 19.5696L3.97453 20.7277C3.74427 20.57 3.49535 20.369 3.30932 20.0972C3.11197 19.809 3.01407 19.4839 3.02069 19.1243L4.5696 19.2048ZM4.85766 19.5696C4.85352 19.5668 4.88172 19.5851 4.96255 19.6099C5.03736 19.6328 5.12701 19.6521 5.22107 19.6672C5.31344 19.682 5.39861 19.6909 5.46069 19.6961C5.49132 19.6986 5.51527 19.7001 5.53041 19.701C5.53795 19.7014 5.54323 19.7017 5.54597 19.7018C5.54734 19.7018 5.54806 19.7019 5.54811 19.7019C5.54814 19.7019 5.54799 19.7019 5.54768 19.7019C5.54752 19.7019 5.54731 19.7018 5.54707 19.7018C5.54694 19.7018 5.54681 19.7018 5.54666 19.7018C5.54659 19.7018 5.54647 19.7018 5.54644 19.7018C5.54632 19.7018 5.54619 19.7018 5.54707 20.4259C5.54795 21.15 5.54782 21.15 5.54769 21.15C5.54764 21.15 5.54751 21.15 5.54741 21.15C5.54722 21.15 5.54702 21.15 5.5468 21.15C5.54637 21.1499 5.54589 21.1499 5.54536 21.1499C5.5443 21.1499 5.54306 21.1498 5.54162 21.1498C5.53876 21.1496 5.53514 21.1495 5.53082 21.1493C5.52218 21.1489 5.51066 21.1483 5.49658 21.1475C5.46846 21.146 5.4298 21.1435 5.383 21.1396C5.29023 21.1319 5.16131 21.1185 5.0167 21.0953C4.76691 21.0553 4.32132 20.965 3.97453 20.7277L4.85766 19.5696ZM5.54707 20.4259C6.23199 20.7886 6.23205 20.7885 6.2321 20.7884C6.23212 20.7884 6.23217 20.7883 6.23221 20.7883C6.23227 20.7881 6.23234 20.788 6.23239 20.7879C6.23251 20.7877 6.2326 20.7876 6.23268 20.7874C6.23283 20.7872 6.23289 20.7871 6.23288 20.7871C6.23286 20.7871 6.23252 20.7877 6.2319 20.7888C6.23064 20.7911 6.22824 20.7954 6.22487 20.8016C6.21811 20.814 6.20758 20.8337 6.19467 20.8593C6.1685 20.911 6.13437 20.983 6.1022 21.0636C6.06944 21.1457 6.04289 21.2263 6.02718 21.2971C6.0102 21.3735 6.01347 21.405 6.01286 21.4003L4.4752 21.5211C4.4239 21.1276 4.5613 20.7294 4.64829 20.5115C4.69865 20.3853 4.75043 20.2764 4.78954 20.1991C4.80927 20.1601 4.82623 20.1282 4.83879 20.1051C4.84508 20.0935 4.8503 20.0841 4.85425 20.0771C4.85623 20.0736 4.8579 20.0706 4.85922 20.0683C4.85988 20.0671 4.86046 20.0661 4.86095 20.0653C4.8612 20.0648 4.86142 20.0644 4.86162 20.0641C4.86172 20.0639 4.86182 20.0638 4.86191 20.0636C4.86195 20.0635 4.86201 20.0634 4.86204 20.0634C4.8621 20.0633 4.86216 20.0632 5.54707 20.4259ZM6.01286 21.4003C6.03624 21.5797 6.06885 21.6663 6.09479 21.711C6.11074 21.7386 6.13373 21.7702 6.2141 21.811L5.51586 23.0786C5.17219 22.904 4.91342 22.6639 4.73927 22.3634C4.5751 22.0801 4.50925 21.7824 4.4752 21.5211L6.01286 21.4003ZM6.2141 21.811C6.22617 21.8171 6.27479 21.8355 6.37202 21.8286C6.46798 21.8219 6.57861 21.7921 6.67989 21.7406C6.78269 21.6884 6.84599 21.6293 6.87532 21.5881C6.90112 21.5518 6.88728 21.5515 6.8912 21.5764L8.42365 21.4194C8.54857 22.2128 7.95829 22.7666 7.45899 23.0203C6.94922 23.2792 6.18389 23.4179 5.51586 23.0786L6.2141 21.811ZM6.00156 18.8737C5.26375 19.0677 5.26379 19.0678 5.26383 19.0679C5.26384 19.0679 5.26388 19.0681 5.26391 19.0681C5.26396 19.0683 5.26401 19.0684 5.26405 19.0685C5.26414 19.0688 5.26422 19.0691 5.2643 19.0693C5.26444 19.0697 5.26455 19.07 5.26463 19.0702C5.26478 19.0707 5.2648 19.0707 5.26468 19.0704C5.26443 19.0697 5.26365 19.0675 5.26236 19.0639C5.25975 19.0568 5.25515 19.0446 5.24873 19.0286C5.23557 18.9958 5.21637 18.9513 5.19262 18.9045C5.16813 18.8563 5.14405 18.8161 5.12331 18.7875C5.09937 18.7544 5.09869 18.7628 5.13018 18.7855L6.04517 17.6498C6.33649 17.8596 6.50806 18.1683 6.58717 18.324C6.63513 18.4184 6.67175 18.5037 6.6965 18.5653C6.70903 18.5965 6.71891 18.6227 6.72603 18.6421C6.7296 18.6519 6.7325 18.66 6.73472 18.6663C6.73583 18.6695 6.73677 18.6722 6.73755 18.6745C6.73793 18.6756 6.73828 18.6766 6.73858 18.6775C6.73873 18.6779 6.73887 18.6783 6.739 18.6787C6.73907 18.6789 6.73913 18.6791 6.73919 18.6793C6.73922 18.6794 6.73926 18.6795 6.73928 18.6795C6.73932 18.6797 6.73936 18.6798 6.00156 18.8737ZM6.8912 21.5764C6.89691 21.6127 6.90521 21.6164 6.88587 21.5809C6.86912 21.5501 6.8431 21.5109 6.80973 21.4674C6.77736 21.4252 6.74486 21.3877 6.72043 21.3609C6.70849 21.3478 6.69921 21.3381 6.69376 21.3324C6.69106 21.3296 6.68936 21.3279 6.68882 21.3274C6.68856 21.3271 6.68859 21.3271 6.68893 21.3275C6.6891 21.3277 6.68935 21.3279 6.68969 21.3282C6.68985 21.3284 6.69004 21.3286 6.69025 21.3288C6.69035 21.3289 6.69046 21.329 6.69057 21.3291C6.69063 21.3292 6.69072 21.3293 6.69075 21.3293C6.69084 21.3294 6.69093 21.3295 7.24347 20.8419C7.79601 20.3543 7.79611 20.3544 7.79621 20.3545C7.79624 20.3545 7.79634 20.3546 7.79641 20.3547C7.79654 20.3548 7.79669 20.355 7.79684 20.3551C7.79713 20.3554 7.79745 20.3557 7.7978 20.3561C7.79848 20.3567 7.79926 20.3575 7.80013 20.3584C7.80187 20.3601 7.80397 20.3622 7.80641 20.3647C7.81128 20.3696 7.81753 20.376 7.82498 20.3837C7.83983 20.3991 7.85964 20.42 7.88291 20.4455C7.92889 20.4959 7.99123 20.5676 8.05659 20.6528C8.16439 20.7933 8.37078 21.0837 8.42365 21.4194L6.8912 21.5764ZM6.84324 20.2076L17.5985 14.526L18.399 15.7946L7.64371 21.4762L6.84324 20.2076ZM17.9987 15.1603C18.7365 14.9663 18.7365 14.9661 18.7364 14.966C18.7364 14.966 18.7364 14.9659 18.7363 14.9658C18.7363 14.9657 18.7363 14.9655 18.7362 14.9654C18.7361 14.9651 18.736 14.9649 18.736 14.9647C18.7358 14.9642 18.7357 14.9639 18.7356 14.9637C18.7355 14.9632 18.7355 14.9632 18.7356 14.9635C18.7358 14.9642 18.7366 14.9664 18.7379 14.97C18.7405 14.9771 18.7451 14.9894 18.7515 15.0054C18.7647 15.0381 18.7839 15.0826 18.8077 15.1294C18.8322 15.1776 18.8562 15.2178 18.877 15.2464C18.9009 15.2795 18.9016 15.2711 18.8701 15.2484L17.9552 16.3842C17.6639 16.1745 17.4923 15.8658 17.4132 15.7101C17.3652 15.6157 17.3286 15.5305 17.3038 15.4688C17.2913 15.4376 17.2814 15.4114 17.2743 15.392C17.2707 15.3822 17.2678 15.3741 17.2656 15.3678C17.2645 15.3646 17.2635 15.3619 17.2628 15.3597C17.2624 15.3585 17.262 15.3575 17.2617 15.3566C17.2616 15.3562 17.2615 15.3558 17.2613 15.3554C17.2613 15.3552 17.2612 15.355 17.2611 15.3549C17.2611 15.3548 17.2611 15.3546 17.261 15.3546C17.261 15.3545 17.261 15.3543 17.9987 15.1603Z" fill="white"/>
<path d="M17.5735 4.33741L18.2121 3.94408L17.5735 4.33741ZM16.9516 8.98255L16.4497 8.42526L16.9516 8.98255ZM15.3367 10.0148L15.9003 10.5096H15.9003L15.3367 10.0148ZM14.4646 11.5632L13.9665 11.0025L14.4646 11.5632ZM11.9777 12.0793L11.9777 11.3293L11.9777 12.0793ZM9.49067 11.5632L8.99253 12.1238L9.49067 11.5632ZM8.59502 10.0148L9.15864 9.52001L8.59502 10.0148ZM7.00375 8.98255L6.51872 9.5546L7.00375 8.98255ZM6.38208 4.3374L7.0478 4.68283L6.38208 4.3374ZM11.9777 2.82776C14.421 2.82776 16.0046 3.22043 16.9349 4.73075L18.2121 3.94408C16.8342 1.70709 14.4867 1.32776 11.9777 1.32776V2.82776ZM16.9349 4.73075C17.378 5.45014 17.5302 6.10657 17.4591 6.68576C17.3886 7.25982 17.0876 7.85078 16.4497 8.42526L17.4536 9.53984C18.3058 8.77224 18.8252 7.86791 18.9479 6.86857C19.07 5.87436 18.7881 4.87926 18.2121 3.94408L16.9349 4.73075ZM16.4497 8.42526C16.2549 8.60071 16.0898 8.66928 15.8104 8.7935C15.5169 8.92397 15.1401 9.10188 14.7731 9.52L15.9003 10.5096C16.0488 10.3404 16.1829 10.2694 16.4197 10.1642C16.6705 10.0527 17.055 9.89877 17.4536 9.53984L16.4497 8.42526ZM14.7731 9.52C14.4368 9.90301 14.3077 10.3172 14.2226 10.5517C14.134 10.7959 14.0805 10.9011 13.9665 11.0025L14.9627 12.1239C15.3729 11.7595 15.5293 11.3481 15.6327 11.0633C15.7395 10.7689 15.7843 10.6417 15.9003 10.5096L14.7731 9.52ZM13.9665 11.0025C13.7648 11.1816 13.5472 11.2659 13.2441 11.3051C12.8966 11.35 12.5343 11.3293 11.9777 11.3293L11.9777 12.8293C12.4221 12.8293 12.9615 12.8541 13.4364 12.7927C13.9556 12.7256 14.4809 12.5519 14.9627 12.1239L13.9665 11.0025ZM11.9777 11.3293C11.421 11.3293 11.0587 11.35 10.7112 11.3051C10.4081 11.266 10.1904 11.1816 9.9888 11.0025L8.99253 12.1238C9.4744 12.5519 9.99968 12.7257 10.519 12.7928C10.9938 12.8541 11.5332 12.8293 11.9777 12.8293L11.9777 11.3293ZM9.9888 11.0025C9.86873 10.8958 9.81007 10.7829 9.71574 10.538C9.6254 10.3034 9.4894 9.89678 9.15864 9.52001L8.0314 10.5096C8.15284 10.648 8.20257 10.7826 8.31596 11.0771C8.42535 11.3611 8.58842 11.7648 8.99253 12.1238L9.9888 11.0025ZM9.15864 9.52001C8.80013 9.11165 8.4461 8.93026 8.15264 8.79343C7.87652 8.66468 7.70444 8.59334 7.48878 8.41049L6.51872 9.5546C6.91552 9.89104 7.28126 10.0422 7.51876 10.1529C7.73892 10.2556 7.87429 10.3307 8.0314 10.5096L9.15864 9.52001ZM7.48878 8.41049C6.84217 7.86225 6.58068 7.28989 6.5324 6.71689C6.48191 6.11775 6.65838 5.43332 7.0478 4.68283L5.71637 3.99197C5.25089 4.88904 4.95514 5.86326 5.03769 6.84285C5.12244 7.84857 5.59924 8.77501 6.51872 9.5546L7.48878 8.41049ZM7.0478 4.68283C7.85251 3.132 9.46722 2.82776 11.9777 2.82776V1.32776C9.53588 1.32776 6.97678 1.5629 5.71637 3.99197L7.0478 4.68283Z" fill="white"/>
<path d="M9.5 5.87C9.77614 5.87 10 6.09385 10 6.37H11.5C11.5 5.26543 10.6046 4.37 9.5 4.37V5.87ZM10 6.37C10 6.64614 9.77614 6.87 9.5 6.87V8.37C10.6046 8.37 11.5 7.47456 11.5 6.37H10ZM9.5 6.87C9.22386 6.87 9 6.64614 9 6.37H7.5C7.5 7.47456 8.39543 8.37 9.5 8.37V6.87ZM9 6.37C9 6.09385 9.22386 5.87 9.5 5.87V4.37C8.39543 4.37 7.5 5.26543 7.5 6.37H9Z" fill="white"/>
<path d="M14.5 5.87C14.7761 5.87 15 6.09385 15 6.37H16.5C16.5 5.26543 15.6046 4.37 14.5 4.37V5.87ZM15 6.37C15 6.64614 14.7761 6.87 14.5 6.87V8.37C15.6046 8.37 16.5 7.47456 16.5 6.37H15ZM14.5 6.87C14.2239 6.87 14 6.64614 14 6.37H12.5C12.5 7.47456 13.3954 8.37 14.5 8.37V6.87ZM14 6.37C14 6.09385 14.2239 5.87 14.5 5.87V4.37C13.3954 4.37 12.5 5.26543 12.5 6.37H14Z" fill="white"/>
</svg>
