<svg width="24" height="25" viewBox="0 0 24 25" fill="none" xmlns="http://www.w3.org/2000/svg">
<path fill-rule="evenodd" clip-rule="evenodd" d="M1.64611 3.51868C1.88998 3.38816 2.18589 3.40247 2.41603 3.5559L10.25 8.7786V4.17993C10.25 3.90334 10.4022 3.64919 10.6461 3.51868C10.89 3.38816 11.1859 3.40247 11.416 3.5559L23.416 11.5559C23.6247 11.695 23.75 11.9292 23.75 12.1799C23.75 12.4307 23.6247 12.6649 23.416 12.804L11.416 20.804C11.1859 20.9574 10.89 20.9717 10.6461 20.8412C10.4022 20.7107 10.25 20.4565 10.25 20.1799V15.5814L2.41602 20.804C2.18588 20.9574 1.88997 20.9717 1.6461 20.8412C1.40224 20.7107 1.25 20.4565 1.25 20.1799V4.17993C1.25 3.90334 1.40224 3.64919 1.64611 3.51868ZM11.75 5.58132V10.18C11.75 10.4566 11.5978 10.7107 11.3539 10.8413C11.11 10.9718 10.8141 10.9575 10.584 10.804L2.75 5.58133V18.7786L10.584 13.556C10.8141 13.4025 11.11 13.3882 11.3539 13.5187C11.5978 13.6493 11.75 13.9034 11.75 14.18V18.7785L21.6479 12.1799L11.75 5.58132Z" fill="white"/>
</svg>
