<svg width="24" height="25" viewBox="0 0 24 25" fill="none" xmlns="http://www.w3.org/2000/svg">
<path fill-rule="evenodd" clip-rule="evenodd" d="M2 2.31C1.58579 2.31 1.25 2.64578 1.25 3.06V9.56C1.25 9.97421 1.58579 10.31 2 10.31C2.41421 10.31 2.75 9.97421 2.75 9.56V3.81H21.25V20.31H13.5C13.0858 20.31 12.75 20.6458 12.75 21.06C12.75 21.4742 13.0858 21.81 13.5 21.81H22C22.4142 21.81 22.75 21.4742 22.75 21.06V3.06C22.75 2.64578 22.4142 2.31 22 2.31H2ZM2 22.06C2.55228 22.06 3 21.6123 3 21.06C3 20.5077 2.55228 20.06 2 20.06C1.44772 20.06 1 20.5077 1 21.06C1 21.6123 1.44772 22.06 2 22.06ZM1.25 13.06C1.25 12.6458 1.58579 12.31 2 12.31C6.76714 12.31 10.75 16.3404 10.75 21.06C10.75 21.4742 10.4142 21.81 10 21.81C9.58579 21.81 9.25 21.4742 9.25 21.06C9.25 17.1637 5.93358 13.81 2 13.81C1.58579 13.81 1.25 13.4742 1.25 13.06ZM2 16.31C1.58579 16.31 1.25 16.6458 1.25 17.06C1.25 17.4742 1.58579 17.81 2 17.81C3.75842 17.81 5.25 19.3176 5.25 21.06C5.25 21.4742 5.58579 21.81 6 21.81C6.41421 21.81 6.75 21.4742 6.75 21.06C6.75 18.4944 4.59198 16.31 2 16.31Z" fill="white"/>
</svg>
