<svg width="24" height="25" viewBox="0 0 24 25" fill="none" xmlns="http://www.w3.org/2000/svg">
<path fill-rule="evenodd" clip-rule="evenodd" d="M5.41603 3.5559C5.18588 3.40247 4.88997 3.38816 4.64611 3.51868C4.40224 3.64919 4.25 3.90334 4.25 4.17993V20.1799C4.25 20.4565 4.40224 20.7107 4.64611 20.8412C4.88997 20.9717 5.18588 20.9574 5.41603 20.804L17.416 12.804C17.6247 12.6649 17.75 12.4307 17.75 12.1799C17.75 11.9292 17.6247 11.695 17.416 11.5559L5.41603 3.5559ZM15.6479 12.1799L5.75 18.7785V5.58132L15.6479 12.1799ZM20.75 5.17997C20.75 4.76575 20.4142 4.42997 20 4.42997C19.5858 4.42997 19.25 4.76575 19.25 5.17997L19.25 19.18C19.25 19.5942 19.5858 19.93 20 19.93C20.4142 19.93 20.75 19.5942 20.75 19.18V5.17997Z" fill="white"/>
</svg>
