<svg width="24" height="25" viewBox="0 0 24 25" fill="none" xmlns="http://www.w3.org/2000/svg">
<path fill-rule="evenodd" clip-rule="evenodd" d="M19.75 4.17993C19.75 3.90334 19.5978 3.64919 19.3539 3.51868C19.11 3.38816 18.8141 3.40247 18.584 3.5559L6.58397 11.5559C6.37533 11.695 6.25 11.9292 6.25 12.1799C6.25 12.4307 6.37533 12.6649 6.58397 12.804L18.584 20.804C18.8141 20.9574 19.11 20.9717 19.3539 20.8412C19.5978 20.7107 19.75 20.4565 19.75 20.1799V4.17993ZM18.25 18.7785L8.35208 12.1799L18.25 5.58132V18.7785ZM4.75 5.17987C4.75 4.76566 4.41421 4.42987 4 4.42987C3.58579 4.42987 3.25 4.76566 3.25 5.17987V19.1799C3.25 19.5941 3.58579 19.9299 4 19.9299C4.41421 19.9299 4.75 19.5941 4.75 19.1799L4.75 5.17987Z" fill="white"/>
</svg>
