<svg width="24" height="25" viewBox="0 0 24 25" fill="none" xmlns="http://www.w3.org/2000/svg">
<path fill-rule="evenodd" clip-rule="evenodd" d="M18.5303 1.6496C18.2374 1.35671 17.7626 1.35671 17.4697 1.6496C17.1768 1.94249 17.1768 2.41737 17.4697 2.71026L19.1893 4.42993H12C11.6463 4.42993 11.3407 4.67698 11.2666 5.02278L8.39369 18.4299H3C2.58579 18.4299 2.25 18.7657 2.25 19.1799C2.25 19.5941 2.58579 19.9299 3 19.9299H9C9.35365 19.9299 9.65925 19.6829 9.73335 19.3371L12.6063 5.92993H19.1893L17.4697 7.6496C17.1768 7.94249 17.1768 8.41737 17.4697 8.71026C17.7626 9.00315 18.2374 9.00315 18.5303 8.71026L21.5303 5.71026C21.8232 5.41737 21.8232 4.94249 21.5303 4.6496L18.5303 1.6496ZM18.5303 22.7103C18.2374 23.0032 17.7626 23.0032 17.4697 22.7103C17.1768 22.4174 17.1768 21.9425 17.4697 21.6496L19.1893 19.9299H13C12.5858 19.9299 12.25 19.5941 12.25 19.1799C12.25 18.7657 12.5858 18.4299 13 18.4299H19.1893L17.4697 16.7103C17.1768 16.4174 17.1768 15.9425 17.4697 15.6496C17.7626 15.3567 18.2374 15.3567 18.5303 15.6496L21.5303 18.6496C21.8232 18.9425 21.8232 19.4174 21.5303 19.7103L18.5303 22.7103ZM3 5.92993C2.58579 5.92993 2.25 5.59414 2.25 5.17993C2.25 4.76572 2.58579 4.42993 3 4.42993H8C8.41421 4.42993 8.75 4.76572 8.75 5.17993C8.75 5.59414 8.41421 5.92993 8 5.92993H3Z" fill="white"/>
</svg>
