<svg width="24" height="25" viewBox="0 0 24 25" fill="none" xmlns="http://www.w3.org/2000/svg">
<path fill-rule="evenodd" clip-rule="evenodd" d="M12.4927 0.614466C12.805 0.886567 12.8376 1.36032 12.5655 1.67263L10.9957 3.47434C11.3215 3.44528 11.6563 3.42994 12 3.42994C17.3848 3.42994 21.75 7.79517 21.75 13.1799C21.75 18.5647 17.3848 22.9299 12 22.9299C6.61522 22.9299 2.25 18.5647 2.25 13.1799C2.25 11.1767 2.85496 9.31244 3.89229 7.76275C4.1227 7.41853 4.58853 7.32628 4.93274 7.55669C5.27696 7.7871 5.36922 8.25292 5.13881 8.59714C4.26158 9.90764 3.75 11.4829 3.75 13.1799C3.75 17.7363 7.44365 21.4299 12 21.4299C16.5563 21.4299 20.25 17.7363 20.25 13.1799C20.25 8.62359 16.5563 4.92994 12 4.92994C11.5815 4.92994 11.1793 4.95607 10.7932 5.00434L12.9424 6.57432C13.2769 6.81866 13.35 7.28787 13.1056 7.62235C12.8613 7.95682 12.3921 8.0299 12.0576 7.78556L8.55759 5.22881C8.38795 5.10489 8.27806 4.91549 8.25466 4.70671C8.23127 4.49793 8.29651 4.28891 8.43452 4.13051L11.4345 0.68726C11.7066 0.374956 12.1804 0.342365 12.4927 0.614466Z" fill="white"/>
</svg>
