<svg width="24" height="25" viewBox="0 0 24 25" fill="none" xmlns="http://www.w3.org/2000/svg">
<path fill-rule="evenodd" clip-rule="evenodd" d="M3 4.42993C2.58579 4.42993 2.25 4.76572 2.25 5.17993C2.25 5.59415 2.58579 5.92993 3 5.92993H19C19.4142 5.92993 19.75 5.59415 19.75 5.17993C19.75 4.76572 19.4142 4.42993 19 4.42993H3ZM3 8.42993C2.58579 8.42993 2.25 8.76572 2.25 9.17993C2.25 9.59415 2.58579 9.92993 3 9.92993H15C15.4142 9.92993 15.75 9.59415 15.75 9.17993C15.75 8.76572 15.4142 8.42993 15 8.42993H3ZM2.25 13.1799C2.25 12.7657 2.58579 12.4299 3 12.4299H11C11.4142 12.4299 11.75 12.7657 11.75 13.1799C11.75 13.5941 11.4142 13.9299 11 13.9299H3C2.58579 13.9299 2.25 13.5941 2.25 13.1799ZM3 16.4299C2.58579 16.4299 2.25 16.7657 2.25 17.1799C2.25 17.5941 2.58579 17.9299 3 17.9299H9C9.41421 17.9299 9.75 17.5941 9.75 17.1799C9.75 16.7657 9.41421 16.4299 9 16.4299H3ZM17 17.9299C16.3096 17.9299 15.75 18.4896 15.75 19.1799C15.75 19.8703 16.3096 20.4299 17 20.4299C17.6904 20.4299 18.25 19.8703 18.25 19.1799C18.25 18.4896 17.6904 17.9299 17 17.9299ZM18.25 16.7298C17.875 16.5381 17.4501 16.4299 17 16.4299C15.4812 16.4299 14.25 17.6611 14.25 19.1799C14.25 20.6987 15.4812 21.9299 17 21.9299C18.5188 21.9299 19.75 20.6987 19.75 19.1799V12.5813L21.584 13.804C21.9286 14.0337 22.3943 13.9406 22.624 13.596C22.8538 13.2513 22.7607 12.7857 22.416 12.5559L19.416 10.5559C19.1859 10.4025 18.89 10.3882 18.6461 10.5187C18.4022 10.6492 18.25 10.9033 18.25 11.1799V16.7298Z" fill="white"/>
</svg>
