<svg width="24" height="25" viewBox="0 0 24 25" fill="none" xmlns="http://www.w3.org/2000/svg">
<path fill-rule="evenodd" clip-rule="evenodd" d="M7.6727 3.72835C7.85585 4.09987 7.70315 4.54953 7.33163 4.73268C4.61229 6.07327 2.75 8.85332 2.75 12.06C2.75 15.2666 4.61229 18.0467 7.33163 19.3873C7.70315 19.5704 7.85585 20.0201 7.6727 20.3916C7.48954 20.7631 7.03989 20.9158 6.66837 20.7327C3.46083 19.1514 1.25 15.8643 1.25 12.06C1.25 8.25571 3.46083 4.96855 6.66837 3.38728C7.03989 3.20413 7.48954 3.35683 7.6727 3.72835ZM16.3273 3.72835C16.5105 3.35683 16.9601 3.20413 17.3316 3.38728C20.5392 4.96855 22.75 8.25571 22.75 12.06C22.75 15.8643 20.5392 19.1514 17.3316 20.7327C16.9601 20.9158 16.5105 20.7631 16.3273 20.3916C16.1441 20.0201 16.2969 19.5704 16.6684 19.3873C19.3877 18.0467 21.25 15.2666 21.25 12.06C21.25 8.85332 19.3877 6.07327 16.6684 4.73268C16.2969 4.54953 16.1441 4.09987 16.3273 3.72835ZM8.59913 7.60948C8.84794 7.94064 8.78118 8.41079 8.45002 8.6596C7.41628 9.43627 6.75 10.6702 6.75 12.06C6.75 13.4498 7.41628 14.6837 8.45002 15.4604C8.78118 15.7092 8.84794 16.1793 8.59913 16.5105C8.35033 16.8416 7.88017 16.9084 7.54901 16.6596C6.1544 15.6118 5.25 13.9414 5.25 12.06C5.25 10.1786 6.1544 8.50815 7.54901 7.46036C7.88017 7.21155 8.35033 7.27832 8.59913 7.60948ZM15.4009 7.60948C15.6497 7.27832 16.1198 7.21155 16.451 7.46036C17.8456 8.50815 18.75 10.1786 18.75 12.06C18.75 13.9414 17.8456 15.6118 16.451 16.6596C16.1198 16.9084 15.6497 16.8416 15.4009 16.5105C15.1521 16.1793 15.2188 15.7092 15.55 15.4604C16.5837 14.6837 17.25 13.4498 17.25 12.06C17.25 10.6702 16.5837 9.43627 15.55 8.6596C15.2188 8.41079 15.1521 7.94064 15.4009 7.60948ZM10.75 12.06C10.75 11.3696 11.3096 10.81 12 10.81C12.6904 10.81 13.25 11.3696 13.25 12.06C13.25 12.7503 12.6904 13.31 12 13.31C11.3096 13.31 10.75 12.7503 10.75 12.06ZM12 9.30998C10.4812 9.30998 9.25 10.5412 9.25 12.06C9.25 13.5788 10.4812 14.81 12 14.81C13.5188 14.81 14.75 13.5788 14.75 12.06C14.75 10.5412 13.5188 9.30998 12 9.30998Z" fill="white"/>
</svg>
