<svg width="24" height="25" viewBox="0 0 24 25" fill="none" xmlns="http://www.w3.org/2000/svg">
<path fill-rule="evenodd" clip-rule="evenodd" d="M2.25 5.17993C2.25 4.76572 2.58579 4.42993 3 4.42993H19C19.4142 4.42993 19.75 4.76572 19.75 5.17993C19.75 5.59415 19.4142 5.92993 19 5.92993H3C2.58579 5.92993 2.25 5.59415 2.25 5.17993ZM2.25 9.17993C2.25 8.76572 2.58579 8.42993 3 8.42993H15C15.4142 8.42993 15.75 8.76572 15.75 9.17993C15.75 9.59415 15.4142 9.92993 15 9.92993H3C2.58579 9.92993 2.25 9.59415 2.25 9.17993ZM3 12.4299C2.58579 12.4299 2.25 12.7657 2.25 13.1799C2.25 13.5941 2.58579 13.9299 3 13.9299H11C11.4142 13.9299 11.75 13.5941 11.75 13.1799C11.75 12.7657 11.4142 12.4299 11 12.4299H3ZM2.25 17.1799C2.25 16.7657 2.58579 16.4299 3 16.4299H9C9.41421 16.4299 9.75 16.7657 9.75 17.1799C9.75 17.5941 9.41421 17.9299 9 17.9299H3C2.58579 17.9299 2.25 17.5941 2.25 17.1799ZM16.416 11.5559C16.1859 11.4025 15.89 11.3882 15.6461 11.5187C15.4022 11.6492 15.25 11.9033 15.25 12.1799V20.1799C15.25 20.4565 15.4022 20.7107 15.6461 20.8412C15.89 20.9717 16.1859 20.9574 16.416 20.804L22.416 16.804C22.6247 16.6649 22.75 16.4307 22.75 16.1799C22.75 15.9292 22.6247 15.695 22.416 15.5559L16.416 11.5559ZM20.6479 16.1799L16.75 18.7785V13.5813L20.6479 16.1799Z" fill="white"/>
</svg>
