<svg width="24" height="25" viewBox="0 0 24 25" fill="none" xmlns="http://www.w3.org/2000/svg">
<path fill-rule="evenodd" clip-rule="evenodd" d="M13.3539 3.51868C13.5978 3.64919 13.75 3.90334 13.75 4.17993V8.7786L21.584 3.5559C21.8141 3.40247 22.11 3.38816 22.3539 3.51868C22.5978 3.64919 22.75 3.90334 22.75 4.17993V20.1799C22.75 20.4565 22.5978 20.7107 22.3539 20.8412C22.11 20.9717 21.8141 20.9574 21.584 20.804L13.75 15.5814V20.1799C13.75 20.4565 13.5978 20.7107 13.3539 20.8412C13.11 20.9717 12.8141 20.9574 12.584 20.804L0.583975 12.804C0.375326 12.6649 0.25 12.4307 0.25 12.1799C0.25 11.9292 0.375326 11.695 0.583975 11.5559L12.584 3.5559C12.8141 3.40247 13.11 3.38816 13.3539 3.51868ZM2.35208 12.1799L12.25 18.7785V14.18C12.25 13.9034 12.4022 13.6493 12.6461 13.5187C12.89 13.3882 13.1859 13.4025 13.416 13.556L21.25 18.7786V5.58133L13.416 10.804C13.1859 10.9575 12.89 10.9718 12.6461 10.8413C12.4022 10.7107 12.25 10.4566 12.25 10.18V5.58132L2.35208 12.1799Z" fill="white"/>
</svg>
