<svg width="24" height="25" viewBox="0 0 24 25" fill="none" xmlns="http://www.w3.org/2000/svg">
<path fill-rule="evenodd" clip-rule="evenodd" d="M2.75 12.1799C2.75 7.0713 6.89137 2.92993 12 2.92993C17.1086 2.92993 21.25 7.0713 21.25 12.1799C21.25 17.2886 17.1086 21.4299 12 21.4299C6.89137 21.4299 2.75 17.2886 2.75 12.1799ZM12 1.42993C6.06294 1.42993 1.25 6.24287 1.25 12.1799C1.25 18.117 6.06294 22.9299 12 22.9299C17.9371 22.9299 22.75 18.117 22.75 12.1799C22.75 6.24287 17.9371 1.42993 12 1.42993ZM9 8.42993C8.58579 8.42993 8.25 8.76572 8.25 9.17993V15.1799C8.25 15.5941 8.58579 15.9299 9 15.9299H15C15.4142 15.9299 15.75 15.5941 15.75 15.1799V9.17993C15.75 8.76572 15.4142 8.42993 15 8.42993H9ZM9.75 14.4299V9.92993H14.25V14.4299H9.75Z" fill="white"/>
</svg>
