<svg width="24" height="25" viewBox="0 0 24 25" fill="none" xmlns="http://www.w3.org/2000/svg">
<path fill-rule="evenodd" clip-rule="evenodd" d="M2.75 12.1799C2.75 7.0713 6.89137 2.92993 12 2.92993C17.1086 2.92993 21.25 7.0713 21.25 12.1799C21.25 17.2886 17.1086 21.4299 12 21.4299C6.89137 21.4299 2.75 17.2886 2.75 12.1799ZM12 1.42993C6.06294 1.42993 1.25 6.24287 1.25 12.1799C1.25 18.117 6.06294 22.9299 12 22.9299C17.9371 22.9299 22.75 18.117 22.75 12.1799C22.75 6.24287 17.9371 1.42993 12 1.42993ZM10.716 7.55589C10.4859 7.40247 10.19 7.38816 9.94611 7.51868C9.70224 7.64919 9.55 7.90334 9.55 8.17993V16.1799C9.55 16.4565 9.70224 16.7107 9.94611 16.8412C10.19 16.9717 10.4859 16.9574 10.716 16.804L16.716 12.804C16.9247 12.6649 17.05 12.4307 17.05 12.1799C17.05 11.9292 16.9247 11.695 16.716 11.5559L10.716 7.55589ZM14.9479 12.1799L11.05 14.7785V9.58132L14.9479 12.1799Z" fill="white"/>
</svg>
