<svg width="24" height="25" viewBox="0 0 24 25" fill="none" xmlns="http://www.w3.org/2000/svg">
<path fill-rule="evenodd" clip-rule="evenodd" d="M8.93015 2.94557C8.67191 2.76481 8.3282 2.76481 8.06996 2.94557L3.06996 6.44557C2.80178 6.6333 2.68634 6.97327 2.78475 7.28548C2.88317 7.59769 3.1727 7.81 3.50005 7.81H3.75005V15.06C3.75005 15.3866 3.95876 15.6644 4.25005 15.7673V17.06V19.06V20.56C4.25005 20.9742 4.58584 21.31 5.00005 21.31C5.41427 21.31 5.75005 20.9742 5.75005 20.56V19.81H11.2501V20.56C11.2501 20.9742 11.5858 21.31 12.0001 21.31C12.4143 21.31 12.7501 20.9742 12.7501 20.56V19.06V17.06V15.81H13.2253L16.2656 18.3825L19.5156 21.1325C19.651 21.2471 19.8227 21.31 20.0001 21.31H20.5001C20.9143 21.31 21.2501 20.9742 21.2501 20.56V18.06C21.2501 17.8394 21.1529 17.63 20.9845 17.4875L17.7345 14.7375L15.7501 13.0583V11.06C15.7501 10.0935 14.9666 9.31 14.0001 9.31H13.2501V7.81H13.5001C13.8274 7.81 14.1169 7.59769 14.2154 7.28548C14.3138 6.97327 14.1983 6.6333 13.9302 6.44557L8.93015 2.94557ZM5.25005 14.31V7.81H11.7501V10.06V12.56V14.31H11.2501V11.06C11.2501 10.8456 11.1583 10.6414 10.9979 10.4991L10.5001 11.06C10.9979 10.4991 10.9978 10.499 10.9977 10.4989L10.9974 10.4986L10.9968 10.4981L10.9954 10.4968L10.9912 10.4931L10.9779 10.4816C10.9669 10.4721 10.9517 10.4591 10.9326 10.443C10.8945 10.411 10.8407 10.3666 10.7738 10.3141C10.6409 10.2096 10.4526 10.0695 10.2316 9.92819C9.82856 9.67036 9.16943 9.31 8.50005 9.31C7.83068 9.31 7.17155 9.67036 6.76846 9.92819C6.54749 10.0695 6.35921 10.2096 6.22629 10.3141C6.15943 10.3666 6.10557 10.411 6.06746 10.443C6.04839 10.4591 6.03319 10.4721 6.02222 10.4816L6.00894 10.4931L6.00475 10.4968L6.00327 10.4981L6.00269 10.4986L6.00244 10.4989C6.00233 10.499 6.00222 10.4991 6.50005 11.06L6.00222 10.4991C5.84184 10.6414 5.75005 10.8456 5.75005 11.06V14.31H5.25005ZM7.25005 14.31V11.419C7.34231 11.3497 7.45378 11.2704 7.57672 11.1918C7.95532 10.9496 8.29619 10.81 8.50005 10.81C8.70392 10.81 9.04479 10.9496 9.42339 11.1918C9.54632 11.2704 9.6578 11.3497 9.75005 11.419V14.31H7.25005ZM10.5001 15.81H6.50005H5.75005V16.31H11.2501V15.81H10.5001ZM8.50005 4.47549L11.1208 6.31H5.87933L8.50005 4.47549ZM13.5001 14.31H13.2501V13.31H13.7253L14.5156 13.9787L16.7656 15.8825L19.7501 18.4078V19.366L17.2345 17.2375L13.9845 14.4875C13.8491 14.3729 13.6774 14.31 13.5001 14.31ZM14.0001 11.81H13.2501V10.81H14.0001C14.1381 10.81 14.2501 10.9219 14.2501 11.06V11.8529C14.1704 11.8247 14.0859 11.81 14.0001 11.81ZM5.75005 18.31V17.81H11.2501V18.31H5.75005Z" fill="white"/>
</svg>
