<svg width="24" height="25" viewBox="0 0 24 25" fill="none" xmlns="http://www.w3.org/2000/svg">
<path fill-rule="evenodd" clip-rule="evenodd" d="M2.25 5.17993C2.25 4.76572 2.58579 4.42993 3 4.42993H19C19.4142 4.42993 19.75 4.76572 19.75 5.17993C19.75 5.59415 19.4142 5.92993 19 5.92993H3C2.58579 5.92993 2.25 5.59415 2.25 5.17993ZM2.25 9.17993C2.25 8.76572 2.58579 8.42993 3 8.42993H15C15.4142 8.42993 15.75 8.76572 15.75 9.17993C15.75 9.59415 15.4142 9.92993 15 9.92993H3C2.58579 9.92993 2.25 9.59415 2.25 9.17993ZM3 12.4299C2.58579 12.4299 2.25 12.7657 2.25 13.1799C2.25 13.5941 2.58579 13.9299 3 13.9299H11C11.4142 13.9299 11.75 13.5941 11.75 13.1799C11.75 12.7657 11.4142 12.4299 11 12.4299H3ZM2.25 17.1799C2.25 16.7657 2.58579 16.4299 3 16.4299H9C9.41421 16.4299 9.75 16.7657 9.75 17.1799C9.75 17.5941 9.41421 17.9299 9 17.9299H3C2.58579 17.9299 2.25 17.5941 2.25 17.1799ZM18.75 14.1799C18.75 13.7657 18.4142 13.4299 18 13.4299C17.5858 13.4299 17.25 13.7657 17.25 14.1799V16.4299H15C14.5858 16.4299 14.25 16.7657 14.25 17.1799C14.25 17.5941 14.5858 17.9299 15 17.9299H17.25V20.1799C17.25 20.5941 17.5858 20.9299 18 20.9299C18.4142 20.9299 18.75 20.5941 18.75 20.1799V17.9299H21C21.4142 17.9299 21.75 17.5941 21.75 17.1799C21.75 16.7657 21.4142 16.4299 21 16.4299H18.75V14.1799Z" fill="white"/>
</svg>
