<svg width="24" height="25" viewBox="0 0 24 25" fill="none" xmlns="http://www.w3.org/2000/svg">
<path fill-rule="evenodd" clip-rule="evenodd" d="M4 3.42993C3.58579 3.42993 3.25 3.76572 3.25 4.17993V20.1799C3.25 20.5941 3.58579 20.9299 4 20.9299H10C10.4142 20.9299 10.75 20.5941 10.75 20.1799V4.17993C10.75 3.76572 10.4142 3.42993 10 3.42993H4ZM4.75 19.4299V4.92993H9.25V19.4299H4.75ZM14 3.42993C13.5858 3.42993 13.25 3.76572 13.25 4.17993V20.1799C13.25 20.5941 13.5858 20.9299 14 20.9299H20C20.4142 20.9299 20.75 20.5941 20.75 20.1799V4.17993C20.75 3.76572 20.4142 3.42993 20 3.42993H14ZM14.75 19.4299V4.92993H19.25V19.4299H14.75Z" fill="white"/>
</svg>
