<svg width="24" height="25" viewBox="0 0 24 25" fill="none" xmlns="http://www.w3.org/2000/svg">
<path fill-rule="evenodd" clip-rule="evenodd" d="M16.4697 1.6496C16.7626 1.35671 17.2374 1.35671 17.5303 1.6496L20.5303 4.6496C20.8232 4.94249 20.8232 5.41737 20.5303 5.71026L17.5303 8.71026C17.2374 9.00315 16.7626 9.00315 16.4697 8.71026C16.1768 8.41737 16.1768 7.94249 16.4697 7.6496L18.1893 5.92993H4.75V10.6799V11.1799C4.75 11.5941 4.41421 11.9299 4 11.9299C3.58579 11.9299 3.25 11.5941 3.25 11.1799V10.6799V5.17993C3.25 4.76572 3.58579 4.42993 4 4.42993H18.1893L16.4697 2.71026C16.1768 2.41737 16.1768 1.94249 16.4697 1.6496ZM12.787 8.48702C13.0673 8.60311 13.25 8.87659 13.25 9.17993V15.1799C13.25 15.5941 12.9142 15.9299 12.5 15.9299C12.0858 15.9299 11.75 15.5941 11.75 15.1799V10.9906L10.5303 12.2103C10.2374 12.5032 9.76256 12.5032 9.46967 12.2103C9.17678 11.9174 9.17678 11.4425 9.46967 11.1496L11.9697 8.6496C12.1842 8.4351 12.5068 8.37094 12.787 8.48702ZM20.75 13.6799V13.1799C20.75 12.7657 20.4142 12.4299 20 12.4299C19.5858 12.4299 19.25 12.7657 19.25 13.1799V13.6799V18.4299H5.81066L7.53033 16.7103C7.82322 16.4174 7.82322 15.9425 7.53033 15.6496C7.23744 15.3567 6.76256 15.3567 6.46967 15.6496L3.46967 18.6496C3.17678 18.9425 3.17678 19.4174 3.46967 19.7103L6.46967 22.7103C6.76256 23.0032 7.23744 23.0032 7.53033 22.7103C7.82322 22.4174 7.82322 21.9425 7.53033 21.6496L5.81066 19.9299H20C20.4142 19.9299 20.75 19.5941 20.75 19.1799V13.6799Z" fill="white"/>
</svg>
