<svg width="24" height="25" viewBox="0 0 24 25" fill="none" xmlns="http://www.w3.org/2000/svg">
<path fill-rule="evenodd" clip-rule="evenodd" d="M12 2.92993C6.89137 2.92993 2.75 7.0713 2.75 12.1799C2.75 17.2886 6.89137 21.4299 12 21.4299C17.1086 21.4299 21.25 17.2886 21.25 12.1799C21.25 7.0713 17.1086 2.92993 12 2.92993ZM1.25 12.1799C1.25 6.24287 6.06294 1.42993 12 1.42993C17.9371 1.42993 22.75 6.24287 22.75 12.1799C22.75 18.117 17.9371 22.9299 12 22.9299C6.06294 22.9299 1.25 18.117 1.25 12.1799ZM10 8.92993C10.4142 8.92993 10.75 9.26572 10.75 9.67993V14.6799C10.75 15.0941 10.4142 15.4299 10 15.4299C9.58579 15.4299 9.25 15.0941 9.25 14.6799V9.67993C9.25 9.26572 9.58579 8.92993 10 8.92993ZM14.75 9.67993C14.75 9.26572 14.4142 8.92993 14 8.92993C13.5858 8.92993 13.25 9.26572 13.25 9.67993V14.6799C13.25 15.0941 13.5858 15.4299 14 15.4299C14.4142 15.4299 14.75 15.0941 14.75 14.6799V9.67993Z" fill="white"/>
</svg>
