<svg width="24" height="25" viewBox="0 0 24 25" fill="none" xmlns="http://www.w3.org/2000/svg">
<path fill-rule="evenodd" clip-rule="evenodd" d="M11.0741 2.97564C11.3784 2.94542 11.6873 2.92993 12 2.92993C17.1086 2.92993 21.25 7.0713 21.25 12.1799C21.25 17.2886 17.1086 21.4299 12 21.4299C11.6873 21.4299 11.3784 21.4144 11.0741 21.3842C10.6619 21.3433 10.2946 21.6443 10.2537 22.0565C10.2127 22.4686 10.5137 22.836 10.9259 22.8769C11.2794 22.912 11.6377 22.9299 12 22.9299C17.9371 22.9299 22.75 18.117 22.75 12.1799C22.75 6.24287 17.9371 1.42993 12 1.42993C11.6377 1.42993 11.2794 1.44788 10.9259 1.48298C10.5137 1.5239 10.2127 1.89122 10.2537 2.30341C10.2946 2.71559 10.6619 3.01656 11.0741 2.97564ZM8.30028 3.69928C8.67984 3.53344 8.8531 3.09131 8.68726 2.71174C8.52143 2.33217 8.07929 2.15891 7.69972 2.32475C6.93185 2.66025 6.21099 3.08271 5.54957 3.57952C5.21838 3.82829 5.15156 4.29844 5.40033 4.62963C5.64909 4.96082 6.11924 5.02764 6.45043 4.77887C7.01992 4.35111 7.64014 3.98771 8.30028 3.69928ZM4.59894 6.63036C4.84771 6.29917 4.78089 5.82902 4.4497 5.58026C4.11851 5.33149 3.64836 5.39831 3.39959 5.7295C2.90278 6.39093 2.48032 7.11178 2.14482 7.87965C1.97898 8.25922 2.15224 8.70136 2.53181 8.8672C2.91137 9.03304 3.35351 8.85978 3.51935 8.48021C3.80778 7.82007 4.17118 7.19986 4.59894 6.63036ZM2.79571 11.254C2.83663 10.8418 2.53566 10.4745 2.12348 10.4336C1.71129 10.3927 1.34397 10.6936 1.30304 11.1058C1.26795 11.4593 1.25 11.8176 1.25 12.1799C1.25 12.5422 1.26795 12.9005 1.30304 13.254C1.34397 13.6662 1.71129 13.9672 2.12348 13.9263C2.53566 13.8853 2.83663 13.518 2.79571 13.1058C2.76549 12.8015 2.75 12.4926 2.75 12.1799C2.75 11.8672 2.76549 11.5584 2.79571 11.254ZM3.51935 15.8797C3.35351 15.5001 2.91137 15.3268 2.53181 15.4927C2.15224 15.6585 1.97898 16.1006 2.14482 16.4802C2.48032 17.2481 2.90278 17.9689 3.39959 18.6304C3.64836 18.9616 4.11851 19.0284 4.4497 18.7796C4.78089 18.5308 4.84771 18.0607 4.59894 17.7295C4.17118 17.16 3.80778 16.5398 3.51935 15.8797ZM6.44953 19.5803C6.11837 19.3315 5.64821 19.3983 5.3994 19.7294C5.1506 20.0606 5.21736 20.5307 5.54852 20.7796C6.21023 21.2767 6.93144 21.6994 7.69972 22.0351C8.07929 22.2009 8.52143 22.0277 8.68726 21.6481C8.8531 21.2686 8.67984 20.8264 8.30028 20.6606C7.63979 20.372 7.01927 20.0084 6.44953 19.5803ZM10.416 7.55589C10.1859 7.40247 9.88997 7.38816 9.64611 7.51868C9.40224 7.64919 9.25 7.90334 9.25 8.17993V16.1799C9.25 16.4565 9.40224 16.7107 9.64611 16.8412C9.88997 16.9717 10.1859 16.9574 10.416 16.804L16.416 12.804C16.6247 12.6649 16.75 12.4307 16.75 12.1799C16.75 11.9292 16.6247 11.695 16.416 11.5559L10.416 7.55589ZM14.6479 12.1799L10.75 14.7785V9.58132L14.6479 12.1799Z" fill="white"/>
</svg>
