<svg width="24" height="25" viewBox="0 0 24 25" fill="none" xmlns="http://www.w3.org/2000/svg">
<path fill-rule="evenodd" clip-rule="evenodd" d="M2 2.31C1.58579 2.31 1.25 2.64578 1.25 3.06V17.06C1.25 17.4742 1.58579 17.81 2 17.81H7C7.41421 17.81 7.75 17.4742 7.75 17.06C7.75 16.6458 7.41421 16.31 7 16.31H2.75V3.81H21.25V16.31H17C16.5858 16.31 16.25 16.6458 16.25 17.06C16.25 17.4742 16.5858 17.81 17 17.81H22C22.4142 17.81 22.75 17.4742 22.75 17.06V3.06C22.75 2.64578 22.4142 2.31 22 2.31H2ZM12.5303 15.5297C12.2374 15.2368 11.7626 15.2368 11.4697 15.5297L6.46967 20.5297C6.25517 20.7442 6.191 21.0668 6.30709 21.347C6.42318 21.6273 6.69665 21.81 7 21.81H17C17.3033 21.81 17.5768 21.6273 17.6929 21.347C17.809 21.0668 17.7448 20.7442 17.5303 20.5297L12.5303 15.5297ZM12 17.1207L15.1893 20.31H8.81066L12 17.1207Z" fill="white"/>
</svg>
