<svg width="24" height="25" viewBox="0 0 24 25" fill="none" xmlns="http://www.w3.org/2000/svg">
<path fill-rule="evenodd" clip-rule="evenodd" d="M17.5303 1.6496C17.2374 1.35671 16.7626 1.35671 16.4697 1.6496C16.1768 1.94249 16.1768 2.41737 16.4697 2.71026L18.1893 4.42993H4C3.58579 4.42993 3.25 4.76572 3.25 5.17993V10.6799V11.1799C3.25 11.5941 3.58579 11.9299 4 11.9299C4.41421 11.9299 4.75 11.5941 4.75 11.1799V10.6799V5.92993H18.1893L16.4697 7.6496C16.1768 7.94249 16.1768 8.41737 16.4697 8.71026C16.7626 9.00315 17.2374 9.00315 17.5303 8.71026L20.5303 5.71026C20.8232 5.41737 20.8232 4.94249 20.5303 4.6496L17.5303 1.6496ZM20.75 13.6799V13.1799C20.75 12.7657 20.4142 12.4299 20 12.4299C19.5858 12.4299 19.25 12.7657 19.25 13.1799V13.6799V18.4299H5.81066L7.53033 16.7103C7.82322 16.4174 7.82322 15.9425 7.53033 15.6496C7.23744 15.3567 6.76256 15.3567 6.46967 15.6496L3.46967 18.6496C3.17678 18.9425 3.17678 19.4174 3.46967 19.7103L6.46967 22.7103C6.76256 23.0032 7.23744 23.0032 7.53033 22.7103C7.82322 22.4174 7.82322 21.9425 7.53033 21.6496L5.81066 19.9299H20C20.4142 19.9299 20.75 19.5941 20.75 19.1799V13.6799Z" fill="white"/>
</svg>
