<svg width="24" height="25" viewBox="0 0 24 25" fill="none" xmlns="http://www.w3.org/2000/svg">
<path fill-rule="evenodd" clip-rule="evenodd" d="M11.2957 10.2978C11.7099 10.2978 12.0457 9.96197 12.0457 9.54776C12.0457 9.13354 11.7099 8.79776 11.2957 8.79776H9.41157V4.96143C9.41157 4.54721 9.07579 4.21143 8.66157 4.21143L3.91896 4.21143C3.65043 4.21143 3.4024 4.35499 3.26864 4.58783L0.633853 9.17425C0.568546 9.28793 0.53418 9.41674 0.53418 9.54785V15.0516C0.53418 15.1827 0.568546 15.3115 0.633853 15.4251L3.26864 20.0116C3.4024 20.2444 3.65043 20.388 3.91896 20.388H8.66157C9.07579 20.388 9.41157 20.0522 9.41157 19.638L9.41157 15.8013H11.2957C11.7099 15.8013 12.0457 15.4655 12.0457 15.0513C12.0457 14.6371 11.7099 14.3013 11.2957 14.3013H9.41157V10.2978H11.2957ZM7.91094 15.0513C7.91094 15.0409 7.91115 15.0306 7.91157 15.0203L7.91157 9.57872C7.91116 9.56845 7.91094 9.55813 7.91094 9.54776C7.91094 9.53738 7.91116 9.52706 7.91157 9.51679V5.71143L4.35306 5.71143L2.03418 9.74794L2.03418 14.8515L4.35306 18.888H7.91157V15.0822C7.91115 15.072 7.91094 15.0617 7.91094 15.0513ZM14.5882 4.96143C14.5882 4.54721 14.924 4.21143 15.3382 4.21143H20.0808C20.3493 4.21143 20.5974 4.35499 20.7311 4.58783L23.3659 9.17425C23.4312 9.28793 23.4656 9.41674 23.4656 9.54785V15.0515C23.4656 15.1827 23.4312 15.3115 23.3659 15.4251L20.7311 20.0116C20.5974 20.2444 20.3493 20.388 20.0808 20.388H15.3382C14.924 20.388 14.5882 20.0522 14.5882 19.638L14.5882 4.96143ZM19.6467 5.71143L16.0882 5.71143L16.0882 18.888H19.6467L21.9656 14.8515V9.74794L19.6467 5.71143Z" fill="white"/>
</svg>
