<svg width="24" height="25" viewBox="0 0 24 25" fill="none" xmlns="http://www.w3.org/2000/svg">
<path fill-rule="evenodd" clip-rule="evenodd" d="M9 1.5498C9.41421 1.5498 9.75 1.88559 9.75 2.2998V4.2998C9.75 4.71402 9.41421 5.0498 9 5.0498C8.58579 5.0498 8.25 4.71402 8.25 4.2998V2.2998C8.25 1.88559 8.58579 1.5498 9 1.5498ZM1.46967 1.76947C1.76256 1.47658 2.23744 1.47658 2.53033 1.76947L7.53033 6.76947L18.5303 17.7695L22.5303 21.7695C22.8232 22.0624 22.8232 22.5372 22.5303 22.8301C22.2374 23.123 21.7626 23.123 21.4697 22.8301L18 19.3605L15.5303 21.8301C15.3897 21.9708 15.1989 22.0498 15 22.0498H9C8.80109 22.0498 8.61032 21.9708 8.46967 21.8301L3.46967 16.8301C3.32902 16.6895 3.25 16.4987 3.25 16.2998V7.2998C3.25 6.88559 3.58579 6.5498 4 6.5498H5.18934L1.46967 2.83013C1.17678 2.53724 1.17678 2.06237 1.46967 1.76947ZM6.68934 8.0498H4.75V15.9891L9.31066 20.5498H14.6893L16.9393 18.2998L6.68934 8.0498ZM10.25 7.2998C10.25 6.88559 10.5858 6.5498 11 6.5498H14.25V2.2998C14.25 1.88559 14.5858 1.5498 15 1.5498C15.4142 1.5498 15.75 1.88559 15.75 2.2998V6.5498H20C20.4142 6.5498 20.75 6.88559 20.75 7.2998V15.2998C20.75 15.714 20.4142 16.0498 20 16.0498C19.5858 16.0498 19.25 15.714 19.25 15.2998V8.0498H15H11C10.5858 8.0498 10.25 7.71402 10.25 7.2998Z" fill="white"/>
</svg>
