<svg width="24" height="25" viewBox="0 0 24 25" fill="none" xmlns="http://www.w3.org/2000/svg">
<path fill-rule="evenodd" clip-rule="evenodd" d="M9.00006 1.5498C9.41427 1.5498 9.75006 1.88559 9.75006 2.2998V6.5498H14.2501V2.2998C14.2501 1.88559 14.5858 1.5498 15.0001 1.5498C15.4143 1.5498 15.7501 1.88559 15.7501 2.2998V6.5498H20.0001C20.4143 6.5498 20.7501 6.88559 20.7501 7.2998V16.2998C20.7501 16.4987 20.671 16.6895 20.5304 16.8301L15.5304 21.8301C15.3897 21.9708 15.199 22.0498 15.0001 22.0498H9.00006C8.80115 22.0498 8.61038 21.9708 8.46973 21.8301L3.46973 16.8301C3.32908 16.6895 3.25006 16.4987 3.25006 16.2998V7.2998C3.25006 6.88559 3.58584 6.5498 4.00006 6.5498H8.25006V2.2998C8.25006 1.88559 8.58584 1.5498 9.00006 1.5498ZM15.0001 8.0498H9.00006H4.75006V15.9891L9.31072 20.5498H14.6894L19.2501 15.9891V8.0498H15.0001Z" fill="white"/>
</svg>
