<svg width="24" height="25" viewBox="0 0 24 25" fill="none" xmlns="http://www.w3.org/2000/svg">
<path fill-rule="evenodd" clip-rule="evenodd" d="M12 6.13916C12.4142 6.13916 12.75 6.47495 12.75 6.88916V12.1392H18C18.4142 12.1392 18.75 12.4749 18.75 12.8892C18.75 13.3034 18.4142 13.6392 18 13.6392H12.75V18.8892C12.75 19.3034 12.4142 19.6392 12 19.6392C11.5858 19.6392 11.25 19.3034 11.25 18.8892V13.6392H6C5.58579 13.6392 5.25 13.3034 5.25 12.8892C5.25 12.4749 5.58579 12.1392 6 12.1392H11.25V6.88916C11.25 6.47495 11.5858 6.13916 12 6.13916Z" fill="white"/>
</svg>
