<svg width="24" height="25" viewBox="0 0 24 25" fill="none" xmlns="http://www.w3.org/2000/svg">
<path fill-rule="evenodd" clip-rule="evenodd" d="M3 3.13916C2.58579 3.13916 2.25 3.47495 2.25 3.88916V21.8892C2.25 22.3034 2.58579 22.6392 3 22.6392H21C21.4142 22.6392 21.75 22.3034 21.75 21.8892V3.88916C21.75 3.47495 21.4142 3.13916 21 3.13916H3ZM3.75 21.1392V4.63916H20.25V21.1392H3.75ZM12.75 8.88916C12.75 8.47495 12.4142 8.13916 12 8.13916C11.5858 8.13916 11.25 8.47495 11.25 8.88916V12.1392H7.99997C7.58576 12.1392 7.24997 12.4749 7.24997 12.8892C7.24997 13.3034 7.58576 13.6392 7.99997 13.6392H11.25V16.8892C11.25 17.3034 11.5858 17.6392 12 17.6392C12.4142 17.6392 12.75 17.3034 12.75 16.8892V13.6392H16C16.4142 13.6392 16.75 13.3034 16.75 12.8892C16.75 12.4749 16.4142 12.1392 16 12.1392H12.75V8.88916Z" fill="white"/>
</svg>
