<svg width="24" height="25" viewBox="0 0 24 25" fill="none" xmlns="http://www.w3.org/2000/svg">
<path fill-rule="evenodd" clip-rule="evenodd" d="M12.75 2.2998C12.75 1.88559 12.4142 1.5498 12 1.5498C11.5858 1.5498 11.25 1.88559 11.25 2.2998V12.2998C11.25 12.714 11.5858 13.0498 12 13.0498C12.4142 13.0498 12.75 12.714 12.75 12.2998V2.2998ZM6.81445 5.88283C7.13645 5.62227 7.18625 5.15002 6.92569 4.82802C6.66513 4.50602 6.19288 4.45622 5.87088 4.71678C5.46305 5.04679 5.08242 5.40903 4.73283 5.79962C3.1894 7.52408 2.25 9.80313 2.25 12.2998C2.25 17.6846 6.61522 22.0498 12 22.0498C17.3848 22.0498 21.75 17.6846 21.75 12.2998C21.75 9.80313 20.8106 7.52408 19.2672 5.79962C18.9176 5.40902 18.5369 5.04679 18.1291 4.71678C17.8071 4.45622 17.3349 4.50602 17.0743 4.82802C16.8137 5.15002 16.8636 5.62227 17.1855 5.88283C17.5309 6.16232 17.8533 6.46914 18.1495 6.79999C19.4563 8.26007 20.25 10.1863 20.25 12.2998C20.25 16.8562 16.5563 20.5498 12 20.5498C7.44365 20.5498 3.75 16.8562 3.75 12.2998C3.75 10.1863 4.54373 8.26007 5.85053 6.79999C6.14665 6.46914 6.46906 6.16232 6.81445 5.88283Z" fill="white"/>
</svg>
