<svg width="24" height="25" viewBox="0 0 24 25" fill="none" xmlns="http://www.w3.org/2000/svg">
<path fill-rule="evenodd" clip-rule="evenodd" d="M1.25 3.35938C1.25 2.94516 1.58579 2.60938 2 2.60938H4H20H22C22.4142 2.60938 22.75 2.94516 22.75 3.35938C22.75 3.77359 22.4142 4.10938 22 4.10938H20.75V15.3594C20.75 15.7736 20.4142 16.1094 20 16.1094H12.75V17.9347L17.3859 20.7163C17.7411 20.9294 17.8562 21.3901 17.6431 21.7452C17.43 22.1004 16.9693 22.2156 16.6141 22.0025L12.75 19.684V21.3594C12.75 21.7736 12.4142 22.1094 12 22.1094C11.5858 22.1094 11.25 21.7736 11.25 21.3594V19.684L7.38587 22.0025C7.03069 22.2156 6.56999 22.1004 6.35688 21.7452C6.14377 21.3901 6.25894 20.9294 6.61413 20.7163L11.25 17.9347V16.1094H4C3.58579 16.1094 3.25 15.7736 3.25 15.3594V4.10938H2C1.58579 4.10938 1.25 3.77359 1.25 3.35938ZM12 14.6094H19.25V4.10938H4.75V14.6094H12ZM8.75 9.35938C8.75 8.94516 8.41421 8.60938 8 8.60938C7.58579 8.60938 7.25 8.94516 7.25 9.35938V11.3594C7.25 11.7736 7.58579 12.1094 8 12.1094C8.41421 12.1094 8.75 11.7736 8.75 11.3594V9.35938ZM12 6.60938C12.4142 6.60938 12.75 6.94516 12.75 7.35938V11.3594C12.75 11.7736 12.4142 12.1094 12 12.1094C11.5858 12.1094 11.25 11.7736 11.25 11.3594V7.35938C11.25 6.94516 11.5858 6.60938 12 6.60938ZM16.75 8.35938C16.75 7.94516 16.4142 7.60938 16 7.60938C15.5858 7.60938 15.25 7.94516 15.25 8.35938V11.3594C15.25 11.7736 15.5858 12.1094 16 12.1094C16.4142 12.1094 16.75 11.7736 16.75 11.3594V8.35938Z" fill="white"/>
</svg>
