<svg width="24" height="25" viewBox="0 0 24 25" fill="none" xmlns="http://www.w3.org/2000/svg">
<path fill-rule="evenodd" clip-rule="evenodd" d="M1.25 3.35938C1.25 2.94516 1.58579 2.60938 2 2.60938H4H20H22C22.4142 2.60938 22.75 2.94516 22.75 3.35938C22.75 3.77359 22.4142 4.10938 22 4.10938H20.75V15.3594C20.75 15.7736 20.4142 16.1094 20 16.1094H12.75V17.9347L17.3859 20.7163C17.7411 20.9294 17.8562 21.3901 17.6431 21.7452C17.43 22.1004 16.9693 22.2156 16.6141 22.0025L12.75 19.684V21.3594C12.75 21.7736 12.4142 22.1094 12 22.1094C11.5858 22.1094 11.25 21.7736 11.25 21.3594V19.684L7.38587 22.0025C7.03069 22.2156 6.56999 22.1004 6.35688 21.7452C6.14377 21.3901 6.25894 20.9294 6.61413 20.7163L11.25 17.9347V16.1094H4C3.58579 16.1094 3.25 15.7736 3.25 15.3594V4.10938H2C1.58579 4.10938 1.25 3.77359 1.25 3.35938ZM12 14.6094H19.25V4.10938H4.75V14.6094H12ZM16.4159 8.98343C16.7606 8.75368 16.8537 8.28803 16.624 7.94338C16.3942 7.59873 15.9286 7.50559 15.5839 7.73534L13.0954 9.39428L11.5302 7.82905C11.2774 7.57625 10.8813 7.53703 10.5838 7.73534L7.58378 9.73533C7.23913 9.96509 7.146 10.4307 7.37576 10.7754C7.60552 11.12 8.07117 11.2132 8.41582 10.9834L10.9043 9.32447L12.4695 10.8897C12.7223 11.1425 13.1184 11.1817 13.4158 10.9834L16.4159 8.98343Z" fill="white"/>
</svg>
