<svg width="24" height="25" viewBox="0 0 24 25" fill="none" xmlns="http://www.w3.org/2000/svg">
<path fill-rule="evenodd" clip-rule="evenodd" d="M6 2.37C5.58579 2.37 5.25 2.70578 5.25 3.12V7.37H3C2.58579 7.37 2.25 7.70578 2.25 8.12V18.12C2.25 18.5342 2.58579 18.87 3 18.87H5.25V21.12C5.25 21.5342 5.58579 21.87 6 21.87H18C18.4142 21.87 18.75 21.5342 18.75 21.12V18.87H21C21.4142 18.87 21.75 18.5342 21.75 18.12V8.12C21.75 7.70578 21.4142 7.37 21 7.37H18.75V3.12C18.75 2.70578 18.4142 2.37 18 2.37H6ZM17.25 7.37V3.87H6.75V7.37H17.25ZM6 8.87H18H20.25V17.37H18.75V15.12C18.75 14.7058 18.4142 14.37 18 14.37H6C5.58579 14.37 5.25 14.7058 5.25 15.12V17.37H3.75V8.87H6ZM6.75 18.12V20.37H17.25V18.12V15.87H6.75V18.12ZM5.25 11.12C5.25 10.7058 5.58579 10.37 6 10.37H7C7.41421 10.37 7.75 10.7058 7.75 11.12C7.75 11.5342 7.41421 11.87 7 11.87H6C5.58579 11.87 5.25 11.5342 5.25 11.12Z" fill="white"/>
</svg>
