<svg width="24" height="25" viewBox="0 0 24 25" fill="none" xmlns="http://www.w3.org/2000/svg">
<path fill-rule="evenodd" clip-rule="evenodd" d="M2.53033 1.58967C2.23744 1.29677 1.76256 1.29677 1.46967 1.58967C1.17678 1.88256 1.17678 2.35743 1.46967 2.65033L6.18934 7.37H3C2.58579 7.37 2.25 7.70578 2.25 8.12V18.12C2.25 18.5342 2.58579 18.87 3 18.87H5.25V21.12C5.25 21.5342 5.58579 21.87 6 21.87H18C18.4142 21.87 18.75 21.5342 18.75 21.12V19.9307L21.4697 22.6503C21.7626 22.9432 22.2374 22.9432 22.5303 22.6503C22.8232 22.3574 22.8232 21.8826 22.5303 21.5897L8.53033 7.58966L2.53033 1.58967ZM17.25 18.4307L14.6893 15.87H6.75V18.12V20.37H17.25V18.4307ZM5.25 17.37V15.12C5.25 14.7058 5.58579 14.37 6 14.37H13.1893L7.68934 8.87H3.75V17.37H5.25ZM12 7.37C11.5858 7.37 11.25 7.70578 11.25 8.12C11.25 8.53421 11.5858 8.87 12 8.87H18H20.25V13.12V16.12C20.25 16.5342 20.5858 16.87 21 16.87C21.4142 16.87 21.75 16.5342 21.75 16.12V13.12V8.12C21.75 7.70578 21.4142 7.37 21 7.37H18.75V3.11999C18.75 2.70578 18.4142 2.36999 18 2.36999H8C7.58579 2.36999 7.25 2.70578 7.25 3.11999C7.25 3.53421 7.58579 3.86999 8 3.86999H17.25V7.37H12ZM5.25 11.12C5.25 10.7058 5.58579 10.37 6 10.37H7C7.41421 10.37 7.75 10.7058 7.75 11.12C7.75 11.5342 7.41421 11.87 7 11.87H6C5.58579 11.87 5.25 11.5342 5.25 11.12Z" fill="white"/>
</svg>
