<svg width="24" height="25" viewBox="0 0 24 25" fill="none" xmlns="http://www.w3.org/2000/svg">
<path fill-rule="evenodd" clip-rule="evenodd" d="M12 3.81006C7.44365 3.81006 3.75 7.50371 3.75 12.0601C3.75 16.6164 7.44365 20.3101 12 20.3101C16.5563 20.3101 20.25 16.6164 20.25 12.0601C20.25 7.50371 16.5563 3.81006 12 3.81006ZM2.25 12.0601C2.25 6.67528 6.61522 2.31006 12 2.31006C17.3848 2.31006 21.75 6.67528 21.75 12.0601C21.75 17.4448 17.3848 21.8101 12 21.8101C6.61522 21.8101 2.25 17.4448 2.25 12.0601ZM13 16.0601C13 16.6123 12.5523 17.0601 12 17.0601C11.4477 17.0601 11 16.6123 11 16.0601C11 15.5078 11.4477 15.0601 12 15.0601C12.5523 15.0601 13 15.5078 13 16.0601ZM10 7.31006C9.58579 7.31006 9.25 7.64584 9.25 8.06006V10.5601C9.25 10.9743 9.58579 11.3101 10 11.3101C10.4142 11.3101 10.75 10.9743 10.75 10.5601V8.81006H12H13.25V10.7494L11.4697 12.5297C11.1768 12.8226 11.1768 13.2975 11.4697 13.5904C11.7626 13.8833 12.2374 13.8833 12.5303 13.5904L14.5303 11.5904C14.671 11.4497 14.75 11.259 14.75 11.0601V8.06006C14.75 7.64584 14.4142 7.31006 14 7.31006H12H10Z" fill="white"/>
</svg>
