<svg width="24" height="25" viewBox="0 0 24 25" fill="none" xmlns="http://www.w3.org/2000/svg">
<path fill-rule="evenodd" clip-rule="evenodd" d="M4 4.84009C3.58579 4.84009 3.25 5.17587 3.25 5.59009V11.5901C3.25 12.0043 3.58579 12.3401 4 12.3401H9.25V13.5901C9.25 15.2426 8.47198 16.7986 7.15 17.7901L5.55 18.9901C5.21863 19.2386 5.15147 19.7087 5.4 20.0401C5.64853 20.3715 6.11863 20.4386 6.45 20.1901L8.05 18.9901C9.74969 17.7153 10.75 15.7147 10.75 13.5901V11.5909L10.75 11.5901L10.75 9.09009L10.75 5.59009C10.75 5.17587 10.4142 4.84009 10 4.84009H4ZM9.25 9.09009L9.25 10.8401H4.75V6.34009H9.25V9.08923L9.25 9.09009ZM19.25 9.09009V6.34009H14.75V10.8401H19.25V9.09009ZM19.25 12.3401H14C13.5858 12.3401 13.25 12.0043 13.25 11.5901V5.59009C13.25 5.17587 13.5858 4.84009 14 4.84009H20C20.4142 4.84009 20.75 5.17587 20.75 5.59009V9.09009V11.5901V13.5901C20.75 15.7147 19.7497 17.7153 18.05 18.9901L16.45 20.1901C16.1186 20.4386 15.6485 20.3715 15.4 20.0401C15.1515 19.7087 15.2186 19.2386 15.55 18.9901L17.15 17.7901C18.472 16.7986 19.25 15.2426 19.25 13.5901V12.3401Z" fill="white"/>
</svg>
