<svg width="24" height="25" viewBox="0 0 24 25" fill="none" xmlns="http://www.w3.org/2000/svg">
<path fill-rule="evenodd" clip-rule="evenodd" d="M14.7498 12.8401H20C20.4142 12.8401 20.75 13.1759 20.75 13.5901V19.5901C20.75 20.0043 20.4142 20.3401 20 20.3401H14C13.5858 20.3401 13.25 20.0043 13.25 19.5901V16.1094L13.2498 16.0901V11.5902C13.2498 9.46552 14.2501 7.46484 15.9499 6.19008L17.55 4.99008C17.8814 4.74156 18.3515 4.80873 18.6 5.14011C18.8485 5.47148 18.7814 5.94158 18.45 6.1901L16.8499 7.39011C15.5278 8.38159 14.7498 9.93767 14.7498 11.5902V12.8401ZM14.75 18.8401V14.3401H19.25V18.8401H14.75ZM8.6 5.14009C8.84853 5.47146 8.78137 5.94156 8.45 6.19009L6.85 7.39009C5.52802 8.38157 4.75 9.93761 4.75 11.5901V12.8401H10C10.4142 12.8401 10.75 13.1759 10.75 13.5901V19.5901C10.75 20.0043 10.4142 20.3401 10 20.3401H4C3.58579 20.3401 3.25 20.0043 3.25 19.5901V16.0901V13.5901V11.5901C3.25 9.46548 4.25031 7.46486 5.95 6.19009L7.55 4.99009C7.88137 4.74156 8.35147 4.80872 8.6 5.14009ZM4.75 14.3401V16.0901V18.8401H9.25V14.3401H4.75Z" fill="white"/>
</svg>
