<svg width="24" height="25" viewBox="0 0 24 25" fill="none" xmlns="http://www.w3.org/2000/svg">
<path fill-rule="evenodd" clip-rule="evenodd" d="M5.25 2.64991C5.25 2.23569 5.58579 1.89991 6 1.89991L17 1.89991C17.4142 1.89991 17.75 2.23569 17.75 2.64991C17.75 3.06412 17.4142 3.39991 17 3.39991L6.75 3.39991L6.75 4.89992L22 4.89992C22.4142 4.89992 22.75 5.23571 22.75 5.64992L22.75 21.6499C22.75 22.0641 22.4142 22.3999 22 22.3999L2 22.3999C1.58579 22.3999 1.25 22.0641 1.25 21.6499L1.25 5.64992C1.25 5.23571 1.58579 4.89992 2 4.89992L5.25 4.89992L5.25 2.64991ZM2.75 6.39992L2.75 20.8999L21.25 20.8999L21.25 6.39992L2.75 6.39992ZM6.75 12.6499C6.75 11.9595 7.30964 11.3999 8 11.3999C8.69036 11.3999 9.25 11.9595 9.25 12.6499C9.25 13.3403 8.69036 13.8999 8 13.8999C7.30964 13.8999 6.75 13.3403 6.75 12.6499ZM8 9.8999C6.48122 9.8999 5.25 11.1311 5.25 12.6499C5.25 14.1687 6.48122 15.3999 8 15.3999C9.51878 15.3999 10.75 14.1687 10.75 12.6499C10.75 11.1311 9.51878 9.8999 8 9.8999ZM13.25 10.6499C13.25 10.2357 13.5858 9.89991 14 9.89991L18 9.89991C18.4142 9.89991 18.75 10.2357 18.75 10.6499C18.75 11.0641 18.4142 11.3999 18 11.3999L14 11.3999C13.5858 11.3999 13.25 11.0641 13.25 10.6499ZM14 13.8999C13.5858 13.8999 13.25 14.2357 13.25 14.6499C13.25 15.0641 13.5858 15.3999 14 15.3999L18 15.3999C18.4142 15.3999 18.75 15.0641 18.75 14.6499C18.75 14.2357 18.4142 13.8999 18 13.8999L14 13.8999Z" fill="white"/>
</svg>
