<svg width="24" height="25" viewBox="0 0 24 25" fill="none" xmlns="http://www.w3.org/2000/svg">
<path fill-rule="evenodd" clip-rule="evenodd" d="M2.62356 3.00122C2.85479 2.86703 3.13998 2.86608 3.3721 2.99872L6.5 4.78609L9.6279 2.99872C9.85847 2.86696 10.1415 2.86696 10.3721 2.99872L13.5 4.78609L16.6279 2.99872C16.86 2.86608 17.1452 2.86703 17.3764 3.00122C17.6077 3.13541 17.75 3.38255 17.75 3.6499V11.8999H21C21.4142 11.8999 21.75 12.2357 21.75 12.6499V21.6499C21.75 22.0641 21.4142 22.3999 21 22.3999H19H17H3C2.58579 22.3999 2.25 22.0641 2.25 21.6499V3.6499C2.25 3.38255 2.39232 3.13541 2.62356 3.00122ZM17.75 20.8999H19H20.25V13.3999H17.75V20.8999ZM3.75 20.8999V4.94229L6.1279 6.30108C6.35847 6.43284 6.64153 6.43284 6.8721 6.30108L10 4.51372L13.1279 6.30108C13.3585 6.43284 13.6415 6.43284 13.8721 6.30108L16.25 4.94229V12.6499V20.8999H3.75ZM6.25 9.6499C6.25 9.23569 6.58579 8.8999 7 8.8999H11C11.4142 8.8999 11.75 9.23569 11.75 9.6499C11.75 10.0641 11.4142 10.3999 11 10.3999H7C6.58579 10.3999 6.25 10.0641 6.25 9.6499ZM10 12.8999C9.58579 12.8999 9.25 13.2357 9.25 13.6499C9.25 14.0641 9.58579 14.3999 10 14.3999H13C13.4142 14.3999 13.75 14.0641 13.75 13.6499C13.75 13.2357 13.4142 12.8999 13 12.8999H10ZM9.25 17.6499C9.25 17.2357 9.58579 16.8999 10 16.8999H13C13.4142 16.8999 13.75 17.2357 13.75 17.6499C13.75 18.0641 13.4142 18.3999 13 18.3999H10C9.58579 18.3999 9.25 18.0641 9.25 17.6499ZM8 13.6499C8 14.2022 7.55228 14.6499 7 14.6499C6.44772 14.6499 6 14.2022 6 13.6499C6 13.0976 6.44772 12.6499 7 12.6499C7.55228 12.6499 8 13.0976 8 13.6499ZM7 18.6499C7.55228 18.6499 8 18.2022 8 17.6499C8 17.0976 7.55228 16.6499 7 16.6499C6.44772 16.6499 6 17.0976 6 17.6499C6 18.2022 6.44772 18.6499 7 18.6499Z" fill="white"/>
</svg>
