<svg width="24" height="25" viewBox="0 0 24 25" fill="none" xmlns="http://www.w3.org/2000/svg">
<path fill-rule="evenodd" clip-rule="evenodd" d="M16.4697 2.76996C16.7626 2.47707 17.2375 2.47707 17.5304 2.76996L21.5304 6.76996C21.8233 7.06286 21.8233 7.53773 21.5304 7.83062L17.5304 11.8306C17.2375 12.1235 16.7626 12.1235 16.4697 11.8306C16.1768 11.5377 16.1768 11.0629 16.4697 10.77L19.1894 8.05029H3.75V18.5503H13C13.4143 18.5503 13.75 18.8861 13.75 19.3003C13.75 19.7145 13.4143 20.0503 13 20.0503H3C2.58579 20.0503 2.25 19.7145 2.25 19.3003V7.30029C2.25 6.88608 2.58579 6.55029 3 6.55029H19.1894L16.4697 3.83062C16.1768 3.53773 16.1768 3.06286 16.4697 2.76996Z" fill="white"/>
</svg>
