<svg width="24" height="25" viewBox="0 0 24 25" fill="none" xmlns="http://www.w3.org/2000/svg">
<path fill-rule="evenodd" clip-rule="evenodd" d="M3.74421 11.3947C4.97698 9.47709 7.19361 7.55029 11.0001 7.55029C13.8099 7.55029 16.4969 9.48804 18.3868 11.252C19.1107 11.9276 19.7428 12.6018 20.2501 13.1804V8.30029C20.2501 7.88608 20.5859 7.55029 21.0001 7.55029C21.4143 7.55029 21.7501 7.88608 21.7501 8.30029V15.3003C21.7501 15.7145 21.4143 16.0503 21.0001 16.0503H14.0001C13.5859 16.0503 13.2501 15.7145 13.2501 15.3003C13.2501 14.8861 13.5859 14.5503 14.0001 14.5503H19.4501C18.9252 13.9289 18.2087 13.1376 17.3634 12.3486C15.5033 10.6125 13.1903 9.05029 11.0001 9.05029C7.80658 9.05029 6.02321 10.6235 5.00598 12.2059C4.48977 13.0088 4.17125 13.8175 3.98218 14.4283C3.88804 14.7325 3.82707 14.9841 3.79009 15.1567C3.77162 15.2428 3.7592 15.309 3.75166 15.3518C3.74789 15.3732 3.74534 15.3887 3.74388 15.398L3.74256 15.4064L3.74247 15.407C3.68359 15.8167 3.30387 16.1013 2.89403 16.0428C2.48398 15.9842 2.19905 15.6043 2.25763 15.1942L3.0001 15.3003C2.25763 15.1942 2.25769 15.1938 2.25775 15.1934L2.25788 15.1925L2.25823 15.1901L2.25923 15.1834L2.26248 15.1625C2.26522 15.1452 2.26915 15.1214 2.27441 15.0915C2.28494 15.0318 2.30084 14.9476 2.32338 14.8424C2.36844 14.6321 2.44027 14.3369 2.54926 13.9848C2.76644 13.2831 3.13542 12.3417 3.74421 11.3947Z" fill="white"/>
</svg>
