<svg width="24" height="25" viewBox="0 0 24 25" fill="none" xmlns="http://www.w3.org/2000/svg">
<path fill-rule="evenodd" clip-rule="evenodd" d="M4.76986 5.10377C6.36338 3.77583 8.77743 2.42993 12 2.42993C17.4158 2.42993 21.75 6.79676 21.75 12.1799C21.75 17.5647 17.3848 21.9299 12 21.9299C6.61522 21.9299 2.25 17.5647 2.25 12.1799C2.25 11.7657 2.58579 11.4299 3 11.4299C3.41421 11.4299 3.75 11.7657 3.75 12.1799C3.75 16.7363 7.44365 20.4299 12 20.4299C16.5563 20.4299 20.25 16.7363 20.25 12.1799C20.25 7.62198 16.5842 3.92993 12 3.92993C9.22257 3.92993 7.13662 5.08403 5.73014 6.2561C5.02646 6.8425 4.49856 7.4292 4.14815 7.8672C3.97327 8.0858 3.84357 8.26616 3.75917 8.38923C3.717 8.45073 3.68622 8.49781 3.66686 8.52807C3.65718 8.54319 3.65036 8.5541 3.6464 8.5605L3.64312 8.5658L3.64282 8.5663C3.46928 8.85503 3.12449 8.99265 2.7998 8.90272C2.47492 8.81273 2.25 8.51704 2.25 8.17993V3.67993C2.25 3.26572 2.58579 2.92993 3 2.92993C3.41421 2.92993 3.75 3.26572 3.75 3.67993V6.0521C4.04305 5.74856 4.38294 5.4262 4.76986 5.10377ZM9 8.42993C9.41421 8.42993 9.75 8.76572 9.75 9.17993V15.1799C9.75 15.5941 9.41421 15.9299 9 15.9299C8.58579 15.9299 8.25 15.5941 8.25 15.1799V9.17993C8.25 8.76572 8.58579 8.42993 9 8.42993ZM12 8.42993C11.5858 8.42993 11.25 8.76572 11.25 9.17993V12.1799C11.25 12.5941 11.5858 12.9299 12 12.9299H14.25V14.4299H12C11.5858 14.4299 11.25 14.7657 11.25 15.1799C11.25 15.5941 11.5858 15.9299 12 15.9299H15C15.4142 15.9299 15.75 15.5941 15.75 15.1799V12.1799C15.75 11.7657 15.4142 11.4299 15 11.4299H12.75V9.92993H15C15.4142 9.92993 15.75 9.59415 15.75 9.17993C15.75 8.76572 15.4142 8.42993 15 8.42993H12Z" fill="white"/>
</svg>
