<svg width="24" height="25" viewBox="0 0 24 25" fill="none" xmlns="http://www.w3.org/2000/svg">
<path fill-rule="evenodd" clip-rule="evenodd" d="M12 2.42993C8.77743 2.42993 6.36338 3.77583 4.76986 5.10377C4.38294 5.4262 4.04305 5.74856 3.75 6.0521V3.67993C3.75 3.26572 3.41421 2.92993 3 2.92993C2.58579 2.92993 2.25 3.26572 2.25 3.67993V8.17993C2.25 8.51704 2.47492 8.81273 2.7998 8.90272C3.12449 8.99265 3.46928 8.85503 3.64282 8.5663L3.64312 8.5658L3.6464 8.5605C3.65036 8.5541 3.65718 8.54319 3.66686 8.52807C3.68622 8.49781 3.717 8.45073 3.75917 8.38923C3.84357 8.26616 3.97327 8.0858 4.14815 7.8672C4.49856 7.4292 5.02646 6.8425 5.73014 6.2561C7.13662 5.08403 9.22257 3.92993 12 3.92993C16.5842 3.92993 20.25 7.62198 20.25 12.1799C20.25 16.7363 16.5563 20.4299 12 20.4299C7.44365 20.4299 3.75 16.7363 3.75 12.1799C3.75 11.7657 3.41421 11.4299 3 11.4299C2.58579 11.4299 2.25 11.7657 2.25 12.1799C2.25 17.5647 6.61522 21.9299 12 21.9299C17.3848 21.9299 21.75 17.5647 21.75 12.1799C21.75 6.79676 17.4158 2.42993 12 2.42993ZM10 8.42993C9.58579 8.42993 9.25 8.76572 9.25 9.17993V12.1799C9.25 12.5941 9.58579 12.9299 10 12.9299H13.25V14.4299H10C9.58579 14.4299 9.25 14.7657 9.25 15.1799C9.25 15.5941 9.58579 15.9299 10 15.9299H14C14.4142 15.9299 14.75 15.5941 14.75 15.1799V12.1799C14.75 11.7657 14.4142 11.4299 14 11.4299H10.75V9.92993H14C14.4142 9.92993 14.75 9.59415 14.75 9.17993C14.75 8.76572 14.4142 8.42993 14 8.42993H10Z" fill="white"/>
</svg>
