<svg width="24" height="25" viewBox="0 0 24 25" fill="none" xmlns="http://www.w3.org/2000/svg">
<path fill-rule="evenodd" clip-rule="evenodd" d="M9.53033 4.76996C9.82322 5.06286 9.82322 5.53773 9.53033 5.83062L5.81066 9.55029H20C20.4142 9.55029 20.75 9.88608 20.75 10.3003V17.3003C20.75 17.7145 20.4142 18.0503 20 18.0503C19.5858 18.0503 19.25 17.7145 19.25 17.3003V11.0503H5.81066L9.53033 14.77C9.82322 15.0629 9.82322 15.5377 9.53033 15.8306C9.23744 16.1235 8.76256 16.1235 8.46967 15.8306L3.46967 10.8306C3.17678 10.5377 3.17678 10.0629 3.46967 9.76996L8.46967 4.76996C8.76256 4.47707 9.23744 4.47707 9.53033 4.76996Z" fill="white"/>
</svg>
