<svg width="24" height="25" viewBox="0 0 24 25" fill="none" xmlns="http://www.w3.org/2000/svg">
<path fill-rule="evenodd" clip-rule="evenodd" d="M9.53057 5.83062C9.82347 5.53773 9.82347 5.06286 9.53057 4.76996C9.23768 4.47707 8.76281 4.47707 8.46991 4.76996L3.46991 9.76996C3.17702 10.0629 3.17702 10.5377 3.46991 10.8306L8.46991 15.8306C8.76281 16.1235 9.23768 16.1235 9.53057 15.8306C9.82347 15.5377 9.82347 15.0629 9.53057 14.77L5.0609 10.3003L9.53057 5.83062ZM13.5305 5.83062C13.8234 5.53773 13.8234 5.06286 13.5305 4.76996C13.2376 4.47707 12.7627 4.47707 12.4698 4.76996L7.46982 9.76996C7.17693 10.0629 7.17693 10.5377 7.46982 10.8306L12.4698 15.8306C12.7627 16.1235 13.2376 16.1235 13.5305 15.8306C13.8234 15.5377 13.8234 15.0629 13.5305 14.77L9.81081 11.0503H21.2502V17.3003C21.2502 17.7145 21.5859 18.0503 22.0002 18.0503C22.4144 18.0503 22.7502 17.7145 22.7502 17.3003V10.3003C22.7502 9.88608 22.4144 9.55029 22.0002 9.55029H9.81081L13.5305 5.83062Z" fill="white"/>
</svg>
