<svg width="24" height="25" viewBox="0 0 24 25" fill="none" xmlns="http://www.w3.org/2000/svg">
<path fill-rule="evenodd" clip-rule="evenodd" d="M18 4.57959C17.3096 4.57959 16.75 5.13923 16.75 5.82959C16.75 6.51995 17.3096 7.07959 18 7.07959C18.6904 7.07959 19.25 6.51995 19.25 5.82959C19.25 5.13923 18.6904 4.57959 18 4.57959ZM15.25 5.82959C15.25 4.31081 16.4812 3.07959 18 3.07959C19.5188 3.07959 20.75 4.31081 20.75 5.82959C20.75 7.34837 19.5188 8.57959 18 8.57959C16.4812 8.57959 15.25 7.34837 15.25 5.82959ZM6 18.5796C5.30964 18.5796 4.75 19.1392 4.75 19.8296C4.75 20.5199 5.30964 21.0796 6 21.0796C6.69036 21.0796 7.25 20.5199 7.25 19.8296C7.25 19.1392 6.69036 18.5796 6 18.5796ZM8.64648 19.0796C8.32002 17.9253 7.25878 17.0796 6 17.0796C4.48122 17.0796 3.25 18.3108 3.25 19.8296C3.25 21.3484 4.48122 22.5796 6 22.5796C7.25878 22.5796 8.32002 21.7338 8.64648 20.5796H20C20.4142 20.5796 20.75 20.2438 20.75 19.8296V12.8296C20.75 12.4154 20.4142 12.0796 20 12.0796H4.75V6.57959H10.1893L9.46967 7.29926C9.17678 7.59215 9.17678 8.06703 9.46967 8.35992C9.76256 8.65281 10.2374 8.65281 10.5303 8.35992L12.5303 6.35992C12.8232 6.06703 12.8232 5.59215 12.5303 5.29926L10.5303 3.29926C10.2374 3.00637 9.76256 3.00637 9.46967 3.29926C9.17678 3.59215 9.17678 4.06703 9.46967 4.35992L10.1893 5.07959H4C3.58579 5.07959 3.25 5.41538 3.25 5.82959V12.8296C3.25 13.2438 3.58579 13.5796 4 13.5796H19.25V19.0796H8.64648Z" fill="white"/>
</svg>
