<svg width="24" height="25" viewBox="0 0 24 25" fill="none" xmlns="http://www.w3.org/2000/svg">
<path fill-rule="evenodd" clip-rule="evenodd" d="M14.9697 1.08979C15.2626 0.796894 15.7375 0.796894 16.0304 1.08979L23.0304 8.08978C23.3233 8.38268 23.3233 8.85755 23.0304 9.15044L9.03058 23.1504C8.73769 23.4433 8.26282 23.4433 7.96992 23.1505L0.969679 16.1505C0.829023 16.0098 0.75 15.819 0.75 15.6201C0.75 15.4212 0.829017 15.2304 0.969671 15.0898L14.9697 1.08979ZM2.56067 15.6201L8.50023 21.5595L9.93937 20.1203L8.46951 18.6504C8.17662 18.3575 8.17662 17.8827 8.46951 17.5898C8.7624 17.2969 9.23728 17.2969 9.53017 17.5898L11 19.0596L12.9394 17.1203L9.96951 14.1504C9.67662 13.8576 9.67662 13.3827 9.96951 13.0898C10.2624 12.7969 10.7373 12.7969 11.0302 13.0898L14 16.0596L15.9393 14.1203L14.4695 12.6504C14.1766 12.3576 14.1766 11.8827 14.4695 11.5898C14.7624 11.2969 15.2373 11.2969 15.5302 11.5898L17 13.0596L18.9393 11.1202L15.9695 8.15045C15.6766 7.85755 15.6766 7.38268 15.9695 7.08979C16.2624 6.79689 16.7373 6.79689 17.0302 7.08979L20 10.0596L21.4394 8.62012L15.5001 2.68078L2.56067 15.6201Z" fill="white"/>
</svg>
