<svg width="24" height="25" viewBox="0 0 24 25" fill="none" xmlns="http://www.w3.org/2000/svg">
<path fill-rule="evenodd" clip-rule="evenodd" d="M3 2.31006C2.58579 2.31006 2.25 2.64585 2.25 3.06006V7.56006V8.06006C2.25 8.47427 2.58579 8.81006 3 8.81006C3.41421 8.81006 3.75 8.47427 3.75 8.06006V7.56006V3.81006H7.5H8C8.41421 3.81006 8.75 3.47427 8.75 3.06006C8.75 2.64585 8.41421 2.31006 8 2.31006H7.5H3ZM16 2.31006C15.5858 2.31006 15.25 2.64585 15.25 3.06006C15.25 3.47427 15.5858 3.81006 16 3.81006H16.5H20.25V7.56006V8.06006C20.25 8.47427 20.5858 8.81006 21 8.81006C21.4142 8.81006 21.75 8.47427 21.75 8.06006V7.56006V3.06006C21.75 2.64585 21.4142 2.31006 21 2.31006H16.5H16ZM3.75 16.0601C3.75 15.6458 3.41421 15.3101 3 15.3101C2.58579 15.3101 2.25 15.6458 2.25 16.0601V16.5601V21.0601C2.25 21.4743 2.58579 21.8101 3 21.8101H7.5H8C8.41421 21.8101 8.75 21.4743 8.75 21.0601C8.75 20.6458 8.41421 20.3101 8 20.3101H7.5H3.75V16.5601V16.0601ZM21.75 16.0601C21.75 15.6458 21.4142 15.3101 21 15.3101C20.5858 15.3101 20.25 15.6458 20.25 16.0601V16.5601V20.3101H16.5H16C15.5858 20.3101 15.25 20.6458 15.25 21.0601C15.25 21.4743 15.5858 21.8101 16 21.8101H16.5H21C21.4142 21.8101 21.75 21.4743 21.75 21.0601V16.5601V16.0601ZM2 11.3101C1.58579 11.3101 1.25 11.6459 1.25 12.0601C1.25 12.4743 1.58579 12.8101 2 12.8101H22C22.4142 12.8101 22.75 12.4743 22.75 12.0601C22.75 11.6459 22.4142 11.3101 22 11.3101H2Z" fill="white"/>
</svg>
