<svg width="24" height="25" viewBox="0 0 24 25" fill="none" xmlns="http://www.w3.org/2000/svg">
<path fill-rule="evenodd" clip-rule="evenodd" d="M3.75 11.1802C3.75 7.17611 6.99594 3.93018 11 3.93018C15.0041 3.93018 18.25 7.17611 18.25 11.1802C18.25 15.1842 15.0041 18.4302 11 18.4302C6.99594 18.4302 3.75 15.1842 3.75 11.1802ZM11 2.43018C6.16751 2.43018 2.25 6.34768 2.25 11.1802C2.25 16.0127 6.16751 19.9302 11 19.9302C13.1462 19.9302 15.112 19.1575 16.6342 17.8751L19.4697 20.7105C19.7626 21.0034 20.2374 21.0034 20.5303 20.7105C20.8232 20.4176 20.8232 19.9427 20.5303 19.6498L17.6949 16.8144C18.9773 15.2922 19.75 13.3264 19.75 11.1802C19.75 6.34768 15.8325 2.43018 11 2.43018Z" fill="white"/>
</svg>
