<svg width="24" height="25" viewBox="0 0 24 25" fill="none" xmlns="http://www.w3.org/2000/svg">
<path fill-rule="evenodd" clip-rule="evenodd" d="M2.25 3.12C2.25 2.70578 2.58579 2.37 3 2.37H7.5H8C8.41421 2.37 8.75 2.70578 8.75 3.12C8.75 3.53421 8.41421 3.87 8 3.87H7.5H3.75V7.62V8.12C3.75 8.53421 3.41421 8.87 3 8.87C2.58579 8.87 2.25 8.53421 2.25 8.12V7.62V3.12ZM15.25 3.12C15.25 2.70578 15.5858 2.37 16 2.37H16.5H21C21.4142 2.37 21.75 2.70578 21.75 3.12V7.62V8.12C21.75 8.53421 21.4142 8.87 21 8.87C20.5858 8.87 20.25 8.53421 20.25 8.12V7.62V3.87H16.5H16C15.5858 3.87 15.25 3.53421 15.25 3.12ZM3 15.37C3.41421 15.37 3.75 15.7058 3.75 16.12V16.62V20.37H7.5H8C8.41421 20.37 8.75 20.7058 8.75 21.12C8.75 21.5342 8.41421 21.87 8 21.87H7.5H3C2.58579 21.87 2.25 21.5342 2.25 21.12V16.62V16.12C2.25 15.7058 2.58579 15.37 3 15.37ZM21 15.37C21.4142 15.37 21.75 15.7058 21.75 16.12V16.62V21.12C21.75 21.5342 21.4142 21.87 21 21.87H16.5H16C15.5858 21.87 15.25 21.5342 15.25 21.12C15.25 20.7058 15.5858 20.37 16 20.37H16.5H20.25V16.62V16.12C20.25 15.7058 20.5858 15.37 21 15.37ZM12 7.36999C12.4142 7.36999 12.75 7.70578 12.75 8.11999V12.1201C12.75 13.0865 11.9665 13.87 11.0001 13.87C10.5859 13.87 10.2501 13.5342 10.2501 13.12C10.2501 12.7058 10.5859 12.37 11.0001 12.37C11.1381 12.37 11.25 12.2581 11.25 12.1201V8.11999C11.25 7.70578 11.5858 7.36999 12 7.36999ZM8.75 8.12C8.75 7.70578 8.41421 7.37 8 7.37C7.58579 7.37 7.25 7.70578 7.25 8.12V9.62C7.25 10.0342 7.58579 10.37 8 10.37C8.41421 10.37 8.75 10.0342 8.75 9.62V8.12ZM16 7.37C16.4142 7.37 16.75 7.70578 16.75 8.12V9.62C16.75 10.0342 16.4142 10.37 16 10.37C15.5858 10.37 15.25 10.0342 15.25 9.62V8.12C15.25 7.70578 15.5858 7.37 16 7.37ZM8.59967 14.6696C8.35091 14.3384 7.88076 14.2716 7.54957 14.5203C7.21838 14.7691 7.15156 15.2392 7.40033 15.5704C8.44809 16.9654 10.1187 17.87 12.0004 17.87C13.882 17.87 15.5526 16.9654 16.6004 15.5704C16.8492 15.2392 16.7824 14.7691 16.4512 14.5203C16.12 14.2716 15.6498 14.3384 15.4011 14.6696C14.6244 15.7035 13.3903 16.37 12.0004 16.37C10.6104 16.37 9.37632 15.7035 8.59967 14.6696Z" fill="white"/>
</svg>
