<svg width="24" height="25" viewBox="0 0 24 25" fill="none" xmlns="http://www.w3.org/2000/svg">
<path fill-rule="evenodd" clip-rule="evenodd" d="M8.71859 2.00655C9.73291 1.59597 10.841 1.37024 12 1.37024C16.8325 1.37024 20.75 5.28775 20.75 10.1202C20.75 10.5345 20.4142 10.8702 20 10.8702C19.5858 10.8702 19.25 10.5345 19.25 10.1202C19.25 6.11617 16.0041 2.87024 12 2.87024C11.0372 2.87024 10.12 3.05753 9.28141 3.39696C8.89746 3.55238 8.46022 3.36712 8.3048 2.98317C8.14938 2.59922 8.33464 2.16197 8.71859 2.00655ZM6.22373 4.53505C6.54692 4.79413 6.59889 5.26615 6.33981 5.58934C5.34472 6.83068 4.75 8.40498 4.75 10.1202V14.1202C4.75 17.3319 6.83888 20.0577 9.73419 21.0094C10.1277 21.1387 10.3418 21.5625 10.2125 21.956C10.0832 22.3496 9.65932 22.5637 9.26581 22.4344C5.77326 21.2864 3.25 17.999 3.25 14.1202V10.1202C3.25 8.05171 3.96872 6.14899 5.16944 4.65114C5.42852 4.32795 5.90054 4.27597 6.22373 4.53505ZM20 13.3702C20.4142 13.3702 20.75 13.706 20.75 14.1202C20.75 17.999 18.2267 21.2864 14.7342 22.4344C14.3407 22.5637 13.9168 22.3496 13.7875 21.956C13.6582 21.5625 13.8723 21.1387 14.2658 21.0094C17.1611 20.0577 19.25 17.3319 19.25 14.1202C19.25 13.706 19.5858 13.3702 20 13.3702ZM12 9.37C12.4142 9.37 12.75 9.70579 12.75 10.12V14.12C12.75 14.5342 12.4142 14.87 12 14.87C11.5858 14.87 11.25 14.5342 11.25 14.12V10.12C11.25 9.70579 11.5858 9.37 12 9.37ZM12 5.37C9.37665 5.37 7.25 7.49665 7.25 10.12V14.12C7.25 14.5342 7.58579 14.87 8 14.87C8.41421 14.87 8.75 14.5342 8.75 14.12V10.12C8.75 8.32508 10.2051 6.87 12 6.87C12.4142 6.87 12.75 6.53422 12.75 6.12C12.75 5.70579 12.4142 5.37 12 5.37ZM16.1141 7.74446C15.9067 7.38591 15.4479 7.26339 15.0893 7.4708C14.7308 7.67821 14.6083 8.137 14.8157 8.49555C15.0918 8.97282 15.25 9.52679 15.25 10.12V14.12C15.25 15.9149 13.7949 17.37 12 17.37C11.4068 17.37 10.8528 17.2118 10.3755 16.9357C10.017 16.7283 9.5582 16.8508 9.3508 17.2093C9.14339 17.5679 9.26591 18.0267 9.62446 18.2341C10.3239 18.6387 11.1361 18.87 12 18.87C14.6234 18.87 16.75 16.7434 16.75 14.12V10.12C16.75 9.25607 16.5187 8.44389 16.1141 7.74446Z" fill="white"/>
</svg>
