<svg width="24" height="25" viewBox="0 0 24 25" fill="none" xmlns="http://www.w3.org/2000/svg">
<path d="M13.2857 14.5793V20.662C13.2857 20.8829 13.1066 21.06 12.8857 21.06H11.1143C10.8934 21.06 10.7143 20.8825 10.7143 20.6616V15.0779C10.7143 14.8017 10.4899 14.58 10.2138 14.578C8.26836 14.5645 6.88418 14.4056 5.5 12.56C4.06312 10.6442 3.32579 7.66529 3.0879 6.54787C3.03773 6.31219 3.21306 6.09735 3.45401 6.09915C4.69472 6.10844 8.17132 6.2985 10 8.06C12 9.98652 13.2857 12.0867 13.2857 14.5793Z" stroke="white" stroke-width="1.5" stroke-linejoin="round"/>
<path d="M13.5 9.56C13.223 8.9932 12.7723 8.4555 12.419 8.06234C12.1637 7.77821 12.0915 7.37532 12.2785 7.04225C12.819 6.07972 13.7885 4.86204 15 4.11045C16.2178 3.35497 17.0557 3.27861 18.4286 3.11342C19.1974 3.0209 20.0523 3.07081 20.6007 3.0987C20.8213 3.10992 21.0008 3.29258 20.9949 3.51342C20.9724 4.35333 20.869 5.1412 20.5714 6.10451C20.0054 7.93662 19.5854 8.47233 18.4286 9.56C17.6089 10.3307 16.1827 10.9482 15.2928 11.2836C14.8383 11.4549 14.3393 11.2445 14.1211 10.8105C13.9343 10.4389 13.7055 9.98056 13.5 9.56Z" stroke="white" stroke-width="1.5" stroke-linejoin="round"/>
</svg>
