<svg width="24" height="25" viewBox="0 0 24 25" fill="none" xmlns="http://www.w3.org/2000/svg">
<path fill-rule="evenodd" clip-rule="evenodd" d="M2.25001 3.12012C2.25001 2.70591 2.5858 2.37012 3.00001 2.37012H6.50001C6.91423 2.37012 7.25001 2.70591 7.25001 3.12012C7.25001 3.53433 6.91423 3.87012 6.50001 3.87012H3.75001V6.62012C3.75001 7.03433 3.41423 7.37012 3.00001 7.37012C2.5858 7.37012 2.25001 7.03433 2.25001 6.62012V3.12012ZM9.25001 3.12012C9.25001 2.70591 9.5858 2.37012 10 2.37012H12H14C14.4142 2.37012 14.75 2.70591 14.75 3.12012C14.75 3.53433 14.4142 3.87012 14 3.87012H12H10C9.5858 3.87012 9.25001 3.53433 9.25001 3.12012ZM16.75 3.12012C16.75 2.70591 17.0858 2.37012 17.5 2.37012H21C21.4142 2.37012 21.75 2.70591 21.75 3.12012V6.62012C21.75 7.03433 21.4142 7.37012 21 7.37012C20.5858 7.37012 20.25 7.03433 20.25 6.62012V3.87012H17.5C17.0858 3.87012 16.75 3.53433 16.75 3.12012ZM3.00001 9.37012C3.41423 9.37012 3.75001 9.7059 3.75001 10.1201V12.1201V14.1201C3.75001 14.5343 3.41423 14.8701 3.00001 14.8701C2.5858 14.8701 2.25001 14.5343 2.25001 14.1201V12.1201V10.1201C2.25001 9.7059 2.5858 9.37012 3.00001 9.37012ZM21 9.37012C21.4142 9.37012 21.75 9.7059 21.75 10.1201V12.1201V14.1201C21.75 14.5343 21.4142 14.8701 21 14.8701C20.5858 14.8701 20.25 14.5343 20.25 14.1201V12.1201V10.1201C20.25 9.7059 20.5858 9.37012 21 9.37012ZM3.00001 16.8701C3.41423 16.8701 3.75001 17.2059 3.75001 17.6201V20.3701H6.50001C6.91423 20.3701 7.25001 20.7059 7.25001 21.1201C7.25001 21.5343 6.91423 21.8701 6.50001 21.8701H3.00001C2.5858 21.8701 2.25001 21.5343 2.25001 21.1201V17.6201C2.25001 17.2059 2.5858 16.8701 3.00001 16.8701ZM21 16.8701C21.4142 16.8701 21.75 17.2059 21.75 17.6201V21.1201C21.75 21.5343 21.4142 21.8701 21 21.8701H17.5C17.0858 21.8701 16.75 21.5343 16.75 21.1201C16.75 20.7059 17.0858 20.3701 17.5 20.3701H20.25V17.6201C20.25 17.2059 20.5858 16.8701 21 16.8701ZM9.25001 21.1201C9.25001 20.7059 9.5858 20.3701 10 20.3701H12H14C14.4142 20.3701 14.75 20.7059 14.75 21.1201C14.75 21.5343 14.4142 21.8701 14 21.8701H12H10C9.5858 21.8701 9.25001 21.5343 9.25001 21.1201Z" fill="white"/>
</svg>
