<svg width="24" height="25" viewBox="0 0 24 25" fill="none" xmlns="http://www.w3.org/2000/svg">
<path fill-rule="evenodd" clip-rule="evenodd" d="M2.45778 3.54187C2.67648 3.313 3.01534 3.2461 3.30462 3.37466L21.3046 11.3747C21.5755 11.495 21.75 11.7636 21.75 12.06C21.75 12.3564 21.5755 12.625 21.3046 12.7454L3.30462 20.7454C3.01534 20.874 2.67648 20.807 2.45778 20.5782C2.23908 20.3493 2.18762 20.0078 2.3292 19.7246L6.16149 12.06L2.3292 4.39543C2.18762 4.11229 2.23908 3.77074 2.45778 3.54187ZM7.46354 12.81L4.60574 18.5256L19.1534 12.06L4.60574 5.59442L7.46354 11.31H12C12.4142 11.31 12.75 11.6458 12.75 12.06C12.75 12.4742 12.4142 12.81 12 12.81H7.46354Z" fill="white"/>
</svg>
