<svg width="24" height="25" viewBox="0 0 24 25" fill="none" xmlns="http://www.w3.org/2000/svg">
<path fill-rule="evenodd" clip-rule="evenodd" d="M20.5306 2.52969C20.7315 2.73057 20.8016 3.0277 20.7118 3.2972L14.7115 21.2972C14.6156 21.585 14.3558 21.7866 14.0532 21.8081C13.7506 21.8296 13.4648 21.6667 13.3292 21.3954L9.44099 13.619L1.6646 9.73084C1.39328 9.59518 1.23039 9.30943 1.2519 9.00685C1.2734 8.70427 1.47506 8.44443 1.76284 8.3485L19.7631 2.3485C20.0326 2.25867 20.3297 2.32882 20.5306 2.52969ZM10.9126 13.2081L13.8611 19.1051L18.8144 4.24587L3.95493 9.19895L9.85193 12.1475L12.9699 9.02971C13.2628 8.73682 13.7376 8.73684 14.0305 9.02974C14.3234 9.32264 14.3234 9.79751 14.0305 10.0904L10.9126 13.2081Z" fill="white"/>
</svg>
