<svg width="24" height="25" viewBox="0 0 24 25" fill="none" xmlns="http://www.w3.org/2000/svg">
<path fill-rule="evenodd" clip-rule="evenodd" d="M21 2.37C21.4142 2.37 21.75 2.70578 21.75 3.12L21.75 21.12C21.75 21.5342 21.4142 21.87 21 21.87L3 21.87C2.58579 21.87 2.25 21.5342 2.25 21.12L2.25 3.11999C2.25 2.70578 2.58579 2.36999 3 2.36999L21 2.37ZM20.25 3.87L3.75 3.86999L3.75 8.38554C3.79928 8.37535 3.85034 8.36999 3.90264 8.36999L20.0971 8.37C20.1495 8.37 20.2006 8.37537 20.25 8.38559L20.25 3.87ZM3.75 14.3855L3.75 9.85445C3.79928 9.86464 3.85034 9.86999 3.90264 9.86999L20.0971 9.87C20.1495 9.87 20.2006 9.86462 20.25 9.8544L20.25 14.3856C20.2006 14.3754 20.1495 14.37 20.0971 14.37L3.90264 14.37C3.85034 14.37 3.79928 14.3753 3.75 14.3855ZM3.75 15.8545L3.75 20.37L20.25 20.37L20.25 15.8544C20.2006 15.8646 20.1495 15.87 20.0971 15.87L3.90264 15.87C3.85034 15.87 3.79928 15.8646 3.75 15.8545Z" fill="white"/>
</svg>
