<svg width="24" height="25" viewBox="0 0 24 25" fill="none" xmlns="http://www.w3.org/2000/svg">
<path fill-rule="evenodd" clip-rule="evenodd" d="M3 2.37C2.58579 2.37 2.25 2.70578 2.25 3.12V9.12V15.12V21.12C2.25 21.5342 2.58579 21.87 3 21.87H21C21.4142 21.87 21.75 21.5342 21.75 21.12V15.12V9.12V3.12C21.75 2.70578 21.4142 2.37 21 2.37H3ZM20.25 14.37H3.75V9.87H20.25V14.37ZM3.75 20.37V15.87H20.25V20.37H3.75ZM20.25 8.37V3.87H3.75V8.37H20.25ZM17 7.12C17.5523 7.12 18 6.67228 18 6.12C18 5.56771 17.5523 5.12 17 5.12C16.4477 5.12 16 5.56771 16 6.12C16 6.67228 16.4477 7.12 17 7.12ZM18 12.12C18 12.6723 17.5523 13.12 17 13.12C16.4477 13.12 16 12.6723 16 12.12C16 11.5677 16.4477 11.12 17 11.12C17.5523 11.12 18 11.5677 18 12.12ZM17 19.12C17.5523 19.12 18 18.6723 18 18.12C18 17.5677 17.5523 17.12 17 17.12C16.4477 17.12 16 17.5677 16 18.12C16 18.6723 16.4477 19.12 17 19.12Z" fill="white"/>
</svg>
