<svg width="24" height="25" viewBox="0 0 24 25" fill="none" xmlns="http://www.w3.org/2000/svg">
<path fill-rule="evenodd" clip-rule="evenodd" d="M4.75 6.12C4.75 5.99729 4.81363 5.79061 5.12623 5.51345C5.43796 5.23707 5.93183 4.95392 6.60649 4.70092C7.95026 4.19701 9.85699 3.87 12 3.87C14.143 3.87 16.0497 4.19701 17.3935 4.70092C18.0682 4.95392 18.562 5.23707 18.8738 5.51345C19.1864 5.79061 19.25 5.99729 19.25 6.12C19.25 6.2427 19.1864 6.44938 18.8738 6.72654C18.562 7.00292 18.0682 7.28607 17.3935 7.53907C16.0497 8.04298 14.143 8.37 12 8.37C9.85699 8.37 7.95026 8.04298 6.60649 7.53907C5.93183 7.28607 5.43796 7.00292 5.12623 6.72654C4.81363 6.44938 4.75 6.2427 4.75 6.12ZM19.25 8.30498C18.859 8.54794 18.4086 8.7604 17.9202 8.94356C16.3685 9.52543 14.2753 9.87 12 9.87C9.72474 9.87 7.63146 9.52543 6.0798 8.94356C5.59137 8.7604 5.14101 8.54794 4.75 8.30498V12.12C4.75 12.2427 4.81363 12.4494 5.12623 12.7265C5.43796 13.0029 5.93183 13.2861 6.60649 13.5391C7.95026 14.043 9.85699 14.37 12 14.37C14.143 14.37 16.0497 14.043 17.3935 13.5391C18.0682 13.2861 18.562 13.0029 18.8738 12.7265C19.1864 12.4494 19.25 12.2427 19.25 12.12V8.30498ZM20.75 12.12V6.12C20.75 5.41427 20.3659 4.83174 19.8689 4.39107C19.371 3.94961 18.6933 3.58633 17.9202 3.29643C16.3685 2.71456 14.2753 2.37 12 2.37C9.72474 2.37 7.63146 2.71456 6.0798 3.29643C5.30674 3.58633 4.62904 3.94961 4.13112 4.39107C3.63408 4.83174 3.25 5.41427 3.25 6.12V12.12V18.12C3.25 18.8257 3.63408 19.4082 4.13112 19.8489C4.62904 20.2904 5.30674 20.6537 6.0798 20.9436C7.63146 21.5254 9.72474 21.87 12 21.87C14.2753 21.87 16.3685 21.5254 17.9202 20.9436C18.6933 20.6537 19.371 20.2904 19.8689 19.8489C20.3659 19.4082 20.75 18.8257 20.75 18.12V12.12ZM19.25 14.305C18.859 14.5479 18.4086 14.7604 17.9202 14.9436C16.3685 15.5254 14.2753 15.87 12 15.87C9.72474 15.87 7.63146 15.5254 6.0798 14.9436C5.59137 14.7604 5.14101 14.5479 4.75 14.305V18.12C4.75 18.2427 4.81363 18.4494 5.12623 18.7265C5.43796 19.0029 5.93183 19.2861 6.60649 19.5391C7.95026 20.043 9.85699 20.37 12 20.37C14.143 20.37 16.0497 20.043 17.3935 19.5391C18.0682 19.2861 18.562 19.0029 18.8738 18.7265C19.1864 18.4494 19.25 18.2427 19.25 18.12V14.305Z" fill="white"/>
</svg>
