<svg width="24" height="25" viewBox="0 0 24 25" fill="none" xmlns="http://www.w3.org/2000/svg">
<path fill-rule="evenodd" clip-rule="evenodd" d="M9.99992 1.84009C9.58571 1.84009 9.24992 2.17587 9.24992 2.59009V5.34237C8.46371 5.64082 7.73908 6.06328 7.09983 6.58551L4.71472 5.20846C4.54246 5.10901 4.33774 5.08206 4.14561 5.13354C3.95348 5.18502 3.78966 5.31072 3.69021 5.48298L1.69021 8.94709C1.4831 9.3058 1.60601 9.7645 1.96472 9.9716L4.349 11.3482C4.28376 11.7529 4.24991 12.1678 4.24991 12.5901C4.24991 13.0124 4.28376 13.4273 4.349 13.832L1.9648 15.2085C1.60608 15.4156 1.48318 15.8743 1.69028 16.233L3.69028 19.6971C3.89739 20.0559 4.35608 20.1788 4.7148 19.9717L7.09983 18.5947C7.73908 19.1169 8.46371 19.5394 9.24992 19.8378V22.5901C9.24992 23.0043 9.58571 23.3401 9.99992 23.3401H13.9999C14.4141 23.3401 14.7499 23.0043 14.7499 22.5901V19.8378C15.5362 19.5393 16.2608 19.1168 16.9001 18.5946L19.2852 19.9716C19.4575 20.0711 19.6622 20.098 19.8543 20.0465C20.0465 19.995 20.2103 19.8694 20.3098 19.6971L22.3098 16.233C22.4092 16.0607 22.4362 15.856 22.3847 15.6639C22.3332 15.4717 22.2075 15.3079 22.0352 15.2085L19.6508 13.8318C19.7161 13.4272 19.7499 13.0123 19.7499 12.5901C19.7499 12.1678 19.7161 11.753 19.6508 11.3483L22.0353 9.97166C22.2076 9.87221 22.3333 9.70839 22.3848 9.51626C22.4362 9.32413 22.4093 9.11941 22.3098 8.94715L20.3098 5.48304C20.2104 5.31078 20.0466 5.18508 19.8544 5.1336C19.6623 5.08212 19.4576 5.10907 19.2853 5.20852L16.9001 6.58561C16.2608 6.06334 15.5362 5.64085 14.7499 5.34238V2.59009C14.7499 2.17587 14.4141 1.84009 13.9999 1.84009H9.99992ZM10.7499 5.87996V3.34009H13.2499V5.87997C13.2499 6.21178 13.468 6.50416 13.786 6.59881C14.7355 6.88141 15.5914 7.38416 16.2941 8.04883C16.535 8.2768 16.8972 8.31937 17.1845 8.1535L19.3858 6.88256L20.6358 9.04763L18.4358 10.3178C18.1488 10.4835 18.0046 10.818 18.0811 11.1405C18.1914 11.605 18.2499 12.0902 18.2499 12.5901C18.2499 13.09 18.1914 13.5752 18.0811 14.0397C18.0046 14.3622 18.1488 14.6967 18.4358 14.8624L20.6357 16.1325L19.3857 18.2976L17.1845 17.0267C16.8972 16.8608 16.535 16.9034 16.2941 17.1313C15.5914 17.796 14.7355 18.2988 13.786 18.5814C13.468 18.676 13.2499 18.9684 13.2499 19.3002V21.8401H10.7499V19.3002C10.7499 18.9684 10.5319 18.676 10.2139 18.5814C9.26436 18.2988 8.40851 17.7961 7.70587 17.1314C7.46488 16.9035 7.10276 16.8609 6.81548 17.0268L4.61432 18.2976L3.36432 16.1326L5.56402 14.8626C5.85108 14.6968 5.9953 14.3623 5.91873 14.0398C5.80846 13.5753 5.74991 13.09 5.74991 12.5901C5.74991 12.0902 5.80846 11.6049 5.91874 11.1404C5.9953 10.8179 5.85108 10.4833 5.56402 10.3176L3.36424 9.04757L4.61424 6.8825L6.81548 8.15339C7.10276 8.31925 7.46488 8.27669 7.70587 8.04873C8.40851 7.3841 9.26436 6.88139 10.2139 6.5988C10.5319 6.50415 10.7499 6.21178 10.7499 5.87996ZM9.74991 12.5901C9.74991 11.3474 10.7573 10.3401 11.9999 10.3401C13.2425 10.3401 14.2499 11.3474 14.2499 12.5901C14.2499 13.8327 13.2425 14.8401 11.9999 14.8401C10.7573 14.8401 9.74991 13.8327 9.74991 12.5901ZM11.9999 8.84009C9.92884 8.84009 8.24991 10.519 8.24991 12.5901C8.24991 14.6612 9.92884 16.3401 11.9999 16.3401C14.071 16.3401 15.7499 14.6612 15.7499 12.5901C15.7499 10.519 14.071 8.84009 11.9999 8.84009Z" fill="white"/>
</svg>
