<svg width="24" height="25" viewBox="0 0 24 25" fill="none" xmlns="http://www.w3.org/2000/svg">
<path fill-rule="evenodd" clip-rule="evenodd" d="M10 1.84009C9.5858 1.84009 9.25002 2.17587 9.25002 2.59009V5.34237C9.10444 5.39763 8.96097 5.45715 8.81976 5.52076L6.87348 3.57448C6.58058 3.28158 6.10571 3.28158 5.81282 3.57448L2.98439 6.4029C2.69149 6.6958 2.69149 7.17067 2.98439 7.46356L4.93068 9.40985C4.86706 9.55105 4.80755 9.69452 4.75229 9.84009H2C1.58579 9.84009 1.25 10.1759 1.25 10.5901V14.5901C1.25 15.0043 1.58579 15.3401 2 15.3401H4.75229C4.80755 15.4857 4.86706 15.6291 4.93068 15.7703L2.98439 17.7166C2.84374 17.8573 2.76472 18.048 2.76472 18.2469C2.76472 18.4459 2.84374 18.6366 2.98439 18.7773L5.81281 21.6057C6.10571 21.8986 6.58058 21.8986 6.87348 21.6057L8.81976 19.6594C8.96097 19.723 9.10444 19.7825 9.25002 19.8378V22.5901C9.25002 23.0043 9.5858 23.3401 10 23.3401H14C14.4142 23.3401 14.75 23.0043 14.75 22.5901V19.8378C14.8956 19.7825 15.039 19.723 15.1802 19.6594L17.1265 21.6057C17.4194 21.8986 17.8943 21.8986 18.1872 21.6057L21.0156 18.7773C21.1563 18.6366 21.2353 18.4459 21.2353 18.2469C21.2353 18.048 21.1563 17.8573 21.0156 17.7166L19.0693 15.7703C19.1329 15.6291 19.1925 15.4857 19.2477 15.3401H22C22.4142 15.3401 22.75 15.0043 22.75 14.5901V10.5901C22.75 10.1759 22.4142 9.84009 22 9.84009H19.2477C19.1925 9.69452 19.1329 9.55105 19.0693 9.40985L21.0156 7.46356C21.1563 7.32291 21.2353 7.13215 21.2353 6.93323C21.2353 6.73432 21.1563 6.54356 21.0156 6.4029L18.1872 3.57448C17.8943 3.28158 17.4194 3.28158 17.1265 3.57448L15.1802 5.52076C15.039 5.45715 14.8956 5.39764 14.75 5.34238V2.59009C14.75 2.17587 14.4142 1.84009 14 1.84009H10ZM10.75 5.87996V3.34009H13.25V5.87997C13.25 6.21178 13.468 6.50416 13.7861 6.59881C14.2013 6.72238 14.5985 6.88802 14.9729 7.09088C15.2647 7.24902 15.6258 7.19651 15.8605 6.9618L17.6569 5.16547L19.4246 6.93323L17.6283 8.72956C17.3936 8.96428 17.3411 9.32537 17.4992 9.61721C17.7021 9.99157 17.8677 10.3888 17.9913 10.804C18.0859 11.1221 18.3783 11.3401 18.7101 11.3401H21.25V13.8401H18.7101C18.3783 13.8401 18.0859 14.0581 17.9913 14.3762C17.8677 14.7914 17.7021 15.1886 17.4992 15.563C17.3411 15.8548 17.3936 16.2159 17.6283 16.4506L19.4246 18.2469L17.6569 20.0147L15.8605 18.2184C15.6258 17.9837 15.2647 17.9312 14.9729 18.0893C14.5985 18.2922 14.2013 18.4578 13.7861 18.5814C13.4681 18.676 13.25 18.9684 13.25 19.3002V21.8401H10.75V19.3002C10.75 18.9684 10.532 18.676 10.214 18.5814C9.79873 18.4578 9.40149 18.2922 9.02713 18.0893C8.73528 17.9312 8.37419 17.9837 8.13948 18.2184L6.34314 20.0147L4.57538 18.2469L6.37171 16.4506C6.60643 16.2159 6.65894 15.8548 6.50079 15.563C6.29794 15.1886 6.1323 14.7914 6.00872 14.3762C5.91407 14.0581 5.6217 13.8401 5.28988 13.8401H2.75V11.3401H5.28988C5.62169 11.3401 5.91407 11.1221 6.00872 10.804C6.1323 10.3888 6.29794 9.99157 6.50079 9.61722C6.65894 9.32537 6.60643 8.96428 6.37171 8.72957L4.57538 6.93323L6.34315 5.16547L8.13948 6.9618C8.37419 7.19651 8.73528 7.24902 9.02713 7.09088C9.40149 6.88802 9.79873 6.72238 10.214 6.5988C10.532 6.50415 10.75 6.21178 10.75 5.87996ZM9.75 12.5901C9.75 11.3474 10.7574 10.3401 12 10.3401C13.2426 10.3401 14.25 11.3474 14.25 12.5901C14.25 13.8327 13.2426 14.8401 12 14.8401C10.7574 14.8401 9.75 13.8327 9.75 12.5901ZM12 8.84009C9.92893 8.84009 8.25 10.519 8.25 12.5901C8.25 14.6612 9.92893 16.3401 12 16.3401C14.0711 16.3401 15.75 14.6612 15.75 12.5901C15.75 10.519 14.0711 8.84009 12 8.84009Z" fill="white"/>
</svg>
