<svg width="24" height="25" viewBox="0 0 24 25" fill="none" xmlns="http://www.w3.org/2000/svg">
<path fill-rule="evenodd" clip-rule="evenodd" d="M10.25 7.59009C10.25 5.51902 11.9289 3.84009 14 3.84009C15.8142 3.84009 17.3275 5.12841 17.675 6.84009H21C21.4142 6.84009 21.75 7.17587 21.75 7.59009C21.75 8.0043 21.4142 8.34009 21 8.34009H17.675C17.3275 10.0518 15.8142 11.3401 14 11.3401C11.9289 11.3401 10.25 9.66116 10.25 7.59009ZM14 5.34009C15.2426 5.34009 16.25 6.34745 16.25 7.59009C16.25 8.83273 15.2426 9.84009 14 9.84009C12.7574 9.84009 11.75 8.83273 11.75 7.59009C11.75 6.34745 12.7574 5.34009 14 5.34009ZM3 6.84009C2.58579 6.84009 2.25 7.17587 2.25 7.59009C2.25 8.0043 2.58579 8.34009 3 8.34009H8C8.41421 8.34009 8.75 8.0043 8.75 7.59009C8.75 7.17587 8.41421 6.84009 8 6.84009H3ZM3 16.8401C2.58579 16.8401 2.25 17.1759 2.25 17.5901C2.25 18.0043 2.58579 18.3401 3 18.3401H6.32501C6.67247 20.0518 8.18578 21.3401 10 21.3401C12.0711 21.3401 13.75 19.6612 13.75 17.5901C13.75 15.519 12.0711 13.8401 10 13.8401C8.18578 13.8401 6.67247 15.1284 6.32501 16.8401H3ZM7.75 17.5901C7.75 18.8327 8.75736 19.8401 10 19.8401C11.2426 19.8401 12.25 18.8327 12.25 17.5901C12.25 16.3474 11.2426 15.3401 10 15.3401C8.75736 15.3401 7.75 16.3474 7.75 17.5901ZM16 16.8401C15.5858 16.8401 15.25 17.1759 15.25 17.5901C15.25 18.0043 15.5858 18.3401 16 18.3401H21C21.4142 18.3401 21.75 18.0043 21.75 17.5901C21.75 17.1759 21.4142 16.8401 21 16.8401H16Z" fill="white"/>
</svg>
