<svg width="24" height="25" viewBox="0 0 24 25" fill="none" xmlns="http://www.w3.org/2000/svg">
<path fill-rule="evenodd" clip-rule="evenodd" d="M7.75 3.59009C7.75 3.17587 7.41421 2.84009 7 2.84009C6.58579 2.84009 6.25 3.17587 6.25 3.59009V6.9151C4.53832 7.26255 3.25 8.77587 3.25 10.5901C3.25 12.6612 4.92893 14.3401 7 14.3401C9.07107 14.3401 10.75 12.6612 10.75 10.5901C10.75 8.77587 9.46168 7.26255 7.75 6.9151V3.59009ZM4.75 10.5901C4.75 9.34745 5.75736 8.34009 7 8.34009C8.24264 8.34009 9.25 9.34745 9.25 10.5901C9.25 11.8327 8.24264 12.8401 7 12.8401C5.75736 12.8401 4.75 11.8327 4.75 10.5901ZM7.75 16.5901C7.75 16.1759 7.41421 15.8401 7 15.8401C6.58579 15.8401 6.25 16.1759 6.25 16.5901V21.5901C6.25 22.0043 6.58579 22.3401 7 22.3401C7.41421 22.3401 7.75 22.0043 7.75 21.5901V16.5901ZM17.75 3.59009C17.75 3.17587 17.4142 2.84009 17 2.84009C16.5858 2.84009 16.25 3.17587 16.25 3.59009V8.59009C16.25 9.0043 16.5858 9.34009 17 9.34009C17.4142 9.34009 17.75 9.0043 17.75 8.59009V3.59009ZM17 16.8401C18.2426 16.8401 19.25 15.8327 19.25 14.5901C19.25 13.3474 18.2426 12.3401 17 12.3401C15.7574 12.3401 14.75 13.3474 14.75 14.5901C14.75 15.8327 15.7574 16.8401 17 16.8401ZM17.75 21.5901V18.2651C19.4617 17.9176 20.75 16.4043 20.75 14.5901C20.75 12.519 19.0711 10.8401 17 10.8401C14.9289 10.8401 13.25 12.519 13.25 14.5901C13.25 16.4043 14.5383 17.9176 16.25 18.2651V21.5901C16.25 22.0043 16.5858 22.3401 17 22.3401C17.4142 22.3401 17.75 22.0043 17.75 21.5901Z" fill="white"/>
</svg>
