<svg width="24" height="25" viewBox="0 0 24 25" fill="none" xmlns="http://www.w3.org/2000/svg">
<path fill-rule="evenodd" clip-rule="evenodd" d="M15 2.84009C13.4812 2.84009 12.25 4.07131 12.25 5.59009C12.25 7.10887 13.4812 8.34009 15 8.34009C16.2588 8.34009 17.32 7.49434 17.6465 6.34009L21 6.34009C21.4142 6.34009 21.75 6.0043 21.75 5.59009C21.75 5.17588 21.4142 4.84009 21 4.84009L17.6465 4.84009C17.32 3.68584 16.2588 2.84009 15 2.84009ZM16.25 5.59009C16.25 4.89973 15.6904 4.34009 15 4.34009C14.3096 4.34009 13.75 4.89973 13.75 5.59009C13.75 6.28045 14.3096 6.84009 15 6.84009C15.6904 6.84009 16.25 6.28045 16.25 5.59009ZM3 4.84009C2.58579 4.84009 2.25 5.17588 2.25 5.59009C2.25 6.0043 2.58579 6.34009 3 6.34009L10 6.34009C10.4142 6.34009 10.75 6.0043 10.75 5.59009C10.75 5.17588 10.4142 4.84009 10 4.84009L3 4.84009ZM3 18.8401C2.58579 18.8401 2.25 19.1759 2.25 19.5901C2.25 20.0043 2.58579 20.3401 3 20.3401L10 20.3401C10.4142 20.3401 10.75 20.0043 10.75 19.5901C10.75 19.1759 10.4142 18.8401 10 18.8401L3 18.8401ZM15 16.8401C16.2588 16.8401 17.32 17.6858 17.6465 18.8401L21 18.8401C21.4142 18.8401 21.75 19.1759 21.75 19.5901C21.75 20.0043 21.4142 20.3401 21 20.3401L17.6465 20.3401C17.32 21.4943 16.2588 22.3401 15 22.3401C13.4812 22.3401 12.25 21.1089 12.25 19.5901C12.25 18.0713 13.4812 16.8401 15 16.8401ZM15 20.8401C15.6904 20.8401 16.25 20.2804 16.25 19.5901C16.25 18.8997 15.6904 18.3401 15 18.3401C14.3096 18.3401 13.75 18.8997 13.75 19.5901C13.75 20.2804 14.3096 20.8401 15 20.8401ZM2.25 12.5901C2.25 12.1759 2.58579 11.8401 3 11.8401L6.35352 11.8401C6.67998 10.6858 7.74122 9.84009 9 9.84009C10.5188 9.84009 11.75 11.0713 11.75 12.5901C11.75 14.1089 10.5188 15.3401 9 15.3401C7.74122 15.3401 6.67998 14.4943 6.35352 13.3401L3 13.3401C2.58579 13.3401 2.25 13.0043 2.25 12.5901ZM13.25 12.5901C13.25 12.1759 13.5858 11.8401 14 11.8401L21 11.8401C21.4142 11.8401 21.75 12.1759 21.75 12.5901C21.75 13.0043 21.4142 13.3401 21 13.3401L14 13.3401C13.5858 13.3401 13.25 13.0043 13.25 12.5901ZM7.75 12.5901C7.75 11.8997 8.30964 11.3401 9 11.3401C9.69036 11.3401 10.25 11.8997 10.25 12.5901C10.25 13.2804 9.69036 13.8401 9 13.8401C8.30964 13.8401 7.75 13.2804 7.75 12.5901Z" fill="white"/>
</svg>
