<svg width="24" height="25" viewBox="0 0 24 25" fill="none" xmlns="http://www.w3.org/2000/svg">
<path fill-rule="evenodd" clip-rule="evenodd" d="M4.25 6.9436C3.09575 7.27007 2.25 8.33131 2.25 9.59009C2.25 11.1089 3.48122 12.3401 5 12.3401C6.51878 12.3401 7.75 11.1089 7.75 9.59009C7.75 8.33131 6.90425 7.27007 5.75 6.9436L5.75 3.59009C5.75 3.17587 5.41421 2.84009 5 2.84009C4.58579 2.84009 4.25 3.17587 4.25 3.59009L4.25 6.9436ZM5 8.34009C4.30964 8.34009 3.75 8.89973 3.75 9.59009C3.75 10.2804 4.30964 10.8401 5 10.8401C5.69036 10.8401 6.25 10.2804 6.25 9.59009C6.25 8.89973 5.69036 8.34009 5 8.34009ZM5.75 14.5901C5.75 14.1759 5.41422 13.8401 5 13.8401C4.58579 13.8401 4.25 14.1759 4.25 14.5901L4.25 21.5901C4.25 22.0043 4.58579 22.3401 5 22.3401C5.41422 22.3401 5.75 22.0043 5.75 21.5901L5.75 14.5901ZM19.75 3.59009C19.75 3.17587 19.4142 2.84009 19 2.84009C18.5858 2.84009 18.25 3.17587 18.25 3.59009L18.25 6.9436C17.0957 7.27007 16.25 8.33131 16.25 9.59009C16.25 11.1089 17.4812 12.3401 19 12.3401C20.5188 12.3401 21.75 11.1089 21.75 9.59009C21.75 8.33131 20.9043 7.27007 19.75 6.9436L19.75 3.59009ZM19.75 14.5901C19.75 14.1759 19.4142 13.8401 19 13.8401C18.5858 13.8401 18.25 14.1759 18.25 14.5901L18.25 21.5901C18.25 22.0043 18.5858 22.3401 19 22.3401C19.4142 22.3401 19.75 22.0043 19.75 21.5901L19.75 14.5901ZM12 2.84009C12.4142 2.84009 12.75 3.17587 12.75 3.59009L12.75 10.5901C12.75 11.0043 12.4142 11.3401 12 11.3401C11.5858 11.3401 11.25 11.0043 11.25 10.5901L11.25 3.59009C11.25 3.17587 11.5858 2.84009 12 2.84009ZM11.25 18.2366L11.25 21.5901C11.25 22.0043 11.5858 22.3401 12 22.3401C12.4142 22.3401 12.75 22.0043 12.75 21.5901L12.75 18.2366C13.9043 17.9101 14.75 16.8489 14.75 15.5901C14.75 14.0713 13.5188 12.8401 12 12.8401C10.4812 12.8401 9.25 14.0713 9.25 15.5901C9.25 16.8489 10.0957 17.9101 11.25 18.2366ZM19 8.34009C18.3096 8.34009 17.75 8.89973 17.75 9.59009C17.75 10.2804 18.3096 10.8401 19 10.8401C19.6904 10.8401 20.25 10.2804 20.25 9.59009C20.25 8.89973 19.6904 8.34009 19 8.34009ZM10.75 15.5901C10.75 14.8997 11.3096 14.3401 12 14.3401C12.6904 14.3401 13.25 14.8997 13.25 15.5901C13.25 16.2804 12.6904 16.8401 12 16.8401C11.3096 16.8401 10.75 16.2804 10.75 15.5901Z" fill="white"/>
</svg>
