<svg width="24" height="25" viewBox="0 0 24 25" fill="none" xmlns="http://www.w3.org/2000/svg">
<path fill-rule="evenodd" clip-rule="evenodd" d="M12.3642 2.1144C12.1377 1.98856 11.8623 1.98856 11.6358 2.1144L2.63577 7.1144C2.39767 7.24668 2.25 7.49764 2.25 7.77002V17.77C2.25 18.0424 2.39767 18.2934 2.63577 18.4256L11.6358 23.4256C11.8623 23.5515 12.1377 23.5515 12.3642 23.4256L21.3642 18.4256C21.6023 18.2934 21.75 18.0424 21.75 17.77V7.77002C21.75 7.49764 21.6023 7.24668 21.3642 7.1144L12.3642 2.1144ZM3.75 9.25099V17.3287L11.25 21.4954V13.2216L3.75 9.25099ZM12.75 21.4954L20.25 17.3287V9.25099L12.75 13.2216V21.4954ZM19.6439 7.87461L12 3.62799L4.35607 7.87461L12 11.9214L19.6439 7.87461Z" fill="white"/>
</svg>
