<svg width="24" height="25" viewBox="0 0 24 25" fill="none" xmlns="http://www.w3.org/2000/svg">
<path fill-rule="evenodd" clip-rule="evenodd" d="M14.325 4.31C14.6725 2.59832 16.1858 1.31 18 1.31C20.0711 1.31 21.75 2.98893 21.75 5.06C21.75 7.13107 20.0711 8.81 18 8.81C16.1858 8.81 14.6725 7.52168 14.325 5.81L5.75 5.81L5.75 8.38501C7.46168 8.73246 8.75 10.2458 8.75 12.06C8.75 13.8742 7.46168 15.3875 5.74999 15.735L5.74999 18.31L14.325 18.31C14.6725 16.5983 16.1858 15.31 18 15.31C20.0711 15.31 21.75 16.9889 21.75 19.06C21.75 21.1311 20.0711 22.81 18 22.81C16.1858 22.81 14.6725 21.5217 14.325 19.81L4.99999 19.81C4.58578 19.81 4.24999 19.4742 4.24999 19.06L4.24999 15.735C2.53832 15.3875 1.25 13.8742 1.25 12.06C1.25 10.2458 2.53832 8.73247 4.25 8.38501L4.25 5.06C4.25 4.64579 4.58578 4.31 5 4.31L14.325 4.31ZM4.99743 9.81C3.75597 9.81139 2.75 10.8182 2.75 12.06C2.75 13.3026 3.75736 14.31 5 14.31C6.24264 14.31 7.25 13.3026 7.25 12.06C7.25 10.8174 6.24264 9.81 5 9.81L4.99743 9.81ZM18 2.81C16.7574 2.81 15.75 3.81736 15.75 5.06C15.75 6.30264 16.7574 7.31 18 7.31C19.2426 7.31 20.25 6.30264 20.25 5.06C20.25 3.81736 19.2426 2.81 18 2.81ZM15.75 19.06C15.75 17.8174 16.7574 16.81 18 16.81C19.2426 16.81 20.25 17.8174 20.25 19.06C20.25 20.3026 19.2426 21.31 18 21.31C16.7574 21.31 15.75 20.3026 15.75 19.06Z" fill="white"/>
</svg>
