<svg width="24" height="25" viewBox="0 0 24 25" fill="none" xmlns="http://www.w3.org/2000/svg">
<path fill-rule="evenodd" clip-rule="evenodd" d="M12.2633 1.41775C12.0936 1.35408 11.9064 1.35408 11.7367 1.41775L3.73666 4.41772C3.44393 4.52749 3.25 4.80734 3.25 5.11997L3.25 17.12C3.25 17.3786 3.38321 17.6189 3.6025 17.756L11.6025 22.756C11.8457 22.908 12.1543 22.908 12.3975 22.756L20.3975 17.756C20.6168 17.6189 20.75 17.3786 20.75 17.12L20.75 5.11997C20.75 4.80734 20.5561 4.52749 20.2633 4.41772L12.2633 1.41775ZM4.75 16.7043L4.75 5.63972L12 2.921L19.25 5.63972L19.25 16.7043L12 21.2355L4.75 16.7043ZM16.0303 10.1503C16.3232 9.85746 16.3232 9.38258 16.0303 9.08969C15.7374 8.7968 15.2626 8.7968 14.9697 9.08969L11 13.0594L9.53032 11.5897C9.23743 11.2968 8.76255 11.2968 8.46966 11.5897C8.17677 11.8826 8.17677 12.3575 8.46966 12.6503L10.4697 14.6503C10.7626 14.9432 11.2374 14.9432 11.5303 14.6503L16.0303 10.1503Z" fill="white"/>
</svg>
