<svg width="24" height="25" viewBox="0 0 24 25" fill="none" xmlns="http://www.w3.org/2000/svg">
<path fill-rule="evenodd" clip-rule="evenodd" d="M11.7367 1.41775C11.9064 1.35408 12.0936 1.35408 12.2633 1.41775L20.2633 4.41772C20.5561 4.52749 20.75 4.80734 20.75 5.11997L20.75 17.12C20.75 17.3786 20.6168 17.6189 20.3975 17.756L12.3975 22.756C12.1543 22.908 11.8457 22.908 11.6025 22.756L3.6025 17.756C3.38321 17.6189 3.25 17.3786 3.25 17.12L3.25 5.11997C3.25 4.80734 3.44393 4.52749 3.73666 4.41772L11.7367 1.41775ZM4.75 5.63972L4.75 16.7043L12 21.2355L19.25 16.7043L19.25 5.63972L12 2.921L4.75 5.63972Z" fill="white"/>
</svg>
