<svg width="24" height="25" viewBox="0 0 24 25" fill="none" xmlns="http://www.w3.org/2000/svg">
<path fill-rule="evenodd" clip-rule="evenodd" d="M1.46967 1.58967C1.76256 1.29677 2.23744 1.29677 2.53033 1.58967L5.25759 4.31692L18.6842 17.7435L21.5303 20.5897C21.8232 20.8826 21.8232 21.3574 21.5303 21.6503C21.2374 21.9432 20.7626 21.9432 20.4697 21.6503L18.0454 19.226L12.3975 22.756C12.1543 22.908 11.8457 22.908 11.6025 22.756L3.6025 17.756C3.38321 17.6189 3.25 17.3786 3.25 17.12L3.25 5.11997C3.25 4.93171 3.32032 4.75535 3.44019 4.62084L1.46967 2.65033C1.17678 2.35743 1.17678 1.88256 1.46967 1.58967ZM4.75 5.93066L4.75 16.7043L12 21.2355L16.9568 18.1375L4.75 5.93066ZM11.7367 1.41775C11.9064 1.35408 12.0936 1.35408 12.2633 1.41775L20.2633 4.41772C20.5561 4.52749 20.75 4.80734 20.75 5.11997L20.75 15.12C20.75 15.5342 20.4142 15.87 20 15.87C19.5858 15.87 19.25 15.5342 19.25 15.12L19.25 5.63972L12 2.921L8.26334 4.32223C7.8755 4.46767 7.44319 4.27116 7.29775 3.88332C7.15231 3.49548 7.34882 3.06317 7.73666 2.91774L11.7367 1.41775Z" fill="white"/>
</svg>
