<svg width="24" height="25" viewBox="0 0 24 25" fill="none" xmlns="http://www.w3.org/2000/svg">
<path fill-rule="evenodd" clip-rule="evenodd" d="M0.999908 2.8999L1.49991 2.89984H1.50002L4.00002 2.8999C4.31539 2.89991 4.59707 3.09721 4.70484 3.3936L5.61623 5.8999H22C22.246 5.8999 22.4763 6.02053 22.6164 6.22271C22.7566 6.42489 22.7886 6.68292 22.7022 6.91325L19.7022 14.9132C19.5925 15.206 19.3126 15.3999 19 15.3999H8C7.99679 15.3999 7.99359 15.3999 7.99039 15.3998H4.75V17.8998H9H17H21C21.4142 17.8998 21.75 18.2356 21.75 18.6498C21.75 19.0641 21.4142 19.3998 21 19.3998H19.4501C19.6419 19.7749 19.75 20.1997 19.75 20.6498C19.75 22.1686 18.5188 23.3998 17 23.3998C15.4812 23.3998 14.25 22.1686 14.25 20.6498C14.25 20.1997 14.3581 19.7749 14.5499 19.3998H11.4501C11.6419 19.7749 11.75 20.1997 11.75 20.6498C11.75 22.1686 10.5188 23.3998 9 23.3998C7.48122 23.3998 6.25 22.1686 6.25 20.6498C6.25 20.1997 6.35814 19.7749 6.54985 19.3998H4C3.58579 19.3998 3.25 19.0641 3.25 18.6498V14.6498C3.25 14.2356 3.58579 13.8998 4 13.8998H6.9292L3.47467 4.39989L1.50009 4.39984H1.49998L1.00009 4.3999C0.585878 4.39995 0.250051 4.06421 0.25 3.64999C0.249949 3.23578 0.585695 2.89995 0.999908 2.8999ZM14.0097 13.8999C14.0064 13.8999 14.0032 13.8998 14 13.8998H8.5253L6.16168 7.3999H20.9177L18.4802 13.8999H14.0097ZM9 19.3998C8.30964 19.3998 7.75 19.9595 7.75 20.6498C7.75 21.3402 8.30964 21.8998 9 21.8998C9.69036 21.8998 10.25 21.3402 10.25 20.6498C10.25 19.9595 9.69036 19.3998 9 19.3998ZM17 19.3998C16.3096 19.3998 15.75 19.9595 15.75 20.6498C15.75 21.3402 16.3096 21.8998 17 21.8998C17.6904 21.8998 18.25 21.3402 18.25 20.6498C18.25 19.9595 17.6904 19.3998 17 19.3998Z" fill="white"/>
</svg>
