<svg width="24" height="25" viewBox="0 0 24 25" fill="none" xmlns="http://www.w3.org/2000/svg">
<path fill-rule="evenodd" clip-rule="evenodd" d="M1.9999 2.89996L2.42847 2.8999H2.42859L4.57145 2.89996C4.9063 2.89997 5.20058 3.12195 5.29257 3.44392L5.92836 5.66919H20C20.2345 5.66919 20.4554 5.77884 20.5973 5.96556C20.7391 6.15229 20.7854 6.39458 20.7225 6.62045L18.1511 15.8512C18.0607 16.1756 17.7653 16.4 17.4286 16.4H8C7.66514 16.4 7.37085 16.178 7.27886 15.856L4.0057 4.39994L2.42867 4.3999H2.42855L2.0001 4.39996C1.58589 4.40001 1.25005 4.06427 1.25 3.65006C1.24995 3.23584 1.58569 2.90001 1.9999 2.89996ZM6.35694 7.16919L8.56573 14.9H16.8589L19.0125 7.16919H6.35694ZM7.31112 18.9055C6.70667 18.9055 6.21667 19.3955 6.21667 20C6.21667 20.6044 6.70667 21.0944 7.31112 21.0944C7.91556 21.0944 8.40556 20.6044 8.40556 20C8.40556 19.3955 7.91556 18.9055 7.31112 18.9055ZM4.71667 20C4.71667 18.5671 5.87825 17.4055 7.31112 17.4055C8.74399 17.4055 9.90556 18.5671 9.90556 20C9.90556 21.4328 8.74399 22.5944 7.31112 22.5944C5.87825 22.5944 4.71667 21.4328 4.71667 20ZM15.5944 20C15.5944 19.3955 16.0844 18.9055 16.6889 18.9055C17.2933 18.9055 17.7833 19.3955 17.7833 20C17.7833 20.6044 17.2933 21.0944 16.6889 21.0944C16.0844 21.0944 15.5944 20.6044 15.5944 20ZM16.6889 17.4055C15.256 17.4055 14.0944 18.5671 14.0944 20C14.0944 21.4328 15.256 22.5944 16.6889 22.5944C18.1217 22.5944 19.2833 21.4328 19.2833 20C19.2833 18.5671 18.1217 17.4055 16.6889 17.4055Z" fill="white"/>
</svg>
