<svg width="24" height="25" viewBox="0 0 24 25" fill="none" xmlns="http://www.w3.org/2000/svg">
<path fill-rule="evenodd" clip-rule="evenodd" d="M9 1.8999C8.58579 1.8999 8.25 2.23569 8.25 2.6499V6.8999H4.125C3.73408 6.8999 3.40872 7.20017 3.37741 7.58983L2.25241 21.5898C2.23564 21.7985 2.30686 22.0047 2.44884 22.1586C2.59082 22.3124 2.79065 22.3999 3 22.3999H21C21.2094 22.3999 21.4092 22.3124 21.5512 22.1586C21.6931 22.0047 21.7644 21.7985 21.7476 21.5898L20.6226 7.58983C20.5913 7.20017 20.2659 6.8999 19.875 6.8999H15.75V2.6499C15.75 2.23569 15.4142 1.8999 15 1.8999H9ZM14.25 8.3999V9.6499C14.25 10.0641 14.5858 10.3999 15 10.3999C15.4142 10.3999 15.75 10.0641 15.75 9.6499V8.3999H19.1829L20.1873 20.8999H3.81269L4.81715 8.3999H8.25V9.6499C8.25 10.0641 8.58579 10.3999 9 10.3999C9.41422 10.3999 9.75 10.0641 9.75 9.6499V8.3999H14.25ZM14.25 6.8999V3.3999H9.75V6.8999H14.25Z" fill="white"/>
</svg>
