<svg width="24" height="25" viewBox="0 0 24 25" fill="none" xmlns="http://www.w3.org/2000/svg">
<path fill-rule="evenodd" clip-rule="evenodd" d="M11.5 2.24976C11.3049 2.24976 11.1174 2.32585 10.9774 2.46187L5.47738 7.80631C5.44716 7.83567 5.41995 7.86696 5.39574 7.89979H4.42131L4.37116 7.89978H4.37115H4.37114H4.37114H4.37113H4.37113H4.37112C3.85377 7.89973 3.38779 7.89968 3.01651 7.95272C2.61284 8.01038 2.18153 8.14779 1.86145 8.5353C1.54136 8.92281 1.48787 9.3723 1.50748 9.7796C1.52551 10.1542 1.61356 10.6118 1.71132 11.1199L1.72079 11.1691L2.51561 15.3022L2.52508 15.3514C2.81557 16.862 3.04668 18.0639 3.3488 18.9986C3.66056 19.9631 4.07305 20.7288 4.77908 21.312C5.48511 21.8952 6.31488 22.1556 7.32095 22.2796C8.29585 22.3998 9.51965 22.3998 11.0579 22.3998H11.0579H11.0579H11.058H11.058H11.058H11.0581H11.1082H12.8919H12.942H12.9421H12.9421H12.9421H12.9422H12.9422H12.9422C14.4804 22.3998 15.7042 22.3998 16.6791 22.2796C17.6852 22.1556 18.515 21.8952 19.221 21.312C19.927 20.7288 20.3395 19.9631 20.6513 18.9986C20.9534 18.0639 21.1845 16.862 21.475 15.3514L21.4845 15.3022L22.2793 11.1691L22.2888 11.1199C22.3865 10.6119 22.4746 10.1542 22.4926 9.7796C22.5122 9.3723 22.4587 8.92281 22.1386 8.5353C21.8186 8.14779 21.3873 8.01038 20.9836 7.95272C20.6123 7.89968 20.1463 7.89973 19.6289 7.89978H19.6289L19.5788 7.89979H18.6043C18.5801 7.86696 18.5529 7.83567 18.5227 7.80631L13.0227 2.46187C12.8827 2.32585 12.6952 2.24976 12.5 2.24976H11.5ZM16.4665 7.89979L12.1957 3.74976H11.8044L7.53359 7.89979H16.4665ZM3.01834 9.49091C3.01755 9.49321 3.01644 9.49686 3.01516 9.50216C3.00866 9.52909 3.00006 9.58935 3.00574 9.70749C3.018 9.96205 3.08357 10.3126 3.1938 10.8858L3.45609 12.2498H6.25004V9.39979H4.42131C3.83761 9.39979 3.48093 9.4016 3.22863 9.43764C3.11156 9.45437 3.054 9.4742 3.02879 9.48566C3.02382 9.48792 3.02045 9.48971 3.01834 9.49091ZM3.98862 15.0189L3.74456 13.7498H6.25004V16.2497H4.22809C4.15311 15.8737 4.07438 15.4649 3.98862 15.0189ZM4.55483 17.7497C4.62628 18.0375 4.69893 18.2985 4.77609 18.5373C5.04011 19.3541 5.33139 19.8226 5.73435 20.1555C5.88628 20.281 6.05417 20.3873 6.25004 20.4766V17.7497H4.55483ZM7.75004 17.7497V20.8178C8.58748 20.8987 9.65444 20.8998 11.1082 20.8998H11.25V17.7497H7.75004ZM12.75 17.7497V20.8998H12.8919C14.3456 20.8998 15.4126 20.8987 16.25 20.8178V17.7497H12.75ZM18.2657 20.1555C18.1138 20.281 17.9459 20.3873 17.75 20.4766V17.7497H19.4453C19.3738 18.0375 19.3012 18.2985 19.224 18.5373C18.96 19.3541 18.6687 19.8226 18.2657 20.1555ZM19.772 16.2497H17.75V13.7498H20.2555L20.0115 15.0189C19.9257 15.4649 19.847 15.8737 19.772 16.2497ZM20.544 12.2498H17.75V9.39979H19.5788C20.1625 9.39979 20.5192 9.4016 20.7715 9.43764C20.8885 9.45437 20.9461 9.4742 20.9713 9.48566C20.9763 9.48792 20.9796 9.48971 20.9817 9.49091C20.9825 9.49321 20.9837 9.49687 20.9849 9.50216C20.9914 9.52909 21 9.58935 20.9944 9.70748C20.9821 9.96205 20.9165 10.3126 20.8063 10.8858L20.544 12.2498ZM16.25 12.2498V9.39979H12.75V12.2498H16.25ZM16.25 16.2497V13.7498H12.75V16.2497H16.25ZM11.25 16.2497H7.75004V13.7498H11.25V16.2497ZM7.75004 12.2498H11.25V9.39979H7.75004V12.2498Z" fill="white"/>
</svg>
