<svg width="24" height="25" viewBox="0 0 24 25" fill="none" xmlns="http://www.w3.org/2000/svg">
<path fill-rule="evenodd" clip-rule="evenodd" d="M5.125 2.8999C4.7448 2.8999 4.42475 3.18439 4.38018 3.56197L2.25518 21.562C2.23006 21.7747 2.29712 21.9881 2.43945 22.1482C2.58177 22.3083 2.78578 22.3999 3 22.3999H21C21.2142 22.3999 21.4182 22.3083 21.5606 22.1482C21.7029 21.9881 21.7699 21.7747 21.7448 21.562L19.6198 3.56197C19.5753 3.18439 19.2552 2.8999 18.875 2.8999H5.125ZM3.84375 20.8999L5.79167 4.3999H18.2083L20.1563 20.8999H3.84375ZM9.00011 13.3999C8.5859 13.3999 8.25011 13.0641 8.25011 12.6499V7.6499C8.25011 7.23569 8.5859 6.8999 9.00011 6.8999C9.41432 6.8999 9.75011 7.23569 9.75011 7.6499V11.8999H14.2501V7.6499C14.2501 7.23569 14.5859 6.8999 15.0001 6.8999C15.4143 6.8999 15.7501 7.23569 15.7501 7.6499V12.6499C15.7501 13.0641 15.4143 13.3999 15.0001 13.3999H9.00011Z" fill="white"/>
</svg>
