<svg width="24" height="25" viewBox="0 0 24 25" fill="none" xmlns="http://www.w3.org/2000/svg">
<path fill-rule="evenodd" clip-rule="evenodd" d="M6.72065 5.72009C8.15128 4.52748 9.99185 3.81 12 3.81C16.5563 3.81 20.25 7.50365 20.25 12.06C20.25 14.0681 19.5325 15.9087 18.3399 17.3393L6.72065 5.72009ZM5.66 6.78076C4.46745 8.21138 3.75 10.0519 3.75 12.06C3.75 16.6163 7.44365 20.31 12 20.31C14.0081 20.31 15.8486 19.5926 17.2792 18.4L5.66 6.78076ZM12 2.31C6.61522 2.31 2.25 6.67522 2.25 12.06C2.25 17.4448 6.61522 21.81 12 21.81C17.3848 21.81 21.75 17.4448 21.75 12.06C21.75 6.67522 17.3848 2.31 12 2.31Z" fill="white"/>
</svg>
