<svg width="24" height="25" viewBox="0 0 24 25" fill="none" xmlns="http://www.w3.org/2000/svg">
<path fill-rule="evenodd" clip-rule="evenodd" d="M5.25 4.18018C5.25 3.76596 5.58579 3.43018 6 3.43018H18C18.4142 3.43018 18.75 3.76596 18.75 4.18018V20.1802C18.75 20.5944 18.4142 20.9302 18 20.9302H6C5.58579 20.9302 5.25 20.5944 5.25 20.1802V4.18018ZM6.75 4.93018V19.4302H17.25V4.93018H6.75ZM2 4.43018C2.41421 4.43018 2.75 4.76596 2.75 5.18018L2.75 19.1802C2.75 19.5944 2.41421 19.9302 2 19.9302C1.58579 19.9302 1.25 19.5944 1.25 19.1802V5.18018C1.25 4.76596 1.58579 4.43018 2 4.43018ZM22.75 5.18018C22.75 4.76596 22.4142 4.43018 22 4.43018C21.5858 4.43018 21.25 4.76596 21.25 5.18018V19.1802C21.25 19.5944 21.5858 19.9302 22 19.9302C22.4142 19.9302 22.75 19.5944 22.75 19.1802V5.18018Z" fill="white"/>
</svg>
