<svg width="24" height="25" viewBox="0 0 24 25" fill="none" xmlns="http://www.w3.org/2000/svg">
<path fill-rule="evenodd" clip-rule="evenodd" d="M3.25 3.18018C3.25 2.76596 3.58579 2.43018 4 2.43018H20C20.4142 2.43018 20.75 2.76596 20.75 3.18018V13.1802C20.75 13.5944 20.4142 13.9302 20 13.9302H4C3.58579 13.9302 3.25 13.5944 3.25 13.1802V3.18018ZM4.75 3.93018V12.4302H19.25V3.93018H4.75ZM5.25 17.1802C5.25 16.766 5.58579 16.4302 6 16.4302H18C18.4142 16.4302 18.75 16.766 18.75 17.1802C18.75 17.5944 18.4142 17.9302 18 17.9302H6C5.58579 17.9302 5.25 17.5944 5.25 17.1802ZM9 20.4302C8.58579 20.4302 8.25 20.766 8.25 21.1802C8.25 21.5944 8.58579 21.9302 9 21.9302H15C15.4142 21.9302 15.75 21.5944 15.75 21.1802C15.75 20.766 15.4142 20.4302 15 20.4302H9Z" fill="white"/>
</svg>
