<svg width="24" height="25" viewBox="0 0 24 25" fill="none" xmlns="http://www.w3.org/2000/svg">
<path fill-rule="evenodd" clip-rule="evenodd" d="M4.25 2.18018C4.25 1.76596 4.58579 1.43018 5 1.43018H19C19.4142 1.43018 19.75 1.76596 19.75 2.18018C19.75 2.59439 19.4142 2.93018 19 2.93018H5C4.58579 2.93018 4.25 2.59439 4.25 2.18018ZM3.25 6.18018C3.25 5.76596 3.58579 5.43018 4 5.43018H20C20.4142 5.43018 20.75 5.76596 20.75 6.18018V18.1802C20.75 18.5944 20.4142 18.9302 20 18.9302H4C3.58579 18.9302 3.25 18.5944 3.25 18.1802V6.18018ZM4.75 6.93018V17.4302H19.25V6.93018H4.75ZM5 21.4302C4.58579 21.4302 4.25 21.766 4.25 22.1802C4.25 22.5944 4.58579 22.9302 5 22.9302H19C19.4142 22.9302 19.75 22.5944 19.75 22.1802C19.75 21.766 19.4142 21.4302 19 21.4302H5Z" fill="white"/>
</svg>
