<svg width="24" height="25" viewBox="0 0 24 25" fill="none" xmlns="http://www.w3.org/2000/svg">
<path fill-rule="evenodd" clip-rule="evenodd" d="M2.25 4.18018C2.25 3.76596 2.58579 3.43018 3 3.43018H13C13.4142 3.43018 13.75 3.76596 13.75 4.18018V20.1802C13.75 20.5944 13.4142 20.9302 13 20.9302H3C2.58579 20.9302 2.25 20.5944 2.25 20.1802V4.18018ZM3.75 4.93018V19.4302H12.25V4.93018H3.75ZM17 5.43018C17.4142 5.43018 17.75 5.76596 17.75 6.18018L17.75 18.1802C17.75 18.5944 17.4142 18.9302 17 18.9302C16.5858 18.9302 16.25 18.5944 16.25 18.1802L16.25 6.18018C16.25 5.76596 16.5858 5.43018 17 5.43018ZM21.75 9.18018C21.75 8.76596 21.4142 8.43018 21 8.43018C20.5858 8.43018 20.25 8.76596 20.25 9.18018V15.1802C20.25 15.5944 20.5858 15.9302 21 15.9302C21.4142 15.9302 21.75 15.5944 21.75 15.1802V9.18018Z" fill="white"/>
</svg>
