<svg width="24" height="25" viewBox="0 0 24 25" fill="none" xmlns="http://www.w3.org/2000/svg">
<path fill-rule="evenodd" clip-rule="evenodd" d="M4 3.84009L3.95525 3.84008C3.52244 3.84003 3.1256 3.83999 2.80279 3.88339C2.44731 3.93118 2.07159 4.04363 1.76256 4.35265C1.45354 4.66167 1.34109 5.0374 1.2933 5.39288C1.2499 5.71569 1.24995 6.11252 1.25 6.54534L1.25 6.59009H2.75C2.75 6.09748 2.75159 5.80347 2.77992 5.59275C2.79291 5.49619 2.8082 5.44783 2.81716 5.42605C2.81923 5.42101 2.82085 5.41769 2.82186 5.41576L2.82324 5.41333L2.82567 5.41195C2.8276 5.41094 2.83092 5.40932 2.83596 5.40725C2.85774 5.39829 2.90611 5.38299 3.00266 5.37001C3.21339 5.34168 3.50739 5.34009 4 5.34009H8.25V19.8401H7C6.58579 19.8401 6.25 20.1759 6.25 20.5901C6.25 21.0043 6.58579 21.3401 7 21.3401H9H11C11.4142 21.3401 11.75 21.0043 11.75 20.5901C11.75 20.1759 11.4142 19.8401 11 19.8401H9.75V5.34009H14C14.4926 5.34009 14.7866 5.34168 14.9973 5.37001C15.0939 5.38299 15.1423 5.39829 15.164 5.40725C15.1691 5.40932 15.1724 5.41094 15.1743 5.41195L15.1768 5.41333L15.1781 5.41576C15.1791 5.41769 15.1808 5.42101 15.1828 5.42605C15.1918 5.44783 15.2071 5.49619 15.2201 5.59275C15.2484 5.80347 15.25 6.09748 15.25 6.59009H16.75L16.75 6.54534V6.54533C16.7501 6.11252 16.7501 5.71569 16.7067 5.39288C16.6589 5.0374 16.5465 4.66167 16.2374 4.35265C15.9284 4.04363 15.5527 3.93118 15.1972 3.88339C14.8744 3.83999 14.4776 3.84003 14.0447 3.84008L14 3.84009H9H4ZM15 11.8401L14.9656 11.8401C14.7604 11.84 14.5386 11.8399 14.3514 11.8651C14.1321 11.8946 13.8519 11.9704 13.6161 12.2062C13.3803 12.442 13.3045 12.7222 13.275 12.9415C13.2498 13.1287 13.2499 13.3505 13.25 13.5556V13.5556L13.25 13.5901V14.0901C13.25 14.5043 13.5858 14.8401 14 14.8401C14.4142 14.8401 14.75 14.5043 14.75 14.0901V13.5901C14.75 13.491 14.75 13.4107 14.7512 13.3412C14.8206 13.3401 14.9009 13.3401 15 13.3401H17.25V19.8401H16.5C16.0858 19.8401 15.75 20.1759 15.75 20.5901C15.75 21.0043 16.0858 21.3401 16.5 21.3401H18H19.5C19.9142 21.3401 20.25 21.0043 20.25 20.5901C20.25 20.1759 19.9142 19.8401 19.5 19.8401H18.75V13.3401H21C21.0991 13.3401 21.1794 13.3401 21.2488 13.3412C21.25 13.4107 21.25 13.491 21.25 13.5901V14.0901C21.25 14.5043 21.5858 14.8401 22 14.8401C22.4142 14.8401 22.75 14.5043 22.75 14.0901V13.5901L22.75 13.5556V13.5556C22.7501 13.3505 22.7502 13.1287 22.725 12.9415C22.6955 12.7222 22.6197 12.442 22.3839 12.2062C22.1481 11.9704 21.8679 11.8946 21.6486 11.8651C21.4614 11.8399 21.2396 11.84 21.0344 11.8401L21 11.8401H18H15Z" fill="white"/>
</svg>
