<svg width="24" height="25" viewBox="0 0 24 25" fill="none" xmlns="http://www.w3.org/2000/svg">
<path fill-rule="evenodd" clip-rule="evenodd" d="M2 3.84009C1.58579 3.84009 1.25 4.17587 1.25 4.59009C1.25 5.0043 1.58579 5.34009 2 5.34009H8.25V20.5901C8.25 21.0043 8.58579 21.3401 9 21.3401C9.41421 21.3401 9.75 21.0043 9.75 20.5901V5.34009H16C16.4142 5.34009 16.75 5.0043 16.75 4.59009C16.75 4.17587 16.4142 3.84009 16 3.84009H9H2ZM14 11.8401C13.5858 11.8401 13.25 12.1759 13.25 12.5901C13.25 13.0043 13.5858 13.3401 14 13.3401H17.25V20.5901C17.25 21.0043 17.5858 21.3401 18 21.3401C18.4142 21.3401 18.75 21.0043 18.75 20.5901V13.3401H22C22.4142 13.3401 22.75 13.0043 22.75 12.5901C22.75 12.1759 22.4142 11.8401 22 11.8401H18H14Z" fill="white"/>
</svg>
