<svg width="24" height="25" viewBox="0 0 24 25" fill="none" xmlns="http://www.w3.org/2000/svg">
<path fill-rule="evenodd" clip-rule="evenodd" d="M15 2.43018C14.5858 2.43018 14.25 2.76596 14.25 3.18018V6.93018V9.18018C14.25 9.59439 14.5858 9.93018 15 9.93018C15.4142 9.93018 15.75 9.59439 15.75 9.18018V7.68018H18.25V9.18018C18.25 9.59439 18.5858 9.93018 19 9.93018C19.4142 9.93018 19.75 9.59439 19.75 9.18018V6.93018V3.18018C19.75 2.76596 19.4142 2.43018 19 2.43018H15ZM18.25 6.18018H15.75V3.93018H18.25V6.18018ZM7 5.43018C7.41421 5.43018 7.75 5.76596 7.75 6.18018V16.3695L9.46967 14.6498C9.76256 14.357 10.2374 14.357 10.5303 14.6498C10.8232 14.9427 10.8232 15.4176 10.5303 15.7105L7.53033 18.7105C7.23744 19.0034 6.76256 19.0034 6.46967 18.7105L3.46967 15.7105C3.17678 15.4176 3.17678 14.9427 3.46967 14.6498C3.76256 14.357 4.23744 14.357 4.53033 14.6498L6.25 16.3695V6.18018C6.25 5.76596 6.58579 5.43018 7 5.43018ZM14.25 13.1802C14.25 12.766 14.5858 12.4302 15 12.4302H19C19.2766 12.4302 19.5307 12.5824 19.6613 12.8263C19.7918 13.0702 19.7775 13.3661 19.624 13.5962L16.4014 18.4302H19C19.4142 18.4302 19.75 18.766 19.75 19.1802C19.75 19.5944 19.4142 19.9302 19 19.9302H15C14.7234 19.9302 14.4693 19.7779 14.3387 19.5341C14.2082 19.2902 14.2225 18.9943 14.376 18.7642L17.5986 13.9302H15C14.5858 13.9302 14.25 13.5944 14.25 13.1802Z" fill="white"/>
</svg>
