<svg width="24" height="25" viewBox="0 0 24 25" fill="none" xmlns="http://www.w3.org/2000/svg">
<path fill-rule="evenodd" clip-rule="evenodd" d="M14.25 3.18018C14.25 2.76596 14.5858 2.43018 15 2.43018H19C19.2766 2.43018 19.5307 2.58241 19.6613 2.82628C19.7918 3.07015 19.7775 3.36606 19.624 3.5962L16.4014 8.43018H19C19.4142 8.43018 19.75 8.76596 19.75 9.18018C19.75 9.59439 19.4142 9.93018 19 9.93018H15C14.7234 9.93018 14.4693 9.77794 14.3387 9.53407C14.2082 9.2902 14.2225 8.99429 14.376 8.76415L17.5986 3.93018H15C14.5858 3.93018 14.25 3.59439 14.25 3.18018ZM7 5.43018C7.41421 5.43018 7.75 5.76596 7.75 6.18018V16.3695L9.46967 14.6498C9.76256 14.357 10.2374 14.357 10.5303 14.6498C10.8232 14.9427 10.8232 15.4176 10.5303 15.7105L7.53033 18.7105C7.23744 19.0034 6.76256 19.0034 6.46967 18.7105L3.46967 15.7105C3.17678 15.4176 3.17678 14.9427 3.46967 14.6498C3.76256 14.357 4.23744 14.357 4.53033 14.6498L6.25 16.3695V6.18018C6.25 5.76596 6.58579 5.43018 7 5.43018ZM15 12.4302C14.5858 12.4302 14.25 12.766 14.25 13.1802V16.9302V19.1802C14.25 19.5944 14.5858 19.9302 15 19.9302C15.4142 19.9302 15.75 19.5944 15.75 19.1802V17.6802H18.25V19.1802C18.25 19.5944 18.5858 19.9302 19 19.9302C19.4142 19.9302 19.75 19.5944 19.75 19.1802V16.9302V13.1802C19.75 12.766 19.4142 12.4302 19 12.4302H15ZM18.25 16.1802H15.75V13.9302H18.25V16.1802Z" fill="white"/>
</svg>
