<svg width="24" height="25" viewBox="0 0 24 25" fill="none" xmlns="http://www.w3.org/2000/svg">
<path fill-rule="evenodd" clip-rule="evenodd" d="M15 2.43018C14.5858 2.43018 14.25 2.76596 14.25 3.18018V6.18018C14.25 6.59439 14.5858 6.93018 15 6.93018H18.25V8.43018H15C14.5858 8.43018 14.25 8.76596 14.25 9.18018C14.25 9.59439 14.5858 9.93018 15 9.93018H19C19.4142 9.93018 19.75 9.59439 19.75 9.18018V6.18018V3.18018C19.75 2.76596 19.4142 2.43018 19 2.43018H15ZM18.25 3.93018V5.43018H15.75V3.93018H18.25ZM7 5.43018C7.41421 5.43018 7.75 5.76596 7.75 6.18018V16.3695L9.46967 14.6498C9.76256 14.357 10.2374 14.357 10.5303 14.6498C10.8232 14.9427 10.8232 15.4176 10.5303 15.7105L7.53033 18.7105C7.23744 19.0034 6.76256 19.0034 6.46967 18.7105L3.46967 15.7105C3.17678 15.4176 3.17678 14.9427 3.46967 14.6498C3.76256 14.357 4.23744 14.357 4.53033 14.6498L6.25 16.3695V6.18018C6.25 5.76596 6.58579 5.43018 7 5.43018ZM17.287 12.4873C17.5673 12.6034 17.75 12.8768 17.75 13.1802V18.4302H19C19.4142 18.4302 19.75 18.766 19.75 19.1802C19.75 19.5944 19.4142 19.9302 19 19.9302H17H15C14.5858 19.9302 14.25 19.5944 14.25 19.1802C14.25 18.766 14.5858 18.4302 15 18.4302H16.25V14.9908L15.5303 15.7105C15.2374 16.0034 14.7626 16.0034 14.4697 15.7105C14.1768 15.4176 14.1768 14.9427 14.4697 14.6498L16.4697 12.6498C16.6842 12.4353 17.0068 12.3712 17.287 12.4873Z" fill="white"/>
</svg>
