<svg width="24" height="25" viewBox="0 0 24 25" fill="none" xmlns="http://www.w3.org/2000/svg">
<path fill-rule="evenodd" clip-rule="evenodd" d="M17.287 2.48729C17.5673 2.60337 17.75 2.87685 17.75 3.1802V8.4302H19C19.4142 8.4302 19.75 8.76598 19.75 9.1802C19.75 9.59441 19.4142 9.9302 19 9.9302H17H15C14.5858 9.9302 14.25 9.59441 14.25 9.1802C14.25 8.76598 14.5858 8.4302 15 8.4302H16.25V4.99086L15.5303 5.71053C15.2374 6.00342 14.7626 6.00342 14.4697 5.71053C14.1768 5.41763 14.1768 4.94276 14.4697 4.64987L16.4697 2.64987C16.6842 2.43537 17.0068 2.3712 17.287 2.48729ZM7 5.4302C7.41421 5.4302 7.75 5.76598 7.75 6.1802V16.3695L9.46967 14.6499C9.76256 14.357 10.2374 14.357 10.5303 14.6499C10.8232 14.9428 10.8232 15.4176 10.5303 15.7105L7.53033 18.7105C7.23744 19.0034 6.76256 19.0034 6.46967 18.7105L3.46967 15.7105C3.17678 15.4176 3.17678 14.9428 3.46967 14.6499C3.76256 14.357 4.23744 14.357 4.53033 14.6499L6.25 16.3695V6.1802C6.25 5.76598 6.58579 5.4302 7 5.4302ZM19.75 13.1802C19.75 12.766 19.4142 12.4302 19 12.4302H15C14.5858 12.4302 14.25 12.766 14.25 13.1802V16.1802C14.25 16.5944 14.5858 16.9302 15 16.9302H18.25V18.4302H15C14.5858 18.4302 14.25 18.766 14.25 19.1802C14.25 19.5944 14.5858 19.9302 15 19.9302H19C19.4142 19.9302 19.75 19.5944 19.75 19.1802V16.1802V13.1802ZM18.25 13.9302V15.4302H15.75V13.9302H18.25Z" fill="white"/>
</svg>
