<svg width="24" height="25" viewBox="0 0 24 25" fill="none" xmlns="http://www.w3.org/2000/svg">
<path fill-rule="evenodd" clip-rule="evenodd" d="M12.75 4.12C12.75 3.70578 12.4142 3.37 12 3.37C11.5858 3.37 11.25 3.70578 11.25 4.12L11.25 20.12C11.25 20.5342 11.5858 20.87 12 20.87C12.4142 20.87 12.75 20.5342 12.75 20.12L12.75 4.12ZM7 7.37C7.41421 7.37 7.75 7.70578 7.75 8.12L7.75 16.12C7.75 16.5342 7.41421 16.87 7 16.87C6.58578 16.87 6.25 16.5342 6.25 16.12L6.25 8.12C6.25 7.70578 6.58578 7.37 7 7.37ZM2 10.37C2.41421 10.37 2.75 10.7058 2.75 11.12L2.75 13.12C2.75 13.5342 2.41421 13.87 2 13.87C1.58579 13.87 1.25 13.5342 1.25 13.12L1.25 11.12C1.25 10.7058 1.58579 10.37 2 10.37ZM17 7.37C17.4142 7.37 17.75 7.70578 17.75 8.12L17.75 16.12C17.75 16.5342 17.4142 16.87 17 16.87C16.5858 16.87 16.25 16.5342 16.25 16.12L16.25 8.12C16.25 7.70578 16.5858 7.37 17 7.37ZM22.75 11.12C22.75 10.7058 22.4142 10.37 22 10.37C21.5858 10.37 21.25 10.7058 21.25 11.12L21.25 13.12C21.25 13.5342 21.5858 13.87 22 13.87C22.4142 13.87 22.75 13.5342 22.75 13.12L22.75 11.12Z" fill="white"/>
</svg>
