<svg width="24" height="25" viewBox="0 0 24 25" fill="none" xmlns="http://www.w3.org/2000/svg">
<path fill-rule="evenodd" clip-rule="evenodd" d="M12.0003 4.80988C7.99622 4.80988 4.75029 8.05581 4.75029 12.0599C4.75029 12.3475 4.767 12.6309 4.79945 12.9093C5.021 14.81 5.97822 16.4863 7.37878 17.6462C9.2456 17.0896 11.413 16.1519 13.6256 14.8745C15.8384 13.5969 17.7344 12.1886 19.1498 10.85C18.8347 8.97354 17.7989 7.34147 16.3347 6.24759C15.1257 5.34439 13.6265 4.80988 12.0003 4.80988ZM19.2124 12.8056C17.8503 13.961 16.2066 15.1163 14.3756 16.1735C12.5437 17.2311 10.7206 18.0772 9.0383 18.6791C9.94268 19.0844 10.9452 19.3099 12.0003 19.3099C15.7526 19.3099 18.8391 16.4593 19.2124 12.8056ZM7.06913 19.2891C8.47317 20.2487 10.1711 20.8099 12.0003 20.8099C16.8328 20.8099 20.7503 16.8924 20.7503 12.0599C20.7503 11.8395 20.7421 11.6209 20.7261 11.4046C20.9371 11.1895 21.1368 10.9759 21.3244 10.7643C22.1143 9.87354 22.7203 8.98692 23.0512 8.15779C23.3782 7.33865 23.4827 6.44748 23.0424 5.68487C22.5305 4.79824 21.5059 4.46123 20.4509 4.39412C19.4529 4.33064 18.2469 4.49165 16.9314 4.83078C15.5272 3.87125 13.8284 3.30988 12.0003 3.30988C7.1678 3.30988 3.25029 7.22739 3.25029 12.0599C3.25029 12.2803 3.25846 12.499 3.27452 12.7156C2.32298 13.6854 1.58049 14.6494 1.13652 15.5455C0.667253 16.4926 0.446897 17.5483 0.958738 18.4349C1.39903 19.1975 2.22305 19.5526 3.09592 19.679C3.97944 19.807 5.05028 19.7255 6.21667 19.4868C6.49334 19.4302 6.77778 19.3642 7.06913 19.2891ZM5.64148 18.0705C4.71342 17.0889 4.01014 15.8925 3.61395 14.5637C3.10503 15.1621 2.72485 15.7184 2.48058 16.2114C2.08708 17.0056 2.12655 17.4576 2.25778 17.6849C2.36977 17.8788 2.65349 18.0993 3.31093 18.1945C3.90186 18.2801 4.68916 18.2451 5.64148 18.0705ZM18.3592 6.04933C19.133 5.90738 19.8059 5.85612 20.3557 5.89109C21.2404 5.94738 21.6121 6.20756 21.7433 6.43487C21.8553 6.62885 21.9044 6.98476 21.6581 7.60174C21.4369 8.1559 21.0135 8.81969 20.3868 9.55648C19.9906 8.22731 19.287 7.03072 18.3592 6.04933Z" fill="white"/>
</svg>
