<svg width="24" height="25" viewBox="0 0 24 25" fill="none" xmlns="http://www.w3.org/2000/svg">
<g clip-path="url(#clip0_9_5108)">
<path fill-rule="evenodd" clip-rule="evenodd" d="M12 0.309938C12.2126 0.309938 12.4152 0.400179 12.5575 0.558215L17.5575 6.11377C17.6814 6.25149 17.75 6.43021 17.75 6.61549L17.75 12.4741L21.1819 13.3321C21.5158 13.4156 21.75 13.7155 21.75 14.0597L21.75 20.0597C21.75 20.2906 21.6436 20.5087 21.4616 20.6508C21.2795 20.793 21.0422 20.8433 20.8181 20.7873L17.75 20.0203L17.75 21.0599C17.75 21.4742 17.4142 21.8099 17 21.8099L7 21.8099C6.58578 21.8099 6.25 21.4742 6.25 21.0599L6.25 20.0203L3.1819 20.7873C2.95784 20.8433 2.72048 20.793 2.53844 20.6508C2.3564 20.5087 2.25 20.2906 2.25 20.0597L2.25 14.0597C2.25 13.7155 2.48422 13.4156 2.8181 13.3321L6.25 12.4741L6.25 6.61549C6.25 6.43021 6.31858 6.25149 6.44253 6.11377L11.4425 0.558215C11.5848 0.400179 11.7874 0.309938 12 0.309938ZM16.25 19.0607L16.25 19.0597L16.25 13.0597L16.25 13.059L16.25 6.9033L12 2.18107L7.75 6.9033L7.75 13.0593L7.75 13.0597L7.75 19.0597L7.75 20.3099L11.25 20.3099L11.25 18.0597C11.25 17.6455 11.5858 17.3097 12 17.3097C12.4142 17.3097 12.75 17.6455 12.75 18.0597L12.75 20.3099L16.25 20.3099L16.25 19.0607ZM17.75 18.4741L20.25 19.0991L20.25 14.6453L17.75 14.0203L17.75 18.4741ZM6.25 14.0203L6.25 18.4741L3.75 19.0991L3.75 14.6453L6.25 14.0203ZM10.75 11.0602C10.75 10.3698 11.3096 9.81018 12 9.81018C12.6904 9.81018 13.25 10.3698 13.25 11.0602C13.25 11.7505 12.6904 12.3102 12 12.3102C11.3096 12.3102 10.75 11.7505 10.75 11.0602ZM12 8.31018C10.4812 8.31018 9.25 9.5414 9.25 11.0602C9.25 12.579 10.4812 13.8102 12 13.8102C13.5188 13.8102 14.75 12.579 14.75 11.0602C14.75 9.5414 13.5188 8.31018 12 8.31018Z" fill="white"/>
</g>
<defs>
<clipPath id="clip0_9_5108">
<rect width="24" height="24" fill="white" transform="translate(0 0.0599976)"/>
</clipPath>
</defs>
</svg>
