<svg width="24" height="25" viewBox="0 0 24 25" fill="none" xmlns="http://www.w3.org/2000/svg">
<path fill-rule="evenodd" clip-rule="evenodd" d="M13.4688 1.52967C13.6095 1.38902 13.8002 1.31 13.9991 1.31L20.9991 1.31C21.4134 1.31 21.7491 1.64579 21.7491 2.06L21.7491 9.06C21.7491 9.25891 21.6701 9.44968 21.5295 9.59033L16.9789 14.1409L19.111 17.1238C19.3242 17.4222 19.2905 17.831 19.0312 18.0903L15.5312 21.5903C15.3753 21.7462 15.1587 21.8256 14.939 21.8074C14.7192 21.7892 14.5187 21.6753 14.3905 21.4959L12.4044 18.7154L11.0295 20.0903C10.7366 20.3832 10.2617 20.3832 9.96881 20.0903L2.96881 13.0903C2.67592 12.7974 2.67592 12.3226 2.96881 12.0297L4.34333 10.6551L1.56455 8.67022C1.38515 8.54208 1.27122 8.34149 1.25304 8.12178C1.23486 7.90207 1.31427 7.68548 1.47017 7.52959L4.97017 4.0297C5.22946 3.77041 5.63822 3.73663 5.93656 3.94983L8.91802 6.08046L13.4688 1.52967ZM15.4688 13.5298L20.2491 8.74934L20.2491 2.81L14.3098 2.81L8.56758 8.55222L6.03096 11.0902C6.02179 11.0994 6.01243 11.1083 6.00289 11.1169L4.5598 12.56L6.99951 14.9997L8.4695 13.5297C8.7624 13.2368 9.23727 13.2368 9.53016 13.5297C9.82306 13.8226 9.82306 14.2975 9.53016 14.5904L8.06017 16.0604L10.4991 18.4993L15.4688 13.5298ZM5.41862 9.57986L7.50521 7.49327L7.84266 7.15564L5.58145 5.53972L3.15685 7.96425L5.41862 9.57986ZM15.0965 19.9036L13.4803 17.6409L15.9038 15.2163L17.5211 17.479L15.0965 19.9036ZM12.7524 9.05954C12.7524 8.36918 13.3121 7.80954 14.0024 7.80954C14.6928 7.80954 15.2524 8.36918 15.2524 9.05954C15.2524 9.74989 14.6928 10.3095 14.0024 10.3095C13.3121 10.3095 12.7524 9.74989 12.7524 9.05954ZM14.0024 6.30954C12.4837 6.30954 11.2524 7.54075 11.2524 9.05954C11.2524 10.5783 12.4837 11.8095 14.0024 11.8095C15.5212 11.8095 16.7524 10.5783 16.7524 9.05954C16.7524 7.54075 15.5212 6.30954 14.0024 6.30954Z" fill="white"/>
</svg>
