<svg width="24" height="25" viewBox="0 0 24 25" fill="none" xmlns="http://www.w3.org/2000/svg">
<path fill-rule="evenodd" clip-rule="evenodd" d="M12 4.34009C7.44365 4.34009 3.75 8.03374 3.75 12.5901C3.75 15.7817 5.56218 18.5513 8.21721 19.9238C8.52452 20.0827 8.68331 20.4312 8.60156 20.7673C8.51981 21.1035 8.21875 21.3401 7.8728 21.3401H3C2.58579 21.3401 2.25 21.0043 2.25 20.5901C2.25 20.1759 2.58579 19.8401 3 19.8401H5.48084C3.49794 18.0559 2.25 15.4691 2.25 12.5901C2.25 7.20531 6.61522 2.84009 12 2.84009C17.3848 2.84009 21.75 7.20531 21.75 12.5901C21.75 15.4691 20.5021 18.0559 18.5192 19.8401H21C21.4142 19.8401 21.75 20.1759 21.75 20.5901C21.75 21.0043 21.4142 21.3401 21 21.3401H16.1272C15.7813 21.3401 15.4802 21.1035 15.3984 20.7673C15.3167 20.4312 15.4755 20.0827 15.7828 19.9238C18.4378 18.5513 20.25 15.7817 20.25 12.5901C20.25 8.03374 16.5563 4.34009 12 4.34009Z" fill="white"/>
</svg>
