<svg width="24" height="25" viewBox="0 0 24 25" fill="none" xmlns="http://www.w3.org/2000/svg">
<path fill-rule="evenodd" clip-rule="evenodd" d="M8.25 3.18018C8.25 2.76596 8.58579 2.43018 9 2.43018H21C21.4142 2.43018 21.75 2.76596 21.75 3.18018V15.1802C21.75 15.5944 21.4142 15.9302 21 15.9302H18.75V18.1802C18.75 18.5944 18.4142 18.9302 18 18.9302H15.75V21.1802C15.75 21.5944 15.4142 21.9302 15 21.9302H3C2.58579 21.9302 2.25 21.5944 2.25 21.1802V9.18018C2.25 8.76597 2.58579 8.43018 3 8.43018H5.25V6.18018C5.25 5.76596 5.58579 5.43018 6 5.43018H8.25V3.18018ZM6.75 8.43018H15C15.4142 8.43018 15.75 8.76597 15.75 9.18018V17.4302H17.25V15.1814L17.25 15.1802L17.25 15.179V6.93018H6.75V8.43018ZM14.25 18.179V9.93018H3.75V20.4302H14.25V18.1814C14.25 18.181 14.25 18.1806 14.25 18.1802C14.25 18.1798 14.25 18.1794 14.25 18.179ZM20.25 14.4302H18.75V6.18018C18.75 5.76596 18.4142 5.43018 18 5.43018H9.75V3.93018H20.25V14.4302Z" fill="white"/>
</svg>
