<svg width="24" height="25" viewBox="0 0 24 25" fill="none" xmlns="http://www.w3.org/2000/svg">
<path fill-rule="evenodd" clip-rule="evenodd" d="M1.46967 1.52967C1.76256 1.23677 2.23744 1.23677 2.53033 1.52967L8.76039 7.75973L17.9164 16.9157L22.5303 21.5297C22.8232 21.8226 22.8232 22.2974 22.5303 22.5903C22.2374 22.8832 21.7626 22.8832 21.4697 22.5903L18.6926 19.8133L18.7314 19.9841C18.7959 20.2685 18.6899 20.5644 18.4594 20.743C18.2289 20.9216 17.9158 20.9504 17.6566 20.8169L12 17.9036L6.3434 20.8169C6.08419 20.9504 5.7711 20.9216 5.54062 20.743C5.31014 20.5644 5.20406 20.2685 5.26861 19.9841L6.67676 13.7818L2.47066 9.59131C2.26964 9.39104 2.19886 9.09447 2.28776 8.82501C2.37667 8.55554 2.61004 8.35932 2.89077 8.31799L6.64471 7.76536L1.46967 2.59033C1.17678 2.29743 1.17678 1.82256 1.46967 1.52967ZM7.96631 9.08697L4.58879 9.58419L8.02934 13.012C8.21222 13.1942 8.28854 13.4576 8.23139 13.7093L7.08782 18.7463L11.6566 16.3932C11.8721 16.2823 12.1279 16.2823 12.3434 16.3932L16.9122 18.7463L16.7026 17.8233L7.96631 9.08697ZM12 1.31C12.2862 1.31 12.5474 1.47282 12.6734 1.72974L15.4996 7.49218L21.1092 8.31799C21.39 8.35932 21.6233 8.55554 21.7122 8.82501C21.8011 9.09447 21.7304 9.39104 21.5293 9.59131L17.5293 13.5765C17.2359 13.8688 16.761 13.8679 16.4687 13.5745C16.1763 13.281 16.1772 12.8062 16.4707 12.5138L19.4112 9.58419L14.8908 8.91872C14.6464 8.88274 14.4354 8.72875 14.3266 8.50698L12 3.7632L10.7115 6.39026C10.5291 6.76215 10.0798 6.91577 9.7079 6.73337C9.33601 6.55097 9.1824 6.10163 9.3648 5.72974L11.3266 1.72974C11.4526 1.47282 11.7139 1.31 12 1.31Z" fill="white"/>
</svg>
