<svg width="24" height="25" viewBox="0 0 24 25" fill="none" xmlns="http://www.w3.org/2000/svg">
<path fill-rule="evenodd" clip-rule="evenodd" d="M12 1.31C12.2841 1.31 12.5438 1.4705 12.6708 1.72459L15.5 7.38299L21.1233 8.3202C21.4004 8.36639 21.6285 8.56358 21.7142 8.83111C21.8 9.09865 21.729 9.39167 21.5303 9.59033L17.3243 13.7964L18.7308 19.8914C18.7961 20.1743 18.6922 20.4696 18.464 20.6493C18.2358 20.8289 17.9244 20.8607 17.6646 20.7308L12 17.8985L6.33543 20.7308C6.07566 20.8607 5.76425 20.8289 5.53606 20.6493C5.30787 20.4696 5.20392 20.1743 5.26923 19.8914L6.67576 13.7964L2.46969 9.59033C2.27103 9.39167 2.20006 9.09865 2.2858 8.83111C2.37153 8.56358 2.5996 8.36639 2.87672 8.3202L8.5 7.38299L11.3292 1.72459C11.4563 1.4705 11.7159 1.31 12 1.31ZM12 3.73705L9.67084 8.39541C9.56353 8.61003 9.36001 8.76034 9.12332 8.79979L4.56088 9.5602L8.03035 13.0297C8.2132 13.2125 8.28896 13.4767 8.23081 13.7286L7.08887 18.677L11.6646 16.3892C11.8758 16.2836 12.1243 16.2836 12.3354 16.3892L16.9112 18.677L15.7692 13.7286C15.7111 13.4767 15.7868 13.2125 15.9697 13.0297L19.4392 9.5602L14.8767 8.79979C14.64 8.76034 14.4365 8.61003 14.3292 8.39541L12 3.73705Z" fill="white"/>
</svg>
