<svg width="24" height="25" viewBox="0 0 24 25" fill="none" xmlns="http://www.w3.org/2000/svg">
<circle cx="12" cy="12.6501" r="9.75" stroke="white" stroke-width="1.5"/>
<path fill-rule="evenodd" clip-rule="evenodd" d="M17 12.6501C17 15.4116 14.7614 17.6501 12 17.6501C9.23858 17.6501 7 15.4116 7 12.6501C7 9.88872 9.23858 7.65015 12 7.65015C14.7614 7.65015 17 9.88872 17 12.6501ZM9.46967 10.1198C9.76256 9.82692 10.2374 9.82692 10.5303 10.1198L12 11.5895L13.4697 10.1198C13.7626 9.82692 14.2374 9.82692 14.5303 10.1198C14.8232 10.4127 14.8232 10.8876 14.5303 11.1805L13.0607 12.6501L14.5303 14.1198C14.8232 14.4127 14.8232 14.8876 14.5303 15.1805C14.2374 15.4734 13.7626 15.4734 13.4697 15.1805L12 13.7108L10.5303 15.1805C10.2374 15.4734 9.76256 15.4734 9.46967 15.1805C9.17678 14.8876 9.17678 14.4127 9.46967 14.1198L10.9393 12.6501L9.46967 11.1805C9.17678 10.8876 9.17678 10.4127 9.46967 10.1198Z" fill="white"/>
</svg>
