<svg width="24" height="25" viewBox="0 0 24 25" fill="none" xmlns="http://www.w3.org/2000/svg">
<path fill-rule="evenodd" clip-rule="evenodd" d="M11.6439 2.90649C11.852 2.89901 12.0539 2.97841 12.2012 3.12568L21.5244 12.4489C21.6717 12.5962 21.7511 12.7981 21.7436 13.0062C21.5559 18.2263 17.2656 22.4001 12 22.4001C6.61522 22.4001 2.25 18.0349 2.25 12.6501C2.25 7.38454 6.4238 3.09416 11.6439 2.90649ZM10.5443 4.52806C6.68242 5.21547 3.75 8.59047 3.75 12.6501C3.75 17.2064 7.44365 20.9001 12 20.9001C16.0596 20.9001 19.4346 17.9677 20.122 14.1058C19.4471 14.2975 18.7351 14.4001 18 14.4001C13.7198 14.4001 10.25 10.9303 10.25 6.6501C10.25 5.91495 10.3526 5.20295 10.5443 4.52806ZM11.9666 5.0124C11.8254 5.5339 11.75 6.08283 11.75 6.6501C11.75 10.1019 14.5482 12.9001 18 12.9001C18.5673 12.9001 19.1162 12.8247 19.6377 12.6835L11.9666 5.0124Z" fill="white"/>
</svg>
