<svg width="24" height="25" viewBox="0 0 24 25" fill="none" xmlns="http://www.w3.org/2000/svg">
<path fill-rule="evenodd" clip-rule="evenodd" d="M3.75 8.24988H20.25V20.8999H11.25V12.9999C11.25 12.5857 10.9142 12.2499 10.5 12.2499H5.5C5.08579 12.2499 4.75 12.5857 4.75 12.9999V20.8999H3.75V8.24988ZM6.25 20.8999H9.75V13.7499H6.25V20.8999ZM2.38609 7.06906C2.28099 7.21882 2.23612 7.39869 2.25373 7.57467C2.25126 7.59941 2.25 7.62451 2.25 7.6499V21.6499C2.25 22.0641 2.58579 22.3999 3 22.3999H21C21.4142 22.3999 21.75 22.0641 21.75 21.6499V7.6499C21.75 7.62451 21.7487 7.59941 21.7463 7.57467C21.7639 7.39869 21.719 7.21882 21.6139 7.06906L19.6139 4.21908C19.4735 4.01901 19.2444 3.8999 19 3.8999H5C4.75558 3.8999 4.52649 4.01901 4.38609 4.21908L2.38609 7.06906ZM19.5574 6.74988L18.6101 5.3999H5.38993L4.44257 6.74988H19.5574ZM12.75 12.9999C12.75 12.5857 13.0858 12.2499 13.5 12.2499H18.5C18.9142 12.2499 19.25 12.5857 19.25 12.9999V17.9999C19.25 18.4141 18.9142 18.7499 18.5 18.7499H13.5C13.0858 18.7499 12.75 18.4141 12.75 17.9999V12.9999ZM14.25 13.7499V17.2499H17.75V13.7499H14.25Z" fill="white"/>
<path d="M3.63841 7.60638C3.42102 7.2538 2.95897 7.1442 2.60638 7.36159C2.2538 7.57898 2.1442 8.04103 2.36159 8.39362L3.63841 7.60638ZM9.17143 8L9.81845 7.62071C9.68534 7.39365 9.44296 7.25298 9.17978 7.25005C8.91661 7.24711 8.67115 7.38235 8.53302 7.60638L9.17143 8ZM12.2571 10.4924L12.3248 11.2393L12.2571 10.4924ZM14.8286 8L15.467 7.60638C15.3241 7.37459 15.0667 7.23847 14.7947 7.25077C14.5227 7.26306 14.2787 7.42185 14.1572 7.6656L14.8286 8ZM17.9143 10.4924V11.2424V10.4924ZM21.6384 8.39362C21.8558 8.04103 21.7462 7.57898 21.3936 7.36159C21.041 7.1442 20.579 7.2538 20.3616 7.60638L21.6384 8.39362ZM3 8C2.36159 8.39362 2.36168 8.39377 2.36178 8.39393C2.36182 8.39399 2.36193 8.39416 2.36201 8.39429C2.36217 8.39456 2.36236 8.39486 2.36257 8.3952C2.36299 8.39588 2.36351 8.39671 2.36412 8.3977C2.36534 8.39966 2.36694 8.40223 2.36891 8.40537C2.37285 8.41166 2.37828 8.42027 2.38515 8.43106C2.39889 8.45262 2.41842 8.48289 2.44337 8.52064C2.49322 8.59606 2.56499 8.70176 2.6557 8.82772C2.83615 9.07829 3.09624 9.4156 3.41203 9.75614C3.72521 10.0939 4.11027 10.4534 4.54326 10.733C4.97137 11.0094 5.50024 11.2424 6.08571 11.2424V9.74235C5.89667 9.74235 5.65257 9.66375 5.35689 9.47284C5.06608 9.28508 4.77653 9.02158 4.51191 8.73621C4.2499 8.45367 4.029 8.16788 3.87292 7.95114C3.79536 7.84344 3.73498 7.75443 3.69474 7.69355C3.67464 7.66314 3.65965 7.63987 3.65012 7.62492C3.64536 7.61745 3.64197 7.61207 3.64 7.60893C3.63902 7.60736 3.63839 7.60635 3.63812 7.60592C3.63799 7.6057 3.63794 7.60563 3.63799 7.60571C3.63802 7.60575 3.63806 7.60582 3.63813 7.60593C3.63817 7.60599 3.63824 7.6061 3.63825 7.60613C3.63833 7.60625 3.63841 7.60638 3 8ZM6.08571 11.2424C6.67118 11.2424 7.20005 11.0094 7.62817 10.733C8.06116 10.4534 8.44622 10.0939 8.7594 9.75614C9.07519 9.4156 9.33528 9.07829 9.51573 8.82772C9.60643 8.70176 9.67821 8.59606 9.72806 8.52064C9.75301 8.48289 9.77254 8.45262 9.78628 8.43106C9.79315 8.42027 9.79858 8.41166 9.80252 8.40537C9.80449 8.40223 9.80609 8.39966 9.80731 8.3977C9.80792 8.39671 9.80844 8.39588 9.80886 8.3952C9.80907 8.39486 9.80926 8.39456 9.80942 8.39429C9.8095 8.39416 9.8096 8.39399 9.80965 8.39393C9.80974 8.39377 9.80984 8.39362 9.17143 8C8.53302 7.60638 8.5331 7.60625 8.53317 7.60613C8.53319 7.6061 8.53326 7.60599 8.5333 7.60593C8.53337 7.60582 8.53341 7.60575 8.53344 7.60571C8.53348 7.60563 8.53344 7.6057 8.53331 7.60592C8.53304 7.60635 8.53241 7.60736 8.53143 7.60893C8.52946 7.61207 8.52607 7.61745 8.52131 7.62492C8.51178 7.63987 8.49678 7.66314 8.47669 7.69355C8.43645 7.75443 8.37607 7.84344 8.29851 7.95114C8.14242 8.16788 7.92152 8.45367 7.65952 8.73621C7.39489 9.02158 7.10535 9.28508 6.81454 9.47284C6.51886 9.66375 6.27476 9.74235 6.08571 9.74235V11.2424ZM9.17143 8C8.52441 8.37929 8.5245 8.37945 8.5246 8.37962C8.52464 8.37968 8.52474 8.37986 8.52482 8.38C8.52498 8.38027 8.52517 8.38059 8.52538 8.38094C8.52579 8.38165 8.52631 8.38252 8.52692 8.38355C8.52813 8.38561 8.52973 8.3883 8.5317 8.39161C8.53564 8.39821 8.54107 8.40727 8.54795 8.41861C8.56171 8.44129 8.58129 8.47314 8.60631 8.51282C8.65629 8.5921 8.7283 8.70313 8.81932 8.83503C9.00026 9.09727 9.26159 9.44969 9.5792 9.80132C9.89352 10.1493 10.2835 10.5195 10.7253 10.797C11.1632 11.0721 11.7146 11.2946 12.3248 11.2393L12.1895 9.74541C12.0284 9.76001 11.8083 9.70594 11.5231 9.52677C11.2417 9.35003 10.9566 9.08845 10.6923 8.79587C10.4314 8.50693 10.2105 8.21006 10.0539 7.98314C9.97619 7.87047 9.9156 7.77696 9.87517 7.71283C9.85499 7.68081 9.83991 7.65625 9.83031 7.64044C9.82552 7.63254 9.8221 7.62683 9.8201 7.62348C9.81911 7.62181 9.81847 7.62073 9.81819 7.62026C9.81805 7.62002 9.818 7.61994 9.81804 7.62002C9.81807 7.62005 9.81811 7.62013 9.81818 7.62024C9.81821 7.6203 9.81828 7.62042 9.8183 7.62044C9.81837 7.62057 9.81845 7.62071 9.17143 8ZM12.3248 11.2393C12.8704 11.1899 13.3401 10.9286 13.7085 10.6405C14.0815 10.3488 14.4027 9.98903 14.6589 9.65711C14.9174 9.32215 15.1255 8.99501 15.2683 8.75326C15.3402 8.63168 15.3966 8.52994 15.4357 8.45732C15.4552 8.42097 15.4705 8.3918 15.4813 8.37095C15.4867 8.36053 15.4909 8.35218 15.494 8.34604C15.4956 8.34297 15.4969 8.34045 15.4978 8.33851C15.4983 8.33754 15.4987 8.33671 15.4991 8.33602C15.4993 8.33568 15.4994 8.33537 15.4995 8.3351C15.4996 8.33497 15.4997 8.33479 15.4997 8.33473C15.4998 8.33456 15.4999 8.3344 14.8286 8C14.1572 7.6656 14.1573 7.66546 14.1574 7.66533C14.1574 7.6653 14.1575 7.66518 14.1575 7.66511C14.1576 7.66499 14.1576 7.6649 14.1576 7.66484C14.1577 7.66473 14.1577 7.66476 14.1576 7.66492C14.1574 7.66525 14.157 7.66613 14.1563 7.66754C14.1548 7.67037 14.1523 7.67532 14.1487 7.68225C14.1415 7.69613 14.1301 7.71792 14.1148 7.74652C14.0839 7.80379 14.0374 7.88789 13.977 7.9901C13.8553 8.19596 13.6817 8.46825 13.4714 8.74059C13.2589 9.01599 13.0242 9.27144 12.7845 9.45888C12.5402 9.6499 12.3403 9.73175 12.1895 9.74541L12.3248 11.2393ZM14.8286 8C14.1902 8.39362 14.1903 8.39377 14.1904 8.39393C14.1904 8.39399 14.1905 8.39416 14.1906 8.39429C14.1907 8.39456 14.1909 8.39486 14.1911 8.3952C14.1916 8.39588 14.1921 8.39671 14.1927 8.3977C14.1939 8.39966 14.1955 8.40223 14.1975 8.40537C14.2014 8.41166 14.2069 8.42027 14.2137 8.43106C14.2275 8.45262 14.247 8.48289 14.2719 8.52064C14.3218 8.59606 14.3936 8.70176 14.4843 8.82772C14.6647 9.07829 14.9248 9.4156 15.2406 9.75614C15.5538 10.0939 15.9388 10.4534 16.3718 10.733C16.7999 11.0094 17.3288 11.2424 17.9143 11.2424V9.74235C17.7252 9.74235 17.4811 9.66375 17.1855 9.47284C16.8947 9.28508 16.6051 9.02157 16.3405 8.73621C16.0785 8.45367 15.8576 8.16788 15.7015 7.95114C15.6239 7.84344 15.5635 7.75443 15.5233 7.69355C15.5032 7.66314 15.4882 7.63987 15.4787 7.62492C15.4739 7.61745 15.4705 7.61207 15.4686 7.60893C15.4676 7.60736 15.467 7.60635 15.4667 7.60592C15.4666 7.6057 15.4665 7.60563 15.4666 7.60571C15.4666 7.60575 15.4666 7.60582 15.4667 7.60593C15.4667 7.60599 15.4668 7.6061 15.4668 7.60613C15.4669 7.60625 15.467 7.60638 14.8286 8ZM17.9143 11.2424C18.4998 11.2424 19.0286 11.0094 19.4567 10.733C19.8897 10.4534 20.2748 10.0939 20.588 9.75614C20.9038 9.4156 21.1638 9.07829 21.3443 8.82772C21.435 8.70176 21.5068 8.59606 21.5566 8.52064C21.5816 8.48289 21.6011 8.45262 21.6148 8.43106C21.6217 8.42027 21.6271 8.41166 21.6311 8.40537C21.6331 8.40223 21.6347 8.39966 21.6359 8.3977C21.6365 8.39671 21.637 8.39588 21.6374 8.3952C21.6376 8.39486 21.6378 8.39456 21.638 8.39429C21.6381 8.39416 21.6382 8.39399 21.6382 8.39393C21.6383 8.39377 21.6384 8.39362 21 8C20.3616 7.60638 20.3617 7.60625 20.3617 7.60613C20.3618 7.6061 20.3618 7.60599 20.3619 7.60593C20.3619 7.60582 20.362 7.60575 20.362 7.60571C20.3621 7.60563 20.362 7.6057 20.3619 7.60592C20.3616 7.60635 20.361 7.60736 20.36 7.60893C20.358 7.61207 20.3546 7.61745 20.3499 7.62492C20.3404 7.63987 20.3254 7.66314 20.3053 7.69355C20.265 7.75443 20.2046 7.84344 20.1271 7.95114C19.971 8.16788 19.7501 8.45367 19.4881 8.73621C19.2235 9.02158 18.9339 9.28508 18.6431 9.47284C18.3474 9.66375 18.1033 9.74235 17.9143 9.74235V11.2424Z" fill="white"/>
</svg>
