<svg width="24" height="25" viewBox="0 0 24 25" fill="none" xmlns="http://www.w3.org/2000/svg">
<path fill-rule="evenodd" clip-rule="evenodd" d="M12 1.42993C12.4142 1.42993 12.75 1.76572 12.75 2.17993L12.75 5.17993C12.75 5.59414 12.4142 5.92993 12 5.92993C11.5858 5.92993 11.25 5.59415 11.25 5.17993L11.25 2.17993C11.25 1.76572 11.5858 1.42993 12 1.42993ZM12 18.4299C12.4142 18.4299 12.75 18.7657 12.75 19.1799V22.1799C12.75 22.5941 12.4142 22.9299 12 22.9299C11.5858 22.9299 11.25 22.5941 11.25 22.1799V19.1799C11.25 18.7657 11.5858 18.4299 12 18.4299ZM12 8.92993C10.2051 8.92993 8.75 10.385 8.75 12.1799C8.75 13.9749 10.2051 15.4299 12 15.4299C13.7949 15.4299 15.25 13.9749 15.25 12.1799C15.25 10.385 13.7949 8.92993 12 8.92993ZM7.25 12.1799C7.25 9.55658 9.37665 7.42993 12 7.42993C14.6234 7.42993 16.75 9.55658 16.75 12.1799C16.75 14.8033 14.6234 16.9299 12 16.9299C9.37665 16.9299 7.25 14.8033 7.25 12.1799ZM2 11.4299C1.58579 11.4299 1.25 11.7657 1.25 12.1799C1.25 12.5941 1.58579 12.9299 2 12.9299L5 12.9299C5.41421 12.9299 5.75 12.5941 5.75 12.1799C5.75 11.7657 5.41421 11.4299 5 11.4299L2 11.4299ZM19 11.4299C18.5858 11.4299 18.25 11.7657 18.25 12.1799C18.25 12.5941 18.5858 12.9299 19 12.9299H22C22.4142 12.9299 22.75 12.5941 22.75 12.1799C22.75 11.7657 22.4142 11.4299 22 11.4299H19ZM4.39862 4.57856C4.69152 4.28566 5.16639 4.28566 5.45929 4.57856L7.58061 6.69988C7.8735 6.99277 7.8735 7.46764 7.58061 7.76054C7.28771 8.05343 6.81284 8.05343 6.51995 7.76054L4.39863 5.63922C4.10573 5.34632 4.10573 4.87145 4.39862 4.57856ZM16.4194 16.5994C16.7123 16.3065 17.1872 16.3065 17.4801 16.5994L19.6014 18.7207C19.8943 19.0136 19.8943 19.4885 19.6014 19.7814C19.3085 20.0742 18.8337 20.0742 18.5408 19.7814L16.4194 17.66C16.1265 17.3671 16.1265 16.8923 16.4194 16.5994ZM4.39862 18.7206C4.10573 19.0135 4.10573 19.4884 4.39862 19.7813C4.69152 20.0742 5.16639 20.0742 5.45928 19.7813L7.58061 17.66C7.8735 17.3671 7.8735 16.8922 7.58061 16.5993C7.28771 16.3064 6.81284 16.3064 6.51995 16.5993L4.39862 18.7206ZM16.4194 6.69983C16.1265 6.99272 16.1265 7.4676 16.4194 7.76049C16.7123 8.05338 17.1872 8.05338 17.4801 7.76049L19.6014 5.63917C19.8943 5.34628 19.8943 4.8714 19.6014 4.57851C19.3085 4.28562 18.8337 4.28562 18.5408 4.57851L16.4194 6.69983Z" fill="white"/>
</svg>
