<svg width="24" height="25" viewBox="0 0 24 25" fill="none" xmlns="http://www.w3.org/2000/svg">
<path fill-rule="evenodd" clip-rule="evenodd" d="M11.4697 1.6496C11.7626 1.35671 12.2374 1.35671 12.5303 1.6496L15.5303 4.6496C15.8232 4.94249 15.8232 5.41737 15.5303 5.71026C15.2374 6.00315 14.7626 6.00315 14.4697 5.71026L12.75 3.99059V9.17993C12.75 9.59414 12.4142 9.92993 12 9.92993C11.5858 9.92993 11.25 9.59414 11.25 9.17993V3.99059L9.53033 5.71026C9.23744 6.00315 8.76256 6.00315 8.46967 5.71026C8.17678 5.41737 8.17678 4.94249 8.46967 4.6496L11.4697 1.6496ZM8.83697 16.4299C9.17555 14.9966 10.4632 13.9299 12 13.9299C13.5368 13.9299 14.8245 14.9966 15.163 16.4299H12H8.83697ZM7.30888 16.4299H5L2 16.4299C1.58579 16.4299 1.25 16.7657 1.25 17.1799C1.25 17.5941 1.58579 17.9299 2 17.9299H5H8H12H16H19L22 17.9299C22.4142 17.9299 22.75 17.5941 22.75 17.1799C22.75 16.7657 22.4142 16.4299 22 16.4299H19H16.6911C16.3315 14.1629 14.3682 12.4299 12 12.4299C9.63185 12.4299 7.66846 14.1629 7.30888 16.4299ZM6 20.4299C5.58579 20.4299 5.25 20.7657 5.25 21.1799C5.25 21.5941 5.58579 21.9299 6 21.9299H18C18.4142 21.9299 18.75 21.5941 18.75 21.1799C18.75 20.7657 18.4142 20.4299 18 20.4299H6ZM4.39862 9.57856C4.69152 9.28566 5.16639 9.28566 5.45929 9.57856L7.58061 11.6999C7.8735 11.9928 7.8735 12.4676 7.58061 12.7605C7.28771 13.0534 6.81284 13.0534 6.51995 12.7605L4.39862 10.6392C4.10573 10.3463 4.10573 9.87145 4.39862 9.57856ZM16.4194 11.6998C16.1265 11.9927 16.1265 12.4676 16.4194 12.7605C16.7123 13.0534 17.1872 13.0534 17.4801 12.7605L19.6014 10.6392C19.8943 10.3463 19.8943 9.87141 19.6014 9.57851C19.3085 9.28562 18.8337 9.28562 18.5408 9.57851L16.4194 11.6998Z" fill="white"/>
</svg>
