<svg width="24" height="25" viewBox="0 0 24 25" fill="none" xmlns="http://www.w3.org/2000/svg">
<path fill-rule="evenodd" clip-rule="evenodd" d="M3 2.37012C2.58579 2.37012 2.25 2.7059 2.25 3.12012V21.1201C2.25 21.5343 2.58579 21.8701 3 21.8701H8.12081L8.12697 21.8701L22.127 21.8701C22.5412 21.8701 22.877 21.5344 22.877 21.1201V13.1201C22.877 12.7059 22.5412 12.3701 22.127 12.3701H19.2614L22.4811 9.15047C22.6218 9.00981 22.7008 8.81904 22.7008 8.62012C22.7008 8.4212 22.6218 8.23043 22.4811 8.08978L16.9805 2.58978C16.6876 2.29691 16.2127 2.29693 15.9199 2.58982L11.75 6.75987V3.12012C11.75 2.7059 11.4142 2.37012 11 2.37012H3ZM11.75 8.80773V17.7603L20.8901 8.62017L16.4502 4.18079L11.9811 8.6501C11.9125 8.71872 11.8339 8.77126 11.75 8.80773ZM11.75 19.8081V20.3701L21.377 20.3701V13.8701H18.127C18.0195 13.8701 17.9172 13.8475 17.8248 13.8068L11.9811 19.6505C11.9125 19.7191 11.8339 19.7716 11.75 19.8081ZM3.75 20.3701V3.87012H10.25V20.3701H3.75ZM8 17.1201C8 17.6724 7.55229 18.1201 7 18.1201C6.44772 18.1201 6 17.6724 6 17.1201C6 16.5678 6.44772 16.1201 7 16.1201C7.55229 16.1201 8 16.5678 8 17.1201Z" fill="white"/>
</svg>
