<svg width="24" height="25" viewBox="0 0 24 25" fill="none" xmlns="http://www.w3.org/2000/svg">
<path fill-rule="evenodd" clip-rule="evenodd" d="M10 3.31C5.16751 3.31 1.25 7.22751 1.25 12.06C1.25 16.8925 5.16751 20.81 10 20.81H14C18.8325 20.81 22.75 16.8925 22.75 12.06C22.75 7.22751 18.8325 3.31 14 3.31H10ZM2.75 12.06C2.75 8.05593 5.99594 4.81 10 4.81H14C18.0041 4.81 21.25 8.05593 21.25 12.06C21.25 16.0641 18.0041 19.31 14 19.31H10C5.99594 19.31 2.75 16.0641 2.75 12.06ZM10.75 12.06C10.75 10.2651 12.2051 8.81 14 8.81C15.7949 8.81 17.25 10.2651 17.25 12.06C17.25 13.8549 15.7949 15.31 14 15.31C12.2051 15.31 10.75 13.8549 10.75 12.06ZM14 7.31C11.3766 7.31 9.25 9.43665 9.25 12.06C9.25 14.6833 11.3766 16.81 14 16.81C16.6234 16.81 18.75 14.6833 18.75 12.06C18.75 9.43665 16.6234 7.31 14 7.31Z" fill="white"/>
</svg>
