<svg width="24" height="25" viewBox="0 0 24 25" fill="none" xmlns="http://www.w3.org/2000/svg">
<path fill-rule="evenodd" clip-rule="evenodd" d="M3.92916 2.82914C3.51495 2.82914 3.17916 3.16492 3.17916 3.57914V12.0644C3.17916 12.2633 3.25818 12.4541 3.39883 12.5947L13.2983 22.4942C13.5912 22.7871 14.0661 22.7871 14.359 22.4942L22.8443 14.009C23.1372 13.7161 23.1372 13.2412 22.8443 12.9483L12.9448 3.04881C12.8041 2.90815 12.6134 2.82914 12.4144 2.82914L3.92916 2.82914ZM13.8287 20.9033L4.67916 11.7538L4.67916 4.32914L12.1038 4.32914L21.2533 13.4786L13.8287 20.9033ZM9.04297 9.94342C9.04297 9.25306 9.60261 8.69342 10.293 8.69342C10.9833 8.69342 11.543 9.25306 11.543 9.94342C11.543 10.6338 10.9833 11.1934 10.293 11.1934C9.60261 11.1934 9.04297 10.6338 9.04297 9.94342ZM10.293 7.19342C8.77419 7.19342 7.54297 8.42464 7.54297 9.94342C7.54297 11.4622 8.77419 12.6934 10.293 12.6934C11.8118 12.6934 13.043 11.4622 13.043 9.94342C13.043 8.42464 11.8118 7.19342 10.293 7.19342Z" fill="white"/>
</svg>
