<svg width="24" height="25" viewBox="0 0 24 25" fill="none" xmlns="http://www.w3.org/2000/svg">
<path fill-rule="evenodd" clip-rule="evenodd" d="M0.46967 12.1199C0.176777 12.4128 0.176777 12.8877 0.46967 13.1806L6.46967 19.1806C6.61032 19.3213 6.80109 19.4003 7 19.4003L21 19.4003C21.4142 19.4003 21.75 19.0645 21.75 18.6503V6.65027C21.75 6.23606 21.4142 5.90027 21 5.90027H7C6.80109 5.90027 6.61032 5.97929 6.46967 6.11994L0.46967 12.1199ZM20.25 17.9003L7.31066 17.9003L2.06066 12.6503L7.31066 7.40027L20.25 7.40027V17.9003ZM8.75 12.6502C8.75 11.9599 9.30964 11.4002 10 11.4002C10.6904 11.4002 11.25 11.9599 11.25 12.6502C11.25 13.3406 10.6904 13.9002 10 13.9002C9.30964 13.9002 8.75 13.3406 8.75 12.6502ZM10 9.90021C8.48122 9.90021 7.25 11.1314 7.25 12.6502C7.25 14.169 8.48122 15.4002 10 15.4002C11.5188 15.4002 12.75 14.169 12.75 12.6502C12.75 11.1314 11.5188 9.90021 10 9.90021Z" fill="white"/>
</svg>
