<svg width="25" height="25" viewBox="0 0 25 25" fill="none" xmlns="http://www.w3.org/2000/svg">
<path fill-rule="evenodd" clip-rule="evenodd" d="M13.7623 2.92743C14.0552 2.63454 14.5301 2.63454 14.823 2.92743L24.7224 12.8269C25.0153 13.1198 25.0153 13.5947 24.7224 13.8876L16.9295 21.6805L16.2372 22.3729C15.9443 22.6658 15.4694 22.6658 15.1765 22.3729C14.8836 22.08 14.8836 21.6051 15.1765 21.3122L15.8688 20.6199L23.1315 13.3573L13.7623 3.98809C13.4694 3.6952 13.4694 3.22033 13.7623 2.92743ZM1.1792 3.57925C1.1792 3.16504 1.51499 2.82925 1.9292 2.82925L10.4145 2.82925C10.6134 2.82925 10.8042 2.90827 10.9448 3.04892L20.8443 12.9484C21.1372 13.2413 21.1372 13.7162 20.8443 14.0091L12.359 22.4944C12.0661 22.7873 11.5913 22.7873 11.2984 22.4944L1.39887 12.5949C1.25822 12.4542 1.1792 12.2634 1.1792 12.0645V3.57925ZM2.6792 11.7539L11.8287 20.9034L19.2533 13.4787L10.1038 4.32925L2.6792 4.32925L2.6792 11.7539ZM6.70174 10.1203C6.21358 9.6321 6.21358 8.84064 6.70174 8.35248C7.18989 7.86433 7.98135 7.86433 8.46951 8.35248C8.95766 8.84064 8.95766 9.6321 8.46951 10.1203C7.98135 10.6084 7.18989 10.6084 6.70174 10.1203ZM5.64108 7.29182C4.56714 8.36577 4.56714 10.107 5.64108 11.1809C6.71502 12.2549 8.45622 12.2549 9.53017 11.1809C10.6041 10.107 10.6041 8.36577 9.53017 7.29182C8.45622 6.21788 6.71502 6.21788 5.64108 7.29182Z" fill="white"/>
</svg>
