<svg width="25" height="25" viewBox="0 0 25 25" fill="none" xmlns="http://www.w3.org/2000/svg">
<path fill-rule="evenodd" clip-rule="evenodd" d="M9.25 3.65015C9.25 3.23593 9.58579 2.90015 10 2.90015H24C24.4142 2.90015 24.75 3.23593 24.75 3.65015V15.6501C24.75 16.0644 24.4142 16.4001 24 16.4001C23.5858 16.4001 23.25 16.0644 23.25 15.6501V4.40015L10 4.40015C9.58579 4.40015 9.25 4.06436 9.25 3.65015ZM0.470158 13.1806C0.177265 12.8877 0.177265 12.4128 0.470158 12.1199L6.47016 6.11994C6.61081 5.97929 6.80158 5.90027 7.00049 5.90027L21.0005 5.90027C21.4147 5.90027 21.7505 6.23605 21.7505 6.65027V18.6503C21.7505 19.0645 21.4147 19.4003 21.0005 19.4003H7.00049C6.80158 19.4003 6.61081 19.3212 6.47016 19.1806L0.470158 13.1806ZM7.31115 17.9003L20.2505 17.9003V7.40027L7.31115 7.40027L2.06115 12.6503L7.31115 17.9003ZM8.75007 12.6502C8.75007 11.9598 9.30972 11.4002 10.0001 11.4002C10.6904 11.4002 11.2501 11.9598 11.2501 12.6502C11.2501 13.3405 10.6904 13.9002 10.0001 13.9002C9.30972 13.9002 8.75007 13.3405 8.75007 12.6502ZM10.0001 9.90015C8.48129 9.90015 7.25007 11.1314 7.25007 12.6502C7.25007 14.1689 8.48129 15.4002 10.0001 15.4002C11.5189 15.4002 12.7501 14.1689 12.7501 12.6502C12.7501 11.1314 11.5189 9.90015 10.0001 9.90015Z" fill="white"/>
</svg>
