<svg width="24" height="25" viewBox="0 0 24 25" fill="none" xmlns="http://www.w3.org/2000/svg">
<path fill-rule="evenodd" clip-rule="evenodd" d="M12 3.81C7.44365 3.81 3.75 7.50365 3.75 12.06C3.75 16.6163 7.44365 20.31 12 20.31C16.5563 20.31 20.25 16.6163 20.25 12.06C20.25 11.2252 19.9219 9.83011 19.5657 8.89896C19.4811 8.67776 19.5876 8.42303 19.8108 8.3439L20.4712 8.10977C20.6629 8.04183 20.8752 8.12786 20.9506 8.31667C21.3493 9.31504 21.75 11.0411 21.75 12.06C21.75 17.4448 17.3848 21.81 12 21.81C6.61522 21.81 2.25 17.4448 2.25 12.06C2.25 6.67522 6.61522 2.31 12 2.31C13.013 2.31 14.7768 2.69302 15.8728 3.03162C16.0838 3.09683 16.1923 3.32535 16.1186 3.53359L15.8829 4.19908C15.8099 4.40509 15.5852 4.51447 15.3756 4.45238C14.4182 4.16869 12.8443 3.81 12 3.81ZM20.6556 5.20452C20.7975 5.25394 20.8363 5.4363 20.7268 5.53916L19.7064 6.4977C19.6693 6.53253 19.6203 6.55193 19.5695 6.55193H18.5536C18.5 6.55193 18.4486 6.57345 18.411 6.61168L12.6717 12.4466C12.5938 12.5258 12.4663 12.5263 12.3877 12.4477L11.6095 11.6695C11.532 11.592 11.5313 11.4666 11.6079 11.3883L17.3538 5.51128C17.3904 5.47391 17.4108 5.42372 17.4108 5.37146V4.35369C17.4108 4.30677 17.4273 4.26134 17.4574 4.22535L18.2608 3.26508C18.3566 3.15067 18.5393 3.17753 18.5981 3.31463L19.1544 4.61264C19.1765 4.66429 19.2193 4.70425 19.2724 4.72273L20.6556 5.20452Z" fill="white"/>
<path fill-rule="evenodd" clip-rule="evenodd" d="M12 7.31C9.37665 7.31 7.25 9.43665 7.25 12.06C7.25 14.6834 9.37665 16.81 12 16.81C14.6234 16.81 16.75 14.6834 16.75 12.06C16.75 11.5919 16.6825 11.1406 16.557 10.7148C16.4946 10.5029 16.5947 10.2714 16.8005 10.1912L17.4528 9.93706C17.6586 9.85686 17.8918 9.9584 17.9586 10.169C18.148 10.7663 18.25 11.4018 18.25 12.06C18.25 15.5118 15.4518 18.31 12 18.31C8.54822 18.31 5.75 15.5118 5.75 12.06C5.75 8.60822 8.54822 5.81 12 5.81C12.6617 5.81 13.3005 5.91308 13.9006 6.10445C14.1111 6.17157 14.2123 6.40493 14.1317 6.61064L13.8766 7.26247C13.796 7.46819 13.5643 7.56791 13.3525 7.50513C12.9246 7.37826 12.4708 7.31 12 7.31Z" fill="white"/>
<circle cx="12" cy="12.06" r="1.25" fill="white" stroke="white" stroke-width="1.5"/>
</svg>
