<svg width="24" height="25" viewBox="0 0 24 25" fill="none" xmlns="http://www.w3.org/2000/svg">
<path fill-rule="evenodd" clip-rule="evenodd" d="M12.75 3.84363V6.06C12.75 6.47421 12.4142 6.81 12 6.81C11.5858 6.81 11.25 6.47421 11.25 6.06V3.84363C7.29215 4.20029 4.14029 7.35214 3.78363 11.31H6C6.41421 11.31 6.75 11.6458 6.75 12.06C6.75 12.4742 6.41421 12.81 6 12.81H3.78363C4.14029 16.7679 7.29215 19.9197 11.25 20.2764V18.06C11.25 17.6458 11.5858 17.31 12 17.31C12.4142 17.31 12.75 17.6458 12.75 18.06V20.2764C16.7079 19.9197 19.8597 16.7679 20.2164 12.81H18C17.5858 12.81 17.25 12.4742 17.25 12.06C17.25 11.6458 17.5858 11.31 18 11.31H20.2164C19.8597 7.35214 16.7079 4.20029 12.75 3.84363ZM12 21.81C17.3848 21.81 21.75 17.4448 21.75 12.06C21.75 6.67522 17.3848 2.31 12 2.31C6.61522 2.31 2.25 6.67522 2.25 12.06C2.25 17.4448 6.61522 21.81 12 21.81ZM10.75 12.06C10.75 11.3696 11.3096 10.81 12 10.81C12.6904 10.81 13.25 11.3696 13.25 12.06C13.25 12.7504 12.6904 13.31 12 13.31C11.3096 13.31 10.75 12.7504 10.75 12.06ZM12 9.31C10.4812 9.31 9.25 10.5412 9.25 12.06C9.25 13.5788 10.4812 14.81 12 14.81C13.5188 14.81 14.75 13.5788 14.75 12.06C14.75 10.5412 13.5188 9.31 12 9.31Z" fill="white"/>
</svg>
