<svg width="24" height="25" viewBox="0 0 24 25" fill="none" xmlns="http://www.w3.org/2000/svg">
<path fill-rule="evenodd" clip-rule="evenodd" d="M2.25001 3.06C2.25001 2.64579 2.5858 2.31 3.00001 2.31H6.50001C6.91423 2.31 7.25001 2.64579 7.25001 3.06C7.25001 3.47421 6.91423 3.81 6.50001 3.81H3.75001V6.56C3.75001 6.97421 3.41423 7.31 3.00001 7.31C2.5858 7.31 2.25001 6.97421 2.25001 6.56V3.06ZM9.25001 3.06C9.25001 2.64579 9.5858 2.31 10 2.31H12H14C14.4142 2.31 14.75 2.64579 14.75 3.06C14.75 3.47421 14.4142 3.81 14 3.81H12H10C9.5858 3.81 9.25001 3.47421 9.25001 3.06ZM16.75 3.06C16.75 2.64579 17.0858 2.31 17.5 2.31H21C21.4142 2.31 21.75 2.64579 21.75 3.06V6.56C21.75 6.97421 21.4142 7.31 21 7.31C20.5858 7.31 20.25 6.97421 20.25 6.56V3.81H17.5C17.0858 3.81 16.75 3.47421 16.75 3.06ZM3.00001 9.31C3.41423 9.31 3.75001 9.64579 3.75001 10.06V12.06V14.06C3.75001 14.4742 3.41423 14.81 3.00001 14.81C2.5858 14.81 2.25001 14.4742 2.25001 14.06V12.06V10.06C2.25001 9.64579 2.5858 9.31 3.00001 9.31ZM21 9.31C21.4142 9.31 21.75 9.64579 21.75 10.06V12.06V14.06C21.75 14.4742 21.4142 14.81 21 14.81C20.5858 14.81 20.25 14.4742 20.25 14.06V12.06V10.06C20.25 9.64579 20.5858 9.31 21 9.31ZM3.00001 16.81C3.41423 16.81 3.75001 17.1458 3.75001 17.56V20.31H6.50001C6.91423 20.31 7.25001 20.6458 7.25001 21.06C7.25001 21.4742 6.91423 21.81 6.50001 21.81H3.00001C2.5858 21.81 2.25001 21.4742 2.25001 21.06V17.56C2.25001 17.1458 2.5858 16.81 3.00001 16.81ZM21 16.81C21.4142 16.81 21.75 17.1458 21.75 17.56V21.06C21.75 21.4742 21.4142 21.81 21 21.81H17.5C17.0858 21.81 16.75 21.4742 16.75 21.06C16.75 20.6458 17.0858 20.31 17.5 20.31H20.25V17.56C20.25 17.1458 20.5858 16.81 21 16.81ZM9.25001 21.06C9.25001 20.6458 9.5858 20.31 10 20.31H12H14C14.4142 20.31 14.75 20.6458 14.75 21.06C14.75 21.4742 14.4142 21.81 14 21.81H12H10C9.5858 21.81 9.25001 21.4742 9.25001 21.06Z" fill="white"/>
<circle cx="12" cy="8.06" r="1" fill="white"/>
<circle cx="12" cy="16.06" r="1" fill="white"/>
<circle cx="8" cy="12.06" r="1" fill="white"/>
<circle cx="12" cy="12.06" r="1" fill="white"/>
<circle cx="16" cy="12.06" r="1" fill="white"/>
</svg>
