<svg width="24" height="25" viewBox="0 0 24 25" fill="none" xmlns="http://www.w3.org/2000/svg">
<path fill-rule="evenodd" clip-rule="evenodd" d="M3.75 12.06C3.75 7.50365 7.44365 3.81 12 3.81C16.5563 3.81 20.25 7.50365 20.25 12.06C20.25 16.6163 16.5563 20.31 12 20.31C7.44365 20.31 3.75 16.6163 3.75 12.06ZM12 2.31C6.61522 2.31 2.25 6.67522 2.25 12.06C2.25 17.4448 6.61522 21.81 12 21.81C17.3848 21.81 21.75 17.4448 21.75 12.06C21.75 6.67522 17.3848 2.31 12 2.31ZM9.75 12.06C9.75 10.8174 10.7574 9.81 12 9.81C13.2426 9.81 14.25 10.8174 14.25 12.06C14.25 13.3026 13.2426 14.31 12 14.31C10.7574 14.31 9.75 13.3026 9.75 12.06ZM12 8.31C9.92893 8.31 8.25 9.98893 8.25 12.06C8.25 14.1311 9.92893 15.81 12 15.81C14.0711 15.81 15.75 14.1311 15.75 12.06C15.75 9.98893 14.0711 8.31 12 8.31Z" fill="white"/>
</svg>
