<svg width="24" height="25" viewBox="0 0 24 25" fill="none" xmlns="http://www.w3.org/2000/svg">
<path fill-rule="evenodd" clip-rule="evenodd" d="M20 2.87012C19.3096 2.87012 18.75 3.42976 18.75 4.12012C18.75 4.81047 19.3096 5.37012 20 5.37012C20.6904 5.37012 21.25 4.81047 21.25 4.12012C21.25 3.42976 20.6904 2.87012 20 2.87012ZM12 4.87012H17.3535C17.6125 5.78595 18.3342 6.50757 19.25 6.7666V12.1201V17.4736C18.3342 17.7327 17.6125 18.4543 17.3535 19.3701H12H6.64648C6.38745 18.4543 5.66584 17.7327 4.75 17.4736V12.1201V6.7666C5.66584 6.50757 6.38745 5.78595 6.64648 4.87012H12ZM6.64648 3.37012H12H17.3535C17.68 2.21586 18.7412 1.37012 20 1.37012C21.5188 1.37012 22.75 2.60133 22.75 4.12012C22.75 5.37889 21.9043 6.44014 20.75 6.7666V12.1201V17.4736C21.9043 17.8001 22.75 18.8613 22.75 20.1201C22.75 21.6389 21.5188 22.8701 20 22.8701C18.7412 22.8701 17.68 22.0244 17.3535 20.8701H12H6.64648C6.32002 22.0244 5.25878 22.8701 4 22.8701C2.48122 22.8701 1.25 21.6389 1.25 20.1201C1.25 18.8613 2.09575 17.8001 3.25 17.4736V12.1201V6.7666C2.09575 6.44014 1.25 5.37889 1.25 4.12012C1.25 2.60133 2.48122 1.37012 4 1.37012C5.25878 1.37012 6.32002 2.21586 6.64648 3.37012ZM9 8.37012C8.58579 8.37012 8.25 8.7059 8.25 9.12012C8.25 9.53433 8.58579 9.87012 9 9.87012H11.25V15.1201C11.25 15.5343 11.5858 15.8701 12 15.8701C12.4142 15.8701 12.75 15.5343 12.75 15.1201V9.87012H15C15.4142 9.87012 15.75 9.53433 15.75 9.12012C15.75 8.7059 15.4142 8.37012 15 8.37012H12H9ZM18.75 20.1201C18.75 19.4298 19.3096 18.8701 20 18.8701C20.6904 18.8701 21.25 19.4298 21.25 20.1201C21.25 20.8105 20.6904 21.3701 20 21.3701C19.3096 21.3701 18.75 20.8105 18.75 20.1201ZM4 18.8701C3.30964 18.8701 2.75 19.4298 2.75 20.1201C2.75 20.8105 3.30964 21.3701 4 21.3701C4.69036 21.3701 5.25 20.8105 5.25 20.1201C5.25 19.4298 4.69036 18.8701 4 18.8701ZM2.75 4.12012C2.75 3.42976 3.30964 2.87012 4 2.87012C4.69036 2.87012 5.25 3.42976 5.25 4.12012C5.25 4.81047 4.69036 5.37012 4 5.37012C3.30964 5.37012 2.75 4.81047 2.75 4.12012Z" fill="white"/>
</svg>
