<svg width="24" height="25" viewBox="0 0 24 25" fill="none" xmlns="http://www.w3.org/2000/svg">
<path fill-rule="evenodd" clip-rule="evenodd" d="M6.95525 3.84008C6.97013 3.84009 6.98504 3.84009 7 3.84009H12H17L17.0447 3.84008C17.4776 3.84003 17.8744 3.83999 18.1972 3.88339C18.5527 3.93118 18.9284 4.04363 19.2374 4.35265C19.5465 4.66167 19.6589 5.0374 19.7067 5.39288C19.7501 5.71569 19.7501 6.11253 19.75 6.54534L19.75 6.59009H18.25C18.25 6.09748 18.2484 5.80347 18.2201 5.59275C18.2071 5.49619 18.1918 5.44783 18.1828 5.42605C18.1808 5.42101 18.1791 5.41769 18.1781 5.41576L18.1768 5.41333L18.1743 5.41195C18.1724 5.41094 18.1691 5.40932 18.164 5.40725C18.1423 5.39829 18.0939 5.38299 17.9973 5.37001C17.7866 5.34168 17.4926 5.34009 17 5.34009H12.75V19.8401H16C16.4142 19.8401 16.75 20.1759 16.75 20.5901C16.75 21.0043 16.4142 21.3401 16 21.3401H12H8C7.58579 21.3401 7.25 21.0043 7.25 20.5901C7.25 20.1759 7.58579 19.8401 8 19.8401H11.25V5.34009H7C6.50739 5.34009 6.21339 5.34168 6.00266 5.37001C5.90611 5.38299 5.85774 5.39829 5.83596 5.40725C5.83092 5.40932 5.8276 5.41094 5.82567 5.41195L5.82324 5.41333L5.82186 5.41576C5.82085 5.41769 5.81923 5.42101 5.81716 5.42605C5.8082 5.44783 5.79291 5.49619 5.77992 5.59275C5.75159 5.80347 5.75 6.09748 5.75 6.59009H4.25C4.25 6.57513 4.25 6.56021 4.25 6.54534C4.24995 6.11252 4.2499 5.71569 4.2933 5.39288C4.34109 5.0374 4.45354 4.66167 4.76256 4.35265C5.07159 4.04363 5.44731 3.93118 5.80279 3.88339C6.1256 3.83999 6.52244 3.84003 6.95525 3.84008Z" fill="white"/>
</svg>
