<svg width="24" height="25" viewBox="0 0 24 25" fill="none" xmlns="http://www.w3.org/2000/svg">
<path fill-rule="evenodd" clip-rule="evenodd" d="M7.75 4.59009C7.75 4.17587 7.41421 3.84009 7 3.84009C6.58579 3.84009 6.25 4.17587 6.25 4.59009L6.25 11.5901C6.25 14.7657 8.82436 17.3401 12 17.3401C15.1756 17.3401 17.75 14.7657 17.75 11.5901L17.75 4.59009C17.75 4.17587 17.4142 3.84009 17 3.84009C16.5858 3.84009 16.25 4.17587 16.25 4.59009L16.25 11.5901C16.25 13.9373 14.3472 15.8401 12 15.8401C9.65279 15.8401 7.75 13.9373 7.75 11.5901L7.75 4.59009ZM6 19.8401C5.58579 19.8401 5.25 20.1759 5.25 20.5901C5.25 21.0043 5.58579 21.3401 6 21.3401L18 21.3401C18.4142 21.3401 18.75 21.0043 18.75 20.5901C18.75 20.1759 18.4142 19.8401 18 19.8401L6 19.8401Z" fill="white"/>
</svg>
