<svg width="24" height="25" viewBox="0 0 24 25" fill="none" xmlns="http://www.w3.org/2000/svg">
<path fill-rule="evenodd" clip-rule="evenodd" d="M3 2.37012C2.58579 2.37012 2.25 2.7059 2.25 3.12012V21.1201C2.25 21.5343 2.58579 21.8701 3 21.8701H21C21.4142 21.8701 21.75 21.5343 21.75 21.1201V3.12012C21.75 2.7059 21.4142 2.37012 21 2.37012H3ZM3.75 20.3701V3.87012H20.25V20.3701H3.75ZM8 7.37012C7.58579 7.37012 7.25 7.7059 7.25 8.12012C7.25 8.53433 7.58579 8.87012 8 8.87012H11.25V16.1201C11.25 16.5343 11.5858 16.8701 12 16.8701C12.4142 16.8701 12.75 16.5343 12.75 16.1201V8.87012H16C16.4142 8.87012 16.75 8.53433 16.75 8.12012C16.75 7.7059 16.4142 7.37012 16 7.37012H12H8Z" fill="white"/>
</svg>
