<svg width="24" height="25" viewBox="0 0 24 25" fill="none" xmlns="http://www.w3.org/2000/svg">
<path fill-rule="evenodd" clip-rule="evenodd" d="M6.24975 8.59009C6.24975 5.96674 8.3764 3.84009 10.9998 3.84009L12.9998 3.84009C15.6231 3.84009 17.7498 5.96674 17.7498 8.59009C17.7498 9.0043 17.414 9.34009 16.9998 9.34009C16.5855 9.34009 16.2498 9.0043 16.2498 8.59009C16.2498 6.79516 14.7947 5.34009 12.9998 5.34009L10.9998 5.34009C9.20483 5.34009 7.74975 6.79516 7.74975 8.59009C7.74975 8.8718 7.78542 9.14408 7.8521 9.40315C7.95535 9.80429 7.71386 10.2132 7.31272 10.3164C6.91158 10.4197 6.50269 10.1782 6.39944 9.77703C6.30159 9.39686 6.24975 8.99898 6.24975 8.59009ZM2.25 12.5901C2.25 12.1759 2.58578 11.8401 3 11.8401L10.9998 11.8401L12.9998 11.8401L21 11.8401C21.4142 11.8401 21.75 12.1759 21.75 12.5901C21.75 13.0043 21.4142 13.3401 21 13.3401L16.4639 13.3401C17.2613 14.1897 17.7498 15.3329 17.7498 16.5901C17.7498 19.2134 15.6231 21.3401 12.9998 21.3401L10.9998 21.3401C8.3764 21.3401 6.24975 19.2134 6.24975 16.5901C6.24975 16.1759 6.58554 15.8401 6.99975 15.8401C7.41397 15.8401 7.74975 16.1759 7.74975 16.5901C7.74975 18.385 9.20483 19.8401 10.9998 19.8401L12.9998 19.8401C14.7947 19.8401 16.2498 18.385 16.2498 16.5901C16.2498 14.7952 14.7947 13.3401 12.9998 13.3401L10.9998 13.3401L3 13.3401C2.58578 13.3401 2.25 13.0043 2.25 12.5901Z" fill="white"/>
</svg>
