<svg width="24" height="25" viewBox="0 0 24 25" fill="none" xmlns="http://www.w3.org/2000/svg">
<path fill-rule="evenodd" clip-rule="evenodd" d="M17 5.34009C17.4926 5.34009 17.7866 5.34168 17.9973 5.37001C18.0939 5.38299 18.1423 5.39829 18.164 5.40725C18.1691 5.40932 18.1724 5.41094 18.1743 5.41195L18.1768 5.41333L18.1781 5.41576C18.1791 5.41769 18.1808 5.42101 18.1828 5.42605C18.1918 5.44783 18.2071 5.49619 18.2201 5.59275C18.2484 5.80347 18.25 6.09748 18.25 6.59009H19.75L19.75 6.54534V6.54528C19.7501 6.11249 19.7501 5.71568 19.7067 5.39288C19.6589 5.0374 19.5465 4.66167 19.2374 4.35265C18.9284 4.04363 18.5527 3.93118 18.1972 3.88339C17.8744 3.83999 17.4776 3.84003 17.0447 3.84008L17 3.84009H12H8.5C8.08579 3.84009 7.75 4.17587 7.75 4.59009C7.75 5.0043 8.08579 5.34009 8.5 5.34009H11.25V8.59009C11.25 9.0043 11.5858 9.34009 12 9.34009C12.4142 9.34009 12.75 9.0043 12.75 8.59009V5.34009H17ZM12.75 14.4007V19.8401H16C16.4142 19.8401 16.75 20.1759 16.75 20.5901C16.75 21.0043 16.4142 21.3401 16 21.3401H12H8C7.58579 21.3401 7.25 21.0043 7.25 20.5901C7.25 20.1759 7.58579 19.8401 8 19.8401H11.25V12.9007L3.46967 5.12042C3.17678 4.82752 3.17678 4.35265 3.46967 4.05976C3.76256 3.76686 4.23744 3.76686 4.53033 4.05976L20.5303 20.0598C20.8232 20.3526 20.8232 20.8275 20.5303 21.1204C20.2374 21.4133 19.7626 21.4133 19.4697 21.1204L12.75 14.4007Z" fill="white"/>
</svg>
