<svg width="24" height="25" viewBox="0 0 24 25" fill="none" xmlns="http://www.w3.org/2000/svg">
<path fill-rule="evenodd" clip-rule="evenodd" d="M7.11111 3.84009C6.08325 3.84009 5.25 4.67334 5.25 5.7012L5.25 12.5901L5.25 19.2568C5.25 20.4074 6.18274 21.3401 7.33333 21.3401L14 21.3401C16.6234 21.3401 18.75 19.2134 18.75 16.5901C18.75 14.4135 17.2861 12.5789 15.2891 12.0171C16.1895 11.1527 16.75 9.93684 16.75 8.59009C16.75 5.96674 14.6234 3.84009 12 3.84009L7.11111 3.84009ZM12 13.3401L6.75 13.3401L6.75 19.2568C6.75 19.5789 7.01117 19.8401 7.33333 19.8401L14 19.8401C15.7949 19.8401 17.25 18.385 17.25 16.5901C17.25 14.7952 15.7949 13.3401 14 13.3401L12 13.3401ZM12 11.8401C13.7949 11.8401 15.25 10.385 15.25 8.59009C15.25 6.79516 13.7949 5.34009 12 5.34009L7.11111 5.34009C6.91167 5.34009 6.75 5.50176 6.75 5.7012L6.75 11.8401L12 11.8401Z" fill="white"/>
</svg>
