<svg width="24" height="25" viewBox="0 0 24 25" fill="none" xmlns="http://www.w3.org/2000/svg">
<path fill-rule="evenodd" clip-rule="evenodd" d="M14.0161 3.84004L19 3.84004C19.4142 3.84004 19.75 4.17582 19.75 4.59004C19.75 5.00425 19.4142 5.34004 19 5.34004L14.5855 5.34004L10.9605 19.84L15 19.84C15.4142 19.84 15.75 20.1758 15.75 20.59C15.75 21.0042 15.4142 21.34 15 21.34L10.0161 21.34C10.0057 21.3403 9.99525 21.3403 9.98476 21.34L5 21.34C4.58578 21.34 4.25 21.0042 4.25 20.59C4.25 20.1758 4.58578 19.84 5 19.84L9.4143 19.84L13.0393 5.34004L9 5.34004C8.58578 5.34004 8.25 5.00425 8.25 4.59004C8.25 4.17582 8.58578 3.84004 9 3.84004L13.9825 3.84004C13.9937 3.83978 14.0049 3.83978 14.0161 3.84004Z" fill="white"/>
</svg>
