<svg width="24" height="25" viewBox="0 0 24 25" fill="none" xmlns="http://www.w3.org/2000/svg">
<path fill-rule="evenodd" clip-rule="evenodd" d="M12 3.84009H8.5C8.08579 3.84009 7.75 4.17587 7.75 4.59009C7.75 5.0043 8.08579 5.34009 8.5 5.34009H11.25V8.59009C11.25 9.0043 11.5858 9.34009 12 9.34009C12.4142 9.34009 12.75 9.0043 12.75 8.59009V5.34009H19C19.4142 5.34009 19.75 5.0043 19.75 4.59009C19.75 4.17587 19.4142 3.84009 19 3.84009H12ZM12.75 14.4007V20.5901C12.75 21.0043 12.4142 21.3401 12 21.3401C11.5858 21.3401 11.25 21.0043 11.25 20.5901V12.9007L3.46967 5.12042C3.17678 4.82752 3.17678 4.35265 3.46967 4.05976C3.76256 3.76686 4.23744 3.76686 4.53033 4.05976L20.5303 20.0598C20.8232 20.3526 20.8232 20.8275 20.5303 21.1204C20.2374 21.4133 19.7626 21.4133 19.4697 21.1204L12.75 14.4007Z" fill="white"/>
</svg>
