<svg width="24" height="25" viewBox="0 0 24 25" fill="none" xmlns="http://www.w3.org/2000/svg">
<path fill-rule="evenodd" clip-rule="evenodd" d="M8.25 5.06C8.25 2.98893 9.92893 1.31 12 1.31C14.0711 1.31 15.75 2.98893 15.75 5.06V12.701C16.9735 13.7545 17.75 15.3167 17.75 17.06C17.75 20.2356 15.1756 22.81 12 22.81C8.82436 22.81 6.25 20.2356 6.25 17.06C6.25 15.3167 7.02651 13.7545 8.25 12.701V11.06V8.06V5.06ZM9.43333 13.6722C8.40912 14.4496 7.75 15.6777 7.75 17.06C7.75 19.4072 9.65279 21.31 12 21.31C14.3472 21.31 16.25 19.4072 16.25 17.06C16.25 15.6777 15.5909 14.4496 14.5667 13.6722C14.3751 13.5363 14.25 13.3128 14.25 13.06V5.06C14.25 3.81736 13.2426 2.81 12 2.81C11.0203 2.81 10.1869 3.4361 9.87803 4.31H10.5C10.9142 4.31 11.25 4.64578 11.25 5.06C11.25 5.47421 10.9142 5.81 10.5 5.81H9.75V7.31H10.5C10.9142 7.31 11.25 7.64578 11.25 8.06C11.25 8.47421 10.9142 8.81 10.5 8.81H9.75V10.31H10.5C10.9142 10.31 11.25 10.6458 11.25 11.06C11.25 11.4742 10.9142 11.81 10.5 11.81H9.75V13.06C9.75 13.3128 9.62495 13.5364 9.43333 13.6722Z" fill="white"/>
</svg>
