<svg width="24" height="25" viewBox="0 0 24 25" fill="none" xmlns="http://www.w3.org/2000/svg">
<path fill-rule="evenodd" clip-rule="evenodd" d="M13 1.31C12.7837 1.31 12.578 1.40336 12.4356 1.56612L5.43557 9.56612C5.31594 9.70284 5.25 9.87833 5.25 10.06V20.06C5.25 20.4742 5.58579 20.81 6 20.81H18C18.3382 20.81 18.6346 20.5836 18.7236 20.2573L21.7236 9.25734C21.7851 9.03182 21.7379 8.79052 21.596 8.60475C21.4541 8.41899 21.2338 8.31 21 8.31H14.1374L16.6894 2.35544C16.7887 2.12371 16.7649 1.8576 16.6261 1.64713C16.4873 1.43666 16.2521 1.31 16 1.31H13ZM6.75 10.3418L13.3403 2.81H14.8626L12.3106 8.76456C12.2113 8.99628 12.2351 9.2624 12.3739 9.47287C12.5127 9.68334 12.7479 9.81 13 9.81H20.0181L17.4272 19.31H6.75V10.3418ZM3.75 10.06C3.75 9.64578 3.41421 9.31 3 9.31C2.58579 9.31 2.25 9.64578 2.25 10.06V20.06C2.25 20.4742 2.58579 20.81 3 20.81C3.41421 20.81 3.75 20.4742 3.75 20.06L3.75 10.06Z" fill="white"/>
</svg>
