<svg width="24" height="25" viewBox="0 0 24 25" fill="none" xmlns="http://www.w3.org/2000/svg">
<path fill-rule="evenodd" clip-rule="evenodd" d="M6 3.31C5.66179 3.31 5.36542 3.53637 5.27643 3.86266L2.27643 14.8627C2.21493 15.0882 2.26209 15.3295 2.40397 15.5152C2.54586 15.701 2.76625 15.81 3 15.81L10.7076 15.81L7.34882 21.6879C7.21618 21.92 7.21713 22.2052 7.35132 22.4364C7.48551 22.6677 7.73265 22.81 8 22.81L11 22.81C11.1989 22.81 11.3897 22.731 11.5303 22.5903L18.5303 15.5903C18.671 15.4497 18.75 15.2589 18.75 15.06L18.75 4.06C18.75 3.64579 18.4142 3.31 18 3.31L6 3.31ZM3.98194 14.31L6.57285 4.81L17.25 4.81L17.25 14.7493L10.6893 21.31L9.29239 21.31L12.6512 15.4321C12.7838 15.2 12.7829 14.9148 12.6487 14.6836C12.5145 14.4523 12.2674 14.31 12 14.31L3.98194 14.31ZM20.25 14.06C20.25 14.4742 20.5858 14.81 21 14.81C21.4142 14.81 21.75 14.4742 21.75 14.06L21.75 4.06C21.75 3.64579 21.4142 3.31 21 3.31C20.5858 3.31 20.25 3.64579 20.25 4.06L20.25 14.06Z" fill="white"/>
</svg>
