<svg width="24" height="25" viewBox="0 0 24 25" fill="none" xmlns="http://www.w3.org/2000/svg">
<path fill-rule="evenodd" clip-rule="evenodd" d="M2 4.8999C1.58579 4.8999 1.25 5.23569 1.25 5.6499V10.6499C1.25 11.0641 1.58579 11.3999 2 11.3999H4.25V13.8999H2C1.58579 13.8999 1.25 14.2357 1.25 14.6499V19.6499C1.25 20.0641 1.58579 20.3999 2 20.3999L9 20.3999L22 20.3999C22.4142 20.3999 22.75 20.0641 22.75 19.6499V14.6499C22.75 14.2357 22.4142 13.8999 22 13.8999H19.75V11.3999H22C22.4142 11.3999 22.75 11.0641 22.75 10.6499V5.6499C22.75 5.23569 22.4142 4.8999 22 4.8999H9H2ZM9.75 18.8999V16.6499C9.75 16.2357 9.41421 15.8999 9 15.8999C8.58579 15.8999 8.25 16.2357 8.25 16.6499V18.8999H2.75V15.3999H5C5.41422 15.3999 5.75 15.0641 5.75 14.6499V10.6499C5.75 10.2357 5.41422 9.8999 5 9.8999H2.75V6.3999H8.25V8.6499C8.25 9.06412 8.58579 9.3999 9 9.3999C9.41421 9.3999 9.75 9.06412 9.75 8.6499V6.3999H21.25V9.8999H19C18.5858 9.8999 18.25 10.2357 18.25 10.6499V14.6499C18.25 15.0641 18.5858 15.3999 19 15.3999H21.25V18.8999H9.75ZM9.75 11.6499C9.75 11.2357 9.41421 10.8999 9 10.8999C8.58579 10.8999 8.25 11.2357 8.25 11.6499V13.6499C8.25 14.0641 8.58579 14.3999 9 14.3999C9.41421 14.3999 9.75 14.0641 9.75 13.6499V11.6499Z" fill="white"/>
</svg>
