<svg width="24" height="25" viewBox="0 0 24 25" fill="none" xmlns="http://www.w3.org/2000/svg">
<path fill-rule="evenodd" clip-rule="evenodd" d="M18.4697 3.30059C18.1768 3.0077 18.1768 2.53283 18.4697 2.23993C18.7626 1.94704 19.2374 1.94704 19.5303 2.23993L22.5303 5.23993C22.8232 5.53283 22.8232 6.0077 22.5303 6.30059C22.2374 6.59349 21.7626 6.59349 21.4697 6.30059L18.4697 3.30059ZM3.53033 3.23993C3.38968 3.09928 3.19891 3.02026 3 3.02026C2.80109 3.02026 2.61032 3.09928 2.46967 3.23993L0.96967 4.73993C0.676777 5.03283 0.676777 5.5077 0.96967 5.80059C1.26256 6.09349 1.73744 6.09349 2.03033 5.80059L3 4.83092L4.5957 6.42662C3.13402 8.13131 2.25 10.3481 2.25 12.7703C2.25 18.155 6.61522 22.5203 12 22.5203C14.4221 22.5203 16.6389 21.6362 18.3436 20.1746L20.4697 22.3006C20.7626 22.5935 21.2374 22.5935 21.5303 22.3006C21.8232 22.0077 21.8232 21.5328 21.5303 21.2399L18.8943 18.6039L6.16637 5.87597L3.53033 3.23993ZM3.75 12.7703C3.75 10.7618 4.46691 8.92198 5.66002 7.49095L17.2793 19.1102C15.8483 20.3034 14.0084 21.0203 12 21.0203C7.44365 21.0203 3.75 17.3266 3.75 12.7703ZM8.33377 5.37742C9.43734 4.82899 10.6815 4.52026 12 4.52026C16.5563 4.52026 20.25 8.21391 20.25 12.7703C20.25 14.0887 19.9413 15.3329 19.3928 16.4365C19.2085 16.8074 19.3598 17.2576 19.7307 17.4419C20.1016 17.6262 20.5518 17.475 20.7361 17.104C21.3853 15.7977 21.75 14.3255 21.75 12.7703C21.75 7.38549 17.3848 3.02026 12 3.02026C10.4448 3.02026 8.97258 3.38495 7.66623 4.03415C7.29529 4.21849 7.14403 4.66862 7.32836 5.03956C7.5127 5.41049 7.96284 5.56176 8.33377 5.37742Z" fill="white"/>
</svg>
