<svg width="24" height="25" viewBox="0 0 24 25" fill="none" xmlns="http://www.w3.org/2000/svg">
<path fill-rule="evenodd" clip-rule="evenodd" d="M7.76677 3.02027L7.82848 3.02027H16.1716L16.2333 3.02027C17.2083 3.02023 18.022 3.0202 18.6204 3.10482C19.2021 3.18708 19.9088 3.39109 20.2026 4.10057C20.4965 4.81005 20.1411 5.45395 19.7879 5.92348C19.4246 6.40648 18.8492 6.98183 18.1598 7.67117L18.1162 7.71481L6.94459 18.8864C6.20028 19.6307 5.70255 20.1311 5.4109 20.5188C5.27785 20.6956 5.2242 20.8016 5.20323 20.8577C5.25768 20.8825 5.37058 20.9195 5.58973 20.9505C6.07011 21.0184 6.77586 21.0203 7.82848 21.0203H16.1716C17.2242 21.0203 17.93 21.0184 18.4104 20.9505C18.6295 20.9195 18.7424 20.8825 18.7969 20.8577C18.7759 20.8016 18.7223 20.6956 18.5892 20.5188C18.2976 20.131 17.7998 19.6307 17.0555 18.8864L15.9697 17.8006L13.7197 15.5506C13.4268 15.2577 13.4268 14.7828 13.7197 14.4899C14.0126 14.197 14.4875 14.197 14.7804 14.4899L17.0304 16.7399L18.1162 17.8257L18.1598 17.8694C18.8492 18.5587 19.4246 19.1341 19.7879 19.6171C20.1411 20.0866 20.4965 20.7305 20.2026 21.44C19.9088 22.1494 19.2021 22.3535 18.6204 22.4357C18.022 22.5203 17.2082 22.5203 16.2333 22.5203H16.1716H7.82848H7.7668C6.79187 22.5203 5.97815 22.5203 5.37971 22.4357C4.79796 22.3535 4.09135 22.1494 3.79748 21.44C3.5036 20.7305 3.85899 20.0866 4.21218 19.6171C4.5755 19.1341 5.1509 18.5587 5.84029 17.8694L5.88393 17.8257L17.0555 6.65415C17.7998 5.90984 18.2976 5.40949 18.5892 5.02178C18.7223 4.84489 18.7759 4.73889 18.7969 4.68285C18.7424 4.65805 18.6295 4.62103 18.4104 4.59004C17.93 4.52212 17.2242 4.52027 16.1716 4.52027H7.82848C6.77586 4.52027 6.07011 4.52212 5.58973 4.59004C5.37057 4.62103 5.25768 4.65805 5.20323 4.68285C5.2242 4.73889 5.27785 4.84489 5.4109 5.02178C5.70255 5.40948 6.20028 5.90984 6.9446 6.65415L8.03038 7.73994L10.2804 9.98994C10.5733 10.2828 10.5733 10.7577 10.2804 11.0506C9.98749 11.3435 9.51262 11.3435 9.21972 11.0506L6.96972 8.8006L5.88394 7.71481C5.86934 7.70021 5.8548 7.68567 5.8403 7.67118C5.15091 6.98183 4.5755 6.40648 4.21219 5.92348C3.85899 5.45395 3.5036 4.81005 3.79748 4.10057C4.09135 3.39109 4.79796 3.18708 5.37971 3.10482C5.97815 3.0202 6.79186 3.02023 7.76677 3.02027ZM5.19099 4.63117C5.19161 4.63145 5.19244 4.63595 5.19163 4.64383C5.18996 4.63483 5.19037 4.63089 5.19099 4.63117ZM5.16743 4.70224C5.16244 4.70839 5.15866 4.71099 5.15803 4.71074C5.15739 4.7105 5.15989 4.70742 5.16743 4.70224ZM18.8421 4.71074C18.8414 4.71099 18.8377 4.70839 18.8327 4.70224C18.8402 4.70742 18.8427 4.7105 18.8421 4.71074ZM18.8085 4.64383C18.8077 4.63595 18.8085 4.63144 18.8091 4.63117C18.8097 4.63089 18.8102 4.63483 18.8085 4.64383ZM18.8091 20.9094C18.8085 20.9091 18.8077 20.9046 18.8085 20.8967C18.8102 20.9057 18.8097 20.9097 18.8091 20.9094ZM18.8327 20.8383C18.8377 20.8321 18.8414 20.8295 18.8421 20.8298C18.8427 20.83 18.8402 20.8331 18.8327 20.8383ZM5.15803 20.8298C5.15866 20.8295 5.16243 20.8321 5.16743 20.8383C5.15989 20.8331 5.15739 20.83 5.15803 20.8298ZM5.19163 20.8967C5.19244 20.9046 5.19161 20.9091 5.19099 20.9094C5.19037 20.9096 5.18996 20.9057 5.19163 20.8967Z" fill="white"/>
</svg>
