<svg width="24" height="25" viewBox="0 0 24 25" fill="none" xmlns="http://www.w3.org/2000/svg">
<path fill-rule="evenodd" clip-rule="evenodd" d="M12 3.02026C6.61522 3.02026 2.25 7.38549 2.25 12.7703C2.25 18.155 6.61522 22.5203 12 22.5203C17.3848 22.5203 21.75 18.155 21.75 12.7703C21.75 7.38549 17.3848 3.02026 12 3.02026ZM3.75 12.7703C3.75 8.21391 7.44365 4.52026 12 4.52026C16.5563 4.52026 20.25 8.21391 20.25 12.7703C20.25 17.3266 16.5563 21.0203 12 21.0203C7.44365 21.0203 3.75 17.3266 3.75 12.7703ZM12.75 8.77026C12.75 8.35605 12.4142 8.02026 12 8.02026C11.5858 8.02026 11.25 8.35605 11.25 8.77026V12.7703C11.25 13.021 11.3753 13.2552 11.584 13.3943L14.584 15.3943C14.9286 15.6241 15.3943 15.5309 15.624 15.1863C15.8538 14.8416 15.7607 14.376 15.416 14.1462L12.75 12.3689V8.77026Z" fill="white"/>
</svg>
