<svg width="24" height="25" viewBox="0 0 24 25" fill="none" xmlns="http://www.w3.org/2000/svg">
<path fill-rule="evenodd" clip-rule="evenodd" d="M11.25 3.77026C11.25 3.35605 11.5858 3.02026 12 3.02026C17.3848 3.02026 21.75 7.38549 21.75 12.7703C21.75 18.155 17.3848 22.5203 12 22.5203C6.61522 22.5203 2.25 18.155 2.25 12.7703C2.25 10.0781 3.34213 7.63955 5.10571 5.87597C5.3986 5.58308 5.87348 5.58308 6.16637 5.87597C6.45926 6.16887 6.45926 6.64374 6.16637 6.93663C4.67259 8.43041 3.75 10.4919 3.75 12.7703C3.75 17.3266 7.44365 21.0203 12 21.0203C16.5563 21.0203 20.25 17.3266 20.25 12.7703C20.25 8.46673 16.9549 4.93282 12.75 4.5539V6.77026C12.75 7.18448 12.4142 7.52026 12 7.52026C11.5858 7.52026 11.25 7.18448 11.25 6.77026V3.77026ZM8.46967 9.23993C8.76256 8.94704 9.23744 8.94704 9.53033 9.23993L12.5303 12.2399C12.8232 12.5328 12.8232 13.0077 12.5303 13.3006C12.2374 13.5935 11.7626 13.5935 11.4697 13.3006L8.46967 10.3006C8.17678 10.0077 8.17678 9.53283 8.46967 9.23993Z" fill="white"/>
</svg>
