<svg width="24" height="25" viewBox="0 0 24 25" fill="none" xmlns="http://www.w3.org/2000/svg">
<path fill-rule="evenodd" clip-rule="evenodd" d="M9.25 1.77027C9.25 1.35605 9.58578 1.02027 10 1.02027L14 1.02027C14.4142 1.02027 14.75 1.35605 14.75 1.77027C14.75 2.18448 14.4142 2.52027 14 2.52027L10 2.52027C9.58578 2.52027 9.25 2.18448 9.25 1.77027ZM3.75 13.7703C3.75 9.21392 7.44365 5.52027 12 5.52027C16.5563 5.52027 20.25 9.21392 20.25 13.7703C20.25 18.3266 16.5563 22.0203 12 22.0203L7 22.0203C6.58578 22.0203 6.25 22.3561 6.25 22.7703C6.25 23.1845 6.58578 23.5203 7 23.5203L12 23.5203C17.3848 23.5203 21.75 19.155 21.75 13.7703C21.75 8.38549 17.3848 4.02027 12 4.02027C6.61522 4.02027 2.25 8.38549 2.25 13.7703C2.25 14.1845 2.58578 14.5203 3 14.5203C3.41421 14.5203 3.75 14.1845 3.75 13.7703ZM1.25 16.7703C1.25 16.3561 1.58578 16.0203 2 16.0203L7 16.0203C7.41421 16.0203 7.75 16.3561 7.75 16.7703C7.75 17.1845 7.41421 17.5203 7 17.5203L2 17.5203C1.58578 17.5203 1.25 17.1845 1.25 16.7703ZM3.25 19.7703C3.25 19.3561 3.58578 19.0203 4 19.0203L10 19.0203C10.4142 19.0203 10.75 19.3561 10.75 19.7703C10.75 20.1845 10.4142 20.5203 10 20.5203L4 20.5203C3.58578 20.5203 3.25 20.1845 3.25 19.7703ZM12.75 10.7703C12.75 10.3561 12.4142 10.0203 12 10.0203C11.5858 10.0203 11.25 10.3561 11.25 10.7703L11.25 14.7703C11.25 15.1845 11.5858 15.5203 12 15.5203C12.4142 15.5203 12.75 15.1845 12.75 14.7703L12.75 10.7703Z" fill="white"/>
</svg>
