<svg width="24" height="25" viewBox="0 0 24 25" fill="none" xmlns="http://www.w3.org/2000/svg">
<path fill-rule="evenodd" clip-rule="evenodd" d="M10 1.02026C9.58579 1.02026 9.25 1.35605 9.25 1.77026C9.25 2.18448 9.58579 2.52026 10 2.52026H14C14.4142 2.52026 14.75 2.18448 14.75 1.77026C14.75 1.35605 14.4142 1.02026 14 1.02026H10ZM12 5.52026C7.44365 5.52026 3.75 9.21391 3.75 13.7703C3.75 18.3266 7.44365 22.0203 12 22.0203C16.5563 22.0203 20.25 18.3266 20.25 13.7703C20.25 11.4919 19.3274 9.43041 17.8336 7.93663C16.3399 6.44285 14.2784 5.52026 12 5.52026ZM2.25 13.7703C2.25 8.38549 6.61522 4.02026 12 4.02026C14.4221 4.02026 16.639 4.90428 18.3436 6.36596L19.9697 4.73993C20.2626 4.44704 20.7374 4.44704 21.0303 4.73993C21.3232 5.03283 21.3232 5.5077 21.0303 5.80059L19.4043 7.42662C20.866 9.13131 21.75 11.3481 21.75 13.7703C21.75 19.155 17.3848 23.5203 12 23.5203C6.61522 23.5203 2.25 19.155 2.25 13.7703ZM12 10.0203C12.4142 10.0203 12.75 10.3561 12.75 10.7703V14.7703C12.75 15.1845 12.4142 15.5203 12 15.5203C11.5858 15.5203 11.25 15.1845 11.25 14.7703V10.7703C11.25 10.3561 11.5858 10.0203 12 10.0203Z" fill="white"/>
</svg>
