<svg width="24" height="25" viewBox="0 0 24 25" fill="none" xmlns="http://www.w3.org/2000/svg">
<path fill-rule="evenodd" clip-rule="evenodd" d="M12 3.02026C8.77745 3.02026 6.3634 4.36617 4.76988 5.6941C4.38296 6.01653 4.04307 6.3389 3.75002 6.64243V4.77026C3.75002 4.35605 3.41423 4.02026 3.00002 4.02026C2.5858 4.02026 2.25002 4.35605 2.25002 4.77026V8.77026C2.25002 9.18448 2.5858 9.52026 3.00002 9.52026H6.50002C6.91423 9.52026 7.25002 9.18448 7.25002 8.77026C7.25002 8.35605 6.91423 8.02026 6.50002 8.02026H4.51758C4.83636 7.66226 5.24074 7.25427 5.73015 6.84643C7.13663 5.67436 9.22258 4.52026 12 4.52026C16.5842 4.52026 20.25 8.21231 20.25 12.7703C20.25 17.3266 16.5564 21.0203 12 21.0203C7.44367 21.0203 3.75002 17.3266 3.75002 12.7703C3.75002 12.3561 3.41423 12.0203 3.00002 12.0203C2.5858 12.0203 2.25002 12.3561 2.25002 12.7703C2.25002 18.155 6.61524 22.5203 12 22.5203C17.3848 22.5203 21.75 18.155 21.75 12.7703C21.75 7.38709 17.4158 3.02026 12 3.02026ZM12.75 8.77026C12.75 8.35605 12.4142 8.02026 12 8.02026C11.5858 8.02026 11.25 8.35605 11.25 8.77026V12.7703C11.25 13.021 11.3753 13.2552 11.584 13.3943L14.584 15.3943C14.9286 15.6241 15.3943 15.5309 15.6241 15.1863C15.8538 14.8416 15.7607 14.376 15.416 14.1462L12.75 12.3689V8.77026Z" fill="white"/>
</svg>
