<svg width="24" height="25" viewBox="0 0 24 25" fill="none" xmlns="http://www.w3.org/2000/svg">
<path fill-rule="evenodd" clip-rule="evenodd" d="M5.53033 3.30059C5.82322 3.0077 5.82322 2.53283 5.53033 2.23993C5.23744 1.94704 4.76256 1.94704 4.46967 2.23993L1.46967 5.23993C1.17678 5.53283 1.17678 6.0077 1.46967 6.30059C1.76256 6.59349 2.23744 6.59349 2.53033 6.30059L5.53033 3.30059ZM3.75 12.7703C3.75 8.21391 7.44365 4.52026 12 4.52026C16.5563 4.52026 20.25 8.21391 20.25 12.7703C20.25 17.3266 16.5563 21.0203 12 21.0203C7.44365 21.0203 3.75 17.3266 3.75 12.7703ZM12 3.02026C6.61522 3.02026 2.25 7.38549 2.25 12.7703C2.25 18.155 6.61522 22.5203 12 22.5203C17.3848 22.5203 21.75 18.155 21.75 12.7703C21.75 7.38549 17.3848 3.02026 12 3.02026ZM18.4697 2.23993C18.1768 2.53283 18.1768 3.0077 18.4697 3.30059L21.4697 6.30059C21.7626 6.59349 22.2374 6.59349 22.5303 6.30059C22.8232 6.0077 22.8232 5.53283 22.5303 5.23993L19.5303 2.23993C19.2374 1.94704 18.7626 1.94704 18.4697 2.23993ZM12.75 8.77026C12.75 8.35605 12.4142 8.02026 12 8.02026C11.5858 8.02026 11.25 8.35605 11.25 8.77026V12.0203H7.99997C7.58576 12.0203 7.24997 12.3561 7.24997 12.7703C7.24997 13.1845 7.58576 13.5203 7.99997 13.5203H11.25V16.7703C11.25 17.1845 11.5858 17.5203 12 17.5203C12.4142 17.5203 12.75 17.1845 12.75 16.7703V13.5203H16C16.4142 13.5203 16.75 13.1845 16.75 12.7703C16.75 12.3561 16.4142 12.0203 16 12.0203H12.75V8.77026Z" fill="white"/>
</svg>
