<svg width="24" height="25" viewBox="0 0 24 25" fill="none" xmlns="http://www.w3.org/2000/svg">
<path fill-rule="evenodd" clip-rule="evenodd" d="M10 1.02026C9.58579 1.02026 9.25 1.35605 9.25 1.77026C9.25 2.18448 9.58579 2.52026 10 2.52026H14C14.4142 2.52026 14.75 2.18448 14.75 1.77026C14.75 1.35605 14.4142 1.02026 14 1.02026H10ZM3.53033 4.23993C3.23744 3.94704 2.76256 3.94704 2.46967 4.23993C2.17678 4.53283 2.17678 5.0077 2.46967 5.30059L4.5957 7.42662C3.13402 9.13131 2.25 11.3481 2.25 13.7703C2.25 19.155 6.61522 23.5203 12 23.5203C14.4221 23.5203 16.639 22.6362 18.3436 21.1746L20.4697 23.3006C20.7626 23.5935 21.2374 23.5935 21.5303 23.3006C21.8232 23.0077 21.8232 22.5328 21.5303 22.2399L18.8943 19.6039L12.5303 13.2399L6.16637 6.87597L3.53033 4.23993ZM3.75 13.7703C3.75 11.7618 4.46691 9.92198 5.66002 8.49095L11.4697 14.3006L17.2793 20.1102C15.8483 21.3034 14.0084 22.0203 12 22.0203C7.44365 22.0203 3.75 18.3266 3.75 13.7703ZM8.33377 6.37742C9.43734 5.82899 10.6815 5.52026 12 5.52026C14.2784 5.52026 16.3399 6.44285 17.8336 7.93663C19.3274 9.43041 20.25 11.4919 20.25 13.7703C20.25 15.0887 19.9413 16.3329 19.3928 17.4365C19.2085 17.8074 19.3598 18.2576 19.7307 18.4419C20.1016 18.6262 20.5518 18.475 20.7361 18.104C21.3853 16.7977 21.75 15.3255 21.75 13.7703C21.75 11.3481 20.866 9.13131 19.4043 7.42662L21.0303 5.80059C21.3232 5.5077 21.3232 5.03283 21.0303 4.73993C20.7374 4.44704 20.2626 4.44704 19.9697 4.73993L18.3436 6.36596C16.639 4.90428 14.4221 4.02026 12 4.02026C10.4448 4.02026 8.97258 4.38495 7.66623 5.03415C7.29529 5.21849 7.14403 5.66862 7.32836 6.03956C7.5127 6.41049 7.96284 6.56176 8.33377 6.37742Z" fill="white"/>
</svg>
