<svg width="24" height="25" viewBox="0 0 24 25" fill="none" xmlns="http://www.w3.org/2000/svg">
<path fill-rule="evenodd" clip-rule="evenodd" d="M5.53033 3.30059C5.82322 3.0077 5.82322 2.53283 5.53033 2.23993C5.23744 1.94704 4.76256 1.94704 4.46967 2.23993L1.46967 5.23993C1.17678 5.53283 1.17678 6.0077 1.46967 6.30059C1.76256 6.59349 2.23744 6.59349 2.53033 6.30059L5.53033 3.30059ZM3.75 12.7703C3.75 8.21391 7.44365 4.52026 12 4.52026C16.5563 4.52026 20.25 8.21391 20.25 12.7703C20.25 17.3266 16.5563 21.0203 12 21.0203C7.44365 21.0203 3.75 17.3266 3.75 12.7703ZM12 3.02026C6.61522 3.02026 2.25 7.38549 2.25 12.7703C2.25 18.155 6.61522 22.5203 12 22.5203C17.3848 22.5203 21.75 18.155 21.75 12.7703C21.75 7.38549 17.3848 3.02026 12 3.02026ZM18.4697 2.23993C18.1768 2.53283 18.1768 3.0077 18.4697 3.30059L21.4697 6.30059C21.7626 6.59349 22.2374 6.59349 22.5303 6.30059C22.8232 6.0077 22.8232 5.53283 22.5303 5.23993L19.5303 2.23993C19.2374 1.94704 18.7626 1.94704 18.4697 2.23993ZM9.53033 9.23993C9.23744 8.94704 8.76256 8.94704 8.46967 9.23993C8.17678 9.53283 8.17678 10.0077 8.46967 10.3006L10.9393 12.7703L8.46967 15.2399C8.17678 15.5328 8.17678 16.0077 8.46967 16.3006C8.76256 16.5935 9.23744 16.5935 9.53033 16.3006L12 13.8309L14.4697 16.3006C14.7626 16.5935 15.2374 16.5935 15.5303 16.3006C15.8232 16.0077 15.8232 15.5328 15.5303 15.2399L13.0607 12.7703L15.5303 10.3006C15.8232 10.0077 15.8232 9.53283 15.5303 9.23993C15.2374 8.94704 14.7626 8.94704 14.4697 9.23993L12 11.7096L9.53033 9.23993Z" fill="white"/>
</svg>
