<svg width="24" height="25" viewBox="0 0 24 25" fill="none" xmlns="http://www.w3.org/2000/svg">
<path fill-rule="evenodd" clip-rule="evenodd" d="M12.364 2.05459C12.1375 1.92874 11.862 1.92874 11.6355 2.05459L2.63552 7.05459C2.39743 7.18686 2.24976 7.43783 2.24976 7.7102L2.24976 17.7102C2.24976 17.9826 2.39743 18.2335 2.63553 18.3658L11.6355 23.3658C11.862 23.4917 12.1375 23.4917 12.364 23.3658L21.364 18.3658C21.6021 18.2335 21.7498 17.9826 21.7498 17.7102V7.7102C21.7498 7.43783 21.6021 7.18686 21.364 7.05459L12.364 2.05459ZM3.74976 17.2689L3.74976 8.15151L11.9998 3.56817L20.2498 8.15151V17.2689L11.9998 21.8522L3.74976 17.2689ZM12.0001 8.96032C9.92904 8.96032 8.25011 10.6392 8.25011 12.7103C8.25011 14.7814 9.92904 16.4603 12.0001 16.4603C14.0712 16.4603 15.7501 14.7814 15.7501 12.7103C15.7501 10.6392 14.0712 8.96032 12.0001 8.96032ZM9.75011 12.7103C9.75011 11.4677 10.7575 10.4603 12.0001 10.4603C13.2427 10.4603 14.2501 11.4677 14.2501 12.7103C14.2501 13.953 13.2427 14.9603 12.0001 14.9603C10.7575 14.9603 9.75011 13.953 9.75011 12.7103Z" fill="white"/>
</svg>
