<svg width="24" height="25" viewBox="0 0 24 25" fill="none" xmlns="http://www.w3.org/2000/svg">
<path fill-rule="evenodd" clip-rule="evenodd" d="M19.3361 3.82874C19.3773 4.0687 19.2994 4.31371 19.1273 4.48586L14.9493 8.66387L16.717 10.4316L20.895 6.25363C21.0672 6.08148 21.3122 6.0036 21.5522 6.04476C21.7921 6.08591 21.9972 6.24099 22.1021 6.46067C23.3002 8.96874 22.8619 12.0649 20.7829 14.1439C18.8387 16.0882 16.0049 16.5975 13.5944 15.6756L7.34786 21.9221C6.27392 22.9961 4.53272 22.9961 3.45878 21.9221C2.38484 20.8482 2.38484 19.107 3.45878 18.033L9.70534 11.7865C8.78335 9.376 9.29273 6.54222 11.237 4.598C13.316 2.51899 16.4122 2.08067 18.9202 3.27879C19.1399 3.38373 19.295 3.58878 19.3361 3.82874ZM17.2284 4.26338C15.5136 3.85606 13.6343 4.32195 12.2976 5.65866C10.6821 7.2742 10.3385 9.68226 11.2712 11.6347C11.4082 11.9215 11.3496 12.2636 11.1248 12.4883L4.51944 19.0937C4.03128 19.5818 4.03128 20.3733 4.51944 20.8615C5.00759 21.3496 5.79905 21.3496 6.2872 20.8615L12.8926 14.2561C13.1173 14.0313 13.4594 13.9727 13.7462 14.1097C15.6986 15.0424 18.1067 14.6988 19.7222 13.0833C21.0589 11.7466 21.5248 9.8673 21.1175 8.15247L17.2474 12.0226C16.9545 12.3155 16.4796 12.3155 16.1867 12.0226L13.3583 9.1942C13.0654 8.9013 13.0654 8.42643 13.3583 8.13354L17.2284 4.26338Z" fill="white"/>
</svg>
