<svg width="24" height="25" viewBox="0 0 24 25" fill="none" xmlns="http://www.w3.org/2000/svg">
<path fill-rule="evenodd" clip-rule="evenodd" d="M12 3.13916C6.61522 3.13916 2.25 7.50438 2.25 12.8892C2.25 18.2739 6.61522 22.6392 12 22.6392C17.3848 22.6392 21.75 18.2739 21.75 12.8892C21.75 7.50438 17.3848 3.13916 12 3.13916ZM3.75 12.8892C3.75 8.33281 7.44365 4.63916 12 4.63916C16.5563 4.63916 20.25 8.33281 20.25 12.8892C20.25 17.4455 16.5563 21.1392 12 21.1392C7.44365 21.1392 3.75 17.4455 3.75 12.8892ZM12.1162 8.15127C12.473 8.08657 12.8249 8.28638 12.9522 8.62589L15.1855 14.5812L17.0341 8.66553C17.1447 8.31187 17.4969 8.09192 17.8631 8.14782C18.2294 8.20371 18.5 8.51871 18.5 8.88923V16.8892C18.5 17.3034 18.1642 17.6392 17.75 17.6392C17.3358 17.6392 17 17.3034 17 16.8892V13.8037L15.9659 17.1129C15.8703 17.4187 15.5911 17.63 15.271 17.6389C14.9508 17.6479 14.6602 17.4525 14.5478 17.1526L13 13.0252V16.8892C13 17.3034 12.6642 17.6392 12.25 17.6392C11.8358 17.6392 11.5 17.3034 11.5 16.8892V8.88923C11.5 8.52664 11.7594 8.21596 12.1162 8.15127ZM5.5 8.88923C5.5 8.47502 5.83579 8.13923 6.25 8.13923H8.25H10.25C10.6642 8.13923 11 8.47502 11 8.88923C11 9.30345 10.6642 9.63923 10.25 9.63923H9V16.8892C9 17.3034 8.66421 17.6392 8.25 17.6392C7.83579 17.6392 7.5 17.3034 7.5 16.8892V9.63923H6.25C5.83579 9.63923 5.5 9.30345 5.5 8.88923Z" fill="white"/>
</svg>
