<svg width="24" height="25" viewBox="0 0 24 25" fill="none" xmlns="http://www.w3.org/2000/svg">
<path fill-rule="evenodd" clip-rule="evenodd" d="M17.75 5.12012C17.75 4.42976 18.3096 3.87012 19 3.87012C19.6904 3.87012 20.25 4.42976 20.25 5.12012C20.25 5.81048 19.6904 6.37012 19 6.37012C18.3097 6.37012 17.7502 5.81063 17.75 5.12041L17.75 5.12012ZM16.3535 4.37012C16.68 3.21587 17.7412 2.37012 19 2.37012C20.5188 2.37012 21.75 3.60134 21.75 5.12012C21.75 6.3789 20.9043 7.44014 19.75 7.7666L19.75 16.4736C20.9043 16.8001 21.75 17.8613 21.75 19.1201C21.75 20.6389 20.5188 21.8701 19 21.8701C17.7412 21.8701 16.68 21.0244 16.3535 19.8701L7.64648 19.8701C7.32002 21.0244 6.25878 21.8701 5 21.8701C3.48122 21.8701 2.25 20.6389 2.25 19.1201C2.25 17.8613 3.09575 16.8001 4.25 16.4736L4.25 7.7666C3.09575 7.44014 2.25 6.3789 2.25 5.12012C2.25 3.60134 3.48122 2.37012 5 2.37012C6.25878 2.37012 7.32002 3.21587 7.64648 4.37012L16.3535 4.37012ZM5.75 16.4736C6.66584 16.7327 7.38745 17.4543 7.64648 18.3701L16.3535 18.3701C16.6125 17.4543 17.3342 16.7327 18.25 16.4736L18.25 7.7666C17.3342 7.50757 16.6125 6.78596 16.3535 5.87012L7.64648 5.87012C7.38745 6.78596 6.66584 7.50757 5.75 7.7666L5.75 16.4736ZM18.9997 17.8701L19 17.8701C19.6904 17.8701 20.25 18.4298 20.25 19.1201C20.25 19.8105 19.6904 20.3701 19 20.3701C18.3096 20.3701 17.75 19.8105 17.75 19.1201C17.75 18.4299 18.3095 17.8703 18.9997 17.8701ZM5 3.87012C4.30964 3.87012 3.75 4.42976 3.75 5.12012C3.75 5.81048 4.30964 6.37012 5 6.37012L5.00015 6.37012C5.69044 6.37004 6.25 5.81043 6.25 5.12012C6.25 4.42976 5.69036 3.87012 5 3.87012ZM3.75 19.1201C3.75 18.4298 4.30964 17.8701 5 17.8701C5.69036 17.8701 6.25 18.4298 6.25 19.1201C6.25 19.8105 5.69036 20.3701 5 20.3701C4.30964 20.3701 3.75 19.8105 3.75 19.1201Z" fill="white"/>
</svg>
