<svg width="24" height="25" viewBox="0 0 24 25" fill="none" xmlns="http://www.w3.org/2000/svg">
<path fill-rule="evenodd" clip-rule="evenodd" d="M8.28849 2.82283C8.39057 2.51657 8.67718 2.31 9 2.31H15C15.3228 2.31 15.6094 2.51657 15.7115 2.82283L16.5406 5.31H19H21C21.4142 5.31 21.75 5.64578 21.75 6.06C21.75 6.47421 21.4142 6.81 21 6.81H19.7017L18.7483 21.1099C18.7221 21.5039 18.3948 21.81 18 21.81H6C5.60515 21.81 5.27793 21.5039 5.25166 21.1099L4.29834 6.81H3C2.58579 6.81 2.25 6.47421 2.25 6.06C2.25 5.64578 2.58579 5.31 3 5.31H5H7.45943L8.28849 2.82283ZM9.04057 5.31H14.9594L14.4594 3.81H9.54057L9.04057 5.31ZM5.80166 6.81L6.70166 20.31H17.2983L18.1983 6.81H16H8H5.80166Z" fill="white"/>
</svg>
