<svg width="24" height="25" viewBox="0 0 24 25" fill="none" xmlns="http://www.w3.org/2000/svg">
<path fill-rule="evenodd" clip-rule="evenodd" d="M14.25 7.30029C14.25 6.88608 14.5858 6.55029 15 6.55029H21C21.4142 6.55029 21.75 6.88608 21.75 7.30029V13.3003C21.75 13.7145 21.4142 14.0503 21 14.0503C20.5858 14.0503 20.25 13.7145 20.25 13.3003V9.11095L13.5303 15.8306C13.2374 16.1235 12.7626 16.1235 12.4697 15.8306L8.99997 12.3609L3.53033 17.8306C3.23744 18.1235 2.76256 18.1235 2.46967 17.8306C2.17678 17.5377 2.17678 17.0628 2.46967 16.7699L8.46964 10.7699C8.76253 10.477 9.23741 10.477 9.5303 10.7699L13 14.2396L19.1893 8.05029H15C14.5858 8.05029 14.25 7.71451 14.25 7.30029Z" fill="white"/>
</svg>
