<svg width="24" height="25" viewBox="0 0 24 25" fill="none" xmlns="http://www.w3.org/2000/svg">
<path fill-rule="evenodd" clip-rule="evenodd" d="M2.46967 6.76996C2.76257 6.47707 3.23744 6.47707 3.53033 6.76996L8.99997 12.2396L12.4697 8.7699C12.7626 8.47701 13.2374 8.47701 13.5303 8.7699L20.25 15.4896V11.3003C20.25 10.886 20.5858 10.5503 21 10.5503C21.4142 10.5503 21.75 10.886 21.75 11.3003V17.3002C21.75 17.7144 21.4142 18.0502 21 18.0502H15C14.5858 18.0502 14.25 17.7144 14.25 17.3002C14.25 16.886 14.5858 16.5502 15 16.5502H19.1893L13 10.3609L9.5303 13.8306C9.23741 14.1235 8.76254 14.1235 8.46964 13.8306L2.46967 7.83062C2.17678 7.53773 2.17678 7.06286 2.46967 6.76996Z" fill="white"/>
</svg>
