<svg width="24" height="25" viewBox="0 0 24 25" fill="none" xmlns="http://www.w3.org/2000/svg">
<path fill-rule="evenodd" clip-rule="evenodd" d="M11 3.02002C10.5858 3.02002 10.25 3.35581 10.25 3.77002V7.02002H4.00003C3.73658 7.02002 3.49245 7.15824 3.35691 7.38415L0.356905 12.3841C0.286968 12.5007 0.250025 12.6341 0.250025 12.77V18.77C0.250025 19.1842 0.585811 19.52 1.00003 19.52H3.2595C3.38715 21.1981 4.78922 22.52 6.50002 22.52C8.21083 22.52 9.6129 21.1981 9.74055 19.52H13.2595C13.3872 21.1981 14.7892 22.52 16.5 22.52C18.2108 22.52 19.6129 21.1981 19.7406 19.52H23C23.4142 19.52 23.75 19.1842 23.75 18.77V3.77002C23.75 3.35581 23.4142 3.02002 23 3.02002H11ZM10.25 8.77002V8.52002H4.42467L2.32467 12.02H10.25V8.77002ZM11.75 8.77002V12.77C11.75 13.1842 11.4142 13.52 11 13.52H1.75003V18.02H3.49911C3.98889 16.8455 5.14805 16.02 6.50002 16.02C7.852 16.02 9.01116 16.8455 9.50094 18.02H13.4991C13.9889 16.8455 15.148 16.02 16.5 16.02C17.852 16.02 19.0112 16.8455 19.5009 18.02H22.25V4.52002H11.75V7.77002V8.77002ZM6.50002 17.52C5.53353 17.52 4.75002 18.3035 4.75002 19.27C4.75002 20.2365 5.53353 21.02 6.50002 21.02C7.46652 21.02 8.25002 20.2365 8.25002 19.27C8.25002 18.3035 7.46652 17.52 6.50002 17.52ZM16.5 17.52C15.5335 17.52 14.75 18.3035 14.75 19.27C14.75 20.2365 15.5335 21.02 16.5 21.02C17.4665 21.02 18.25 20.2365 18.25 19.27C18.25 18.3035 17.4665 17.52 16.5 17.52Z" fill="white"/>
</svg>
