<svg width="24" height="25" viewBox="0 0 24 25" fill="none" xmlns="http://www.w3.org/2000/svg">
<path fill-rule="evenodd" clip-rule="evenodd" d="M8.45 2.0499C8.11863 1.80138 7.64853 1.86853 7.4 2.1999C7.15147 2.53128 7.21863 3.00138 7.55 3.2499L9.75 4.8999L3 4.8999C2.58579 4.8999 2.25 5.23569 2.25 5.6499L2.25 20.6499C2.25 21.0641 2.58579 21.3999 3 21.3999L6.78647 21.3999L6.32918 22.3145C6.14394 22.685 6.29411 23.1355 6.66459 23.3207C7.03507 23.506 7.48558 23.3558 7.67082 22.9853L8.46353 21.3999L15.5365 21.3999L16.3292 22.9853C16.5144 23.3558 16.9649 23.506 17.3354 23.3207C17.7059 23.1355 17.8561 22.685 17.6708 22.3145L17.2135 21.3999L21 21.3999C21.4142 21.3999 21.75 21.0641 21.75 20.6499L21.75 5.6499C21.75 5.23569 21.4142 4.8999 21 4.8999L14.25 4.8999L16.45 3.2499C16.7814 3.00138 16.8485 2.53128 16.6 2.1999C16.3515 1.86853 15.8814 1.80138 15.55 2.0499L12 4.71241L8.45 2.0499ZM16.015 19.8999L20.25 19.8999L20.25 6.3999L12.0019 6.3999L11.9981 6.3999L3.75 6.3999L3.75 19.8999L7.98497 19.8999C7.99536 19.8997 8.00577 19.8997 8.01619 19.8999L15.9838 19.8999C15.9942 19.8997 16.0046 19.8997 16.015 19.8999Z" fill="white"/>
</svg>
