<svg width="24" height="25" viewBox="0 0 24 25" fill="none" xmlns="http://www.w3.org/2000/svg">
<path fill-rule="evenodd" clip-rule="evenodd" d="M8.75965 11.4299H12H15.2418C15.1841 8.82102 14.824 6.69216 14.2394 5.20417C13.5844 3.53679 12.769 2.92993 12 2.92993C11.2653 2.92993 10.4371 3.60822 9.76372 5.38343C9.17945 6.92375 8.8216 9.04101 8.75965 11.4299ZM9.07831 3.36799C8.79922 3.81995 8.56114 4.32441 8.36123 4.85144C7.69648 6.60393 7.32116 8.91361 7.25918 11.4299H2.88182C2.91939 11.244 2.96632 11.032 3.02449 10.7993C3.24834 9.90392 3.63455 8.71885 4.28217 7.54137C5.22636 5.82465 6.71007 4.1401 9.07831 3.36799ZM15.021 3.40108C15.2546 3.7835 15.4591 4.20639 15.6356 4.65569C16.3099 6.37207 16.6846 8.70451 16.7422 11.4299H21.1182C21.0806 11.244 21.0337 11.032 20.9755 10.7993C20.7517 9.90392 20.3655 8.71885 19.7178 7.54137C18.7869 5.84878 17.3315 4.18746 15.021 3.40108ZM16 12.9299H12.75V22.1799C12.75 22.5941 12.4142 22.9299 12 22.9299H8C7.58579 22.9299 7.25 22.5941 7.25 22.1799V19.1799C7.25 18.7657 7.58579 18.4299 8 18.4299C8.41422 18.4299 8.75 18.7657 8.75 19.1799V21.4299H11.25V12.9299H8H2C1.78811 12.9299 1.5861 12.8403 1.44391 12.6832C1.30173 12.5261 1.23264 12.3161 1.25373 12.1053L2 12.1799C1.25373 12.1053 1.25376 12.1049 1.2538 12.1045L1.2539 12.1035L1.25418 12.1009L1.25503 12.0928L1.25802 12.0659C1.2606 12.0433 1.26442 12.0115 1.26969 11.9709C1.28022 11.8899 1.29656 11.7742 1.32047 11.6287C1.36825 11.3378 1.44644 10.9268 1.56927 10.4355C1.81417 9.45595 2.24046 8.14101 2.96784 6.81849C4.43332 4.15399 7.15027 1.42993 12 1.42993C16.8497 1.42993 19.5667 4.15399 21.0322 6.81849C21.7596 8.14101 22.1858 9.45595 22.4307 10.4355C22.5536 10.9268 22.6318 11.3378 22.6795 11.6287C22.7034 11.7742 22.7198 11.8899 22.7303 11.9709C22.7356 12.0115 22.7394 12.0433 22.742 12.0659L22.745 12.0928L22.7458 12.1009L22.7461 12.1035L22.7462 12.1045C22.7462 12.1049 22.7463 12.1053 22 12.1799L22.7463 12.1053C22.7674 12.3161 22.6983 12.5261 22.5561 12.6832C22.4139 12.8403 22.2119 12.9299 22 12.9299H16Z" fill="white"/>
</svg>
