<svg width="24" height="25" viewBox="0 0 24 25" fill="none" xmlns="http://www.w3.org/2000/svg">
<path fill-rule="evenodd" clip-rule="evenodd" d="M7.53033 2.76996C7.82322 3.06286 7.82322 3.53773 7.53033 3.83062L4.81066 6.55029H21C21.4142 6.55029 21.75 6.88608 21.75 7.30029V19.3003C21.75 19.7145 21.4142 20.0503 21 20.0503H11C10.5858 20.0503 10.25 19.7145 10.25 19.3003C10.25 18.8861 10.5858 18.5503 11 18.5503H20.25V8.05029H4.81066L7.53033 10.77C7.82322 11.0629 7.82322 11.5377 7.53033 11.8306C7.23744 12.1235 6.76256 12.1235 6.46967 11.8306L2.46967 7.83062C2.17678 7.53773 2.17678 7.06286 2.46967 6.76996L6.46967 2.76996C6.76256 2.47707 7.23744 2.47707 7.53033 2.76996Z" fill="white"/>
</svg>
