<svg width="24" height="25" viewBox="0 0 24 25" fill="none" xmlns="http://www.w3.org/2000/svg">
<path fill-rule="evenodd" clip-rule="evenodd" d="M3 7.55029C3.41421 7.55029 3.75 7.88608 3.75 8.30029V13.1804C4.25733 12.6018 4.8894 11.9276 5.61326 11.252C7.50321 9.48804 10.1902 7.55029 13 7.55029C16.8065 7.55029 19.0231 9.47709 20.2559 11.3947C20.8647 12.3417 21.2337 13.2831 21.4508 13.9848C21.5598 14.3369 21.6317 14.6321 21.6767 14.8424C21.6993 14.9476 21.7152 15.0318 21.7257 15.0915C21.7309 15.1214 21.7349 15.1452 21.7376 15.1625L21.7409 15.1834L21.7419 15.1901L21.7422 15.1925L21.7423 15.1934C21.7424 15.1938 21.7425 15.1942 21 15.3003L21.7425 15.1942C21.801 15.6043 21.5161 15.9842 21.1061 16.0428C20.6965 16.1013 20.317 15.8171 20.2577 15.4078C20.2577 15.4078 20.2577 15.4077 20.2577 15.4077C20.2577 15.4075 20.2577 15.4072 20.2576 15.407L20.2575 15.4064L20.2562 15.398C20.2548 15.3887 20.2522 15.3732 20.2484 15.3518C20.2409 15.309 20.2285 15.2428 20.21 15.1567C20.173 14.9841 20.1121 14.7325 20.0179 14.4283C19.8288 13.8175 19.5103 13.0088 18.9941 12.2059C17.9769 10.6235 16.1935 9.05029 13 9.05029C10.8098 9.05029 8.49679 10.6125 6.63674 12.3486C5.79135 13.1376 5.07487 13.9289 4.54997 14.5503H10C10.4142 14.5503 10.75 14.8861 10.75 15.3003C10.75 15.7145 10.4142 16.0503 10 16.0503H3C2.58579 16.0503 2.25 15.7145 2.25 15.3003V8.30029C2.25 7.88608 2.58579 7.55029 3 7.55029Z" fill="white"/>
</svg>
