<svg width="24" height="25" viewBox="0 0 24 25" fill="none" xmlns="http://www.w3.org/2000/svg">
<path fill-rule="evenodd" clip-rule="evenodd" d="M8.75 7.24023C8.75 5.44531 10.2051 3.99023 12 3.99023C13.7949 3.99023 15.25 5.44531 15.25 7.24023C15.25 9.03516 13.7949 10.4902 12 10.4902C10.2051 10.4902 8.75 9.03516 8.75 7.24023ZM12 2.49023C9.37665 2.49023 7.25 4.61688 7.25 7.24023C7.25 9.86359 9.37665 11.9902 12 11.9902C14.6234 11.9902 16.75 9.86359 16.75 7.24023C16.75 4.61688 14.6234 2.49023 12 2.49023ZM5.75 19.2402C5.75 17.4453 7.20507 15.9902 9 15.9902H15C16.7949 15.9902 18.25 17.4453 18.25 19.2402C18.25 19.9306 17.6904 20.4902 17 20.4902H7C6.30964 20.4902 5.75 19.9306 5.75 19.2402ZM9 14.4902C6.37665 14.4902 4.25 16.6169 4.25 19.2402C4.25 20.759 5.48122 21.9902 7 21.9902H17C18.5188 21.9902 19.75 20.759 19.75 19.2402C19.75 16.6169 17.6234 14.4902 15 14.4902H9Z" fill="white"/>
</svg>
