<svg width="24" height="25" viewBox="0 0 24 25" fill="none" xmlns="http://www.w3.org/2000/svg">
<path fill-rule="evenodd" clip-rule="evenodd" d="M9 3.99023C7.20507 3.99023 5.75 5.44531 5.75 7.24023C5.75 9.03516 7.20507 10.4902 9 10.4902C10.7949 10.4902 12.25 9.03516 12.25 7.24023C12.25 5.44531 10.7949 3.99023 9 3.99023ZM4.25 7.24023C4.25 4.61688 6.37665 2.49023 9 2.49023C11.6234 2.49023 13.75 4.61688 13.75 7.24023C13.75 9.86359 11.6234 11.9902 9 11.9902C6.37665 11.9902 4.25 9.86359 4.25 7.24023ZM6 15.9902C4.20507 15.9902 2.75 17.4453 2.75 19.2402C2.75 19.9306 3.30964 20.4902 4 20.4902H14C14.6904 20.4902 15.25 19.9306 15.25 19.2402C15.25 17.4453 13.7949 15.9902 12 15.9902H6ZM1.25 19.2402C1.25 16.6169 3.37665 14.4902 6 14.4902H12C14.6234 14.4902 16.75 16.6169 16.75 19.2402C16.75 20.759 15.5188 21.9902 14 21.9902H4C2.48122 21.9902 1.25 20.759 1.25 19.2402ZM20.75 7.24023C20.75 6.82602 20.4142 6.49023 20 6.49023C19.5858 6.49023 19.25 6.82602 19.25 7.24023V11.4296L17.5303 9.7099C17.2374 9.41701 16.7626 9.41701 16.4697 9.7099C16.1768 10.0028 16.1768 10.4777 16.4697 10.7706L19.4697 13.7706C19.7626 14.0635 20.2374 14.0635 20.5303 13.7706L23.5303 10.7706C23.8232 10.4777 23.8232 10.0028 23.5303 9.7099C23.2374 9.41701 22.7626 9.41701 22.4697 9.7099L20.75 11.4296V7.24023Z" fill="white"/>
</svg>
