<svg width="24" height="25" viewBox="0 0 24 25" fill="none" xmlns="http://www.w3.org/2000/svg">
<path fill-rule="evenodd" clip-rule="evenodd" d="M9 3.99023C7.20507 3.99023 5.75 5.44531 5.75 7.24023C5.75 9.03516 7.20507 10.4902 9 10.4902C10.7949 10.4902 12.25 9.03516 12.25 7.24023C12.25 5.44531 10.7949 3.99023 9 3.99023ZM4.25 7.24023C4.25 4.61688 6.37665 2.49023 9 2.49023C11.6234 2.49023 13.75 4.61688 13.75 7.24023C13.75 9.86359 11.6234 11.9902 9 11.9902C6.37665 11.9902 4.25 9.86359 4.25 7.24023ZM6 15.9902C4.20507 15.9902 2.75 17.4453 2.75 19.2402C2.75 19.9306 3.30964 20.4902 4 20.4902H14C14.6904 20.4902 15.25 19.9306 15.25 19.2402C15.25 17.4453 13.7949 15.9902 12 15.9902H6ZM1.25 19.2402C1.25 16.6169 3.37665 14.4902 6 14.4902H12C14.6234 14.4902 16.75 16.6169 16.75 19.2402C16.75 20.759 15.5188 21.9902 14 21.9902H4C2.48122 21.9902 1.25 20.759 1.25 19.2402ZM20.5303 6.7099C20.2374 6.41701 19.7626 6.41701 19.4697 6.7099L16.4697 9.7099C16.1768 10.0028 16.1768 10.4777 16.4697 10.7706C16.7626 11.0635 17.2374 11.0635 17.5303 10.7706L19.25 9.05089V13.2402C19.25 13.6544 19.5858 13.9902 20 13.9902C20.4142 13.9902 20.75 13.6544 20.75 13.2402V9.05089L22.4697 10.7706C22.7626 11.0635 23.2374 11.0635 23.5303 10.7706C23.8232 10.4777 23.8232 10.0028 23.5303 9.7099L20.5303 6.7099Z" fill="white"/>
</svg>
