<svg width="24" height="25" viewBox="0 0 24 25" fill="none" xmlns="http://www.w3.org/2000/svg">
<path fill-rule="evenodd" clip-rule="evenodd" d="M13.1624 4.73274C12.8667 4.44263 12.3919 4.44713 12.1018 4.74278C11.8117 5.03843 11.8161 5.51328 12.1118 5.80339L12.9508 6.62664H10.4882C10.074 6.62664 9.73824 6.96242 9.73824 7.37664C9.73824 7.79085 10.074 8.12664 10.4882 8.12664H12.9508L12.1118 8.94989C11.8161 9.24 11.8117 9.71485 12.1018 10.0105C12.3919 10.3061 12.8667 10.3106 13.1624 10.0205L15.3112 7.91196C15.455 7.77092 15.5359 7.57801 15.5359 7.37664C15.5359 7.17527 15.455 6.98235 15.3112 6.84131L13.1624 4.73274ZM3.91382 9.07501C3.91382 8.24504 4.58664 7.57222 5.41661 7.57222C6.24658 7.57222 6.9194 8.24504 6.9194 9.07501C6.9194 9.90498 6.24658 10.5778 5.41661 10.5778C4.58664 10.5778 3.91382 9.90498 3.91382 9.07501ZM5.41661 6.07222C3.75821 6.07222 2.41382 7.41662 2.41382 9.07501C2.41382 10.7334 3.75821 12.0778 5.41661 12.0778C7.075 12.0778 8.4194 10.7334 8.4194 9.07501C8.4194 7.41662 7.075 6.07222 5.41661 6.07222ZM1.66089 17.7107C1.66089 16.466 2.66991 15.457 3.91461 15.457H6.91833C8.16302 15.457 9.17205 16.466 9.17205 17.7107C9.17205 18.126 8.83543 18.4626 8.42019 18.4626H2.41275C1.99751 18.4626 1.66089 18.126 1.66089 17.7107ZM3.91461 13.957C1.84149 13.957 0.160889 15.6376 0.160889 17.7107C0.160889 18.9544 1.16908 19.9626 2.41275 19.9626H8.42019C9.66386 19.9626 10.672 18.9544 10.672 17.7107C10.672 15.6376 8.99145 13.957 6.91833 13.957H3.91461ZM17.0814 15.457C15.8367 15.457 14.8277 16.4661 14.8277 17.7108C14.8277 18.126 15.1643 18.4626 15.5795 18.4626H21.587C22.0022 18.4626 22.3388 18.126 22.3388 17.7108C22.3388 16.4661 21.3298 15.457 20.0851 15.457H17.0814ZM13.3277 17.7108C13.3277 15.6376 15.0083 13.957 17.0814 13.957H20.0851C22.1582 13.957 23.8388 15.6376 23.8388 17.7108C23.8388 18.9544 22.8306 19.9626 21.587 19.9626H15.5795C14.3359 19.9626 13.3277 18.9544 13.3277 17.7108ZM17.0805 9.07507C17.0805 8.2451 17.7533 7.57228 18.5833 7.57228C19.4132 7.57228 20.086 8.2451 20.086 9.07507C20.086 9.90504 19.4132 10.5779 18.5833 10.5779C17.7533 10.5779 17.0805 9.90504 17.0805 9.07507ZM18.5833 6.07228C16.9249 6.07228 15.5805 7.41668 15.5805 9.07507C15.5805 10.7335 16.9249 12.0779 18.5833 12.0779C20.2416 12.0779 21.586 10.7335 21.586 9.07507C21.586 7.41668 20.2416 6.07228 18.5833 6.07228ZM11.8978 10.266C11.6077 9.97037 11.1328 9.96588 10.8372 10.256L8.68834 12.3646C8.54461 12.5056 8.46363 12.6985 8.46363 12.8999C8.46363 13.1013 8.54461 13.2942 8.68834 13.4352L10.8372 15.5438C11.1328 15.8339 11.6077 15.8294 11.8978 15.5337C12.1879 15.2381 12.1834 14.7632 11.8878 14.4731L11.0488 13.6499H13.5113C13.9255 13.6499 14.2613 13.3141 14.2613 12.8999C14.2613 12.4857 13.9255 12.1499 13.5113 12.1499H11.0488L11.8878 11.3266C12.1834 11.0365 12.1879 10.5617 11.8978 10.266Z" fill="white"/>
</svg>
