<svg width="24" height="25" viewBox="0 0 24 25" fill="none" xmlns="http://www.w3.org/2000/svg">
<path fill-rule="evenodd" clip-rule="evenodd" d="M6.75 7.24023C6.75 5.44531 8.20507 3.99023 10 3.99023C11.7949 3.99023 13.25 5.44531 13.25 7.24023C13.25 9.03516 11.7949 10.4902 10 10.4902C8.20507 10.4902 6.75 9.03516 6.75 7.24023ZM10 2.49023C7.37665 2.49023 5.25 4.61688 5.25 7.24023C5.25 9.86359 7.37665 11.9902 10 11.9902C12.6234 11.9902 14.75 9.86359 14.75 7.24023C14.75 4.61688 12.6234 2.49023 10 2.49023ZM20.75 5.24023C20.75 4.82602 20.4142 4.49023 20 4.49023C19.5858 4.49023 19.25 4.82602 19.25 5.24023V10.2402C19.25 10.6544 19.5858 10.9902 20 10.9902C20.4142 10.9902 20.75 10.6544 20.75 10.2402V5.24023ZM7 15.9902C5.20507 15.9902 3.75 17.4453 3.75 19.2402C3.75 19.9306 4.30964 20.4902 5 20.4902H15C15.6904 20.4902 16.25 19.9306 16.25 19.2402C16.25 17.4453 14.7949 15.9902 13 15.9902H7ZM2.25 19.2402C2.25 16.6169 4.37665 14.4902 7 14.4902H13C15.6234 14.4902 17.75 16.6169 17.75 19.2402C17.75 20.759 16.5188 21.9902 15 21.9902H5C3.48122 21.9902 2.25 20.759 2.25 19.2402ZM20 14.2402C20.5523 14.2402 21 13.7925 21 13.2402C21 12.6879 20.5523 12.2402 20 12.2402C19.4477 12.2402 19 12.6879 19 13.2402C19 13.7925 19.4477 14.2402 20 14.2402Z" fill="white"/>
</svg>
