<svg width="27" height="25" viewBox="0 0 27 25" fill="none" xmlns="http://www.w3.org/2000/svg">
<path fill-rule="evenodd" clip-rule="evenodd" d="M10.6889 6.98265C10.6889 5.19191 12.1406 3.74023 13.9313 3.74023C15.722 3.74023 17.1737 5.19191 17.1737 6.98265C17.1737 8.77338 15.722 10.2251 13.9313 10.2251C12.1406 10.2251 10.6889 8.77338 10.6889 6.98265ZM13.9313 2.24023C11.3121 2.24023 9.18887 4.36348 9.18887 6.98265C9.18887 9.60181 11.3121 11.7251 13.9313 11.7251C16.5504 11.7251 18.6737 9.60181 18.6737 6.98265C18.6737 4.36348 16.5504 2.24023 13.9313 2.24023ZM7.69458 18.9599C7.69458 17.1692 9.14626 15.7175 10.937 15.7175H16.9256C18.7163 15.7175 20.168 17.1692 20.168 18.9599C20.168 19.6482 19.6101 20.2062 18.9218 20.2062H8.94079C8.25253 20.2062 7.69458 19.6482 7.69458 18.9599ZM10.937 14.2175C8.31783 14.2175 6.19458 16.3408 6.19458 18.9599C6.19458 20.4766 7.4241 21.7062 8.94079 21.7062H18.9218C20.4385 21.7062 21.668 20.4766 21.668 18.9599C21.668 16.3408 19.5448 14.2175 16.9256 14.2175H10.937Z" fill="white"/>
<path d="M19.9042 10.2933C19.6932 10.2933 19.4908 10.3897 19.3675 10.561C19.3581 10.5741 19.3486 10.5872 19.3391 10.6002C19.0478 10.9978 19.2053 11.5943 19.6977 11.6158C19.7662 11.6188 19.835 11.6203 19.9042 11.6203C22.4756 11.6203 23.8953 9.55398 23.8953 6.98258C23.8953 4.41119 21.8107 2.32666 19.2393 2.32666C19.0699 2.32666 18.9026 2.33571 18.7378 2.35336C18.2478 2.40584 18.1283 3.0109 18.4441 3.38928C18.5984 3.5742 18.8358 3.66919 19.0764 3.6576C19.1304 3.655 19.1847 3.65368 19.2393 3.65368C21.0778 3.65368 22.5682 5.14408 22.5682 6.98258C22.5682 8.82108 21.7427 10.2933 19.9042 10.2933Z" fill="white"/>
<path d="M23.2374 20.2925C22.9768 20.2925 22.75 20.4704 22.6609 20.7153C22.5084 21.1345 22.7968 21.6195 23.2429 21.6195H24.2631C24.4412 21.6196 24.5784 21.6196 24.7012 21.6072C25.8514 21.491 26.761 20.5814 26.8772 19.4312C26.8896 19.3084 26.8896 19.1712 26.8896 18.9931L26.8896 18.9166C26.8896 18.5366 26.8896 18.2949 26.8683 18.0837C26.6676 16.097 25.2296 14.5394 23.2429 14.3386C23.0317 14.3173 22.7901 14.3173 22.4101 14.3173C21.9744 14.3173 21.7441 14.8867 22.0027 15.2373C22.0407 15.2889 22.078 15.3412 22.1144 15.3941C22.2199 15.5474 22.39 15.6463 22.5761 15.6496L23.1095 15.6589C22.9737 15.6452 23.547 15.6589 23.1095 15.6589C24.4688 15.7963 25.4106 16.8578 25.548 18.2171C25.5617 18.3529 25.5625 18.5223 25.5625 18.9598C25.5625 19.1867 25.5617 19.2508 25.5569 19.2978C25.5041 19.8206 25.0907 20.2341 24.5679 20.2869C24.5208 20.2917 24.4567 20.2925 24.2298 20.2925H23.2374Z" fill="white"/>
<path d="M7.93 10.2933C8.14106 10.2933 8.34343 10.3897 8.46672 10.561C8.47615 10.5741 8.48563 10.5872 8.49517 10.6002C8.78638 10.9978 8.62891 11.5943 8.13649 11.6158C8.06803 11.6188 7.99919 11.6203 7.93 11.6203C5.35861 11.6203 3.93896 9.55398 3.93896 6.98258C3.93896 4.41119 6.02349 2.32666 8.59488 2.32666C8.76432 2.32666 8.93165 2.33571 9.09641 2.35336C9.58642 2.40584 9.70592 3.0109 9.39018 3.38928C9.23586 3.5742 8.99838 3.66919 8.75781 3.6576C8.70383 3.655 8.64951 3.65368 8.59488 3.65368C6.75638 3.65368 5.26598 5.14408 5.26598 6.98258C5.26598 8.82108 6.0915 10.2933 7.93 10.2933Z" fill="white"/>
<path d="M4.59682 20.2925C4.85739 20.2925 5.08428 20.4704 5.17334 20.7153C5.32583 21.1345 5.03745 21.6195 4.59134 21.6195H3.57113C3.39305 21.6196 3.25579 21.6196 3.13298 21.6072C1.98278 21.491 1.0732 20.5814 0.956987 19.4312C0.94458 19.3084 0.944614 19.1712 0.944658 18.9931L0.944661 18.9166C0.944634 18.5366 0.944617 18.2949 0.965949 18.0837C1.16667 16.097 2.60462 14.5394 4.59134 14.3386C4.80249 14.3173 5.04416 14.3173 5.42417 14.3173C5.85979 14.3173 6.09011 14.8867 5.83156 15.2373C5.79348 15.2889 5.75623 15.3412 5.71982 15.3941C5.6143 15.5474 5.4442 15.6463 5.25809 15.6496L4.72473 15.6589C4.86049 15.6452 4.28721 15.6589 4.72473 15.6589C3.3654 15.7963 2.42359 16.8578 2.28625 18.2171C2.27254 18.3529 2.27169 18.5223 2.27169 18.9598C2.27169 19.1867 2.27254 19.2508 2.27729 19.2978C2.33011 19.8206 2.74356 20.2341 3.26638 20.2869C3.31343 20.2917 3.37752 20.2925 3.60438 20.2925H4.59682Z" fill="white"/>
</svg>
