<svg width="24" height="25" viewBox="0 0 24 25" fill="none" xmlns="http://www.w3.org/2000/svg">
<path fill-rule="evenodd" clip-rule="evenodd" d="M9 3.99023C7.20507 3.99023 5.75 5.44531 5.75 7.24023C5.75 9.03516 7.20507 10.4902 9 10.4902C10.7949 10.4902 12.25 9.03516 12.25 7.24023C12.25 5.44531 10.7949 3.99023 9 3.99023ZM4.25 7.24023C4.25 4.61688 6.37665 2.49023 9 2.49023C11.6234 2.49023 13.75 4.61688 13.75 7.24023C13.75 9.86359 11.6234 11.9902 9 11.9902C6.37665 11.9902 4.25 9.86359 4.25 7.24023ZM6 15.9902C4.20507 15.9902 2.75 17.4453 2.75 19.2402C2.75 19.9306 3.30964 20.4902 4 20.4902H14C14.6904 20.4902 15.25 19.9306 15.25 19.2402C15.25 17.4453 13.7949 15.9902 12 15.9902H6ZM1.25 19.2402C1.25 16.6169 3.37665 14.4902 6 14.4902H12C14.6234 14.4902 16.75 16.6169 16.75 19.2402C16.75 20.759 15.5188 21.9902 14 21.9902H4C2.48122 21.9902 1.25 20.759 1.25 19.2402ZM18.5303 6.7099C18.2374 6.41701 17.7626 6.41701 17.4697 6.7099C17.1768 7.0028 17.1768 7.47767 17.4697 7.77056L19.4393 9.74023L17.4697 11.7099C17.1768 12.0028 17.1768 12.4777 17.4697 12.7706C17.7626 13.0635 18.2374 13.0635 18.5303 12.7706L20.5 10.8009L22.4697 12.7706C22.7626 13.0635 23.2374 13.0635 23.5303 12.7706C23.8232 12.4777 23.8232 12.0028 23.5303 11.7099L21.5607 9.74023L23.5303 7.77056C23.8232 7.47767 23.8232 7.0028 23.5303 6.7099C23.2374 6.41701 22.7626 6.41701 22.4697 6.7099L20.5 8.67957L18.5303 6.7099Z" fill="white"/>
</svg>
