<svg width="24" height="25" viewBox="0 0 24 25" fill="none" xmlns="http://www.w3.org/2000/svg">
<path fill-rule="evenodd" clip-rule="evenodd" d="M4.75 7.24023C4.75 5.44531 6.20507 3.99023 8 3.99023C9.79493 3.99023 11.25 5.44531 11.25 7.24023C11.25 9.03516 9.79493 10.4902 8 10.4902C6.20507 10.4902 4.75 9.03516 4.75 7.24023ZM8 2.49023C5.37665 2.49023 3.25 4.61688 3.25 7.24023C3.25 9.86359 5.37665 11.9902 8 11.9902C10.6234 11.9902 12.75 9.86359 12.75 7.24023C12.75 4.61688 10.6234 2.49023 8 2.49023ZM14 2.49023C13.5858 2.49023 13.25 2.82602 13.25 3.24023C13.25 3.65445 13.5858 3.99023 14 3.99023C15.7949 3.99023 17.25 5.44531 17.25 7.24023C17.25 9.03516 15.7949 10.4902 14 10.4902C13.5858 10.4902 13.25 10.826 13.25 11.2402C13.25 11.6544 13.5858 11.9902 14 11.9902C16.6234 11.9902 18.75 9.86359 18.75 7.24023C18.75 4.61688 16.6234 2.49023 14 2.49023ZM6 15.9902C4.20507 15.9902 2.75 17.4453 2.75 19.2402C2.75 19.9306 3.30964 20.4902 4 20.4902H12C12.6904 20.4902 13.25 19.9306 13.25 19.2402C13.25 17.4453 11.7949 15.9902 10 15.9902H6ZM1.25 19.2402C1.25 16.6169 3.37665 14.4902 6 14.4902H10C12.6234 14.4902 14.75 16.6169 14.75 19.2402C14.75 20.759 13.5188 21.9902 12 21.9902H4C2.48122 21.9902 1.25 20.759 1.25 19.2402ZM16 14.4902C15.5858 14.4902 15.25 14.826 15.25 15.2402C15.25 15.6544 15.5858 15.9902 16 15.9902H18C19.7949 15.9902 21.25 17.4453 21.25 19.2402C21.25 19.9306 20.6904 20.4902 20 20.4902H16C15.5858 20.4902 15.25 20.826 15.25 21.2402C15.25 21.6544 15.5858 21.9902 16 21.9902H20C21.5188 21.9902 22.75 20.759 22.75 19.2402C22.75 16.6169 20.6234 14.4902 18 14.4902H16Z" fill="white"/>
</svg>
