<svg width="24" height="25" viewBox="0 0 24 25" fill="none" xmlns="http://www.w3.org/2000/svg">
<path fill-rule="evenodd" clip-rule="evenodd" d="M1.25 2.24023C1.25 1.82602 1.58579 1.49023 2 1.49023H22C22.4142 1.49023 22.75 1.82602 22.75 2.24023V22.2402C22.75 22.6544 22.4142 22.9902 22 22.9902H2C1.58579 22.9902 1.25 22.6544 1.25 22.2402V2.24023ZM2.75 2.99023V21.4902H21.25V2.99023H2.75ZM10.6667 13.9902C9.60812 13.9902 8.75 14.8484 8.75 15.9069C8.75 16.2291 9.01117 16.4902 9.33333 16.4902H14.6667C14.9888 16.4902 15.25 16.2291 15.25 15.9069C15.25 14.8484 14.3919 13.9902 13.3333 13.9902H10.6667ZM7.25 15.9069C7.25 14.0199 8.77969 12.4902 10.6667 12.4902H13.3333C15.2203 12.4902 16.75 14.0199 16.75 15.9069C16.75 17.0575 15.8173 17.9902 14.6667 17.9902H9.33333C8.18274 17.9902 7.25 17.0575 7.25 15.9069ZM10.75 8.24023C10.75 7.54988 11.3096 6.99023 12 6.99023C12.6904 6.99023 13.25 7.54988 13.25 8.24023C13.25 8.93059 12.6904 9.49023 12 9.49023C11.3096 9.49023 10.75 8.93059 10.75 8.24023ZM12 5.49023C10.4812 5.49023 9.25 6.72145 9.25 8.24023C9.25 9.75902 10.4812 10.9902 12 10.9902C13.5188 10.9902 14.75 9.75902 14.75 8.24023C14.75 6.72145 13.5188 5.49023 12 5.49023Z" fill="white"/>
</svg>
