<svg width="24" height="25" viewBox="0 0 24 25" fill="none" xmlns="http://www.w3.org/2000/svg">
<path fill-rule="evenodd" clip-rule="evenodd" d="M9 3.99023C7.20507 3.99023 5.75 5.44531 5.75 7.24023C5.75 9.03516 7.20507 10.4902 9 10.4902C10.7949 10.4902 12.25 9.03516 12.25 7.24023C12.25 5.44531 10.7949 3.99023 9 3.99023ZM4.25 7.24023C4.25 4.61688 6.37665 2.49023 9 2.49023C11.6234 2.49023 13.75 4.61688 13.75 7.24023C13.75 9.86359 11.6234 11.9902 9 11.9902C6.37665 11.9902 4.25 9.86359 4.25 7.24023ZM6 15.9902C4.20507 15.9902 2.75 17.4453 2.75 19.2402C2.75 19.9306 3.30964 20.4902 4 20.4902H14C14.6904 20.4902 15.25 19.9306 15.25 19.2402C15.25 17.4453 13.7949 15.9902 12 15.9902H6ZM1.25 19.2402C1.25 16.6169 3.37665 14.4902 6 14.4902H12C14.6234 14.4902 16.75 16.6169 16.75 19.2402C16.75 20.759 15.5188 21.9902 14 21.9902H4C2.48122 21.9902 1.25 20.759 1.25 19.2402ZM18.8107 11.4902L22.5303 7.77056C22.8232 7.47767 22.8232 7.0028 22.5303 6.7099C22.2374 6.41701 21.7626 6.41701 21.4697 6.7099L17.75 10.4296V8.24023C17.75 7.82602 17.4142 7.49023 17 7.49023C16.5858 7.49023 16.25 7.82602 16.25 8.24023V12.2402C16.25 12.6544 16.5858 12.9902 17 12.9902H21C21.4142 12.9902 21.75 12.6544 21.75 12.2402C21.75 11.826 21.4142 11.4902 21 11.4902H18.8107Z" fill="white"/>
</svg>
