<svg width="24" height="25" viewBox="0 0 24 25" fill="none" xmlns="http://www.w3.org/2000/svg">
<path fill-rule="evenodd" clip-rule="evenodd" d="M8.25 5.06C8.25 4.64578 8.58579 4.31 9 4.31H15C15.4142 4.31 15.75 4.64578 15.75 5.06V9.06C15.75 9.47421 15.4142 9.81 15 9.81H12.75V11.31H18C18.4142 11.31 18.75 11.6458 18.75 12.06V14.31H20C20.4142 14.31 20.75 14.6458 20.75 15.06V19.06C20.75 19.4742 20.4142 19.81 20 19.81H16C15.5858 19.81 15.25 19.4742 15.25 19.06V15.06C15.25 14.6458 15.5858 14.31 16 14.31H17.25V12.81H12.75V14.31H14C14.4142 14.31 14.75 14.6458 14.75 15.06V19.06C14.75 19.4742 14.4142 19.81 14 19.81H10C9.58579 19.81 9.25 19.4742 9.25 19.06V15.06C9.25 14.6458 9.58579 14.31 10 14.31H11.25V12.81H6.75V14.31H8C8.41421 14.31 8.75 14.6458 8.75 15.06V19.06C8.75 19.4742 8.41421 19.81 8 19.81H4C3.58579 19.81 3.25 19.4742 3.25 19.06V15.06C3.25 14.6458 3.58579 14.31 4 14.31H5.25V12.06C5.25 11.6458 5.58579 11.31 6 11.31H11.25V9.81H9C8.58579 9.81 8.25 9.47421 8.25 9.06V5.06ZM18 15.81H16.75V18.31H19.25V15.81H18ZM10.75 15.81H12H13.25V18.31H10.75V15.81ZM6 15.81H4.75V18.31H7.25V15.81H6ZM14.25 8.31H12H9.75V5.81H14.25V8.31Z" fill="white"/>
</svg>
