<svg width="24" height="25" viewBox="0 0 24 25" fill="none" xmlns="http://www.w3.org/2000/svg">
<path fill-rule="evenodd" clip-rule="evenodd" d="M18 3.87012C16.7574 3.87012 15.75 4.87748 15.75 6.12012C15.75 7.36276 16.7574 8.37012 18 8.37012C19.2426 8.37012 20.25 7.36276 20.25 6.12012C20.25 4.87748 19.2426 3.87012 18 3.87012ZM6.77626 14.4506C7.09523 10.4035 10.2834 7.21535 14.3304 6.89638C14.688 8.59496 16.1951 9.87012 18 9.87012C20.0711 9.87012 21.75 8.19118 21.75 6.12012C21.75 4.04905 20.0711 2.37012 18 2.37012C16.1777 2.37012 14.659 3.66996 14.3204 5.39305C9.45193 5.72285 5.60272 9.57205 5.27292 14.4406C3.54983 14.7791 2.25 16.2978 2.25 18.1201C2.25 20.1912 3.92893 21.8701 6 21.8701C8.07107 21.8701 9.75 20.1912 9.75 18.1201C9.75 16.3152 8.47484 14.8081 6.77626 14.4506ZM3.75 18.1201C3.75 16.8775 4.75736 15.8701 6 15.8701C7.24264 15.8701 8.25 16.8775 8.25 18.1201C8.25 19.3628 7.24264 20.3701 6 20.3701C4.75736 20.3701 3.75 19.3628 3.75 18.1201Z" fill="white"/>
</svg>
