<svg width="24" height="25" viewBox="0 0 24 25" fill="none" xmlns="http://www.w3.org/2000/svg">
<path fill-rule="evenodd" clip-rule="evenodd" d="M20.75 1.65002C20.75 1.23581 20.4142 0.900024 20 0.900024C19.5858 0.900024 19.25 1.23581 19.25 1.65002V3.90002H17C16.5858 3.90002 16.25 4.23581 16.25 4.65002C16.25 5.06424 16.5858 5.40002 17 5.40002H19.25V7.65002C19.25 8.06424 19.5858 8.40002 20 8.40002C20.4142 8.40002 20.75 8.06424 20.75 7.65002V5.40002H23C23.4142 5.40002 23.75 5.06424 23.75 4.65002C23.75 4.23581 23.4142 3.90002 23 3.90002H20.75V1.65002ZM1.25 4.65002C1.25 4.23581 1.58579 3.90002 2 3.90002H13.5C13.9142 3.90002 14.25 4.23581 14.25 4.65002C14.25 5.06424 13.9142 5.40002 13.5 5.40002H2.75V21.9H19.25V11.15C19.25 10.7358 19.5858 10.4 20 10.4C20.4142 10.4 20.75 10.7358 20.75 11.15V22.65C20.75 23.0642 20.4142 23.4 20 23.4H2C1.58579 23.4 1.25 23.0642 1.25 22.65V4.65002ZM8.64611 8.98877C8.88998 8.85825 9.18588 8.87256 9.41603 9.02599L15.416 13.026C15.6247 13.1651 15.75 13.3993 15.75 13.65C15.75 13.9008 15.6247 14.135 15.416 14.2741L9.41603 18.2741C9.18588 18.4275 8.88998 18.4418 8.64611 18.3113C8.40224 18.1808 8.25 17.9266 8.25 17.65V9.65002C8.25 9.37343 8.40224 9.11928 8.64611 8.98877ZM9.75 16.2486L13.6479 13.65L9.75 11.0514V16.2486Z" fill="white"/>
</svg>
