<svg width="24" height="25" viewBox="0 0 24 25" fill="none" xmlns="http://www.w3.org/2000/svg">
<path fill-rule="evenodd" clip-rule="evenodd" d="M2.75 2.65002C2.33579 2.65002 2 2.98581 2 3.40003V21.4C2 21.8142 2.33579 22.15 2.75 22.15H20.75C21.1642 22.15 21.5 21.8142 21.5 21.4V3.40003C21.5 2.98581 21.1642 2.65002 20.75 2.65002H2.75ZM3.5 20.65V4.15003H20V20.65H3.5ZM10.166 7.77599C9.93588 7.62256 9.63998 7.60826 9.39611 7.73877C9.15224 7.86928 9 8.12343 9 8.40003V16.4C9 16.6766 9.15224 16.9308 9.39611 17.0613C9.63998 17.1918 9.93588 17.1775 10.166 17.0241L16.166 13.0241C16.3747 12.885 16.5 12.6508 16.5 12.4C16.5 12.1493 16.3747 11.9151 16.166 11.776L10.166 7.77599ZM14.3979 12.4L10.5 14.9986V9.80141L14.3979 12.4Z" fill="white"/>
</svg>
