<svg width="24" height="25" viewBox="0 0 24 25" fill="none" xmlns="http://www.w3.org/2000/svg">
<path fill-rule="evenodd" clip-rule="evenodd" d="M2.53033 2.11969C2.23744 1.8268 1.76256 1.8268 1.46967 2.11969C1.17678 2.41259 1.17678 2.88746 1.46967 3.18035L2.18934 3.90002L2 3.90002C1.58579 3.90002 1.25 4.23581 1.25 4.65002L1.25 20.65C1.25 21.0642 1.58579 21.4 2 21.4L18 21.4C18.4142 21.4 18.75 21.0642 18.75 20.65L18.75 20.4607L21.4697 23.1804C21.7626 23.4732 22.2374 23.4732 22.5303 23.1804C22.8232 22.8875 22.8232 22.4126 22.5303 22.1197L18.5303 18.1197L4.53033 4.11969L2.53033 2.11969ZM2.75 5.40002L3.68934 5.40002L17.25 18.9607L17.25 19.9L2.75 19.9L2.75 5.40002ZM8.25 4.65002C8.25 5.06424 8.58579 5.40002 9 5.40002L17.25 5.40002L17.25 9.64231C17.2499 9.64783 17.2499 9.65336 17.25 9.65889L17.25 13.65C17.25 14.0642 17.5858 14.4 18 14.4C18.4142 14.4 18.75 14.0642 18.75 13.65L18.75 10.025L21.25 8.14996L21.25 17.65C21.25 18.0642 21.5858 18.4 22 18.4C22.4142 18.4 22.75 18.0642 22.75 17.65L22.75 6.64993C22.75 6.36585 22.5895 6.10615 22.3354 5.97911C22.0813 5.85206 21.7773 5.87949 21.55 6.04994L18.75 8.14999L18.75 4.65002C18.75 4.23581 18.4142 3.90002 18 3.90002L9 3.90002C8.58579 3.90002 8.25 4.23581 8.25 4.65002Z" fill="white"/>
</svg>
