<svg width="24" height="25" viewBox="0 0 24 25" fill="none" xmlns="http://www.w3.org/2000/svg">
<path fill-rule="evenodd" clip-rule="evenodd" d="M7.25 2.65002C7.25 2.23581 7.58579 1.90002 8 1.90002H16C16.4142 1.90002 16.75 2.23581 16.75 2.65002C16.75 3.06424 16.4142 3.40002 16 3.40002H8C7.58579 3.40002 7.25 3.06424 7.25 2.65002ZM6 4.90002C5.58579 4.90002 5.25 5.23581 5.25 5.65002C5.25 6.06424 5.58579 6.40002 6 6.40002H18C18.4142 6.40002 18.75 6.06424 18.75 5.65002C18.75 5.23581 18.4142 4.90002 18 4.90002H6ZM2 7.90002C1.58579 7.90002 1.25 8.23581 1.25 8.65002V22.65C1.25 23.0642 1.58579 23.4 2 23.4H22C22.4142 23.4 22.75 23.0642 22.75 22.65V8.65002C22.75 8.23581 22.4142 7.90002 22 7.90002H2ZM2.75 21.9V9.40002H21.25V21.9H2.75ZM10.416 11.026C10.1859 10.8726 9.88997 10.8583 9.64611 10.9888C9.40224 11.1193 9.25 11.3734 9.25 11.65V19.65C9.25 19.9266 9.40224 20.1808 9.64611 20.3113C9.88997 20.4418 10.1859 20.4275 10.416 20.2741L16.416 16.2741C16.6247 16.135 16.75 15.9008 16.75 15.65C16.75 15.3993 16.6247 15.1651 16.416 15.026L10.416 11.026ZM14.6479 15.65L10.75 18.2486V13.0514L14.6479 15.65Z" fill="white"/>
</svg>
