<svg width="24" height="25" viewBox="0 0 24 25" fill="none" xmlns="http://www.w3.org/2000/svg">
<path fill-rule="evenodd" clip-rule="evenodd" d="M2 2.90002C1.58579 2.90002 1.25 3.23581 1.25 3.65002V21.65C1.25 22.0642 1.58579 22.4 2 22.4H22C22.4142 22.4 22.75 22.0642 22.75 21.65V3.65002C22.75 3.23581 22.4142 2.90002 22 2.90002H2ZM2.75 20.9V4.40002H21.25V20.9H2.75ZM10 10.9C9.58579 10.9 9.25 11.2358 9.25 11.65V17.65C9.25 18.0642 9.58579 18.4 10 18.4H18C18.4142 18.4 18.75 18.0642 18.75 17.65V11.65C18.75 11.2358 18.4142 10.9 18 10.9H10ZM10.75 16.9V12.4H17.25V16.9H10.75Z" fill="white"/>
</svg>
