<svg width="24" height="25" viewBox="0 0 24 25" fill="none" xmlns="http://www.w3.org/2000/svg">
<path fill-rule="evenodd" clip-rule="evenodd" d="M4.25 2.65002C4.25 2.23581 4.58579 1.90002 5 1.90002H19C19.4142 1.90002 19.75 2.23581 19.75 2.65002V4.90002H22C22.4142 4.90002 22.75 5.23581 22.75 5.65002V19.65C22.75 20.0642 22.4142 20.4 22 20.4H19.75V22.65C19.75 23.0642 19.4142 23.4 19 23.4H5C4.58579 23.4 4.25 23.0642 4.25 22.65L4.25 20.4H2C1.58579 20.4 1.25 20.0642 1.25 19.65V5.65002C1.25 5.23581 1.58579 4.90002 2 4.90002H4.25L4.25 2.65002ZM18.25 3.40003V4.90002H5.75L5.75 3.40002L18.25 3.40003ZM2.75 6.40002L5 6.40002L19 6.40002H21.25V18.9H19H5H2.75V6.40002ZM5.75 20.4H18.25V21.9H5.75V20.4ZM10.416 8.02599C10.1859 7.87256 9.88997 7.85825 9.64611 7.98877C9.40224 8.11928 9.25 8.37343 9.25 8.65002V16.65C9.25 16.9266 9.40224 17.1808 9.64611 17.3113C9.88997 17.4418 10.1859 17.4275 10.416 17.2741L16.416 13.2741C16.6247 13.135 16.75 12.9008 16.75 12.65C16.75 12.3993 16.6247 12.1651 16.416 12.026L10.416 8.02599ZM10.75 15.2486V10.0514L14.6479 12.65L10.75 15.2486Z" fill="white"/>
</svg>
