<svg width="24" height="25" viewBox="0 0 24 25" fill="none" xmlns="http://www.w3.org/2000/svg">
<path fill-rule="evenodd" clip-rule="evenodd" d="M2 3.90003C1.58579 3.90003 1.25 4.23581 1.25 4.65003L1.25 20.65C1.25 21.0642 1.58579 21.4 2 21.4L18 21.4C18.4142 21.4 18.75 21.0642 18.75 20.65L18.75 17.15L21.55 19.25C21.7773 19.4205 22.0813 19.4479 22.3354 19.3209C22.5895 19.1938 22.75 18.9341 22.75 18.65L22.75 6.64994C22.75 6.36586 22.5895 6.10616 22.3354 5.97912C22.0813 5.85208 21.7773 5.8795 21.55 6.04995L18.75 8.15001L18.75 4.65003C18.75 4.23581 18.4142 3.90003 18 3.90003L2 3.90003ZM18.75 10.025L18.75 10.0304L18.75 10.0458L18.75 10.0613L18.75 10.0767L18.75 10.0922L18.75 10.1077L18.75 10.1232L18.75 10.1387L18.75 10.1543L18.75 10.1698L18.75 10.1854L18.75 10.201L18.75 10.2166L18.75 10.2322L18.75 10.2478L18.75 10.2634L18.75 10.2791L18.75 10.2947L18.75 10.3104L18.75 10.3261L18.75 10.3418L18.75 10.3575L18.75 10.3732L18.75 10.3889L18.75 10.4047L18.75 10.4204L18.75 10.4362L18.75 10.4519L18.75 10.4677L18.75 10.4835L18.75 10.4993L18.75 10.5151L18.75 10.5309L18.75 10.5468L18.75 10.5626L18.75 10.5784L18.75 10.5943L18.75 10.6102L18.75 10.626L18.75 10.6419L18.75 10.6578L18.75 10.6737L18.75 10.6896L18.75 10.7055L18.75 10.7214L18.75 10.7373L18.75 10.7533L18.75 10.7692L18.75 10.7851L18.75 10.8011L18.75 10.8171L18.75 10.833L18.75 10.849L18.75 10.865L18.75 10.8809L18.75 10.8969L18.75 10.9129L18.75 10.9289L18.75 10.9449L18.75 10.9609L18.75 10.9769L18.75 10.9929L18.75 11.0089L18.75 11.0249L18.75 11.0409L18.75 11.057L18.75 11.073L18.75 11.089L18.75 11.105L18.75 11.1211L18.75 11.1371L18.75 11.1531L18.75 11.1692L18.75 11.1852L18.75 11.2013L18.75 11.2173L18.75 11.2333L18.75 11.2494L18.75 11.2654L18.75 11.2815L18.75 11.2975L18.75 11.3136L18.75 11.3296L18.75 11.3457L18.75 11.3617L18.75 11.3777L18.75 11.3938L18.75 11.4098L18.75 11.4259L18.75 11.4419L18.75 11.4579L18.75 11.474L18.75 11.49L18.75 11.506L18.75 11.5221L18.75 11.5381L18.75 11.5541L18.75 11.5701L18.75 11.5861L18.75 11.6021L18.75 11.6181L18.75 11.6342L18.75 11.6502L18.75 11.6661L18.75 11.6821L18.75 11.6981L18.75 11.7141L18.75 11.7301L18.75 11.746L18.75 11.762L18.75 11.778L18.75 11.7939L18.75 11.8099L18.75 11.8258L18.75 11.8417L18.75 11.8577L18.75 11.8736L18.75 11.8895L18.75 11.9054L18.75 11.9213L18.75 11.9372L18.75 11.9531L18.75 11.969L18.75 11.9848L18.75 12.0007L18.75 12.0166L18.75 12.0324L18.75 12.0482L18.75 12.0641L18.75 12.0799L18.75 12.0957L18.75 12.1115L18.75 12.1273L18.75 12.143L18.75 12.1588L18.75 12.1746L18.75 12.1903L18.75 12.206L18.75 12.2218L18.75 12.2375L18.75 12.2532L18.75 12.2689L18.75 12.2845L18.75 12.3002L18.75 12.3158L18.75 12.3315L18.75 12.3471L18.75 12.3627L18.75 12.3783L18.75 12.3939L18.75 12.4095L18.75 12.4251L18.75 12.4406L18.75 12.4561L18.75 12.4717L18.75 12.4872L18.75 12.5026L18.75 12.5181L18.75 12.5336L18.75 12.549L18.75 12.5645L18.75 12.5799L18.75 12.5953L18.75 12.6107L18.75 12.626L18.75 12.6414L18.75 12.6567L18.75 12.672L18.75 12.6873L18.75 12.7026L18.75 12.7179L18.75 12.7331L18.75 12.7484L18.75 12.7636L18.75 12.7788L18.75 12.7939L18.75 12.8091L18.75 12.8242L18.75 12.8394L18.75 12.8545L18.75 12.8695L18.75 12.8846L18.75 12.8997L18.75 12.9147L18.75 12.9297L18.75 12.9447L18.75 12.9596L18.75 12.9746L18.75 12.9895L18.75 13.0044L18.75 13.0193L18.75 13.0341L18.75 13.049L18.75 13.0638L18.75 13.0786L18.75 13.0934L18.75 13.1081L18.75 13.1228L18.75 13.1375L18.75 13.1522L18.75 13.1669L18.75 13.1815L18.75 13.1961L18.75 13.2107L18.75 13.2253L18.75 13.2398L18.75 13.2543L18.75 13.2688L18.75 13.2833L18.75 13.2977L18.75 13.3122L18.75 13.3265L18.75 13.3409L18.75 13.3553L18.75 13.3696L18.75 13.3839L18.75 13.3981L18.75 13.4124L18.75 13.4266L18.75 13.4408L18.75 13.4549L18.75 13.469L18.75 13.4831L18.75 13.4972L18.75 13.5113L18.75 13.5253L18.75 13.5393L18.75 13.5532L18.75 13.5672L18.75 13.5811L18.75 13.595L18.75 13.6088L18.75 13.6226L18.75 13.6364L18.75 13.6502L18.75 13.6639L18.75 13.6776L18.75 13.6913L18.75 13.7049L18.75 13.7185L18.75 13.7321L18.75 13.7456L18.75 13.7591L18.75 13.7726L18.75 13.7861L18.75 13.7995L18.75 13.8129L18.75 13.8263L18.75 13.8396L18.75 13.8529L18.75 13.8661L18.75 13.8793L18.75 13.8925L18.75 13.9057L18.75 13.9188L18.75 13.9319L18.75 13.945L18.75 13.958L18.75 13.971L18.75 13.9839L18.75 13.9969L18.75 14.0098L18.75 14.0226L18.75 14.0354L18.75 14.0482L18.75 14.0609L18.75 14.0736L18.75 14.0863L18.75 14.099L18.75 14.1116L18.75 14.1241L18.75 14.1366L18.75 14.1491L18.75 14.1616L18.75 14.174L18.75 14.1864L18.75 14.1987L18.75 14.211L18.75 14.2233L18.75 14.2355L18.75 14.2477L18.75 14.2598L18.75 14.2719L18.75 14.284L18.75 14.296L18.75 14.308L18.75 14.32L18.75 14.3319L18.75 14.3438L18.75 14.3556L18.75 14.3674L18.75 14.3791L18.75 14.3909L18.75 14.4025L18.75 14.4141L18.75 14.4257L18.75 14.4373L18.75 14.4488L18.75 14.4602L18.75 14.4716L18.75 14.483L18.75 14.4944L18.75 14.5056L18.75 14.5169L18.75 14.5281L18.75 14.5393L18.75 14.5504L18.75 14.5614L18.75 14.5725L18.75 14.5835L18.75 14.5944L18.75 14.6053L18.75 14.6161L18.75 14.6269L18.75 14.6377L18.75 14.6484L18.75 14.6591L18.75 14.6697L18.75 14.6803L18.75 14.6908L18.75 14.7013L18.75 14.7117L18.75 14.7221L18.75 14.7325L18.75 14.7428L18.75 14.753L18.75 14.7632L18.75 14.7734L18.75 14.7835L18.75 14.7936L18.75 14.8036L18.75 14.8135L18.75 14.8235L18.75 14.8333L18.75 14.8431L18.75 14.8529L18.75 14.8626L18.75 14.8723L18.75 14.8819L18.75 14.8915L18.75 14.901L18.75 14.9105L18.75 14.9199L18.75 14.9293L18.75 14.9386L18.75 14.9478L18.75 14.957L18.75 14.9662L18.75 14.9753L18.75 14.9844L18.75 14.9934L18.75 15.0023L18.75 15.0112L18.75 15.0201L18.75 15.0289L18.75 15.0376L18.75 15.0463L18.75 15.055L18.75 15.0635L18.75 15.0721L18.75 15.0805L18.75 15.089L18.75 15.0973L18.75 15.1056L18.75 15.1139L18.75 15.1221L18.75 15.1303L18.75 15.1383L18.75 15.1464L18.75 15.1544L18.75 15.1623L18.75 15.1701L18.75 15.178L18.75 15.1857L18.75 15.1934L18.75 15.2011L18.75 15.2086L18.75 15.2162L18.75 15.2236L18.75 15.231L18.75 15.2384L18.75 15.2457L18.75 15.2529L18.75 15.2601L18.75 15.2672L18.75 15.2743L18.75 15.275L21.25 17.15L21.25 8.14997L18.75 10.025ZM17.25 9.64912L17.25 5.40003L2.75 5.40003L2.75 19.9L17.25 19.9L17.25 15.65L17.25 15.65L17.25 15.6499L17.25 15.6497L17.25 15.6494L17.25 15.6491L17.25 15.6486L17.25 15.6481L17.25 15.6475L17.25 15.6469L17.25 15.6461L17.25 15.6453L17.25 15.6444L17.25 15.6434L17.25 15.6424L17.25 15.6413L17.25 15.6401L17.25 15.6388L17.25 15.6375L17.25 15.636L17.25 15.6345L17.25 15.633L17.25 15.6313L17.25 15.6296L17.25 15.6278L17.25 15.6259L17.25 15.624L17.25 15.6219L17.25 15.6198L17.25 15.6177L17.25 15.6154L17.25 15.6131L17.25 15.6107L17.25 15.6083L17.25 15.6057L17.25 15.6031L17.25 15.6005L17.25 15.5977L17.25 15.5949L17.25 15.592L17.25 15.589L17.25 15.586L17.25 15.5829L17.25 15.5797L17.25 15.5765L17.25 15.5732L17.25 15.5698L17.25 15.5663L17.25 15.5628L17.25 15.5592L17.25 15.5556L17.25 15.5518L17.25 15.548L17.25 15.5441L17.25 15.5402L17.25 15.5362L17.25 15.5321L17.25 15.528L17.25 15.5238L17.25 15.5195L17.25 15.5151L17.25 15.5107L17.25 15.5062L17.25 15.5017L17.25 15.4971L17.25 15.4924L17.25 15.4877L17.25 15.4828L17.25 15.478L17.25 15.473L17.25 15.468L17.25 15.4629L17.25 15.4578L17.25 15.4526L17.25 15.4473L17.25 15.442L17.25 15.4366L17.25 15.4311L17.25 15.4256L17.25 15.42L17.25 15.4144L17.25 15.4086L17.25 15.4029L17.25 15.397L17.25 15.3911L17.25 15.3851L17.25 15.3791L17.25 15.373L17.25 15.3669L17.25 15.3606L17.25 15.3544L17.25 15.348L17.25 15.3416L17.25 15.3352L17.25 15.3286L17.25 15.3221L17.25 15.3154L17.25 15.3087L17.25 15.3019L17.25 15.2951L17.25 15.2882L17.25 15.2813L17.25 15.2743L17.25 15.2672L17.25 15.2601L17.25 15.2529L17.25 15.2457L17.25 15.2384L17.25 15.231L17.25 15.2236L17.25 15.2162L17.25 15.2086L17.25 15.2011L17.25 15.1934L17.25 15.1857L17.25 15.178L17.25 15.1701L17.25 15.1623L17.25 15.1544L17.25 15.1464L17.25 15.1383L17.25 15.1303L17.25 15.1221L17.25 15.1139L17.25 15.1056L17.25 15.0973L17.25 15.089L17.25 15.0805L17.25 15.0721L17.25 15.0635L17.25 15.055L17.25 15.0463L17.25 15.0376L17.25 15.0289L17.25 15.0201L17.25 15.0112L17.25 15.0023L17.25 14.9934L17.25 14.9844L17.25 14.9753L17.25 14.9662L17.25 14.957L17.25 14.9478L17.25 14.9386L17.25 14.9293L17.25 14.9199L17.25 14.9105L17.25 14.901L17.25 14.8915L17.25 14.8819L17.25 14.8723L17.25 14.8626L17.25 14.8529L17.25 14.8431L17.25 14.8333L17.25 14.8235L17.25 14.8135L17.25 14.8036L17.25 14.7936L17.25 14.7835L17.25 14.7734L17.25 14.7632L17.25 14.753L17.25 14.7428L17.25 14.7325L17.25 14.7221L17.25 14.7117L17.25 14.7013L17.25 14.6908L17.25 14.6803L17.25 14.6697L17.25 14.6591L17.25 14.6484L17.25 14.6377L17.25 14.6269L17.25 14.6161L17.25 14.6053L17.25 14.5944L17.25 14.5835L17.25 14.5725L17.25 14.5614L17.25 14.5504L17.25 14.5393L17.25 14.5281L17.25 14.5169L17.25 14.5056L17.25 14.4944L17.25 14.483L17.25 14.4716L17.25 14.4602L17.25 14.4488L17.25 14.4373L17.25 14.4257L17.25 14.4141L17.25 14.4025L17.25 14.3909L17.25 14.3791L17.25 14.3674L17.25 14.3556L17.25 14.3438L17.25 14.3319L17.25 14.32L17.25 14.308L17.25 14.296L17.25 14.284L17.25 14.2719L17.25 14.2598L17.25 14.2477L17.25 14.2355L17.25 14.2233L17.25 14.211L17.25 14.1987L17.25 14.1864L17.25 14.174L17.25 14.1616L17.25 14.1491L17.25 14.1366L17.25 14.1241L17.25 14.1116L17.25 14.099L17.25 14.0863L17.25 14.0736L17.25 14.0609L17.25 14.0482L17.25 14.0354L17.25 14.0226L17.25 14.0098L17.25 13.9969L17.25 13.9839L17.25 13.971L17.25 13.958L17.25 13.945L17.25 13.9319L17.25 13.9188L17.25 13.9057L17.25 13.8925L17.25 13.8793L17.25 13.8661L17.25 13.8529L17.25 13.8396L17.25 13.8263L17.25 13.8129L17.25 13.7995L17.25 13.7861L17.25 13.7726L17.25 13.7591L17.25 13.7456L17.25 13.7321L17.25 13.7185L17.25 13.7049L17.25 13.6913L17.25 13.6776L17.25 13.6639L17.25 13.6502L17.25 13.6364L17.25 13.6226L17.25 13.6088L17.25 13.595L17.25 13.5811L17.25 13.5672L17.25 13.5532L17.25 13.5393L17.25 13.5253L17.25 13.5113L17.25 13.4972L17.25 13.4831L17.25 13.469L17.25 13.4549L17.25 13.4408L17.25 13.4266L17.25 13.4124L17.25 13.3981L17.25 13.3839L17.25 13.3696L17.25 13.3553L17.25 13.3409L17.25 13.3265L17.25 13.3122L17.25 13.2977L17.25 13.2833L17.25 13.2688L17.25 13.2543L17.25 13.2398L17.25 13.2253L17.25 13.2107L17.25 13.1961L17.25 13.1815L17.25 13.1669L17.25 13.1522L17.25 13.1375L17.25 13.1228L17.25 13.1081L17.25 13.0934L17.25 13.0786L17.25 13.0638L17.25 13.049L17.25 13.0341L17.25 13.0193L17.25 13.0044L17.25 12.9895L17.25 12.9746L17.25 12.9596L17.25 12.9447L17.25 12.9297L17.25 12.9147L17.25 12.8997L17.25 12.8846L17.25 12.8695L17.25 12.8545L17.25 12.8394L17.25 12.8242L17.25 12.8091L17.25 12.7939L17.25 12.7788L17.25 12.7636L17.25 12.7484L17.25 12.7331L17.25 12.7179L17.25 12.7026L17.25 12.6873L17.25 12.672L17.25 12.6567L17.25 12.6414L17.25 12.626L17.25 12.6107L17.25 12.5953L17.25 12.5799L17.25 12.5645L17.25 12.549L17.25 12.5336L17.25 12.5181L17.25 12.5026L17.25 12.4872L17.25 12.4717L17.25 12.4561L17.25 12.4406L17.25 12.4251L17.25 12.4095L17.25 12.3939L17.25 12.3783L17.25 12.3627L17.25 12.3471L17.25 12.3315L17.25 12.3158L17.25 12.3002L17.25 12.2845L17.25 12.2689L17.25 12.2532L17.25 12.2375L17.25 12.2218L17.25 12.206L17.25 12.1903L17.25 12.1746L17.25 12.1588L17.25 12.143L17.25 12.1273L17.25 12.1115L17.25 12.0957L17.25 12.0799L17.25 12.0641L17.25 12.0482L17.25 12.0324L17.25 12.0166L17.25 12.0007L17.25 11.9848L17.25 11.969L17.25 11.9531L17.25 11.9372L17.25 11.9213L17.25 11.9054L17.25 11.8895L17.25 11.8736L17.25 11.8577L17.25 11.8417L17.25 11.8258L17.25 11.8099L17.25 11.7939L17.25 11.778L17.25 11.762L17.25 11.746L17.25 11.7301L17.25 11.7141L17.25 11.6981L17.25 11.6821L17.25 11.6661L17.25 11.6502L17.25 11.6342L17.25 11.6181L17.25 11.6021L17.25 11.5861L17.25 11.5701L17.25 11.5541L17.25 11.5381L17.25 11.5221L17.25 11.506L17.25 11.49L17.25 11.474L17.25 11.4579L17.25 11.4419L17.25 11.4259L17.25 11.4098L17.25 11.3938L17.25 11.3777L17.25 11.3617L17.25 11.3457L17.25 11.3296L17.25 11.3136L17.25 11.2975L17.25 11.2815L17.25 11.2654L17.25 11.2494L17.25 11.2333L17.25 11.2173L17.25 11.2013L17.25 11.1852L17.25 11.1692L17.25 11.1531L17.25 11.1371L17.25 11.1211L17.25 11.105L17.25 11.089L17.25 11.073L17.25 11.057L17.25 11.0409L17.25 11.0249L17.25 11.0089L17.25 10.9929L17.25 10.9769L17.25 10.9609L17.25 10.9449L17.25 10.9289L17.25 10.9129L17.25 10.8969L17.25 10.8809L17.25 10.865L17.25 10.849L17.25 10.833L17.25 10.817L17.25 10.8011L17.25 10.7851L17.25 10.7692L17.25 10.7533L17.25 10.7373L17.25 10.7214L17.25 10.7055L17.25 10.6896L17.25 10.6737L17.25 10.6578L17.25 10.6419L17.25 10.626L17.25 10.6102L17.25 10.5943L17.25 10.5784L17.25 10.5626L17.25 10.5468L17.25 10.5309L17.25 10.5151L17.25 10.4993L17.25 10.4835L17.25 10.4677L17.25 10.4519L17.25 10.4362L17.25 10.4204L17.25 10.4047L17.25 10.3889L17.25 10.3732L17.25 10.3575L17.25 10.3418L17.25 10.3261L17.25 10.3104L17.25 10.2947L17.25 10.2791L17.25 10.2634L17.25 10.2478L17.25 10.2322L17.25 10.2166L17.25 10.201L17.25 10.1854L17.25 10.1698L17.25 10.1543L17.25 10.1387L17.25 10.1232L17.25 10.1077L17.25 10.0922L17.25 10.0767L17.25 10.0613L17.25 10.0458L17.25 10.0304L17.25 10.015L17.25 9.99956L17.25 9.98418L17.25 9.9688L17.25 9.95345L17.25 9.93811L17.25 9.92279L17.25 9.90748L17.25 9.89219L17.25 9.87692L17.25 9.86166L17.25 9.84643L17.25 9.83121L17.25 9.81601L17.25 9.80082L17.25 9.78566L17.25 9.77051L17.25 9.75538L17.25 9.74028L17.25 9.72519L17.25 9.71012L17.25 9.69507L17.25 9.68003L17.25 9.66502L17.25 9.65003C17.25 9.64973 17.25 9.64942 17.25 9.64912Z" fill="white"/>
</svg>
