<svg width="24" height="25" viewBox="0 0 24 25" fill="none" xmlns="http://www.w3.org/2000/svg">
<path fill-rule="evenodd" clip-rule="evenodd" d="M3.53023 2.52973C3.23734 2.23684 2.76247 2.23684 2.46957 2.52973C2.17668 2.82262 2.17668 3.2975 2.46957 3.59039L5.13723 6.25804C3.91106 7.07864 2.99173 8.06413 2.35714 9.02371C1.64412 10.1019 1.25 11.2113 1.25 12.06C1.25 12.7216 1.48923 13.5305 1.91294 14.344C2.34365 15.1709 2.99041 16.0526 3.86629 16.8611C5.62703 18.4864 8.30768 19.81 12 19.81C14.1796 19.81 16.0109 19.3487 17.5107 18.6315L20.4696 21.5904C20.7625 21.8833 21.2373 21.8833 21.5302 21.5904C21.8231 21.2975 21.8231 20.8226 21.5302 20.5297L3.53023 2.52973ZM16.3748 17.4956L14.0679 15.1887C13.4751 15.5811 12.7637 15.8101 11.9999 15.8101C9.92883 15.8101 8.2499 14.1311 8.2499 12.0601C8.2499 11.2963 8.47885 10.5849 8.87127 9.99209L6.22202 7.34283C5.0408 8.07884 4.17938 8.98757 3.60829 9.85113C2.98821 10.7888 2.75 11.6102 2.75 12.06C2.75 12.3984 2.88577 12.9646 3.24331 13.6511C3.59385 14.3241 4.13459 15.0674 4.88371 15.7589C6.37297 17.1336 8.69232 18.31 12 18.31C13.7211 18.31 15.1715 17.9916 16.3748 17.4956ZM9.96904 11.0899C9.82845 11.3835 9.7499 11.7123 9.7499 12.0601C9.7499 13.3027 10.7573 14.3101 11.9999 14.3101C12.3477 14.3101 12.6765 14.2315 12.9701 14.0909L9.96904 11.0899ZM12 5.81003C10.9594 5.81003 10.0189 5.92646 9.17331 6.1273C8.7703 6.22302 8.36601 5.97391 8.2703 5.57091C8.17458 5.16791 8.42369 4.76361 8.82669 4.6679C9.78973 4.43918 10.8467 4.31003 12 4.31003C15.6923 4.31003 18.373 5.63363 20.1337 7.25893C21.0096 8.06744 21.6564 8.94912 22.0871 9.77608C22.5108 10.5896 22.75 11.3984 22.75 12.06C22.75 13.2708 21.9456 15.0651 20.4152 16.5911C20.1218 16.8836 19.647 16.8829 19.3545 16.5896C19.062 16.2963 19.0627 15.8214 19.3561 15.5289C20.7151 14.1739 21.25 12.7391 21.25 12.06C21.25 11.7216 21.1142 11.1555 20.7567 10.469C20.4061 9.79595 19.8654 9.05263 19.1163 8.36114C17.627 6.98644 15.3077 5.81003 12 5.81003Z" fill="white"/>
</svg>
