<svg width="24" height="25" viewBox="0 0 24 25" fill="none" xmlns="http://www.w3.org/2000/svg">
<path fill-rule="evenodd" clip-rule="evenodd" d="M2.75 12.0601C2.75 11.7216 2.88577 11.1555 3.24331 10.469C3.59385 9.79597 4.13459 9.05266 4.88371 8.36116C6.37297 6.98646 8.69232 5.81006 12 5.81006C15.3077 5.81006 17.627 6.98646 19.1163 8.36116C19.8654 9.05266 20.4061 9.79597 20.7567 10.469C21.1142 11.1555 21.25 11.7216 21.25 12.0601C21.25 12.3985 21.1142 12.9646 20.7567 13.6511C20.4061 14.3241 19.8654 15.0675 19.1163 15.759C17.627 17.1337 15.3077 18.3101 12 18.3101C8.69232 18.3101 6.37297 17.1337 4.88371 15.759C4.13459 15.0675 3.59385 14.3241 3.24331 13.6511C2.88577 12.9646 2.75 12.3985 2.75 12.0601ZM12 4.31006C8.30768 4.31006 5.62703 5.63366 3.86629 7.25896C2.99041 8.06746 2.34365 8.94915 1.91294 9.77611C1.48923 10.5896 1.25 11.3985 1.25 12.0601C1.25 12.7216 1.48923 13.5305 1.91294 14.344C2.34365 15.171 2.99041 16.0527 3.86629 16.8612C5.62703 18.4865 8.30768 19.8101 12 19.8101C15.6923 19.8101 18.373 18.4865 20.1337 16.8612C21.0096 16.0527 21.6564 15.171 22.0871 14.344C22.5108 13.5305 22.75 12.7216 22.75 12.0601C22.75 11.3985 22.5108 10.5896 22.0871 9.77611C21.6564 8.94915 21.0096 8.06746 20.1337 7.25896C18.373 5.63366 15.6923 4.31006 12 4.31006ZM9.7499 12.0601C9.7499 10.8174 10.7573 9.81008 11.9999 9.81008C13.2425 9.81008 14.2499 10.8174 14.2499 12.0601C14.2499 13.3027 13.2425 14.3101 11.9999 14.3101C10.7573 14.3101 9.7499 13.3027 9.7499 12.0601ZM11.9999 8.31008C9.92883 8.31008 8.2499 9.98902 8.2499 12.0601C8.2499 14.1312 9.92883 15.8101 11.9999 15.8101C14.071 15.8101 15.7499 14.1312 15.7499 12.0601C15.7499 9.98902 14.071 8.31008 11.9999 8.31008Z" fill="white"/>
</svg>
