<svg width="24" height="25" viewBox="0 0 24 25" fill="none" xmlns="http://www.w3.org/2000/svg">
<path fill-rule="evenodd" clip-rule="evenodd" d="M3.25 4.65002C3.25 4.23581 3.58579 3.90002 4 3.90002H8.5H9C9.41421 3.90002 9.75 4.23581 9.75 4.65002C9.75 5.06424 9.41421 5.40002 9 5.40002H8.5H4.75V9.15002V9.65002C4.75 10.0642 4.41421 10.4 4 10.4C3.58579 10.4 3.25 10.0642 3.25 9.65002V9.15002V4.65002ZM14.25 4.65002C14.25 4.23581 14.5858 3.90002 15 3.90002H15.5H20C20.4142 3.90002 20.75 4.23581 20.75 4.65002V9.15002V9.65002C20.75 10.0642 20.4142 10.4 20 10.4C19.5858 10.4 19.25 10.0642 19.25 9.65002V9.15002V5.40002H15.5H15C14.5858 5.40002 14.25 5.06424 14.25 4.65002ZM4 14.9C4.41421 14.9 4.75 15.2358 4.75 15.65V16.15V19.9H8.5H9C9.41421 19.9 9.75 20.2358 9.75 20.65C9.75 21.0642 9.41421 21.4 9 21.4H8.5H4C3.58579 21.4 3.25 21.0642 3.25 20.65V16.15V15.65C3.25 15.2358 3.58579 14.9 4 14.9ZM20 14.9C20.4142 14.9 20.75 15.2358 20.75 15.65V16.15V20.65C20.75 21.0642 20.4142 21.4 20 21.4H15.5H15C14.5858 21.4 14.25 21.0642 14.25 20.65C14.25 20.2358 14.5858 19.9 15 19.9H15.5H19.25V16.15V15.65C19.25 15.2358 19.5858 14.9 20 14.9Z" fill="white"/>
</svg>
