<svg width="24" height="25" viewBox="0 0 24 25" fill="none" xmlns="http://www.w3.org/2000/svg">
<path fill-rule="evenodd" clip-rule="evenodd" d="M9.75 4.65002C9.75 4.23581 9.41421 3.90002 9 3.90002C8.58579 3.90002 8.25 4.23581 8.25 4.65002V8.90002H3C2.58579 8.90002 2.25 9.23581 2.25 9.65002C2.25 10.0642 2.58579 10.4 3 10.4H9C9.41421 10.4 9.75 10.0642 9.75 9.65002V4.65002ZM3 14.9C2.58579 14.9 2.25 15.2358 2.25 15.65C2.25 16.0642 2.58579 16.4 3 16.4H8.25V20.65C8.25 21.0642 8.58579 21.4 9 21.4C9.41421 21.4 9.75 21.0642 9.75 20.65V15.65C9.75 15.2358 9.41421 14.9 9 14.9H3ZM15 3.90002C15.4142 3.90002 15.75 4.23581 15.75 4.65002V8.90002H21C21.4142 8.90002 21.75 9.23581 21.75 9.65002C21.75 10.0642 21.4142 10.4 21 10.4H15C14.5858 10.4 14.25 10.0642 14.25 9.65002V4.65002C14.25 4.23581 14.5858 3.90002 15 3.90002ZM15 14.9C14.5858 14.9 14.25 15.2358 14.25 15.65V20.65C14.25 21.0642 14.5858 21.4 15 21.4C15.4142 21.4 15.75 21.0642 15.75 20.65V16.4H21C21.4142 16.4 21.75 16.0642 21.75 15.65C21.75 15.2358 21.4142 14.9 21 14.9H15Z" fill="white"/>
</svg>
