<svg width="24" height="25" viewBox="0 0 24 25" fill="none" xmlns="http://www.w3.org/2000/svg">
<path fill-rule="evenodd" clip-rule="evenodd" d="M4.17149 5.48138C3.80155 5.77293 3.75 5.97414 3.75 6.06006C3.75 6.12916 3.77982 6.26515 3.98069 6.46942C4.18446 6.67663 4.5197 6.90498 5.00447 7.1296C5.97101 7.57745 7.38643 7.94406 9.08776 8.1445C9.46541 8.189 9.75 8.50909 9.75 8.88935V14.4019C10.4716 14.3418 11.2253 14.3101 12 14.3101C12.7747 14.3101 13.5284 14.3418 14.25 14.4019V8.88935C14.25 8.50909 14.5346 8.189 14.9122 8.1445C16.6136 7.94406 18.029 7.57745 18.9955 7.1296C19.4803 6.90498 19.8155 6.67663 20.0193 6.46942C20.2202 6.26515 20.25 6.12916 20.25 6.06006C20.25 5.97414 20.1985 5.77293 19.8285 5.48138C19.467 5.1965 18.8975 4.90714 18.1268 4.65025C16.5933 4.13909 14.4271 3.81006 12 3.81006C9.5729 3.81006 7.4067 4.13909 5.87321 4.65025C5.10255 4.90714 4.53298 5.1965 4.17149 5.48138ZM20.25 8.1632C20.0543 8.28015 19.8452 8.38911 19.6262 8.4906C18.6115 8.96076 17.2713 9.32191 15.75 9.54646V15.2308V20.029C17.0794 19.8177 18.1924 19.5017 18.9955 19.1296C19.4803 18.905 19.8155 18.6766 20.0193 18.4694C20.2202 18.2652 20.25 18.1292 20.25 18.0601V8.1632ZM21.75 6.06006V18.0601C21.75 18.6441 21.4668 19.1368 21.0888 19.5211C20.7138 19.9025 20.2044 20.2226 19.6262 20.4906C18.4666 21.0279 16.882 21.4228 15.0878 21.6342C14.875 21.6593 14.6617 21.5922 14.5017 21.4499C14.3416 21.3075 14.25 21.1035 14.25 20.8894V15.9074C13.5336 15.844 12.7794 15.8101 12 15.8101C11.2206 15.8101 10.4664 15.844 9.75 15.9074V20.8894C9.75 21.1035 9.65842 21.3075 9.49834 21.4499C9.33826 21.5922 9.12497 21.6593 8.91224 21.6342C7.118 21.4228 5.53341 21.0279 4.37385 20.4906C3.79556 20.2226 3.28623 19.9025 2.91118 19.5211C2.53323 19.1368 2.25 18.6441 2.25 18.0601V6.06006C2.25 5.31755 2.70213 4.72955 3.24303 4.30326C3.79239 3.87032 4.54085 3.51323 5.39887 3.22723C7.12274 2.6526 9.45654 2.31006 12 2.31006C14.5435 2.31006 16.8773 2.6526 18.6011 3.22723C19.4591 3.51323 20.2076 3.87032 20.757 4.30326C21.2979 4.72955 21.75 5.31755 21.75 6.06006ZM3.75 8.1632V18.0601C3.75 18.1292 3.77982 18.2652 3.98069 18.4694C4.18446 18.6766 4.5197 18.905 5.00447 19.1296C5.80757 19.5017 6.92058 19.8177 8.25 20.029V15.2308V9.54646C6.7287 9.32191 5.38855 8.96076 4.37385 8.4906C4.15482 8.38911 3.94569 8.28015 3.75 8.1632Z" fill="white"/>
</svg>
