<svg width="24" height="25" viewBox="0 0 24 25" fill="none" xmlns="http://www.w3.org/2000/svg">
<path fill-rule="evenodd" clip-rule="evenodd" d="M14.75 2.12C14.75 1.80423 14.5522 1.52229 14.2553 1.41479C13.9584 1.3073 13.626 1.39728 13.4238 1.63986L10.9238 4.63986L10.0905 5.63986C9.82533 5.95806 9.86832 6.43099 10.1865 6.69616C10.5047 6.96133 10.9777 6.91834 11.2428 6.60013L12.0762 5.60013L13.25 4.19153L13.25 10.12C13.25 10.5342 13.5858 10.87 14 10.87C14.4142 10.87 14.75 10.5342 14.75 10.12L14.75 2.12ZM2.53033 1.58967C2.23744 1.29677 1.76256 1.29677 1.46967 1.58967C1.17678 1.88256 1.17678 2.35743 1.46967 2.65033L6.18934 7.37L3 7.37C2.58579 7.37 2.25 7.70578 2.25 8.12L2.25 16.12C2.25 16.5342 2.58579 16.87 3 16.87L8.64872 16.87L13.4238 22.6001C13.626 22.8427 13.9584 22.9327 14.2553 22.8252C14.5522 22.7177 14.75 22.4358 14.75 22.12L14.75 15.9307L21.4697 22.6503C21.7626 22.9432 22.2374 22.9432 22.5303 22.6503C22.8232 22.3574 22.8232 21.8826 22.5303 21.5897L14.5303 13.5897L8.53033 7.58967L2.53033 1.58967ZM3.75 8.87L7.68934 8.87L13.25 14.4307L13.25 20.0485L9.57617 15.6399C9.43367 15.4689 9.22258 15.37 9 15.37L3.75 15.37L3.75 8.87ZM17.3763 5.70349C17.6063 5.35903 18.0721 5.26626 18.4165 5.4963C20.4358 6.8448 21.75 9.32743 21.75 12.12C21.75 13.2935 21.5185 14.4091 21.1018 15.4086C20.9408 15.7948 20.7521 16.1639 20.5382 16.5123C20.3216 16.8654 19.8597 16.9759 19.5067 16.7592C19.1537 16.5425 19.0432 16.0807 19.2598 15.7277C19.4325 15.4463 19.5859 15.1467 19.7173 14.8314C20.0575 14.0155 20.25 13.096 20.25 12.12C20.25 9.7849 19.151 7.79053 17.5835 6.74372C17.239 6.51368 17.1463 6.04796 17.3763 5.70349ZM16.3763 9.70349C16.6063 9.35903 17.0721 9.26626 17.4165 9.4963C18.2402 10.0464 18.75 11.0367 18.75 12.12C18.75 12.577 18.6598 13.0143 18.4955 13.4086C18.3361 13.7909 17.8969 13.9716 17.5146 13.8123C17.1323 13.6529 16.9516 13.2138 17.1109 12.8314C17.1988 12.6206 17.25 12.3795 17.25 12.12C17.25 11.4941 16.9554 10.9921 16.5835 10.7437C16.239 10.5137 16.1463 10.048 16.3763 9.70349Z" fill="white"/>
</svg>
