<svg width="24" height="25" viewBox="0 0 24 25" fill="none" xmlns="http://www.w3.org/2000/svg">
<path fill-rule="evenodd" clip-rule="evenodd" d="M17.2553 1.41483C17.5522 1.52233 17.75 1.80427 17.75 2.12004L17.75 22.12C17.75 22.4358 17.5522 22.7177 17.2553 22.8252C16.9584 22.9327 16.626 22.8428 16.4238 22.6002L11.6487 16.87L6 16.87C5.58579 16.87 5.25 16.5342 5.25 16.12L5.25 8.12004C5.25 7.70582 5.58579 7.37004 6 7.37004L11.6487 7.37004L16.4238 1.6399C16.626 1.39732 16.9584 1.30734 17.2553 1.41483ZM16.25 4.19157L12.5762 8.60017C12.4337 8.77117 12.2226 8.87004 12 8.87004L6.75 8.87004L6.75 15.37L12 15.37C12.2226 15.37 12.4337 15.4689 12.5762 15.6399L16.25 20.0485L16.25 4.19157Z" fill="white"/>
</svg>
