<svg width="24" height="25" viewBox="0 0 24 25" fill="none" xmlns="http://www.w3.org/2000/svg">
<path fill-rule="evenodd" clip-rule="evenodd" d="M13.75 2.12004C13.75 1.80427 13.5522 1.52233 13.2553 1.41483C12.9584 1.30734 12.626 1.39732 12.4238 1.6399L7.64872 7.37004L2 7.37004C1.58579 7.37004 1.25 7.70582 1.25 8.12004L1.25 16.12C1.25 16.5342 1.58579 16.87 2 16.87L7.64872 16.87L12.4238 22.6002C12.626 22.8428 12.9584 22.9327 13.2553 22.8252C13.5522 22.7177 13.75 22.4358 13.75 22.12L13.75 2.12004ZM8.57616 8.60017L12.25 4.19157L12.25 20.0485L8.57617 15.6399C8.43367 15.4689 8.22258 15.37 8 15.37L2.75 15.37L2.75 8.87004L8 8.87004C8.22258 8.87004 8.43367 8.77117 8.57616 8.60017ZM17.5303 9.58971C17.2374 9.29681 16.7626 9.29681 16.4697 9.58971C16.1768 9.8826 16.1768 10.3575 16.4697 10.6504L18.4393 12.62L16.4697 14.5897C16.1768 14.8826 16.1768 15.3575 16.4697 15.6504C16.7626 15.9433 17.2374 15.9433 17.5303 15.6504L19.5 13.6807L21.4697 15.6504C21.7626 15.9433 22.2374 15.9433 22.5303 15.6504C22.8232 15.3575 22.8232 14.8826 22.5303 14.5897L20.5607 12.62L22.5303 10.6504C22.8232 10.3575 22.8232 9.8826 22.5303 9.58971C22.2374 9.29681 21.7626 9.29681 21.4697 9.58971L19.5 11.5594L17.5303 9.58971Z" fill="white"/>
</svg>
