<svg width="24" height="25" viewBox="0 0 24 25" fill="none" xmlns="http://www.w3.org/2000/svg">
<path fill-rule="evenodd" clip-rule="evenodd" d="M16.75 2.12004C16.75 1.80427 16.5522 1.52233 16.2553 1.41483C15.9584 1.30734 15.626 1.39732 15.4238 1.6399L10.6487 7.37004L5 7.37004C4.58579 7.37004 4.25 7.70582 4.25 8.12004L4.25 16.12C4.25 16.5342 4.58579 16.87 5 16.87L10.6487 16.87L15.4238 22.6002C15.626 22.8428 15.9584 22.9327 16.2553 22.8252C16.5522 22.7177 16.75 22.4358 16.75 22.12L16.75 2.12004ZM11.5762 8.60017L15.25 4.19157L15.25 20.0485L11.5762 15.6399C11.4337 15.4689 11.2226 15.37 11 15.37L5.75 15.37L5.75 8.87004L11 8.87004C11.2226 8.87004 11.4337 8.77117 11.5762 8.60017ZM19.4165 9.49631C19.0721 9.26628 18.6063 9.35904 18.3763 9.7035C18.1463 10.048 18.239 10.5137 18.5835 10.7437C18.9554 10.9921 19.25 11.4941 19.25 12.12C19.25 12.7459 18.9554 13.2479 18.5835 13.4963C18.239 13.7263 18.1463 14.1921 18.3763 14.5365C18.6063 14.881 19.0721 14.9738 19.4165 14.7437C20.2402 14.1937 20.75 13.2034 20.75 12.12C20.75 11.0367 20.2402 10.0464 19.4165 9.49631Z" fill="white"/>
</svg>
