<svg width="24" height="25" viewBox="0 0 24 25" fill="none" xmlns="http://www.w3.org/2000/svg">
<path fill-rule="evenodd" clip-rule="evenodd" d="M14.75 2.12004C14.75 1.80427 14.5522 1.52233 14.2553 1.41483C13.9584 1.30734 13.626 1.39732 13.4238 1.6399L8.64872 7.37004L3 7.37004C2.58579 7.37004 2.25 7.70582 2.25 8.12004L2.25 16.12C2.25 16.5342 2.58579 16.87 3 16.87L8.64872 16.87L13.4238 22.6002C13.626 22.8428 13.9584 22.9327 14.2553 22.8252C14.5522 22.7177 14.75 22.4358 14.75 22.12L14.75 2.12004ZM9.57617 8.60017L13.25 4.19157L13.25 20.0485L9.57617 15.6399C9.43367 15.4689 9.22258 15.37 9 15.37L3.75 15.37L3.75 8.87004L9 8.87004C9.22258 8.87004 9.43367 8.77117 9.57617 8.60017ZM17.3763 5.70353C17.6063 5.35907 18.0721 5.2663 18.4165 5.49634C20.4358 6.84484 21.75 9.32747 21.75 12.1201C21.75 14.9126 20.4358 17.3953 18.4165 18.7438C18.0721 18.9738 17.6063 18.881 17.3763 18.5366C17.1463 18.1921 17.239 17.7264 17.5835 17.4963C19.151 16.4495 20.25 14.4552 20.25 12.12C20.25 9.78494 19.151 7.79057 17.5835 6.74376C17.239 6.51372 17.1463 6.048 17.3763 5.70353ZM16.3763 9.70353C16.6063 9.35907 17.0721 9.26631 17.4165 9.49634C18.2402 10.0464 18.75 11.0367 18.75 12.1201C18.75 13.2034 18.2402 14.1937 17.4165 14.7438C17.0721 14.9738 16.6063 14.881 16.3763 14.5366C16.1463 14.1921 16.239 13.7264 16.5835 13.4963C16.9554 13.248 17.25 12.7459 17.25 12.1201C17.25 11.4942 16.9554 10.9921 16.5835 10.7438C16.239 10.5137 16.1463 10.048 16.3763 9.70353Z" fill="white"/>
</svg>
