<svg width="24" height="25" viewBox="0 0 24 25" fill="none" xmlns="http://www.w3.org/2000/svg">
<path fill-rule="evenodd" clip-rule="evenodd" d="M4 2.90002C2.48122 2.90002 1.25 4.13124 1.25 5.65003V21.65C1.25 22.0642 1.58579 22.4 2 22.4H22C22.4142 22.4 22.75 22.0642 22.75 21.65V16.65V12.65V7.65003C22.75 7.23581 22.4142 6.90003 22 6.90003H18.75V3.65003C18.75 3.23581 18.4142 2.90002 18 2.90002H4ZM21.25 11.9V8.40003H18H12H4C3.54989 8.40003 3.12503 8.29189 2.75 8.10017V20.9H21.25V17.4H18C17.5858 17.4 17.25 17.0642 17.25 16.65V12.65C17.25 12.2358 17.5858 11.9 18 11.9H21.25ZM21.25 15.9V13.4H18.75V15.9H21.25ZM17.25 4.40003H4C3.30964 4.40003 2.75 4.95967 2.75 5.65003C2.75 6.34038 3.30964 6.90003 4 6.90003H12H17.25V4.40003ZM6.75 14.65C6.75 14.2358 7.08579 13.9 7.5 13.9H12.5C12.9142 13.9 13.25 14.2358 13.25 14.65C13.25 15.0642 12.9142 15.4 12.5 15.4H7.5C7.08579 15.4 6.75 15.0642 6.75 14.65Z" fill="white"/>
</svg>
