<svg width="24" height="25" viewBox="0 0 24 25" fill="none" xmlns="http://www.w3.org/2000/svg">
<path fill-rule="evenodd" clip-rule="evenodd" d="M4 2.90002C2.48122 2.90002 1.25 4.13124 1.25 5.65003V21.65C1.25 22.0642 1.58579 22.4 2 22.4H22C22.4142 22.4 22.75 22.0642 22.75 21.65V16.65V12.65V7.65003C22.75 7.23581 22.4142 6.90003 22 6.90003H18.75V3.65003C18.75 3.23581 18.4142 2.90002 18 2.90002H4ZM21.25 11.9V8.40003H18H12H4C3.54989 8.40003 3.12503 8.29189 2.75 8.10017V20.9H21.25V17.4H18C17.5858 17.4 17.25 17.0642 17.25 16.65V12.65C17.25 12.2358 17.5858 11.9 18 11.9H21.25ZM21.25 15.9V13.4H18.75V15.9H21.25ZM17.25 4.40003H4C3.30964 4.40003 2.75 4.95967 2.75 5.65003C2.75 6.34038 3.30964 6.90003 4 6.90003H12H17.25V4.40003ZM9.96967 11.6197C10.2626 11.3268 10.7374 11.3268 11.0303 11.6197L13.5303 14.1197C13.8232 14.4126 13.8232 14.8875 13.5303 15.1804L11.0303 17.6804C10.7374 17.9732 10.2626 17.9732 9.96967 17.6804C9.67678 17.3875 9.67678 16.9126 9.96967 16.6197L11.1893 15.4H7C6.58579 15.4 6.25 15.0642 6.25 14.65C6.25 14.2358 6.58579 13.9 7 13.9H11.1893L9.96967 12.6804C9.67678 12.3875 9.67678 11.9126 9.96967 11.6197Z" fill="white"/>
</svg>
