<svg width="24" height="25" viewBox="0 0 24 25" fill="none" xmlns="http://www.w3.org/2000/svg">
<path fill-rule="evenodd" clip-rule="evenodd" d="M1.25 5.65003C1.25 4.13124 2.48122 2.90002 4 2.90002H18C18.4142 2.90002 18.75 3.23581 18.75 3.65003V6.90003H22C22.4142 6.90003 22.75 7.23581 22.75 7.65003V12.65V16.65V21.65C22.75 22.0642 22.4142 22.4 22 22.4H2C1.58579 22.4 1.25 22.0642 1.25 21.65V5.65003ZM21.25 15.9V13.4H18.75V15.9H21.25ZM21.25 11.9H18C17.5858 11.9 17.25 12.2358 17.25 12.65V16.65C17.25 17.0642 17.5858 17.4 18 17.4H21.25V20.9H2.75V8.10017C3.12503 8.29189 3.54989 8.40003 4 8.40003H12H18H21.25V11.9ZM4 4.40003H17.25V6.90003H12H4C3.30964 6.90003 2.75 6.34038 2.75 5.65003C2.75 4.95967 3.30964 4.40003 4 4.40003Z" fill="white"/>
</svg>
