<svg width="24" height="25" viewBox="0 0 24 25" fill="none" xmlns="http://www.w3.org/2000/svg">
<path fill-rule="evenodd" clip-rule="evenodd" d="M4 2.90002C2.48122 2.90002 1.25 4.13124 1.25 5.65003V21.65C1.25 22.0642 1.58579 22.4 2 22.4H22C22.4142 22.4 22.75 22.0642 22.75 21.65V16.65V12.65V7.65003C22.75 7.23581 22.4142 6.90003 22 6.90003H18.75V3.65003C18.75 3.23581 18.4142 2.90002 18 2.90002H4ZM21.25 11.9V8.40003H18H12H4C3.54989 8.40003 3.12503 8.29189 2.75 8.10017V20.9H21.25V17.4H18C17.5858 17.4 17.25 17.0642 17.25 16.65V12.65C17.25 12.2358 17.5858 11.9 18 11.9H21.25ZM21.25 15.9V13.4H18.75V15.9H21.25ZM17.25 4.40003H4C3.30964 4.40003 2.75 4.95967 2.75 5.65003C2.75 6.34038 3.30964 6.90003 4 6.90003H12H17.25V4.40003ZM13.0303 14.6197C13.3232 14.9126 13.3232 15.3875 13.0303 15.6804L10.5303 18.1804C10.2374 18.4732 9.76256 18.4732 9.46967 18.1804L6.96967 15.6804C6.67678 15.3875 6.67678 14.9126 6.96967 14.6197C7.26256 14.3268 7.73744 14.3268 8.03033 14.6197L9.25 15.8394V11.65C9.25 11.2358 9.58579 10.9 10 10.9C10.4142 10.9 10.75 11.2358 10.75 11.65V15.8394L11.9697 14.6197C12.2626 14.3268 12.7374 14.3268 13.0303 14.6197Z" fill="white"/>
</svg>
