<svg width="24" height="25" viewBox="0 0 24 25" fill="none" xmlns="http://www.w3.org/2000/svg">
<path fill-rule="evenodd" clip-rule="evenodd" d="M8.71962 2.34984C8.79882 2.0104 9.10144 1.77026 9.45 1.77026L15.05 1.77027C15.3986 1.77027 15.7012 2.0104 15.7804 2.34984L16.4804 5.34984C16.5142 5.49477 16.5035 5.63969 16.4572 5.77027L18.75 5.77027C19.1642 5.77027 19.5 6.10605 19.5 6.52027L19.5 18.5203C19.5 18.9345 19.1642 19.2703 18.75 19.2703L16.4572 19.2703C16.5035 19.4008 16.5142 19.5458 16.4804 19.6907L15.7804 22.6907C15.7012 23.0301 15.3986 23.2703 15.05 23.2703L9.45 23.2703C9.10144 23.2703 8.79882 23.0301 8.71962 22.6907L8.01962 19.6907C7.9858 19.5458 7.9965 19.4008 8.04279 19.2703L5.75 19.2703C5.33579 19.2703 5 18.9345 5 18.5203L5 6.52027C5 6.10605 5.33579 5.77027 5.75 5.77027L8.04279 5.77027C7.9965 5.63969 7.9858 5.49477 8.01962 5.34984L8.71962 2.34984ZM9.45718 19.2703C9.46626 19.2961 9.47402 19.3226 9.48038 19.3498L10.0451 21.7703L14.4549 21.7703L15.0196 19.3498C15.026 19.3226 15.0337 19.2961 15.0428 19.2703L9.45718 19.2703ZM15.0196 5.69069C15.026 5.71793 15.0337 5.74448 15.0428 5.77027L9.45718 5.77027C9.46626 5.74448 9.47402 5.71793 9.48038 5.69069L10.0451 3.27027L14.4549 3.27027L15.0196 5.69069ZM6.5 17.7703L6.5 7.27027L18 7.27027L18 17.7703L6.5 17.7703ZM13 10.6456C13 10.2314 12.6642 9.89564 12.25 9.89564C11.8358 9.89564 11.5 10.2314 11.5 10.6456L11.5 12.6456C11.5 12.8964 11.6253 13.1306 11.834 13.2697L13.334 14.2697C13.6786 14.4994 14.1443 14.4063 14.374 14.0617C14.6038 13.717 14.5107 13.2514 14.166 13.0216L13 12.2443L13 10.6456Z" fill="white"/>
</svg>
