<svg width="24" height="25" viewBox="0 0 24 25" fill="none" xmlns="http://www.w3.org/2000/svg">
<path fill-rule="evenodd" clip-rule="evenodd" d="M8.27239 2.58837C8.35586 2.25449 8.65585 2.02027 9 2.02027L15 2.02027C15.3442 2.02027 15.6441 2.25449 15.7276 2.58836L16.7276 6.58836C16.7316 6.60453 16.7351 6.6207 16.7381 6.63686C18.5703 8.05432 19.75 10.2745 19.75 12.7703C19.75 15.266 18.5703 17.4863 16.7381 18.9037C16.7351 18.9199 16.7316 18.936 16.7276 18.9522L15.7276 22.9522C15.6441 23.2861 15.3442 23.5203 15 23.5203L9 23.5203C8.65585 23.5203 8.35586 23.2861 8.27239 22.9522L7.27239 18.9522C7.26836 18.936 7.26488 18.9199 7.26194 18.9037C5.42972 17.4863 4.25 15.266 4.25 12.7703C4.25 10.2745 5.42972 8.05431 7.26193 6.63685C7.26487 6.6207 7.26835 6.60453 7.27239 6.58837L8.27239 2.58837ZM9.06703 19.9461L9.58558 22.0203L14.4144 22.0203L14.933 19.9461C14.0283 20.3162 13.038 20.5203 12 20.5203C10.962 20.5203 9.97175 20.3162 9.06703 19.9461ZM14.4144 3.52027L14.933 5.59451C14.0283 5.22434 13.038 5.02029 12 5.02029C10.962 5.02029 9.97174 5.22434 9.06702 5.59451L9.58558 3.52027L14.4144 3.52027ZM5.75 12.7703C5.75 9.31851 8.54822 6.52029 12 6.52029C15.4518 6.52029 18.25 9.31851 18.25 12.7703C18.25 16.2221 15.4518 19.0203 12 19.0203C8.54822 19.0203 5.75 16.2221 5.75 12.7703ZM12.75 10.7703C12.75 10.3561 12.4142 10.0203 12 10.0203C11.5858 10.0203 11.25 10.3561 11.25 10.7703L11.25 12.7703C11.25 13.0211 11.3753 13.2552 11.584 13.3943L13.084 14.3943C13.4286 14.6241 13.8943 14.531 14.124 14.1863C14.3538 13.8417 14.2607 13.376 13.916 13.1463L12.75 12.3689L12.75 10.7703Z" fill="white"/>
</svg>
