<svg width="24" height="25" viewBox="0 0 24 25" fill="none" xmlns="http://www.w3.org/2000/svg">
<path d="M3.29289 20.7071L2.76256 21.2374L2.76256 21.2374L3.29289 20.7071ZM20.7071 20.7071L21.2374 21.2374L21.2374 21.2374L20.7071 20.7071ZM20.7071 3.29289L21.2374 2.76256L21.2374 2.76256L20.7071 3.29289ZM5 10.06V9.31C4.58579 9.31 4.25 9.64578 4.25 10.06H5ZM5 13.56H4.25C4.25 13.9742 4.58579 14.31 5 14.31V13.56ZM19 13.56V14.31C19.4142 14.31 19.75 13.9742 19.75 13.56H19ZM19 10.06H19.75C19.75 9.64578 19.4142 9.31 19 9.31V10.06ZM5 15.25C4.58579 15.25 4.25 15.5858 4.25 16C4.25 16.4142 4.58579 16.75 5 16.75V15.25ZM13 16.75C13.4142 16.75 13.75 16.4142 13.75 16C13.75 15.5858 13.4142 15.25 13 15.25V16.75ZM5 17.75C4.58579 17.75 4.25 18.0858 4.25 18.5C4.25 18.9142 4.58579 19.25 5 19.25V17.75ZM13 19.25C13.4142 19.25 13.75 18.9142 13.75 18.5C13.75 18.0858 13.4142 17.75 13 17.75V19.25ZM5 3.75H19V2.25H5V3.75ZM19 20.25H5V21.75H19V20.25ZM3.75 19V7.5H2.25V19H3.75ZM3.75 7.5V5H2.25V7.5H3.75ZM20.25 5V7.5H21.75V5H20.25ZM20.25 7.5V19H21.75V7.5H20.25ZM3 8.25H21V6.75H3V8.25ZM5 20.25C4.50739 20.25 4.21339 20.2484 4.00266 20.2201C3.90611 20.2071 3.85774 20.1918 3.83596 20.1828C3.83092 20.1808 3.8276 20.1791 3.82567 20.1781C3.82376 20.1771 3.82291 20.1766 3.82283 20.1765C3.82276 20.1765 3.823 20.1766 3.82335 20.1769C3.82369 20.1772 3.82368 20.1772 3.82322 20.1768L2.76256 21.2374C3.07159 21.5465 3.44731 21.6589 3.80279 21.7067C4.1367 21.7516 4.5498 21.75 5 21.75V20.25ZM2.25 19C2.25 19.4502 2.24841 19.8633 2.2933 20.1972C2.34109 20.5527 2.45354 20.9284 2.76256 21.2374L3.82322 20.1768C3.82277 20.1763 3.82279 20.1763 3.82307 20.1767C3.82335 20.177 3.82351 20.1772 3.82347 20.1772C3.82341 20.1771 3.82286 20.1762 3.82186 20.1743C3.82085 20.1724 3.81923 20.1691 3.81716 20.164C3.8082 20.1423 3.79291 20.0939 3.77992 19.9973C3.75159 19.7866 3.75 19.4926 3.75 19H2.25ZM19 21.75C19.4502 21.75 19.8633 21.7516 20.1972 21.7067C20.5527 21.6589 20.9284 21.5465 21.2374 21.2374L20.1768 20.1768C20.1763 20.1772 20.1763 20.1772 20.1767 20.1769C20.177 20.1766 20.1772 20.1765 20.1772 20.1765C20.1771 20.1766 20.1762 20.1771 20.1743 20.1781C20.1724 20.1791 20.1691 20.1808 20.164 20.1828C20.1423 20.1918 20.0939 20.2071 19.9973 20.2201C19.7866 20.2484 19.4926 20.25 19 20.25V21.75ZM20.25 19C20.25 19.4926 20.2484 19.7866 20.2201 19.9973C20.2071 20.0939 20.1918 20.1423 20.1828 20.164C20.1808 20.1691 20.1791 20.1724 20.1781 20.1743C20.1771 20.1762 20.1766 20.1771 20.1765 20.1772C20.1765 20.1772 20.1766 20.177 20.1769 20.1767C20.1772 20.1763 20.1772 20.1763 20.1768 20.1768L21.2374 21.2374C21.5465 20.9284 21.6589 20.5527 21.7067 20.1972C21.7516 19.8633 21.75 19.4502 21.75 19H20.25ZM19 3.75C19.4926 3.75 19.7866 3.75159 19.9973 3.77992C20.0939 3.79291 20.1423 3.8082 20.164 3.81716C20.1691 3.81923 20.1724 3.82085 20.1743 3.82186C20.1762 3.82286 20.1771 3.82341 20.1772 3.82347C20.1772 3.82351 20.177 3.82335 20.1767 3.82307C20.1763 3.82279 20.1763 3.82277 20.1768 3.82322L21.2374 2.76256C20.9284 2.45354 20.5527 2.34109 20.1972 2.2933C19.8633 2.24841 19.4502 2.25 19 2.25V3.75ZM21.75 5C21.75 4.5498 21.7516 4.1367 21.7067 3.80279C21.6589 3.44731 21.5465 3.07159 21.2374 2.76256L20.1768 3.82322C20.1772 3.82368 20.1772 3.82369 20.1769 3.82335C20.1766 3.823 20.1765 3.82276 20.1765 3.82283C20.1766 3.82291 20.1771 3.82376 20.1781 3.82567C20.1791 3.8276 20.1808 3.83092 20.1828 3.83596C20.1918 3.85774 20.2071 3.90611 20.2201 4.00266C20.2484 4.21339 20.25 4.50739 20.25 5H21.75ZM5 2.25C4.5498 2.25 4.1367 2.24841 3.80279 2.2933C3.44731 2.34109 3.07159 2.45354 2.76256 2.76256L3.82322 3.82322C3.82368 3.82277 3.8237 3.82279 3.82335 3.82307C3.823 3.82335 3.82277 3.82351 3.82283 3.82347C3.82292 3.82341 3.82376 3.82286 3.82567 3.82186C3.8276 3.82085 3.83092 3.81923 3.83596 3.81716C3.85774 3.8082 3.90611 3.79291 4.00266 3.77992C4.21339 3.75159 4.50739 3.75 5 3.75V2.25ZM3.75 5C3.75 4.50739 3.75159 4.21339 3.77992 4.00266C3.79291 3.90611 3.8082 3.85774 3.81716 3.83596C3.81923 3.83092 3.82085 3.8276 3.82186 3.82567C3.82286 3.82376 3.82341 3.82292 3.82347 3.82283C3.82351 3.82277 3.82335 3.823 3.82307 3.82335C3.82279 3.8237 3.82277 3.82368 3.82322 3.82322L2.76256 2.76256C2.45354 3.07159 2.34109 3.44731 2.2933 3.80279C2.24841 4.1367 2.25 4.5498 2.25 5H3.75ZM4.25 10.06V13.56H5.75V10.06H4.25ZM5 14.31H19V12.81H5V14.31ZM19.75 13.56V10.06H18.25V13.56H19.75ZM19 9.31H5V10.81H19V9.31ZM5 16.75H13V15.25H5V16.75ZM5 19.25H13V17.75H5V19.25Z" fill="white"/>
<path d="M6 5.31C6 5.72421 5.66421 6.06 5.25 6.06C4.83579 6.06 4.5 5.72421 4.5 5.31C4.5 4.89578 4.83579 4.56 5.25 4.56C5.66421 4.56 6 4.89578 6 5.31Z" fill="white"/>
<path d="M8.5 5.31C8.5 5.72421 8.16421 6.06 7.75 6.06C7.33579 6.06 7 5.72421 7 5.31C7 4.89578 7.33579 4.56 7.75 4.56C8.16421 4.56 8.5 4.89578 8.5 5.31Z" fill="white"/>
<path d="M11.5 5.31C11.5 5.72421 11.1642 6.06 10.75 6.06C10.3358 6.06 10 5.72421 10 5.31C10 4.89578 10.3358 4.56 10.75 4.56C11.1642 4.56 11.5 4.89578 11.5 5.31Z" fill="white"/>
</svg>
