<svg width="24" height="25" viewBox="0 0 24 25" fill="none" xmlns="http://www.w3.org/2000/svg">
<path fill-rule="evenodd" clip-rule="evenodd" d="M3 2.31C2.58579 2.31 2.25 2.64578 2.25 3.06V21.06C2.25 21.4742 2.58579 21.81 3 21.81H21C21.4142 21.81 21.75 21.4742 21.75 21.06V3.06C21.75 2.64578 21.4142 2.31 21 2.31H3ZM3.75 20.31V3.81H20.25V20.31H3.75ZM10 16.31C9.58579 16.31 9.25 16.6458 9.25 17.06C9.25 17.4742 9.58579 17.81 10 17.81H14C14.4142 17.81 14.75 17.4742 14.75 17.06C14.75 16.6458 14.4142 16.31 14 16.31H10ZM6.93205 9.59335L8.4413 12.31H10.8396L9.41436 10.5285C9.15559 10.2051 9.20803 9.73311 9.53147 9.47435C9.85491 9.21559 10.3269 9.26802 10.5856 9.59147L12.5857 12.0915C12.6397 12.1589 12.6801 12.2329 12.7074 12.31H15.5587L17.0679 9.59335C16.8488 9.40138 16.5306 9.15303 16.1141 8.90312C15.2111 8.36128 13.8429 7.81 12 7.81C10.1571 7.81 8.78894 8.36128 7.88587 8.90312C7.46936 9.15303 7.15125 9.40138 6.93205 9.59335ZM18 9.46L18.5762 8.97986C18.7745 9.21788 18.8061 9.55338 18.6556 9.82423L16.6556 13.4242C16.5233 13.6623 16.2724 13.81 16 13.81H8C7.72762 13.81 7.47666 13.6623 7.34438 13.4242L5.34438 9.82423C5.19391 9.55338 5.22548 9.21788 5.42383 8.97986L6 9.46C5.42383 8.97986 5.42407 8.97957 5.42432 8.97928L5.42485 8.97864L5.42606 8.9772L5.42904 8.97367L5.43728 8.96401C5.44379 8.95645 5.45232 8.94665 5.46288 8.93477C5.484 8.91101 5.51325 8.8789 5.55065 8.83963C5.62541 8.76113 5.73292 8.65385 5.87328 8.52753C6.15373 8.27512 6.56713 7.94508 7.11413 7.61688C8.21106 6.95872 9.84287 6.31 12 6.31C14.1571 6.31 15.7889 6.95872 16.8859 7.61688C17.4329 7.94508 17.8463 8.27512 18.1267 8.52753C18.2671 8.65385 18.3746 8.76113 18.4494 8.83963C18.4867 8.8789 18.516 8.91101 18.5371 8.93477C18.5477 8.94665 18.5562 8.95645 18.5627 8.96401L18.571 8.97367L18.5739 8.9772L18.5751 8.97864L18.5757 8.97928C18.5759 8.97957 18.5762 8.97986 18 9.46Z" fill="white"/>
</svg>
