<svg width="24" height="25" viewBox="0 0 24 25" fill="none" xmlns="http://www.w3.org/2000/svg">
<path fill-rule="evenodd" clip-rule="evenodd" d="M6.00003 1.31C5.76908 1.31 5.551 1.4164 5.40887 1.59844C5.26674 1.78048 5.21641 2.01784 5.27242 2.2419L5.78945 4.31H3C2.58579 4.31 2.25 4.64578 2.25 5.06V21.06C2.25 21.4742 2.58579 21.81 3 21.81H21C21.4142 21.81 21.75 21.4742 21.75 21.06V5.06C21.75 4.64578 21.4142 4.31 21 4.31H18.2106L18.7276 2.2419C18.7836 2.01784 18.7333 1.78048 18.5912 1.59844C18.4491 1.4164 18.231 1.31 18 1.31H6.00003ZM17.8356 5.81L16.7276 10.2419C16.6442 10.5758 16.3442 10.81 16 10.81H8.00003C7.65588 10.81 7.35589 10.5758 7.27242 10.2419L6.16445 5.81H3.75V20.31H20.25V5.81H17.8356ZM8.58561 9.31L6.96061 2.81H17.0394L15.4144 9.31H12.8515L13.7211 6.26603C13.8349 5.86776 13.6043 5.45264 13.206 5.33885C12.8078 5.22506 12.3926 5.45569 12.2789 5.85396L11.2914 9.31H8.58561ZM10 16.31C9.58579 16.31 9.25 16.6458 9.25 17.06C9.25 17.4742 9.58579 17.81 10 17.81H14C14.4142 17.81 14.75 17.4742 14.75 17.06C14.75 16.6458 14.4142 16.31 14 16.31H10Z" fill="white"/>
</svg>
