<svg width="24" height="25" viewBox="0 0 24 25" fill="none" xmlns="http://www.w3.org/2000/svg">
<path fill-rule="evenodd" clip-rule="evenodd" d="M7.25 2.27197C7.25 1.85776 7.58579 1.52197 8 1.52197H16C16.4142 1.52197 16.75 1.85776 16.75 2.27197V7.24028C19.1572 8.79921 20.75 11.5086 20.75 14.59C20.75 19.4225 16.8325 23.34 12 23.34C7.16751 23.34 3.25 19.4225 3.25 14.59C3.25 11.5086 4.84281 8.79921 7.25 7.24028V2.27197ZM15.25 3.02197V6.46344C14.2452 6.06124 13.1484 5.83999 12 5.83999C10.8516 5.83999 9.75479 6.06124 8.75 6.46344V3.02197H15.25ZM12 7.33999C7.99594 7.33999 4.75 10.5859 4.75 14.59C4.75 18.5941 7.99594 21.84 12 21.84C16.0041 21.84 19.25 18.5941 19.25 14.59C19.25 10.5859 16.0041 7.33999 12 7.33999ZM8.75 14.59C8.75 14.1758 8.41421 13.84 8 13.84C7.58579 13.84 7.25 14.1758 7.25 14.59C7.25 17.2133 9.37665 19.34 12 19.34C12.4142 19.34 12.75 19.0042 12.75 18.59C12.75 18.1758 12.4142 17.84 12 17.84C10.2051 17.84 8.75 16.3849 8.75 14.59Z" fill="white"/>
</svg>
