<svg width="24" height="25" viewBox="0 0 24 25" fill="none" xmlns="http://www.w3.org/2000/svg">
<path fill-rule="evenodd" clip-rule="evenodd" d="M14.4697 1.05964C14.7626 0.766743 15.2374 0.766743 15.5303 1.05964L19 4.52931L19.9697 3.55964C20.2626 3.26674 20.7374 3.26674 21.0303 3.55964C21.3232 3.85253 21.3232 4.3274 21.0303 4.6203L20.0607 5.58997L23.5303 9.05964C23.8232 9.35253 23.8232 9.8274 23.5303 10.1203L19.5303 14.1203C19.2374 14.4132 18.7626 14.4132 18.4697 14.1203L15 10.6506L12.5303 13.1203L10.0607 15.59L13.5303 19.0596C13.8232 19.3525 13.8232 19.8274 13.5303 20.1203L9.53033 24.1203C9.23744 24.4132 8.76256 24.4132 8.46967 24.1203L5 20.6506L4.03033 21.6203C3.73744 21.9132 3.26256 21.9132 2.96967 21.6203C2.67678 21.3274 2.67678 20.8525 2.96967 20.5596L3.93934 19.59L0.46967 16.1203C0.176777 15.8274 0.176777 15.3525 0.46967 15.0596L4.46967 11.0596C4.76256 10.7667 5.23744 10.7667 5.53033 11.0596L9 14.5293L11.4697 12.0596L13.9393 9.58997L10.4697 6.1203C10.1768 5.8274 10.1768 5.35253 10.4697 5.05964L14.4697 1.05964ZM8.46895 16.1196L5 12.6506L2.06066 15.59L5.53033 19.0596L9 22.5293L11.9393 19.59L8.47039 16.121C8.47015 16.1208 8.46991 16.1205 8.46967 16.1203C8.46943 16.1201 8.46919 16.1198 8.46895 16.1196ZM15 2.65063L18.4697 6.1203L21.9393 9.58997L19 12.5293L15.531 9.06035L15.5303 9.05964L15.5296 9.05892L12.0607 5.58997L15 2.65063Z" fill="white"/>
</svg>
