<svg width="24" height="25" viewBox="0 0 24 25" fill="none" xmlns="http://www.w3.org/2000/svg">
<path fill-rule="evenodd" clip-rule="evenodd" d="M19.238 7.56506C17.6811 5.97278 15.1192 5.97278 13.5623 7.56506L12.5364 8.61423C12.3953 8.75854 12.202 8.83989 12.0001 8.83989C11.7983 8.83989 11.605 8.75854 11.4639 8.61423L10.438 7.56507C8.88114 5.97278 6.31916 5.97278 4.76226 7.56506C3.25405 9.10754 3.25405 11.5722 4.76225 13.1147L12.0001 20.5171L19.238 13.1147C20.7462 11.5722 20.7462 9.10754 19.238 7.56506ZM12.4897 6.51639C14.635 4.32233 18.1653 4.32234 20.3106 6.51639C22.3887 8.64181 22.3887 12.038 20.3106 14.1634L12.5364 22.1142C12.3953 22.2585 12.202 22.3399 12.0001 22.3399C11.7983 22.3399 11.605 22.2585 11.4639 22.1142L3.68974 14.1634C1.61156 12.038 1.61156 8.64181 3.68975 6.51639C5.83504 4.32234 9.36526 4.32234 11.5106 6.51639L12.0001 7.01711L12.4897 6.51639Z" fill="white"/>
<path fill-rule="evenodd" clip-rule="evenodd" d="M13.0527 9.37124C13.3646 9.37367 13.6424 9.56882 13.7504 9.86136L14.7813 12.6525L19.5469 12.6525C19.9611 12.6525 20.2969 12.9883 20.2969 13.4025C20.2969 13.8167 19.9611 14.1525 19.5469 14.1525L14.2588 14.1525C13.9448 14.1524 13.6641 13.9569 13.5553 13.6623L13.0303 12.2411L11.406 16.4361C11.296 16.7204 11.0248 16.9097 10.7199 16.9151C10.4151 16.9205 10.1374 16.7409 10.0173 16.4607L9.02804 14.1525L4.45313 14.1525C4.03891 14.1525 3.70313 13.8167 3.70312 13.4025C3.70312 12.9883 4.03891 12.6525 4.45312 12.6525L9.52259 12.6525C9.82261 12.6525 10.0938 12.8312 10.2119 13.107L10.6714 14.1791L12.3475 9.85041C12.4601 9.5596 12.7409 9.36881 13.0527 9.37124Z" fill="white"/>
</svg>
