<svg width="24" height="25" viewBox="0 0 24 25" fill="none" xmlns="http://www.w3.org/2000/svg">
<path fill-rule="evenodd" clip-rule="evenodd" d="M12 2.99023C11.3096 2.99023 10.75 3.54988 10.75 4.24023C10.75 4.93059 11.3096 5.49023 12 5.49023C12.6904 5.49023 13.25 4.93059 13.25 4.24023C13.25 3.54988 12.6904 2.99023 12 2.99023ZM9.25 4.24023C9.25 2.72145 10.4812 1.49023 12 1.49023C13.5188 1.49023 14.75 2.72145 14.75 4.24023C14.75 5.75902 13.5188 6.99023 12 6.99023C10.4812 6.99023 9.25 5.75902 9.25 4.24023ZM12 8.49023C12.4142 8.49023 12.75 8.82602 12.75 9.24023V11.4902H18C18.4142 11.4902 18.75 11.826 18.75 12.2402C18.75 12.6544 18.4142 12.9902 18 12.9902H12.75V15.4902H18C18.4142 15.4902 18.75 15.826 18.75 16.2402V21.4902H20C20.4142 21.4902 20.75 21.826 20.75 22.2402C20.75 22.6544 20.4142 22.9902 20 22.9902H18C17.5858 22.9902 17.25 22.6544 17.25 22.2402V16.9902H12C11.5858 16.9902 11.25 16.6544 11.25 16.2402V12.2402V9.24023C11.25 8.82602 11.5858 8.49023 12 8.49023ZM4.75 17.2402C4.75 14.893 6.65279 12.9902 9 12.9902C9.41421 12.9902 9.75 12.6544 9.75 12.2402C9.75 11.826 9.41421 11.4902 9 11.4902C5.82436 11.4902 3.25 14.0646 3.25 17.2402C3.25 20.4159 5.82436 22.9902 9 22.9902C10.8817 22.9902 12.5523 22.0856 13.6 20.6907C13.8488 20.3595 13.782 19.8893 13.4508 19.6406C13.1196 19.3918 12.6495 19.4586 12.4007 19.7898C11.624 20.8238 10.39 21.4902 9 21.4902C6.65279 21.4902 4.75 19.5874 4.75 17.2402Z" fill="white"/>
</svg>
