<svg width="24" height="25" viewBox="0 0 24 25" fill="none" xmlns="http://www.w3.org/2000/svg">
<path fill-rule="evenodd" clip-rule="evenodd" d="M2.23242 11.1667C4.65561 8.52468 8.13397 6.87 11.9999 6.87C15.8658 6.87 19.3442 8.52468 21.7674 11.1667C22.0474 11.472 22.5218 11.4925 22.8271 11.2125C23.1323 10.9325 23.1528 10.4581 22.8729 10.1529C20.1775 7.21406 16.3035 5.37 11.9999 5.37C7.6963 5.37 3.8223 7.21406 1.12696 10.1529C0.846986 10.4581 0.867486 10.9325 1.17275 11.2125C1.47801 11.4925 1.95245 11.472 2.23242 11.1667ZM5.66059 13.3838C7.31691 11.8244 9.54612 10.87 11.9999 10.87C14.4536 10.87 16.6829 11.8244 18.3392 13.3838C18.6408 13.6677 19.1154 13.6534 19.3993 13.3518C19.6833 13.0502 19.669 12.5756 19.3674 12.2916C17.4439 10.4808 14.8508 9.37 11.9999 9.37C9.14898 9.37 6.55587 10.4808 4.63238 12.2916C4.3308 12.5756 4.31648 13.0502 4.60042 13.3518C4.88435 13.6534 5.35901 13.6677 5.66059 13.3838ZM11.9998 14.87C10.7 14.87 9.51213 15.3414 8.59509 16.1235C8.27993 16.3923 7.80655 16.3547 7.53776 16.0396C7.26897 15.7244 7.30656 15.251 7.62172 14.9822C8.79999 13.9773 10.3299 13.37 11.9998 13.37C13.6697 13.37 15.1996 13.9773 16.3779 14.9822C16.693 15.251 16.7306 15.7244 16.4618 16.0396C16.193 16.3547 15.7197 16.3923 15.4045 16.1235C14.4875 15.3414 13.2996 14.87 11.9998 14.87ZM12 19.12C12.5523 19.12 13 18.6723 13 18.12C13 17.5677 12.5523 17.12 12 17.12C11.4477 17.12 11 17.5677 11 18.12C11 18.6723 11.4477 19.12 12 19.12Z" fill="white"/>
</svg>
