<svg width="24" height="25" viewBox="0 0 24 25" fill="none" xmlns="http://www.w3.org/2000/svg">
<path fill-rule="evenodd" clip-rule="evenodd" d="M3.71602 2.31122C3.42313 2.01833 2.94826 2.01833 2.65536 2.31122C2.36247 2.60412 2.36247 3.07899 2.65536 3.37188L5.9483 6.66482C4.10945 7.49308 2.47162 8.68678 1.12696 10.1529C0.846986 10.4582 0.867486 10.9326 1.17275 11.2126C1.47801 11.4925 1.95245 11.472 2.23242 11.1668C3.56883 9.70965 5.2264 8.55291 7.09199 7.80851L9.0605 9.77702C7.38019 10.2537 5.86805 11.1283 4.63239 12.2917C4.3308 12.5756 4.31649 13.0503 4.60042 13.3519C4.88436 13.6534 5.35902 13.6678 5.6606 13.3838C6.92636 12.1922 8.52649 11.3542 10.3041 11.025C10.3053 11.0248 10.3065 11.0245 10.3078 11.0243L12.6882 13.4048C12.4618 13.3818 12.2321 13.37 11.9998 13.37C10.3299 13.37 8.8 13.9774 7.62173 14.9823C7.30657 15.2511 7.26898 15.7244 7.53777 16.0396C7.80655 16.3548 8.27994 16.3924 8.5951 16.1236C9.51214 15.3414 10.7 14.87 11.9998 14.87C12.8104 14.87 13.5762 15.0533 14.2598 15.3798C14.4098 15.4515 14.5717 15.4689 14.7234 15.4399L20.6554 21.3719C20.9483 21.6648 21.4231 21.6648 21.716 21.3719C22.0089 21.079 22.0089 20.6041 21.716 20.3112L3.71602 2.31122ZM11.9999 6.87003C11.3565 6.87003 10.7243 6.91583 10.1062 7.00424C9.69616 7.06289 9.31621 6.77803 9.25756 6.36799C9.19891 5.95795 9.48377 5.578 9.89381 5.51935C10.5821 5.42091 11.2853 5.37003 11.9999 5.37003C16.3035 5.37003 20.1775 7.21409 22.8729 10.1529C23.1528 10.4582 23.1323 10.9326 22.8271 11.2126C22.5218 11.4925 22.0474 11.472 21.7674 11.1668C19.3442 8.52472 15.8658 6.87003 11.9999 6.87003ZM13.265 10.1709C13.3474 9.76495 13.7433 9.50267 14.1492 9.58508C16.146 9.99044 17.9409 10.9487 19.3674 12.2917C19.669 12.5756 19.6833 13.0503 19.3994 13.3519C19.1154 13.6534 18.6408 13.6678 18.3392 13.3838C17.1103 12.2269 15.5663 11.4033 13.8508 11.0551C13.4449 10.9727 13.1826 10.5768 13.265 10.1709ZM12 19.12C12.5523 19.12 13 18.6723 13 18.12C13 17.5677 12.5523 17.12 12 17.12C11.4477 17.12 11 17.5677 11 18.12C11 18.6723 11.4477 19.12 12 19.12Z" fill="white"/>
</svg>
