<svg width="24" height="25" viewBox="0 0 24 25" fill="none" xmlns="http://www.w3.org/2000/svg">
<path fill-rule="evenodd" clip-rule="evenodd" d="M4 3.84009C3.58579 3.84009 3.25 4.17588 3.25 4.59009C3.25 5.0043 3.58579 5.34009 4 5.34009L20 5.34009C20.4142 5.34009 20.75 5.0043 20.75 4.59009C20.75 4.17588 20.4142 3.84009 20 3.84009L4 3.84009ZM17.5 12.3401L4 12.3401C3.58579 12.3401 3.25 12.0043 3.25 11.5901C3.25 11.1759 3.58579 10.8401 4 10.8401L17.5 10.8401C19.8472 10.8401 21.75 12.7429 21.75 15.0901C21.75 17.4373 19.8472 19.3401 17.5 19.3401L13.8107 19.3401L15.5303 21.0598C15.8232 21.3527 15.8232 21.8275 15.5303 22.1204C15.2374 22.4133 14.7626 22.4133 14.4697 22.1204L11.4697 19.1204C11.1768 18.8275 11.1768 18.3527 11.4697 18.0598L14.4697 15.0598C14.7626 14.7669 15.2374 14.7669 15.5303 15.0598C15.8232 15.3527 15.8232 15.8275 15.5303 16.1204L13.8107 17.8401L17.5 17.8401C19.0188 17.8401 20.25 16.6089 20.25 15.0901C20.25 13.5713 19.0188 12.3401 17.5 12.3401ZM3.25 18.5901C3.25 18.1759 3.58579 17.8401 4 17.8401L8 17.8401C8.41421 17.8401 8.75 18.1759 8.75 18.5901C8.75 19.0043 8.41421 19.3401 8 19.3401L4 19.3401C3.58579 19.3401 3.25 19.0043 3.25 18.5901Z" fill="white"/>
</svg>
