<svg width="24" height="25" viewBox="0 0 24 25" fill="none" xmlns="http://www.w3.org/2000/svg">
<path fill-rule="evenodd" clip-rule="evenodd" d="M11.9998 4.33997C9.57626 4.33997 7.74976 6.09127 7.74976 8.08997C7.74976 10.0887 9.57626 11.84 11.9998 11.84C15.0991 11.84 17.7498 14.1181 17.7498 17.09C17.7498 17.6882 17.6424 18.2583 17.4455 18.7874C19.1648 17.2755 20.2498 15.0594 20.2498 12.59C20.2498 8.03362 16.5561 4.33997 11.9998 4.33997ZM11.9998 22.34C17.3845 22.34 21.7498 17.9747 21.7498 12.59C21.7498 7.20519 17.3845 2.83997 11.9998 2.83997C6.61498 2.83997 2.24976 7.20519 2.24975 12.59C2.24975 17.9747 6.61498 22.34 11.9998 22.34ZM11.9998 20.84C14.4233 20.84 16.2498 19.0887 16.2498 17.09C16.2498 15.0913 14.4233 13.34 11.9998 13.34C8.9004 13.34 6.24976 11.0618 6.24976 8.08997C6.24976 7.49174 6.35716 6.92162 6.55401 6.39254C4.83474 7.90447 3.74975 10.1205 3.74975 12.59C3.74975 17.1463 7.4434 20.84 11.9998 20.84ZM11.9998 8.58997C12.552 8.58997 12.9998 8.14225 12.9998 7.58997C12.9998 7.03768 12.552 6.58997 11.9998 6.58997C11.4475 6.58997 10.9998 7.03768 10.9998 7.58997C10.9998 8.14225 11.4475 8.58997 11.9998 8.58997ZM12.9998 17.59C12.9998 18.1423 12.552 18.59 11.9998 18.59C11.4475 18.59 10.9998 18.1423 10.9998 17.59C10.9998 17.0377 11.4475 16.59 11.9998 16.59C12.552 16.59 12.9998 17.0377 12.9998 17.59Z" fill="white"/>
</svg>
