<svg width="24" height="25" viewBox="0 0 24 25" fill="none" xmlns="http://www.w3.org/2000/svg">
<path fill-rule="evenodd" clip-rule="evenodd" d="M11 3.87012C6.99594 3.87012 3.75 7.11605 3.75 11.1201C3.75 15.1242 6.99594 18.3701 11 18.3701C15.0041 18.3701 18.25 15.1242 18.25 11.1201C18.25 7.11605 15.0041 3.87012 11 3.87012ZM2.25 11.1201C2.25 6.28763 6.16751 2.37012 11 2.37012C15.8325 2.37012 19.75 6.28763 19.75 11.1201C19.75 13.2663 18.9773 15.2321 17.6949 16.7543L20.5303 19.5898C20.8232 19.8827 20.8232 20.3576 20.5303 20.6504C20.2374 20.9433 19.7626 20.9433 19.4697 20.6504L16.6342 17.815C15.112 19.0974 13.1462 19.8701 11 19.8701C6.16751 19.8701 2.25 15.9526 2.25 11.1201ZM11.75 8.12012C11.75 7.7059 11.4142 7.37012 11 7.37012C10.5858 7.37012 10.25 7.7059 10.25 8.12012V10.3701H8C7.58579 10.3701 7.25 10.7059 7.25 11.1201C7.25 11.5343 7.58579 11.8701 8 11.8701H10.25V14.1201C10.25 14.5343 10.5858 14.8701 11 14.8701C11.4142 14.8701 11.75 14.5343 11.75 14.1201V11.8701H14C14.4142 11.8701 14.75 11.5343 14.75 11.1201C14.75 10.7059 14.4142 10.3701 14 10.3701H11.75V8.12012Z" fill="white"/>
</svg>
